<svg viewBox="0 0 340 580" fill="none" xmlns="http://www.w3.org/2000/svg">
<path d="M315.905 155.402C315.947 156.518 315.989 157.634 316.105 159.546C317.749 161.05 319.319 161.757 320.975 162.503C319.466 162.737 318.028 162.96 316.045 163.267C316.045 172.445 316.369 181.507 315.914 190.531C315.672 195.33 314.08 200.062 313.09 205.164C313.091 205.959 313.1 206.414 313.109 206.869C313.109 206.869 313.106 206.786 312.899 206.879C312.476 207.228 312.26 207.484 311.77 207.988C310.119 211.725 308.601 215.168 307.404 218.718C306.161 222.403 305.227 226.193 304.159 229.936C304.159 229.936 304.129 229.821 303.82 229.899C302.861 231.367 302.211 232.758 301.561 234.149C301.561 234.149 301.505 234.207 301.135 234.104C300.025 235.383 299.284 236.764 298.544 238.146C298.544 238.146 298.494 238.215 298.149 238.108C295.996 239.351 294.156 240.659 292.386 242.056C289.449 244.374 286.89 247.532 283.579 248.946C275.376 252.448 266.806 255.081 258.454 258.247C255.952 259.195 253.68 260.749 251.198 262.337C250.545 264.052 249.997 265.455 249.126 266.957C248.58 267.652 248.356 268.249 248.091 268.81C248.051 268.774 248.15 268.817 247.91 268.909C247.489 269.282 247.309 269.564 247.123 269.806C247.117 269.765 247.147 269.848 246.907 269.932C246.493 270.298 246.319 270.579 246.122 270.873C246.099 270.886 246.146 270.91 245.81 270.885C244.699 271.542 243.923 272.223 243.141 272.897C243.136 272.889 243.123 272.877 242.775 272.841C241.674 273.176 240.92 273.547 240.145 273.913C240.124 273.908 240.086 273.885 239.657 273.845C234.784 274.123 230.302 274.965 225.906 274.638C218.567 274.092 211.282 272.797 204.006 271.79C204.037 271.763 204.008 271.84 203.907 271.603C203.522 271.19 203.236 271.014 202.952 270.871C202.953 270.904 202.888 270.913 202.91 270.552C201.915 269.441 200.898 268.692 199.877 267.915C199.873 267.888 199.908 267.844 199.948 267.452C199.668 265.28 199.347 263.498 199.076 261.396C200.155 261.146 201.278 260.973 202.193 261.331C206.167 262.883 209.96 265.017 214.038 266.154C223.251 268.723 232.619 271.084 242.128 267.53C244.84 266.517 247.3 264.827 249.875 263.448C246.79 262.488 244.343 262.799 241.91 262.72C234.639 262.482 227.327 262.489 220.119 261.648C212.968 260.813 205.923 259.065 198.826 257.375C192.227 253.669 185.661 250.249 179.02 246.981C177.347 246.157 175.436 245.817 173.635 245.254C173.635 245.254 173.604 245.168 173.708 244.857C173.362 242.206 172.557 240.469 169.741 242.152C169.741 242.152 169.773 242.033 169.761 241.767C169.379 241.348 169.01 241.194 168.641 241.041C168.641 241.041 168.777 241.104 168.816 240.757C167.763 239.71 166.671 239.011 165.579 238.312C165.579 238.312 165.585 238.18 165.653 237.854C165.349 237.384 164.978 237.239 164.606 237.094C164.606 237.094 164.758 236.998 164.744 236.764C164.372 236.352 164.013 236.172 163.653 235.993C163.653 235.993 163.81 236.003 163.868 235.679C162.999 231.93 161.805 228.734 157.674 228.052C157.674 228.052 158.005 227.818 158.016 227.639C157.622 226.18 157.315 224.859 156.794 223.629C154.903 219.16 152.858 214.754 151.027 210.261C149.212 205.809 147.585 201.281 145.876 196.786C145.876 196.786 146.03 196.784 145.845 196.559C139.23 196.524 132.795 196.874 126.755 193.864C125.979 193.478 124.808 193.882 123.82 193.92C123.82 193.92 123.954 193.885 123.86 193.657C123.393 193.324 123.02 193.22 122.648 193.115C122.648 193.115 122.779 193.191 122.757 192.854C121.773 191.974 120.812 191.43 119.85 190.887C119.85 190.887 119.97 190.849 119.887 190.63C119.476 190.223 119.149 190.034 118.822 189.846C118.822 189.846 118.975 189.827 118.893 189.624C118.495 189.22 118.181 189.019 117.866 188.818C117.866 188.818 117.975 188.817 117.976 188.519C117.499 187.848 117.019 187.474 116.54 187.1C116.54 187.1 116.519 187.018 116.719 186.766C115.959 183.005 114.4 179.534 114.176 175.98C113.832 170.536 114.408 165.034 114.593 159.556C114.593 159.556 114.417 159.309 114.714 159.355C115.416 159.325 115.822 159.249 116.229 159.172C115.868 158.703 115.507 158.234 115.147 157.765C117.321 154.83 119.495 151.895 122.28 148.691C124.854 147.776 126.818 147.132 129.182 146.52C138.849 144.495 145.326 149.4 150.743 155.852C154.622 141.958 157.709 128.546 162.144 115.595C168.115 98.1621 180.642 86.9025 198.544 82.4999C224.633 76.0838 250.654 77.9757 276.3 85.1523C287.159 88.1909 296.719 93.6155 303.957 102.859C311.256 112.178 312.385 123.203 314.041 134.178C314.821 139.35 315.451 144.544 316.088 150.081C315.986 152.089 315.945 153.745 315.905 155.402ZM264.29 183.114C264.622 183.294 264.953 183.473 265.124 183.645C265.124 183.645 265.173 183.492 265.262 184.167C265.973 184.538 266.685 184.909 267.317 185.299C267.317 185.299 267.381 185.349 267.419 186.03C273.515 191.929 284.556 191.702 289.994 185.684C289.994 185.684 289.879 185.659 290.583 185.687C291.375 184.969 292.167 184.25 292.986 183.678C292.986 183.678 292.837 183.675 293.397 183.525C293.593 183.207 293.788 182.889 293.979 182.681C293.979 182.681 293.874 182.646 294.632 182.734C296.166 181.451 298.079 180.427 299.166 178.838C303.291 172.809 303.467 162.892 299.935 158.81C299.935 158.81 299.919 158.949 299.955 158.282C299.607 157.782 299.259 157.282 299.008 156.79C299.008 156.79 298.984 156.885 298.96 156.222C298.577 155.755 298.194 155.288 297.951 154.823C297.951 154.823 297.915 154.959 297.961 154.266C297.514 153.849 297.067 153.433 296.781 152.928C296.781 152.928 296.784 153.111 296.75 152.377C295.989 151.853 295.228 151.328 294.191 150.809C293.993 150.705 293.93 150.548 293.84 149.589C292.258 146.212 289.598 144.65 286 144.859C286 144.859 285.972 144.971 285.86 144.303C285.543 143.474 285.226 142.645 285.78 141.78C286.77 141.772 287.76 141.749 288.749 141.759C293.11 141.804 294.493 139.069 295.414 135.312C296.468 131.016 292.691 132.164 291.067 130.903C290.078 130.135 289.037 129.434 288.814 128.72C290.549 129.256 292.306 130.282 294.014 130.206C296.224 130.107 299.83 129.632 300.256 128.415C300.948 126.44 300.331 123 298.893 121.459C292.551 114.659 274.37 111.756 266.155 115.729C262.143 117.669 260.012 121.725 261.178 125.496C262.496 129.755 265.972 128.675 268.666 129.166C265.597 129.981 264.122 132.256 265.183 134.997C266.281 137.831 268.439 140.255 270.042 143.5C269.725 144.307 269.409 145.113 269.074 145.803C269.074 145.803 269.192 145.799 268.659 145.966C268.466 146.269 268.274 146.572 268.084 146.794C268.084 146.794 268.163 146.814 267.49 146.839C267.066 147.264 266.641 147.689 266.097 147.95C266.097 147.95 266.278 147.856 265.664 148.082C265.48 148.471 265.295 148.859 264.826 149.815C257.813 156.468 255.527 164.456 258.056 174.402C258.784 175.498 259.511 176.593 260.127 177.697C260.127 177.697 260.15 177.588 260.101 178.296C260.842 179.072 261.583 179.848 262.168 180.666C262.168 180.666 262.173 180.503 262.284 181.087C262.61 181.284 262.935 181.481 263.115 181.7C263.115 181.7 263.121 181.553 263.279 182.113C263.602 182.305 263.925 182.496 264.103 182.704C264.103 182.704 264.111 182.558 264.29 183.114ZM217.988 142.983C217.988 142.983 217.833 143.098 217.765 142.483C217.408 142.349 217.052 142.215 216.806 142.158C216.806 142.158 216.686 142.219 216.67 141.507C216.037 141.34 215.404 141.174 214.902 140.998C214.902 140.998 214.835 141.112 214.832 140.465C214.554 139.89 214.276 139.316 214.805 138.746C215.462 138.713 216.155 138.804 216.77 138.626C219.947 137.706 222.856 137.005 223.202 132.49C223.561 127.804 220.503 127.684 217.637 126.75C217.067 126.564 216.609 126.032 216.986 125.664C218.316 125.726 219.646 125.827 220.976 125.844C226.022 125.906 228.76 122.572 226.431 118.172C225.042 115.548 222.007 113.046 219.168 112.07C207.207 107.957 195.657 109.144 184.853 116.143C182.053 117.957 179.717 120.324 181.414 123.348C182.25 124.84 185.744 124.842 187.784 126.227C187.398 128.021 186.125 130.861 186.785 131.42C189.088 133.369 191.966 135.503 194.796 135.772C199.518 136.221 204.475 133.444 208.135 136.77C205.341 136.759 202.464 136.325 199.778 136.855C197.12 137.38 194.654 138.879 192.095 139.837C192.095 139.837 192.207 139.857 191.456 139.793C190.806 140.284 190.157 140.774 189.436 141.241C189.436 141.241 189.365 141.219 188.662 141.107C188.143 141.842 187.624 142.576 186.742 143.819C184.077 147.818 181.412 151.818 178.062 156.007C174.233 161.884 176.32 171.08 182.163 174.677C182.163 174.677 182.188 174.547 182.127 175.272C182.911 175.976 183.694 176.68 184.407 177.52C184.407 177.52 184.313 177.399 184.353 178.019C184.71 178.167 185.066 178.314 185.279 178.419C185.279 178.419 185.398 178.326 185.359 179.057C186.323 179.575 187.287 180.094 188.131 180.651C188.131 180.651 188.135 180.524 188.299 181.106C188.655 181.251 189.012 181.395 189.19 181.532C189.19 181.532 189.269 181.371 189.349 182.131C190.663 182.584 191.977 183.038 193.15 183.518C193.15 183.518 193.197 183.383 193.429 184.122C199.671 187.469 206.745 187.18 210.96 183.557C210.96 183.557 210.807 183.54 211.499 183.653C211.986 183.264 212.474 182.875 212.985 182.633C212.985 182.633 212.837 182.616 213.584 182.647C214.056 182.158 214.528 181.669 215.408 180.708C222.237 175.208 226.387 168.678 226.155 159.304C225.996 152.867 221.862 149.083 218.835 143.689C218.512 143.404 218.189 143.119 217.988 142.983ZM249.909 199.758C252.205 198.124 255.054 195.955 258.441 193.546C254.781 191.256 252.486 188.762 249.909 188.424C244.313 187.69 238.479 187.432 232.933 188.258C230.445 188.629 228.415 192.072 226.177 194.122C228.246 195.74 230.221 197.501 232.412 198.933C234.164 200.078 237.532 200.827 238.546 201.758C233.987 202.093 228.053 202.263 223.52 202.817C220.662 203.167 217.874 204.087 214.215 204.743C209.198 205.088 207.703 207.237 209.585 211.691C210.148 213.022 211.163 214.2 212.122 215.317C221.455 226.183 240.602 229.618 254.236 224.035C257.965 222.508 261.653 220.248 264.484 217.441C265.853 216.083 265.194 212.68 265.453 210.203C263.411 210.444 261.36 210.631 259.331 210.954C258.545 211.08 257.808 211.773 257.046 211.258C257.486 205.779 252.307 203.73 249.909 199.758Z" fill="#96481B"/>
<path d="M298.875 484.681C299.341 488.091 299.808 491.501 299.878 495.412C299.162 496.401 298.52 496.923 298.568 497.37C299.699 507.869 300.905 518.361 301.817 528.876C301.09 529.228 300.642 529.559 299.812 529.894C288.781 533.849 277.908 536.629 266.418 535.797C258.179 535.2 249.952 534.434 241.595 533.513C240.882 532.86 240.294 532.438 239.804 531.604C239.535 527.377 239.322 523.538 238.768 519.749C237.683 512.338 236.1 504.988 235.3 497.55C234.489 490.005 234.38 482.384 233.946 474.798C233.899 473.979 233.73 473.168 233.623 472.353C232.961 467.336 232.208 462.328 231.664 457.298C231.011 451.247 231.044 445.072 229.819 439.149C228.896 434.679 229.846 432.651 234.225 431.634C237.204 430.943 240.019 429.548 242.907 428.468C242.71 427.883 242.514 427.299 242.317 426.714C240.366 427.344 238.404 427.941 236.468 428.61C232.543 429.968 228.929 432.537 224.334 430.041C222.661 429.131 219.779 429.281 220.108 432.841C220.108 432.841 220.046 432.769 219.737 432.809C218.761 433.479 217.684 434.009 217.497 434.76C216.569 438.494 215.838 442.28 215.106 446.061C214.133 451.083 213.179 456.11 212.364 461.159C212.298 461.572 213.364 462.168 213.904 462.679C213.651 464.465 213.397 466.251 212.676 468.464C211.676 469.259 210.757 469.554 210.67 470.008C209.231 477.484 207.793 484.964 206.607 492.483C206.291 494.487 206.822 496.624 206.964 498.7C205.041 508.614 203.217 518.549 201.116 528.425C200.658 530.576 199.21 532.517 197.647 534.782C196.701 535.212 196.326 535.415 195.61 535.532C175.375 536.042 155.601 535.693 136.783 527.92C136.783 527.92 136.896 527.87 136.914 527.559C136.129 526.669 135.325 526.091 134.521 525.512C134.521 525.512 134.271 525.314 134.549 524.904C135.046 522.302 135.079 520.072 135.518 517.925C136.817 511.565 138.406 505.261 139.548 498.876C139.744 497.781 138.299 496.393 137.611 495.14C137.611 495.14 137.669 495.009 137.807 494.789C137.801 493.679 137.413 492.748 137.554 491.906C138.254 487.71 139.194 483.552 139.79 479.343C139.896 478.598 138.773 477.68 138.218 476.841C139.102 466.794 139.888 456.736 140.917 446.704C141.352 442.467 142.953 438.741 147.076 436.545C147.913 436.099 148.657 434.865 148.829 433.886C150.317 425.43 151.665 416.948 153.49 408.035C155.338 401.261 156.75 394.927 158.579 388.615C176.124 390.695 193.203 393.461 210.391 394.644C236.772 396.46 263.186 396.543 289.091 390.065C290.793 408.422 292.433 426.339 294.206 444.242C294.557 447.787 295.415 451.282 296.075 455.137C296.143 455.698 296.175 455.921 296.207 456.145C296.149 456.811 296.092 457.477 295.691 458.765C295.664 467.074 295.95 474.763 296.374 482.444C296.399 482.889 297.552 483.271 298.18 483.682C298.18 483.682 298.093 483.697 298.172 483.871C298.368 484.345 298.576 484.558 298.875 484.681Z" fill="#61641A"/>
<path d="M289.076 389.62C263.186 396.544 236.772 396.46 210.391 394.645C193.203 393.462 176.124 390.695 158.397 388.433C157.478 388.108 157.157 387.987 156.991 387.552C157.733 381.447 158.24 375.649 158.932 369.873C159.498 365.151 160.288 360.455 160.97 355.747C161.542 351.791 162.198 347.844 162.639 343.874C163.129 339.456 163.444 335.017 163.786 330.584C164.086 326.694 164.326 322.8 164.576 318.906C164.679 317.3 165.298 314.588 164.712 314.291C162.994 313.419 160.794 313.329 158.774 313.276C157.127 313.232 155.46 313.926 153.815 313.875C144.535 313.583 135.259 313.164 125.826 312.564C125.321 312.287 124.972 312.236 124.623 312.186C124.623 312.186 124.57 312.078 124.775 311.734C124.986 309.54 124.993 307.69 125.162 305.473C125.839 302.693 126.393 300.286 126.86 297.863C128.99 286.824 131.096 275.78 133.567 264.737C135.372 264.582 136.837 264.203 138.263 264.316C142.888 264.684 147.491 265.482 152.118 265.628C155.559 265.737 159.186 264.288 162.447 264.944C170.189 266.5 177.589 265.295 185.054 263.689C185.054 263.689 185.044 263.562 185.066 263.93C187.97 273.982 194.389 280.624 203.384 284.695C214.209 289.594 225.73 290.555 237.452 289.708C251.524 288.691 261.282 279.259 262.901 265.167C268.802 268.42 275.369 270.864 280.483 275.073C297.315 288.928 309.529 306.381 318.226 326.375C319.958 330.357 320.258 333.446 315.832 336.341C306.809 340.865 298.182 344.958 289.639 349.221C288.855 349.613 288.131 351.13 288.202 352.062C288.566 356.836 289.587 361.584 289.651 366.35C289.756 374.103 289.297 381.863 289.076 389.62Z" fill="#B72B1B"/>
<path d="M316.149 149.729C315.451 144.544 314.821 139.35 314.041 134.178C312.385 123.203 311.256 112.178 303.957 102.859C296.719 93.6155 287.159 88.1909 276.3 85.1522C250.654 77.9757 224.632 76.0838 198.544 82.4999C180.642 86.9025 168.115 98.1621 162.144 115.595C157.709 128.546 154.622 141.958 150.743 155.852C145.326 149.4 138.849 144.495 128.885 146.281C125.955 146.132 123.72 146.256 121.485 146.379C121.485 146.379 121.377 146.206 121.589 145.886C121.923 145.157 122.044 144.748 122.165 144.34C121.625 144.355 121.084 144.371 120.543 144.386C120.543 144.386 120.396 144.209 120.647 143.832C120.221 138.166 119.56 132.874 118.815 127.595C118.782 127.363 117.98 127.24 117.536 127.065C117.536 127.065 117.686 126.984 117.788 126.656C117.445 124.58 116.842 122.853 116.586 121.076C115.912 116.4 112.81 112.41 115.165 106.844C117.522 101.273 118.904 94.8513 115.387 88.5599C114.521 87.0115 116.014 84.229 116.185 81.9957C116.401 79.1659 116.374 76.3174 116.452 73.477C116.452 73.477 116.536 73.4083 116.944 73.4623C118.131 71.8059 118.911 70.0956 119.69 68.3854C119.69 68.3854 119.758 68.5342 120.002 68.4684C120.377 68.0242 120.508 67.6458 120.64 67.2675C120.64 67.2675 120.725 67.437 120.963 67.4109C121.361 67.0155 121.519 66.6462 121.678 66.2768C121.678 66.2768 121.78 66.4381 122.014 66.434C122.541 66.1291 122.834 65.8284 123.128 65.5276C123.761 64.3206 124.643 63.179 124.982 61.8943C126.072 57.7534 126.962 53.5597 128.488 49.031C133.658 44.9733 138.291 41.2948 142.843 37.5195C143.18 37.2399 142.939 36.2637 142.967 35.6114C142.967 35.6114 142.995 35.7076 143.265 35.6269C144.166 33.849 144.797 32.1518 145.428 30.4546C145.428 30.4546 145.521 30.4448 145.845 30.4094C146.196 30.0258 146.223 29.6776 146.25 29.3294C146.25 29.3294 146.37 29.0873 146.79 29.214C150.789 27.4877 154.669 25.9424 155.482 21.2577C155.482 21.2577 155.624 21.1628 155.931 21.3583C157.215 20.7705 158.192 19.9872 159.168 19.204C159.168 19.204 159.486 18.8762 159.908 19.1843C163.47 20.5457 165.643 19.4975 166.904 16.4663C166.904 16.4663 166.935 16.603 167.244 16.6562C169.57 14.5757 171.586 12.4421 173.603 10.3085C173.603 10.3085 173.765 10.3543 173.993 10.3915C174.465 10.1281 174.709 9.82743 174.953 9.52675C174.953 9.52675 174.968 9.65105 175.281 9.69848C181.93 8.17505 188.116 6.37041 194.925 7.72297C196.938 8.12279 201.338 7.68711 201.549 3.26548C201.549 3.26548 201.672 3.20791 201.965 3.39992C202.875 3.7383 203.577 4.15427 204.097 3.99076C212.304 1.40883 220.328 1.97519 228.447 4.66402C230.931 5.48661 233.889 5.0568 236.617 4.92498C243.666 4.58437 250.707 3.55474 257.398 7.18784C259.068 8.09482 261.404 7.77602 263.434 8.02063C263.434 8.02063 263.607 8.12807 263.502 8.5335C265.331 10.6897 266.982 13.177 269.253 14.0462C274.902 16.2085 280.822 17.6729 286.663 19.3115C287.515 19.5507 288.531 19.2092 289.471 19.1364C289.471 19.1364 289.485 19.2405 289.48 19.556C290.048 20.1399 290.621 20.4083 291.194 20.6768C291.194 20.6768 291.109 20.704 291.074 21.0358C292.701 24.363 294.803 27.2029 295.928 30.3883C297.815 35.737 304.694 40.6073 310.474 40.0203C310.474 40.0203 310.632 40.1369 310.519 40.5359C312.435 42.7381 314.464 44.5413 316.493 46.3446C316.493 46.3446 316.509 46.3984 316.364 46.7401C317.526 52.8577 318.721 58.6639 320.259 64.3773C320.495 65.2533 322.319 65.7016 323.408 66.3477C323.408 66.3477 323.441 66.2902 323.365 66.6526C325.312 71.2017 327.636 75.2743 329.276 79.6058C331.125 84.4887 330.141 89.4113 328.505 94.3029C327.337 97.7936 328.07 99.1257 330.546 100.069C330.546 100.069 330.67 100.271 330.456 100.686C327.219 103.595 331.223 105.754 330.55 108.307C329.222 113.35 328.312 118.507 327.335 123.637C327.198 124.359 327.654 125.194 327.835 125.977C327.835 125.977 327.77 126.267 327.304 126.188C325.557 127.557 323.758 128.8 323.087 130.491C320.575 136.824 318.431 143.304 316.149 149.729Z" fill="#3F291B"/>
<path d="M133.21 264.737C131.096 275.78 128.99 286.824 126.86 297.863C126.393 300.286 125.839 302.693 124.824 305.458C114.692 301.934 105.069 298.039 95.4279 294.189C91.2082 292.504 86.9527 290.908 82.7134 289.272C82.7134 289.272 82.6273 289.263 82.6698 288.947C81.8268 288.324 80.9414 288.015 80.056 287.707C71.7861 280.941 63.5162 274.176 55.3457 266.908C53.5228 264.325 54.0768 259.873 49.5684 260.268C49.5684 260.268 49.591 260.121 49.6642 259.825C49.3985 259.323 49.0596 259.117 48.7207 258.911C48.7207 258.911 48.8758 258.889 48.9041 258.583C47.2756 255.098 45.5953 251.932 43.9678 248.738C41.614 244.119 39.4095 239.42 36.9126 234.881C35.8924 233.026 34.2747 231.5 32.9288 229.824C32.9288 229.824 33.0129 229.791 32.9632 229.466C31.8919 228.722 30.8703 228.303 29.8486 227.885C29.8486 227.885 29.9727 227.85 29.8691 227.628C29.3963 227.301 29.027 227.195 28.6577 227.09C28.6577 227.09 28.8399 227.121 28.7651 226.837C28.0792 226.327 27.468 226.101 26.8569 225.875C26.8569 225.875 26.9545 225.854 26.949 225.53C26.1682 224.879 25.393 224.552 24.6178 224.225C24.6178 224.225 24.5786 223.994 24.6626 223.905C24.5097 223.804 24.2728 223.791 24.0359 223.777C18.7607 217.662 13.4854 211.548 8.33839 204.979C8.23471 204.323 8.00282 204.12 7.77094 203.917C7.77094 203.917 7.88859 203.875 7.93863 203.541C7.33884 201.387 6.61399 199.589 6.05392 197.741C4.64729 193.099 3.31513 188.436 1.83017 183.427C0.173561 179.531 1.21963 176.399 4.59881 175.249C8.43616 173.943 8.18973 177.991 9.32572 180.146C11.8303 184.896 14.4321 189.595 16.9943 194.315C17.3903 194.14 17.7862 193.966 18.1822 193.791C13.818 182.181 6.67419 171.431 6.58392 158.497C6.58392 158.497 6.60127 158.403 6.923 158.41C7.36977 158.052 7.49483 157.687 7.61987 157.323C7.61987 157.323 7.69691 157.339 8.15079 157.488C12.1133 157.244 14.5426 158.591 16.1364 161.831C17.9575 165.534 19.988 169.139 22.0565 172.712C24.9222 177.662 27.9082 182.542 30.8427 187.452C31.199 187.25 31.5553 187.047 31.9116 186.844C30.8831 184.663 29.7418 182.527 28.8451 180.292C24.6687 169.885 17.2407 160.599 17.8348 148.539C17.8348 148.539 17.9287 148.761 18.2849 148.746C20.8304 148.362 23.0197 147.995 25.2091 147.627C25.2091 147.627 25.1172 147.653 25.2014 147.959C30.9395 158.455 36.5935 168.645 42.2475 178.835C42.7647 178.533 43.2819 178.231 43.799 177.929C43.1289 176.715 42.397 175.531 41.7989 174.283C38.7428 167.902 35.2427 161.681 32.8091 155.07C29.797 146.886 30.6181 146.282 39.1128 148.188C39.5415 148.284 40.045 148.047 40.5137 147.965C40.5137 147.965 40.7333 148.095 40.6157 148.501C41.1776 149.373 41.857 149.838 42.5364 150.303C42.5364 150.303 42.2298 150.597 42.254 150.822C42.9292 151.578 43.5802 152.109 44.2312 152.639C44.2312 152.639 44.1319 152.677 44.1303 152.977C44.5964 153.659 45.064 154.042 45.5317 154.425C45.5317 154.425 45.3982 154.541 45.3732 154.76C45.6588 155.202 45.9693 155.426 46.2798 155.649C46.2798 155.649 46.1635 155.663 46.1475 155.957C46.5771 156.672 47.0227 157.094 47.4683 157.517C47.4683 157.517 47.2889 157.591 47.3076 157.793C47.6228 158.228 47.9194 158.461 48.216 158.693C48.216 158.693 48.1176 158.704 48.0981 159.045C50.1168 163.983 52.101 168.605 54.2144 173.168C55.4053 175.739 56.809 178.211 58.1169 180.728C58.1169 180.728 58.051 180.778 58.1069 180.76C58.1628 180.742 58.2728 181.099 58.2728 181.099C60.1719 177.899 62.0709 174.698 64.4196 171.144C66.9843 170 69.0995 169.209 71.2146 168.418C71.2146 168.418 71.3033 168.284 71.3321 168.663C72.5925 172.352 74.6315 175.601 74.8891 178.985C75.4423 186.256 75.0774 193.597 75.0884 200.909C74.9614 202.202 75.3005 203.85 74.6303 204.729C70.8903 209.633 72.7919 213.48 76.1372 217.646C82.6381 225.741 88.1238 234.758 95.267 242.206C105.413 252.786 117.819 260.307 132.74 264.061C133.143 264.335 133.21 264.737 133.21 264.737ZM48.1708 196.856C48.1708 198.826 48.1708 200.796 48.1708 203.894C49.5631 200.521 50.3781 198.058 51.5729 195.795C52.6997 193.661 54.2681 191.765 55.5646 189.715C56.7206 187.887 57.7705 185.992 58.8672 184.127C58.2999 183.778 57.7326 183.429 57.1653 183.08C54.2516 187.423 51.3378 191.766 48.1708 196.856Z" fill="#96491C"/>
<path d="M289.091 390.065C289.297 381.863 289.756 374.103 289.651 366.35C289.587 361.584 288.566 356.836 288.202 352.062C288.131 351.13 288.855 349.613 289.639 349.221C298.182 344.958 306.809 340.865 315.787 336.677C317.133 341.423 318.105 346.218 318.624 351.54C317.881 353.597 317.076 355.24 317.382 356.64C320.209 369.582 316.872 382.399 316.512 395.251C316.268 403.944 313.808 412.568 312.42 421.236C311.108 429.437 309.435 437.504 305.601 444.996C304.825 446.513 304.799 448.413 304.428 450.137C304.428 450.137 304.332 450.021 304.046 450.027C303.306 450.758 302.852 451.483 302.397 452.208C302.397 452.208 302.259 452.083 302.029 452.074C301.61 452.417 301.421 452.769 301.232 453.122C301.232 453.122 301.232 452.951 300.944 452.921C299.117 453.527 297.579 454.164 296.04 454.8C295.415 451.282 294.557 447.787 294.206 444.242C292.433 426.339 290.793 408.422 289.091 390.065Z" fill="#984A1C"/>
<path d="M136.672 528.215C155.601 535.693 175.375 536.042 195.613 535.934C195.236 540.263 194.318 544.078 193.836 547.948C192.982 554.815 189.965 559.394 182.553 560.292C180.185 560.579 177.948 561.835 175.583 562.29C164.546 564.415 153.556 567.313 142.412 568.19C132.437 568.975 122.272 567.622 112.215 566.872C110.294 566.729 107.739 565.432 106.854 563.882C106.046 562.466 106.889 559.927 107.403 557.988C107.917 556.051 108.926 554.244 109.718 552.381C109.718 552.381 109.8 552.547 110.031 552.484C110.404 552.04 110.545 551.658 110.686 551.276C110.686 551.276 110.626 551.415 110.975 551.463C112.096 550.443 112.867 549.375 113.639 548.307C113.639 548.307 113.775 548.436 114.006 548.433C114.446 548.082 114.655 547.733 114.864 547.385C114.864 547.385 114.883 547.56 115.071 547.585C115.824 547.273 116.389 546.936 116.954 546.599C123.49 540.569 130.025 534.539 136.672 528.215Z" fill="#34332D"/>
<path d="M241.72 533.744C249.952 534.434 258.179 535.2 266.419 535.797C277.908 536.629 288.781 533.849 300.059 530.156C301.624 530.308 302.56 530.2 303.497 530.092C303.497 530.092 303.475 530.195 303.463 530.534C304.01 531.157 304.569 531.44 305.128 531.723C305.128 531.723 305.073 531.762 305.052 532.125C306.177 533.011 307.322 533.534 308.467 534.057C308.467 534.057 308.603 534.156 308.498 534.552C310.659 536.19 312.926 537.432 315.192 538.674C315.192 538.674 315.111 538.708 315.114 539.038C315.907 539.618 316.696 539.868 317.485 540.118C317.485 540.118 317.547 540.218 317.46 540.6C318.398 541.397 319.425 541.81 320.451 542.224C320.451 542.224 320.527 542.252 320.441 542.631C321.399 543.401 322.442 543.792 323.486 544.183C323.486 544.183 323.517 544.275 323.432 544.628C324.605 545.567 325.861 546.153 327.118 546.74C327.724 547.149 328.33 547.558 329.12 548.522C329.636 549.28 329.968 549.483 330.3 549.686C330.628 549.66 330.875 549.788 331.026 550.651C332.475 553.048 333.94 554.866 335.404 556.685C336.298 558.434 337.191 560.183 337.745 562.419C336.831 563.54 336.256 564.175 335.363 564.779C330.725 565.345 326.413 566 322.084 566.521C316.257 567.224 310.292 568.854 304.618 568.169C299.304 567.527 293.892 567.276 288.45 565.547C277.204 561.972 265.331 560.356 253.702 558.007C251.305 557.522 248.844 557.35 246.143 556.88C245.818 556.526 245.762 556.326 245.996 556.142C246.324 556.026 246.361 555.895 246.399 555.763C246.095 555.861 245.79 555.959 245.414 556.271C245.342 556.485 244.918 556.643 244.858 556.221C244.199 554.847 243.162 553.934 243.073 552.938C242.506 546.55 242.147 540.144 241.72 533.744Z" fill="#34332D"/>
<path d="M262.668 264.934C261.282 279.259 251.525 288.69 237.452 289.708C225.73 290.555 214.209 289.594 203.384 284.695C194.389 280.624 187.97 273.982 185.126 263.909C188.816 262.917 192.467 262.315 196.639 262.062C198.076 264.221 198.992 266.032 199.908 267.844C199.908 267.844 199.873 267.887 199.926 268.23C200.949 269.353 201.918 270.133 202.888 270.913C202.888 270.913 202.953 270.904 203.026 271.124C203.402 271.509 203.705 271.675 204.008 271.84C204.008 271.84 204.037 271.763 204.23 272.067C213.412 277.231 223.145 277.214 232.902 276.421C235.349 276.222 237.695 274.765 240.087 273.885C240.087 273.885 240.124 273.908 240.476 274.005C241.593 273.694 242.358 273.285 243.123 272.877C243.123 272.877 243.136 272.889 243.462 272.876C244.574 272.212 245.36 271.561 246.146 270.91C246.146 270.91 246.099 270.886 246.388 270.827C246.833 270.461 246.99 270.154 247.147 269.848C247.147 269.848 247.118 269.765 247.384 269.746C247.817 269.424 247.984 269.12 248.151 268.817C248.151 268.817 248.051 268.774 248.35 268.645C248.916 267.964 249.182 267.411 249.449 266.859C249.997 265.455 250.545 264.052 251.346 262.282C251.876 261.732 252.169 261.666 252.478 261.717C255.797 262.712 259.116 263.707 262.668 264.934Z" fill="#384F85"/>
<path d="M190.45 559.538C194.992 561.049 193.207 563.613 191.368 565.921C186.77 571.692 179.803 572.982 173.29 574.644C156.98 578.805 140.308 580.666 123.512 579.567C117.904 579.2 112.274 577.024 106.994 574.851C104.944 574.007 101.006 571.069 106.834 568.4C107.185 568.275 107.233 568.3 107.348 568.662C108.403 569.13 109.344 569.235 110.29 569.238C110.296 569.134 110.497 569.083 110.523 569.488C110.952 570.151 111.357 570.638 111.757 570.635C126.635 570.491 141.516 570.446 156.385 569.995C159.262 569.908 162.089 568.21 165.171 567.089C165.963 566.921 166.524 566.918 167.332 567.163C168.564 566.969 169.551 566.527 170.68 566.115C170.823 566.144 170.835 566.434 171.236 566.534C172.614 566.118 173.592 565.604 174.696 565.12C174.823 565.151 174.825 565.41 175.225 565.52C176.57 565.102 177.514 564.574 178.573 564.045C178.689 564.045 178.835 564.223 179.166 564.392C180.676 563.964 181.855 563.367 183.109 562.68C183.185 562.591 183.403 562.675 183.846 562.681C185.172 562.15 186.056 561.612 187.173 560.924C188.421 560.362 189.435 559.95 190.45 559.538Z" fill="#ECE3D7"/>
<path d="M339.045 565.76C337.843 572.782 335.462 575.994 326.902 576.396C312.253 577.083 297.496 576.941 282.865 575.957C273.556 575.331 264.366 572.677 255.173 570.701C249.59 569.5 244.096 567.865 242.369 560.965C245.285 560.161 247.911 559.859 250.695 559.539C250.853 559.521 251.047 559.774 251.1 560.131C255.833 562.297 260.402 564.52 265.22 565.812C271.116 567.393 277.232 568.14 283.235 569.34C300.052 572.699 316.839 573.701 333.495 568.564C334.491 568.256 335.047 566.524 335.837 565.459C335.865 565.464 335.804 565.457 336.202 565.549C337.414 565.681 338.23 565.721 339.045 565.76Z" fill="#ECE3D7"/>
<path d="M313.098 204.824C314.08 200.061 315.671 195.33 315.914 190.531C316.369 181.507 316.045 172.445 316.045 163.267C318.028 162.96 319.465 162.737 320.975 162.503C319.319 161.757 317.749 161.05 316.142 159.964C318.622 160.029 321.139 160.472 323.973 161.549C325.284 162.649 326.277 163.115 327.271 163.581C327.271 163.581 327.153 163.623 327.239 163.849C327.667 164.241 328.01 164.408 328.353 164.575C328.353 164.575 328.188 164.608 328.262 164.824C328.676 165.218 329.017 165.396 329.358 165.575C329.358 165.575 329.197 165.617 329.259 165.825C329.631 166.246 329.942 166.458 330.253 166.67C330.253 166.67 330.142 166.678 330.141 166.971C330.592 167.673 331.043 168.082 331.495 168.491C331.495 168.491 331.381 168.568 331.292 168.841C331.549 169.645 331.894 170.175 332.24 170.705C332.24 170.705 332.129 170.711 332.096 171.09C332.121 175.524 332.319 179.583 332.187 183.631C332.108 186.068 331.515 188.489 331.152 190.917C331.152 190.917 331.124 190.821 330.831 190.911C329.749 192.646 328.958 194.29 328.169 195.935C328.169 195.935 328.14 195.832 327.914 195.928C327.537 196.371 327.386 196.718 327.235 197.064C327.235 197.064 327.212 196.901 326.946 196.959C326.244 197.738 325.807 198.459 325.371 199.181C325.371 199.181 325.284 199.025 325.056 199.054C324.653 199.437 324.478 199.79 324.303 200.144C324.303 200.144 324.248 199.967 324.029 200.018C323.624 200.413 323.437 200.756 323.251 201.1C323.251 201.1 323.204 200.931 322.994 200.984C322.571 201.353 322.358 201.667 322.144 201.982C322.144 201.982 322.132 201.865 321.81 201.856C318.692 202.839 315.895 203.832 313.098 204.824Z" fill="#8E4116"/>
<path d="M190.713 559.268C189.435 559.95 188.421 560.362 186.796 561.05C185.259 561.776 184.331 562.225 183.403 562.675C183.403 562.675 183.185 562.591 182.776 562.689C181.19 563.265 180.012 563.744 178.835 564.223C178.835 564.223 178.688 564.044 178.242 564.084C176.806 564.552 175.815 564.981 174.825 565.41C174.825 565.41 174.823 565.15 174.357 565.159C172.872 565.59 171.853 566.012 170.835 566.434C170.835 566.434 170.823 566.144 170.326 566.132C168.914 566.386 168 566.65 167.085 566.915C166.524 566.918 165.963 566.921 164.751 567.159C162.135 567.706 160.173 568.038 158.204 568.325C142.335 570.641 126.431 570.851 110.497 569.083C110.497 569.083 110.296 569.134 110.062 569.001C108.963 568.679 108.098 568.489 107.233 568.299C107.233 568.299 107.185 568.275 107.205 568.257C103.289 566.97 102.137 564.257 103.924 560.708C105.343 557.887 107.373 555.373 109.425 552.552C108.926 554.244 107.917 556.051 107.403 557.988C106.888 559.927 106.046 562.466 106.854 563.882C107.739 565.432 110.294 566.729 112.215 566.872C122.272 567.622 132.437 568.975 142.412 568.19C153.556 567.313 164.546 564.415 175.583 562.29C177.948 561.835 180.185 560.579 182.553 560.292C189.964 559.394 192.982 554.815 193.836 547.948C194.318 544.078 195.236 540.263 195.954 536.02C196.326 535.415 196.701 535.212 197.31 534.981C196.376 541.604 195.343 548.284 193.935 554.883C193.612 556.396 191.997 557.634 190.713 559.268Z" fill="#12110F"/>
<path d="M220.539 432.729C219.779 429.281 222.661 429.132 224.334 430.041C228.929 432.537 232.543 429.968 236.468 428.611C238.405 427.941 240.366 427.344 242.317 426.714C242.514 427.299 242.71 427.883 242.907 428.468C240.019 429.548 237.204 430.943 234.225 431.635C229.847 432.652 228.896 434.68 229.82 439.149C231.044 445.072 231.011 451.247 231.665 457.298C232.208 462.329 232.962 467.336 233.623 472.353C233.731 473.168 233.899 473.98 233.946 474.798C234.38 482.384 234.489 490.005 235.3 497.55C236.1 504.988 237.684 512.338 238.768 519.75C239.322 523.538 239.535 527.377 239.659 531.561C239.416 531.929 239.128 531.816 239.128 531.816C238.413 529.536 237.289 527.3 237.044 524.971C233.95 495.566 230.914 466.153 228.045 436.725C227.538 431.517 224.387 432.148 220.539 432.729Z" fill="#43450F"/>
<path d="M125.982 312.789C135.259 313.164 144.535 313.583 153.814 313.875C155.46 313.926 157.127 313.232 158.774 313.276C160.794 313.329 162.994 313.419 164.712 314.291C165.298 314.589 164.679 317.3 164.576 318.906C164.326 322.8 164.086 326.694 163.785 330.584C163.444 335.018 163.129 339.456 162.639 343.874C162.198 347.844 161.542 351.791 160.969 355.747C160.288 360.455 159.498 365.151 158.932 369.873C158.24 375.649 157.733 381.447 156.956 387.567C156.766 387.899 156.687 387.896 156.687 387.896C156.249 385.564 155.209 383.163 155.466 380.91C157.864 359.865 160.488 338.845 163.025 317.815C163.14 316.859 163.04 315.877 163.04 314.504C150.698 317.896 138.659 317.42 126.354 313.505C125.997 313.159 125.982 312.789 125.982 312.789Z" fill="#A71810"/>
<path d="M198.831 257.717C205.923 259.065 212.968 260.813 220.12 261.648C227.328 262.489 234.639 262.482 241.91 262.72C244.344 262.799 246.79 262.488 249.876 263.448C247.3 264.827 244.84 266.517 242.128 267.53C232.619 271.085 223.252 268.723 214.039 266.154C209.961 265.017 206.167 262.883 202.194 261.331C201.278 260.973 200.155 261.146 198.836 261.262C198.346 261.142 198.147 260.834 197.948 260.526C197.992 259.818 198.037 259.11 198.314 258.058C198.548 257.714 198.831 257.717 198.831 257.717Z" fill="#7B3311"/>
<path d="M304.704 449.945C304.8 448.413 304.825 446.513 305.601 444.996C309.435 437.504 311.108 429.437 312.421 421.237C313.808 412.569 316.268 403.944 316.512 395.251C316.872 382.399 320.21 369.582 317.382 356.64C317.077 355.24 317.881 353.597 318.519 351.959C322.058 379.353 317.617 406.243 311.91 432.953C310.665 438.78 307.344 444.164 304.704 449.945Z" fill="#80230D"/>
<path d="M263.167 7.83501C261.404 7.7759 259.068 8.0947 257.398 7.18772C250.707 3.55462 243.666 4.58425 236.618 4.92486C233.89 5.05668 230.931 5.48649 228.447 4.6639C220.328 1.97507 212.304 1.40871 204.097 3.99064C203.577 4.15415 202.875 3.73818 202.02 3.3605C210.83 -0.86242 219.908 -1.11684 229.122 2.66233C230.475 3.21728 232.214 3.16766 233.717 2.96535C243.931 1.59014 253.817 2.06005 263.167 7.83501Z" fill="#12110F"/>
<path d="M17.5023 148.748C17.241 160.599 24.669 169.885 28.8454 180.292C29.7421 182.526 30.8833 184.663 31.9119 186.844C31.5556 187.047 31.1993 187.25 30.843 187.452C27.9085 182.542 24.9225 177.662 22.0568 172.712C19.9883 169.139 17.9578 165.534 16.1367 161.831C14.5429 158.591 12.1135 157.244 8.18994 157.482C10.5283 154.715 13.2306 155.134 15.48 157.434C16.05 154.574 16.6098 151.765 17.5023 148.748Z" fill="#7B3311"/>
<path d="M252.897 261.417C252.168 261.666 251.875 261.732 251.451 261.971C253.68 260.749 255.952 259.195 258.454 258.247C266.806 255.081 275.376 252.448 283.579 248.946C286.89 247.532 289.449 244.374 292.386 242.056C294.156 240.659 295.996 239.351 298.162 238.149C286.896 252.723 271.231 259.149 252.897 261.417Z" fill="#80230D"/>
<path d="M40.3327 147.701C40.0454 148.047 39.5419 148.284 39.1132 148.188C30.6185 146.282 29.7974 146.886 32.8095 155.07C35.243 161.681 38.7432 167.902 41.7993 174.283C42.3973 175.531 43.1293 176.715 43.7994 177.929C43.2823 178.231 42.7651 178.533 42.2479 178.835C36.5939 168.645 30.9399 158.455 25.2085 147.912C26.3531 148.24 27.5751 148.922 28.7959 149.604C31.5047 143.928 33.946 143.457 40.3327 147.701Z" fill="#7B3311"/>
<path d="M116.261 73.7786C116.374 76.3174 116.401 79.1659 116.185 81.9957C116.015 84.229 114.521 87.0115 115.387 88.5599C118.904 94.8513 117.522 101.273 115.165 106.844C112.81 112.41 115.913 116.4 116.586 121.076C116.842 122.853 117.446 124.58 117.767 126.739C111.622 119.122 111.947 110.403 114.636 101.326C115.184 99.4737 115.367 97.2914 114.97 95.4205C113.43 88.1728 113.236 81.0684 116.261 73.7786Z" fill="#12110F"/>
<path d="M82.9316 289.516C86.9529 290.908 91.2084 292.504 95.4281 294.189C105.069 298.039 114.692 301.933 124.661 305.825C124.993 307.69 124.986 309.54 124.742 311.683C124.756 308.631 122.401 307.924 119.884 306.792C107.576 301.256 95.3832 295.462 82.9316 289.516Z" fill="#7B3311"/>
<path d="M133.568 264.737C133.21 264.737 133.143 264.335 133.128 264.132C134.314 263.218 135.523 261.878 136.712 261.895C152.695 262.125 168.676 262.544 184.856 263.303C177.589 265.295 170.19 266.5 162.447 264.944C159.186 264.288 155.559 265.737 152.118 265.628C147.491 265.482 142.888 264.684 138.263 264.316C136.837 264.203 135.372 264.582 133.568 264.737Z" fill="#A71810"/>
<path d="M6.29156 158.729C6.67461 171.431 13.8185 182.181 18.1826 193.791C17.7866 193.966 17.3907 194.14 16.9947 194.315C14.4326 189.595 11.8307 184.896 9.32614 180.146C8.19015 177.991 8.43658 173.943 4.59923 175.249C1.22005 176.399 0.173983 179.531 1.54061 183.419C0.984523 183.765 0.595462 183.764 0.206401 183.763C0.134181 181.961 -0.0470169 180.155 0.0114241 178.357C0.151881 174.035 2.61031 172.311 5.99879 172.678C5.99879 168.052 5.99879 163.506 6.29156 158.729Z" fill="#7B3311"/>
<path d="M330.369 99.7088C328.07 99.1256 327.337 97.7935 328.505 94.3029C330.141 89.4113 331.125 84.4886 329.276 79.6058C327.636 75.2743 325.312 71.2017 323.398 66.646C330.677 71.6869 333.99 82.5187 331.426 91.4705C330.7 94.0064 330.587 96.7176 330.369 99.7088Z" fill="#12110F"/>
<path d="M207.159 498.379C206.822 496.624 206.292 494.487 206.607 492.483C207.793 484.964 209.231 477.484 210.67 470.008C210.758 469.554 211.676 469.26 212.539 468.847C211.032 478.554 209.193 488.306 207.159 498.379Z" fill="#43450F"/>
<path d="M302.096 528.854C300.905 518.361 299.699 507.869 298.568 497.37C298.52 496.923 299.162 496.401 299.807 495.838C301.443 505.529 302.801 515.29 303.983 525.072C304.095 525.994 303.096 527.051 302.382 528.448C302.152 528.851 302.096 528.854 302.096 528.854Z" fill="#43450F"/>
<path d="M214.103 462.354C213.364 462.168 212.298 461.572 212.364 461.159C213.179 456.11 214.133 451.083 215.106 446.062C215.839 442.281 216.569 438.495 217.497 434.76C217.684 434.009 218.761 433.48 219.778 432.833C218.186 442.555 216.244 452.292 214.103 462.354Z" fill="#43450F"/>
<path d="M145.944 197.198C147.585 201.281 149.212 205.809 151.027 210.261C152.859 214.754 154.903 219.16 156.795 223.629C157.315 224.859 157.622 226.18 157.842 227.743C151.233 218.862 147.668 208.602 145.944 197.198Z" fill="#80230D"/>
<path d="M316.088 150.08C318.431 143.304 320.575 136.824 323.087 130.491C323.758 128.8 325.557 127.557 327.195 126.289C325.154 128.797 324.558 131.639 323.76 134.904C322.087 141.753 318.836 148.217 316.068 155.12C315.945 153.745 315.986 152.089 316.088 150.08Z" fill="#12110F"/>
<path d="M137.691 495.505C138.299 496.393 139.744 497.781 139.549 498.876C138.407 505.261 136.817 511.565 135.518 517.925C135.079 520.072 135.046 522.302 134.502 524.752C134.172 522.019 133.815 518.977 134.239 516.048C135.215 509.293 136.57 502.592 137.691 495.505Z" fill="#43450F"/>
<path d="M239.188 532.256C239.128 531.816 239.417 531.929 239.561 531.972C240.294 532.438 240.882 532.86 241.595 533.513C242.147 540.144 242.506 546.55 243.074 552.938C243.162 553.935 244.199 554.847 244.593 556.187C243.293 555.927 242.197 555.28 241.1 554.633C240.482 547.321 239.865 540.009 239.188 532.256Z" fill="#12110F"/>
<path d="M289.211 18.9296C288.531 19.2091 287.516 19.5506 286.663 19.3114C280.822 17.6728 274.902 16.2084 269.253 14.0461C266.983 13.1769 265.331 10.6897 263.579 8.60059C266.657 10.9859 269.922 12.3226 274.004 13.0823C279.158 14.0416 283.984 16.7621 289.211 18.9296Z" fill="#12110F"/>
<path d="M33.0342 230.181C34.275 231.5 35.8927 233.026 36.913 234.881C39.4098 239.42 41.6143 244.119 43.9681 248.738C45.5956 251.932 47.2759 255.098 48.8819 258.658C43.6006 249.539 38.3699 240.039 33.0342 230.181Z" fill="#80230D"/>
<path d="M310.221 39.8218C304.694 40.6073 297.815 35.737 295.927 30.3883C294.803 27.203 292.701 24.363 291.082 20.9922C293.307 23.6111 296.339 26.3267 297.438 29.6765C298.601 33.2217 300.277 34.9359 303.64 36.0078C305.904 36.7294 307.87 38.3852 310.221 39.8218Z" fill="#12110F"/>
<path d="M201.211 3.4104C201.338 7.68712 196.938 8.1228 194.925 7.72298C188.116 6.37042 181.93 8.17506 175.22 9.68539C179.567 5.53627 185.321 5.6438 191.084 5.36026C194.369 5.19865 197.611 4.18518 201.211 3.4104Z" fill="#12110F"/>
<path d="M198.826 257.374C198.831 257.717 198.548 257.714 198.406 257.714C190.188 253.731 182.111 249.747 173.835 245.509C175.437 245.816 177.347 246.157 179.02 246.981C185.661 250.249 192.228 253.668 198.826 257.374Z" fill="#80230D"/>
<path d="M327.997 125.694C327.654 125.194 327.198 124.359 327.335 123.637C328.312 118.507 329.222 113.35 330.55 108.307C331.222 105.754 327.219 103.595 330.454 100.804C333.615 109.191 332.496 117.464 327.997 125.694Z" fill="#12110F"/>
<path d="M114.319 159.78C114.408 165.034 113.832 170.536 114.176 175.98C114.4 179.534 115.959 183.005 116.677 186.764C110.981 178.422 110.554 169.386 114.319 159.78Z" fill="#80230D"/>
<path d="M75.4469 200.726C75.0776 193.597 75.4426 186.256 74.8893 178.985C74.6318 175.601 72.5927 172.352 71.4126 168.663C73.0536 170.999 75.8319 173.64 76.0071 176.444C76.507 184.442 75.9478 192.506 75.4469 200.726Z" fill="#80230D"/>
<path d="M304.438 229.725C305.227 226.192 306.16 222.403 307.403 218.718C308.601 215.167 310.119 211.725 311.981 207.999C312.466 207.763 312.887 207.782 312.887 207.782C310.164 215.026 307.441 222.27 304.438 229.725Z" fill="#80230D"/>
<path d="M298.133 483.309C297.552 483.271 296.399 482.889 296.375 482.444C295.95 474.763 295.664 467.074 295.622 459.093C296.625 466.844 297.355 474.89 298.133 483.309Z" fill="#43450F"/>
<path d="M138.109 477.118C138.773 477.68 139.896 478.599 139.791 479.343C139.194 483.552 138.255 487.71 137.554 491.906C137.413 492.748 137.801 493.679 137.746 494.827C134.027 489.925 137.332 484.822 137.682 479.695C137.735 478.925 137.891 478.162 138.109 477.118Z" fill="#43450F"/>
<path d="M323.123 66.0648C322.319 65.7015 320.496 65.2531 320.26 64.3772C318.721 58.6638 317.527 52.8576 316.342 46.7246C318.007 50.5779 319.622 54.764 321.065 59.0089C321.813 61.213 322.256 63.521 323.123 66.0648Z" fill="#12110F"/>
<path d="M124.024 194.219C124.808 193.882 125.979 193.478 126.755 193.864C132.796 196.874 139.23 196.524 145.842 196.636C138.435 199.04 131.175 198.196 124.024 194.219Z" fill="#80230D"/>
<path d="M156.666 388.32C156.688 387.895 156.766 387.899 156.802 387.883C157.157 387.987 157.478 388.107 157.98 388.411C156.75 394.927 155.338 401.261 153.558 407.666C154.342 401.406 155.494 395.076 156.666 388.32Z" fill="#43450F"/>
<path d="M142.661 35.7883C142.939 36.2637 143.18 37.2399 142.843 37.5195C138.291 41.2948 133.659 44.9733 128.707 48.6891C131.233 42.4835 136.264 38.6428 142.661 35.7883Z" fill="#12110F"/>
<path d="M58.1541 180.343C56.8092 178.211 55.4054 175.739 54.2146 173.168C52.1011 168.605 50.1169 163.983 48.1064 158.996C51.4866 165.724 54.8388 172.84 58.1541 180.343Z" fill="#80230D"/>
<path d="M0.149902 184.16C0.595368 183.764 0.984429 183.764 1.66346 183.773C3.31546 188.436 4.64761 193.099 6.05424 197.741C6.61432 199.589 7.33916 201.387 7.92985 203.603C5.2783 197.518 2.68591 191.038 0.149902 184.16Z" fill="#80230D"/>
<path d="M241.087 555.044C242.196 555.28 243.293 555.927 244.654 556.609C244.918 556.643 245.342 556.485 245.458 556.339C245.573 556.193 245.707 556.126 245.707 556.126C245.762 556.326 245.818 556.526 246.197 557.132C247.86 558.211 249.198 558.883 250.537 559.556C247.911 559.858 245.285 560.161 242.319 560.61C241.677 558.989 241.375 557.222 241.087 555.044Z" fill="#F4F0E9"/>
<path d="M117.695 127.483C117.98 127.24 118.782 127.363 118.815 127.595C119.56 132.875 120.221 138.166 120.618 143.721C119.51 138.625 118.682 133.263 117.695 127.483Z" fill="#12110F"/>
<path d="M331.449 190.688C331.515 188.489 332.108 186.068 332.188 183.631C332.32 179.583 332.122 175.524 332.108 171.036C336.19 177.307 334.19 183.888 331.449 190.688Z" fill="#80230D"/>
<path d="M155.192 21.4124C154.669 25.9424 150.789 27.4877 146.893 29.1268C149.352 26.4643 152.126 24.0157 155.192 21.4124Z" fill="#12110F"/>
<path d="M157.776 228.377C161.805 228.734 162.999 231.93 163.818 235.739C161.766 233.65 159.822 231.176 157.776 228.377Z" fill="#80230D"/>
<path d="M173.303 10.4451C171.586 12.4421 169.57 14.5757 167.175 16.6424C168.866 14.5775 170.934 12.5796 173.303 10.4451Z" fill="#12110F"/>
<path d="M316.359 46.0428C314.464 44.5413 312.435 42.7381 310.593 40.6003C312.596 42.0909 314.41 43.916 316.359 46.0428Z" fill="#12110F"/>
<path d="M313.09 205.164C315.895 203.832 318.692 202.84 321.867 201.871C319.422 203.46 316.599 205.025 313.443 206.729C313.1 206.414 313.091 205.959 313.09 205.164Z" fill="#80230D"/>
<path d="M49.7153 260.555C54.0768 259.873 53.5229 264.325 55.2306 266.593C53.2981 264.8 51.5801 262.821 49.7153 260.555Z" fill="#80230D"/>
<path d="M315.008 538.391C312.926 537.432 310.659 536.19 308.571 534.592C310.775 535.526 312.799 536.817 315.008 538.391Z" fill="#12110F"/>
<path d="M335.366 556.369C333.94 554.867 332.475 553.048 331.066 550.866C332.524 552.353 333.926 554.203 335.366 556.369Z" fill="#12110F"/>
<path d="M166.556 16.5566C165.644 19.4975 163.47 20.5456 160.136 19.1958C162.031 18.1484 164.119 17.3977 166.556 16.5566Z" fill="#12110F"/>
<path d="M25.0694 147.324C23.0202 147.994 20.8308 148.362 18.231 148.635C20.1901 148.034 22.5597 147.527 25.0694 147.324Z" fill="#7B3311"/>
<path d="M121.599 146.642C123.72 146.256 125.955 146.132 128.487 146.248C126.819 147.132 124.854 147.776 122.556 148.471C122.052 147.983 121.883 147.444 121.599 146.642Z" fill="#12110F"/>
<path d="M71.0046 168.122C69.0995 169.209 66.9843 170 64.4951 170.777C66.3455 169.785 68.5701 168.806 71.0046 168.122Z" fill="#80230D"/>
<path d="M197.749 260.691C198.147 260.834 198.346 261.142 198.785 261.583C199.347 263.498 199.668 265.279 199.948 267.452C198.992 266.032 198.075 264.221 197.071 262.064C197.172 261.431 197.361 261.143 197.749 260.691Z" fill="#984A1C"/>
<path d="M119.428 68.5876C118.911 70.0956 118.131 71.8059 116.958 73.4097C117.432 71.7988 118.299 70.2943 119.428 68.5876Z" fill="#12110F"/>
<path d="M169.909 242.412C172.557 240.468 173.362 242.206 173.677 244.89C172.386 244.381 171.232 243.527 169.909 242.412Z" fill="#80230D"/>
<path d="M145.23 30.7095C144.797 32.1518 144.166 33.849 143.215 35.6297C143.607 34.1303 144.32 32.5473 145.23 30.7095Z" fill="#12110F"/>
<path d="M296.076 455.137C297.579 454.164 299.118 453.527 301.02 452.961C299.882 454.012 298.381 454.993 296.544 456.059C296.175 455.921 296.143 455.698 296.076 455.137Z" fill="#80230D"/>
<path d="M298.799 237.973C299.285 236.764 300.025 235.383 301.155 234.14C300.715 235.452 299.884 236.626 298.799 237.973Z" fill="#80230D"/>
<path d="M301.798 233.942C302.211 232.758 302.861 231.367 303.88 229.9C303.51 231.128 302.772 232.432 301.798 233.942Z" fill="#80230D"/>
<path d="M165.734 238.57C166.672 239.011 167.763 239.71 168.751 240.794C167.728 240.396 166.808 239.612 165.734 238.57Z" fill="#80230D"/>
<path d="M308.235 533.875C307.322 533.534 306.177 533.011 305.054 532.092C306.052 532.361 307.028 533.027 308.235 533.875Z" fill="#12110F"/>
<path d="M113.364 548.449C112.868 549.375 112.096 550.443 110.944 551.394C111.405 550.382 112.247 549.487 113.364 548.449Z" fill="#12110F"/>
<path d="M326.91 546.503C325.861 546.154 324.604 545.567 323.473 544.602C324.633 544.905 325.668 545.586 326.91 546.503Z" fill="#12110F"/>
<path d="M328.465 195.771C328.959 194.29 329.749 192.646 330.881 190.913C330.403 192.419 329.582 194.013 328.465 195.771Z" fill="#80230D"/>
<path d="M338.923 565.457C338.23 565.721 337.415 565.681 336.18 565.386C335.761 565.13 335.681 564.81 335.681 564.81C336.256 564.175 336.831 563.54 337.714 562.803C338.282 563.519 338.541 564.337 338.923 565.457Z" fill="#F4F0E9"/>
<path d="M158.926 19.3418C158.191 19.9871 157.215 20.7704 156.007 21.3185C156.745 20.5488 157.714 20.0143 158.926 19.3418Z" fill="#12110F"/>
<path d="M323.273 543.981C322.442 543.792 321.399 543.401 320.478 542.614C321.421 542.738 322.241 543.259 323.273 543.981Z" fill="#12110F"/>
<path d="M320.257 542.01C319.424 541.81 318.398 541.397 317.518 540.602C318.464 540.746 319.263 541.271 320.257 542.01Z" fill="#12110F"/>
<path d="M301.818 528.876C302.096 528.854 302.152 528.851 302.177 528.837C302.498 529.096 302.795 529.369 303.295 529.867C302.56 530.2 301.623 530.308 300.44 530.153C300.642 529.559 301.091 529.228 301.818 528.876Z" fill="#12110F"/>
<path d="M30.0132 228.156C30.8704 228.303 31.8921 228.722 32.9471 229.508C32.0462 229.393 31.1119 228.91 30.0132 228.156Z" fill="#80230D"/>
<path d="M80.2896 287.895C80.9416 288.015 81.827 288.324 82.6286 288.96C81.8708 288.887 81.1969 288.485 80.2896 287.895Z" fill="#7B3311"/>
<path d="M317.269 539.934C316.696 539.868 315.907 539.618 315.119 538.994C315.764 538.997 316.409 539.373 317.269 539.934Z" fill="#12110F"/>
<path d="M327.116 163.293C326.277 163.115 325.284 162.649 324.204 161.837C325.065 161.997 326.014 162.5 327.116 163.293Z" fill="#80230D"/>
<path d="M134.683 525.745C135.325 526.091 136.129 526.669 136.912 527.621C136.21 527.322 135.527 526.65 134.683 525.745Z" fill="#43450F"/>
<path d="M44.142 152.361C43.5806 152.108 42.9296 151.578 42.4238 150.694C43.0635 150.922 43.5579 151.503 44.142 152.361Z" fill="#7B3311"/>
<path d="M119.988 191.172C120.812 191.43 121.773 191.974 122.69 192.891C121.806 192.662 120.965 192.06 119.988 191.172Z" fill="#80230D"/>
<path d="M116.687 546.597C116.389 546.936 115.825 547.273 114.989 547.555C115.285 547.198 115.853 546.896 116.687 546.597Z" fill="#12110F"/>
<path d="M24.7842 224.467C25.3933 224.552 26.1686 224.879 26.9391 225.579C26.273 225.538 25.6116 225.124 24.7842 224.467Z" fill="#80230D"/>
<path d="M115.038 157.974C115.507 158.234 115.868 158.703 116.228 159.172C115.822 159.249 115.416 159.325 114.767 159.214C114.644 158.737 114.779 158.456 115.038 157.974Z" fill="#80230D"/>
<path d="M302.681 452.086C302.852 451.483 303.306 450.758 304.12 450.043C303.974 450.69 303.47 451.327 302.681 452.086Z" fill="#80230D"/>
<path d="M120.638 144.592C121.084 144.371 121.625 144.355 122.166 144.34C122.044 144.748 121.923 145.156 121.559 145.789C121.121 145.608 120.927 145.203 120.638 144.592Z" fill="#12110F"/>
<path d="M42.4323 150.056C41.8574 149.838 41.178 149.373 40.6997 148.598C41.3765 148.794 41.8521 149.301 42.4323 150.056Z" fill="#7B3311"/>
<path d="M325.652 199.048C325.808 198.459 326.244 197.738 327.026 196.981C326.892 197.602 326.412 198.259 325.652 199.048Z" fill="#80230D"/>
<path d="M331.403 168.2C331.043 168.082 330.592 167.673 330.157 166.917C330.553 167.017 330.932 167.463 331.403 168.2Z" fill="#80230D"/>
<path d="M332.175 170.393C331.894 170.175 331.549 169.645 331.307 168.774C331.644 168.983 331.877 169.532 332.175 170.393Z" fill="#80230D"/>
<path d="M291.069 20.4233C290.621 20.4082 290.048 20.1398 289.523 19.5264C290.029 19.5109 290.487 19.8404 291.069 20.4233Z" fill="#12110F"/>
<path d="M45.4344 154.142C45.0642 154.042 44.5965 153.659 44.1499 152.927C44.5596 153.005 44.9483 153.432 45.4344 154.142Z" fill="#7B3311"/>
<path d="M47.3837 157.222C47.0227 157.094 46.5771 156.672 46.1641 155.9C46.5641 156.01 46.9316 156.469 47.3837 157.222Z" fill="#7B3311"/>
<path d="M304.957 531.511C304.569 531.44 304.01 531.157 303.516 530.54C303.983 530.571 304.385 530.935 304.957 531.511Z" fill="#12110F"/>
<path d="M125.826 312.563C125.982 312.789 125.997 313.159 125.991 313.344C125.597 313.24 125.211 312.952 124.724 312.424C124.972 312.236 125.321 312.287 125.826 312.563Z" fill="#7B3311"/>
<path d="M116.642 187.382C117.019 187.474 117.499 187.847 117.963 188.572C117.546 188.503 117.145 188.083 116.642 187.382Z" fill="#80230D"/>
<path d="M27.0034 226.138C27.468 226.101 28.0792 226.326 28.7046 226.906C28.1958 226.974 27.6729 226.688 27.0034 226.138Z" fill="#80230D"/>
<path d="M114.591 547.491C114.655 547.734 114.446 548.082 113.915 548.454C113.834 548.184 114.076 547.891 114.591 547.491Z" fill="#12110F"/>
<path d="M330.169 549.429C329.968 549.483 329.636 549.28 329.206 548.793C329.418 548.729 329.727 548.951 330.169 549.429Z" fill="#12110F"/>
<path d="M168.744 241.31C169.01 241.194 169.379 241.347 169.792 241.819C169.506 241.952 169.176 241.766 168.744 241.31Z" fill="#80230D"/>
<path d="M110.433 551.409C110.545 551.658 110.404 552.04 109.94 552.475C109.803 552.2 109.991 551.871 110.433 551.409Z" fill="#12110F"/>
<path d="M327.493 196.949C327.387 196.718 327.537 196.371 327.967 195.932C328.081 196.172 327.915 196.503 327.493 196.949Z" fill="#80230D"/>
<path d="M28.7822 227.344C29.027 227.195 29.3963 227.301 29.8682 227.693C29.6162 227.852 29.2614 227.725 28.7822 227.344Z" fill="#80230D"/>
<path d="M24.1304 223.933C24.273 223.791 24.5099 223.804 24.6534 224.022C24.56 224.228 24.2247 224.088 24.1304 223.933Z" fill="#80230D"/>
<path d="M122.771 193.368C123.021 193.22 123.393 193.324 123.853 193.726C123.591 193.889 123.243 193.755 122.771 193.368Z" fill="#80230D"/>
<path d="M174.69 9.61792C174.709 9.82747 174.465 10.1281 173.911 10.4118C173.877 10.1662 174.152 9.93759 174.69 9.61792Z" fill="#12110F"/>
<path d="M312.991 207.551C312.888 207.782 312.466 207.763 312.255 207.752C312.26 207.484 312.476 207.228 312.937 206.896C313.153 206.987 313.123 207.153 312.991 207.551Z" fill="#8E4116"/>
<path d="M324.566 200.044C324.478 199.79 324.653 199.437 325.145 199.065C325.25 199.345 325.04 199.644 324.566 200.044Z" fill="#80230D"/>
<path d="M7.8252 204.139C8.00297 204.12 8.23486 204.323 8.2933 204.638C8.11985 204.75 7.87931 204.361 7.8252 204.139Z" fill="#80230D"/>
<path d="M323.519 201.004C323.437 200.756 323.624 200.413 324.12 200.036C324.215 200.305 324.001 200.606 323.519 201.004Z" fill="#80230D"/>
<path d="M117.966 189.081C118.181 189.019 118.496 189.22 118.886 189.701C118.664 189.769 118.365 189.557 117.966 189.081Z" fill="#80230D"/>
<path d="M164.699 237.359C164.978 237.239 165.349 237.384 165.719 237.855C165.409 237.997 165.101 237.811 164.699 237.359Z" fill="#80230D"/>
<path d="M163.744 236.267C164.012 236.172 164.372 236.352 164.738 236.854C164.442 236.965 164.138 236.753 163.744 236.267Z" fill="#80230D"/>
<path d="M118.93 190.108C119.149 190.034 119.476 190.223 119.887 190.693C119.66 190.773 119.349 190.571 118.93 190.108Z" fill="#80230D"/>
<path d="M322.415 201.894C322.358 201.667 322.571 201.353 323.081 200.998C323.147 201.24 322.916 201.523 322.415 201.894Z" fill="#80230D"/>
<path d="M330.166 166.401C329.942 166.458 329.631 166.246 329.27 165.743C329.506 165.679 329.792 165.905 330.166 166.401Z" fill="#80230D"/>
<path d="M329.258 165.309C329.018 165.396 328.677 165.218 328.278 164.741C328.532 164.643 328.845 164.843 329.258 165.309Z" fill="#80230D"/>
<path d="M328.245 164.313C328.01 164.408 327.667 164.241 327.245 163.787C327.489 163.683 327.813 163.867 328.245 164.313Z" fill="#80230D"/>
<path d="M122.795 65.4695C122.835 65.8282 122.541 66.1289 121.919 66.4245C121.88 66.0834 122.171 65.7475 122.795 65.4695Z" fill="#12110F"/>
<path d="M120.399 67.4048C120.508 67.6458 120.376 68.0241 119.923 68.4454C119.787 68.1729 119.972 67.8575 120.399 67.4048Z" fill="#12110F"/>
<path d="M121.431 66.3948C121.52 66.6461 121.361 67.0154 120.873 67.3824C120.758 67.091 120.971 66.8019 121.431 66.3948Z" fill="#12110F"/>
<path d="M146.089 29.4675C146.223 29.6774 146.196 30.0256 145.849 30.3626C145.593 30.0657 145.726 29.8172 146.089 29.4675Z" fill="#12110F"/>
<path d="M46.2028 155.382C45.9696 155.426 45.6591 155.202 45.3628 154.672C45.6264 154.615 45.8759 154.865 46.2028 155.382Z" fill="#7B3311"/>
<path d="M48.8032 259.189C49.0599 259.117 49.3988 259.323 49.7359 259.846C49.4512 259.931 49.1683 259.699 48.8032 259.189Z" fill="#80230D"/>
<path d="M58.2608 180.962C58.2731 181.099 58.1631 180.741 58.0798 180.729C57.9966 180.716 58.2485 180.826 58.2608 180.962Z" fill="#80230D"/>
<path d="M301.515 453.031C301.421 452.77 301.61 452.417 302.116 452.039C302.22 452.322 302.009 452.631 301.515 453.031Z" fill="#80230D"/>
<path d="M48.1535 158.418C47.9199 158.461 47.6233 158.228 47.3135 157.696C47.5637 157.646 47.8271 157.894 48.1535 158.418Z" fill="#7B3311"/>
<path d="M298.897 484.43C298.576 484.558 298.368 484.346 298.177 483.827C298.374 483.8 298.647 483.989 298.897 484.43Z" fill="#43450F"/>
<path d="M7.38256 157.408C7.49499 157.687 7.36993 158.052 6.92204 158.362C6.78115 158.037 6.96313 157.765 7.38256 157.408Z" fill="#7B3311"/>
<path d="M178.747 155.817C181.412 151.818 184.077 147.818 187.208 143.397C188.238 142.39 188.801 141.804 189.365 141.219C189.365 141.219 189.436 141.241 189.778 141.265C190.815 140.812 191.511 140.334 192.207 139.857C192.207 139.857 192.095 139.837 192.494 139.821C200.42 136.656 207.715 137.42 214.835 141.112C214.835 141.112 214.902 140.998 214.988 141.262C215.612 141.757 216.149 141.988 216.686 142.219C216.686 142.219 216.806 142.158 216.799 142.403C217.139 142.798 217.486 142.948 217.833 143.098C217.833 143.098 217.988 142.983 217.948 143.254C218.273 143.798 218.639 144.072 219.006 144.345C221.862 149.083 225.996 152.867 226.155 159.304C226.387 168.678 222.237 175.208 214.909 181.102C213.886 181.87 213.362 182.243 212.837 182.616C212.837 182.616 212.985 182.633 212.665 182.624C211.832 182.923 211.319 183.231 210.807 183.54C210.807 183.54 210.961 183.557 210.525 183.561C204.459 183.504 198.828 183.444 193.197 183.383C193.197 183.383 193.15 183.518 193.037 183.229C191.706 182.416 190.488 181.894 189.269 181.371C189.269 181.371 189.19 181.532 189.188 181.261C188.836 180.835 188.486 180.68 188.135 180.525C188.135 180.525 188.131 180.651 188.04 180.353C187.099 179.478 186.248 178.902 185.398 178.326C185.398 178.326 185.279 178.419 185.295 178.153C184.979 177.725 184.646 177.562 184.313 177.399C184.313 177.399 184.407 177.52 184.347 177.163C183.588 176.053 182.888 175.3 182.188 174.547C182.188 174.547 182.163 174.677 182.13 174.31C178.564 168.348 177.593 162.279 178.747 155.817ZM194.961 170.873C194.961 170.873 194.829 170.91 195.232 171.528C198.792 173.592 202.439 174.869 207.198 172.808C207.819 172.434 208.44 172.06 209.736 171.503C210.542 170.674 211.431 169.911 212.139 169.006C216.521 163.405 215.896 155.539 210.755 151.056C205.42 146.405 197.833 146.96 192.961 152.358C188.225 157.604 188.577 164.685 193.899 169.891C193.899 169.891 193.733 169.894 193.971 170.421C194.299 170.618 194.626 170.814 194.961 170.873Z" fill="#F4F0E9"/>
<path d="M294.002 150.336C293.93 150.548 293.993 150.705 294.511 151.093C295.482 151.955 296.133 152.533 296.784 153.111C296.784 153.111 296.781 152.928 296.762 153.271C297.134 154.062 297.524 154.51 297.914 154.959C297.914 154.959 297.951 154.823 297.959 155.121C298.305 155.907 298.645 156.396 298.984 156.885C298.984 156.885 299.008 156.79 299.008 157.096C299.312 157.918 299.615 158.433 299.918 158.949C299.918 158.949 299.935 158.81 299.933 159.229C302.317 168.474 299.908 176.037 293.874 182.646C293.874 182.646 293.979 182.681 293.715 182.724C293.246 183.07 293.041 183.372 292.837 183.675C292.837 183.675 292.986 183.678 292.665 183.696C291.523 184.363 290.701 185.011 289.879 185.659C289.879 185.659 289.994 185.684 289.624 185.715C281.883 190.007 274.613 188.74 267.381 185.349C267.381 185.349 267.317 185.299 267.246 185.024C266.508 184.331 265.84 183.911 265.173 183.492C265.173 183.492 265.124 183.644 265.105 183.38C264.761 182.93 264.436 182.744 264.111 182.558C264.111 182.558 264.103 182.704 264.076 182.43C263.74 181.955 263.43 181.754 263.121 181.553C263.121 181.553 263.115 181.7 263.095 181.418C262.774 180.925 262.473 180.714 262.173 180.503C262.173 180.503 262.168 180.665 262.154 180.339C261.477 179.204 260.813 178.396 260.15 177.588C260.15 177.588 260.127 177.697 260.086 177.376C259.38 175.97 258.716 174.887 258.052 173.803C255.527 164.456 257.813 156.468 265.242 149.358C265.865 148.553 266.071 148.204 266.278 147.856C266.278 147.856 266.097 147.95 266.452 147.961C267.259 147.586 267.711 147.2 268.163 146.814C268.163 146.814 268.084 146.794 268.349 146.757C268.807 146.413 268.999 146.106 269.192 145.799C269.192 145.799 269.074 145.803 269.474 145.785C275.145 143.58 280.501 143.12 285.972 144.971C285.972 144.971 286 144.859 286.154 145.133C288.873 147.05 291.438 148.693 294.002 150.336ZM286.847 172.868C286.96 172.514 287.073 172.159 287.095 171.808C287.095 171.808 287.12 171.895 287.723 171.431C289.279 167.711 289.809 164.035 287.25 160.662C287.25 160.662 287.412 160.607 287.238 160.004C286.879 159.528 286.519 159.053 286.135 158.682C286.135 158.682 286.243 158.67 286.017 158.117C285.691 157.992 285.366 157.866 284.42 157.399C280.73 154.466 277.068 153.408 271.975 154.472C266.844 155.544 264.668 158.212 263.341 162.515C262.004 166.851 262.837 170.685 266.138 174.344C266.401 174.576 266.663 174.809 266.957 174.846C266.957 174.846 266.76 174.854 266.967 175.421C267.3 175.642 267.632 175.863 268.108 176.52C268.34 176.766 268.621 176.853 269.496 177.34C274.309 179.405 279.006 179.894 283.55 176.3C283.55 176.3 283.692 176.267 284.131 175.971C284.605 175.465 285.079 174.96 285.578 174.25C285.578 174.25 285.397 174.152 285.961 174.062C286.14 173.73 286.319 173.397 286.357 172.965C286.357 172.965 286.355 173.137 286.847 172.868Z" fill="#F4F0E9"/>
<path d="M257.048 211.806C257.808 211.513 258.545 211.08 259.331 210.954C261.36 210.631 263.411 210.444 265.453 210.202C265.194 212.68 265.853 216.083 264.484 217.441C261.653 220.248 257.964 222.508 254.236 224.035C240.602 229.618 221.455 226.183 212.122 215.317C211.162 214.2 210.148 213.022 209.585 211.691C207.703 207.237 209.198 205.088 214.779 205.047C216.599 206.677 217.933 207.939 219.097 209.341C226.637 218.423 246.268 221.274 257.048 211.806Z" fill="#733510"/>
<path d="M188.036 125.518C185.744 124.842 182.25 124.84 181.414 123.348C179.717 120.324 182.053 117.957 184.853 116.143C195.657 109.144 207.207 107.957 219.168 112.07C222.007 113.046 225.042 115.548 226.431 118.172C228.76 122.572 226.022 125.906 220.976 125.844C219.646 125.827 218.316 125.726 216.534 125.679C216.083 125.694 216.103 125.702 215.89 125.436C214.786 125.011 213.896 124.853 212.689 124.693C211.951 124.705 211.53 124.72 210.853 124.431C203.675 122.012 196.84 122.912 189.75 124.744C188.99 125.01 188.513 125.264 188.036 125.518Z" fill="#3A281C"/>
<path d="M258.046 211.258C247.267 221.13 226.637 218.423 219.097 209.341C217.933 207.939 215.946 206.384 214.546 204.758C217.221 203.794 220.662 203.167 223.52 202.817C228.053 202.262 232.632 202.088 237.988 201.59C240.866 201.2 242.763 200.728 245.046 200.758C246.116 200.515 247.172 200.263 248.374 199.76C249.151 199.754 249.594 199.751 250.038 199.748C252.861 203.194 258.485 205.374 258.046 211.258Z" fill="#96481B"/>
<path d="M269.047 128.507C265.972 128.675 262.496 129.755 261.178 125.496C260.012 121.725 262.143 117.669 266.155 115.729C274.37 111.756 292.551 114.658 298.893 121.459C300.331 123 300.948 126.44 300.256 128.415C299.83 129.632 296.224 130.107 294.014 130.205C292.306 130.282 290.549 129.256 288.224 128.697C287.634 128.673 287.246 128.688 286.999 128.432C285.829 128.006 284.907 127.837 283.668 127.667C282.929 127.676 282.507 127.685 281.814 127.404C278.056 127.346 274.568 127.578 270.797 127.807C270.024 128.039 269.535 128.273 269.047 128.507Z" fill="#3A281C"/>
<path d="M211.108 124.735C211.529 124.72 211.951 124.705 212.898 124.97C214.317 125.4 215.21 125.551 216.103 125.702C216.103 125.702 216.082 125.694 216.09 125.677C216.608 126.032 217.067 126.564 217.637 126.75C220.503 127.684 223.561 127.804 223.202 132.49C222.856 137.005 219.946 137.706 216.77 138.626C216.155 138.804 215.462 138.713 214.19 138.481C212.073 137.742 210.569 137.268 209.066 136.793C204.475 133.444 199.518 136.221 194.796 135.772C191.965 135.503 189.087 133.369 186.785 131.42C186.125 130.861 187.398 128.021 187.91 125.872C188.513 125.264 188.99 125.01 190.006 125.035C197.399 125.121 204.254 124.928 211.108 124.735Z" fill="#8E4116"/>
<path d="M268.857 128.836C269.535 128.273 270.024 128.039 271.081 128.092C275.128 128.151 278.607 127.922 282.085 127.694C282.507 127.685 282.929 127.676 283.889 127.956C285.367 128.392 286.307 128.54 287.247 128.688C287.247 128.688 287.634 128.673 287.827 128.687C289.037 129.433 290.078 130.135 291.067 130.903C292.691 132.163 296.468 131.016 295.415 135.312C294.493 139.069 293.11 141.804 288.75 141.759C287.76 141.749 286.77 141.772 285.003 141.799C283.533 141.828 282.841 141.84 281.88 141.557C278.744 141.772 275.877 142.281 272.649 142.801C271.57 142.827 270.851 142.842 270.133 142.858C268.439 140.255 266.281 137.831 265.184 134.997C264.122 132.256 265.597 129.981 268.857 128.836Z" fill="#8E4116"/>
<path d="M245.033 200.748C242.95 200.974 240.866 201.2 238.429 201.586C236.178 200.823 234.164 200.078 232.412 198.933C230.221 197.501 228.246 195.74 226.177 194.121C228.415 192.072 230.445 188.629 232.933 188.258C238.479 187.432 244.313 187.69 249.909 188.424C252.486 188.762 254.781 191.256 258.441 193.546C255.054 195.955 252.758 197.589 250.25 199.485C249.594 199.751 249.151 199.754 248.036 199.761C246.588 200.092 245.811 200.42 245.033 200.748Z" fill="#7F3D14"/>
<path d="M239.657 273.845C237.695 274.765 235.35 276.222 232.902 276.421C223.145 277.214 213.412 277.231 204.199 272.094C211.283 272.797 218.567 274.092 225.907 274.638C230.302 274.965 234.784 274.122 239.657 273.845Z" fill="#984A1C"/>
<path d="M294.253 182.69C299.908 176.037 302.318 168.474 299.865 159.239C303.467 162.892 303.291 172.809 299.167 178.838C298.079 180.427 296.166 181.451 294.253 182.69Z" fill="#80230D"/>
<path d="M178.404 155.912C177.593 162.279 178.564 168.348 182.195 174.3C176.32 171.08 174.233 161.884 178.404 155.912Z" fill="#80230D"/>
<path d="M267.4 185.689C274.613 188.74 281.883 190.007 289.622 185.656C284.556 191.702 273.516 191.929 267.4 185.689Z" fill="#80230D"/>
<path d="M208.6 136.782C210.569 137.268 212.073 137.742 213.787 138.479C214.276 139.316 214.554 139.89 214.833 140.788C207.715 137.419 200.42 136.656 192.498 139.877C194.654 138.878 197.12 137.38 199.778 136.855C202.464 136.325 205.341 136.759 208.6 136.782Z" fill="#80230D"/>
<path d="M270.087 143.179C270.851 142.843 271.57 142.827 273.092 142.789C276.647 142.462 279.398 142.157 282.149 141.852C282.841 141.84 283.533 141.829 284.567 141.816C285.226 142.645 285.543 143.474 285.916 144.637C280.501 143.121 275.145 143.58 269.484 145.844C269.41 145.113 269.726 144.307 270.087 143.179Z" fill="#80230D"/>
<path d="M193.313 183.753C198.828 183.444 204.459 183.504 210.503 183.486C206.745 187.18 199.671 187.469 193.313 183.753Z" fill="#80230D"/>
<path d="M293.921 149.963C291.438 148.693 288.873 147.05 286.097 145.134C289.599 144.65 292.259 146.212 293.921 149.963Z" fill="#80230D"/>
<path d="M202.91 270.552C201.918 270.133 200.949 269.353 199.93 268.258C200.898 268.692 201.915 269.441 202.91 270.552Z" fill="#984A1C"/>
<path d="M258.054 174.103C258.716 174.887 259.38 175.97 260.142 177.372C259.511 176.593 258.784 175.498 258.054 174.103Z" fill="#80230D"/>
<path d="M189.309 181.751C190.487 181.894 191.706 182.416 193.107 183.215C191.976 183.037 190.663 182.584 189.309 181.751Z" fill="#80230D"/>
<path d="M260.125 177.942C260.813 178.396 261.477 179.204 262.232 180.318C261.583 179.848 260.842 179.072 260.125 177.942Z" fill="#80230D"/>
<path d="M290.231 185.673C290.701 185.011 291.523 184.363 292.652 183.623C292.167 184.25 291.375 184.969 290.231 185.673Z" fill="#80230D"/>
<path d="M185.378 178.691C186.248 178.902 187.099 179.478 188.1 180.334C187.287 180.094 186.323 179.575 185.378 178.691Z" fill="#80230D"/>
<path d="M182.158 174.909C182.888 175.3 183.588 176.053 184.383 177.095C183.695 176.68 182.911 175.976 182.158 174.909Z" fill="#80230D"/>
<path d="M245.811 270.885C245.36 271.561 244.574 272.212 243.467 272.884C243.923 272.223 244.699 271.542 245.811 270.885Z" fill="#984A1C"/>
<path d="M189.014 141.163C188.801 141.804 188.238 142.39 187.39 143.143C187.625 142.576 188.144 141.842 189.014 141.163Z" fill="#80230D"/>
<path d="M242.775 272.841C242.358 273.285 241.593 273.693 240.497 274.01C240.92 273.547 241.674 273.176 242.775 272.841Z" fill="#984A1C"/>
<path d="M296.767 152.744C296.133 152.533 295.482 151.955 294.649 151.09C295.228 151.328 295.989 151.853 296.767 152.744Z" fill="#80230D"/>
<path d="M191.832 139.825C191.511 140.334 190.815 140.812 189.813 141.277C190.157 140.774 190.806 140.284 191.832 139.825Z" fill="#80230D"/>
<path d="M265.217 183.829C265.841 183.911 266.508 184.331 267.286 185.015C266.685 184.909 265.973 184.538 265.217 183.829Z" fill="#80230D"/>
<path d="M298.972 156.553C298.645 156.396 298.305 155.908 297.888 155.12C298.194 155.288 298.577 155.755 298.972 156.553Z" fill="#80230D"/>
<path d="M267.827 146.826C267.711 147.2 267.259 147.586 266.512 148.044C266.641 147.689 267.066 147.264 267.827 146.826Z" fill="#80230D"/>
<path d="M297.938 154.612C297.524 154.51 297.134 154.062 296.682 153.315C297.068 153.433 297.514 153.849 297.938 154.612Z" fill="#80230D"/>
<path d="M299.937 158.615C299.615 158.433 299.312 157.918 298.959 157.092C299.259 157.282 299.607 157.782 299.937 158.615Z" fill="#80230D"/>
<path d="M211.153 183.596C211.319 183.231 211.832 182.923 212.653 182.551C212.474 182.875 211.986 183.264 211.153 183.596Z" fill="#80230D"/>
<path d="M249.126 266.957C249.182 267.411 248.915 267.964 248.39 268.681C248.356 268.249 248.58 267.652 249.126 266.957Z" fill="#984A1C"/>
<path d="M213.21 182.632C213.361 182.243 213.886 181.869 214.705 181.338C214.528 181.669 214.056 182.158 213.21 182.632Z" fill="#80230D"/>
<path d="M216.678 141.863C216.148 141.988 215.611 141.757 214.922 141.266C215.404 141.173 216.037 141.34 216.678 141.863Z" fill="#80230D"/>
<path d="M217.799 142.79C217.486 142.948 217.139 142.798 216.744 142.365C217.052 142.215 217.408 142.349 217.799 142.79Z" fill="#80230D"/>
<path d="M265.971 147.969C266.071 148.204 265.865 148.553 265.384 149.074C265.295 148.859 265.48 148.471 265.971 147.969Z" fill="#80230D"/>
<path d="M218.92 144.017C218.639 144.072 218.273 143.798 217.886 143.179C218.189 143.119 218.512 143.404 218.92 144.017Z" fill="#80230D"/>
<path d="M184.333 177.709C184.646 177.562 184.979 177.725 185.367 178.175C185.066 178.314 184.71 178.167 184.333 177.709Z" fill="#80230D"/>
<path d="M247.91 268.908C247.983 269.12 247.816 269.423 247.389 269.786C247.309 269.564 247.489 269.282 247.91 268.908Z" fill="#984A1C"/>
<path d="M263.2 181.833C263.43 181.754 263.74 181.954 264.149 182.421C263.925 182.496 263.602 182.305 263.2 181.833Z" fill="#80230D"/>
<path d="M264.201 182.836C264.436 182.744 264.761 182.93 265.185 183.385C264.953 183.473 264.622 183.294 264.201 182.836Z" fill="#80230D"/>
<path d="M293.117 183.6C293.042 183.372 293.247 183.07 293.717 182.669C293.788 182.888 293.593 183.207 293.117 183.6Z" fill="#80230D"/>
<path d="M268.926 145.883C268.999 146.106 268.807 146.413 268.348 146.797C268.274 146.572 268.467 146.269 268.926 145.883Z" fill="#80230D"/>
<path d="M188.217 180.815C188.485 180.68 188.836 180.835 189.278 181.265C189.012 181.395 188.655 181.251 188.217 180.815Z" fill="#80230D"/>
<path d="M262.229 180.795C262.473 180.714 262.774 180.925 263.168 181.407C262.935 181.481 262.61 181.284 262.229 180.795Z" fill="#80230D"/>
<path d="M203.907 271.603C203.705 271.675 203.402 271.509 203.024 271.091C203.236 271.014 203.522 271.19 203.907 271.603Z" fill="#984A1C"/>
<path d="M246.907 269.932C246.99 270.154 246.833 270.461 246.41 270.814C246.318 270.579 246.492 270.298 246.907 269.932Z" fill="#984A1C"/>
<path d="M48.2975 196.482C51.3379 191.766 54.2516 187.423 57.1654 183.08C57.7327 183.429 58.3 183.778 58.8673 184.127C57.7706 185.992 56.7207 187.887 55.5647 189.715C54.2682 191.765 52.6997 193.661 51.573 195.795C50.3782 198.058 49.5632 200.521 48.1709 203.894C48.1709 200.796 48.1709 198.826 48.2975 196.482Z" fill="#7F3D14"/>
<path d="M335.362 564.78C335.681 564.81 335.761 565.13 335.782 565.293C335.804 565.457 335.865 565.464 335.468 565.559C321.66 570.358 307.707 571.192 293.942 569.112C279.503 566.931 265.334 562.962 251.047 559.774C251.047 559.774 250.853 559.521 250.695 559.539C249.198 558.883 247.86 558.211 246.467 557.286C248.844 557.35 251.304 557.522 253.702 558.007C265.331 560.357 277.204 561.972 288.45 565.547C293.892 567.277 299.303 567.527 304.618 568.169C310.292 568.854 316.257 567.224 322.084 566.522C326.412 566 330.724 565.345 335.362 564.78Z" fill="#12110F"/>
<path d="M245.996 556.142C245.707 556.127 245.573 556.193 245.529 556.125C245.79 555.959 246.095 555.861 246.399 555.764C246.361 555.895 246.324 556.026 245.996 556.142Z" fill="#12110F"/>
<path d="M110.523 569.488C126.432 570.851 142.335 570.641 158.204 568.325C160.173 568.038 162.136 567.707 164.52 567.326C162.09 568.21 159.262 569.908 156.386 569.995C141.516 570.446 126.635 570.491 111.757 570.635C111.357 570.638 110.952 570.151 110.523 569.488Z" fill="white"/>
<path d="M179.167 564.392C180.013 563.744 181.19 563.265 182.701 562.778C181.855 563.367 180.676 563.964 179.167 564.392Z" fill="white"/>
<path d="M171.236 566.534C171.854 566.012 172.872 565.59 174.231 565.129C173.592 565.604 172.614 566.119 171.236 566.534Z" fill="white"/>
<path d="M167.332 567.163C168 566.651 168.914 566.386 170.183 566.103C169.551 566.527 168.564 566.969 167.332 567.163Z" fill="white"/>
<path d="M175.225 565.52C175.815 564.981 176.806 564.552 178.127 564.084C177.514 564.574 176.57 565.102 175.225 565.52Z" fill="white"/>
<path d="M107.348 568.662C108.098 568.489 108.963 568.679 110.056 569.104C109.344 569.235 108.403 569.13 107.348 568.662Z" fill="white"/>
<path d="M183.846 562.681C184.331 562.225 185.259 561.776 186.564 561.2C186.056 561.612 185.172 562.15 183.846 562.681Z" fill="white"/>
<path d="M251.1 560.131C265.334 562.962 279.503 566.931 293.942 569.112C307.707 571.192 321.66 570.358 335.439 565.555C335.047 566.524 334.491 568.256 333.495 568.564C316.839 573.701 300.052 572.699 283.235 569.34C277.232 568.141 271.116 567.393 265.22 565.812C260.402 564.521 255.833 562.297 251.1 560.131Z" fill="#F4F0E9"/>
<path d="M209.061 171.686C208.44 172.06 207.819 172.434 206.717 172.448C202.433 171.695 198.631 171.302 194.828 170.91C194.828 170.91 194.961 170.873 194.873 170.649C194.435 170.248 194.084 170.071 193.733 169.894C193.733 169.894 193.899 169.891 193.933 169.584C193.49 168.283 193.04 167.273 192.528 166.297C189.955 161.394 192.184 153.708 197.11 151.721C199.16 150.894 201.641 151.134 203.987 150.819C204.047 150.749 204.161 150.605 204.533 150.615C212.218 152.838 214.676 158.103 211.675 164.987C210.718 167.183 209.928 169.451 209.061 171.686Z" fill="#32322F"/>
<path d="M209.399 171.594C209.928 169.451 210.718 167.183 211.675 164.987C214.676 158.103 212.218 152.838 204.327 150.393C203.086 150.097 202.422 150.032 201.758 149.967C201.736 150.184 201.714 150.401 201.692 150.618C202.437 150.708 203.182 150.799 203.927 150.889C201.641 151.134 199.16 150.894 197.11 151.721C192.184 153.708 189.956 161.394 192.528 166.297C193.041 167.273 193.49 168.283 193.905 169.661C188.577 164.685 188.225 157.604 192.96 152.358C197.833 146.96 205.42 146.405 210.755 151.056C215.896 155.539 216.521 163.405 212.139 169.006C211.431 169.911 210.542 170.674 209.399 171.594Z" fill="#12110F"/>
<path d="M195.03 171.219C198.631 171.302 202.433 171.695 206.348 172.431C202.439 174.868 198.792 173.592 195.03 171.219Z" fill="#12110F"/>
<path d="M193.852 170.158C194.084 170.071 194.435 170.248 194.869 170.718C194.626 170.814 194.298 170.618 193.852 170.158Z" fill="#12110F"/>
<path d="M266.263 173.818C262.837 170.685 262.004 166.851 263.341 162.515C264.668 158.212 266.844 155.544 271.976 154.472C277.069 153.408 280.73 154.466 284.841 157.82C285.589 158.384 285.916 158.527 286.243 158.67C286.243 158.67 286.135 158.682 286.114 158.977C286.532 159.716 286.973 160.162 287.413 160.607C287.413 160.607 287.251 160.662 287.17 161.055C287.099 164.93 287.11 168.413 287.12 171.895C287.12 171.895 287.095 171.808 286.859 171.909C286.534 172.386 286.444 172.761 286.355 173.137C286.355 173.137 286.357 172.965 286.104 173.018C285.7 173.432 285.549 173.792 285.398 174.151C285.398 174.151 285.578 174.25 285.203 174.178C284.45 174.826 284.071 175.546 283.692 176.266C283.692 176.266 283.55 176.3 283.087 176.151C278.067 176.262 273.509 176.522 268.952 176.781C268.621 176.853 268.34 176.766 267.949 176.003C267.446 175.275 267.103 175.065 266.76 174.854C266.76 174.854 266.957 174.846 266.885 174.709C266.727 174.25 266.544 173.999 266.263 173.818Z" fill="#32322F"/>
<path d="M269.224 177.06C273.509 176.522 278.067 176.262 283.015 176.16C279.006 179.894 274.309 179.405 269.224 177.06Z" fill="#12110F"/>
<path d="M287.422 171.663C287.11 168.413 287.099 164.93 287.173 160.969C289.809 164.035 289.279 167.711 287.422 171.663Z" fill="#12110F"/>
<path d="M283.912 176.119C284.071 175.546 284.45 174.826 285.191 174.28C285.079 174.96 284.605 175.465 283.912 176.119Z" fill="#12110F"/>
<path d="M287.325 160.305C286.972 160.162 286.532 159.716 286.126 158.924C286.519 159.053 286.879 159.528 287.325 160.305Z" fill="#12110F"/>
<path d="M266.864 175.138C267.103 175.065 267.446 175.275 267.877 175.785C267.633 175.863 267.3 175.642 266.864 175.138Z" fill="#12110F"/>
<path d="M266.201 174.081C266.544 173.999 266.727 174.25 266.869 174.807C266.663 174.808 266.401 174.576 266.201 174.081Z" fill="#12110F"/>
<path d="M285.679 174.107C285.549 173.792 285.7 173.432 286.174 173.068C286.319 173.397 286.14 173.73 285.679 174.107Z" fill="#12110F"/>
<path d="M286.601 173.003C286.444 172.761 286.534 172.386 286.904 171.907C287.073 172.159 286.96 172.514 286.601 173.003Z" fill="#12110F"/>
<path d="M286.13 158.394C285.916 158.527 285.589 158.384 285.151 157.991C285.366 157.866 285.692 157.992 286.13 158.394Z" fill="#12110F"/>
<path d="M210.854 124.431C204.254 124.928 197.4 125.121 190.289 125.023C196.841 122.912 203.675 122.012 210.854 124.431Z" fill="#96481B"/>
<path d="M215.89 125.436C215.21 125.551 214.317 125.4 213.215 124.972C213.896 124.853 214.786 125.011 215.89 125.436Z" fill="#96481B"/>
<path d="M245.233 201.004C245.811 200.42 246.588 200.092 247.704 199.764C247.172 200.263 246.302 200.762 245.233 201.004Z" fill="#96481B"/>
<path d="M281.814 127.404C278.606 127.922 275.127 128.151 271.365 128.094C274.568 127.578 278.055 127.346 281.814 127.404Z" fill="#96481B"/>
<path d="M286.998 128.432C286.307 128.54 285.367 128.392 284.206 127.956C284.907 127.837 285.829 128.006 286.998 128.432Z" fill="#96481B"/>
<path d="M281.88 141.557C279.398 142.157 276.647 142.461 273.453 142.779C275.877 142.281 278.744 141.772 281.88 141.557Z" fill="#96481B"/>
<path d="M203.987 150.82C203.182 150.799 202.437 150.709 201.692 150.618C201.714 150.401 201.736 150.184 201.758 149.967C202.422 150.032 203.086 150.097 203.956 150.384C204.161 150.605 204.047 150.75 203.987 150.82Z" fill="#32322F"/>
</svg>
