<svg  viewBox="0 0 255 615" fill="none" xmlns="http://www.w3.org/2000/svg">
<path d="M59.138 372.729C51.8185 373.114 46.4047 368.71 41.5259 364.484C34.7808 358.641 28.5237 352.064 22.9264 345.102C9.96478 328.981 10.2361 309.673 23.9811 294.378C28.9138 288.889 35.719 285.082 41.9799 279.947C43.2762 278.64 44.262 277.894 45.2331 277.141C45.2182 277.135 45.2238 277.107 45.5097 276.989C46.5865 276.244 47.3775 275.616 48.089 274.978C48.0096 274.966 48.0864 275.107 48.3781 275.012C49.1204 274.531 49.5712 274.146 49.9665 273.749C49.9108 273.737 49.9219 273.85 50.163 273.769C50.742 273.36 51.08 273.033 51.6237 272.406C54.5037 270.311 57.1782 268.514 60.2223 266.727C62.0502 266.084 63.5082 265.433 65.2621 264.745C66.0127 264.385 66.4677 264.062 67.268 263.691C69.3953 262.687 71.1774 261.73 73.2592 260.742C74.0344 260.408 74.5097 260.106 75.3266 259.766C77.0648 259.042 78.4614 258.357 80.2394 257.657C86.9662 255.564 93.3631 253.625 99.6168 251.301C101.01 250.783 101.899 248.91 103.335 247.707C104.224 248.449 104.8 249.146 106.115 250.739C105.773 247.591 105.65 245.638 105.333 243.717C104.634 239.484 106.852 237.495 110.835 238.77C114.213 239.851 117.634 240.799 120.938 241.777C121.758 239.61 122.321 238.124 123.115 236.971C123.817 239.129 124.289 240.955 124.777 242.735C124.793 242.689 124.705 242.731 124.873 242.992C125.626 243.442 126.211 243.63 126.795 243.768C126.795 243.717 126.697 243.743 126.93 244.022C131.39 245.617 135.539 247.342 139.859 248.166C149.484 250.003 159.188 251.712 169.031 248.898C169.109 248.958 169.286 248.871 169.559 248.665C169.773 247.541 169.714 246.624 169.687 245.345C169.5 243.56 169.28 242.137 169.365 240.697C170.072 240.621 170.475 240.561 171.309 240.565C173.787 240.637 175.833 240.645 178.008 240.744C178.137 240.833 178.447 240.788 178.609 241.059C179.54 242.034 180.31 242.738 180.682 243.481C178.867 243.09 177.471 242.422 176.027 242.296C174.528 242.166 172.675 242.127 171.583 242.902C171.001 243.314 171.219 245.914 171.949 246.833C172.751 247.843 174.567 248.532 175.921 248.5C177.78 248.457 179.62 247.605 181.401 247.118C181.259 245.655 181.15 244.529 181.438 243.477C182.439 248.453 182.964 253.366 183.693 258.249C183.927 259.817 184.237 261.89 185.303 262.729C190.205 266.591 195.386 270.099 200.625 273.989C201.117 274.463 201.45 274.681 201.899 275.185C203.233 276.543 204.451 277.617 205.794 278.933C206.217 279.376 206.515 279.574 206.794 279.74C206.774 279.708 206.72 279.761 206.873 280.056C209.562 282.803 212.098 285.254 214.743 287.95C215.211 288.578 215.569 288.961 215.927 289.344C224.128 300.147 232.58 310.769 240.455 321.804C247.814 332.117 245.913 345.326 237.486 354.697C227.893 365.364 217.833 375.371 205.797 383.256C204.991 383.784 204.043 384.094 202.881 384.118C202.758 383.025 202.916 382.319 203.444 381.505C204.78 377.697 206.767 373.892 202.767 370.686C202.805 370.672 202.788 370.752 202.785 370.328C202.776 369.621 202.77 369.338 202.671 368.996C202.576 368.938 202.644 368.726 202.838 368.622C202.857 368.279 202.681 368.04 202.564 367.758C202.622 367.715 202.673 367.85 202.724 367.465C202.17 365.944 201.566 364.807 200.852 363.505C200.744 363.34 200.765 362.945 200.705 362.701C200.435 362.204 200.224 361.953 199.786 361.441C195.706 358.127 191.854 355.072 187.966 351.627C189.014 349.99 189.955 348.569 191.21 347.528C195.823 343.702 200.541 340.001 205.22 336.253C205.562 335.402 205.904 334.55 206.246 333.699C199.988 328.939 193.729 324.179 188.392 320.119C186.545 325.254 184.166 331.863 181.456 338.533C180.344 338.927 179.565 339.262 178.494 339.63C177.742 339.978 177.281 340.293 176.424 340.626C160.047 345.437 143.773 345.697 127.383 343.633C120.848 342.81 114.356 341.65 107.608 340.369C104.517 339.289 101.662 338.482 98.6672 337.36C97.2953 336.583 96.0629 336.122 94.6797 335.351C93.2934 334.577 92.0579 334.115 90.6768 333.337C85.9723 326.868 84.5895 320.269 87.1901 312.848C88.7051 308.524 89.6799 304.012 91.1292 298.742C79.3643 305.239 68.676 311.142 56.9127 317.638C62.1159 324.098 67.0529 330.038 71.7645 336.153C74.3245 339.475 76.5012 343.093 78.6824 346.779C78.2523 347.216 77.9905 347.45 77.4946 347.879C77.1373 348.461 77.0141 348.847 76.8895 349.577C72.8359 358.974 67.9874 367.408 59.138 372.729ZM106.675 261.327C105.297 259.631 103.919 257.935 102.54 256.239C103.346 263.001 106.314 268.415 112.072 271.718C130.007 282.009 149.284 282.867 168.909 278.594C175.833 277.086 178.558 273.469 178.985 269.326C175.862 270.749 172.742 272.741 169.334 273.621C156.93 276.826 144.206 276.848 131.848 274.246C122.793 272.339 113.017 270.582 106.675 261.327Z" fill="#F4EEE3"/>
<path d="M216.444 455.59C216.713 455.742 216.841 455.972 216.531 456.637C216.063 457.534 215.891 458.075 215.35 458.633C212.545 459.68 209.99 460.494 207.695 461.775C188.485 472.497 167.418 476.746 145.904 478.466C129.523 479.776 113.143 477.98 96.9725 474.664C83.1126 471.822 69.5849 468.073 57.3457 460.776C54.3147 458.969 50.0101 457.584 51.2006 452.316C55.5976 439.071 59.6967 425.996 63.7592 412.909C63.8925 412.48 63.6514 411.934 63.5849 411.443C63.5849 411.443 63.5532 411.55 63.8722 411.425C65.7189 407.113 67.2464 402.926 69.111 398.573C70.3915 398.112 71.3275 397.791 72.2797 397.527C96.4552 390.828 103.373 368.277 94.8319 351.759C99.3635 353.37 103.362 355.468 107.618 356.507C114.933 358.292 122.37 360.285 129.826 360.615C140.968 361.108 152.193 360.577 163.339 359.832C171.721 359.272 178.764 355.005 185.138 350.026C185.175 351.142 185.18 351.882 185.226 352.968C189.926 364.81 194.586 376.307 199.246 387.802C204.058 406.18 208.871 424.557 213.415 443.592C214.246 448.031 215.345 451.811 216.444 455.59Z" fill="#2B8C89"/>
<path d="M19.0052 140.694C19.6208 136.942 20.2364 133.189 21.2811 128.966C22.3911 127.088 23.394 125.745 23.6957 124.26C24.8267 118.691 25.8733 113.096 26.6761 107.471C27.502 101.685 28.006 95.8527 28.6508 90.0406C28.6508 90.0406 28.557 90.1785 28.8345 89.9159C29.3751 88.6627 29.6383 87.6722 30.1587 86.418C32.0126 81.3531 33.6763 76.5727 35.182 71.7429C36.139 68.6728 36.8613 65.5296 37.6888 62.4191C37.6888 62.4191 37.7203 62.5594 38.0071 62.4942C39.4286 59.7623 40.5636 57.0956 41.6985 54.429C41.6985 54.429 41.735 54.5756 41.9796 54.471C42.4043 53.7441 42.5845 53.1218 42.7646 52.4995C42.7646 52.4995 42.7925 52.5936 43.0316 52.4939C43.3571 52.0082 43.4434 51.6221 43.5298 51.236C43.5298 51.236 43.5339 51.4619 43.7878 51.3833C44.2705 50.6903 44.499 50.0759 44.7275 49.4615C44.7275 49.4615 44.7576 49.5802 44.9895 49.4807C45.3359 48.9993 45.4506 48.6174 45.5652 48.2355C45.5652 48.2355 45.5192 48.4448 45.7634 48.4058C46.6083 47.7959 47.2087 47.225 47.7472 46.2998C47.5952 45.7231 47.5054 45.5008 47.4155 45.2784C47.4155 45.2784 47.5656 45.3898 47.7961 45.3525C48.1024 44.9499 48.1781 44.5847 48.2539 44.2194C48.2539 44.2194 48.2732 44.0467 48.6459 44.1628C49.8042 42.9249 50.59 41.571 51.3756 40.2171C51.3756 40.2171 51.7738 40.2195 51.9351 40.3225C56.3444 36.1699 60.5925 31.9143 64.8408 27.6588C65.3251 27.031 65.8092 26.4033 66.9227 25.6057C67.8434 24.6937 68.1346 23.9516 68.4259 23.2094C68.4259 23.2094 68.8623 23.383 69.0409 23.4371C71.4176 23.4419 73.1719 23.0144 72.0664 20.1501C72.0664 20.1501 72.233 19.9923 72.6899 20.1717C74.2567 19.3086 75.3665 18.2661 76.4763 17.2236C76.4763 17.2236 76.5924 17.3491 76.8206 17.3539C77.2775 17.0449 77.5063 16.7312 77.7352 16.4175C77.7352 16.4175 77.7484 16.539 78.0427 16.5612C78.7549 16.1173 79.1729 15.6513 79.5908 15.1853C79.5908 15.1853 79.6665 15.4003 79.8618 15.3872C80.2937 15.0753 80.5302 14.7765 80.7665 14.4776C80.7665 14.4776 80.767 14.5778 81.1174 14.602C84.8907 13.4447 88.2632 12.0801 91.7461 11.1153C103.07 7.97874 114.281 3.83627 125.83 2.303C135.227 1.05552 145.043 3.12632 154.682 3.49583C164.129 3.85793 173.057 6.3814 181.891 9.42849C186.876 11.1479 191.846 12.9111 196.823 14.6546C196.823 14.6546 196.839 14.6479 196.933 14.988C198.64 16.0985 200.253 16.8689 201.866 17.6393C206.47 20.3835 211.073 23.1278 215.652 26.4675C213.558 28.6832 211.489 30.3033 209.474 31.8809C189.724 17.9131 157.835 11.4531 133.881 15.6954C103.615 21.0556 78.5232 35.1849 61.4675 61.5505C48.6154 81.4184 43.9824 103.371 45.5673 127.045C35.209 131.058 30.8137 136.537 31.9498 147.137C32.6462 153.633 35.8579 159.859 37.908 166.7C36.8737 173.722 35.9634 180.267 34.8528 186.777C31.047 209.086 27.0792 231.367 23.3862 253.695C22.4623 259.28 22.3367 264.998 21.5098 270.64C20.7296 270.62 20.2837 270.614 19.5647 270.334C14.9327 269.493 10.5023 269.233 6.24438 268.237C4.0116 267.714 2.08118 265.901 0.0141602 264.67C0.960327 257.599 1.90649 250.527 3.30713 242.93C5.05188 233.951 6.34216 225.497 7.63257 217.044C7.60291 216.819 7.698 216.679 8.36279 216.536C8.81628 215.52 8.82483 214.59 8.84399 213.288C8.87854 212.168 8.90247 211.422 9.21765 210.493C9.80664 209.916 10.3091 209.552 10.3717 209.123C11.5315 201.17 12.55 193.196 13.791 185.256C14.5195 180.594 15.6678 176 16.4755 171.349C17.4154 165.938 18.2019 160.5 19.032 155.069C19.7643 150.279 21.6744 145.481 19.0052 140.694Z" fill="#3B3732"/>
<path d="M45.8118 126.818C43.9824 103.371 48.6154 81.4185 61.4675 61.5505C78.5232 35.1849 103.615 21.0556 133.881 15.6954C157.835 11.4532 189.724 17.9132 209.474 31.8809C211.489 30.3033 213.558 28.6832 215.818 26.7679C223.623 22.4259 232.076 23.1017 240.174 22.953C243.462 22.8927 248.282 25.5692 249.686 28.3653C250.87 30.7254 249.012 35.7849 246.911 38.3453C243.853 42.0712 239.369 44.6259 235.087 48.1069C234.396 48.9025 234.109 49.2711 233.513 49.7474C232.881 51.2941 231.776 53.3493 232.353 54.0821C246.754 72.3944 246.897 93.7213 245.558 115.373C245.506 116.216 244.869 117.023 244.607 117.616C243.354 109.797 242.601 101.843 240.754 94.1522C233.734 64.928 215.101 42.2848 184.342 36.7692C182.602 36.7213 181.258 36.7569 179.669 36.741C179.259 36.6668 179.093 36.644 178.662 36.3149C161.996 33.3611 146.122 35.2202 130.814 41.5892C130.853 41.596 130.796 41.5419 130.441 41.5449C128.651 42.224 127.215 42.9001 125.818 43.5818C125.856 43.5875 125.79 43.5469 125.437 43.5444C123.645 44.227 122.206 44.9121 120.8 45.6151C120.832 45.6331 120.818 45.5598 120.519 45.5973C119.735 45.9553 119.25 46.2757 118.797 46.6138C118.83 46.6314 118.817 46.5574 118.518 46.5933C117.734 46.9524 117.25 47.2755 116.797 47.6189C116.829 47.639 116.809 47.5659 116.549 47.645C116.117 48.0144 115.945 48.3048 115.81 48.6096C115.847 48.624 115.794 48.5642 115.481 48.5251C114.703 48.8481 114.237 49.2103 113.797 49.6105C113.822 49.6486 113.8 49.5602 113.494 49.5597C112.713 49.9028 112.237 50.2463 111.793 50.6141C111.826 50.6384 111.803 50.5601 111.544 50.6387C111.114 51.0102 110.943 51.3032 110.809 51.6124C110.845 51.6285 110.795 51.5665 110.487 51.5466C109.706 51.8788 109.234 52.231 108.792 52.6131C108.824 52.643 108.799 52.5601 108.537 52.6337C108.108 53.0035 107.94 53.2996 107.808 53.6124C107.845 53.6292 107.794 53.5667 107.487 53.5455C106.706 53.8773 106.233 54.2304 105.792 54.6133C105.823 54.6433 105.799 54.5604 105.539 54.6362C105.11 55.0069 104.94 55.3018 104.794 55.5756C104.818 55.5544 104.76 55.5297 104.523 55.5104C104.287 55.4911 103.847 55.6695 103.536 55.7947C99.0507 59.4803 94.3997 62.6161 90.7847 66.6745C74.9073 84.4992 62.1301 104.192 55.4395 127.525C51.9606 127.265 48.8862 127.041 45.8118 126.818Z" fill="#8A5487"/>
<path d="M102.895 525.83C102.895 525.83 102.915 526.245 102.575 526.678C100.12 540.011 98.0034 552.911 95.8872 565.812C95.8872 565.812 95.8857 566.267 95.5438 566.72C95.0812 568.361 94.9604 569.549 94.7313 570.986C94.3655 571.708 94.1082 572.182 93.5819 572.851C81.5173 585.3 68.3625 594.27 50.1287 592.801C41.1074 592.074 38.9126 591.057 35.8898 582.235C35.8202 581.398 35.7761 580.92 35.7319 580.441C39.5176 575.929 43.3032 571.416 47.7477 566.731C49.1886 564.876 49.9707 563.192 50.7528 561.509C50.7528 561.509 50.7794 561.596 51.0829 561.486C52.0337 560.44 53.0638 559.582 53.27 558.559C55.8784 545.607 58.3683 532.632 61.1648 519.393C62.0911 515.763 62.7407 512.403 63.2511 509.764C76.9213 511.749 90.37 513.701 103.824 516.085C103.85 517.954 103.87 519.392 103.89 520.83C103.89 520.83 103.917 521.251 103.573 521.688C103.118 523.36 103.007 524.595 102.895 525.83Z" fill="#AA5B2A"/>
<path d="M192.439 559.588C194.634 568.463 201.805 572.958 208.821 578.384C209.465 579.039 209.804 579.17 210.144 579.302C210.144 579.302 210.091 579.489 210.083 579.789C211.036 585.659 208.224 588.541 201.241 588.662C181.836 589.001 164.352 583.304 148.723 571.367C148.351 570.616 148.09 570.122 147.82 569.201C146.831 549.07 145.852 529.366 145.153 509.923C145.747 513.073 147.378 513.976 150.179 513.677C160.185 512.609 170.189 511.45 180.224 510.771C184.098 510.509 184.883 508.876 184.954 505.477C184.995 503.521 186.192 501.59 186.868 499.647C186.862 503.018 186.856 506.388 186.598 510.422C186.856 520.807 187.133 530.55 187.976 540.244C188.397 545.091 189.85 549.848 190.837 554.645C190.837 554.645 190.922 555.047 190.881 555.668C191.373 557.388 191.906 558.488 192.439 559.588Z" fill="#AA5B2A"/>
<path d="M50.897 452.485C50.01 457.584 54.3146 458.969 57.3456 460.776C69.5847 468.073 83.1124 471.822 96.9724 474.664C113.143 477.98 129.523 479.776 145.904 478.466C167.418 476.746 188.485 472.498 207.695 461.775C209.99 460.494 212.545 459.68 215.393 459.041C216.202 464.24 216.596 469.048 216.99 473.855C216.99 473.855 216.946 473.744 216.723 473.817C216.309 474.212 216.117 474.534 215.926 474.856C215.926 474.856 215.903 474.718 215.701 474.802C215.295 475.188 215.092 475.492 214.889 475.795C214.889 475.795 214.891 475.705 214.594 475.712C213.871 476.152 213.445 476.586 213.018 477.02C213.018 477.02 212.987 476.873 212.701 476.825C212.002 477.229 211.589 477.681 211.176 478.132C211.176 478.132 210.993 478.036 210.73 477.995C210.203 478.284 209.94 478.614 209.677 478.944C202.194 481.948 194.711 484.951 186.559 488.227C171.426 490.542 156.961 492.584 142.496 494.627C142.146 494.534 141.795 494.442 141.417 494.031C141.477 493.376 141.564 493.039 141.651 492.701C141.492 492.675 141.333 492.63 141.173 492.625C131.281 492.319 121.389 491.991 111.494 491.78C110.936 491.769 110.356 492.731 109.786 493.24C109.786 493.24 109.636 493.557 109.246 493.519C108.594 493.326 108.31 493.254 107.64 493.127C93.8184 489.553 80.3616 486.118 66.6578 482.578C66.2336 482.452 66.0564 482.431 65.8793 482.41C65.2679 482.084 64.6566 481.757 63.7781 480.874C62.864 480.223 62.2173 480.127 61.5706 480.032C61.5706 480.032 61.7726 480 61.6106 479.676C60.5178 479.163 59.5869 478.973 58.6561 478.782C58.6561 478.782 58.7728 478.759 58.6788 478.461C56.6107 477.368 54.6365 476.574 52.6624 475.78C52.6624 475.78 52.7642 475.746 52.6694 475.517C52.2148 475.19 51.8551 475.093 51.4954 474.995C51.4954 474.995 51.6055 475.061 51.5439 474.74C50.8784 474.2 50.2743 473.981 49.6703 473.763C49.6703 473.763 49.7678 473.729 49.6917 473.509C49.3092 473.092 49.0029 472.896 48.6968 472.7C48.6968 472.7 48.782 472.701 48.8058 472.277C48.8717 467.127 48.9138 462.402 48.9559 457.676C49.4167 455.821 49.8776 453.966 50.6039 452.058C50.8694 452.005 50.897 452.485 50.897 452.485Z" fill="#298381"/>
<path d="M250.673 201.599C250.723 206.987 250.773 212.374 250.38 218.314C249.278 222.513 248.192 226.14 248.034 229.806C247.493 242.419 247.277 255.045 246.909 268.13C246.578 274.347 246.276 280.099 245.973 285.852C245.973 285.852 245.945 285.723 245.719 285.809C245.318 286.239 245.141 286.584 244.965 286.929C244.965 286.929 244.942 286.75 244.738 286.815C244.324 287.189 244.112 287.498 243.901 287.806C243.901 287.806 243.903 287.706 243.521 287.697C238.353 287.608 233.567 287.528 228.653 287.308C228.275 287.383 228.023 287.597 227.772 287.811C227.358 287.77 226.944 287.729 226.215 287.439C225.889 286.988 225.879 286.786 225.86 286.131C226.181 275.924 226.515 266.171 226.834 256.418C226.888 254.759 226.827 253.096 226.9 251.439C227.586 235.863 228.29 220.289 229.107 204.386C231.464 196.958 233.702 189.859 236.248 182.591C244.258 180.361 246.683 173.528 250.379 167.634C251.038 168.274 251.64 168.822 251.61 169.333C251.079 178.353 250.413 187.365 249.931 196.387C249.839 198.106 250.409 199.861 250.673 201.599Z" fill="#3B3631"/>
<path d="M148.834 571.623C164.352 583.304 181.836 589.001 201.24 588.662C208.223 588.541 211.035 585.659 210.139 579.71C215.77 584.582 221.921 589.357 226.733 595.229C231.14 600.605 229.454 604.681 222.795 606.998C210.825 611.162 198.511 610.438 186.309 608.399C179.457 607.254 172.768 605.133 165.94 603.035C162.808 601.338 159.744 600.058 156.679 598.778C156.679 598.778 156.771 598.752 156.682 598.526C156.261 598.149 155.93 597.999 155.599 597.848C155.599 597.848 155.731 597.847 155.648 597.596C155.235 597.194 154.906 597.043 154.576 596.892C154.576 596.892 154.655 596.979 154.565 596.665C153.871 596.163 153.268 595.976 152.664 595.788C152.664 595.788 152.738 595.729 152.668 595.507C152.289 595.095 151.98 594.907 151.671 594.718C151.671 594.718 151.76 594.725 151.762 594.429C151.351 593.701 150.937 593.268 150.524 592.836C150.524 592.836 150.634 592.64 150.677 592.409C150.312 591.735 149.903 591.291 149.495 590.847C149.495 590.847 149.533 590.765 149.657 590.357C149.621 588.813 149.364 587.682 149.319 586.543C149.124 581.571 148.99 576.596 148.834 571.623Z" fill="#E97351"/>
<path d="M94.4148 351.768C103.373 368.277 96.4552 390.828 72.2797 397.527C71.3276 397.791 70.3915 398.112 68.8974 398.561C68.0649 398.767 67.792 398.849 67.5284 398.962C64.4642 398.617 61.3739 398.423 58.341 397.898C51.6095 396.732 48.7555 389.89 52.8166 384.381C54.763 381.741 57.2839 379.523 59.4936 377.169C59.2416 375.889 58.9847 374.584 58.9328 373.004C67.9874 367.408 72.8359 358.974 77.144 349.394C77.5096 348.474 77.6192 348.079 77.7289 347.683C77.9905 347.45 78.2522 347.216 79.1183 346.784C82.7758 346.917 85.8287 347.247 89.1117 347.744C89.842 348.165 90.342 348.419 91.0744 348.836C91.7884 349.3 92.2698 349.6 92.8595 350.135C93.45 350.835 93.9324 351.302 94.4148 351.768Z" fill="#A55729"/>
<path d="M66.9052 482.682C80.3618 486.118 93.8186 489.553 107.577 493.594C107.884 495.744 107.89 497.289 107.896 498.834C107.896 498.834 107.912 499.249 107.574 499.689C107.123 501.364 107.01 502.599 106.897 503.833C106.897 503.833 106.909 504.248 106.573 504.688C105.799 508.346 105.36 511.565 104.921 514.783C104.921 514.783 104.912 514.69 104.707 514.782C104.274 515.134 104.046 515.394 103.819 515.654C90.3701 513.701 76.9214 511.749 63.2512 509.764C62.7408 512.403 62.0912 515.763 60.939 519.389C60.4365 519.654 59.9858 519.661 59.9858 519.661C60.5834 515.915 61.181 512.169 62.23 507.965C63.0979 506.535 63.5146 505.563 64.0811 504.517C64.2307 504.444 64.3224 504.015 64.3224 504.015C64.3224 504.015 63.9502 503.718 64.0706 503.332C65.0956 496.192 66.0004 489.437 66.9052 482.682Z" fill="#A05324"/>
<path d="M142.507 495.077C156.962 492.584 171.427 490.542 186.308 488.498C186.822 491.91 186.92 495.324 186.943 499.193C186.192 501.59 184.995 503.521 184.954 505.477C184.883 508.876 184.098 510.509 180.224 510.771C170.189 511.45 160.185 512.609 150.179 513.677C147.379 513.976 145.747 513.073 145.14 509.531C144.224 506.814 143.601 504.75 142.977 502.686C142.824 500.3 142.671 497.914 142.507 495.077Z" fill="#A05324"/>
<path d="M199.51 387.685C194.586 376.306 189.926 364.81 185.522 352.95C186.52 352.396 187.261 352.207 188.002 352.018C191.854 355.072 195.706 358.127 199.81 361.699C200.297 362.46 200.531 362.703 200.765 362.945C200.765 362.945 200.744 363.34 200.822 363.857C201.49 365.533 202.082 366.691 202.673 367.85C202.673 367.85 202.622 367.715 202.558 367.995C202.494 368.275 202.644 368.726 202.644 368.726C202.644 368.726 202.576 368.938 202.425 369.17C202.446 369.852 202.617 370.302 202.787 370.752C202.787 370.752 202.805 370.672 202.843 371.078C202.945 374.86 203.009 378.236 203.073 381.612C202.915 382.319 202.758 383.025 202.506 384.082C201.533 385.478 200.653 386.523 199.51 387.685Z" fill="#A45729"/>
<path d="M196.743 14.3135C191.847 12.9112 186.877 11.1479 181.892 9.42853C173.057 6.38145 164.129 3.85798 154.682 3.49587C145.043 3.12636 135.227 1.05556 125.831 2.30305C114.281 3.83631 103.07 7.97878 91.7463 11.1154C88.2634 12.0801 84.891 13.4447 81.0698 14.5868C93.152 6.45237 107.124 2.44306 121.659 0.894201C145.602 -1.65721 168.978 1.14368 191.297 10.6854C193.205 11.5011 194.88 12.8638 196.743 14.3135Z" fill="#1B1816"/>
<path d="M250.759 201.171C250.409 199.861 249.839 198.106 249.931 196.387C250.413 187.365 251.079 178.353 251.61 169.333C251.64 168.822 251.038 168.274 250.417 167.245C250.335 163.733 250.567 160.72 251.099 157.418C251.909 147.627 251.972 138.075 253.032 128.635C254.804 112.847 253.701 97.3588 249.896 81.9995C248.877 77.8852 247.846 73.7738 246.86 69.6266C246.899 69.5922 246.976 69.5217 246.976 69.5217C252.223 79.8907 254.587 91.1887 254.618 102.507C254.682 125.447 253.628 148.395 252.802 171.331C252.449 181.146 251.514 190.94 250.759 201.171Z" fill="#151310"/>
<path d="M18.9241 141.106C21.6747 145.481 19.7645 150.279 19.0322 155.069C18.2021 160.5 17.4156 165.938 16.4757 171.349C15.6681 176 14.5198 180.594 13.7913 185.256C12.5503 193.196 11.5317 201.17 10.3719 209.123C10.3093 209.552 9.80688 209.916 8.98291 210.483C8.45654 210.656 7.98779 210.652 7.98779 210.652C9.4331 201.753 10.9216 192.861 12.3137 183.954C14.5238 169.814 16.6696 155.664 18.9241 141.106Z" fill="#1B1816"/>
<path d="M142.905 503.147C143.601 504.75 144.224 506.814 144.861 509.27C145.852 529.366 146.831 549.07 147.524 569.187C146.841 569.583 146.446 569.566 146.05 569.55C144.977 547.569 143.905 525.588 142.905 503.147Z" fill="#933C12"/>
<path d="M246.937 267.666C247.277 255.045 247.493 242.419 248.034 229.806C248.192 226.14 249.278 222.513 250.302 218.772C250.056 234.175 249.455 249.673 248.807 265.169C248.783 265.75 248.31 266.314 247.677 267.27C247.309 267.655 246.937 267.666 246.937 267.666Z" fill="#1B1816"/>
<path d="M28.2866 90.2233C28.0062 95.8527 27.5022 101.685 26.6764 107.471C25.8735 113.096 24.8269 118.691 23.6959 124.26C23.3943 125.745 22.3914 127.088 21.3579 128.557C23.311 115.882 25.6166 103.144 28.2866 90.2233Z" fill="#1B1816"/>
<path d="M73.9327 609.746C62.9063 614.915 51.2093 615.414 39.4324 614.118C34.9109 613.621 30.5503 611.661 25.943 610.041C25.7695 609.716 25.8561 609.626 26.2508 609.634C36.343 612.522 46.1175 614.538 56.3101 612.647C62.1345 611.567 67.9842 610.624 73.8493 609.652C73.8759 609.684 73.9327 609.746 73.9327 609.746Z" fill="#DD6340"/>
<path d="M59.8894 520.058C59.9856 519.661 60.4363 519.654 60.6622 519.659C58.3682 532.632 55.8783 545.607 53.2699 558.559C53.0637 559.582 52.0336 560.441 51.0371 561.487C53.4031 549.138 56.1145 536.677 58.8394 524.218C59.1157 522.955 59.4733 521.709 59.8894 520.058Z" fill="#8F461D"/>
<path d="M190.985 554.336C189.85 549.848 188.397 545.091 187.976 540.244C187.133 530.55 186.856 520.807 186.642 510.841C187.599 517.911 188.224 525.228 188.93 532.538C189.622 539.705 190.396 546.864 190.985 554.336Z" fill="#933C12"/>
<path d="M51.2002 452.316C50.8967 452.485 50.8691 452.005 50.8237 451.769C54.8452 438.29 58.9121 425.046 63.2817 411.623C63.651 411.934 63.8921 412.48 63.7588 412.909C59.6963 425.996 55.5972 439.071 51.2002 452.316Z" fill="#176F6E"/>
<path d="M96.2197 565.591C98.0033 552.911 100.12 540.011 102.534 526.882C101.391 535.843 99.97 545.037 98.5007 554.223C97.9052 557.947 97.2051 561.655 96.2197 565.591Z" fill="#933C12"/>
<path d="M19.8379 270.608C20.2838 270.614 20.7297 270.62 21.8718 270.697C25.6552 272.058 28.7423 273.349 31.927 274.844C32.2076 275.307 32.4534 275.471 33.0321 275.57C33.4829 275.617 33.6636 275.633 34.0979 275.929C37.9836 276.522 41.6157 276.835 45.2477 277.148C44.2617 277.894 43.2759 278.64 42.08 279.616C34.7371 277.195 27.604 274.545 20.1549 271.483C19.8386 271.07 19.8379 270.608 19.8379 270.608Z" fill="#1B1816"/>
<path d="M110.134 493.261C110.356 492.731 110.936 491.769 111.494 491.78C121.389 491.991 131.281 492.319 141.173 492.625C141.333 492.63 141.492 492.675 141.651 492.701C141.564 493.038 141.477 493.376 141.18 493.895C138.554 494.218 136.138 494.36 133.182 494.299C132.377 494.194 132.113 494.292 131.849 494.39C125.803 494.143 119.758 493.896 113.182 493.433C112.329 492.99 112.066 493.057 111.86 493.418C111.401 493.373 110.941 493.328 110.134 493.261Z" fill="#176F6E"/>
<path d="M19.5649 270.334C19.838 270.608 19.8387 271.07 19.8416 271.3C12.4465 273.902 3.60327 271.159 0 265.02C2.08142 265.901 4.01184 267.714 6.24463 268.237C10.5026 269.233 14.933 269.493 19.5649 270.334Z" fill="#24201E"/>
<path d="M93.8505 572.656C94.1079 572.182 94.3652 571.708 94.9642 570.956C95.3057 570.677 95.7645 570.577 95.7645 570.577C95.068 580.152 94.0847 589.663 89.2452 598.555C88.9144 598.721 88.8217 598.636 88.8258 598.25C90.5034 589.462 92.1769 581.059 93.8505 572.656Z" fill="#DD6340"/>
<path d="M63.931 504.591C63.5144 505.563 63.0977 506.535 62.3452 507.568C63.2582 499.502 64.507 491.376 65.8174 482.83C66.0564 482.431 66.2336 482.452 66.6578 482.578C66.0001 489.437 65.0953 496.192 64.052 503.55C63.9135 504.153 63.931 504.591 63.931 504.591Z" fill="#933C12"/>
<path d="M64.512 27.7668C60.5928 31.9143 56.3446 36.1699 51.7363 40.3065C55.6453 36.0833 59.9142 31.9791 64.512 27.7668Z" fill="#1B1816"/>
<path d="M37.4 62.6373C36.8615 65.5295 36.1392 68.6728 35.1821 71.7429C33.6764 76.5726 32.0127 81.3531 29.9254 86.4072C29.4352 86.6601 28.9697 86.6449 28.9697 86.6449C31.6835 78.7151 34.3973 70.7854 37.4 62.6373Z" fill="#151310"/>
<path d="M7.26355 217.252C6.34216 225.497 5.05188 233.951 3.39795 242.507C4.32092 234.227 5.60779 225.844 7.26355 217.252Z" fill="#151310"/>
<path d="M145.97 569.994C146.445 569.566 146.841 569.583 147.533 569.614C148.09 570.122 148.351 570.616 148.723 571.366C148.991 576.596 149.124 581.571 149.319 586.543C149.364 587.682 149.621 588.813 149.698 590.376C148.373 584.016 147.131 577.227 145.97 569.994Z" fill="#DD6340"/>
<path d="M217.289 473.697C216.596 469.048 216.202 464.24 215.763 459.024C215.891 458.075 216.062 457.534 216.476 456.836C217.467 460.674 218.421 464.646 218.864 468.675C219.035 470.231 218.048 471.914 217.289 473.697Z" fill="#176F6E"/>
<path d="M48.8648 458.064C48.9138 462.402 48.8717 467.127 48.7932 472.318C44.8743 468.001 48.4683 463.228 48.8648 458.064Z" fill="#176F6E"/>
<path d="M246.909 268.13C246.937 267.666 247.309 267.655 247.495 267.653C247.335 273.582 246.989 279.512 246.308 285.647C246.275 280.099 246.578 274.347 246.909 268.13Z" fill="#151310"/>
<path d="M67.4177 399.336C67.7919 398.849 68.0647 398.767 68.5602 398.727C67.2462 402.926 65.7188 407.113 63.832 411.386C64.751 407.551 66.0292 403.63 67.4177 399.336Z" fill="#176F6E"/>
<path d="M228.78 287.447C233.567 287.528 238.353 287.608 243.569 287.711C239.423 290.967 234.559 290.137 229.239 288.363C228.808 287.799 228.794 287.623 228.78 287.447Z" fill="#151310"/>
<path d="M216.341 455.177C215.345 451.811 214.246 448.031 213.405 443.983C214.522 447.397 215.38 451.081 216.341 455.177Z" fill="#176F6E"/>
<path d="M156.864 599.07C159.744 600.058 162.808 601.338 165.639 602.807C162.62 601.784 159.834 600.573 156.864 599.07Z" fill="#DD6340"/>
<path d="M225.869 286.585C225.879 286.786 225.889 286.988 225.906 287.492C222.844 288.276 219.774 288.757 216.316 289.292C215.569 288.961 215.21 288.578 215.195 287.914C218.982 287.284 222.425 286.934 225.869 286.585Z" fill="#151310"/>
<path d="M41.4092 54.624C40.5641 57.0956 39.4291 59.7623 37.936 62.4868C38.7583 59.9694 39.9388 57.3943 41.4092 54.624Z" fill="#151310"/>
<path d="M105.268 514.581C105.36 511.564 105.799 508.346 106.532 504.891C106.422 507.896 106.018 511.138 105.268 514.581Z" fill="#933C12"/>
<path d="M22.2874 607.16C22.27 604.458 22.2526 601.757 22.5208 598.835C22.8065 598.616 22.8699 598.668 22.8618 599.111C22.8566 601.912 22.8598 604.272 22.7161 606.76C22.5692 606.889 22.2874 607.16 22.2874 607.16Z" fill="#DD6340"/>
<path d="M52.8501 476.071C54.6366 476.574 56.6108 477.368 58.6708 478.52C56.8502 478.038 54.944 477.2 52.8501 476.071Z" fill="#176F6E"/>
<path d="M76.182 17.3297C75.3667 18.2661 74.257 19.3086 72.7915 20.1177C73.5864 19.0681 74.7369 18.252 76.182 17.3297Z" fill="#1B1816"/>
<path d="M71.8218 20.3179C73.1719 23.0143 71.4176 23.4418 68.8179 23.364C69.47 22.3199 70.5236 21.4028 71.8218 20.3179Z" fill="#1B1816"/>
<path d="M201.727 17.3337C200.253 16.8689 198.64 16.0985 196.93 14.9966C198.419 15.4527 200.003 16.2404 201.727 17.3337Z" fill="#1B1816"/>
<path d="M51.1379 40.4081C50.5901 41.571 49.8043 42.9249 48.6753 44.0809C49.188 42.7884 50.0441 41.6938 51.1379 40.4081Z" fill="#1B1816"/>
<path d="M103.824 516.085C104.046 515.393 104.274 515.133 104.752 514.79C104.825 516.629 104.646 518.552 104.178 520.652C103.87 519.392 103.849 517.954 103.824 516.085Z" fill="#933C12"/>
<path d="M50.4968 561.723C49.9706 563.192 49.1885 564.876 48.0386 566.573C48.5276 565.037 49.3843 563.487 50.4968 561.723Z" fill="#8F461D"/>
<path d="M7.89697 211.029C7.98804 210.652 8.45679 210.656 8.69189 210.666C8.90295 211.422 8.87903 212.168 8.79395 213.801C8.54517 215.349 8.3573 216.009 8.16943 216.669C8.04834 214.914 7.92712 213.16 7.89697 211.029Z" fill="#151310"/>
<path d="M108.2 498.648C107.889 497.289 107.883 495.744 107.942 493.732C108.31 493.254 108.594 493.326 109.071 493.535C109.025 495.214 108.765 496.838 108.2 498.648Z" fill="#933C12"/>
<path d="M95.841 570.307C95.7649 570.577 95.306 570.677 95.073 570.707C94.9605 569.549 95.0813 568.361 95.4648 566.934C95.7909 567.808 95.8541 568.922 95.841 570.307Z" fill="#933C12"/>
<path d="M244.939 65.5513C245.604 66.6483 246.269 67.7452 246.955 69.1819C246.976 69.5217 246.899 69.5922 246.544 69.4905C245.732 68.1465 245.274 66.9043 244.848 65.6355C244.88 65.6089 244.939 65.5513 244.939 65.5513Z" fill="#151310"/>
<path d="M240.981 57.5142C241.663 58.5747 242.345 59.6352 243.016 61.0921C243.004 61.4886 242.848 61.6421 242.531 61.5073C241.751 60.1344 241.288 58.8964 240.864 57.623C240.904 57.5876 240.981 57.5142 240.981 57.5142Z" fill="#151310"/>
<path d="M24.7905 594.609C25.2759 593.708 25.7612 592.806 26.5366 591.769C26.8267 591.634 26.875 591.674 26.8662 592.025C26.1974 593.147 25.5376 593.916 24.8563 594.666C24.8348 594.647 24.7905 594.609 24.7905 594.609Z" fill="#DD6340"/>
<path d="M237.992 52.5051C238.598 53.3293 239.204 54.1534 239.828 55.3096C239.848 55.6415 239.81 55.6779 239.465 55.6384C238.688 54.6188 238.256 53.6387 237.866 52.6209C237.909 52.5831 237.992 52.5051 237.992 52.5051Z" fill="#151310"/>
<path d="M192.34 559.214C191.906 558.488 191.373 557.388 190.866 555.872C191.342 556.584 191.791 557.712 192.34 559.214Z" fill="#933C12"/>
<path d="M103.228 525.634C103.006 524.595 103.118 523.36 103.52 521.892C103.728 522.919 103.645 524.179 103.228 525.634Z" fill="#933C12"/>
<path d="M68.1392 23.3469C68.135 23.9515 67.8437 24.6936 67.2253 25.5479C67.2163 24.9349 67.5342 24.2097 68.1392 23.3469Z" fill="#1B1816"/>
<path d="M107.232 503.638C107.01 502.598 107.123 501.364 107.523 499.891C107.729 500.916 107.648 502.179 107.232 503.638Z" fill="#933C12"/>
<path d="M88.9604 598.764C88.4745 599.665 87.9425 600.524 87.1236 601.515C86.8367 601.649 86.8013 601.621 86.8345 601.3C87.519 600.198 88.1703 599.417 88.8216 598.636C88.8216 598.636 88.9144 598.721 88.9604 598.764Z" fill="#DD6340"/>
<path d="M80.1932 607.097C79.3047 607.625 78.4161 608.152 77.1927 608.675C76.858 608.67 76.8144 608.612 76.9541 608.322C78.0089 607.572 78.924 607.111 79.9297 606.761C80.0201 606.871 80.1932 607.097 80.1932 607.097Z" fill="#DD6340"/>
<path d="M47.8097 46.6542C47.2091 47.225 46.6086 47.7959 45.6793 48.3401C45.608 47.8054 45.8656 47.2974 46.6767 46.7037C47.4234 46.63 47.6165 46.6421 47.8097 46.6542Z" fill="#151310"/>
<path d="M76.8802 608.698C76.133 609.056 75.3636 609.385 74.2633 609.73C73.9324 609.746 73.8756 609.684 74.0504 609.387C75.0884 608.931 75.9514 608.771 76.8144 608.612C76.8144 608.612 76.858 608.67 76.8802 608.698Z" fill="#DD6340"/>
<path d="M233.823 49.6396C234.109 49.271 234.396 48.9024 234.79 48.3855C235.203 48.4747 235.509 48.7123 235.856 49.2703C235.897 49.5908 235.826 49.6668 235.492 49.6791C234.713 49.6742 234.268 49.6569 233.823 49.6396Z" fill="#151310"/>
<path d="M58.8525 479.055C59.5869 478.972 60.5178 479.163 61.5203 479.724C60.7443 479.839 59.8965 479.583 58.8525 479.055Z" fill="#176F6E"/>
<path d="M24.4448 609.029C23.8296 608.571 23.2142 608.113 22.4433 607.408C22.2877 607.16 22.5694 606.889 22.9844 606.877C23.8794 607.459 24.3595 608.054 24.7411 608.744C24.6427 608.839 24.4448 609.029 24.4448 609.029Z" fill="#DD6340"/>
<path d="M8.19971 216.665C8.35693 216.009 8.5448 215.349 8.78308 214.175C8.82495 214.59 8.81641 215.52 8.49622 216.574C8.18457 216.699 8.23035 216.662 8.19971 216.665Z" fill="#1B1816"/>
<path d="M28.8404 87.0977C28.9699 86.6448 29.4353 86.66 29.6686 86.6708C29.6386 87.6721 29.3754 88.6626 28.7675 89.8666C28.5188 89.2369 28.6148 88.3937 28.8404 87.0977Z" fill="#1B1816"/>
<path d="M35.4615 580.573C35.7761 580.919 35.8202 581.398 35.5499 582.258C34.7837 582.657 34.3318 582.674 33.8583 582.67C33.8368 582.649 33.792 582.608 33.792 582.608C34.2584 581.974 34.7249 581.339 35.4615 580.573Z" fill="#DD6340"/>
<path d="M236.852 50.635C237.202 51.0694 237.552 51.5038 237.947 52.2217C237.992 52.5052 237.909 52.5832 237.604 52.481C237.134 51.8121 236.969 51.2455 236.817 50.6684C236.829 50.6579 236.852 50.635 236.852 50.635Z" fill="#151310"/>
<path d="M44.4635 49.613C44.4991 50.0759 44.2706 50.6903 43.6856 51.3358C43.6192 50.8327 43.9093 50.2987 44.4635 49.613Z" fill="#151310"/>
<path d="M22.7764 598.588C22.9158 598.005 23.0854 597.45 23.5261 596.751C23.7974 596.606 23.8673 596.667 23.8405 596.965C23.499 597.731 23.1846 598.2 22.8701 598.668C22.8701 598.668 22.8066 598.616 22.7764 598.588Z" fill="#DD6340"/>
<path d="M79.3 15.2882C79.1731 15.6513 78.7551 16.1173 77.9839 16.5454C78.09 16.1355 78.5494 15.7633 79.3 15.2882Z" fill="#1B1816"/>
<path d="M32.3457 584.166C32.6626 583.724 32.9795 583.281 33.5441 582.724C33.7917 582.609 33.8365 582.649 33.83 582.965C33.4969 583.739 33.1705 584.196 32.7213 584.529C32.5984 584.406 32.3457 584.166 32.3457 584.166Z" fill="#DD6340"/>
<path d="M28.5273 589.319C28.7853 588.834 29.0433 588.348 29.5669 587.751C29.8325 587.64 29.8762 587.676 29.848 587.973C29.4929 588.73 29.1663 589.189 28.7605 589.566C28.6815 589.485 28.5273 589.319 28.5273 589.319Z" fill="#DD6340"/>
<path d="M149.485 591.161C149.904 591.291 150.312 591.735 150.643 592.516C150.202 592.394 149.838 591.935 149.485 591.161Z" fill="#DD6340"/>
<path d="M150.527 593.146C150.937 593.268 151.351 593.701 151.742 594.469C151.323 594.355 150.927 593.905 150.527 593.146Z" fill="#DD6340"/>
<path d="M23.7637 596.575C23.9338 596.019 24.1378 595.495 24.566 594.79C24.7903 594.609 24.8346 594.647 24.8225 594.961C24.4961 595.74 24.1818 596.203 23.8673 596.667C23.8673 596.667 23.7974 596.606 23.7637 596.575Z" fill="#DD6340"/>
<path d="M61.7505 480.286C62.2173 480.127 62.864 480.223 63.636 480.647C63.151 480.831 62.5408 480.686 61.7505 480.286Z" fill="#176F6E"/>
<path d="M49.8091 474.027C50.274 473.981 50.8782 474.2 51.4868 474.769C50.9771 474.844 50.4626 474.567 49.8091 474.027Z" fill="#176F6E"/>
<path d="M152.798 596.078C153.268 595.976 153.872 596.163 154.512 596.69C154.01 596.809 153.471 596.589 152.798 596.078Z" fill="#DD6340"/>
<path d="M213.318 476.95C213.445 476.586 213.871 476.152 214.637 475.725C214.524 476.114 214.071 476.497 213.318 476.95Z" fill="#176F6E"/>
<path d="M211.467 478.061C211.589 477.681 212.002 477.229 212.771 476.852C212.671 477.281 212.215 477.636 211.467 478.061Z" fill="#176F6E"/>
<path d="M82.0333 605.84C81.6003 606.194 81.1673 606.548 80.4639 606.999C80.1937 607.097 80.0206 606.871 80.087 606.506C80.712 605.973 81.2704 605.804 81.8799 605.686C81.9308 605.738 82.0333 605.84 82.0333 605.84Z" fill="#DD6340"/>
<path d="M84.8543 603.662C84.4822 604.049 84.1101 604.437 83.3851 604.831C83.0319 604.837 82.8396 604.648 82.9934 604.395C83.7019 603.963 84.2565 603.786 84.8212 603.622C84.8313 603.636 84.8543 603.662 84.8543 603.662Z" fill="#DD6340"/>
<path d="M239.867 55.6241C240.222 56.0493 240.557 56.4918 240.937 57.2243C240.981 57.5141 240.904 57.5876 240.598 57.4864C240.131 56.8161 239.97 56.247 239.81 55.678C239.81 55.678 239.848 55.6416 239.867 55.6241Z" fill="#151310"/>
<path d="M243.083 61.4128C243.47 61.7999 243.777 62.2627 244.059 63.0934C244.033 63.4614 243.849 63.6418 243.58 63.4993C243.157 62.7851 243.003 62.2136 242.848 61.6421C242.848 61.6421 243.004 61.4886 243.083 61.4128Z" fill="#151310"/>
<path d="M244.128 63.3743C244.44 63.8353 244.657 64.3835 244.906 65.2415C244.939 65.5513 244.88 65.6089 244.584 65.4864C244.142 64.7898 243.996 64.2159 243.849 63.6418C243.849 63.6418 244.033 63.4614 244.128 63.3743Z" fill="#151310"/>
<path d="M228.653 287.308C228.794 287.623 228.808 287.799 228.841 288.238C228.56 288.427 228.261 288.352 227.867 288.044C228.023 287.597 228.274 287.383 228.653 287.308Z" fill="#2E2D2A"/>
<path d="M42.5116 52.6779C42.5849 53.1218 42.4047 53.744 41.9044 54.4695C41.8089 54.0004 42.0335 53.4283 42.5116 52.6779Z" fill="#151310"/>
<path d="M80.494 14.5537C80.5304 14.7765 80.2939 15.0753 79.7484 15.3804C79.6999 15.1344 79.9607 14.8821 80.494 14.5537Z" fill="#1B1816"/>
<path d="M132.094 494.464C132.113 494.292 132.377 494.194 132.734 494.236C132.664 494.43 132.502 494.484 132.094 494.464Z" fill="#298381"/>
<path d="M77.4666 16.5085C77.5064 16.7312 77.2776 17.0449 76.7357 17.3642C76.6811 17.1131 76.9394 16.8564 77.4666 16.5085Z" fill="#1B1816"/>
<path d="M25.7253 609.76C25.3654 609.686 25.0498 609.569 24.5896 609.24C24.4449 609.029 24.6428 608.839 24.9697 608.838C25.5894 609.024 25.776 609.287 25.8562 609.626C25.8562 609.626 25.7695 609.716 25.7253 609.76Z" fill="#DD6340"/>
<path d="M151.752 594.987C151.98 594.907 152.29 595.095 152.683 595.552C152.455 595.632 152.144 595.444 151.752 594.987Z" fill="#DD6340"/>
<path d="M85.894 602.696C85.7101 602.971 85.526 603.246 85.098 603.592C84.8541 603.662 84.8312 603.636 84.9347 603.408C85.2402 602.916 85.4995 602.73 85.8352 602.643C85.8544 602.662 85.894 602.696 85.894 602.696Z" fill="#DD6340"/>
<path d="M155.638 598.14C155.93 597.999 156.261 598.149 156.676 598.573C156.398 598.709 156.037 598.57 155.638 598.14Z" fill="#DD6340"/>
<path d="M86.8532 601.664C86.705 601.965 86.5405 602.25 86.1351 602.615C85.8941 602.696 85.8544 602.662 85.942 602.425C86.2252 601.916 86.4826 601.726 86.8015 601.621C86.8015 601.621 86.8369 601.648 86.8532 601.664Z" fill="#DD6340"/>
<path d="M154.544 597.202C154.906 597.043 155.235 597.194 155.595 597.636C155.255 597.789 154.884 597.651 154.544 597.202Z" fill="#DD6340"/>
<path d="M31.5249 585.321C31.5806 584.989 31.724 584.701 32.1505 584.312C32.3457 584.166 32.5984 584.406 32.6215 584.756C32.4471 585.392 32.1787 585.573 31.7599 585.567C31.6805 585.486 31.5249 585.321 31.5249 585.321Z" fill="#DD6340"/>
<path d="M83.1279 604.931C82.9901 605.256 82.7558 605.486 82.277 605.778C82.0327 605.84 81.9302 605.738 81.9792 605.46C82.2325 604.905 82.5028 604.727 82.8391 604.648C82.8391 604.648 83.0313 604.837 83.1279 604.931Z" fill="#DD6340"/>
<path d="M210.027 579.055C209.804 579.17 209.465 579.039 209.025 578.639C209.253 578.516 209.581 578.662 210.027 579.055Z" fill="#E97351"/>
<path d="M26.8047 591.611C26.9259 591.294 27.0687 590.998 27.4824 590.632C27.7533 590.561 27.8497 590.659 27.7478 590.881C27.4579 591.386 27.2009 591.577 26.8748 591.674C26.8748 591.674 26.8264 591.634 26.8047 591.611Z" fill="#DD6340"/>
<path d="M27.7046 590.512C27.7992 590.165 27.9426 589.865 28.3068 589.443C28.5273 589.319 28.6815 589.485 28.6642 589.794C28.4539 590.393 28.1882 590.578 27.8499 590.659C27.8499 590.659 27.7534 590.561 27.7046 590.512Z" fill="#DD6340"/>
<path d="M29.813 587.62C29.9353 587.304 30.0775 587.008 30.4902 586.64C30.7606 586.568 30.8516 586.661 30.7505 586.883C30.4598 587.387 30.2021 587.578 29.8763 587.676C29.8763 587.676 29.8326 587.64 29.813 587.62Z" fill="#DD6340"/>
<path d="M30.7144 586.522C30.8082 586.175 30.9479 585.874 31.3062 585.447C31.5248 585.321 31.6804 585.486 31.6653 585.796C31.4567 586.397 31.1904 586.581 30.8511 586.661C30.8511 586.661 30.7601 586.568 30.7144 586.522Z" fill="#DD6340"/>
<path d="M235.935 49.5552C236.253 49.714 236.533 49.9083 236.832 50.3689C236.852 50.635 236.829 50.6579 236.577 50.5896C236.158 50.2365 235.992 49.9518 235.826 49.6669C235.826 49.6669 235.897 49.5908 235.935 49.5552Z" fill="#151310"/>
<path d="M43.2868 51.3818C43.4436 51.6221 43.3573 52.0081 42.9829 52.4972C42.811 52.2426 42.9273 51.8851 43.2868 51.3818Z" fill="#151310"/>
<path d="M209.994 478.849C209.94 478.614 210.203 478.284 210.784 477.907C210.838 478.157 210.574 478.455 209.994 478.849Z" fill="#176F6E"/>
<path d="M48.0326 44.3352C48.1784 44.5847 48.1027 44.9499 47.7041 45.3371C47.5247 45.0563 47.6679 44.7536 48.0326 44.3352Z" fill="#1B1816"/>
<path d="M47.7473 46.2998C47.6163 46.6421 47.4232 46.63 46.9406 46.5944C46.7656 46.2432 46.8799 45.9157 47.205 45.4332C47.5055 45.5008 47.5953 45.7231 47.7473 46.2998Z" fill="#1B1816"/>
<path d="M215.151 475.703C215.092 475.492 215.295 475.188 215.77 474.805C215.832 475.021 215.623 475.317 215.151 475.703Z" fill="#176F6E"/>
<path d="M45.3117 48.3723C45.451 48.6174 45.3364 48.9993 44.9287 49.4791C44.7765 49.2211 44.9172 48.8651 45.3117 48.3723Z" fill="#151310"/>
<path d="M245.221 286.808C245.141 286.584 245.317 286.239 245.785 285.815C245.876 286.053 245.677 286.37 245.221 286.808Z" fill="#151310"/>
<path d="M51.6001 475.252C51.8549 475.092 52.2146 475.19 52.6666 475.571C52.4076 475.739 52.0563 475.624 51.6001 475.252Z" fill="#176F6E"/>
<path d="M216.189 474.757C216.117 474.534 216.308 474.212 216.783 473.817C216.861 474.048 216.657 474.353 216.189 474.757Z" fill="#176F6E"/>
<path d="M48.7822 472.964C49.0029 472.896 49.3092 473.092 49.6919 473.56C49.4683 473.631 49.1681 473.429 48.7822 472.964Z" fill="#176F6E"/>
<path d="M112.092 493.518C112.066 493.057 112.329 492.99 112.733 493.362C112.651 493.543 112.488 493.581 112.092 493.518Z" fill="#298381"/>
<path d="M244.171 287.725C244.112 287.498 244.323 287.189 244.828 286.826C244.894 287.063 244.668 287.354 244.171 287.725Z" fill="#151310"/>
<path d="M235.941 182.76C233.702 189.859 231.463 196.958 228.9 204.653C223.262 211.588 217.949 217.929 212.434 224.382C212.231 224.494 211.863 224.775 211.592 224.909C210.457 225.884 209.594 226.727 208.751 227.594C208.772 227.619 208.813 227.569 208.552 227.672C208.033 228.044 207.775 228.314 207.192 228.661C199.052 234.326 190.482 238.145 180.765 239.805C180.261 239.91 180.019 240.063 179.471 240.394C178.896 240.598 178.672 240.693 178.447 240.788C178.447 240.788 178.136 240.833 177.852 240.424C175.151 237.605 172.991 238.741 170.876 240.501C170.474 240.561 170.072 240.621 168.884 240.666C153.443 240.909 138.996 239.336 124.429 235.723C123.61 235.714 123.141 235.722 122.733 235.705C122.794 235.68 122.83 235.806 122.654 235.48C120.577 234.674 118.676 234.194 116.806 233.69C116.837 233.667 116.823 233.744 116.633 233.438C114.57 232.628 112.697 232.124 110.47 231.564C104.389 228.527 98.6619 225.548 92.92 222.571C92.9056 222.574 92.8883 222.598 92.8597 222.291C92.5238 221.711 92.2164 221.437 91.7225 220.922C89.7764 219.312 88.0167 217.943 86.0757 216.341C85.5533 215.93 85.2124 215.753 84.8619 215.61C84.8525 215.645 84.9148 215.608 84.8365 215.356C84.4636 214.926 84.1691 214.748 83.862 214.605C83.8497 214.639 83.9177 214.612 83.8329 214.363C83.4581 213.933 83.1682 213.753 82.8631 213.608C82.8479 213.642 82.9149 213.608 82.8368 213.356C82.4653 212.926 82.1721 212.75 81.9156 212.58C81.9523 212.586 81.9927 212.524 81.8417 212.223C76.7717 204.011 71.8529 196.1 66.931 187.821C65.3949 182.103 63.8618 176.752 62.2178 171.014C60.6982 171.91 59.3102 172.728 57.5272 173.566C55.399 173.992 53.6655 174.397 51.671 174.753C51.2342 174.681 51.0585 174.659 50.6501 174.36C46.2583 171.458 42.0992 168.832 37.9401 166.206C35.858 159.859 32.6463 153.633 31.9499 147.137C30.8138 136.537 35.2091 131.058 45.5674 127.045C48.8863 127.041 51.9607 127.265 55.7303 127.71C59.4094 129.988 62.3934 132.044 65.0549 133.877C72.191 122.683 78.8739 111.165 86.5615 100.363C101.002 80.0707 118.686 63.4699 143.098 55.8147C149.204 53.9002 155.791 53.5678 162.107 52.2664C168.386 50.9726 174.079 51.5881 180.566 53.1357C205.246 59.0229 221.276 73.8024 230.436 96.8522C237.047 113.488 238.704 130.956 238.827 149.12C238.587 153.496 238.446 157.42 238.091 161.324C237.441 168.475 236.664 175.615 235.941 182.76ZM111.077 163.024C111.393 163.218 111.709 163.412 112.534 163.797C112.984 164.35 113.435 164.903 114.063 166.002C114.379 166.2 114.695 166.399 114.871 166.581C114.871 166.581 114.907 166.445 115.072 167.155C116.714 167.95 118.356 168.745 119.881 169.547C119.881 169.547 119.905 169.431 120.108 170.175C125.16 173.352 132.105 173.734 136.378 170.719C148.735 166.522 154.658 154.856 150.716 141.847C150.058 140.462 149.4 139.076 148.834 137.663C148.834 137.663 148.76 137.723 149.062 137.009C145.235 126.449 135.494 120.515 124.819 122.636C113.41 124.902 107.768 132.687 105.211 144.222C105.551 146.984 105.89 149.747 106.124 152.635C106.124 152.635 105.995 152.534 105.874 153.298C106.578 154.735 107.283 156.173 107.892 157.621C107.892 157.621 107.899 157.526 107.929 158.181C108.287 158.66 108.645 159.138 108.893 159.608C108.893 159.608 108.922 159.502 108.903 160.175C109.307 160.633 109.711 161.091 109.952 161.588C109.952 161.588 109.95 161.42 110.083 161.984C110.395 162.187 110.708 162.39 110.891 162.62C110.891 162.62 110.881 162.488 111.077 163.024ZM183.851 143.66C183.851 143.66 183.926 143.67 183.31 143.834C183.203 144.444 183.097 145.054 182.911 146.452C182.29 150.098 181.343 153.724 181.119 157.393C180.682 164.549 188.461 173.561 194.963 175.652C202.573 178.1 210.755 175.745 216.396 170.095C222.069 164.414 221.835 157.417 222.251 150.186C222.223 149.938 222.062 149.755 221.837 149.645C221.837 149.645 221.831 149.715 221.885 148.848C222.859 142.283 218.9 138.124 214.654 134.143C209.629 129.432 203.388 128.653 197.237 130.301C191.464 131.847 186.533 135.239 184.843 141.66C184.843 141.66 184.954 141.713 184.257 141.759C184.137 142.413 184.016 143.067 183.851 143.66ZM117.374 94.548C116.103 95.3377 114.426 95.8487 113.65 96.9783C112.28 98.9726 111.46 101.344 110.41 103.557C112.766 104.002 115.163 104.972 117.47 104.791C124.037 104.273 130.55 103.049 137.118 102.592C140.028 102.39 143.05 103.834 145.963 103.643C147.91 103.516 150.956 102.165 151.354 100.754C151.899 98.8203 150.849 96.0138 149.62 94.1499C148.776 92.8694 146.533 92.31 144.802 91.8492C135.622 89.4044 126.694 90.2866 117.374 94.548ZM136.411 201.682C146.894 209.186 158.539 211.607 171.192 209.65C173.872 209.236 177.088 208.876 176.497 205.337C176.303 204.174 173.12 202.984 171.19 202.752C167.749 202.338 164.22 202.69 160.728 202.637C154.319 202.542 148.095 201.313 142.873 197.521C139.28 194.912 136.432 191.299 133.003 188.431C131.655 187.304 129.632 186.983 127.916 186.294C127.978 188.266 127.326 190.703 128.246 192.115C130.39 195.403 133.291 198.197 136.411 201.682ZM222.88 115.293C220.93 103.101 204.771 95.9492 194.295 96.9333C190.815 97.2603 188.744 99.5661 188.631 103.377C188.527 106.845 190.571 108.479 193.484 108.41C202.893 108.185 211.115 110.568 217.899 117.481C219.461 119.072 222.233 120.116 222.88 115.293ZM164.403 172.8C162.622 173.088 160.721 173.081 159.09 173.741C157.264 174.479 155.682 175.821 153.994 176.901C155.358 178.797 156.413 181.925 158.144 182.36C163.344 183.665 168.796 184.259 174.173 184.448C177.113 184.552 180.809 183.119 180.383 179.579C180.145 177.605 177.158 175.279 174.908 174.401C171.945 173.246 168.487 173.359 164.403 172.8Z" fill="#A95A2A"/>
<path d="M50.8827 174.637C51.0583 174.659 51.2341 174.681 51.8999 174.998C54.234 174.71 56.0779 174.128 57.9219 173.547C59.3101 172.728 60.6981 171.91 62.2177 171.014C63.8617 176.752 65.3948 182.103 66.8982 188.263C62.7458 201.341 64.199 214.205 62.8464 226.769C62.2136 232.648 61.2532 238.529 61.1752 244.42C61.0861 251.161 58.7842 258.037 61.7252 264.919C60.9882 265.683 60.4202 266.201 59.8522 266.718C57.1777 268.514 54.5033 270.311 51.3584 272.453C50.5659 273.15 50.2437 273.5 49.9215 273.85C49.9215 273.85 49.9104 273.737 49.6143 273.72C48.9073 274.171 48.4966 274.639 48.0859 275.107C48.0859 275.107 48.0092 274.966 47.6919 274.865C46.6575 275.545 45.9404 276.326 45.2234 277.107C45.2234 277.107 45.2178 277.135 45.2327 277.141C41.6156 276.835 37.9835 276.522 34.5122 275.911C35.3937 274.386 36.6174 273.214 36.7593 271.923C38.5944 255.207 40.2247 238.468 42.0112 221.746C43.5515 207.328 45.3612 192.938 46.7322 178.505C47.0261 175.412 47.9839 174.312 50.8827 174.637Z" fill="#3C3833"/>
<path d="M212.636 224.27C217.949 217.929 223.262 211.588 228.782 204.981C228.29 220.289 227.586 235.863 226.9 251.439C226.827 253.096 226.888 254.759 226.834 256.418C226.515 266.171 226.18 275.924 225.86 286.131C222.425 286.934 218.982 287.284 215.086 287.669C212.098 285.254 209.562 282.803 207.252 279.953C208.265 276.81 209.519 274.102 209.738 271.313C210.141 266.186 209.701 260.996 210.032 255.859C210.638 246.477 211.55 237.114 212.349 227.569C210.648 227.569 209.689 227.569 208.731 227.569C209.594 226.727 210.457 225.884 211.728 225.041C212.302 224.784 212.469 224.527 212.636 224.27Z" fill="#2E2D2A"/>
<path d="M208.752 227.594C209.689 227.569 210.648 227.569 212.349 227.569C211.55 237.114 210.638 246.477 210.032 255.859C209.701 260.996 210.141 266.186 209.738 271.313C209.519 274.102 208.265 276.81 207.099 279.657C206.72 279.761 206.774 279.708 206.69 279.481C206.293 279.067 205.981 278.878 205.669 278.69C204.451 277.617 203.233 276.543 201.788 274.89C201.197 274.117 200.832 273.925 200.467 273.734C195.386 270.099 190.204 266.591 185.303 262.729C184.237 261.89 183.927 259.817 183.693 258.249C182.964 253.366 182.438 248.453 181.349 243.581C180.865 243.611 181.079 243.442 181.079 243.442C180.31 242.738 179.54 242.034 178.609 241.059C178.672 240.693 178.897 240.598 179.695 240.408C180.566 240.218 180.804 240.042 180.982 239.785C190.482 238.145 199.052 234.326 207.479 228.592C208.332 228.154 208.572 227.861 208.813 227.569C208.813 227.569 208.772 227.619 208.752 227.594Z" fill="#393631"/>
<path d="M106.832 261.646C113.016 270.581 122.792 272.339 131.848 274.245C144.206 276.848 156.929 276.826 169.334 273.621C172.741 272.741 175.862 270.749 178.985 269.326C178.558 273.469 175.832 277.086 168.908 278.594C149.283 282.867 130.007 282.009 112.071 271.718C106.314 268.415 103.345 263 102.54 256.239C103.918 257.935 105.297 259.631 106.832 261.646Z" fill="#E6E0D7"/>
<path d="M124.779 235.74C138.996 239.336 153.443 240.91 168.579 240.682C169.28 242.137 169.5 243.56 169.442 245.587C169.205 247.084 169.245 247.977 169.286 248.871C169.286 248.871 169.109 248.958 168.56 248.829C159.949 248.332 151.846 248.345 143.84 247.47C138.059 246.839 132.407 245.028 126.697 243.743C126.697 243.743 126.795 243.717 126.665 243.467C125.925 243.055 125.315 242.893 124.705 242.731C124.705 242.731 124.793 242.689 124.816 242.292C124.819 239.843 124.799 237.792 124.779 235.74Z" fill="#8F461D"/>
<path d="M122.883 236.639C122.32 238.124 121.758 239.61 120.937 241.777C117.634 240.799 114.213 239.851 110.835 238.77C106.852 237.495 104.634 239.484 105.333 243.717C105.65 245.638 105.772 247.592 106.114 250.739C104.799 249.146 104.224 248.449 103.287 247.312C103.907 243.137 104.889 239.401 105.855 235.662C105.839 235.66 105.857 235.687 106.059 235.549C106.517 235.194 106.704 234.93 107.141 234.505C108.644 233.788 109.832 233.184 111.385 232.628C113.441 233.032 115.132 233.388 116.823 233.744C116.823 233.744 116.837 233.667 116.931 234.037C118.959 234.873 120.894 235.339 122.829 235.806C122.829 235.806 122.793 235.68 122.814 235.926C122.834 236.171 122.883 236.639 122.883 236.639Z" fill="#E6E0D7"/>
<path d="M107.844 340.644C114.356 341.65 120.848 342.81 127.383 343.633C143.773 345.697 160.047 345.437 176.442 340.653C176.857 340.664 176.898 340.715 176.806 340.978C176.343 341.641 175.971 342.041 175.667 342.474C175.735 342.508 175.75 342.356 175.409 342.397C174.271 342.793 173.475 343.149 172.742 343.501C172.806 343.497 172.764 343.376 172.415 343.4C171.273 343.755 170.48 344.084 169.72 344.353C169.753 344.293 169.634 344.224 169.201 344.193C148.056 347.919 127.56 346.906 107.414 341.186C107.557 341.005 107.844 340.644 107.844 340.644Z" fill="#F3F6F3"/>
<path d="M126.93 244.022C132.407 245.028 138.059 246.839 143.84 247.47C151.846 248.345 159.949 248.332 168.482 248.768C159.188 251.712 149.484 250.003 139.859 248.166C135.539 247.342 131.39 245.617 126.93 244.022Z" fill="#7E3012"/>
<path d="M105.871 235.665C104.889 239.401 103.907 243.137 102.973 247.267C101.899 248.91 101.01 250.784 99.6168 251.301C93.3632 253.625 86.9663 255.564 80.2291 257.643C79.8372 257.645 79.8175 257.617 79.9544 257.291C84.6403 255.157 89.1891 253.35 94.1091 251.437C99.1209 250.463 102.911 249.303 102.193 242.936C101.939 240.679 104.562 238.098 105.871 235.665Z" fill="#151310"/>
<path d="M180.953 243.506C181.15 244.529 181.259 245.655 181.401 247.118C179.62 247.605 177.78 248.457 175.921 248.5C174.567 248.532 172.75 247.843 171.949 246.833C171.219 245.914 171.001 243.314 171.582 242.902C172.675 242.127 174.527 242.166 176.026 242.296C177.47 242.422 178.867 243.09 180.682 243.481C181.079 243.442 180.865 243.61 180.953 243.506Z" fill="#E6E0D7"/>
<path d="M203.444 381.505C203.009 378.236 202.944 374.86 202.804 371.092C206.767 373.892 204.78 377.697 203.444 381.505Z" fill="white"/>
<path d="M123.114 236.971C122.883 236.638 122.834 236.171 122.753 235.951C123.141 235.722 123.61 235.714 124.429 235.723C124.799 237.792 124.819 239.843 124.8 242.338C124.288 240.955 123.817 239.129 123.114 236.971Z" fill="#7E3012"/>
<path d="M98.8065 337.676C101.662 338.482 104.517 339.289 107.608 340.369C107.844 340.644 107.557 341.005 107.05 341.107C105.348 340.917 104.152 340.625 102.958 340.399C102.959 340.464 103.07 340.396 102.904 340.128C102.125 339.717 101.512 339.573 100.893 339.488C100.887 339.546 101.003 339.524 100.829 339.28C99.9775 338.66 99.2993 338.284 98.6685 337.851C98.7157 337.794 98.8065 337.676 98.8065 337.676Z" fill="#F3F6F3"/>
<path d="M171.309 240.564C172.991 238.741 175.151 237.605 177.724 240.335C175.833 240.645 173.787 240.637 171.309 240.564Z" fill="#8F461D"/>
<path d="M89.5991 335.602C89.9307 335.088 90.2621 334.574 90.708 333.856C92.058 334.115 93.2935 334.578 94.6003 335.442C94.6716 335.844 94.5129 336.027 94.1184 335.875C92.3489 335.683 90.974 335.643 89.5991 335.602Z" fill="#F3F6F3"/>
<path d="M72.9595 260.774C71.1775 261.73 69.3954 262.687 67.242 263.662C66.8705 263.682 66.8203 263.623 66.9233 263.344C68.96 262.252 70.8933 261.44 72.8586 260.665C72.8906 260.703 72.9595 260.774 72.9595 260.774Z" fill="#151310"/>
<path d="M79.8474 257.658C78.4612 258.357 77.0646 259.042 75.2859 259.722C74.9037 259.716 74.8201 259.63 74.8037 259.362C74.8032 258.916 74.8189 258.737 75.1819 258.447C76.9585 258.096 78.3879 257.857 79.8173 257.617C79.8173 257.617 79.8369 257.645 79.8474 257.658Z" fill="#151310"/>
<path d="M202.724 367.465C202.082 366.691 201.49 365.533 200.93 364.022C201.565 364.807 202.17 365.944 202.724 367.465Z" fill="white"/>
<path d="M94.751 335.753C96.0627 336.123 97.2952 336.583 98.667 337.36C98.8064 337.676 98.7156 337.794 98.3176 337.783C97.2438 337.538 96.5679 337.305 95.7524 336.898C95.246 336.492 94.8794 336.259 94.5127 336.027C94.5127 336.027 94.6714 335.844 94.751 335.753Z" fill="#F3F6F3"/>
<path d="M60.2222 266.726C60.4204 266.2 60.9884 265.683 62.0909 264.909C63.3593 264.645 64.093 264.636 64.8606 264.667C64.8944 264.707 64.9661 264.782 64.9661 264.782C63.5081 265.433 62.05 266.084 60.2222 266.726Z" fill="#151310"/>
<path d="M45.5093 276.989C45.9404 276.326 46.6575 275.545 47.7712 274.876C47.3771 275.616 46.5861 276.244 45.5093 276.989Z" fill="#1B1816"/>
<path d="M169.559 248.665C169.246 247.977 169.205 247.084 169.41 245.949C169.714 246.624 169.773 247.541 169.559 248.665Z" fill="#7E3012"/>
<path d="M178.785 339.597C179.564 339.262 180.344 338.927 181.456 338.533C181.788 338.473 181.825 338.536 181.664 338.801C181.41 339.228 181.318 339.39 181.117 339.509C181.008 339.466 180.854 339.643 180.527 339.647C179.765 339.673 179.331 339.695 178.869 339.686C178.841 339.656 178.785 339.597 178.785 339.597Z" fill="#F3F6F3"/>
<path d="M66.8962 263.711C66.4675 264.062 66.0126 264.385 65.262 264.745C64.9661 264.782 64.8944 264.707 65.01 264.408C65.6904 263.947 66.2552 263.785 66.8201 263.623C66.8201 263.623 66.8702 263.682 66.8962 263.711Z" fill="#151310"/>
<path d="M74.9443 259.76C74.5095 260.106 74.0342 260.408 73.259 260.742C72.9592 260.774 72.8904 260.703 73.0064 260.404C73.6884 259.947 74.2542 259.789 74.8201 259.63C74.8201 259.63 74.9037 259.716 74.9443 259.76Z" fill="#151310"/>
<path d="M176.838 340.636C177.281 340.293 177.742 339.978 178.494 339.63C178.785 339.597 178.841 339.656 178.75 339.973C178.072 340.431 177.484 340.573 176.897 340.715C176.897 340.715 176.856 340.664 176.838 340.636Z" fill="#F3F6F3"/>
<path d="M48.3779 275.012C48.4968 274.639 48.9076 274.171 49.6702 273.732C49.571 274.146 49.1202 274.531 48.3779 275.012Z" fill="#1B1816"/>
<path d="M50.1626 273.769C50.2437 273.5 50.5659 273.149 51.1528 272.752C51.0796 273.033 50.7416 273.36 50.1626 273.769Z" fill="#1B1816"/>
<path d="M124.874 242.992C125.315 242.893 125.925 243.055 126.665 243.518C126.211 243.63 125.626 243.442 124.874 242.992Z" fill="#7E3012"/>
<path d="M180.285 267.186C180.322 267.247 180.248 267.125 180.285 267.186Z" fill="#E6E0D7"/>
<path d="M200.705 362.701C200.531 362.703 200.297 362.46 200.038 361.959C200.224 361.953 200.435 362.204 200.705 362.701Z" fill="white"/>
<path d="M77.4947 347.879C77.6192 348.079 77.5096 348.474 77.1454 349.052C77.0141 348.847 77.1373 348.461 77.4947 347.879Z" fill="white"/>
<path d="M202.785 370.327C202.617 370.302 202.446 369.852 202.52 369.229C202.77 369.338 202.776 369.621 202.785 370.327Z" fill="white"/>
<path d="M202.838 368.622C202.644 368.726 202.494 368.275 202.5 368.038C202.681 368.04 202.856 368.279 202.838 368.622Z" fill="white"/>
<path d="M205.794 278.933C205.981 278.879 206.293 279.067 206.709 279.514C206.515 279.574 206.217 279.376 205.794 278.933Z" fill="#151310"/>
<path d="M200.625 273.989C200.832 273.925 201.197 274.117 201.672 274.604C201.45 274.681 201.117 274.463 200.625 273.989Z" fill="#151310"/>
<path d="M180.854 339.643C180.854 339.643 181.008 339.466 181.552 339.537C182.961 339.612 183.826 339.616 184.691 339.621C184.817 342.686 184.943 345.751 185.088 349.233C178.764 355.005 171.721 359.272 163.339 359.832C152.193 360.577 140.968 361.108 129.826 360.615C122.37 360.285 114.933 358.292 107.619 356.507C103.362 355.468 99.3636 353.37 94.832 351.759C93.9325 351.302 93.4501 350.835 92.8831 349.745C92.4249 347.626 92.0515 346.13 91.678 344.634C91.3993 344.704 91.1207 344.773 90.842 344.843C90.842 346.12 90.842 347.396 90.842 348.673C90.342 348.419 89.842 348.165 89.1118 347.744C89.1807 343.863 89.4796 340.148 89.689 336.017C90.974 335.642 92.3489 335.683 94.1184 335.875C94.8796 336.259 95.2462 336.492 95.8652 337.267C97.7461 338.381 99.3746 338.953 101.003 339.524C101.003 339.524 100.888 339.546 101.023 339.804C101.796 340.173 102.433 340.285 103.07 340.396C103.07 340.396 102.959 340.464 103.09 340.75C106.146 342.092 109 343.463 112.01 344.153C126.243 347.419 140.715 348.444 155.247 347.507C160.093 347.194 164.841 345.362 169.634 344.224C169.634 344.224 169.753 344.293 170.084 344.435C171.199 344.176 171.981 343.776 172.764 343.376C172.764 343.376 172.806 343.497 173.113 343.547C174.197 343.183 174.974 342.77 175.75 342.356C175.75 342.356 175.735 342.508 176.052 342.545C177.864 341.602 179.359 340.622 180.854 339.643Z" fill="#298381"/>
<path d="M50.6501 174.36C47.984 174.312 47.0262 175.411 46.7323 178.505C45.3613 192.938 43.5516 207.328 42.0114 221.746C40.2249 238.468 38.5945 255.207 36.7594 271.923C36.6176 273.214 35.3938 274.386 34.2584 275.631C33.6636 275.633 33.4829 275.617 32.9371 275.368C32.3754 274.894 32.1278 274.729 31.8295 274.64C28.7423 273.349 25.6552 272.058 22.2061 270.711C22.3368 264.998 22.4624 259.28 23.3864 253.695C27.0793 231.367 31.0471 209.085 34.8529 186.777C35.9635 180.267 36.8738 173.722 37.9081 166.7C42.0992 168.832 46.2583 171.458 50.6501 174.36Z" fill="#2E2D2A"/>
<path d="M238.829 148.658C238.704 130.956 237.047 113.488 230.436 96.8522C221.276 73.8025 205.246 59.023 180.566 53.1358C174.079 51.5882 168.386 50.9727 162.107 52.2665C155.791 53.5679 149.204 53.9003 143.098 55.8148C118.686 63.47 101.002 80.0707 86.5615 100.363C78.8739 111.165 72.191 122.683 65.0549 133.877C62.3934 132.044 59.4094 129.988 56.1348 127.747C62.1302 104.192 74.9075 84.4992 90.7848 66.6745C94.3998 62.6161 99.0508 59.4803 103.63 55.9628C104.276 55.8471 104.518 55.6884 104.76 55.5297C104.76 55.5297 104.818 55.5544 105.034 55.48C105.433 55.1238 105.616 54.8421 105.799 54.5604C105.799 54.5604 105.823 54.6433 106.103 54.6155C106.854 54.2475 107.324 53.9071 107.795 53.5667C107.795 53.5667 107.845 53.6292 108.047 53.5169C108.433 53.1231 108.616 52.8416 108.799 52.5601C108.799 52.5601 108.824 52.643 109.104 52.6152C109.854 52.2471 110.325 51.9068 110.795 51.5665C110.795 51.5665 110.845 51.6285 111.048 51.5169C111.435 51.1236 111.619 50.8418 111.803 50.5601C111.803 50.5601 111.826 50.6384 112.106 50.6133C112.857 50.2456 113.328 49.9029 113.8 49.5602C113.8 49.5602 113.822 49.6486 114.106 49.6142C114.859 49.2412 115.327 48.9027 115.795 48.5642C115.795 48.5642 115.847 48.624 116.049 48.5142C116.437 48.1249 116.623 47.8454 116.81 47.566C116.81 47.566 116.83 47.639 117.111 47.6144C117.868 47.2456 118.342 46.9015 118.817 46.5574C118.817 46.5574 118.83 46.6314 119.111 46.6097C119.867 46.2452 120.343 45.9026 120.818 45.5599C120.818 45.5599 120.832 45.6331 121.18 45.6324C122.948 44.9368 124.369 44.2418 125.791 43.5469C125.791 43.5469 125.856 43.5875 126.196 43.6063C127.955 42.9308 129.376 42.2363 130.796 41.5419C130.796 41.5419 130.853 41.596 131.231 41.6116C147.12 37.4931 162.886 35.7493 178.928 36.6212C179.093 36.644 179.259 36.6668 179.897 36.9846C181.825 37.1372 183.282 36.9949 184.738 36.8526C215.102 42.2849 233.734 64.928 240.754 94.1522C242.602 101.843 243.354 109.797 244.607 117.616C244.869 117.023 245.506 116.216 245.558 115.373C246.898 93.7213 246.755 72.3944 232.353 54.0821C231.776 53.3493 232.881 51.2941 233.513 49.7474C234.268 49.6569 234.713 49.6742 235.492 49.6792C235.992 49.9518 236.158 50.2365 236.564 50.6001C236.969 51.2455 237.134 51.8121 237.561 52.5188C238.256 53.6389 238.688 54.619 239.465 55.6386C239.97 56.2471 240.13 56.8162 240.557 57.5218C241.288 58.8964 241.751 60.1344 242.531 61.5073C243.002 62.2137 243.157 62.7852 243.58 63.4993C243.996 64.2159 244.142 64.7899 244.553 65.513C245.274 66.9044 245.732 68.1466 246.505 69.525C247.846 73.7739 248.877 77.8853 249.896 81.9996C253.7 97.3588 254.804 112.847 253.031 128.635C251.972 138.075 251.909 147.627 250.839 157.185C248.613 151.512 244.803 148.642 238.829 148.658Z" fill="#3B3631"/>
<path d="M178.662 36.3149C162.886 35.7492 147.12 37.493 131.192 41.6047C146.123 35.2201 161.996 33.361 178.662 36.3149Z" fill="#302D2A"/>
<path d="M125.438 43.5444C124.369 44.2418 122.948 44.9368 121.147 45.6145C122.206 44.9121 123.645 44.2271 125.438 43.5444Z" fill="#302D2A"/>
<path d="M130.441 41.5448C129.376 42.2362 127.956 42.9307 126.158 43.6006C127.216 42.9001 128.651 42.2239 130.441 41.5448Z" fill="#302D2A"/>
<path d="M184.342 36.769C183.282 36.9948 181.825 37.1371 180.142 37.0359C181.259 36.7567 182.602 36.7212 184.342 36.769Z" fill="#302D2A"/>
<path d="M115.482 48.525C115.327 48.9026 114.859 49.2411 114.082 49.576C114.238 49.2102 114.703 48.8481 115.482 48.525Z" fill="#302D2A"/>
<path d="M110.487 51.5466C110.325 51.9068 109.854 52.2471 109.073 52.5852C109.234 52.231 109.707 51.8788 110.487 51.5466Z" fill="#302D2A"/>
<path d="M113.494 49.5596C113.328 49.9028 112.857 50.2455 112.073 50.5889C112.237 50.2462 112.713 49.9026 113.494 49.5596Z" fill="#302D2A"/>
<path d="M118.518 46.5933C118.343 46.9015 117.868 47.2456 117.08 47.5942C117.25 47.2755 117.735 46.9524 118.518 46.5933Z" fill="#302D2A"/>
<path d="M120.52 45.5973C120.343 45.9025 119.867 46.2451 119.078 46.592C119.25 46.2757 119.735 45.9552 120.52 45.5973Z" fill="#302D2A"/>
<path d="M107.487 53.5454C107.324 53.907 106.854 54.2473 106.072 54.5855C106.234 54.2303 106.706 53.8772 107.487 53.5454Z" fill="#302D2A"/>
<path d="M104.524 55.5103C104.518 55.6884 104.277 55.847 103.941 55.8376C103.847 55.6695 104.287 55.4911 104.524 55.5103Z" fill="#302D2A"/>
<path d="M108.537 52.6337C108.616 52.8415 108.433 53.123 108.011 53.5002C107.94 53.2996 108.108 53.0034 108.537 52.6337Z" fill="#302D2A"/>
<path d="M111.544 50.6387C111.619 50.8418 111.435 51.1236 111.012 51.5007C110.943 51.3032 111.114 51.0102 111.544 50.6387Z" fill="#302D2A"/>
<path d="M105.539 54.6361C105.616 54.842 105.433 55.1237 105.01 55.501C104.94 55.3018 105.11 55.0068 105.539 54.6361Z" fill="#302D2A"/>
<path d="M116.549 47.6449C116.623 47.8454 116.437 48.1249 116.012 48.4998C115.945 48.3047 116.117 48.0143 116.549 47.6449Z" fill="#302D2A"/>
<path d="M30.7502 586.883C31.1906 586.581 31.4569 586.397 31.7448 585.878C32.1788 585.573 32.4472 585.392 32.7443 584.879C33.1706 584.196 33.497 583.739 33.8515 582.986C34.3316 582.674 34.7835 582.657 35.5754 582.617C38.9124 591.057 41.1072 592.074 50.1285 592.801C68.3624 594.269 81.5172 585.3 93.5817 572.851C92.1769 581.059 90.5035 589.462 88.8259 598.25C88.1704 599.417 87.5191 600.198 86.8345 601.3C86.4824 601.726 86.225 601.916 85.9226 602.407C85.4993 602.73 85.2401 602.916 84.9244 603.395C84.2562 603.786 83.7016 603.963 82.9931 604.395C82.503 604.727 82.2327 604.905 81.9284 605.409C81.2701 605.804 80.7116 605.973 79.9962 606.396C78.9241 607.111 78.009 607.572 76.9542 608.322C75.9515 608.771 75.0884 608.931 74.0239 609.355C67.984 610.624 62.1342 611.567 56.3099 612.647C46.1173 614.538 36.3427 612.522 26.2506 609.634C25.7757 609.287 25.5892 609.024 25.0678 608.742C24.3593 608.054 23.8792 607.459 23.1311 606.748C22.8599 604.272 22.8568 601.912 22.8619 599.111C23.1845 598.2 23.499 597.731 23.8404 596.965C24.1817 596.203 24.496 595.74 24.8439 594.981C25.5373 593.916 26.1971 593.147 26.8659 592.025C27.2009 591.577 27.4578 591.386 27.7477 590.881C28.1881 590.578 28.4537 590.393 28.7429 589.875C29.1661 589.188 29.4927 588.73 29.8478 587.973C30.2019 587.578 30.4595 587.387 30.7502 586.883Z" fill="#E97351"/>
<path d="M238.827 149.12C244.803 148.642 248.613 151.512 250.54 157.475C250.567 160.72 250.335 163.733 250.065 167.135C246.683 173.528 244.257 180.361 236.248 182.591C236.664 175.615 237.441 168.475 238.091 161.324C238.446 157.42 238.587 153.496 238.827 149.12Z" fill="#854924"/>
<path d="M91.0742 348.836C90.8418 347.396 90.8418 346.12 90.8418 344.843C91.1205 344.773 91.399 344.704 91.6777 344.634C92.0513 346.13 92.4247 347.626 92.7747 349.512C92.2697 349.6 91.7882 349.3 91.0742 348.836Z" fill="#2B8C89"/>
<path d="M64.0808 504.517C63.931 504.591 63.9134 504.153 63.9316 503.936C63.9499 503.718 64.3221 504.014 64.3221 504.014C64.3221 504.014 64.2305 504.444 64.0808 504.517Z" fill="#AA5B2A"/>
<path d="M31.9272 274.844C32.1281 274.729 32.3756 274.894 32.6672 275.338C32.4536 275.471 32.2079 275.307 31.9272 274.844Z" fill="#3C3833"/>
<path d="M113.885 165.456C113.435 164.903 112.984 164.35 112.159 163.449C111.482 162.897 111.182 162.693 110.881 162.488C110.881 162.488 110.891 162.62 110.865 162.331C110.543 161.835 110.246 161.627 109.95 161.42C109.95 161.42 109.952 161.588 109.994 161.258C109.664 160.453 109.293 159.977 108.922 159.502C108.922 159.502 108.893 159.608 108.877 159.315C108.541 158.524 108.22 158.025 107.899 157.526C107.899 157.526 107.892 157.621 107.9 157.255C107.271 155.438 106.633 153.986 105.995 152.534C105.995 152.534 106.125 152.635 106.285 152.175C106.477 149.378 106.509 147.041 106.684 144.35C108.725 137.894 111.613 132.505 117.598 129.447C129.113 123.565 139.175 126.252 148.76 137.723C148.76 137.723 148.834 137.663 148.789 138.031C149.381 139.798 150.018 141.196 150.655 142.595C154.658 154.856 148.736 166.522 135.639 170.968C129.902 170.621 124.904 170.026 119.905 169.431C119.905 169.431 119.881 169.547 119.744 169.271C118.04 168.146 116.473 167.295 114.907 166.445C114.907 166.445 114.871 166.581 114.843 166.324C114.505 165.863 114.195 165.659 113.885 165.456ZM121.656 154.794C121.656 154.794 121.454 154.851 121.658 155.393C121.95 155.618 122.243 155.844 122.552 155.892C122.552 155.892 122.4 155.986 122.63 156.51C122.958 156.695 123.287 156.88 123.666 156.852C123.666 156.852 123.45 156.885 123.704 157.404C124.048 157.572 124.392 157.74 124.751 157.772C124.751 157.772 124.617 157.804 125.077 158.439C129.152 160.08 133.161 160.647 136.879 157.681C136.879 157.681 136.876 157.761 137.426 157.593C137.67 157.304 137.913 157.016 138.567 156.65C138.83 156.481 138.947 156.241 139.419 155.658C139.608 155.337 139.797 155.015 139.892 154.697C139.892 154.697 139.918 154.789 140.544 154.32C142.275 150.264 142.931 146.247 140.135 142.524C140.135 142.524 140.284 142.437 140.078 141.848C139.679 141.396 139.281 140.944 138.789 140.038C138.614 139.744 138.356 139.597 137.642 138.952C133.077 136.081 128.457 135.351 123.805 138.631C123.805 138.631 123.804 138.553 123.265 138.704C123.044 138.998 122.823 139.293 122.172 139.677C121.891 139.845 121.76 140.092 121.278 140.673C121.103 140.988 120.927 141.304 120.827 141.618C120.827 141.618 120.792 141.551 120.21 142.049C118.318 146.061 118.112 149.994 120.785 153.704C120.785 153.704 120.693 153.703 120.849 154.25C121.113 154.501 121.377 154.752 121.656 154.794Z" fill="#F5F0E9"/>
<path d="M222.068 150.377C221.835 157.417 222.07 164.414 216.396 170.096C210.755 175.745 202.573 178.1 194.963 175.652C188.461 173.561 180.682 164.549 181.119 157.393C181.343 153.724 182.29 150.098 183.183 145.889C183.612 144.774 183.769 144.222 183.926 143.67C183.926 143.67 183.851 143.66 184.186 143.599C184.665 142.93 184.81 142.322 184.955 141.713C184.955 141.713 184.844 141.66 185.23 141.643C193.343 132.952 203.749 131.456 212.881 138.571C216.538 141.421 218.887 145.95 221.832 149.715C221.832 149.715 221.838 149.645 221.875 149.828C221.911 150.011 222.068 150.377 222.068 150.377ZM187.618 160.827C187.618 160.827 187.44 160.895 187.629 161.406C187.893 161.633 188.158 161.86 188.355 162.163C188.355 162.163 188.354 162.264 188.641 162.63C189.026 162.852 189.411 163.074 190.503 163.688C190.947 163.832 191.418 163.923 191.832 164.128C198.311 167.336 203.292 165.514 206.895 158.604C209.57 153.474 207.445 147.426 201.414 144.991C198.527 143.825 195.033 144.161 191.183 143.79C190.354 144.395 189.524 145 188.223 145.726C187.915 145.92 187.779 146.198 187.332 146.923C187.092 147.472 186.852 148.022 186.74 148.577C186.74 148.577 186.707 148.454 186.101 148.913C184.542 152.644 184.25 156.297 186.791 159.701C186.791 159.701 186.707 159.702 186.853 160.243C187.101 160.5 187.35 160.758 187.618 160.827Z" fill="#F5F0E9"/>
<path d="M74.8035 259.362C74.254 259.789 73.6882 259.947 72.9743 260.366C70.8929 261.44 68.9595 262.252 66.9229 263.343C66.2551 263.785 65.6902 263.946 64.9761 264.368C64.0928 264.636 63.3591 264.645 62.2597 264.663C58.7842 258.037 61.0861 251.161 61.1752 244.419C61.2532 238.529 62.2137 232.648 62.8465 226.769C64.199 214.205 62.7459 201.341 66.9014 188.631C71.8528 196.1 76.7717 204.011 81.4224 212.277C80.3951 213.323 79.041 213.954 78.9648 214.713C77.4982 229.319 76.1818 243.941 74.8343 258.559C74.8187 258.737 74.803 258.916 74.8035 259.362Z" fill="#2E2D2A"/>
<path d="M75.1821 258.447C76.1823 243.941 77.4987 229.319 78.9652 214.713C79.0414 213.954 80.3955 213.323 81.5739 212.578C81.993 212.524 81.9526 212.586 82.0107 212.82C82.3511 213.239 82.6332 213.424 82.9153 213.608C82.9153 213.608 82.8483 213.642 82.959 213.849C83.3525 214.241 83.6353 214.427 83.9181 214.612C83.9181 214.612 83.8501 214.639 83.9585 214.845C84.3496 215.237 84.6324 215.423 84.9152 215.608C84.9152 215.608 84.8529 215.645 85.0043 215.878C85.5228 216.265 85.8901 216.42 86.2573 216.574C88.0171 217.943 89.7767 219.312 91.7771 221.231C92.3081 222.054 92.5984 222.326 92.8887 222.598C92.8887 222.598 92.906 222.574 92.8867 223.045C92.5365 231.266 92.0928 239.013 91.9684 246.765C91.9431 248.348 93.1171 249.95 93.738 251.543C89.1891 253.35 84.6403 255.157 79.9543 257.291C78.3882 257.857 76.9587 258.096 75.1821 258.447Z" fill="#3C3833"/>
<path d="M117.714 94.3794C126.694 90.2866 135.623 89.4044 144.802 91.8492C146.533 92.31 148.777 92.8694 149.62 94.1499C150.849 96.0138 151.899 98.8203 151.354 100.754C150.956 102.165 147.91 103.516 145.964 103.643C143.05 103.834 140.028 102.39 137.118 102.592C130.55 103.049 124.037 104.273 117.47 104.791C115.163 104.972 112.766 104.002 110.41 103.557C111.46 101.344 112.281 98.9726 113.65 96.9783C114.426 95.8487 116.103 95.3377 117.714 94.3794Z" fill="#2E2D2A"/>
<path d="M136.149 201.436C133.291 198.197 130.39 195.403 128.246 192.115C127.326 190.703 127.979 188.266 127.917 186.294C129.632 186.983 131.655 187.304 133.003 188.431C136.432 191.299 139.28 194.912 142.873 197.521C148.095 201.313 154.32 202.542 160.729 202.637C164.22 202.69 167.749 202.338 171.19 202.752C173.12 202.984 176.303 204.174 176.497 205.337C177.088 208.876 173.872 209.236 171.192 209.65C158.539 211.607 146.894 209.186 136.149 201.436Z" fill="#8F461D"/>
<path d="M222.897 115.693C222.233 120.116 219.461 119.072 217.899 117.481C211.115 110.568 202.893 108.185 193.485 108.41C190.572 108.479 188.527 106.845 188.631 103.377C188.744 99.5662 190.815 97.2603 194.295 96.9334C204.771 95.9493 220.93 103.101 222.897 115.693Z" fill="#302D2A"/>
<path d="M94.1089 251.437C93.1169 249.95 91.9429 248.348 91.9682 246.765C92.0926 239.013 92.5363 231.266 92.9009 223.042C98.662 225.548 104.389 228.527 110.538 231.8C110.959 232.093 111.02 232.579 111.02 232.579C109.832 233.184 108.645 233.788 106.992 234.341C106.303 234.756 106.08 235.221 105.857 235.687C105.857 235.687 105.839 235.659 105.855 235.662C104.562 238.098 101.939 240.679 102.193 242.936C102.91 249.303 99.1206 250.463 94.1089 251.437Z" fill="#2E2D2A"/>
<path d="M164.823 172.863C168.487 173.359 171.945 173.246 174.908 174.401C177.159 175.279 180.145 177.605 180.383 179.579C180.81 183.118 177.113 184.552 174.173 184.448C168.796 184.259 163.344 183.665 158.144 182.36C156.413 181.925 155.358 178.797 153.995 176.901C155.683 175.821 157.265 174.479 159.09 173.741C160.721 173.081 162.622 173.088 164.823 172.863Z" fill="#8F461D"/>
<path d="M148.911 137.366C139.175 126.252 129.113 123.565 117.598 129.447C111.613 132.504 108.725 137.894 106.515 144.195C106.007 144.161 105.85 143.903 105.733 143.62C107.768 132.687 113.41 124.902 124.819 122.635C135.494 120.515 145.235 126.449 148.911 137.366Z" fill="#24201E"/>
<path d="M221.858 149.281C218.887 145.95 216.538 141.421 212.881 138.571C203.749 131.456 193.343 132.952 185.278 141.681C186.534 135.239 191.464 131.847 197.237 130.301C203.388 128.653 209.629 129.432 214.655 134.143C218.9 138.124 222.859 142.283 221.858 149.281Z" fill="#302D2A"/>
<path d="M120.006 169.803C124.903 170.026 129.902 170.621 135.344 171.127C132.105 173.734 125.16 173.352 120.006 169.803Z" fill="#933C12"/>
<path d="M105.472 143.921C105.85 143.903 106.007 144.161 106.373 144.549C106.509 147.041 106.477 149.378 106.337 152.112C105.891 149.747 105.551 146.984 105.472 143.921Z" fill="#933C12"/>
<path d="M111.385 232.628C111.02 232.579 110.959 232.093 110.891 231.857C112.697 232.124 114.57 232.628 116.633 233.438C115.132 233.388 113.441 233.032 111.385 232.628Z" fill="#7E3012"/>
<path d="M57.5273 173.566C56.0781 174.128 54.2343 174.71 52.1611 175.047C53.6656 174.397 55.3992 173.992 57.5273 173.566Z" fill="#2E2D2A"/>
<path d="M122.654 235.48C120.894 235.339 118.959 234.873 116.899 234.06C118.676 234.194 120.577 234.674 122.654 235.48Z" fill="#7E3012"/>
<path d="M114.99 166.8C116.473 167.295 118.04 168.146 119.803 169.268C118.357 168.745 116.715 167.95 114.99 166.8Z" fill="#933C12"/>
<path d="M105.935 152.916C106.633 153.986 107.271 155.438 107.948 157.25C107.283 156.173 106.578 154.735 105.935 152.916Z" fill="#933C12"/>
<path d="M150.686 142.221C150.018 141.196 149.381 139.797 148.744 138.045C149.401 139.076 150.059 140.462 150.686 142.221Z" fill="#24201E"/>
<path d="M183.618 143.752C183.769 144.222 183.612 144.773 183.222 145.495C183.097 145.054 183.203 144.444 183.618 143.752Z" fill="#302D2A"/>
<path d="M107.914 157.854C108.22 158.025 108.541 158.524 108.932 159.32C108.645 159.138 108.287 158.66 107.914 157.854Z" fill="#933C12"/>
<path d="M108.913 159.839C109.293 159.977 109.664 160.453 110.075 161.238C109.711 161.091 109.307 160.633 108.913 159.839Z" fill="#933C12"/>
<path d="M184.606 141.736C184.81 142.322 184.665 142.93 184.208 143.63C184.016 143.068 184.137 142.413 184.606 141.736Z" fill="#302D2A"/>
<path d="M86.0756 216.341C85.8896 216.42 85.5223 216.265 85.0132 215.843C85.2123 215.753 85.5532 215.93 86.0756 216.341Z" fill="#2E2D2A"/>
<path d="M84.8368 215.356C84.6323 215.423 84.3495 215.237 83.9707 214.811C84.1693 214.748 84.4639 214.926 84.8368 215.356Z" fill="#2E2D2A"/>
<path d="M180.765 239.805C180.804 240.042 180.566 240.218 180.044 240.299C180.019 240.064 180.261 239.91 180.765 239.805Z" fill="#8F461D"/>
<path d="M83.8331 214.363C83.6351 214.427 83.3524 214.241 82.9741 213.815C83.1685 213.753 83.4584 213.933 83.8331 214.363Z" fill="#2E2D2A"/>
<path d="M212.434 224.382C212.469 224.527 212.302 224.784 211.999 224.908C211.863 224.775 212.231 224.494 212.434 224.382Z" fill="#393631"/>
<path d="M208.552 227.672C208.572 227.861 208.332 228.154 207.804 228.515C207.775 228.314 208.033 228.044 208.552 227.672Z" fill="#2E2D2A"/>
<path d="M92.8599 222.291C92.5981 222.326 92.3079 222.054 91.9634 221.473C92.2166 221.437 92.5239 221.711 92.8599 222.291Z" fill="#2E2D2A"/>
<path d="M222.16 150.281C222.068 150.377 221.911 150.011 221.84 149.824C222.062 149.755 222.223 149.938 222.16 150.281Z" fill="#302D2A"/>
<path d="M113.974 165.729C114.195 165.66 114.505 165.863 114.913 166.332C114.695 166.399 114.379 166.2 113.974 165.729Z" fill="#933C12"/>
<path d="M110.016 161.702C110.246 161.627 110.543 161.835 110.93 162.318C110.708 162.39 110.395 162.187 110.016 161.702Z" fill="#933C12"/>
<path d="M82.8372 213.355C82.6332 213.424 82.3511 213.239 81.9741 212.814C82.1725 212.75 82.4657 212.926 82.8372 213.355Z" fill="#2E2D2A"/>
<path d="M110.979 162.756C111.182 162.693 111.482 162.897 111.904 163.354C111.709 163.412 111.393 163.218 110.979 162.756Z" fill="#933C12"/>
<path d="M184.631 339.277C183.826 339.616 182.961 339.612 181.661 339.58C181.318 339.39 181.41 339.228 181.664 338.837C182.741 338.717 183.656 338.824 184.631 339.277Z" fill="#176F6E"/>
<path d="M106.059 235.548C106.08 235.221 106.303 234.756 106.675 234.454C106.704 234.93 106.517 235.194 106.059 235.548Z" fill="#151310"/>
<path d="M169.201 344.193C164.841 345.362 160.093 347.194 155.247 347.507C140.715 348.444 126.243 347.419 112.01 344.153C109 343.463 106.146 342.092 103.088 340.685C104.152 340.626 105.348 340.917 106.906 341.287C127.56 346.906 148.055 347.919 169.201 344.193Z" fill="#176F6E"/>
<path d="M180.527 339.647C179.359 340.622 177.864 341.602 175.983 342.511C175.97 342.041 176.343 341.641 176.806 340.978C177.485 340.573 178.072 340.431 178.778 340.003C179.331 339.695 179.765 339.673 180.527 339.647Z" fill="#176F6E"/>
<path d="M172.414 343.401C171.981 343.776 171.199 344.176 170.052 344.495C170.48 344.084 171.272 343.755 172.414 343.401Z" fill="#176F6E"/>
<path d="M175.409 342.397C174.974 342.77 174.197 343.183 173.049 343.551C173.474 343.149 174.271 342.793 175.409 342.397Z" fill="#176F6E"/>
<path d="M100.829 339.28C99.3745 338.953 97.746 338.381 96.0049 337.44C96.568 337.304 97.2439 337.538 98.2704 337.84C99.2993 338.284 99.9775 338.66 100.829 339.28Z" fill="#176F6E"/>
<path d="M102.903 340.128C102.433 340.285 101.795 340.173 101.028 339.745C101.511 339.573 102.124 339.717 102.903 340.128Z" fill="#176F6E"/>
<path d="M121.776 140.419C121.759 140.092 121.891 139.845 122.665 139.559C123.374 139.146 123.589 138.849 123.804 138.553C123.804 138.553 123.805 138.631 124.187 138.627C129.051 138.948 133.532 139.274 138.014 139.599C138.356 139.597 138.614 139.744 138.838 140.612C139.353 141.603 139.818 142.02 140.284 142.437C140.284 142.437 140.135 142.524 140.028 142.866C139.921 147.069 139.919 150.929 139.918 154.789C139.918 154.789 139.892 154.698 139.657 154.789C139.254 155.231 139.086 155.581 138.917 155.93C138.947 156.241 138.83 156.481 138.072 156.761C137.343 157.168 137.109 157.464 136.876 157.761C136.876 157.761 136.879 157.681 136.501 157.674C132.288 157.712 128.452 157.758 124.617 157.804C124.617 157.804 124.75 157.772 124.658 157.541C124.194 157.169 123.822 157.027 123.45 156.885C123.45 156.885 123.666 156.852 123.595 156.635C123.15 156.274 122.775 156.13 122.4 155.986C122.4 155.986 122.552 155.892 122.537 155.658C122.167 155.233 121.81 155.042 121.454 154.851C121.454 154.851 121.656 154.794 121.62 154.597C121.287 154.167 120.99 153.935 120.692 153.703C120.692 153.703 120.785 153.704 120.808 153.277C120.818 149.083 120.805 145.317 120.792 141.551C120.792 141.551 120.826 141.618 121.059 141.526C121.453 141.096 121.615 140.757 121.776 140.419Z" fill="#34322F"/>
<path d="M137.828 139.275C133.533 139.274 129.051 138.949 124.153 138.61C128.457 135.351 133.077 136.082 137.828 139.275Z" fill="#151310"/>
<path d="M120.501 141.8C120.805 145.317 120.818 149.083 120.795 153.321C118.112 149.994 118.319 146.061 120.501 141.8Z" fill="#151310"/>
<path d="M140.231 154.554C139.919 150.928 139.921 147.068 140.022 142.78C142.931 146.247 142.275 150.264 140.231 154.554Z" fill="#151310"/>
<path d="M124.847 158.121C128.453 157.758 132.288 157.712 136.539 157.687C133.161 160.647 129.152 160.08 124.847 158.121Z" fill="#151310"/>
<path d="M140.181 142.142C139.819 142.02 139.353 141.603 138.885 140.839C139.281 140.944 139.68 141.396 140.181 142.142Z" fill="#151310"/>
<path d="M122.515 156.248C122.775 156.13 123.15 156.274 123.571 156.742C123.287 156.88 122.959 156.695 122.515 156.248Z" fill="#151310"/>
<path d="M123.577 157.145C123.822 157.027 124.194 157.169 124.651 157.61C124.392 157.74 124.048 157.572 123.577 157.145Z" fill="#151310"/>
<path d="M123.535 138.629C123.589 138.849 123.374 139.146 122.881 139.514C122.823 139.293 123.044 138.999 123.535 138.629Z" fill="#151310"/>
<path d="M137.151 157.677C137.11 157.464 137.344 157.168 137.867 156.799C137.913 157.016 137.67 157.304 137.151 157.677Z" fill="#151310"/>
<path d="M121.556 155.122C121.81 155.042 122.167 155.233 122.529 155.747C122.243 155.844 121.95 155.618 121.556 155.122Z" fill="#151310"/>
<path d="M139.168 155.794C139.086 155.581 139.254 155.231 139.705 154.787C139.798 155.015 139.608 155.337 139.168 155.794Z" fill="#151310"/>
<path d="M120.771 153.977C120.99 153.935 121.288 154.167 121.613 154.701C121.377 154.752 121.113 154.501 120.771 153.977Z" fill="#151310"/>
<path d="M121.527 140.546C121.614 140.757 121.453 141.096 121.022 141.527C120.927 141.304 121.102 140.988 121.527 140.546Z" fill="#151310"/>
<path d="M187.815 146.56C187.779 146.198 187.915 145.92 188.811 145.69C190.203 145.042 191.008 144.429 191.814 143.816C195.033 144.161 198.526 143.825 201.414 144.991C207.445 147.426 209.569 153.474 206.895 158.604C203.292 165.514 198.311 167.335 191.832 164.128C191.418 163.923 190.947 163.832 190.086 163.206C189.231 162.571 188.793 162.418 188.354 162.264C188.354 162.264 188.355 162.163 188.423 161.806C188.141 161.264 187.791 161.079 187.44 160.895C187.44 160.895 187.618 160.827 187.596 160.621C187.285 160.177 186.996 159.94 186.707 159.702C186.707 159.702 186.791 159.701 186.816 159.271C186.796 155.378 186.751 151.916 186.707 148.454C186.707 148.454 186.74 148.577 186.984 148.47C187.423 147.761 187.619 147.161 187.815 146.56Z" fill="#34322F"/>
<path d="M186.404 148.683C186.751 151.916 186.796 155.378 186.801 159.31C184.249 156.297 184.541 152.644 186.404 148.683Z" fill="#1B1816"/>
<path d="M191.498 143.803C191.008 144.429 190.203 145.042 189.046 145.63C189.524 145 190.354 144.395 191.498 143.803Z" fill="#1B1816"/>
<path d="M187.573 146.742C187.619 147.161 187.423 147.762 186.92 148.467C186.852 148.022 187.092 147.473 187.573 146.742Z" fill="#1B1816"/>
<path d="M188.498 162.447C188.793 162.418 189.231 162.571 189.733 163.01C189.411 163.074 189.026 162.852 188.498 162.447Z" fill="#1B1816"/>
<path d="M187.534 161.151C187.791 161.079 188.141 161.264 188.457 161.768C188.158 161.86 187.893 161.633 187.534 161.151Z" fill="#1B1816"/>
<path d="M186.78 159.972C186.996 159.94 187.285 160.177 187.586 160.716C187.35 160.758 187.101 160.5 186.78 159.972Z" fill="#1B1816"/>
</svg>
