<svg  viewBox="0 0 273 619" fill="none" xmlns="http://www.w3.org/2000/svg">
<path d="M195.487 326.86C194.18 332.287 192.873 337.714 191.327 343.614C190.827 344.252 190.63 344.474 190.5 344.811C190.505 344.87 190.387 344.88 190.08 344.915C189.427 345.387 189.081 345.823 188.69 346.207C188.645 346.154 188.782 346.132 188.499 346.157C187.994 346.472 187.771 346.761 187.545 347.006C187.542 346.962 187.625 346.992 187.223 346.964C176.149 348.897 165.543 351.529 154.782 352.604C146.457 353.436 137.912 352.639 129.512 351.976C121.474 351.341 113.497 349.944 105.259 348.606C102.848 347.848 100.67 347.366 98.2669 346.611C95.4597 345.576 92.8771 344.815 90.3441 344.045C90.3937 344.036 90.3572 344.13 90.3144 343.934C90.0466 343.873 89.8217 344.008 89.5534 344.584C89.841 349.135 89.727 353.341 90.585 357.338C93.3987 370.445 96.5655 383.476 99.5518 396.951C99.3434 400.161 99.18 402.955 98.8151 405.97C97.5182 407.058 96.4228 407.926 94.998 408.872C92.9109 409.917 91.1531 410.883 89.4296 411.863C89.4639 411.877 89.4633 411.803 89.0738 411.848C81.7499 413.105 74.8153 414.317 67.7329 415.542C67.585 415.555 67.5578 415.851 67.6115 415.507C67.003 414.016 66.3409 412.869 65.649 411.762C65.6193 411.803 65.7201 411.81 65.7481 411.438C65.0381 409.299 64.3 407.533 63.5728 405.8C63.5837 405.834 63.6409 405.792 63.5884 405.432C62.5622 403.423 61.5886 401.774 60.615 400.126C58.3934 392.356 55.5719 384.698 54.0953 376.79C52.0402 365.783 49.5555 354.554 49.8231 343.482C50.3243 322.746 53.8096 302.32 63.7283 282.951C64.6276 281.682 65.2455 280.944 65.8141 280.162C65.7648 280.118 65.7736 280.25 66.0301 280.106C66.346 279.604 66.4053 279.246 66.5591 278.617C66.9703 277.879 67.2867 277.413 67.9038 276.806C73.6885 272.211 79.1724 267.758 84.99 263.18C87.4304 261.783 89.4196 260.226 91.6678 259.294C97.0003 257.084 98.7846 253.612 98.848 247.62C98.8934 243.317 102.2 239.048 104.358 234.687C104.888 234.272 105.112 233.935 105.339 233.655C105.341 233.713 105.244 233.649 105.555 233.728C106.078 233.838 106.289 233.87 106.496 234.274C108.824 236.064 111.156 237.482 113.493 239.276C114.757 243.851 117.734 245.225 122.029 244.733C122.211 244.736 122.488 244.971 122.487 245.281C122.582 246.066 122.53 246.841 122.796 246.973C131.307 251.196 140.435 252.778 149.828 253.323C150.778 253.378 151.67 254.428 152.559 254.963C152.528 254.91 152.628 254.981 152.287 254.979C149.058 255.951 148.856 257.249 151.523 259.225C151.519 260.008 151.464 260.456 151.128 261.051C148.481 263.617 150.08 264.396 152.51 265.109C152.898 265.561 153.148 265.795 153.41 265.987C153.422 265.946 153.336 265.947 153.395 266.227C153.725 266.724 153.998 266.941 154.193 267.166C154.116 267.173 154.107 267.329 154.152 267.513C154.31 267.929 154.465 268.129 154.845 268.576C156.186 269.889 157.342 270.924 158.666 272.183C159.181 272.527 159.528 272.647 160.045 272.759C160.214 272.751 160.486 272.952 160.491 273.303C161.548 274.711 162.6 275.768 163.601 276.824C163.549 276.825 163.577 276.724 163.63 276.964C163.814 277.516 164.027 277.758 164.465 278.068C164.608 278.209 164.992 278.325 165.027 278.325C165.061 278.324 165.063 278.255 165.098 278.535C165.279 279.163 165.426 279.511 165.289 279.871C164.815 279.893 164.626 279.905 164.059 279.739C161.728 279.338 159.778 279.056 157.818 278.9C149.091 278.205 140.202 278.36 131.672 276.682C118.847 274.159 105.616 271.557 98.0853 258.476C98.6123 261.305 98.87 264.585 100.643 266.271C105 270.413 109.544 275.066 114.931 277.276C127.851 282.578 141.47 285.225 155.624 282.953C158.878 282.43 162.183 282.223 165.615 282.1C166.341 282.177 166.917 282.024 167.711 281.919C167.93 281.966 168.357 282.095 168.385 282.043C168.412 281.992 168.297 281.97 168.403 282.224C168.815 282.672 169.12 282.866 169.428 283.004C169.431 282.948 169.32 282.967 169.43 283.206C169.847 283.565 170.153 283.685 170.807 283.974C175.622 284.989 180.089 285.835 184.798 286.69C185.313 286.501 185.495 286.24 185.826 285.901C186.065 285.887 186.527 285.76 186.812 285.83C188.938 285.258 190.78 284.615 192.575 283.962C192.528 283.952 192.531 284.047 192.845 283.968C193.995 283.239 194.832 282.589 195.883 281.893C196.382 281.693 196.532 281.455 196.799 281.002C197.248 280.559 197.446 280.246 197.583 279.934C197.522 279.934 197.541 280.055 197.796 279.952C198.242 279.542 198.431 279.235 198.577 278.931C198.533 278.934 198.558 279.018 198.829 278.864C199.326 278.153 199.552 277.596 199.712 277.015C199.647 276.991 199.726 277.105 200.043 276.971C201.525 274.3 202.937 271.843 203.787 269.205C204.595 266.699 204.815 264.003 205.608 261.597C211.434 268.188 216.946 274.573 222.522 281.202C222.852 281.641 223.118 281.838 223.4 282.013C223.416 281.991 223.366 282.015 223.495 282.315C224.914 284.071 226.202 285.528 227.491 286.985C234.115 295.092 241.632 302.647 247.091 311.474C251.773 319.042 255.638 327.805 257.119 336.507C259.54 350.725 242.997 361.836 229.636 355.944C220.882 352.083 213.232 346.648 206.534 339.02C206.009 338.291 205.734 338.096 205.458 337.901C205.458 337.901 205.488 337.89 205.382 337.674C205.003 337.274 204.731 337.088 204.458 336.902C204.458 336.902 204.49 336.895 204.47 336.604C204.12 335.848 203.79 335.384 203.459 334.919C203.459 334.919 203.474 334.894 203.442 334.549C199.264 327.039 195.168 319.844 190.928 312.736C190.063 311.285 188.656 310.157 187.494 308.508C186.573 305.876 185.656 303.617 184.738 301.358C184.243 301.609 183.749 301.86 183.254 302.111C184.661 304.374 186.069 306.636 187.516 309.257C188.318 311.25 189.091 312.879 189.843 314.518C191.729 318.629 193.606 322.745 195.487 326.86Z" fill="#F4EEE3"/>
<path d="M268.174 157.848C267.953 160.927 267.732 164.005 267.222 167.631C266.751 168.454 266.617 168.75 266.532 169.068C266.532 169.068 266.542 169.512 266.172 170.012C265.714 176.981 265.626 183.45 265.539 189.918C265.274 197.333 265.009 204.748 264.275 212.855C263.685 222.609 263.512 231.671 263.489 240.734C263.484 242.443 264.077 244.154 264.393 245.864C264.447 247.6 264.501 249.336 264.169 251.628C263.977 253.412 264.171 254.64 264.365 255.867C264.426 257.603 264.487 259.34 264.2 261.698C264.027 263.5 264.204 264.68 264.38 265.859C264.438 266.32 264.496 266.781 264.169 267.865C263.694 272.986 263.602 277.484 263.511 281.983C258.367 288.323 254.999 289.304 247.789 286.097C247.245 285.448 246.773 285.243 246.301 285.039C246.301 285.039 246.436 284.947 246.438 284.637C245.74 283.546 245.04 282.766 244.34 281.985C244.34 281.985 244.438 281.965 244.445 281.558C244.131 274.897 243.586 268.646 243.529 262.39C243.351 242.841 243.357 223.29 243.335 203.754C243.378 203.769 243.405 203.855 243.692 203.666C244.127 202.593 244.276 201.709 244.447 200.858C244.47 200.891 244.393 200.868 244.682 200.68C245.122 199.604 245.273 198.716 245.446 197.861C245.469 197.894 245.393 197.866 245.704 197.672C246.793 193.584 247.571 189.691 248.408 185.605C248.468 185.411 248.586 185.023 248.965 184.994C258.683 183.225 266.766 168.293 263.352 158.956C261.674 154.365 259.357 150.401 253.444 150.423C253.409 143.291 253.705 136.611 253.336 129.967C252.479 114.529 248.923 99.8798 241.31 86.1442C231.36 68.194 214.881 59.6723 196.497 53.8197C193.677 52.922 190.056 54.9541 186.826 54.8644C171.791 54.4472 157.788 58.4462 144.548 65.0116C125.32 74.5457 111.29 90.2673 97.4264 106.055C91.1066 113.251 85.0214 120.654 78.8748 127.91C75.5542 125.482 72.5005 123.249 69.5928 120.69C78.8071 100.384 91.7247 83.3133 107.66 68.2226C130.908 46.2068 158.335 35.4586 190.16 37.0978C208.352 38.0348 225.216 43.9583 238.298 57.3245C251.937 71.26 257.289 89.0077 259.497 107.891C260.128 113.291 260.488 118.723 260.972 124.141C263.438 112.52 265.438 101.018 263.887 89.1639C262.318 77.1699 257.687 66.5347 250.43 56.5869C252.032 55.8932 253.223 55.3771 254.704 55.0316C255.894 55.722 256.795 56.2417 257.696 56.7614C257.696 56.7614 257.597 56.7825 257.555 57.1424C257.88 59.6848 257.071 62.7166 260.998 62.3268C260.998 62.3268 261.008 62.4596 260.815 62.9199C260.887 64.6422 260.968 65.9782 261.444 67.1548C266.759 80.3122 270.131 93.9383 270.371 108.139C270.509 116.327 269.913 124.551 269.216 132.723C268.824 137.321 267.089 141.818 266.827 146.41C266.611 150.185 267.676 154.033 268.174 157.848Z" fill="#3A3630"/>
<path d="M151.458 0.0675527C153.194 0.00793672 154.93 -0.0516948 157.197 0.357378C163.032 1.15097 168.336 1.47588 173.641 1.80078C173.641 1.80078 173.511 1.82457 173.716 2.10468C175.809 2.54514 177.695 2.70548 179.582 2.8658C182.318 3.52896 185.054 4.19213 188.406 5.21378C194.241 7.1843 199.519 8.63301 204.665 10.4532C210.077 12.3675 215.364 14.6371 220.705 16.7515C220.705 16.7515 220.56 16.7874 220.663 17.0299C221.385 17.4582 222.003 17.6441 222.62 17.8299C222.62 17.8299 222.543 17.8582 222.547 18.1872C223.589 18.939 224.627 19.3619 225.666 19.7848C225.666 19.7848 225.575 19.8101 225.544 20.0669C226.165 20.5275 226.816 20.7313 227.467 20.9352C230.759 24.008 234.052 27.0809 237.353 30.7701C235.559 32.816 233.755 34.2457 232.469 35.2648C194.03 9.7426 153.918 8.45134 114.406 28.9255C78.6069 47.4758 62.4445 80.26 59.1511 120.001C49.7957 122.532 45.7344 128.763 44.2683 137.684C42.907 145.968 45.421 153.034 49.2097 160.036C49.2313 160.372 49.4048 160.605 49.5881 160.81C49.598 160.781 49.6536 160.757 49.5984 161.168C43.5103 184.572 37.3909 207.543 31.4842 230.567C28.8661 240.773 26.6782 251.088 24.2949 261.354C22.9127 261.804 21.3201 261.957 20.1871 262.759C16.497 265.371 12.7587 267.085 7.78498 264.496C5.9336 263.405 4.54145 262.788 3.1493 262.172C3.1493 262.172 3.26826 262.119 3.30506 261.749C3.27778 257.963 2.45417 254.349 3.28553 251.167C6.31758 239.564 10.1231 228.164 13.2248 216.577C17.4562 200.77 21.3015 184.86 25.3289 168.998C28.0076 158.448 30.707 147.903 33.4125 137.36C38.5441 117.363 43.6914 97.3699 48.8188 77.3715C49.3849 75.1636 49.865 72.9336 50.385 70.7139C50.385 70.7139 50.4197 70.8225 50.7205 70.7397C51.8239 68.3616 52.6263 66.0663 53.4289 63.771C53.4289 63.771 53.4584 63.8465 53.7224 63.7255C54.119 62.9754 54.2518 62.3463 54.3845 61.7172C54.3845 61.7172 54.4201 61.8291 54.6762 61.718C55.0811 60.9743 55.23 60.3416 55.379 59.7089C55.379 59.7089 55.4152 59.8262 55.6672 59.7178C56.0797 58.9857 56.2402 58.3621 56.4008 57.7385C56.4008 57.7385 56.432 57.8377 56.6857 57.727C57.1013 56.9991 57.2631 56.3817 57.4249 55.7644C57.4249 55.7644 57.4521 55.8406 57.695 55.7381C58.0095 55.2504 58.0812 54.8651 58.1528 54.4798C58.1528 54.4798 58.1533 54.6622 58.4103 54.6341C58.9556 53.708 59.2441 52.81 59.5325 51.912C64.1967 46.0778 68.5254 39.9287 73.6211 34.4995C78.5363 29.2626 84.0907 24.5816 89.6701 20.0316C92.2579 17.9211 95.5715 16.7008 99.2612 14.9832C102.114 14.0542 104.334 13.3663 106.398 12.3598C119.694 5.87796 133.66 2.13141 148.829 1.82173C149.93 1.24816 150.694 0.657839 151.458 0.0675527Z" fill="#3B3732"/>
<path d="M59.4785 119.856C62.4445 80.26 78.6069 47.4758 114.406 28.9255C153.918 8.45135 194.03 9.74261 232.469 35.2648C233.755 34.2457 235.559 32.816 237.505 31.071C246.76 25.9023 256.226 24.2055 266.171 27.8548C272.955 30.344 274.642 35.5041 269.902 40.7786C265.814 45.3282 260.89 49.1269 256.006 53.6385C255.256 54.2999 254.835 54.5804 254.414 54.8609C253.223 55.377 252.031 55.8931 250.43 56.5869C257.687 66.5347 262.317 77.1699 263.886 89.1638C265.438 101.018 263.438 112.52 260.972 124.141C260.488 118.723 260.128 113.291 259.497 107.891C257.289 89.0077 251.937 71.26 238.298 57.3245C225.216 43.9583 208.352 38.0348 190.16 37.0978C158.334 35.4586 130.908 46.2068 107.66 68.2226C91.7244 83.3133 78.8067 100.384 69.1934 120.609C65.5919 120.521 62.5352 120.189 59.4785 119.856Z" fill="#8A5487"/>
<path d="M74.5712 516.925C74.4847 516.471 74.3982 516.016 74.8164 515.274C83.5082 516.626 91.6697 518.412 99.8921 519.85C105.041 520.75 110.303 521.001 115.46 521.869C116.288 522.008 116.828 523.852 117.496 525.356C117.517 528.213 117.542 530.622 117.567 533.03C117.567 533.03 117.527 532.915 117.254 533.141C116.765 538.525 116.548 543.682 116.332 548.839C116.369 549.026 116.406 549.212 115.986 549.76C115.45 553.032 115.37 555.944 115.29 558.856C114.701 564.249 114.112 569.642 113.236 575.651C112.787 576.777 112.625 577.287 112.163 577.951C110.69 579.283 109.48 580.427 108.35 581.645C97.7199 593.106 84.7966 598.491 69.0425 596.958C61.3367 596.208 57.7667 593.431 57.3931 586.602C57.4411 585.788 57.4519 585.322 57.4626 584.856C59.2393 582.257 61.0161 579.659 63.2543 577.076C63.7999 576.58 63.884 576.067 63.9681 575.555C63.9681 575.555 64.0492 575.545 64.4005 575.538C64.8784 574.895 65.0049 574.26 65.1313 573.624C65.1313 573.624 65.3432 573.776 65.5838 573.652C66.6991 571.774 68.0807 570.098 68.3677 568.252C70.5313 554.338 72.5551 540.4 74.437 526.445C74.858 523.322 74.5457 520.101 74.5712 516.925Z" fill="#AA5B2A"/>
<path d="M216.436 577.887C216.436 577.887 216.626 578.042 216.663 578.493C217.036 579.237 217.371 579.53 217.706 579.822C217.706 579.822 217.533 579.733 217.647 579.959C218.114 580.354 218.468 580.524 218.822 580.693C218.822 580.693 218.642 580.7 218.689 580.967C219.453 581.664 220.171 582.095 220.889 582.525C220.889 582.525 220.932 582.432 220.858 582.631C221.022 582.834 221.26 582.839 221.498 582.844C222.997 584.036 224.497 585.23 226.075 587.015C225.846 593.222 222.719 595.882 217.256 595.983C214.157 596.041 211.008 596.304 207.962 595.887C192.737 593.805 179.65 587.17 168.344 576.424C167.687 574.427 166.709 572.828 166.551 571.152C165.706 562.191 165.035 553.212 164.366 544.235C163.933 538.423 163.804 532.581 163.133 526.799C162.861 524.446 161.514 522.219 160.656 519.934C160.589 517.51 160.522 515.087 160.771 512.357C161.541 512.665 162.431 513.319 162.379 513.887C161.959 518.465 164.59 519.157 168.281 518.913C174.717 518.489 181.181 518.393 187.598 517.785C192.468 517.324 197.283 516.283 201.949 515.529C202.465 511.339 202.921 507.634 203.403 504.39C203.778 510.455 204.027 516.068 204.499 521.662C205.482 533.333 206.22 545.043 207.801 556.635C208.509 561.835 211.004 566.791 212.688 571.857C212.688 571.857 212.557 571.852 212.532 572.169C213.817 574.287 215.126 576.087 216.436 577.887Z" fill="#AA5B2A"/>
<path d="M226.13 458.969C227.405 464.842 229.275 470.669 229.737 476.606C230.028 480.336 227.766 483.835 223.723 485.55C217.382 488.241 211.12 491.122 204.194 494.085C202.749 494.703 201.935 495.159 200.736 495.657C186.687 497.987 173.023 500.275 159.278 502.202C155.549 501.852 151.896 501.983 148.254 501.849C140.35 501.556 132.452 501.099 124.548 500.811C123.891 500.787 123.206 501.526 122.534 501.911C122.534 501.911 122.535 502.059 122.063 501.984C117.81 501.402 113.979 501.128 110.255 500.345C98.9175 497.962 87.6212 495.383 76.3088 492.88C68.4402 489.587 60.3828 486.677 52.7473 482.912C41.2988 477.266 41.2053 476.618 42.7955 464.115C43.6154 463.007 44.077 462.432 44.7507 461.753C45.2229 461.448 45.3929 461.188 45.4703 460.88C45.4678 460.89 45.4553 460.866 45.8154 460.909C53.4667 464.865 60.5531 469.249 68.1152 472.54C73.957 475.083 80.3726 476.339 86.5742 478.015C94.1642 480.066 101.719 482.37 109.427 483.84C128.438 487.465 147.607 487.855 166.872 485.953C185.617 484.102 203.226 478.895 219.269 468.914C222.489 466.911 226.678 465.172 225.621 459.701C225.919 459.305 226.025 459.137 226.13 458.969Z" fill="#288381"/>
<path d="M67.6032 276.947C67.2868 277.413 66.9703 277.879 66.3136 278.756C65.9067 279.528 65.8402 279.889 65.7737 280.25C65.7737 280.25 65.7649 280.118 65.3879 280.065C62.9602 279.543 60.8049 279.332 58.8787 278.553C53.8128 276.506 48.8466 274.213 43.8406 272.017C43.6027 271.869 43.4844 271.654 43.6288 270.8C43.9598 269.766 44.2538 269.32 44.3209 268.843C46.0407 256.593 47.7241 244.338 49.4411 232.088C50.7691 222.612 52.1762 213.148 53.471 203.668C54.9847 192.586 56.4146 181.492 57.9508 169.875C59.9643 169.875 61.7523 169.875 63.8612 169.887C64.6107 169.884 65.0393 169.869 65.6648 170.107C67.4359 169.832 69.0098 169.302 70.8807 168.582C72.1134 169.267 73.588 169.987 73.8918 171.044C75.2114 175.635 76.1898 180.324 77.0923 185.135C77.1024 185.833 77.3126 186.372 77.5554 187.087C77.588 187.263 77.588 187.621 77.5532 188.076C77.4985 189.528 77.5601 190.534 77.4461 191.521C75.4561 208.72 73.5922 225.935 71.3811 243.106C70.0994 253.058 68.1949 262.93 66.7277 272.861C66.5371 274.152 67.2883 275.582 67.6032 276.947Z" fill="#3C3833"/>
<path d="M63.5401 169.875C61.7522 169.875 59.9642 169.875 57.9507 169.875C56.4146 181.492 54.9846 192.586 53.4709 203.668C52.1761 213.148 50.769 222.612 49.441 232.088C47.7241 244.338 46.0406 256.593 44.3208 268.843C44.2537 269.32 43.9598 269.766 43.6083 270.611C37.2067 267.948 30.9681 264.903 24.5122 261.605C26.6782 251.088 28.8661 240.773 31.4842 230.567C37.3909 207.543 43.5103 184.572 49.8783 161.344C54.6556 164.031 59.0979 166.953 63.5401 169.875Z" fill="#2E2D2A"/>
<path d="M168.403 576.787C179.65 587.17 192.737 593.805 207.962 595.887C211.008 596.304 214.157 596.041 217.256 595.983C222.719 595.882 225.846 593.222 226.285 587.255C231.969 591.792 238.038 596.221 242.923 601.705C247.545 606.893 246.592 610.098 240.618 614.455C239.64 614.623 239.172 614.934 238.703 615.245C238.703 615.245 238.571 615.19 238.15 615.064C228.9 614.921 220.07 614.87 211.242 614.925C210.005 614.932 208.771 615.461 207.536 615.748C207.36 615.79 207.183 615.833 206.674 615.467C199.803 613.035 193.269 610.997 186.712 609.032C186.414 608.943 185.919 609.512 185.515 609.774C182.476 608.491 179.342 607.392 176.418 605.886C170.232 602.699 166.516 597.801 166.287 590.554C166.14 585.921 165.709 581.296 165.77 576.206C166.891 576.092 167.647 576.439 168.403 576.787Z" fill="#E97351"/>
<path d="M191.51 344.768C191.881 349.452 192.252 354.136 192.594 359.319C192.565 359.817 192.459 359.911 192.212 359.755C191.319 359.355 190.439 358.707 190.061 358.926C175.648 367.259 159.585 368.706 143.628 368.602C132.388 368.529 121.084 366.159 109.966 364.004C103.961 362.84 98.2862 359.974 92.4618 357.647C92.4612 357.419 92.4749 356.962 92.3897 356.74C92.1353 356.234 91.8926 356.042 91.5565 355.556C91.5437 354.39 91.5505 353.612 91.8083 352.628C91.8776 351.253 91.696 350.084 91.508 348.658C91.5008 348.229 91.4998 348.057 91.7035 347.793C92.1692 347.529 92.3433 347.293 92.7911 346.961C93.631 346.876 94.1104 346.822 94.5642 346.794C94.5387 346.82 94.5261 346.749 94.6449 347.102C96.6985 348.278 98.5683 349.342 100.579 349.888C120.547 355.317 140.792 357.607 161.436 354.921C163.813 354.611 166.172 354.166 168.938 353.823C175.537 351.85 182.629 352.211 187.625 346.992C187.625 346.992 187.542 346.962 187.809 346.93C188.31 346.643 188.546 346.387 188.782 346.132C188.782 346.132 188.645 346.154 188.964 346.125C189.651 345.69 190.019 345.285 190.387 344.88C190.387 344.88 190.505 344.87 190.754 344.758C191.172 344.687 191.341 344.727 191.51 344.768Z" fill="#298381"/>
<path d="M243.292 203.74C243.357 223.29 243.35 242.841 243.528 262.39C243.585 268.646 244.13 274.897 244.419 281.601C239.017 283.659 233.648 285.268 227.885 286.931C226.202 285.528 224.914 284.071 223.891 282.219C224.934 280.208 226.33 278.613 226.389 276.971C226.892 262.911 227.229 248.843 227.419 234.775C227.455 232.118 226.618 229.448 226.385 226.505C232.155 218.73 237.723 211.235 243.292 203.74Z" fill="#2E2D2A"/>
<path d="M76.3021 493.295C87.6212 495.383 98.9174 497.962 110.255 500.345C113.979 501.128 117.81 501.402 121.992 502.006C121.369 509.576 120.345 517.049 118.695 524.718C117.88 524.911 117.691 524.91 117.502 524.909C116.828 523.852 116.288 522.008 115.46 521.869C110.303 521.001 105.041 520.75 99.8921 519.85C91.6697 518.412 83.5082 516.626 74.9351 514.938C75.1312 507.829 75.7133 500.769 76.3021 493.295ZM118.003 518.516C117.949 518.73 117.894 518.944 117.84 519.158C117.973 519.021 118.105 518.884 118.003 518.516Z" fill="#A05324"/>
<path d="M159.359 502.563C173.023 500.275 186.687 497.987 201.072 495.907C202.321 498.72 202.849 501.325 203.377 503.929C202.921 507.634 202.465 511.339 201.949 515.529C197.283 516.283 192.468 517.324 187.598 517.785C181.181 518.393 174.717 518.489 168.281 518.913C164.59 519.157 161.959 518.465 162.379 513.887C162.431 513.319 161.541 512.665 160.696 512.003C159.828 509.188 159.35 506.419 158.995 503.198C159.118 502.745 159.359 502.563 159.359 502.563Z" fill="#A05324"/>
<path d="M50.1132 70.9496C49.865 72.9337 49.3849 75.1637 48.8188 77.3716C43.6913 97.3699 38.5441 117.363 33.4125 137.36C30.707 147.903 28.0076 158.448 25.3289 168.998C21.3015 184.86 17.4562 200.77 13.2248 216.578C10.123 228.164 6.31757 239.564 3.28552 251.167C2.45416 254.349 3.27777 257.963 3.28192 261.81C-0.751099 259.192 -0.400269 255.304 0.831299 251.063C6.7569 230.66 13.0344 210.345 18.3559 189.784C26.0893 159.904 32.929 129.793 40.5389 99.8788C43.0127 90.1548 46.7059 80.7409 50.1132 70.9496Z" fill="#1B1816"/>
<path d="M268.279 157.419C267.676 154.033 266.611 150.185 266.827 146.41C267.089 141.818 268.824 137.321 269.216 132.723C269.913 124.551 270.509 116.327 270.371 108.139C270.131 93.9383 266.759 80.3121 261.444 67.1547C260.968 65.9781 260.887 64.6422 260.791 62.9816C269.203 77.9911 272.301 94.5918 271.548 111.85C270.891 126.914 269.469 141.944 268.279 157.419Z" fill="#1B1816"/>
<path d="M203.403 504.39C202.849 501.325 202.321 498.72 201.458 495.865C201.935 495.159 202.749 494.703 203.842 494.258C205.567 512.415 206.794 530.582 208.564 548.697C209.298 556.204 211.192 563.599 212.623 571.451C211.004 566.791 208.509 561.835 207.8 556.635C206.22 545.043 205.482 533.333 204.499 521.662C204.027 516.068 203.778 510.455 203.403 504.39Z" fill="#933C12"/>
<path d="M44.5383 461.857C44.0766 462.432 43.6149 463.007 42.9048 463.712C47.0676 447.736 51.4334 431.616 55.9169 415.529C57.2904 410.6 58.9861 405.762 60.5747 400.504C61.5886 401.774 62.5621 403.423 63.2488 405.368C61.9401 406.473 60.3066 407.091 59.9885 408.117C55.3975 422.927 50.9219 437.774 46.5845 452.66C45.8204 455.283 45.8121 458.125 45.4549 460.866C45.4549 460.866 45.4674 460.89 45.254 460.979C44.7864 461.276 44.619 461.539 44.5383 461.857Z" fill="#176F6E"/>
<path d="M168.344 576.424C167.647 576.439 166.891 576.092 165.81 575.733C164.541 566.326 163.52 556.938 162.671 547.534C161.868 538.642 161.246 529.734 160.6 520.384C161.514 522.219 162.861 524.446 163.133 526.799C163.804 532.581 163.933 538.423 164.366 544.235C165.035 553.212 165.706 562.191 166.551 571.152C166.709 572.828 167.687 574.427 168.344 576.424Z" fill="#933C12"/>
<path d="M74.3909 517.295C74.5455 520.101 74.8577 523.322 74.4367 526.445C72.5548 540.4 70.531 554.338 68.3675 568.252C68.0804 570.098 66.6989 571.774 65.4629 573.603C70.9105 556.566 70.9943 538.547 73.4726 520.907C73.6263 519.813 73.9606 518.745 74.3909 517.295Z" fill="#933C12"/>
<path d="M100.814 611.293C89.6482 618.999 76.9809 619.303 64.1958 618.387C59.6761 618.063 55.2359 616.629 50.5737 615.351C50.388 614.999 50.4874 614.891 50.9139 614.88C55.8723 615.542 60.3834 616.501 64.94 616.83C77.2382 617.719 89.2566 616.565 100.571 610.993C100.655 611.091 100.814 611.293 100.814 611.293Z" fill="#DD6340"/>
<path d="M148.492 1.80496C133.66 2.13139 119.694 5.87794 106.399 12.3598C104.334 13.3663 102.114 14.0541 99.5708 14.8502C109.412 7.66657 121.175 4.45659 133.139 1.94176C138.209 0.87622 143.441 0.585206 148.914 0.235352C148.983 0.953995 148.737 1.37949 148.492 1.80496Z" fill="#151310"/>
<path d="M198.568 370.809C203.918 385.859 209.268 400.91 214.582 416.398C214.545 416.836 214.47 416.901 214.176 416.691C210.377 406.298 206.849 396.124 203.38 385.93C201.683 380.943 200.098 375.918 198.489 370.885C198.516 370.86 198.568 370.809 198.568 370.809Z" fill="#176F6E"/>
<path d="M187.498 308.881C188.656 310.157 190.063 311.285 190.929 312.736C195.168 319.844 199.264 327.039 203.429 334.562C200.994 332.34 198.539 329.76 195.785 327.02C193.606 322.745 191.729 318.629 189.843 314.518C189.091 312.879 188.318 311.25 187.521 309.254C187.488 308.891 187.498 308.881 187.498 308.881Z" fill="#E6E0D7"/>
<path d="M159.278 502.202C159.359 502.563 159.118 502.745 158.98 502.807C147.016 502.569 135.19 502.27 122.948 501.941C123.205 501.526 123.891 500.787 124.548 500.811C132.452 501.099 140.349 501.556 148.253 501.849C151.896 501.983 155.549 501.852 159.278 502.202Z" fill="#176F6E"/>
<path d="M220.515 16.46C215.364 14.6371 210.078 12.3674 204.665 10.4532C199.519 8.63299 194.242 7.18428 188.779 5.30042C194.239 6.3858 200.09 7.31473 205.6 9.22559C210.697 10.9933 215.43 13.8124 220.515 16.46Z" fill="#151310"/>
<path d="M43.9653 272.36C48.8469 274.213 53.8131 276.506 58.879 278.553C60.8052 279.331 62.9605 279.543 65.4376 280.109C65.2458 280.944 64.6279 281.682 63.759 282.577C57.0352 279.39 50.5625 276.046 43.9653 272.36Z" fill="#24201E"/>
<path d="M207.945 615.826C208.771 615.461 210.005 614.932 211.241 614.925C220.07 614.87 228.9 614.921 238.17 614.995C234.313 615.852 230.022 617.251 225.714 617.307C219.935 617.383 214.141 616.421 207.945 615.826Z" fill="#DD6340"/>
<path d="M112.463 577.798C112.625 577.287 112.787 576.777 113.164 576.099C113.214 585.141 112.543 594.256 108.031 602.89C107.686 603.061 107.489 602.894 107.488 602.504C109.145 594.008 110.804 585.903 112.463 577.798Z" fill="#DD6340"/>
<path d="M216.633 423.757C218.608 431.172 220.582 438.587 222.318 446.434C221.889 446.869 221.698 446.873 221.496 446.47C219.814 438.677 218.143 431.289 216.512 423.865C216.553 423.83 216.633 423.757 216.633 423.757Z" fill="#176F6E"/>
<path d="M185.856 609.917C185.919 609.512 186.414 608.943 186.712 609.032C193.268 610.997 199.803 613.035 206.405 615.423C199.712 613.879 192.954 611.969 185.856 609.917Z" fill="#DD6340"/>
<path d="M264.448 245.399C264.077 244.154 263.484 242.443 263.489 240.734C263.512 231.671 263.685 222.609 264.083 213.242C264.408 223.604 264.455 234.27 264.448 245.399Z" fill="#151310"/>
<path d="M265.907 189.698C265.626 183.45 265.713 176.981 266.094 170.22C266.35 176.445 266.313 182.962 265.907 189.698Z" fill="#151310"/>
<path d="M173.441 1.46826C168.336 1.47584 163.032 1.15094 157.623 0.447812C162.759 0.424985 168 0.780377 173.441 1.46826Z" fill="#1B1816"/>
<path d="M116.409 548.428C116.548 543.682 116.765 538.525 117.314 533.128C117.259 537.932 116.873 542.975 116.409 548.428Z" fill="#933C12"/>
<path d="M263.908 281.789C263.602 277.485 263.693 272.986 264.09 268.207C264.365 272.482 264.335 277.039 263.908 281.789Z" fill="#151310"/>
<path d="M45.3578 612.032C41.9522 608.962 43.4593 605.619 45.1288 602.066C45.4428 601.848 45.5152 601.91 45.5097 602.31C45.5064 605.765 45.5088 608.82 45.4713 611.912C45.4316 611.951 45.3578 612.032 45.3578 612.032Z" fill="#DD6340"/>
<path d="M115.374 558.451C115.37 555.944 115.45 553.032 115.888 550.027C115.983 552.638 115.72 555.342 115.374 558.451Z" fill="#933C12"/>
<path d="M221.506 446.876C221.697 446.873 221.889 446.869 222.366 446.856C223.475 449.49 224.297 452.133 224.991 455.228C224.863 455.679 224.443 455.919 224.178 455.668C223.111 452.57 222.309 449.723 221.506 446.876Z" fill="#288381"/>
<path d="M53.1732 64.0116C52.6263 66.0663 51.8239 68.3616 50.6636 70.7424C51.1764 68.636 52.0469 66.4441 53.1732 64.0116Z" fill="#1B1816"/>
<path d="M216.321 577.571C215.126 576.087 213.817 574.287 212.548 572.106C213.794 573.568 215 575.411 216.321 577.571Z" fill="#933C12"/>
<path d="M260.847 62.0357C257.071 62.7165 257.88 59.6848 257.569 57.0936C258.648 58.3715 259.672 60.0581 260.847 62.0357Z" fill="#1B1816"/>
<path d="M117.497 525.356C117.691 524.91 117.88 524.912 118.353 524.927C118.489 527.514 118.343 530.087 117.881 532.845C117.542 530.622 117.517 528.213 117.497 525.356Z" fill="#933C12"/>
<path d="M3.31982 262.45C4.54163 262.788 5.93378 263.405 7.3916 264.374C6.13495 264.06 4.81256 263.394 3.31982 262.45Z" fill="#1B1816"/>
<path d="M214.583 416.803C215.289 418.843 215.959 420.916 216.631 423.373C216.633 423.757 216.553 423.83 216.225 423.643C215.421 421.271 214.946 419.086 214.47 416.901C214.47 416.901 214.546 416.836 214.583 416.803Z" fill="#176F6E"/>
<path d="M179.456 2.54998C177.696 2.70551 175.809 2.54518 173.715 2.03861C175.448 1.87298 177.389 2.05355 179.456 2.54998Z" fill="#1B1816"/>
<path d="M264.417 255.475C264.171 254.64 263.977 253.412 264.084 252.055C264.413 252.978 264.441 254.03 264.417 255.475Z" fill="#151310"/>
<path d="M50.339 615.053C49.1181 614.571 47.9461 614.034 46.6248 613.2C46.4754 612.901 46.5133 612.854 46.8618 612.864C48.3026 613.546 49.395 614.218 50.4874 614.891C50.4874 614.891 50.388 614.999 50.339 615.053Z" fill="#DD6340"/>
<path d="M254.704 55.0315C254.835 54.5804 255.256 54.2999 255.955 53.9996C256.668 54.7018 257.103 55.4236 257.617 56.4534C256.795 56.2416 255.894 55.7219 254.704 55.0315Z" fill="#1B1816"/>
<path d="M107.786 603.143C107.387 604.119 106.888 605.015 106.033 605.993C105.677 606.075 105.489 605.892 105.506 605.569C106.178 604.462 106.834 603.678 107.489 602.894C107.489 602.894 107.686 603.062 107.786 603.143Z" fill="#DD6340"/>
<path d="M148.829 1.82173C148.737 1.3795 148.983 0.954004 149.342 0.308741C149.901 0.0383253 150.347 -0.0123345 151.125 0.00226852C150.694 0.657832 149.93 1.24815 148.829 1.82173Z" fill="#1B1816"/>
<path d="M59.3562 52.1654C59.2443 52.8101 58.9559 53.7081 58.3364 54.581C58.3968 53.8436 58.7883 53.1311 59.3562 52.1654Z" fill="#1B1816"/>
<path d="M225.505 19.5094C224.627 19.3619 223.589 18.939 222.547 18.1461C223.477 18.2621 224.41 18.748 225.505 19.5094Z" fill="#151310"/>
<path d="M244.404 282.298C245.04 282.766 245.74 283.546 246.39 284.703C245.716 284.257 245.092 283.434 244.404 282.298Z" fill="#2E2D2A"/>
<path d="M51.9985 591.421C52.5958 590.616 53.1932 589.811 54.1032 588.912C54.416 588.818 54.506 588.907 54.4821 589.229C53.8037 590.334 53.1491 591.117 52.3724 591.778C52.2502 591.657 51.9985 591.421 51.9985 591.421Z" fill="#DD6340"/>
<path d="M264.433 265.469C264.203 264.68 264.027 263.5 264.116 262.125C264.416 262.98 264.452 264.029 264.433 265.469Z" fill="#151310"/>
<path d="M227.243 20.7601C226.816 20.7313 226.165 20.5275 225.55 20.0201C226.065 20.0061 226.542 20.2956 227.243 20.7601Z" fill="#151310"/>
<path d="M225.097 455.615C225.518 456.511 225.706 457.472 226.012 458.701C226.025 459.137 225.919 459.305 225.363 459.455C224.757 458.264 224.6 457.092 224.443 455.919C224.443 455.919 224.864 455.679 225.097 455.615Z" fill="#288381"/>
<path d="M220.783 582.239C220.171 582.095 219.453 581.664 218.722 580.883C219.365 581.006 220.021 581.479 220.783 582.239Z" fill="#933C12"/>
<path d="M196.569 366.813C197.007 367.497 197.445 368.181 197.848 369.247C197.813 369.629 197.482 369.896 197.213 369.698C196.783 368.635 196.623 367.771 196.49 366.885C196.517 366.862 196.569 366.813 196.569 366.813Z" fill="#176F6E"/>
<path d="M192.616 359.768C192.968 360.19 193.268 360.661 193.562 361.479C193.556 361.826 193.455 361.913 193.212 361.745C192.798 361.021 192.629 360.466 192.459 359.911C192.459 359.911 192.566 359.817 192.616 359.768Z" fill="#298381"/>
<path d="M57.1873 55.9559C57.2632 56.3818 57.1014 56.9991 56.634 57.7311C56.5354 57.2795 56.7425 56.7135 57.1873 55.9559Z" fill="#1B1816"/>
<path d="M195.537 364.839C195.865 365.301 196.193 365.764 196.545 366.52C196.569 366.813 196.517 366.862 196.228 366.739C195.779 366.049 195.619 365.482 195.479 364.896C195.499 364.878 195.537 364.839 195.537 364.839Z" fill="#176F6E"/>
<path d="M239.009 615.235C239.171 614.934 239.64 614.623 240.279 614.529C240.071 614.906 239.693 615.065 239.009 615.235Z" fill="#DD6340"/>
<path d="M193.603 361.78C193.96 362.192 194.268 362.65 194.57 363.475C194.563 363.841 194.513 363.96 194.26 363.787C193.824 363.048 193.64 362.481 193.456 361.913C193.456 361.913 193.556 361.826 193.603 361.78Z" fill="#298381"/>
<path d="M64.8699 573.774C65.0046 574.26 64.8781 574.895 64.3968 575.578C64.231 575.059 64.4199 574.491 64.8699 573.774Z" fill="#933C12"/>
<path d="M63.7792 575.683C63.8839 576.067 63.7998 576.58 63.545 576.898C63.3885 576.392 63.4605 576.094 63.7792 575.683Z" fill="#933C12"/>
<path d="M57.2269 584.994C57.452 585.322 57.4412 585.788 57.1766 586.587C56.9228 586.919 56.4871 586.892 56.3926 586.793C56.2982 586.695 56.1108 586.497 56.1108 586.497C56.4042 586.042 56.6976 585.586 57.2269 584.994Z" fill="#DD6340"/>
<path d="M222.437 17.5831C222.003 17.6441 221.385 17.4583 220.666 16.9548C221.127 16.8702 221.691 17.1033 222.437 17.5831Z" fill="#151310"/>
<path d="M49.0527 595.454C49.3208 594.973 49.5889 594.493 50.1392 593.918C50.4213 593.825 50.5048 593.906 50.4863 594.205C50.1411 594.967 49.8143 595.43 49.3793 595.782C49.2711 595.672 49.0527 595.454 49.0527 595.454Z" fill="#DD6340"/>
<path d="M47.061 598.465C47.3145 597.972 47.5679 597.479 48.1117 596.896C48.4022 596.805 48.5001 596.902 48.4843 597.203C48.142 597.967 47.8155 598.43 47.3826 598.786C47.2762 598.678 47.061 598.465 47.061 598.465Z" fill="#DD6340"/>
<path d="M45.4077 601.816C45.5557 601.237 45.7384 600.691 46.186 600C46.4511 599.854 46.5157 599.914 46.4877 600.211C46.1447 600.976 45.8298 601.443 45.5148 601.91C45.5148 601.91 45.4424 601.848 45.4077 601.816Z" fill="#DD6340"/>
<path d="M102.525 609.926C102.133 610.315 101.741 610.704 101.082 611.193C100.815 611.293 100.655 611.091 100.725 610.738C101.35 610.208 101.905 610.031 102.475 609.874C102.49 609.892 102.525 609.926 102.525 609.926Z" fill="#DD6340"/>
<path d="M105.021 607.391C104.695 607.836 104.369 608.281 103.769 608.814C103.494 608.902 103.451 608.866 103.475 608.568C103.826 607.809 104.153 607.347 104.613 607.015C104.745 607.144 105.021 607.391 105.021 607.391Z" fill="#DD6340"/>
<path d="M54.1317 61.9006C54.2522 62.3463 54.1194 62.9754 53.6829 63.7332C53.5455 63.2693 53.712 62.6767 54.1317 61.9006Z" fill="#1B1816"/>
<path d="M203.459 335.221C203.79 335.384 204.12 335.849 204.459 336.617C204.132 336.454 203.795 335.989 203.459 335.221Z" fill="#E6E0D7"/>
<path d="M55.1234 59.889C55.2301 60.3415 55.0812 60.9742 54.6177 61.7219C54.4913 61.2476 54.6795 60.6584 55.1234 59.889Z" fill="#1B1816"/>
<path d="M246.393 285.274C246.773 285.243 247.244 285.448 247.53 285.807C247.057 285.811 246.771 285.66 246.393 285.274Z" fill="#2E2D2A"/>
<path d="M56.1464 57.9164C56.2402 58.3621 56.0797 58.9857 55.6059 59.721C55.4924 59.2533 55.6923 58.6738 56.1464 57.9164Z" fill="#1B1816"/>
<path d="M218.739 580.409C218.468 580.524 218.114 580.354 217.702 579.879C217.981 579.757 218.318 579.941 218.739 580.409Z" fill="#933C12"/>
<path d="M217.652 579.477C217.371 579.53 217.036 579.237 216.615 578.606C216.885 578.556 217.242 578.844 217.652 579.477Z" fill="#933C12"/>
<path d="M46.4538 612.923C46.1371 612.797 45.8419 612.649 45.4521 612.267C45.3575 612.032 45.4313 611.951 45.6913 612.015C46.2303 612.271 46.4176 612.53 46.5134 612.854C46.5134 612.854 46.4754 612.901 46.4538 612.923Z" fill="#DD6340"/>
<path d="M46.4199 599.822C46.4811 599.461 46.5737 599.132 46.8639 598.634C47.0614 598.465 47.2766 598.679 47.2886 599.014C47.1149 599.644 46.8534 599.832 46.516 599.914C46.516 599.914 46.4514 599.854 46.4199 599.822Z" fill="#DD6340"/>
<path d="M48.354 596.757C48.4212 596.393 48.5371 596.079 48.853 595.609C49.053 595.454 49.2714 595.672 49.285 596.011C49.1079 596.643 48.8418 596.827 48.5005 596.902C48.5005 596.902 48.4026 596.805 48.354 596.757Z" fill="#DD6340"/>
<path d="M105.773 606.164C105.789 606.577 105.635 606.858 105.213 607.244C105.021 607.391 104.745 607.144 104.712 606.788C104.88 606.147 105.149 605.967 105.489 605.892C105.489 605.892 105.677 606.075 105.773 606.164Z" fill="#DD6340"/>
<path d="M55.229 587.631C55.3778 587.337 55.5266 587.042 55.8929 586.622C56.1104 586.497 56.2979 586.695 56.2969 587.023C56.0992 587.64 55.8295 587.821 55.4217 587.827C55.3567 587.763 55.229 587.631 55.229 587.631Z" fill="#DD6340"/>
<path d="M54.3721 588.773C54.3716 588.381 54.5242 588.092 55.0076 587.746C55.2291 587.631 55.3568 587.763 55.3267 588.055C55.105 588.635 54.8416 588.822 54.5062 588.907C54.5062 588.907 54.4161 588.818 54.3721 588.773Z" fill="#DD6340"/>
<path d="M50.3807 593.783C50.3723 593.393 50.5138 593.098 51.0563 592.805C51.348 592.756 51.4869 592.892 51.3921 593.12C51.1079 593.641 50.8437 593.826 50.5049 593.906C50.5049 593.906 50.4214 593.825 50.3807 593.783Z" fill="#DD6340"/>
<path d="M103.514 608.922C103.357 609.218 103.18 609.494 102.764 609.848C102.525 609.926 102.49 609.892 102.587 609.66C102.881 609.162 103.137 608.975 103.451 608.866C103.451 608.866 103.494 608.902 103.514 608.922Z" fill="#DD6340"/>
<path d="M221.422 582.696C221.26 582.839 221.022 582.834 220.91 582.63C221.035 582.431 221.346 582.548 221.422 582.696Z" fill="#933C12"/>
<path d="M51.2776 592.689C51.2615 592.287 51.3963 591.989 51.8051 591.574C51.9987 591.421 52.2504 591.656 52.2719 592.004C52.0931 592.634 51.8242 592.814 51.4869 592.892C51.4869 592.892 51.348 592.756 51.2776 592.689Z" fill="#DD6340"/>
<path d="M205.566 338.133C205.734 338.096 206.01 338.291 206.386 338.725C206.215 338.764 205.944 338.564 205.566 338.133Z" fill="#E6E0D7"/>
<path d="M204.563 337.13C204.731 337.088 205.003 337.274 205.376 337.69C205.208 337.733 204.938 337.545 204.563 337.13Z" fill="#E6E0D7"/>
<path d="M197.997 369.523C198.412 369.672 198.536 369.971 198.561 370.562C198.568 370.809 198.516 370.86 198.254 370.8C197.822 370.458 197.652 370.177 197.482 369.896C197.482 369.896 197.813 369.629 197.997 369.523Z" fill="#176F6E"/>
<path d="M194.58 363.779C194.882 363.915 195.168 364.114 195.495 364.576C195.537 364.839 195.499 364.878 195.251 364.82C194.728 364.563 194.565 364.295 194.513 363.96C194.513 363.96 194.563 363.841 194.58 363.779Z" fill="#176F6E"/>
<path d="M57.92 54.6339C58.0812 54.8651 58.0096 55.2504 57.6549 55.743C57.4769 55.4963 57.582 55.1421 57.92 54.6339Z" fill="#1B1816"/>
<path d="M191.514 344.552C191.341 344.727 191.172 344.687 190.749 344.699C190.63 344.474 190.828 344.253 191.295 343.995C191.501 343.904 191.517 344.336 191.514 344.552Z" fill="#F3F6F3"/>
<path d="M266.774 168.957C266.617 168.75 266.751 168.454 267.145 168.056C267.243 168.238 267.13 168.542 266.774 168.957Z" fill="#151310"/>
<path d="M194.26 363.787C194.564 364.295 194.728 364.562 195.231 364.838C195.619 365.481 195.779 366.049 196.201 366.762C196.623 367.771 196.783 368.635 197.213 369.698C197.652 370.177 197.822 370.458 198.227 370.824C200.098 375.918 201.684 380.943 203.38 385.93C206.849 396.124 210.378 406.298 214.176 416.691C214.945 419.086 215.421 421.271 216.184 423.678C218.142 431.289 219.814 438.677 221.496 446.47C222.309 449.723 223.111 452.57 224.178 455.668C224.6 457.092 224.757 458.264 225.171 459.682C226.678 465.172 222.489 466.911 219.269 468.914C203.225 478.895 185.617 484.102 166.872 485.953C147.607 487.855 128.438 487.465 109.427 483.84C101.719 482.37 94.1641 480.066 86.574 478.015C80.3724 476.339 73.9569 475.083 68.115 472.54C60.5529 469.249 53.4665 464.865 45.8152 460.909C45.8124 458.125 45.8207 455.283 46.5847 452.66C50.9221 437.774 55.3978 422.927 59.9888 408.117C60.3068 407.091 61.9404 406.473 63.3016 405.728C63.6411 405.792 63.5839 405.834 63.5475 406.193C64.2475 408.305 64.9839 410.057 65.7203 411.81C65.7203 411.81 65.6195 411.803 65.5781 412.126C66.2105 413.582 66.8843 414.716 67.558 415.851C67.558 415.851 67.5852 415.555 67.6202 415.877C67.6865 416.43 67.7177 416.662 67.7571 417.271C68.7142 423.661 69.8803 429.65 70.559 435.694C71.5004 444.077 71.8124 452.535 72.8815 460.898C73.9657 469.38 77.8739 471.404 84.7343 468.638C86.7847 470.323 88.3 472.557 89.9704 472.68C91.8596 472.818 94.1772 471.403 95.7808 470.042C97.6816 468.429 99.0195 466.152 100.553 464.107C100.505 464.051 100.648 464.084 100.992 464.043C106.697 460.759 108.42 455.34 109.378 449.731C112.121 433.658 107.276 419.279 99.0167 405.748C99.1802 402.955 99.3436 400.161 99.6687 396.653C99.6535 394.523 99.565 393.09 99.2861 391.695C97.0319 380.417 94.7418 369.147 92.4626 357.875C98.2864 359.974 103.961 362.84 109.966 364.004C121.084 366.159 132.388 368.529 143.628 368.602C159.585 368.706 175.648 367.259 190.061 358.926C190.44 358.707 191.319 359.355 192.212 359.755C192.629 360.466 192.798 361.021 193.212 361.745C193.64 362.481 193.824 363.048 194.26 363.787Z" fill="#2B8C8A"/>
<path d="M184.556 286.68C180.089 285.835 175.623 284.989 170.687 283.755C169.918 283.233 169.619 283.1 169.32 282.967C169.32 282.967 169.431 282.948 169.344 282.732C168.937 282.334 168.617 282.152 168.297 281.97C168.297 281.97 168.412 281.992 168.403 281.685C167.69 280.93 166.985 280.483 166.334 280.021C166.387 280.007 166.336 280.105 166.373 279.76C165.961 279.028 165.512 278.641 165.063 278.255C165.063 278.255 165.062 278.324 165.119 278.022C164.88 277.47 164.583 277.22 164.323 276.973C164.361 276.976 164.303 277.025 164.369 276.577C164.751 272.602 165.065 269.076 165.5 264.201C164.432 261.891 161.19 261.105 157.839 262.218C156.668 262.607 156.253 265.272 155.133 266.962C154.551 267.128 154.329 267.229 154.108 267.329C154.108 267.329 154.116 267.174 154.175 266.877C153.934 266.37 153.636 266.159 153.337 265.948C153.337 265.948 153.423 265.946 153.447 265.532C153.187 262.042 152.902 258.967 152.594 255.663C152.571 255.435 152.628 254.981 152.628 254.981C152.628 254.981 152.529 254.91 152.829 254.784C154.307 253.397 155.485 252.137 157.061 250.875C160.936 250.511 164.412 250.147 168.962 249.672C166.077 249.079 164.125 248.529 162.135 248.297C156.597 247.652 156.54 247.602 159.812 242.829C161.329 241.155 162.479 239.548 163.591 238.249C163.567 238.969 163.581 239.382 163.444 240.053C165.839 240.695 168.641 242.465 170.797 238.965C171.607 238.786 172.094 238.627 172.791 238.4C165.569 235.675 158.61 233.362 151.96 230.363C149.786 229.382 148.419 226.616 146.682 224.666C149.024 223.414 151.245 221.663 153.743 221.055C156.047 220.494 158.704 220.874 161.107 221.344C166.268 222.352 171.365 223.685 176.487 224.888C176.487 224.892 176.494 224.889 176.634 225.207C178.682 226.315 180.589 227.104 182.492 227.892C182.487 227.893 182.486 227.882 182.497 228.211C183.169 228.988 183.829 229.436 184.488 229.888C184.487 229.892 184.494 229.889 184.638 230.16C185.351 230.583 185.921 230.735 186.489 230.89C186.487 230.892 186.491 230.887 186.553 231.139C186.905 231.555 187.195 231.719 187.487 231.887C187.488 231.891 187.496 231.893 187.557 232.144C187.906 232.556 188.194 232.719 188.486 232.885C188.489 232.89 188.498 232.898 188.616 233.188C189.12 233.617 189.506 233.754 190.004 233.978C190.257 234.191 190.381 234.331 190.444 234.891C191.734 237.527 193.071 239.758 194.488 242.332C196.905 247.453 199.243 252.23 201.427 257.061C201.275 257.114 201.208 257.481 201.208 257.481C201.208 257.481 201.638 257.549 201.73 257.621C201.821 257.693 201.882 257.919 201.695 258.144C202.117 258.814 202.726 259.259 203.464 259.785C203.593 259.865 203.798 260.089 203.667 260.467C202.267 266.265 200.997 271.685 199.726 277.105C199.726 277.105 199.647 276.991 199.389 277.1C198.94 277.812 198.749 278.415 198.559 279.018C198.559 279.018 198.534 278.934 198.31 279.02C197.904 279.422 197.722 279.738 197.541 280.055C197.541 280.055 197.523 279.935 197.307 280.032C196.91 280.463 196.729 280.798 196.547 281.132C196.532 281.455 196.382 281.693 195.534 281.889C194.158 282.636 193.344 283.341 192.531 284.047C192.531 284.047 192.528 283.952 192.198 283.933C190.087 284.529 188.307 285.145 186.528 285.76C186.528 285.76 186.066 285.887 185.621 285.982C184.891 286.197 184.684 286.399 184.556 286.68Z" fill="#A65829"/>
<path d="M98.8152 405.97C107.276 419.279 112.121 433.658 109.378 449.731C108.42 455.34 106.697 460.759 100.947 463.602C103.031 452.3 100.224 442.006 97.1458 431.723C96.6736 432.381 96.451 433.06 96.615 433.629C99.3121 442.983 100.387 452.451 98.9932 462.157C98.9099 462.736 100.037 463.49 100.601 464.163C99.0194 466.152 97.6816 468.429 95.7808 470.042C94.1771 471.403 91.8595 472.818 89.9703 472.68C88.2999 472.557 86.7846 470.323 84.7342 468.638C77.8738 471.404 73.9656 469.38 72.8815 460.898C71.8124 452.535 71.5004 444.077 70.559 435.694C69.8802 429.65 68.7141 423.661 68.1929 417.271C70.434 416.89 72.363 417.288 74.0399 416.808C79.2326 415.319 84.3294 413.496 89.4634 411.803C89.4634 411.803 89.464 411.877 89.8102 411.868C91.8801 410.836 93.6038 409.815 95.3274 408.793C96.4229 407.926 97.5184 407.058 98.8152 405.97Z" fill="#A55729"/>
<path d="M67.9041 276.806C67.2885 275.582 66.5373 274.152 66.7279 272.861C68.1951 262.93 70.0996 253.059 71.3812 243.106C73.5924 225.935 75.4562 208.72 77.4462 191.521C77.5603 190.534 77.4987 189.528 77.8187 188.323C82.2508 198.482 88.1041 207.748 95.429 215.891C94.1747 219.846 93.2552 223.704 92.5024 227.594C90.186 239.564 93.0503 252.669 84.6567 263.305C79.1727 267.758 73.6887 272.211 67.9041 276.806Z" fill="#2E2D2A"/>
<path d="M201.58 257.008C199.243 252.23 196.905 247.452 194.512 241.954C194.479 240.485 194.503 239.735 194.961 238.971C197.674 238.67 200.178 238.894 202.194 238.008C210.273 234.454 218.2 230.556 226.184 226.785C226.618 229.448 227.455 232.118 227.419 234.775C227.229 248.843 226.892 262.911 226.389 276.971C226.33 278.613 224.934 280.208 223.761 281.92C223.366 282.015 223.417 281.991 223.427 281.764C223.11 281.345 222.784 281.152 222.458 280.959C216.946 274.574 211.434 268.188 205.507 261.414C204.661 260.713 204.23 260.401 203.798 260.089C203.798 260.089 203.593 259.865 203.371 259.568C202.728 258.821 202.305 258.37 201.882 257.919C201.882 257.919 201.821 257.693 201.73 257.486C201.639 257.279 201.58 257.008 201.58 257.008Z" fill="#393631"/>
<path d="M84.9902 263.18C93.0503 252.669 90.186 239.564 92.5024 227.594C93.2552 223.704 94.1747 219.846 95.7034 216.042C102.164 220.59 107.94 225.069 113.371 229.705C111.457 230.5 109.888 231.139 108.371 231.789C108.423 231.801 108.41 231.695 108.15 231.753C107.653 232.041 107.416 232.27 107.089 232.433C106.998 232.367 106.784 232.437 106.574 232.572C105.991 233.022 105.618 233.335 105.244 233.649C105.244 233.649 105.341 233.713 105.061 233.771C104.539 234.14 104.296 234.452 104.053 234.763C102.201 239.048 98.8937 243.317 98.8482 247.62C98.7849 253.612 97.0005 257.084 91.6681 259.294C89.4198 260.226 87.4307 261.783 84.9902 263.18Z" fill="#393631"/>
<path d="M165.464 281.871C162.183 282.223 158.878 282.43 155.624 282.953C141.47 285.225 127.851 282.578 114.931 277.276C109.544 275.066 105 270.413 100.643 266.271C98.8702 264.585 98.6125 261.305 98.0854 258.476C105.616 271.557 118.848 274.159 131.672 276.682C140.202 278.36 149.092 278.205 157.818 278.9C159.778 279.056 161.728 279.338 164.178 279.99C164.937 280.902 165.201 281.387 165.464 281.871Z" fill="#E6E0D7"/>
<path d="M187.223 346.964C182.629 352.211 175.537 351.85 168.725 353.494C167.204 353.356 166.307 353.734 165.387 353.799C145.039 355.24 124.809 354.923 105.071 349.418C105.212 349.24 105.493 348.882 105.493 348.882C113.497 349.944 121.474 351.342 129.512 351.976C137.912 352.639 146.457 353.436 154.782 352.604C165.543 351.529 176.149 348.897 187.223 346.964Z" fill="#F3F6F3"/>
<path d="M155.492 266.897C156.252 265.271 156.667 262.607 157.839 262.218C161.19 261.105 164.431 261.891 165.5 264.201C165.065 269.076 164.75 272.602 164.191 276.494C163.946 276.86 163.577 276.724 163.577 276.724C163.577 276.724 163.549 276.825 163.545 276.466C162.523 275.056 161.505 274.004 160.487 272.952C160.487 272.952 160.214 272.751 159.886 272.523C159.205 272.183 158.852 272.071 158.499 271.959C157.342 270.924 156.186 269.889 155.077 268.481C155.123 268.107 155.536 267.827 155.707 267.748C155.745 267.408 155.613 267.146 155.484 266.888C155.487 266.891 155.492 266.897 155.492 266.897Z" fill="#8F461D"/>
<path d="M92.4621 357.647C94.7419 369.147 97.032 380.418 99.2863 391.695C99.5651 393.09 99.6536 394.523 99.7137 396.237C96.5659 383.476 93.399 370.445 90.5853 357.338C89.7273 353.341 89.8413 349.135 89.7432 344.559C89.9761 344.093 90.3575 344.13 90.3575 344.13C90.3575 344.13 90.394 344.037 90.5195 344.327C91.9601 345.335 93.2751 346.051 94.5901 346.768C94.1107 346.822 93.6313 346.876 92.5779 347.038C91.7365 347.325 91.5681 347.571 91.499 347.885C91.5001 348.057 91.5011 348.229 91.5044 349.05C91.5237 350.744 91.5406 351.789 91.5576 352.834C91.5508 353.612 91.544 354.39 91.6428 355.774C91.9278 356.652 92.17 356.846 92.4752 356.962C92.4752 356.962 92.4614 357.419 92.4621 357.647Z" fill="#176F6E"/>
<path d="M156.662 250.876C155.484 252.137 154.307 253.397 152.86 254.837C151.67 254.428 150.778 253.378 149.828 253.323C140.435 252.778 131.307 251.196 122.796 246.973C122.53 246.841 122.583 246.066 122.841 245.312C124.53 245.478 125.865 245.921 127.217 246.342C127.233 246.321 127.284 246.304 127.467 246.556C128.433 247.057 129.216 247.305 130.137 247.535C130.275 247.516 130.338 247.243 130.537 247.545C139.168 250.409 147.657 252.244 156.549 250.147C156.617 250.385 156.662 250.876 156.662 250.876Z" fill="#F5F0E9"/>
<path d="M113.489 238.9C111.157 237.482 108.824 236.064 106.723 234.086C106.983 233.397 107.056 233.259 107.03 233.143C106.976 232.901 106.869 232.671 106.784 232.437C106.784 232.437 106.998 232.367 107.373 232.464C107.969 232.272 108.189 231.984 108.41 231.695C108.41 231.695 108.423 231.801 108.767 231.824C110.498 231.848 111.883 231.848 113.489 231.848C113.489 234.349 113.489 236.624 113.489 238.9Z" fill="#E6E0D7"/>
<path d="M113.493 239.276C113.489 236.624 113.489 234.349 113.489 231.848C111.883 231.848 110.498 231.848 108.715 231.813C109.888 231.139 111.457 230.5 113.583 229.796C114.141 229.732 114.588 229.864 114.6 230.207C114.667 231.003 114.723 231.456 114.702 232.238C114.692 233.01 114.76 233.452 114.779 234.271C115.823 237.12 116.917 239.593 118.223 242.331C119.573 243.308 120.71 244.019 121.848 244.73C117.734 245.225 114.757 243.851 113.493 239.276Z" fill="#F5F0E9"/>
<path d="M89.074 411.848C84.3294 413.496 79.2326 415.319 74.0399 416.808C72.363 417.288 70.434 416.89 68.1845 416.894C67.7176 416.662 67.6864 416.43 67.768 415.864C74.8154 414.317 81.75 413.105 89.074 411.848Z" fill="#933C12"/>
<path d="M203.667 260.467C204.23 260.401 204.661 260.713 205.194 261.208C204.816 264.003 204.595 266.699 203.787 269.205C202.937 271.843 201.526 274.3 200.043 276.971C200.996 271.685 202.266 266.265 203.667 260.467Z" fill="#933C12"/>
<path d="M152.616 255.891C152.901 258.967 153.186 262.042 153.435 265.573C153.148 265.795 152.898 265.561 152.506 264.765C152.045 263.103 151.727 262.003 151.409 260.903C151.464 260.456 151.52 260.008 151.649 258.93C152.021 257.496 152.318 256.694 152.616 255.891Z" fill="#8F461D"/>
<path d="M122.03 244.733C120.71 244.019 119.573 243.308 118.623 242.301C121.607 243.458 124.404 244.911 127.2 246.364C125.865 245.921 124.53 245.478 122.841 245.003C122.488 244.971 122.211 244.736 122.03 244.733Z" fill="#7E3012"/>
<path d="M187.482 308.895C186.069 306.636 184.662 304.374 183.254 302.111C183.749 301.86 184.243 301.609 184.738 301.358C185.656 303.617 186.573 305.876 187.494 308.508C187.498 308.881 187.487 308.891 187.482 308.895Z" fill="#E6E0D7"/>
<path d="M94.5643 346.794C93.2749 346.051 91.9599 345.335 90.4697 344.336C92.8772 344.815 95.4598 345.576 98.1175 346.789C98.1925 347.24 97.8934 347.596 97.5582 347.497C96.324 347.182 95.4251 346.965 94.5262 346.749C94.5262 346.749 94.5388 346.82 94.5643 346.794Z" fill="#F3F6F3"/>
<path d="M94.998 408.872C93.6037 409.815 91.88 410.836 89.7759 411.854C91.1532 410.883 92.911 409.917 94.998 408.872Z" fill="#933C12"/>
<path d="M152.593 255.663C152.318 256.694 152.021 257.496 151.597 258.594C148.856 257.249 149.058 255.951 152.287 254.979C152.628 254.981 152.571 255.435 152.593 255.663Z" fill="#F5F0E9"/>
<path d="M160.491 273.303C161.505 274.004 162.523 275.056 163.597 276.466C162.601 275.768 161.548 274.711 160.491 273.303Z" fill="#F5F0E9"/>
<path d="M98.3423 347.063C100.67 347.366 102.848 347.848 105.26 348.606C105.493 348.882 105.212 349.24 104.712 349.344C102.106 348.831 99.9996 348.214 97.8936 347.596C97.8936 347.596 98.1927 347.24 98.3423 347.063Z" fill="#F3F6F3"/>
<path d="M65.7483 411.438C64.9839 410.058 64.2475 408.305 63.5366 406.159C64.3002 407.533 65.0383 409.299 65.7483 411.438Z" fill="#176F6E"/>
<path d="M186.812 285.83C188.307 285.144 190.087 284.529 192.244 283.943C190.78 284.615 188.938 285.258 186.812 285.83Z" fill="#933C12"/>
<path d="M151.128 261.051C151.727 262.003 152.045 263.103 152.368 264.546C150.081 264.397 148.482 263.617 151.128 261.051Z" fill="#F5F0E9"/>
<path d="M67.6118 415.507C66.8843 414.717 66.2106 413.582 65.6079 412.085C66.3412 412.869 67.0033 414.016 67.6118 415.507Z" fill="#176F6E"/>
<path d="M165.615 282.1C165.201 281.387 164.937 280.902 164.555 280.167C164.626 279.905 164.815 279.894 165.481 279.928C165.958 279.973 166.336 280.105 166.336 280.105C166.336 280.105 166.387 280.007 166.439 280.281C166.825 280.993 167.159 281.433 167.493 281.872C166.917 282.024 166.341 282.177 165.615 282.1Z" fill="#F5F0E9"/>
<path d="M192.845 283.968C193.344 283.341 194.157 282.636 195.32 281.934C194.832 282.589 193.995 283.239 192.845 283.968Z" fill="#933C12"/>
<path d="M167.712 281.919C167.159 281.433 166.825 280.993 166.386 280.295C166.985 280.483 167.69 280.93 168.376 281.737C168.358 282.095 167.93 281.966 167.712 281.919Z" fill="#8F461D"/>
<path d="M106.574 232.573C106.869 232.671 106.976 232.901 107.03 233.143C107.056 233.259 106.983 233.397 106.728 233.714C106.289 233.87 106.078 233.838 105.555 233.728C105.617 233.335 105.991 233.022 106.574 232.573Z" fill="#F5F0E9"/>
<path d="M166.373 279.76C166.336 280.105 165.958 279.973 165.766 279.917C165.426 279.511 165.28 279.163 165.098 278.535C165.512 278.641 165.961 279.028 166.373 279.76Z" fill="#8F461D"/>
<path d="M198.829 278.864C198.749 278.415 198.939 277.812 199.454 277.124C199.552 277.596 199.326 278.153 198.829 278.864Z" fill="#933C12"/>
<path d="M222.522 281.202C222.784 281.152 223.11 281.345 223.41 281.786C223.118 281.838 222.853 281.641 222.522 281.202Z" fill="#2E2D2A"/>
<path d="M190.08 344.915C190.019 345.285 189.651 345.69 189.009 346.178C189.081 345.823 189.427 345.387 190.08 344.915Z" fill="#F3F6F3"/>
<path d="M158.666 272.183C158.852 272.071 159.205 272.183 159.717 272.531C159.528 272.647 159.181 272.527 158.666 272.183Z" fill="#F5F0E9"/>
<path d="M163.63 276.964C163.577 276.725 163.946 276.86 164.124 276.943C164.303 277.025 164.361 276.976 164.352 277.212C164.342 277.447 164.321 277.928 164.321 277.928C164.027 277.758 163.815 277.517 163.63 276.964Z" fill="#F5F0E9"/>
<path d="M164.465 278.068C164.321 277.928 164.342 277.447 164.314 277.208C164.583 277.219 164.88 277.47 165.084 278.023C164.992 278.325 164.608 278.209 164.465 278.068Z" fill="#8F461D"/>
<path d="M104.358 234.687C104.295 234.452 104.539 234.14 105.059 233.713C105.112 233.935 104.888 234.272 104.358 234.687Z" fill="#F5F0E9"/>
<path d="M154.152 267.513C154.329 267.229 154.551 267.128 155.133 266.962C155.492 266.897 155.487 266.891 155.498 267.123C155.508 267.356 155.537 267.827 155.537 267.827C155.537 267.827 155.123 268.107 154.892 268.202C154.465 268.129 154.31 267.929 154.152 267.513Z" fill="#8F461D"/>
<path d="M153.395 266.227C153.635 266.159 153.934 266.37 154.252 266.87C153.998 266.941 153.725 266.724 153.395 266.227Z" fill="#8F461D"/>
<path d="M90.3147 343.934C90.3575 344.13 89.9761 344.093 89.7866 344.119C89.822 344.009 90.0469 343.873 90.3147 343.934Z" fill="#F3F6F3"/>
<path d="M188.499 346.157C188.546 346.387 188.311 346.643 187.812 346.974C187.771 346.761 187.994 346.472 188.499 346.157Z" fill="#F3F6F3"/>
<path d="M169.431 283.206C169.619 283.1 169.918 283.233 170.338 283.585C170.153 283.685 169.847 283.565 169.431 283.206Z" fill="#8F461D"/>
<path d="M184.797 286.69C184.684 286.399 184.891 286.197 185.381 285.996C185.495 286.24 185.312 286.501 184.797 286.69Z" fill="#933C12"/>
<path d="M66.0305 280.106C65.8404 279.889 65.9069 279.528 66.2192 279.028C66.4055 279.246 66.3463 279.604 66.0305 280.106Z" fill="#24201E"/>
<path d="M197.796 279.952C197.722 279.738 197.904 279.422 198.353 279.017C198.431 279.235 198.242 279.542 197.796 279.952Z" fill="#933C12"/>
<path d="M196.799 281.002C196.728 280.798 196.91 280.463 197.368 280.031C197.446 280.246 197.249 280.559 196.799 281.002Z" fill="#933C12"/>
<path d="M168.404 282.224C168.617 282.152 168.937 282.334 169.341 282.788C169.121 282.866 168.815 282.672 168.404 282.224Z" fill="#8F461D"/>
<path d="M114.588 229.864C114.588 229.864 114.141 229.732 113.928 229.64C107.94 225.07 102.164 220.59 96.1146 215.96C88.1042 207.748 82.2509 198.482 77.8535 187.868C77.5883 187.621 77.5883 187.263 77.5643 186.76C77.4578 185.83 77.3751 185.404 77.2925 184.977C76.1901 180.324 75.2117 175.635 73.8921 171.044C73.5883 169.987 72.1137 169.267 70.4838 168.595C68.3492 169.15 66.9086 169.502 65.468 169.854C65.0395 169.869 64.611 169.884 63.8615 169.887C59.0983 166.953 54.656 164.031 49.9339 160.933C49.654 160.757 49.5983 160.781 49.5728 160.574C49.5473 160.367 49.3619 159.934 49.3619 159.934C45.4214 153.034 42.9073 145.968 44.2687 137.684C45.7347 128.763 49.7961 122.532 59.1515 120.001C62.5356 120.189 65.5923 120.521 69.0479 120.935C72.5005 123.249 75.5542 125.482 78.8748 127.91C85.0214 120.654 91.1066 113.251 97.4264 106.055C111.29 90.2673 125.32 74.5457 144.548 65.0115C157.788 58.4462 171.791 54.4472 186.826 54.8644C190.056 54.954 193.677 52.922 196.497 53.8197C214.881 59.6723 231.36 68.1939 241.31 86.1442C248.923 99.8798 252.479 114.529 253.336 129.967C253.705 136.61 253.409 143.291 253.156 150.721C252.505 156.213 252.299 160.963 251.673 165.657C250.81 172.135 249.63 178.57 248.586 185.023C248.586 185.023 248.468 185.411 248.143 185.872C247.009 190.177 246.201 194.021 245.393 197.866C245.393 197.866 245.469 197.894 245.185 198.071C244.732 199.122 244.562 199.995 244.393 200.868C244.393 200.868 244.47 200.891 244.183 201.067C243.733 202.114 243.569 202.984 243.405 203.855C243.405 203.855 243.378 203.769 243.335 203.754C237.723 211.235 232.155 218.73 226.385 226.505C218.201 230.556 210.273 234.454 202.194 238.008C200.179 238.894 197.674 238.67 194.674 238.798C192.799 237.255 191.644 235.871 190.489 234.487C190.381 234.331 190.257 234.191 189.798 233.767C189.154 233.278 188.826 233.088 188.498 232.897C188.498 232.897 188.489 232.89 188.405 232.65C188.121 232.116 187.847 231.944 187.496 231.893C187.496 231.893 187.488 231.891 187.402 231.651C187.04 231.237 186.766 231.062 186.491 230.887C186.491 230.887 186.487 230.892 186.338 230.627C185.624 230.204 185.059 230.047 184.494 229.889C184.494 229.889 184.487 229.892 184.472 229.563C183.8 228.783 183.143 228.333 182.486 227.882C182.486 227.882 182.487 227.892 182.339 227.581C180.292 226.475 178.393 225.682 176.494 224.889C176.494 224.889 176.487 224.892 176.351 224.559C167.613 219.927 158.644 217.536 149.126 220.295C147.331 220.816 145.088 223.318 144.95 225.056C144.81 226.836 146.772 229.015 148.259 230.603C149.182 231.588 150.966 231.728 152.304 232.371C156.095 234.193 159.856 236.08 163.629 237.941C162.479 239.548 161.329 241.155 159.743 242.442C158.826 241.738 158.396 241.13 157.855 241.004C147.478 238.576 137.064 236.307 126.715 233.77C122.601 232.761 118.626 231.183 114.588 229.864ZM195.925 150.248C195.846 151.219 195.768 152.189 195.683 153.95C196.231 158.954 196.779 163.959 197.47 169.655C200.089 172.788 202.153 176.894 205.478 178.79C209.039 180.821 214.31 182.445 217.921 181.319C229.491 177.71 235.549 169.143 236.184 156.194C236.222 153.893 236.454 151.575 236.263 149.293C235.498 140.147 227.792 132.632 218.697 132.009C209.087 131.349 199.649 138.171 197.636 147.075C197.636 147.075 197.643 146.94 196.993 147.228C196.843 148.142 196.693 149.055 196.507 149.904C196.507 149.904 196.58 149.898 195.925 150.248ZM154.368 166.708C154.368 166.708 154.252 166.656 154.965 166.795C155.695 166.038 156.425 165.281 157.362 164.597C157.362 164.597 157.142 164.588 157.859 164.589C158.386 163.629 158.912 162.669 159.521 161.286C159.653 160.991 159.88 160.837 160.896 160.671C161.641 159.338 162.387 158.004 163.131 156.861C163.131 156.861 163.081 156.678 163.796 156.495C163.963 155.582 164.131 154.67 164.39 153.853C164.39 153.853 164.262 153.817 164.936 153.435C165.019 149.867 165.102 146.298 165.251 141.995C163.308 132.215 158.58 124.711 147.969 121.107C143.016 119.117 138.262 120.008 133.131 122.207C132.838 122.353 132.623 122.576 131.833 123.035C125.278 127.256 121.187 133.028 120.504 140.905C120.504 140.905 120.577 140.901 120.16 141.085C120.216 141.542 120.273 142 120.442 143.272C118.092 156.019 127.224 169.851 145.972 170.006C148.105 169.208 150.238 168.411 152.402 167.738C152.402 167.738 152.275 167.716 152.962 167.813C153.426 167.402 153.889 166.992 154.368 166.708ZM150.205 92.0863C142.687 92.841 135.307 94.3008 129.34 99.217C127.684 100.581 126.121 103.86 126.631 105.66C127.564 108.945 130.797 108.032 133.387 107.051C143.04 103.396 152.667 102.855 162.535 106.507C164.229 107.134 167.993 106.319 168.478 105.181C169.414 102.985 169.342 99.822 168.436 97.5622C167.787 95.9428 165.241 94.5881 163.292 94.0892C159.314 93.0707 155.167 92.709 150.205 92.0863ZM181.492 203.732C173.739 204.473 165.978 204.051 159.416 199.671C154.984 196.713 151.572 192.25 147.571 188.606C146.492 187.623 144.931 187.171 143.591 186.475C143.154 188.18 142.392 189.885 142.39 191.591C142.388 192.763 143.281 194.054 144.046 195.092C153.844 208.394 167.193 212.955 183.207 210.879C186.722 210.424 189.525 208.771 188.957 205.002C188.832 204.171 184.651 203.95 181.492 203.732ZM212.543 100.917C208.636 101.94 206.306 104.628 206.846 108.479C207.073 110.101 209.713 112.544 211.346 112.617C220.178 113.011 228.06 115.097 234.241 121.94C234.954 122.73 237.126 122.875 238.232 122.404C238.975 122.088 239.597 119.978 239.283 118.984C238.494 116.495 237.58 113.813 235.936 111.869C230.089 104.951 222.647 100.936 212.543 100.917ZM167.384 175.943C163.386 179.572 163.309 182.407 168.119 183.949C173.675 185.73 179.708 186.099 185.563 186.845C188.404 187.207 192.206 187.146 192.083 183.495C192.008 181.262 189.237 177.64 187.166 177.232C180.958 176.008 174.499 176.058 167.384 175.943Z" fill="#A95A2A"/>
<path d="M248.965 184.994C249.63 178.57 250.81 172.135 251.673 165.657C252.299 160.963 252.505 156.213 253.185 151.189C259.357 150.401 261.674 154.365 263.352 158.956C266.766 168.293 258.683 183.225 248.965 184.994Z" fill="#854924"/>
<path d="M245.704 197.672C246.201 194.021 247.009 190.177 248.083 186.065C247.571 189.691 246.793 193.584 245.704 197.672Z" fill="#2E2D2A"/>
<path d="M244.682 200.68C244.562 199.995 244.731 199.122 245.162 198.038C245.273 198.715 245.122 199.604 244.682 200.68Z" fill="#2E2D2A"/>
<path d="M243.692 203.666C243.569 202.984 243.732 202.114 244.16 201.034C244.275 201.709 244.127 202.593 243.692 203.666Z" fill="#2E2D2A"/>
<path d="M49.21 160.036C49.3619 159.934 49.5472 160.367 49.5629 160.603C49.4051 160.605 49.2316 160.372 49.21 160.036Z" fill="#2E2D2A"/>
<path d="M51.3919 593.12C51.8241 592.814 52.093 592.634 52.394 592.125C53.1492 591.117 53.8038 590.334 54.4822 589.229C54.8415 588.822 55.105 588.635 55.3917 588.12C55.8296 587.821 56.0993 587.64 56.3913 587.121C56.4868 586.892 56.9225 586.919 57.1391 586.935C57.7665 593.431 61.3366 596.208 69.0424 596.958C84.7964 598.491 97.7198 593.106 108.349 581.645C109.48 580.427 110.69 579.283 112.163 577.951C110.804 585.903 109.145 594.008 107.488 602.504C106.834 603.678 106.178 604.462 105.506 605.569C105.149 605.967 104.879 606.147 104.58 606.659C104.153 607.347 103.826 607.809 103.475 608.568C103.137 608.975 102.881 609.162 102.572 609.641C101.905 610.031 101.35 610.208 100.642 610.639C89.2568 616.565 77.2384 617.719 64.9402 616.83C60.3836 616.501 55.8725 615.542 50.9141 614.88C49.3951 614.218 48.3027 613.546 46.8619 612.864C46.4177 612.529 46.2304 612.271 45.7311 611.977C45.5085 608.82 45.5061 605.765 45.5094 602.31C45.8299 601.443 46.1449 600.976 46.4879 600.211C46.8532 599.832 47.1148 599.644 47.3949 599.122C47.8157 598.43 48.1423 597.967 48.4845 597.203C48.8415 596.827 49.1076 596.643 49.393 596.121C49.8142 595.43 50.141 594.967 50.4863 594.205C50.8436 593.826 51.1078 593.641 51.3919 593.12Z" fill="#E97351"/>
<path d="M44.7508 461.753C44.6195 461.539 44.7869 461.276 45.2569 460.969C45.393 461.188 45.223 461.448 44.7508 461.753Z" fill="#2B8C8A"/>
<path d="M65.665 170.107C66.9085 169.502 68.3491 169.15 70.1868 168.786C69.01 169.302 67.4361 169.832 65.665 170.107Z" fill="#2E2D2A"/>
<path d="M77.0923 185.135C77.3749 185.404 77.4575 185.83 77.5315 186.584C77.3127 186.372 77.1025 185.833 77.0923 185.135Z" fill="#2E2D2A"/>
<path d="M97.5582 347.497C99.9995 348.214 102.106 348.831 104.571 349.523C124.809 354.923 145.039 355.24 165.387 353.799C166.307 353.734 167.204 353.356 168.326 353.454C166.172 354.166 163.813 354.611 161.436 354.921C140.792 357.607 120.548 355.317 100.579 349.888C98.5684 349.342 96.6987 348.278 94.645 347.102C95.4252 346.965 96.3241 347.182 97.5582 347.497Z" fill="#176F6E"/>
<path d="M91.8082 352.628C91.5402 351.789 91.5233 350.744 91.5103 349.307C91.6959 350.084 91.8775 351.253 91.8082 352.628Z" fill="#2B8C8A"/>
<path d="M91.7035 347.793C91.5679 347.571 91.7362 347.325 92.2172 347.069C92.3433 347.293 92.1692 347.529 91.7035 347.793Z" fill="#2B8C8A"/>
<path d="M92.3897 356.741C92.1698 356.846 91.9276 356.652 91.6621 356.162C91.8926 356.042 92.1354 356.234 92.3897 356.741Z" fill="#2B8C8A"/>
<path d="M118.12 518.632C118.105 518.884 117.973 519.021 117.84 519.158C117.894 518.944 117.948 518.73 118.12 518.632Z" fill="#AA5B2A"/>
<path d="M114.6 230.207C118.626 231.183 122.6 232.761 126.714 233.77C137.063 236.307 147.478 238.576 157.854 241.004C158.396 241.13 158.825 241.738 159.376 242.508C156.54 247.602 156.597 247.652 162.134 248.297C164.124 248.529 166.077 249.079 168.962 249.671C164.411 250.147 160.936 250.511 157.061 250.875C156.662 250.876 156.617 250.385 156.501 249.806C155.745 248.96 155.098 248.449 154.464 248.465C151.107 248.549 147.735 249.063 144.403 248.864C139.699 248.583 135.025 247.807 130.338 247.243C130.338 247.243 130.275 247.516 130.165 247.138C129.132 246.607 128.208 246.455 127.284 246.304C127.284 246.304 127.233 246.321 127.216 246.342C124.404 244.911 121.607 243.458 118.411 242.035C116.917 239.592 115.823 237.12 115.052 234.24C115.175 233.191 114.977 232.55 114.779 231.909C114.723 231.456 114.667 231.003 114.6 230.207Z" fill="#8F461D"/>
<path d="M163.59 238.249C159.856 236.08 156.095 234.193 152.304 232.371C150.966 231.728 149.181 231.588 148.258 230.603C146.772 229.015 144.81 226.836 144.95 225.056C145.087 223.319 147.33 220.816 149.126 220.295C158.643 217.536 167.612 219.927 176.351 224.555C171.364 223.685 166.267 222.352 161.107 221.344C158.704 220.874 156.046 220.494 153.743 221.054C151.244 221.663 149.024 223.414 146.682 224.666C148.418 226.616 149.786 229.382 151.96 230.363C158.609 233.362 165.569 235.675 172.791 238.4C172.094 238.627 171.607 238.786 170.403 238.934C167.657 239.214 165.626 239.504 163.595 239.795C163.581 239.382 163.566 238.969 163.59 238.249Z" fill="#7E3012"/>
<path d="M190.443 234.891C191.644 235.871 192.798 237.255 194.24 238.813C194.503 239.735 194.479 240.485 194.431 241.612C193.07 239.758 191.734 237.527 190.443 234.891Z" fill="#7E3012"/>
<path d="M163.444 240.053C165.626 239.504 167.657 239.214 170.081 238.954C168.641 242.465 165.839 240.695 163.444 240.053Z" fill="#A95A2A"/>
<path d="M176.634 225.207C178.393 225.682 180.291 226.476 182.343 227.581C180.589 227.104 178.681 226.315 176.634 225.207Z" fill="#7E3012"/>
<path d="M182.497 228.211C183.143 228.333 183.8 228.784 184.473 229.559C183.829 229.436 183.169 228.987 182.497 228.211Z" fill="#7E3012"/>
<path d="M201.695 258.144C202.305 258.37 202.728 258.821 203.242 259.488C202.725 259.259 202.117 258.814 201.695 258.144Z" fill="#933C12"/>
<path d="M184.638 230.16C185.059 230.047 185.623 230.204 186.34 230.625C185.921 230.735 185.351 230.583 184.638 230.16Z" fill="#7E3012"/>
<path d="M188.616 233.188C188.826 233.088 189.154 233.278 189.687 233.68C189.506 233.754 189.12 233.617 188.616 233.188Z" fill="#7E3012"/>
<path d="M186.553 231.139C186.766 231.062 187.04 231.237 187.4 231.648C187.195 231.719 186.905 231.555 186.553 231.139Z" fill="#7E3012"/>
<path d="M187.557 232.143C187.847 231.944 188.121 232.116 188.401 232.645C188.193 232.718 187.906 232.556 187.557 232.143Z" fill="#7E3012"/>
<path d="M201.427 257.061C201.579 257.008 201.639 257.279 201.638 257.414C201.637 257.549 201.208 257.481 201.208 257.481C201.208 257.481 201.275 257.114 201.427 257.061Z" fill="#933C12"/>
<path d="M100.553 464.107C100.037 463.49 98.9099 462.736 98.9932 462.157C100.387 452.451 99.3121 442.983 96.6151 433.629C96.4511 433.061 96.6737 432.381 97.1459 431.723C100.224 442.006 103.031 452.3 100.603 463.643C100.648 464.084 100.506 464.051 100.553 464.107Z" fill="#8F461D"/>
<path d="M108.15 231.753C108.189 231.984 107.968 232.272 107.463 232.53C107.416 232.27 107.653 232.041 108.15 231.753Z" fill="#F5F0E9"/>
<path d="M155.707 267.748C155.536 267.827 155.508 267.356 155.495 267.12C155.613 267.146 155.745 267.408 155.707 267.748Z" fill="#A65829"/>
<path d="M130.538 247.546C135.025 247.808 139.699 248.583 144.403 248.864C147.736 249.064 151.107 248.549 154.464 248.465C155.098 248.449 155.745 248.96 156.433 249.569C147.658 252.244 139.168 250.409 130.538 247.546Z" fill="#7E3012"/>
<path d="M127.467 246.556C128.208 246.455 129.131 246.607 130.026 247.156C129.215 247.305 128.433 247.057 127.467 246.556Z" fill="#7E3012"/>
<path d="M114.702 232.238C114.977 232.55 115.176 233.191 115.101 233.863C114.76 233.452 114.692 233.01 114.702 232.238Z" fill="#A95A2A"/>
<path d="M145.285 169.82C127.224 169.851 118.092 156.019 120.468 142.616C120.521 141.606 120.549 141.254 120.577 140.901C120.577 140.901 120.504 140.905 120.849 140.8C126.929 126.682 139.316 121.517 152.389 127.365C159.248 130.433 162.198 136.281 164.726 143.164C164.615 147.032 164.438 150.425 164.262 153.817C164.262 153.817 164.39 153.853 164.013 153.939C163.451 154.909 163.266 155.794 163.081 156.678C163.081 156.678 163.131 156.861 162.824 156.84C161.745 158.154 160.974 159.49 160.203 160.825C159.88 160.837 159.653 160.991 159.202 161.669C158.303 162.897 157.723 163.743 157.142 164.588C157.142 164.588 157.362 164.597 156.951 164.57C155.777 165.247 155.014 165.952 154.252 166.656C154.252 166.656 154.368 166.708 154.046 166.676C153.241 167.001 152.758 167.358 152.275 167.716C152.275 167.716 152.402 167.738 152.016 167.749C149.515 168.447 147.4 169.134 145.285 169.82ZM130.241 136.526C130.241 136.526 130.115 136.439 129.597 136.637C129.411 136.944 129.226 137.251 129.021 137.488C129.021 137.488 128.949 137.491 128.452 137.954C124.212 145.111 124.735 149.764 130.4 154.961C130.4 154.961 130.288 154.972 130.518 155.471C130.833 155.635 131.147 155.799 131.462 155.893C131.462 155.893 131.403 155.932 131.925 156.509C136.563 158.674 141.121 159.056 146.099 155.819C146.575 155.226 147.052 154.633 148.155 153.631C152.275 145.933 151.484 140.923 145.06 135.248C145.06 135.248 144.78 135.238 144.301 134.764C139.749 132.353 135.363 132.277 131.38 135.74C131.38 135.74 131.36 135.585 130.814 135.774C130.575 136.043 130.337 136.312 130.241 136.526Z" fill="#F5F0E9"/>
<path d="M235.627 156.751C235.549 169.143 229.491 177.71 217.921 181.319C214.31 182.445 209.039 180.821 205.478 178.79C202.153 176.894 200.089 172.788 197.7 169.178C198.826 168.085 199.723 167.469 200.882 166.94C201.577 167.345 202.009 167.662 202.447 167.94C202.452 167.9 202.384 167.943 202.578 168.193C203.678 168.966 204.584 169.49 205.582 170.389C208.741 172.135 211.796 173.345 214.739 169.925C215.244 169.53 215.495 169.255 215.96 168.979C216.174 168.977 216.517 168.72 216.815 168.646C218.07 167.581 219.026 166.591 220.004 165.501C220.025 165.401 219.882 165.255 220.145 165.165C220.54 164.728 220.672 164.381 220.72 164.03C220.634 164.027 220.69 164.188 220.88 164.112C221.071 164.036 221.45 163.88 221.821 163.817C225.442 158.092 225.277 155.164 221.397 151.802C221.269 151.713 221.278 151.4 221.315 151.022C219.539 145.966 216.138 143.852 211.113 143.83C208.115 143.816 205.121 143.218 202.252 142.579C203.428 141.486 204.475 140.695 205.946 139.897C210.771 139.159 215.171 138.429 219.929 137.761C229.281 140.988 233.922 147.679 235.627 156.751Z" fill="#F5F0E9"/>
<path d="M150.647 92.0815C155.167 92.709 159.314 93.0707 163.292 94.0892C165.241 94.5881 167.787 95.9428 168.436 97.5622C169.342 99.822 169.413 102.985 168.478 105.181C167.992 106.319 164.229 107.134 162.535 106.507C152.667 102.855 143.04 103.396 133.387 107.051C130.796 108.032 127.563 108.945 126.631 105.66C126.12 103.86 127.684 100.581 129.34 99.217C135.306 94.3008 142.687 92.841 150.647 92.0815Z" fill="#302D2A"/>
<path d="M181.915 203.591C184.651 203.95 188.832 204.171 188.957 205.002C189.525 208.771 186.722 210.424 183.207 210.879C167.193 212.955 153.844 208.394 144.046 195.092C143.281 194.054 142.388 192.763 142.39 191.591C142.392 189.885 143.153 188.18 143.591 186.475C144.931 187.171 146.492 187.623 147.571 188.606C151.572 192.25 154.984 196.713 159.416 199.671C165.978 204.051 173.739 204.473 181.915 203.591Z" fill="#8F461D"/>
<path d="M212.959 100.889C222.647 100.936 230.089 104.951 235.936 111.869C237.58 113.813 238.494 116.495 239.283 118.985C239.597 119.978 238.975 122.088 238.232 122.404C237.126 122.875 234.954 122.731 234.241 121.941C228.06 115.097 220.178 113.011 211.346 112.617C209.713 112.545 207.073 110.101 206.845 108.479C206.306 104.628 208.636 101.94 212.959 100.889Z" fill="#302D2A"/>
<path d="M167.761 175.777C174.498 176.058 180.958 176.008 187.166 177.232C189.237 177.64 192.008 181.262 192.083 183.495C192.205 187.146 188.404 187.207 185.563 186.845C179.707 186.099 173.675 185.73 168.118 183.949C163.309 182.408 163.386 179.572 167.761 175.777Z" fill="#8F461D"/>
<path d="M205.523 139.904C204.475 140.695 203.428 141.485 202.011 142.647C200.344 144.395 199.047 145.772 197.75 147.15C199.649 138.171 209.087 131.349 218.697 132.009C227.792 132.632 235.498 140.147 236.263 149.293C236.454 151.575 236.222 153.893 235.906 156.472C233.922 147.679 229.281 140.988 219.681 137.414C217.087 136.962 215.099 136.924 213.112 136.878C210.151 136.809 207.017 136.299 205.523 139.904Z" fill="#302D2A"/>
<path d="M164.66 142.688C162.198 136.281 159.248 130.433 152.389 127.365C139.315 121.517 126.928 126.682 120.866 140.833C121.187 133.028 125.278 127.256 132.146 123.268C132.348 124.118 132.237 124.735 132.314 124.306C137.994 124.18 143.729 124.052 149.591 124.132C150.089 124.313 150.459 124.288 150.829 124.263C150.393 124.128 149.956 123.993 149.405 123.643C149.078 123.167 148.81 122.988 148.498 122.553C148.518 121.993 148.53 121.769 148.542 121.545C158.58 124.711 163.307 132.215 165.088 142.344C164.925 142.694 164.66 142.688 164.66 142.688Z" fill="#24201E"/>
<path d="M197.693 147.113C199.047 145.772 200.344 144.395 201.883 142.95C205.121 143.218 208.116 143.816 211.113 143.83C216.138 143.852 219.539 145.966 221.02 150.921C220.289 151.093 219.889 150.988 219.385 150.564C217.974 149.122 216.668 147.998 215.292 146.495C210.981 144.129 206.975 144.482 203.095 147.305C202.969 147.282 202.746 147.409 202.487 147.578C201.17 149.038 200.112 150.33 199.102 151.706C199.15 151.789 199.123 151.598 198.853 151.875C196.889 156.265 196.684 160.299 199.217 164.127C199.208 164.067 199.133 164.161 199.229 164.458C199.758 165.454 200.189 166.153 200.62 166.852C199.723 167.468 198.826 168.084 197.628 168.832C196.779 163.959 196.231 158.954 195.9 153.293C196.271 151.724 196.426 150.811 196.58 149.898C196.58 149.898 196.507 149.904 196.843 149.773C197.334 148.741 197.489 147.84 197.643 146.94C197.643 146.94 197.636 147.075 197.693 147.113Z" fill="#F3F6F3"/>
<path d="M149.464 123.925C143.729 124.052 137.994 124.18 132.314 124.306C132.238 124.735 132.348 124.118 132.472 123.187C132.623 122.576 132.838 122.353 133.63 122.403C138.915 122.696 143.702 122.793 148.489 122.89C148.811 122.988 149.078 123.167 149.39 123.659C149.49 123.89 149.464 123.925 149.464 123.925Z" fill="#3C3833"/>
<path d="M148.498 122.553C143.702 122.793 138.915 122.696 133.859 122.35C138.261 120.008 143.016 119.117 148.255 121.326C148.53 121.769 148.518 121.993 148.498 122.553Z" fill="#2E2D2A"/>
<path d="M164.726 143.164C164.66 142.688 164.925 142.694 165.055 142.712C165.102 146.298 165.019 149.867 164.599 153.626C164.438 150.425 164.615 147.032 164.726 143.164Z" fill="#933C12"/>
<path d="M145.628 169.913C147.4 169.134 149.515 168.447 152 167.687C150.238 168.411 148.105 169.209 145.628 169.913Z" fill="#933C12"/>
<path d="M160.549 160.748C160.974 159.49 161.745 158.154 162.824 156.745C162.387 158.004 161.641 159.337 160.549 160.748Z" fill="#933C12"/>
<path d="M157.5 164.589C157.723 163.743 158.303 162.897 159.161 161.88C158.913 162.669 158.386 163.629 157.5 164.589Z" fill="#933C12"/>
<path d="M154.608 166.726C155.014 165.952 155.776 165.248 156.846 164.534C156.424 165.281 155.694 166.038 154.608 166.726Z" fill="#933C12"/>
<path d="M197.318 147.084C197.489 147.84 197.334 148.741 196.861 149.805C196.693 149.055 196.843 148.142 197.318 147.084Z" fill="#302D2A"/>
<path d="M196.252 150.073C196.426 150.811 196.271 151.724 195.903 152.898C195.768 152.189 195.846 151.219 196.252 150.073Z" fill="#302D2A"/>
<path d="M163.438 156.587C163.265 155.794 163.45 154.909 163.967 153.891C164.13 154.669 163.963 155.582 163.438 156.587Z" fill="#933C12"/>
<path d="M152.619 167.764C152.758 167.358 153.241 167.001 154.038 166.612C153.889 166.992 153.426 167.402 152.619 167.764Z" fill="#933C12"/>
<path d="M120.368 140.993C120.549 141.254 120.521 141.606 120.411 142.208C120.272 142 120.216 141.542 120.368 140.993Z" fill="#24201E"/>
<path d="M147.528 154.039C147.052 154.633 146.575 155.226 145.368 155.873C140.226 155.928 135.815 155.93 131.403 155.932C131.403 155.932 131.462 155.893 131.373 155.662C130.953 155.278 130.62 155.125 130.288 154.972C130.288 154.972 130.4 154.961 130.435 154.621C129.483 151.003 128.084 147.779 127.654 144.43C127.368 142.209 128.469 139.81 128.949 137.491C128.949 137.491 129.022 137.488 129.361 137.525C129.838 137.188 129.976 136.813 130.114 136.439C130.114 136.439 130.241 136.526 130.481 136.554C130.935 136.25 131.147 135.918 131.36 135.585C131.36 135.585 131.38 135.74 131.679 135.792C136.245 135.642 140.513 135.44 144.78 135.238C144.78 135.238 145.06 135.248 144.949 135.665C144.9 136.554 144.782 137.233 145.051 137.468C150.593 142.305 149.137 148.156 147.528 154.039Z" fill="#34322F"/>
<path d="M128.7 137.723C128.469 139.81 127.368 142.209 127.653 144.43C128.084 147.779 129.483 151.003 130.423 154.676C124.735 149.764 124.212 145.111 128.7 137.723Z" fill="#151310"/>
<path d="M147.841 153.835C149.137 148.156 150.593 142.305 145.051 137.468C144.782 137.233 144.9 136.554 145.058 135.752C151.484 140.923 152.275 145.933 147.841 153.835Z" fill="#151310"/>
<path d="M144.54 135.001C140.512 135.44 136.245 135.642 131.603 135.773C135.363 132.277 139.748 132.353 144.54 135.001Z" fill="#151310"/>
<path d="M131.664 156.22C135.814 155.93 140.226 155.928 145.079 155.913C141.12 159.056 136.562 158.674 131.664 156.22Z" fill="#151310"/>
<path d="M129.855 136.538C129.976 136.813 129.837 137.188 129.37 137.56C129.226 137.251 129.411 136.944 129.855 136.538Z" fill="#151310"/>
<path d="M131.087 135.68C131.147 135.917 130.935 136.25 130.41 136.581C130.337 136.312 130.575 136.043 131.087 135.68Z" fill="#151310"/>
<path d="M130.403 155.221C130.62 155.125 130.952 155.278 131.373 155.698C131.147 155.799 130.832 155.635 130.403 155.221Z" fill="#151310"/>
<path d="M215.361 146.873C216.667 147.998 217.974 149.122 219.452 150.975C219.98 155.865 220.335 160.027 220.69 164.188C220.69 164.188 220.634 164.027 220.42 164.101C220.099 164.535 219.99 164.895 219.882 165.255C219.882 165.255 220.025 165.401 219.665 165.308C218.376 166.383 217.446 167.552 216.517 168.721C216.517 168.721 216.174 168.977 215.616 168.821C210.833 168.424 206.609 168.184 202.384 167.943C202.384 167.943 202.452 167.9 202.488 167.535C202.543 164.87 201.74 163.498 199.132 164.161C199.132 164.161 199.207 164.067 199.32 163.705C199.448 160.187 199.463 157.03 199.627 153.778C199.831 153.58 199.96 153.44 199.93 153.382C199.827 153.183 199.667 153.013 199.459 152.513C199.301 151.995 199.212 151.797 199.123 151.598C199.123 151.598 199.15 151.789 199.483 151.703C200.793 150.215 201.769 148.812 202.746 147.409C202.746 147.409 202.969 147.282 203.512 147.497C207.825 147.433 211.593 147.153 215.361 146.873Z" fill="#34322F"/>
<path d="M205.946 139.897C207.017 136.299 210.151 136.809 213.112 136.878C215.099 136.924 217.086 136.962 219.322 137.351C215.171 138.429 210.771 139.159 205.946 139.897Z" fill="#F3F6F3"/>
<path d="M220.881 164.112C220.335 160.027 219.98 155.865 219.557 151.293C219.889 150.988 220.289 151.093 220.984 151.3C221.279 151.4 221.269 151.713 221.424 152.209C221.536 156.43 221.493 160.155 221.45 163.88C221.45 163.88 221.071 164.036 220.881 164.112Z" fill="#151310"/>
<path d="M202.578 168.193C206.609 168.184 210.833 168.424 215.401 168.823C215.495 169.255 215.244 169.53 214.354 169.917C210.973 170.023 208.231 170.018 205.49 170.013C204.583 169.489 203.677 168.966 202.578 168.193Z" fill="#151310"/>
<path d="M221.821 163.817C221.493 160.155 221.535 156.43 221.552 152.298C225.277 155.164 225.442 158.092 221.821 163.817Z" fill="#F3F6F3"/>
<path d="M205.582 170.389C208.232 170.018 210.973 170.023 214.099 170.037C211.796 173.345 208.741 172.135 205.582 170.389Z" fill="#F3F6F3"/>
<path d="M199.229 164.458C201.74 163.498 202.543 164.87 202.482 167.574C202.009 167.662 201.577 167.345 200.882 166.94C200.188 166.153 199.757 165.454 199.229 164.458Z" fill="#151310"/>
<path d="M216.815 168.646C217.447 167.552 218.376 166.383 219.644 165.407C219.026 166.591 218.07 167.581 216.815 168.646Z" fill="#151310"/>
<path d="M220.145 165.165C219.99 164.895 220.099 164.535 220.506 164.104C220.672 164.381 220.54 164.728 220.145 165.165Z" fill="#151310"/>
<path d="M149.505 123.874C149.957 123.993 150.393 124.128 150.829 124.263C150.459 124.288 150.089 124.314 149.592 124.132C149.464 123.925 149.49 123.89 149.505 123.874Z" fill="#3C3833"/>
<path d="M215.292 146.495C211.593 147.153 207.825 147.433 203.639 147.521C206.975 144.482 210.981 144.129 215.292 146.495Z" fill="#1B1816"/>
<path d="M198.853 151.875C199.211 151.797 199.301 151.995 199.441 152.774C199.488 153.526 199.483 153.7 199.478 153.874C199.463 157.03 199.448 160.187 199.33 163.765C196.684 160.299 196.888 156.265 198.853 151.875Z" fill="#151310"/>
<path d="M202.487 147.578C201.769 148.812 200.793 150.215 199.435 151.62C200.111 150.33 201.17 149.038 202.487 147.578Z" fill="#1B1816"/>
<path d="M199.627 153.778C199.483 153.7 199.488 153.526 199.511 153.093C199.667 153.013 199.827 153.183 199.93 153.382C199.96 153.44 199.831 153.58 199.627 153.778Z" fill="#1B1816"/>
</svg>
