<svg viewBox="0 0 245 580" fill="none" xmlns="http://www.w3.org/2000/svg">
<path d="M190.873 239.2C188.731 241.257 186.589 243.315 183.773 245.525C176.106 249.228 169.116 252.784 162.119 256.326C159.409 257.697 156.683 259.033 153.588 260.469C151.054 261.24 148.897 261.926 146.284 262.592C128.715 263.391 111.584 264.552 94.6477 259.751C97.5498 261.805 100.549 263.328 103.694 264.436C116.494 268.946 129.306 272.062 141.937 263.798C142.496 263.432 143.545 263.814 144.264 264.205C141.545 272.678 136.072 278.031 127.739 279.424C116.694 281.27 106.482 278.37 97.9403 271.148C94.9488 268.619 93.1448 264.685 91.1084 261.283C94.3658 258.774 91.9103 257.293 90.2495 256.316C87.89 254.927 85.2426 253.954 82.6218 253.099C78.2841 251.684 73.8697 250.505 69.4875 249.226C69.4875 249.226 69.312 249.158 69.4105 248.754C67.4101 247.1 65.3113 245.851 63.2124 244.602C60.2669 241.602 57.3213 238.602 54.0786 235.076C52.6534 233.302 51.5254 232.053 50.3974 230.805C50.3974 230.805 50.4577 230.835 50.6135 230.56C50.8448 229.824 51.1163 229.284 50.9669 228.913C48.0053 221.57 45.0382 214.228 41.9683 206.93C41.0464 204.738 39.8109 202.678 38.7191 200.558C38.7191 200.558 38.8058 200.576 38.7419 200.282C36.3577 197.442 35.4635 198.944 34.8789 201.325C22.8285 203.636 13.768 198.887 6.80027 188.794C6.80045 187.619 6.8364 186.995 6.61563 186.482C3.42352 179.054 2.97733 171.718 6.72891 164.263C8.10605 161.526 8.79282 158.442 9.79453 155.516C10.3653 154.764 10.9362 154.012 11.9292 152.947C12.6095 152.35 12.8676 152.065 13.5139 151.75C24.1173 147.691 33.3758 148.392 41.1522 158.388C42.245 154.694 43.0649 152.048 43.8103 149.381C46.8471 138.516 49.2405 127.424 53.0241 116.827C59.226 99.4574 71.1226 87.129 89.4551 83.0175C114.996 77.2892 140.709 78.4588 165.985 84.8267C187.232 90.18 200.498 103.886 204.868 125.705C205.254 127.633 206.085 129.472 206.719 131.762C207.081 133.451 207.434 134.731 207.714 136.057C207.641 136.105 207.693 136.27 207.682 136.755C208.078 142.382 208.485 147.523 208.892 152.665C208.892 152.665 208.838 152.59 208.689 152.641C208.252 152.827 208.138 153.052 207.874 153.578C206.671 155.743 205.734 157.71 208.903 158.497C208.903 158.497 208.848 158.542 208.907 158.877C210.52 159.894 212.073 160.577 213.685 161.285C212.185 161.532 210.754 161.767 208.825 162.084C208.825 170.194 209.07 178.158 208.74 186.098C208.512 191.591 207.488 197.051 206.813 202.779C206.812 203.201 206.818 203.37 206.824 203.539C206.824 203.539 206.825 203.538 206.517 203.619C204.548 209.383 202.887 215.066 201.226 220.749C201.226 220.749 201.409 220.837 201.033 220.893C199.838 223.25 199.019 225.551 198.199 227.852C198.199 227.852 198.262 227.77 197.92 227.801C195.453 229.684 192.177 231.003 194.337 234.836C194.337 234.836 194.255 234.839 193.886 234.788C192.635 236.225 191.754 237.712 190.873 239.2ZM113.728 148.628C113.728 148.628 113.712 148.791 113.582 148.209C113.251 148.017 112.92 147.825 112.726 147.641C112.726 147.641 112.676 147.768 112.717 147.032C111.976 146.641 111.234 146.25 110.621 145.768C110.621 145.768 110.623 145.926 110.498 145.25C109.885 145.046 109.273 144.841 108.769 144.611C108.769 144.611 108.767 144.723 108.574 144.166C108.219 144.048 107.864 143.931 107.634 143.885C107.634 143.885 107.515 143.966 107.5 143.186C103.084 142.086 98.6813 140.222 94.2476 140.145C91.1599 140.092 88.0299 142.492 84.9001 143.66C84.9001 143.66 85.0349 143.684 84.3433 143.625C83.8763 144.037 83.4092 144.448 82.9602 144.697C82.9602 144.697 83.1041 144.776 82.5815 144.645C82.2466 144.754 81.9116 144.862 81.5767 144.971C81.6987 145.187 81.8207 145.404 81.6737 146.144C80.597 146.956 79.5202 147.768 77.7783 148.75C77.4855 149.076 77.1928 149.402 77.0877 149.6C77.0877 149.6 77.213 149.79 76.4832 149.823C75.9922 150.809 75.5011 151.794 74.9615 152.634C74.9615 152.634 75.1159 152.637 74.4729 152.845C74.2885 153.464 74.104 154.083 73.8946 154.586C73.8946 154.586 74.0133 154.588 73.3878 154.836C73.2481 155.471 73.1085 156.106 72.9473 156.594C72.9473 156.594 73.0951 156.612 72.3781 156.877C70.2932 161.707 67.9289 166.532 71.9701 171.482C71.9701 171.482 72.0006 171.32 71.8669 172.084C72.6442 173.506 73.4215 174.928 74.0708 176.365C74.0708 176.365 74.1504 176.264 73.9265 177.035C74.6839 177.772 75.4413 178.51 76.1557 179.357C76.1557 179.357 76.1084 179.249 75.912 180.01C77.5562 185.198 80.4547 187.304 85.8844 187.362C85.8844 187.362 85.9333 187.224 86.1407 187.894C86.7848 188.04 87.4288 188.185 87.9108 188.384C87.9108 188.384 87.9128 188.213 88.1993 188.911C93.0573 192.306 98.3054 191.785 103.425 189.967C104.976 189.417 106.008 187.402 107.435 185.931C107.435 185.931 107.63 185.874 108.043 186.383C109.58 184.995 111.117 183.606 112.696 182.398C112.696 182.398 112.512 182.381 113.116 182.262C113.295 181.914 113.475 181.565 113.684 181.404C113.684 181.404 113.498 181.372 114.108 181.256C114.264 180.898 114.42 180.541 114.572 180.353C114.572 180.353 114.427 180.264 115.163 180.253C120.956 174.877 123.419 162.899 119.949 156.001C119.272 154.655 117.727 153.745 116.71 152.617C116.71 152.617 116.684 152.743 116.763 152.03C116.019 151.245 115.274 150.459 114.703 149.633C114.703 149.633 114.697 149.811 114.572 149.222C114.236 149.032 113.901 148.843 113.728 148.628ZM184.756 148.643C184.756 148.643 184.709 148.817 184.553 148.228C184.199 148.071 183.844 147.914 183.687 147.757C183.687 147.757 183.615 147.94 183.485 147.258C182.864 147.064 182.242 146.871 181.75 146.65C181.75 146.65 181.735 146.782 181.6 146.051C177.301 140.634 167.781 140.56 161.998 145.757C161.998 145.757 162.111 145.842 161.4 145.666C160.239 146.702 159.078 147.738 157.917 148.645C157.917 148.645 158.039 148.688 157.254 148.581C156.488 149.629 155.722 150.677 154.929 151.625C154.929 151.625 155.025 151.664 154.28 151.637C153.818 152.647 153.356 153.657 152.872 154.576C152.872 154.576 152.965 154.574 152.272 154.794C149.404 158.496 146.702 162.614 148.105 167.319C149.271 171.228 148.399 176.749 154.216 178.27C154.216 178.27 154.289 178.274 153.872 178.799C154.202 183.175 157.017 184.916 160.852 185.499C160.852 185.499 160.841 185.399 161.148 185.99C161.776 186.125 162.403 186.26 162.892 186.428C162.892 186.428 162.9 186.287 163.126 186.928C163.761 187.083 164.395 187.237 164.89 187.399C164.89 187.399 164.926 187.265 165.09 188.022C170.77 191.475 176.121 191.201 179.768 187.399C179.768 187.399 179.636 187.396 180.391 187.492C181.038 187.003 181.684 186.514 182.518 186.056C182.518 186.056 182.51 186.246 183.128 186.226C183.257 185.864 183.386 185.502 183.704 185.237C183.704 185.237 183.599 185.422 184.207 185.196C184.391 184.81 184.575 184.424 185.089 183.518C186.629 181.811 188.169 180.104 190.088 178.795C190.871 176.982 191.654 175.169 192.355 173.301C192.355 173.301 192.333 173.205 193.11 173.076C194.838 168.83 196.121 164.605 192.673 160.558C192.673 160.558 192.692 160.708 192.76 159.959C192.343 159.184 191.925 158.409 191.672 157.627C191.672 157.627 191.624 157.784 191.722 157.087C191.317 156.609 190.913 156.13 190.664 155.634C190.664 155.634 190.625 155.786 190.722 155.084C190.276 154.661 189.83 154.238 189.625 153.652C189.625 153.652 189.424 153.863 189.689 153.077C188.659 152.249 187.63 151.422 186.189 150.507C185.905 150.371 185.76 150.145 185.578 149.248C185.244 149.043 184.91 148.838 184.756 148.643ZM117.637 125.765C119.555 120.431 118.157 116.783 112.327 114.44C98.9418 109.061 86.3842 111.558 74.594 119.286C74.0461 119.646 73.2724 120.107 73.1749 120.627C72.8109 122.57 71.9849 124.888 72.7065 126.417C73.2196 127.504 76.2216 128.397 77.6276 127.926C87.9381 124.476 98.1003 125.251 108.468 127.68C111.124 128.303 114.259 126.883 117.637 125.765ZM102.826 214.019C103.725 215.919 104.233 218.171 105.582 219.664C116.397 231.626 142.481 234.22 155.389 224.773C160.31 221.171 159.902 216.683 155.514 214.455C150.118 217.033 145.63 220.157 140.678 221.344C129.232 224.087 119.178 220.864 110.945 212.207C107.093 208.156 105.512 208.461 102.826 214.019ZM187.587 131.255C189.348 130.079 192.59 128.871 192.565 127.733C192.511 125.226 191.473 121.997 189.659 120.405C183.296 114.822 175.252 112.521 167.072 112.981C162.485 113.239 157.672 115.766 153.752 118.432C152.231 119.467 152.392 123.797 152.874 126.426C153.011 127.172 157.244 128.047 159.146 127.442C169.036 124.296 178.068 126.449 187.587 131.255ZM130.496 190.538C128.844 190.626 126.779 190.119 125.623 190.922C122.818 192.868 120.436 195.423 117.883 197.733C120.388 199.233 122.855 201.922 125.404 202.001C131.742 202.197 138.144 201.403 144.453 200.522C145.711 200.346 147.289 198.124 147.548 196.641C147.724 195.636 146.051 193.525 144.857 193.204C140.455 192.023 135.909 191.382 130.496 190.538Z" fill="#96481B"/>
<path d="M206.709 131.353C206.085 129.472 205.254 127.633 204.867 125.705C200.497 103.886 187.232 90.1801 165.984 84.8268C140.709 78.4588 114.996 77.2893 89.4548 83.0175C71.1223 87.1291 59.2257 99.4575 53.0238 116.827C49.2402 127.424 46.8468 138.516 43.81 149.381C43.0646 152.048 42.2447 154.694 41.1519 158.388C33.3755 148.392 24.117 147.691 13.3732 151.41C11.1776 145.219 9.65257 139.291 7.74159 133.489C7.27848 132.083 5.54258 131.097 4.39201 129.917C4.39201 129.917 4.51277 129.804 4.51365 129.579C4.22438 129.105 3.93422 128.856 3.64405 128.607C3.64405 128.607 3.74708 128.602 3.80052 128.307C3.75056 126.739 3.91633 125.367 3.49754 124.207C1.59574 118.939 1.05656 114.003 3.55378 108.493C4.90193 105.519 4.0142 101.486 3.96174 97.9337C3.9019 93.8757 3.36857 89.8071 3.56504 85.7685C3.73667 82.241 4.63554 78.7488 5.21312 75.241C5.21312 75.241 5.30009 75.1671 5.70152 75.2273C6.90989 73.9209 7.71687 72.5544 8.52379 71.1878C8.52379 71.1878 8.63078 71.3471 8.93882 71.3668C10.6481 70.1801 13.1594 69.056 13.2561 67.7528C13.649 62.4576 13.7927 57.1869 15.7055 52.1321C15.892 51.6393 15.4145 50.8952 15.2452 50.2678C15.2452 50.2678 15.2041 50.0757 15.6105 50.0973C16.7266 48.7772 17.4362 47.4355 18.1458 46.0938C18.1458 46.0938 18.2618 46.0639 18.5949 46.0923C18.9954 45.7672 19.0628 45.4137 19.1303 45.0603C19.1303 45.0603 19.255 45.0177 19.5999 45.064C20.0593 44.7476 20.174 44.3851 20.2886 44.0225C20.2886 44.0225 20.3866 44.0545 20.7707 44.1771C24.0669 43.6373 27.3257 43.4496 27.7979 39.4469C27.7979 39.4469 27.8478 38.9584 28.2286 38.7105C29.1831 38.221 29.7569 37.9794 30.3305 37.7378C30.0412 37.3993 29.7518 37.0607 29.4624 36.7222C30.2859 34.4366 31.1092 32.1511 32.5153 29.5451C33.2559 28.8539 33.4138 28.4831 33.5717 28.1124C33.5717 28.1124 33.6035 28.3413 33.8125 28.264C34.169 27.8129 34.3164 27.439 34.4638 27.0651C34.4638 27.0651 34.5362 27.2572 34.7641 27.2151C35.1483 26.8025 35.3047 26.4319 35.4612 26.0614C35.4612 26.0614 35.5208 26.2763 35.8582 26.3141C36.8132 25.5772 37.4308 24.8026 38.0483 24.0279C38.0483 24.0279 38.2231 23.8634 38.6671 24.025C43.1676 23.0961 47.3533 22.3226 51.2135 20.7501C52.6397 20.1691 53.2998 17.7075 54.3094 16.1037C54.3094 16.1037 54.7279 16.165 54.8412 16.159C55.0166 15.7893 55.0787 15.4255 55.1408 15.0617C55.1408 15.0617 55.2491 14.9433 55.6418 15.0464C56.3965 14.4451 56.7585 13.7409 57.1206 13.0367C57.1206 13.0367 57.2666 12.9476 57.7008 13.1027C59.0674 13.0652 60.1631 13.1237 60.9057 12.64C66.0496 9.28951 71.3117 6.84014 77.7807 8.14043C78.9862 8.38275 80.5624 6.7811 81.9676 6.03044C81.9676 6.03044 82.2099 5.77642 82.6551 5.99126C84.5463 6.00092 86.1863 6.16748 87.4066 5.53034C95.4244 1.34406 103.773 1.63455 112.284 3.30896C115.957 4.03171 119.872 5.80112 123.282 5.11794C130.408 3.68988 137.147 3.42739 144.01 6.01282C146.219 6.84506 148.709 6.93134 151.07 7.35887C151.07 7.35887 150.93 7.39148 151.041 7.60564C151.51 7.82759 151.869 7.83539 152.227 7.84317C152.227 7.84317 152.388 7.91811 152.332 8.29631C155.713 14.2275 164.675 17.2367 171.073 14.9861C171.073 14.9861 171.226 14.9373 171.223 15.3033C174.21 17.8562 177.144 20.1243 180.215 22.1899C181.43 23.0069 182.947 23.3737 184.327 23.9454C184.327 23.9454 184.293 24.0308 184.234 24.3529C184.413 24.9733 184.651 25.2715 184.89 25.5697C185.825 27.3528 186.761 29.1359 187.398 31.3349C187.804 32.9038 188.508 34.0568 189.211 35.2098C189.211 35.2098 189.025 35.2797 189.106 35.5389C191.878 36.8306 194.57 37.8631 197.261 38.8955C197.261 38.8955 197.337 38.9982 197.242 39.3608C199.867 42.1555 202.588 44.5877 205.308 47.0199C205.308 47.0199 205.363 47.1379 205.187 47.4399C206.348 53.4096 207.635 59.0905 209.108 64.7225C209.244 65.2431 210.568 65.4528 211.341 65.8069C211.341 65.8069 211.457 65.9401 211.33 66.3252C212.171 69.6918 213.402 72.3585 217.314 71.8141C217.314 71.8141 217.429 72.0018 217.238 72.4953C217.379 74.7443 217.59 76.534 218.07 78.2483C219.198 82.2768 220.742 86.0094 219.268 90.547C217.497 96.0012 216.248 102.086 219.244 107.388C221.867 112.029 219.584 115.864 218.896 120.042C218.517 122.34 218.07 124.627 217.653 126.919C217.653 126.919 217.542 127.191 217.092 127.071C215.552 128.14 213.906 129.158 213.478 130.55C212.283 134.436 211.593 138.477 210.358 144.004C209.152 140.503 208.423 138.387 207.693 136.27C207.693 136.27 207.641 136.105 207.713 135.627C207.426 133.884 207.068 132.618 206.709 131.353Z" fill="#3F291B"/>
<path d="M29.7352 361.736C28.8154 361.298 27.8957 360.861 26.9531 359.823C26.8466 358.461 26.9019 357.651 26.6576 356.945C24.7529 351.436 22.276 346.061 21.0391 340.411C20.2985 337.029 21.9306 333.196 21.6867 329.621C21.1593 321.887 23.2037 314.583 24.7282 307.186C25.6928 302.506 26.9964 297.895 28.148 293.253C28.148 293.253 28.1849 293.031 28.5921 293.11C30.9222 290.296 32.8452 287.405 34.7681 284.514C46.1139 272.485 60.1714 265.571 76.7941 262.861C78.1008 265.032 78.5255 267.138 79.7232 268.619C90.9087 282.457 105.037 291.795 122.966 293.288C140.329 294.733 153.632 283.436 159.22 264.552C160.557 265.074 161.471 265.85 162.495 266.044C165.108 266.539 167.771 266.775 170.413 267.115C170.505 267.317 170.596 267.519 170.416 268.129C170.238 268.415 170.333 268.295 170.428 268.174C170.451 268.009 170.474 267.843 170.798 267.934C175.357 271.247 179.587 274.347 183.917 277.299C184.386 277.619 185.435 277.089 186.215 276.953C186.215 276.953 186.301 277.034 186.202 277.415C186.516 280.799 188.297 281.807 191.147 281.257C191.147 281.257 191.013 281.319 191.062 281.594C191.834 282.297 192.556 282.726 193.279 283.154C193.279 283.154 193.139 283.253 193.164 283.489C193.556 283.842 193.924 283.96 194.292 284.077C194.292 284.077 194.042 284.502 194.125 284.602C194.573 284.82 194.937 284.938 195.302 285.057C195.302 285.057 195.347 285.134 195.233 285.473C195.845 286.206 196.57 286.6 197.296 286.994C197.296 286.994 197.287 287.043 197.244 287.376C197.562 287.852 197.923 287.996 198.283 288.14C198.283 288.14 198.166 288.269 198.171 288.496C198.509 288.928 198.842 289.133 199.174 289.337C199.174 289.337 199.029 289.361 198.981 289.669C199.008 290.624 198.868 291.415 199.19 291.896C202.156 296.328 205.134 300.757 208.291 305.052C208.815 305.766 210.222 305.831 211.221 306.195C211.221 306.195 211.183 306.284 211.026 306.561C211.185 308.36 211.311 309.954 211.851 311.392C213.613 316.085 216.086 320.589 217.227 325.415C218.438 330.535 218.434 335.942 218.97 341.222C219.511 346.545 218.076 351.099 213.406 354.554C206.386 353.083 199.759 351.672 193.16 350.144C182.379 347.648 182.964 348.078 176.168 356.584C167.903 366.931 158.519 376.381 149.669 386.264C147.909 388.228 146.373 390.393 144.274 392.473C132.489 392.49 121.163 392.498 109.622 392.241C107.809 391.123 106.159 390.354 104.621 389.405C90.5828 380.746 79.0114 369.413 69.3247 356.17C67.4225 353.569 65.8398 353.682 63.0661 354.236C52.442 356.36 41.7296 358.041 31.0687 359.988C30.5355 360.085 30.1757 361.132 29.7352 361.736Z" fill="#B72B1B"/>
<path d="M30.751 527.462C29.9373 526.178 29.1237 524.894 28.0571 523.022C28.4537 520.086 29.5491 517.763 29.6735 515.389C30.1462 506.37 33.0048 497.619 30.9501 488.24C29.7744 482.874 31.3127 476.802 32.1924 471.135C32.7842 467.324 34.3614 463.665 35.7024 459.267C35.7881 459.345 34.8049 458.821 34.3917 458.008C32.2161 453.726 34.5153 438.482 39.3713 435.586C43.3041 433.24 44.2913 427.468 41.954 424.59C42.1738 422.467 42.3936 420.345 43.1056 417.809C44.5101 414.497 45.5235 411.626 46.3113 408.694C47.5838 403.959 48.7079 399.184 50.2356 394.486C60.1074 401.169 69.4602 408.072 79.2325 414.318C85.7172 418.463 91.7751 422.613 96.2805 429.173C99.1961 433.418 103.796 436.516 107.689 440.076C109.712 441.925 111.839 443.661 113.892 445.865C113.065 452.184 112.578 458.15 111.394 463.975C109.34 474.083 106.796 484.091 104.572 494.165C103.402 499.468 102.658 504.867 101.395 510.145C99.3599 518.645 97.0549 527.081 94.6816 535.644C94.4993 535.745 94.1021 535.87 93.6869 535.765C90.4618 535.943 87.652 536.226 84.3786 536.5C77.6462 536.2 71.3683 535.542 65.1104 535.696C52.8712 535.998 41.6036 532.707 30.751 527.462ZM52.1771 463.979C47.6652 463.369 43.1534 462.758 38.1101 462.076C42.4827 465.956 46.986 465.439 52.1771 463.979Z" fill="#62631A"/>
<path d="M113.919 445.449C111.839 443.661 109.712 441.925 107.689 440.076C103.796 436.516 99.196 433.418 96.2804 429.173C91.775 422.613 85.7171 418.463 79.2324 414.318C69.4601 408.072 60.1073 401.169 50.2117 394.228C49.4836 393.045 49.1199 392.181 48.7563 391.316C40.5077 382.967 33.4235 373.851 29.7583 362.104C30.1754 361.132 30.5353 360.085 31.0684 359.988C41.7294 358.041 52.4418 356.36 63.0659 354.236C65.8395 353.682 67.4222 353.569 69.3244 356.17C79.0112 369.413 90.5826 380.746 104.621 389.405C106.159 390.354 107.808 391.123 109.873 392.535C121.644 393.816 132.947 394.539 144.822 395.297C144.822 396.979 144.822 398.758 144.496 400.567C143.324 401.045 142.478 401.494 141.632 401.943C141.869 402.246 142.107 402.55 142.344 402.853C143.172 402.083 143.999 401.312 145.116 400.34C148.971 395.836 148.868 394.661 144.734 392.465C146.373 390.393 147.909 388.228 149.669 386.264C158.519 376.381 167.903 366.931 176.168 356.584C182.964 348.078 182.378 347.648 193.16 350.144C199.759 351.672 206.385 353.083 213.419 354.934C213.785 357.361 213.732 359.399 213.679 361.438C208.647 376.34 199.219 388.435 188.651 400.486C188.073 401.425 187.877 401.924 187.405 402.606C180.762 408.785 174.483 414.88 167.992 420.738C164.117 424.235 159.908 427.361 155.708 430.305C150.63 422.668 145.67 415.396 140.776 408.081C139.772 406.58 139.013 404.916 137.972 403.021C136.629 403.021 134.467 403.021 132.491 403.021C137.997 409.779 143.605 416.116 148.521 422.95C150.693 425.969 151.459 429.999 152.845 433.558C152.828 433.547 152.865 433.577 152.537 433.604C151.775 434.283 151.34 434.934 150.881 435.581C150.858 435.576 150.871 435.623 150.488 435.6C146.715 437.064 144.148 436.099 141.914 433.211C139.789 430.466 137.316 427.992 135.06 425.345C133.243 423.213 131.521 421 129.757 418.823C129.064 419.472 128.372 420.122 127.679 420.772C132.733 426.705 137.786 432.638 142.847 438.953C141.634 441.339 140.866 444.393 139.108 445.151C133.707 447.482 127.926 448.934 122.293 450.727C120.448 449.9 118.603 449.074 116.354 447.776C115.272 446.686 114.595 446.067 113.919 445.449Z" fill="#984A1C"/>
<path d="M122.341 451.113C127.926 448.934 133.707 447.482 139.108 445.151C140.867 444.393 141.634 441.339 143.271 438.947C146.287 438.083 149.919 440.129 150.871 435.623C150.871 435.623 150.858 435.576 151.198 435.543C151.98 434.866 152.423 434.221 152.866 433.577C152.866 433.577 152.828 433.547 153.12 433.427C154.225 432.423 155.037 431.539 155.85 430.654C159.909 427.361 164.117 424.235 167.992 420.738C174.484 414.88 180.762 408.785 187.477 402.959C188.916 408.629 189.987 414.134 191.107 419.63C193.688 432.3 196.276 444.967 198.895 457.628C199.786 461.938 200.774 466.227 201.718 470.525C201.718 470.525 201.865 470.938 201.848 471.561C201.895 474.351 201.83 476.533 202.049 478.686C202.632 484.43 203.127 490.197 204.074 495.885C204.617 499.15 205.971 502.279 206.96 505.469C206.96 505.469 206.875 505.499 206.855 505.887C207.222 508.36 207.608 510.444 207.994 512.528C207.994 512.528 207.875 512.516 207.855 512.93C207.801 517.643 207.768 521.941 207.734 526.239C207.734 526.239 207.842 526.398 207.406 526.507C194.53 532.309 181.311 533.658 167.384 533.609C157.875 532.608 148.829 531.637 139.788 530.647C139.792 530.628 139.783 530.593 139.605 530.359C139.062 530.159 138.695 530.193 138.329 530.227C138.329 530.227 138.273 530.104 138.407 529.688C137.93 527.12 137.116 525.001 136.747 522.807C135.441 515.046 134.359 507.248 133.056 499.487C131.577 490.681 130.009 481.89 128.31 473.125C128.125 472.168 126.822 471.427 126.037 470.586C124.821 464.223 123.605 457.861 122.341 451.113Z" fill="#61641A"/>
<path d="M139.784 530.666C148.829 531.637 157.875 532.608 167.454 533.962C173.897 536.877 180.141 538.733 182.963 545.686C183.573 547.189 187.172 548.677 188.983 548.283C196.291 546.693 203.436 544.357 210.645 542.31C214.11 541.326 217.582 540.37 221.378 539.485C224.056 540.566 226.406 541.564 228.757 542.562C228.757 542.562 228.822 542.549 228.885 542.893C229.873 543.679 230.8 544.122 231.726 544.566C232.376 545.002 233.026 545.438 233.821 546.521C235.461 549.099 236.927 551.053 238.458 552.954C241.649 556.916 240.934 561.819 236.379 561.957C228.641 562.193 222.418 567.791 213.55 565.547C206.479 563.757 198.088 566.731 190.199 564.878C184.747 563.597 179.058 563.331 173.6 562.07C170.783 561.42 168.209 560.717 165.483 561.957C165.491 561.944 165.463 561.944 165.562 561.651C161.317 559.859 156.973 558.36 152.593 556.993C152.557 557.126 152.282 557.143 152.348 556.779C151.798 556.299 151.182 556.182 150.425 556.139C150.284 556.213 149.995 556.083 150.211 555.822C148.78 554.917 147.135 554.272 145.29 553.64C145.092 553.651 144.781 553.402 144.62 553.103C143.265 550.31 141.462 547.919 141.009 545.296C140.18 540.492 140.148 535.55 139.784 530.666Z" fill="#35352E"/>
<path d="M158.846 264.542C153.632 283.436 140.329 294.733 122.966 293.288C105.037 291.796 90.9088 282.457 79.7232 268.619C78.5256 267.138 78.1009 265.032 77.2192 262.886C81.2817 261.954 85.4426 261.35 90.0825 261.025C90.5615 261.304 90.7985 261.392 90.7985 261.392C93.1448 264.685 94.9487 268.619 97.9402 271.148C106.482 278.37 116.694 281.27 127.739 279.424C136.072 278.031 141.545 272.678 144.537 264.191C145.521 263.416 146.13 263.014 146.739 262.612C148.897 261.926 151.054 261.24 153.77 260.498C154.33 260.442 154.706 260.421 154.706 260.421L155.077 260.49C156.082 261.117 157.086 261.743 158.415 262.881C158.775 263.776 158.81 264.159 158.846 264.542Z" fill="#384F85"/>
<path d="M241.691 562.499C245.147 563.294 244.34 566.182 243.138 567.483C240.659 570.167 237.755 573.398 234.472 574.237C220.557 577.792 206.344 578.711 192.153 575.775C178.233 572.895 164.349 569.817 150.522 566.523C145.324 565.285 141.902 561.722 141.113 555.765C142.164 555.289 142.996 555.116 143.662 555.373C153.277 559.083 162.596 564.108 172.541 566.276C184.28 568.836 196.363 571.233 208.649 569.585C210.271 569.367 211.978 569.821 213.609 569.638C219.023 569.031 224.421 568.276 230.211 567.565C231.583 567.036 232.568 566.519 233.615 566.066C233.677 566.131 233.509 566.192 233.894 566.296C235.044 565.941 235.81 565.482 236.625 565.101C236.676 565.181 236.489 565.193 236.878 565.295C237.921 564.897 238.574 564.395 239.321 563.904C239.415 563.914 239.454 564.098 239.742 564.128C240.271 563.872 240.512 563.586 240.808 563.075C241.078 562.587 241.353 562.471 241.691 562.499Z" fill="#ECE3D7"/>
<path d="M90.6001 559.01C93.6883 561.867 92.5785 567.267 87.6544 569.467C81.3401 572.288 74.7543 574.766 68.0418 576.378C52.2552 580.167 36.0848 580.078 20.0014 579.351C14.8562 579.119 9.66061 577.208 4.76236 575.344C1.7796 574.209 -0.487977 571.619 2.17599 567.864C5.47308 568.548 8.1694 569.157 10.9591 570.13C14.5269 571.167 18.0028 572.415 21.4753 572.406C31.4014 572.379 41.3517 572.158 51.2398 571.361C55.6925 571.001 60.0199 569.09 64.5611 567.94C64.7179 567.997 64.6574 568.326 65.0893 568.385C69.1458 567.272 72.7704 566.098 76.465 564.943C76.5351 564.962 76.5298 565.108 76.9082 565.241C77.9684 564.878 78.6501 564.382 79.4279 563.902C79.5238 563.918 79.5695 564.108 79.9428 564.238C81.7119 563.578 83.1076 562.787 84.5584 562.081C84.6134 562.166 84.4109 562.167 84.6922 562.192C85.2543 561.996 85.5351 561.775 85.8821 561.468C85.9483 561.383 86.1569 561.44 86.5748 561.454C88.1927 560.675 89.3928 559.881 90.6031 559.069C90.6134 559.051 90.6001 559.01 90.6001 559.01Z" fill="#ECE3D7"/>
<path d="M206.82 202.525C207.488 197.051 208.512 191.591 208.74 186.098C209.07 178.158 208.825 170.194 208.825 162.085C210.754 161.767 212.185 161.532 213.685 161.286C212.073 160.577 210.52 159.894 208.913 158.842C217.391 158.571 221.86 162.924 224.448 173.657C227.316 185.554 219.953 199.154 208.083 202.597C207.217 202.538 207.019 202.532 206.82 202.525Z" fill="#8E4116"/>
<path d="M221.05 539.401C217.582 540.37 214.109 541.326 210.645 542.31C203.436 544.358 196.291 546.693 188.983 548.283C187.172 548.677 183.573 547.189 182.963 545.687C180.141 538.733 173.897 536.877 167.917 533.992C181.311 533.658 194.53 532.309 207.325 526.559C208.028 526.971 208.375 527.441 208.555 528.374C209.267 533.241 216.647 537.628 222.217 537.059C222.217 537.059 222.286 537.124 222.137 537.395C221.676 538.245 221.363 538.823 221.05 539.401Z" fill="#2E2D28"/>
<path d="M30.558 527.729C41.6039 532.707 52.8715 535.998 65.1107 535.696C71.3686 535.542 77.6465 536.2 84.0903 536.802C81.3088 537.258 78.2965 537.103 75.415 537.645C73.3318 538.037 71.1312 538.992 69.4862 540.319C62.479 545.974 56.1448 553.329 45.6158 547.996C44.9152 547.641 43.9655 547.81 43.2092 547.528C36.0208 544.843 28.8491 542.113 21.8379 539.121C22.9101 538.4 23.817 537.954 25.1505 537.515C31.5788 539.115 37.5197 541.021 43.6016 542.198C48.4167 543.13 53.5114 544.785 58.2412 541.596C50.8809 539.328 43.6008 537.281 36.4804 534.78C34.0447 533.925 32.0095 531.93 29.7912 530.455C29.9824 529.635 30.1736 528.816 30.558 527.729Z" fill="#2E2D28"/>
<path d="M41.8851 424.984C44.2914 427.468 43.3042 433.24 39.3714 435.586C34.5154 438.482 32.2162 453.726 34.3918 458.008C34.805 458.821 35.7883 459.345 35.7025 459.267C34.3616 463.665 32.7843 467.324 32.1926 471.135C31.3128 476.802 29.7745 482.874 30.9502 488.24C33.0049 497.619 30.1464 506.37 29.6736 515.39C29.5492 517.764 28.4538 520.087 27.7859 522.816C27.5264 520.693 26.9581 518.167 27.1028 515.683C27.6351 506.548 30.041 497.779 28.9497 488.218C27.9284 479.27 30.9315 469.899 31.8513 460.683C32.4604 454.579 31.9282 448.308 33.064 442.332C33.6688 439.149 36.9495 436.552 38.6203 433.472C39.9934 430.941 40.7732 428.088 41.8851 424.984Z" fill="#43450F"/>
<path d="M241.858 562.188C241.353 562.471 241.078 562.588 240.553 563.161C239.979 563.681 239.716 563.89 239.454 564.098C239.454 564.098 239.415 563.914 239.046 564.045C237.947 564.515 237.218 564.854 236.489 565.193C236.489 565.193 236.676 565.181 236.304 565.203C235.124 565.548 234.317 565.87 233.509 566.192C233.509 566.192 233.677 566.131 233.25 566.176C231.829 566.393 230.835 566.567 229.429 566.699C207.489 569.785 186.286 568.534 165.474 561.97C168.209 560.717 170.783 561.42 173.599 562.071C179.058 563.331 184.747 563.597 190.199 564.878C198.088 566.731 206.479 563.757 213.55 565.547C222.418 567.792 228.641 562.193 236.379 561.958C240.934 561.819 241.649 556.916 238.458 552.954C236.926 551.053 235.461 549.099 233.905 546.813C240.179 548.138 244.807 556.859 241.858 562.188Z" fill="#12110F"/>
<path d="M113.893 445.865C114.596 446.067 115.273 446.685 116.114 447.453C113.463 461.744 110.683 475.894 107.821 490.027C105.199 502.971 102.535 515.908 99.7712 528.823C99.366 530.716 98.3041 532.469 96.958 534.534C95.868 535.035 95.3661 535.289 94.8643 535.544C97.0551 527.081 99.3602 518.645 101.395 510.145C102.658 504.867 103.402 499.468 104.572 494.165C106.796 484.091 109.34 474.083 111.395 463.975C112.579 458.15 113.065 452.184 113.893 445.865Z" fill="#43450F"/>
<path d="M94.6819 535.644C95.3661 535.289 95.868 535.035 96.6384 534.697C95.8896 540.799 95.0083 547.012 93.7747 553.154C93.3906 555.067 92.0533 556.788 90.8763 558.803C90.6003 559.01 90.6136 559.051 90.2662 559.206C88.6649 560.054 87.411 560.747 86.1571 561.44C86.1571 561.44 85.9485 561.383 85.6119 561.483C84.9873 561.778 84.6992 561.973 84.4111 562.167C84.4111 562.167 84.6136 562.166 84.2339 562.199C82.4261 562.858 80.9979 563.483 79.5697 564.108C79.5697 564.108 79.524 563.919 79.1289 563.992C77.9992 564.413 77.2646 564.761 76.53 565.108C76.53 565.108 76.5353 564.963 76.0932 565.042C71.9866 566.19 68.3221 567.258 64.6577 568.326C64.6577 568.326 64.7181 567.997 64.1552 568.001C56.3422 568.818 49.0923 569.632 41.8206 570.087C41.7988 568.768 41.7988 567.809 41.7988 566.453C59.0483 568.241 75.1095 564.385 90.0686 557.16C91.4587 549.824 92.7805 542.847 94.1023 535.87C94.1023 535.87 94.4995 535.745 94.6819 535.644Z" fill="#12110F"/>
<path d="M165.482 561.957C186.286 568.534 207.489 569.785 229.427 566.908C229.838 567.159 229.824 567.577 229.824 567.577C224.421 568.276 219.023 569.031 213.609 569.639C211.978 569.821 210.27 569.367 208.649 569.585C196.362 571.233 184.28 568.836 172.541 566.276C162.596 564.108 153.277 559.083 143.662 555.373C142.996 555.116 142.164 555.289 141.103 555.389C140.743 554.353 140.691 553.188 141.056 551.812C142.576 552.202 143.678 552.802 144.781 553.402C144.781 553.402 145.091 553.651 145.49 553.917C147.258 554.816 148.626 555.45 149.995 556.083C149.995 556.083 150.284 556.213 150.555 556.363C151.31 556.722 151.796 556.932 152.281 557.143C152.281 557.143 152.556 557.126 152.754 557.305C157.122 558.971 161.292 560.457 165.463 561.944C165.463 561.944 165.491 561.944 165.482 561.957Z" fill="#F4F0E9"/>
<path d="M29.4675 530.602C32.0091 531.93 34.0444 533.925 36.48 534.781C43.6004 537.282 50.8805 539.328 58.2408 541.596C53.511 544.785 48.4164 543.131 43.6012 542.198C37.5193 541.021 31.5784 539.115 25.1775 537.239C25.1006 536.094 25.4227 535.234 25.7449 534.375C26.878 533.166 28.0111 531.958 29.4675 530.602Z" fill="#35352E"/>
<path d="M27.9517 293.507C26.9966 297.895 25.693 302.506 24.7283 307.186C23.2039 314.583 21.1595 321.887 21.6868 329.621C21.9307 333.196 20.2986 337.029 21.0392 340.411C22.2761 346.061 24.753 351.436 26.6578 356.945C26.9021 357.651 26.8468 358.461 26.8223 359.539C24.5809 354.771 21.2007 349.843 20.5422 344.575C18.3591 327.108 18.8105 309.762 27.9517 293.507Z" fill="#A71810"/>
<path d="M201.81 470.182C200.774 466.227 199.786 461.938 198.894 457.628C196.276 444.967 193.687 432.299 191.107 419.63C189.987 414.134 188.916 408.628 187.751 402.775C187.877 401.924 188.073 401.425 188.507 400.798C192.223 416.777 195.866 432.85 199.101 449.005C200.475 455.862 200.995 462.889 201.81 470.182Z" fill="#43450F"/>
<path d="M213.795 361.092C213.732 359.4 213.786 357.361 213.825 354.942C218.076 351.099 219.511 346.545 218.971 341.222C218.434 335.942 218.438 330.535 217.227 325.415C216.086 320.589 213.613 316.085 211.851 311.392C211.311 309.954 211.185 308.36 211.074 306.553C218.474 318.404 222.088 331.493 220.676 345.583C220.353 348.808 217.741 351.786 216.278 354.922C215.394 356.819 214.693 358.802 213.795 361.092Z" fill="#A71810"/>
<path d="M217.827 126.642C218.07 124.627 218.517 122.34 218.896 120.042C219.584 115.864 221.866 112.029 219.244 107.387C216.248 102.086 217.497 96.0011 219.268 90.5469C220.742 86.0093 219.198 82.2767 218.07 78.2483C217.59 76.534 217.379 74.7443 217.249 72.6047C222.257 79.7865 223.211 87.7376 220.13 96.2282C219.587 97.7231 219.42 99.7314 219.956 101.179C223.191 109.926 222.518 118.27 217.827 126.642Z" fill="#12110F"/>
<path d="M125.978 470.993C126.822 471.427 128.125 472.168 128.31 473.125C130.009 481.89 131.577 490.681 133.056 499.487C134.359 507.248 135.44 515.046 136.747 522.807C137.116 525.001 137.93 527.12 138.344 529.663C137.066 527.415 135.496 524.869 134.983 522.125C131.829 505.242 128.913 488.314 125.978 470.993Z" fill="#43450F"/>
<path d="M5.00924 75.5105C4.6357 78.7489 3.73684 82.2411 3.56521 85.7686C3.36873 89.8072 3.90206 93.8758 3.96191 97.9337C4.01436 101.486 4.90209 105.519 3.55395 108.493C1.05672 114.003 1.59591 118.939 3.4977 124.207C3.91649 125.368 3.75072 126.739 3.78768 128.357C-0.763193 121.528 -0.0735563 114.052 2.15758 106.362C2.77498 104.234 3.12743 101.614 2.45836 99.6C-0.323526 91.2244 0.517478 83.3747 5.00924 75.5105Z" fill="#12110F"/>
<path d="M10.8657 569.767C8.16933 569.157 5.47301 568.548 2.51875 567.679C2.03856 567.122 1.81624 566.827 1.56813 566.174C1.54231 565.817 1.80907 565.55 2.1797 565.69C11.5319 567.732 20.4706 569.586 29.8048 568.825C33.0737 568.559 36.4732 569.892 39.3842 570.562C29.5922 570.342 20.229 570.054 10.8657 569.767Z" fill="#12110F"/>
<path d="M207.682 136.755C208.423 138.387 209.152 140.503 210.359 144.004C211.594 138.477 212.283 134.436 213.478 130.55C213.906 129.158 215.553 128.14 216.979 127.165C215.837 132.304 214.393 137.239 212.871 142.15C211.815 145.559 210.652 148.936 209.214 152.496C208.485 147.523 208.078 142.382 207.682 136.755Z" fill="#12110F"/>
<path d="M206.904 505.127C205.971 502.279 204.617 499.15 204.074 495.885C203.127 490.197 202.632 484.43 202.049 478.686C201.83 476.533 201.895 474.351 201.854 471.78C203.201 478.362 204.677 485.324 205.792 492.343C206.443 496.442 206.516 500.634 206.904 505.127Z" fill="#43450F"/>
<path d="M9.51385 155.706C8.79254 158.442 8.10577 161.526 6.72863 164.263C2.97704 171.718 3.42324 179.054 6.61535 186.482C6.83611 186.995 6.80017 187.619 6.81463 188.444C0.994592 182.489 1.67724 175.005 3.40533 167.808C4.41262 163.612 7.23037 159.851 9.51385 155.706Z" fill="#80230D"/>
<path d="M155.396 260.205C155.077 260.491 154.706 260.421 154.706 260.421C154.706 260.421 154.329 260.442 154.146 260.413C156.682 259.033 159.409 257.697 162.118 256.326C169.116 252.785 176.106 249.228 183.446 245.612C183.076 246.55 182.55 247.802 181.613 248.517C173.911 254.399 165.276 258.229 155.396 260.205Z" fill="#80230D"/>
<path d="M38.7383 200.981C39.811 202.678 41.0464 204.738 41.9683 206.93C45.0382 214.228 48.0054 221.57 50.9669 228.914C51.1163 229.284 50.8448 229.824 50.5737 230.553C44.3595 221.863 40.2143 212.165 38.7383 200.981Z" fill="#80230D"/>
<path d="M91.1085 261.283C90.7986 261.392 90.5615 261.304 90.496 261.305C91.4833 258.834 90.4691 258.14 88.0282 257.262C81.8879 255.054 75.9723 252.221 69.7271 249.433C73.8697 250.505 78.2842 251.684 82.6218 253.099C85.2426 253.954 87.89 254.927 90.2495 256.316C91.9103 257.293 94.3658 258.774 91.1085 261.283Z" fill="#80230D"/>
<path d="M48.6036 391.652C49.1202 392.181 49.4838 393.045 49.8712 394.167C48.7081 399.184 47.5839 403.959 46.3114 408.694C45.5236 411.626 44.5102 414.497 43.2725 417.447C44.7815 408.995 46.6161 400.491 48.6036 391.652Z" fill="#43450F"/>
<path d="M15.0286 50.5225C15.4145 50.8954 15.892 51.6394 15.7056 52.1322C13.7927 57.187 13.649 62.4577 13.2561 67.7529C13.1594 69.0562 10.6481 70.1802 8.85742 71.3162C9.34747 69.1545 10.4319 67.1233 11.0644 64.9599C12.4362 60.2681 13.5768 55.5088 15.0286 50.5225Z" fill="#12110F"/>
<path d="M81.6599 6.22038C80.5625 6.78098 78.9863 8.38264 77.7808 8.14031C71.3118 6.84002 66.0497 9.28939 60.9058 12.6399C60.1632 13.1236 59.0674 13.0651 57.77 13.0522C64.2787 6.57679 72.5175 5.38513 81.6599 6.22038Z" fill="#12110F"/>
<path d="M4.56055 130.277C5.54263 131.096 7.27853 132.083 7.74164 133.489C9.65262 139.291 11.1776 145.219 12.985 151.441C12.8673 152.066 12.6092 152.35 12.0672 152.693C10.0899 147.506 8.38925 142.262 6.70639 137.012C6.02725 134.893 5.38699 132.762 4.56055 130.277Z" fill="#12110F"/>
<path d="M170.781 14.776C164.675 17.2369 155.713 14.2276 152.413 8.3335C157.137 13.9823 164.555 12.2498 170.781 14.776Z" fill="#12110F"/>
<path d="M144.62 553.104C143.679 552.802 142.576 552.202 141.163 551.53C140.151 544.805 139.45 538.152 139.008 531.041C139.438 530.586 139.61 530.59 139.782 530.593C139.782 530.593 139.792 530.628 139.788 530.647C140.148 535.55 140.18 540.492 141.009 545.296C141.462 547.92 143.265 550.31 144.62 553.104Z" fill="#12110F"/>
<path d="M211.114 305.867C210.222 305.831 208.815 305.766 208.29 305.052C205.134 300.757 202.156 296.328 199.19 291.896C198.868 291.414 199.008 290.624 199.011 289.602C203.062 294.664 207.035 300.101 211.114 305.867Z" fill="#A71810"/>
<path d="M211.089 65.5084C210.568 65.4529 209.244 65.2431 209.108 64.7226C207.635 59.0905 206.348 53.4096 205.231 47.4875C207.246 53.2253 209.041 59.2175 211.089 65.5084Z" fill="#12110F"/>
<path d="M221.972 536.828C216.647 537.628 209.268 533.241 208.669 528.653C213.209 531.179 217.468 533.887 221.972 536.828Z" fill="#12110F"/>
<path d="M1.40375 565.945C-2.43951 559.288 2.40262 555.167 6.41174 550.576C6.76126 550.475 6.83984 550.55 6.85318 550.922C6.36935 552.454 6.15622 553.901 5.32437 554.72C2.22766 557.769 1.51999 561.468 1.8093 565.55C1.8093 565.55 1.54254 565.817 1.40375 565.945Z" fill="#12110F"/>
<path d="M186.004 276.711C185.435 277.089 184.386 277.619 183.917 277.299C179.587 274.347 175.357 271.247 171.032 267.845C175.909 270.49 180.851 273.48 186.004 276.711Z" fill="#A71810"/>
<path d="M54.0656 16.3564C53.2997 17.7076 52.6396 20.1692 51.2134 20.7502C47.3532 22.3226 43.1676 23.0962 38.7759 23.9743C41.9349 22.3445 45.4658 21.0091 48.9077 19.4746C50.6293 18.7071 52.1889 17.5759 54.0656 16.3564Z" fill="#12110F"/>
<path d="M201.502 220.541C202.887 215.066 204.548 209.383 206.521 203.619C205.148 209.136 203.463 214.735 201.502 220.541Z" fill="#80230D"/>
<path d="M184.163 23.6622C182.948 23.3736 181.43 23.0069 180.215 22.1898C177.145 20.1242 174.21 17.8561 171.303 15.3115C175.589 17.7622 179.794 20.5706 184.163 23.6622Z" fill="#12110F"/>
<path d="M159.22 264.552C158.81 264.159 158.774 263.776 158.694 263.106C162.482 264.097 166.313 265.376 170.279 266.885C167.77 266.775 165.108 266.539 162.495 266.044C161.471 265.85 160.557 265.074 159.22 264.552Z" fill="#A71810"/>
<path d="M208.047 526.028C207.768 521.941 207.801 517.643 207.869 512.873C209.155 516.835 211.641 521.227 208.047 526.028Z" fill="#43450F"/>
<path d="M205.152 46.7315C202.588 44.5876 199.868 42.1554 197.304 39.3765C199.973 41.5009 202.484 43.972 205.152 46.7315Z" fill="#12110F"/>
<path d="M25.432 534.377C25.4229 535.234 25.1008 536.094 24.7511 537.231C23.8168 537.954 22.9099 538.4 21.5405 539.284C19.9914 539.992 18.9047 540.261 17.7226 540.435C17.6272 540.339 17.439 540.146 17.439 540.146C19.9989 538.224 22.5589 536.302 25.432 534.377Z" fill="#12110F"/>
<path d="M221.378 539.485C221.363 538.823 221.676 538.245 222.185 537.395C224.447 538.718 226.513 540.313 228.668 542.236C226.406 541.565 224.056 540.567 221.378 539.485Z" fill="#12110F"/>
<path d="M34.477 284.68C32.8449 287.405 30.9219 290.297 28.6538 293.016C30.2678 290.177 32.2269 287.512 34.477 284.68Z" fill="#A71810"/>
<path d="M27.4724 39.5723C27.3259 43.4497 24.0671 43.6374 20.771 44.1256C22.6403 42.5335 24.8936 41.1155 27.4724 39.5723Z" fill="#12110F"/>
<path d="M194.57 234.611C192.177 231.003 195.453 229.685 197.939 227.85C197.136 230.039 195.969 232.213 194.57 234.611Z" fill="#80230D"/>
<path d="M63.2979 244.903C65.311 245.852 67.4099 247.1 69.3289 248.707C67.2271 247.777 65.3053 246.491 63.2979 244.903Z" fill="#80230D"/>
<path d="M217.144 71.5521C213.402 72.3585 212.171 69.6917 211.4 66.3796C213.389 67.796 215.182 69.543 217.144 71.5521Z" fill="#12110F"/>
<path d="M9.68408 547.404C11.3945 545.663 13.105 543.923 15.1922 542.184C15.569 542.186 15.816 542.532 15.7664 542.876C13.7566 544.664 11.7963 546.109 9.79877 547.516C9.76148 547.478 9.68408 547.404 9.68408 547.404Z" fill="#12110F"/>
<path d="M197.005 38.686C194.57 37.8632 191.878 36.8307 189.123 35.4412C191.622 36.2149 194.185 37.3456 197.005 38.686Z" fill="#12110F"/>
<path d="M190.992 280.973C188.297 281.807 186.516 280.799 186.26 277.424C187.89 278.264 189.363 279.477 190.992 280.973Z" fill="#A71810"/>
<path d="M198.466 227.634C199.018 225.551 199.838 223.25 201.038 220.995C200.524 223.166 199.629 225.291 198.466 227.634Z" fill="#80230D"/>
<path d="M191.182 239.148C191.754 237.712 192.635 236.225 193.891 234.829C193.341 236.312 192.416 237.704 191.182 239.148Z" fill="#80230D"/>
<path d="M208.81 158.075C205.734 157.71 206.671 155.743 207.986 153.545C208.423 153.298 208.657 153.335 208.657 153.335C208.677 154.774 208.698 156.213 208.81 158.075Z" fill="#8E4116"/>
<path d="M207.931 512.188C207.608 510.444 207.222 508.36 206.868 505.844C207.223 507.558 207.545 509.703 207.931 512.188Z" fill="#43450F"/>
<path d="M35.2183 201.332C35.4634 198.945 36.3576 197.442 38.7271 200.324C37.7036 200.886 36.6306 201.113 35.2183 201.332Z" fill="#80230D"/>
<path d="M8.24542 71.3491C7.71726 72.5544 6.91028 73.921 5.71729 75.1724C6.20975 73.875 7.0882 72.6927 8.24542 71.3491Z" fill="#12110F"/>
<path d="M17.9224 46.2908C17.4363 47.4355 16.7267 48.7773 15.6387 50.0032C16.0732 48.7542 16.886 47.6209 17.9224 46.2908Z" fill="#12110F"/>
<path d="M189.099 34.8903C188.508 34.0569 187.804 32.9039 187.35 31.6794C188.062 32.5956 188.524 33.5832 189.099 34.8903Z" fill="#12110F"/>
<path d="M50.4946 231.117C51.5251 232.053 52.6531 233.302 53.7816 234.894C52.7188 233.968 51.6555 232.699 50.4946 231.117Z" fill="#80230D"/>
<path d="M231.642 544.266C230.799 544.123 229.873 543.679 228.875 542.925C229.721 543.064 230.64 543.515 231.642 544.266Z" fill="#12110F"/>
<path d="M29.1742 36.8743C29.7521 37.0608 30.0415 37.3994 30.3309 37.7379C29.7572 37.9795 29.1835 38.2211 28.3315 38.4875C28.3308 38.017 28.6082 37.5217 29.1742 36.8743Z" fill="#12110F"/>
<path d="M37.8152 24.1875C37.431 24.8027 36.8134 25.5773 35.7915 26.225C36.1187 25.5143 36.8503 24.9306 37.8152 24.1875Z" fill="#12110F"/>
<path d="M197.153 286.76C196.571 286.6 195.845 286.206 195.257 285.435C195.933 285.548 196.472 286.037 197.153 286.76Z" fill="#A71810"/>
<path d="M56.9172 13.1882C56.7589 13.741 56.3968 14.4452 55.6787 14.9751C55.7863 14.3138 56.2499 13.8268 56.9172 13.1882Z" fill="#12110F"/>
<path d="M193.135 282.884C192.557 282.726 191.834 282.298 191.077 281.521C191.691 281.654 192.341 282.134 193.135 282.884Z" fill="#A71810"/>
<path d="M8.65576 548.371C8.83514 548.095 9.01453 547.82 9.43909 547.474C9.68426 547.404 9.76166 547.478 9.72339 547.759C9.40149 548.21 9.11786 548.38 8.78937 548.505C8.74451 548.46 8.65576 548.371 8.65576 548.371Z" fill="#12110F"/>
<path d="M7.65283 549.369C7.82385 549.085 7.9949 548.802 8.41086 548.444C8.65579 548.371 8.74448 548.46 8.71255 548.748C8.3981 549.207 8.11551 549.377 7.78763 549.503C7.74237 549.459 7.65283 549.369 7.65283 549.369Z" fill="#12110F"/>
<path d="M6.72363 550.436C6.84705 550.107 7.008 549.817 7.41086 549.448C7.6528 549.369 7.74234 549.459 7.71503 549.748C7.40503 550.208 7.12237 550.379 6.83972 550.55C6.83972 550.55 6.76114 550.475 6.72363 550.436Z" fill="#12110F"/>
<path d="M54.957 15.2043C55.0791 15.4256 55.017 15.7894 54.6303 16.1496C54.3862 15.8357 54.5419 15.5693 54.957 15.2043Z" fill="#12110F"/>
<path d="M16.374 541.099C16.4813 540.768 16.6814 540.51 17.2068 540.235C17.4391 540.146 17.6274 540.339 17.6321 540.667C17.4337 541.281 17.1607 541.46 16.7075 541.423C16.5969 541.315 16.374 541.099 16.374 541.099Z" fill="#12110F"/>
<path d="M15.4722 541.996C15.5271 541.564 15.7272 541.372 16.1747 541.165C16.3736 541.099 16.5965 541.315 16.6118 541.653C16.4302 542.282 16.1597 542.462 15.8159 542.532C15.8159 542.532 15.5689 542.186 15.4722 541.996Z" fill="#12110F"/>
<path d="M206.813 202.779C207.018 202.532 207.217 202.538 207.714 202.571C207.805 202.904 207.597 203.21 207.106 203.527C206.818 203.37 206.812 203.201 206.813 202.779Z" fill="#80230D"/>
<path d="M199.091 289.073C198.842 289.133 198.509 288.928 198.188 288.411C198.469 288.335 198.738 288.572 199.091 289.073Z" fill="#A71810"/>
<path d="M18.9595 45.176C19.0632 45.4138 18.9958 45.7673 18.6148 46.0358C18.4055 45.6881 18.5679 45.4685 18.9595 45.176Z" fill="#12110F"/>
<path d="M198.18 287.9C197.923 287.996 197.562 287.852 197.222 287.387C197.521 287.265 197.799 287.463 198.18 287.9Z" fill="#A71810"/>
<path d="M20.0939 44.1309C20.1743 44.385 20.0596 44.7476 19.633 45.0069C19.4494 44.6262 19.6419 44.4048 20.0939 44.1309Z" fill="#12110F"/>
<path d="M195.189 284.833C194.937 284.938 194.572 284.82 194.232 284.38C194.53 284.242 194.803 284.425 195.189 284.833Z" fill="#A71810"/>
<path d="M194.172 283.845C193.924 283.96 193.556 283.842 193.177 283.405C193.461 283.26 193.756 283.436 194.172 283.845Z" fill="#A71810"/>
<path d="M34.2153 27.1982C34.3168 27.4389 34.1694 27.8128 33.7014 28.2337C33.5761 27.9643 33.7712 27.6479 34.2153 27.1982Z" fill="#12110F"/>
<path d="M35.2142 26.1855C35.3051 26.4318 35.1487 26.8024 34.6654 27.188C34.548 26.9053 34.7574 26.6076 35.2142 26.1855Z" fill="#12110F"/>
<path d="M3.72607 128.878C3.9342 128.856 4.22437 129.105 4.51779 129.662C4.28345 129.696 4.04578 129.422 3.72607 128.878Z" fill="#12110F"/>
<path d="M139.605 530.359C139.61 530.59 139.438 530.586 139.008 530.579C138.75 530.576 138.475 530.477 138.402 530.352C138.695 530.193 139.061 530.159 139.605 530.359Z" fill="#43450F"/>
<path d="M184.971 25.2881C184.651 25.2715 184.413 24.9732 184.269 24.3823C184.593 24.3953 184.822 24.7009 184.971 25.2881Z" fill="#12110F"/>
<path d="M208.759 153.149C208.657 153.335 208.423 153.298 208.311 153.331C208.138 153.052 208.252 152.827 208.729 152.617C208.918 152.542 208.861 152.963 208.759 153.149Z" fill="#12110F"/>
<path d="M33.3057 28.2512C33.4143 28.4831 33.2564 28.8538 32.8073 29.3401C32.6905 29.1005 32.8649 28.7453 33.3057 28.2512Z" fill="#12110F"/>
<path d="M170.371 268.182C170.333 268.295 170.238 268.415 170.171 268.356C170.199 268.176 170.314 268.191 170.371 268.182Z" fill="#A71810"/>
<path d="M78.4434 148.581C79.5202 147.769 80.597 146.957 82.0549 145.819C82.6587 145.255 82.8814 145.016 83.1041 144.776C83.1041 144.776 82.9602 144.698 83.2585 144.71C84.0495 144.376 84.5422 144.031 85.0349 143.685C85.0349 143.685 84.9 143.66 85.2941 143.636C93.0208 140.203 100.28 141.326 107.515 143.966C107.515 143.966 107.634 143.886 107.663 144.119C108.05 144.476 108.408 144.599 108.767 144.723C108.767 144.723 108.769 144.611 108.868 144.891C109.519 145.423 110.071 145.675 110.623 145.926C110.623 145.926 110.621 145.768 110.69 146.077C111.398 146.847 112.037 147.307 112.676 147.768C112.676 147.768 112.726 147.641 112.755 147.907C113.094 148.379 113.403 148.585 113.712 148.791C113.712 148.791 113.728 148.628 113.744 148.914C114.072 149.403 114.385 149.607 114.697 149.811C114.697 149.811 114.703 149.633 114.709 149.961C115.371 151.108 116.027 151.926 116.684 152.744C116.684 152.744 116.71 152.617 116.751 152.99C121.967 162.854 120.124 171.728 114.427 180.264C114.427 180.264 114.572 180.354 114.296 180.355C113.846 180.694 113.672 181.033 113.498 181.372C113.498 181.372 113.684 181.404 113.391 181.403C112.902 181.728 112.707 182.055 112.511 182.381C112.511 182.381 112.696 182.398 112.364 182.417C110.565 183.581 109.097 184.728 107.63 185.874C107.63 185.874 107.435 185.932 107.024 186.132C100.633 189.48 94.2832 188.951 87.9128 188.213C87.9128 188.213 87.9108 188.384 87.8315 188.082C87.1459 187.595 86.5396 187.41 85.9332 187.224C85.9332 187.224 85.8844 187.362 85.7676 187.077C82.47 184.278 79.2892 181.764 76.1084 179.249C76.1084 179.249 76.1556 179.357 76.0768 179.008C75.3821 177.861 74.7662 177.062 74.1504 176.264C74.1504 176.264 74.0707 176.366 74.0846 176.007C73.3992 174.205 72.6998 172.763 72.0005 171.32C72.0005 171.32 71.97 171.482 72.014 171.018C72.4037 165.906 72.7493 161.259 73.095 156.612C73.095 156.612 72.9473 156.594 73.2144 156.487C73.6588 155.783 73.836 155.185 74.0132 154.588C74.0132 154.588 73.8945 154.587 74.1618 154.469C74.658 153.78 74.887 153.208 75.1158 152.637C75.1158 152.637 74.9615 152.634 75.2591 152.543C76.1088 151.565 76.6609 150.677 77.2129 149.79C77.2129 149.79 77.0876 149.601 77.3476 149.649C77.8862 149.325 78.1648 148.953 78.4434 148.581ZM86.6119 155.439C86.6119 155.439 86.6917 155.219 86.0328 155.362C85.7873 155.73 85.5418 156.098 84.8604 157.015C81.8394 162.316 81.9224 167.52 85.6 173.233C85.9646 173.437 86.3291 173.642 86.571 173.647C86.571 173.647 86.3987 173.805 86.613 174.354C86.9443 174.552 87.2757 174.751 87.625 174.794C87.625 174.794 87.4908 174.875 87.9395 175.431C95.8766 180.04 102.356 178.771 107.924 171.26C107.924 171.26 107.91 170.858 108.529 170.357C110.924 163.282 109.664 157.907 104.657 153.838C100.079 150.118 94.5185 149.966 88.7411 153.43C88.7411 153.43 88.7275 153.304 88.1901 153.511C87.9452 153.787 87.7004 154.063 87.6721 154.351C87.6721 154.351 87.6114 154.143 87.0612 154.364C86.8459 154.68 86.6307 154.996 86.6119 155.439Z" fill="#F4F0E9"/>
<path d="M185.756 149.83C185.761 150.145 185.905 150.371 186.537 150.836C187.732 152.064 188.578 152.963 189.424 153.863C189.424 153.863 189.625 153.652 189.572 154.03C189.887 154.867 190.256 155.326 190.625 155.786C190.625 155.786 190.664 155.634 190.654 155.952C190.97 156.775 191.297 157.279 191.624 157.784C191.624 157.784 191.672 157.627 191.654 157.968C191.988 159.109 192.34 159.908 192.692 160.708C192.692 160.708 192.673 160.558 192.645 161.041C192.523 165.418 192.428 169.311 192.333 173.205C192.333 173.205 192.356 173.301 192.112 173.461C191.148 175.213 190.428 176.805 189.709 178.396C188.169 180.104 186.629 181.811 184.639 183.949C183.993 184.727 183.796 185.074 183.599 185.422C183.599 185.422 183.704 185.237 183.32 185.261C182.793 185.606 182.652 185.926 182.51 186.246C182.51 186.246 182.518 186.056 182.122 186.031C181.029 186.47 180.333 186.933 179.636 187.396C179.636 187.396 179.768 187.399 179.342 187.414C174.252 187.375 169.589 187.32 164.926 187.265C164.926 187.265 164.89 187.399 164.781 187.139C164.081 186.681 163.49 186.484 162.9 186.287C162.9 186.287 162.892 186.428 162.787 186.144C162.068 185.707 161.454 185.553 160.841 185.399C160.841 185.399 160.852 185.499 160.781 185.172C158.57 182.654 156.43 180.464 154.289 178.274C154.289 178.274 154.216 178.27 154.094 177.897C149.095 170.072 149.276 162.4 152.965 154.574C152.965 154.574 152.872 154.576 153.144 154.45C153.953 153.437 154.489 152.551 155.025 151.665C155.025 151.665 154.929 151.625 155.226 151.54C156.362 150.533 157.2 149.611 158.039 148.689C158.039 148.689 157.917 148.645 158.227 148.596C159.728 147.646 160.919 146.744 162.111 145.843C162.111 145.843 161.998 145.757 162.407 145.75C169.288 143.063 175.58 143.68 181.735 146.782C181.735 146.782 181.75 146.65 181.845 146.928C182.499 147.45 183.057 147.695 183.615 147.94C183.615 147.94 183.687 147.757 183.677 148.036C184.014 148.482 184.361 148.65 184.709 148.817C184.709 148.817 184.756 148.643 184.765 148.918C185.102 149.404 185.429 149.617 185.756 149.83ZM159.769 156.48C159.769 156.48 159.76 156.327 159.227 156.562C158.991 156.863 158.755 157.164 158.097 157.563C157.85 157.759 157.739 158.015 157.128 158.732C154.337 163.365 153.514 168.052 156.721 173.25C156.721 173.25 156.955 173.575 156.992 174.077C157.258 174.277 157.524 174.477 157.798 174.576C157.798 174.576 157.696 174.581 157.889 175.101C158.184 175.316 158.479 175.531 158.883 176.188C159.065 176.474 159.325 176.606 159.993 177.119C160.567 177.366 161.141 177.613 161.738 177.695C161.738 177.695 161.575 177.726 162.07 178.337C166.441 180.11 170.718 180.387 175.414 177.459C176.239 176.563 177.065 175.667 178.381 174.509C178.555 174.194 178.729 173.879 178.831 173.565C178.831 173.565 178.867 173.628 179.458 173.113C181.696 168.352 182.362 163.651 178.496 158.609C171.021 151.721 167.695 151.107 160.343 155.554C160.101 155.857 159.859 156.16 159.769 156.48Z" fill="#F4F0E9"/>
<path d="M117.405 126.084C114.259 126.884 111.124 128.303 108.468 127.68C98.1001 125.251 87.9379 124.476 77.6274 127.926C76.2214 128.397 73.2194 127.505 72.7063 126.417C71.9847 124.889 72.8107 122.57 73.1747 120.627C73.2722 120.107 74.0459 119.646 74.5938 119.287C86.3841 111.558 98.9416 109.061 112.326 114.44C118.157 116.783 119.554 120.431 117.405 126.084Z" fill="#3A281C"/>
<path d="M102.84 213.631C105.512 208.461 107.093 208.156 110.945 212.207C119.178 220.865 129.232 224.088 140.678 221.344C145.63 220.157 150.118 217.033 155.514 214.456C159.902 216.683 160.31 221.172 155.389 224.773C142.481 234.22 116.397 231.626 105.582 219.664C104.233 218.171 103.724 215.919 102.84 213.631Z" fill="#733510"/>
<path d="M187.229 131.132C178.068 126.45 169.036 124.296 159.146 127.442C157.244 128.047 153.011 127.172 152.874 126.426C152.392 123.797 152.231 119.467 153.751 118.433C157.672 115.766 162.485 113.239 167.072 112.981C175.251 112.521 183.296 114.823 189.659 120.405C191.473 121.997 192.51 125.226 192.565 127.733C192.589 128.871 189.347 130.079 187.229 131.132Z" fill="#3A281C"/>
<path d="M130.957 190.538C135.91 191.382 140.456 192.023 144.857 193.204C146.051 193.525 147.724 195.636 147.548 196.641C147.29 198.124 145.711 200.346 144.453 200.522C138.144 201.403 131.742 202.197 125.404 202.001C122.855 201.922 120.388 199.234 117.883 197.733C120.436 195.423 122.818 192.868 125.623 190.922C126.779 190.12 128.844 190.627 130.957 190.538Z" fill="#7F3D14"/>
<path d="M146.284 262.592C146.13 263.014 145.521 263.416 144.638 263.833C143.544 263.814 142.496 263.432 141.937 263.798C129.306 272.062 116.494 268.946 103.693 264.436C100.548 263.328 97.5496 261.805 94.6475 259.751C111.583 264.552 128.715 263.391 146.284 262.592Z" fill="#7B3311"/>
<path d="M152.618 154.684C149.275 162.4 149.095 170.072 154.094 177.86C148.399 176.749 149.271 171.228 148.105 167.319C146.702 162.614 149.403 158.496 152.618 154.684Z" fill="#80230D"/>
<path d="M88.0562 188.562C94.2833 188.95 100.633 189.479 106.945 186.195C106.008 187.402 104.976 189.417 103.425 189.967C98.3055 191.785 93.0574 192.306 88.0562 188.562Z" fill="#80230D"/>
<path d="M114.795 180.259C120.124 171.728 121.967 162.854 116.687 152.998C117.727 153.745 119.272 154.655 119.949 156.001C123.419 162.9 120.956 174.877 114.795 180.259Z" fill="#80230D"/>
<path d="M181.667 146.417C175.58 143.68 169.288 143.063 162.404 145.82C167.781 140.56 177.301 140.634 181.667 146.417Z" fill="#80230D"/>
<path d="M107.507 143.576C100.28 141.326 93.0205 140.203 85.3032 143.704C88.0295 142.492 91.1595 140.092 94.2473 140.146C98.681 140.222 103.084 142.086 107.507 143.576Z" fill="#80230D"/>
<path d="M165.008 187.643C169.589 187.32 174.252 187.375 179.323 187.351C176.121 191.202 170.77 191.475 165.008 187.643Z" fill="#80230D"/>
<path d="M76.0103 179.63C79.2893 181.764 82.4701 184.278 85.8409 187.078C80.4547 187.304 77.5562 185.198 76.0103 179.63Z" fill="#80230D"/>
<path d="M72.7365 156.744C72.7492 161.259 72.4036 165.906 72.0962 171.01C67.9287 166.532 70.293 161.707 72.7365 156.744Z" fill="#80230D"/>
<path d="M154.081 178.536C156.43 180.464 158.57 182.654 160.83 185.159C157.017 184.916 154.202 183.175 154.081 178.536Z" fill="#80230D"/>
<path d="M192.721 173.14C192.428 169.311 192.523 165.418 192.574 161.066C196.121 164.605 194.838 168.83 192.721 173.14Z" fill="#80230D"/>
<path d="M107.836 186.128C109.097 184.727 110.564 183.581 112.343 182.326C111.116 183.607 109.579 184.995 107.836 186.128Z" fill="#80230D"/>
<path d="M189.898 178.596C190.428 176.805 191.148 175.213 192.153 173.489C191.654 175.169 190.871 176.982 189.898 178.596Z" fill="#80230D"/>
<path d="M157.646 148.635C157.2 149.611 156.362 150.533 155.24 151.59C155.722 150.677 156.488 149.629 157.646 148.635Z" fill="#80230D"/>
<path d="M161.755 145.755C160.919 146.745 159.727 147.646 158.226 148.661C159.077 147.738 160.239 146.702 161.755 145.755Z" fill="#80230D"/>
<path d="M189.556 153.47C188.578 152.963 187.732 152.064 186.743 150.879C187.63 151.422 188.659 152.249 189.556 153.47Z" fill="#80230D"/>
<path d="M71.9336 171.702C72.6998 172.762 73.3991 174.205 74.1486 175.999C73.4214 174.928 72.6441 173.506 71.9336 171.702Z" fill="#80230D"/>
<path d="M154.652 151.651C154.488 152.551 153.952 153.437 153.155 154.495C153.355 153.657 153.817 152.647 154.652 151.651Z" fill="#80230D"/>
<path d="M74.0386 176.65C74.7664 177.062 75.3823 177.861 76.0984 178.953C75.4413 178.51 74.684 177.773 74.0386 176.65Z" fill="#80230D"/>
<path d="M206.719 131.762C207.068 132.618 207.427 133.884 207.786 135.58C207.434 134.731 207.081 133.452 206.719 131.762Z" fill="#12110F"/>
<path d="M76.8479 149.806C76.6607 150.677 76.1086 151.565 75.2832 152.616C75.5009 151.795 75.992 150.809 76.8479 149.806Z" fill="#80230D"/>
<path d="M116.723 152.387C116.027 151.926 115.371 151.108 114.622 149.982C115.274 150.46 116.019 151.245 116.723 152.387Z" fill="#80230D"/>
<path d="M180.014 187.444C180.332 186.933 181.029 186.47 182.027 186.017C181.684 186.514 181.037 187.003 180.014 187.444Z" fill="#80230D"/>
<path d="M192.726 160.334C192.34 159.908 191.988 159.109 191.572 157.972C191.925 158.409 192.343 159.184 192.726 160.334Z" fill="#80230D"/>
<path d="M112.696 147.4C112.037 147.307 111.398 146.847 110.625 146.123C111.233 146.25 111.975 146.641 112.696 147.4Z" fill="#80230D"/>
<path d="M183.55 147.599C183.057 147.695 182.499 147.45 181.78 146.941C182.242 146.871 182.864 147.064 183.55 147.599Z" fill="#80230D"/>
<path d="M74.7941 152.741C74.8867 153.208 74.6577 153.779 74.1741 154.526C74.1037 154.083 74.2881 153.464 74.7941 152.741Z" fill="#80230D"/>
<path d="M82.8427 144.711C82.8814 145.016 82.6588 145.255 82.1894 145.557C81.8207 145.404 81.6987 145.188 81.5767 144.971C81.9116 144.863 82.2465 144.754 82.8427 144.711Z" fill="#80230D"/>
<path d="M110.561 145.588C110.071 145.674 109.519 145.423 108.813 144.904C109.273 144.841 109.885 145.046 110.561 145.588Z" fill="#80230D"/>
<path d="M190.673 155.435C190.255 155.326 189.887 154.867 189.451 154.111C189.83 154.238 190.276 154.661 190.673 155.435Z" fill="#80230D"/>
<path d="M73.7005 154.712C73.8361 155.185 73.6588 155.783 73.2253 156.561C73.1085 156.106 73.2481 155.471 73.7005 154.712Z" fill="#80230D"/>
<path d="M191.673 157.436C191.297 157.279 190.97 156.775 190.576 155.961C190.913 156.13 191.317 156.609 191.673 157.436Z" fill="#80230D"/>
<path d="M84.689 143.655C84.5422 144.03 84.0495 144.376 83.2495 144.791C83.4091 144.448 83.8762 144.037 84.689 143.655Z" fill="#80230D"/>
<path d="M160.995 185.694C161.454 185.553 162.068 185.707 162.855 186.128C162.403 186.26 161.776 186.125 160.995 185.694Z" fill="#80230D"/>
<path d="M163.013 186.607C163.49 186.484 164.081 186.681 164.851 187.135C164.395 187.237 163.761 187.083 163.013 186.607Z" fill="#80230D"/>
<path d="M86.0366 187.559C86.5393 187.409 87.1456 187.595 87.9122 188.056C87.4285 188.185 86.7844 188.04 86.0366 187.559Z" fill="#80230D"/>
<path d="M78.1106 148.666C78.1646 148.953 77.8859 149.324 77.2535 149.712C77.1925 149.402 77.4853 149.076 78.1106 148.666Z" fill="#80230D"/>
<path d="M112.813 182.321C112.706 182.055 112.901 181.728 113.376 181.31C113.475 181.565 113.295 181.914 112.813 182.321Z" fill="#80230D"/>
<path d="M183.903 185.309C183.796 185.075 183.993 184.727 184.474 184.209C184.575 184.424 184.391 184.81 183.903 185.309Z" fill="#80230D"/>
<path d="M184.631 148.523C184.361 148.65 184.014 148.482 183.578 148.036C183.844 147.915 184.199 148.071 184.631 148.523Z" fill="#80230D"/>
<path d="M113.647 148.5C113.403 148.585 113.094 148.379 112.687 147.903C112.92 147.825 113.251 148.017 113.647 148.5Z" fill="#80230D"/>
<path d="M185.667 149.539C185.429 149.617 185.102 149.405 184.675 148.912C184.91 148.838 185.244 149.043 185.667 149.539Z" fill="#80230D"/>
<path d="M182.819 186.236C182.652 185.926 182.793 185.606 183.225 185.213C183.386 185.502 183.257 185.864 182.819 186.236Z" fill="#80230D"/>
<path d="M114.634 149.516C114.385 149.607 114.072 149.403 113.663 148.926C113.901 148.843 114.236 149.032 114.634 149.516Z" fill="#80230D"/>
<path d="M108.67 144.444C108.409 144.599 108.05 144.475 107.601 144.082C107.864 143.931 108.219 144.048 108.67 144.444Z" fill="#80230D"/>
<path d="M113.803 181.314C113.672 181.033 113.846 180.694 114.298 180.269C114.42 180.541 114.264 180.898 113.803 181.314Z" fill="#80230D"/>
<path d="M144.274 392.473C148.868 394.661 148.971 395.836 145.115 400.339C144.825 400.539 144.822 400.537 144.822 400.537C144.822 398.758 144.822 396.979 144.822 395.297C132.947 394.539 121.644 393.816 110.089 392.801C121.163 392.498 132.489 392.49 144.274 392.473Z" fill="#7F3D14"/>
<path d="M15.7665 542.876C16.1599 542.462 16.4303 542.282 16.7225 541.762C17.1604 541.46 17.4334 541.281 17.7272 540.763C18.9046 540.261 19.9913 539.992 21.3751 539.559C28.8488 542.113 36.0205 544.843 43.2089 547.528C43.9652 547.81 44.9149 547.641 45.6155 547.996C56.1445 553.329 62.4787 545.974 69.4859 540.319C71.1309 538.992 73.3316 538.037 75.4147 537.645C78.2962 537.103 81.3085 537.258 84.5535 536.812C87.652 536.226 90.4618 535.943 93.6869 535.765C92.7803 542.847 91.4584 549.824 90.0684 557.16C75.1093 564.385 59.048 568.241 41.7986 566.453C41.7986 567.809 41.7986 568.768 41.4883 570.183C40.723 570.591 40.2681 570.543 39.8131 570.494C36.4733 569.892 33.0738 568.559 29.8048 568.825C20.4707 569.586 11.532 567.732 2.17976 565.69C1.51981 561.468 2.22749 557.769 5.3242 554.72C6.15605 553.901 6.36918 552.454 6.85301 550.923C7.12232 550.379 7.40498 550.208 7.76023 549.792C8.11543 549.377 8.39802 549.207 8.75733 548.792C9.11775 548.38 9.40138 548.21 9.76051 547.798C11.7964 546.109 13.7567 544.664 15.7665 542.876Z" fill="#35352E"/>
<path d="M51.8765 464.177C46.9863 465.439 42.4829 465.956 38.1104 462.076C43.1536 462.758 47.6655 463.369 51.8765 464.177Z" fill="#43450F"/>
<path d="M155.709 430.305C155.038 431.539 154.225 432.423 153.138 433.439C151.459 429.999 150.693 425.97 148.522 422.951C143.606 416.116 137.997 409.779 132.492 403.021C134.468 403.021 136.63 403.021 137.972 403.021C139.013 404.917 139.773 406.58 140.777 408.081C145.671 415.396 150.63 422.668 155.709 430.305Z" fill="#7F3D14"/>
<path d="M150.488 435.6C149.919 440.129 146.287 438.083 143.264 438.565C137.787 432.637 132.733 426.705 127.679 420.772C128.372 420.122 129.065 419.472 129.757 418.823C131.522 421 133.244 423.213 135.061 425.345C137.317 427.992 139.789 430.466 141.914 433.211C144.149 436.099 146.716 437.064 150.488 435.6Z" fill="#7F3D14"/>
<path d="M144.826 400.54C144 401.312 143.172 402.083 142.345 402.853C142.107 402.55 141.87 402.246 141.632 401.943C142.479 401.494 143.325 401.045 144.497 400.566C144.822 400.537 144.826 400.54 144.826 400.54Z" fill="#7F3D14"/>
<path d="M152.538 433.604C152.423 434.221 151.98 434.866 151.221 435.548C151.34 434.934 151.775 434.283 152.538 433.604Z" fill="#7F3D14"/>
<path d="M165.562 561.651C161.292 560.457 157.122 558.971 152.791 557.172C156.973 558.36 161.317 559.859 165.562 561.651Z" fill="#12110F"/>
<path d="M150.21 555.822C148.626 555.449 147.258 554.816 145.689 553.905C147.135 554.272 148.78 554.917 150.21 555.822Z" fill="#12110F"/>
<path d="M152.348 556.779C151.796 556.932 151.31 556.722 150.695 556.289C151.181 556.182 151.798 556.299 152.348 556.779Z" fill="#12110F"/>
<path d="M230.212 567.565C229.825 567.577 229.838 567.159 229.84 566.949C230.835 566.567 231.829 566.393 233.188 566.111C232.569 566.519 231.584 567.036 230.212 567.565Z" fill="white"/>
<path d="M236.878 565.296C237.218 564.854 237.948 564.515 238.953 564.035C238.574 564.395 237.921 564.897 236.878 565.296Z" fill="white"/>
<path d="M233.894 566.296C234.317 565.87 235.124 565.548 236.254 565.124C235.81 565.482 235.044 565.941 233.894 566.296Z" fill="white"/>
<path d="M239.742 564.128C239.716 563.889 239.979 563.681 240.497 563.386C240.512 563.586 240.271 563.872 239.742 564.128Z" fill="white"/>
<path d="M39.3846 570.562C40.2684 570.543 40.7234 570.591 41.5104 570.543C49.0925 569.632 56.3423 568.818 63.9984 567.944C60.0203 569.09 55.6928 571.002 51.2401 571.361C41.352 572.158 31.4017 572.379 21.4756 572.406C18.0032 572.415 14.5272 571.168 10.9595 570.13C20.2294 570.054 29.5926 570.342 39.3846 570.562Z" fill="white"/>
<path d="M65.0894 568.386C68.322 567.258 71.9865 566.19 76.023 565.023C72.7704 566.098 69.1458 567.272 65.0894 568.386Z" fill="white"/>
<path d="M79.9429 564.238C80.9977 563.483 82.426 562.858 84.1788 562.114C83.1077 562.787 81.712 563.578 79.9429 564.238Z" fill="white"/>
<path d="M86.5747 561.454C87.4107 560.747 88.6646 560.054 90.2556 559.224C89.3927 559.881 88.1926 560.675 86.5747 561.454Z" fill="white"/>
<path d="M76.9082 565.241C77.2643 564.76 77.999 564.413 79.0327 563.976C78.6501 564.382 77.9683 564.878 76.9082 565.241Z" fill="white"/>
<path d="M84.6924 562.192C84.6992 561.972 84.9873 561.778 85.5458 561.569C85.5353 561.775 85.2545 561.996 84.6924 562.192Z" fill="white"/>
<path d="M107.91 170.858C107.91 170.858 107.924 171.26 107.427 171.414C105.923 171.962 104.65 172.092 103.957 172.795C100.413 176.392 96.6164 177.919 91.7304 175.4C90.5426 174.788 88.9159 175.027 87.4909 174.875C87.4909 174.875 87.6252 174.794 87.5689 174.55C87.1413 174.139 86.7701 173.972 86.3988 173.805C86.3988 173.805 86.5711 173.646 86.5286 173.434C86.1045 173.021 85.7229 172.822 85.3412 172.622C81.9225 167.52 81.8395 162.315 85.4001 156.64C86.1904 155.917 86.4411 155.568 86.6918 155.219C86.6918 155.219 86.612 155.438 86.8342 155.332C87.2414 154.865 87.4265 154.504 87.6115 154.143C87.6115 154.143 87.6722 154.351 87.8725 154.309C88.291 153.946 88.5093 153.625 88.7276 153.304C88.7276 153.304 88.7412 153.429 89.0707 153.482C93.3453 153.442 97.0242 151.94 101.196 154.56C107.698 158.645 108.364 164.329 107.91 170.858Z" fill="#32322F"/>
<path d="M108.219 170.607C108.364 164.329 107.698 158.645 101.196 154.561C97.0239 151.94 93.345 153.442 89.0093 153.467C94.5183 149.966 100.079 150.118 104.657 153.838C109.664 157.907 110.924 163.282 108.219 170.607Z" fill="#12110F"/>
<path d="M87.7153 175.153C88.916 175.027 90.5427 174.788 91.7305 175.4C96.6165 177.919 100.413 176.392 103.958 172.795C104.65 172.092 105.923 171.962 107.297 171.568C102.356 178.771 95.8768 180.04 87.7153 175.153Z" fill="#12110F"/>
<path d="M86.5059 174.079C86.77 173.972 87.1412 174.139 87.5598 174.628C87.2758 174.751 86.9444 174.552 86.5059 174.079Z" fill="#12110F"/>
<path d="M85.4707 172.928C85.7229 172.822 86.1046 173.021 86.59 173.533C86.3292 173.641 85.9647 173.437 85.4707 172.928Z" fill="#12110F"/>
<path d="M88.4586 153.407C88.509 153.625 88.2907 153.947 87.7638 154.303C87.7001 154.062 87.945 153.786 88.4586 153.407Z" fill="#12110F"/>
<path d="M86.3623 155.29C86.4411 155.568 86.1904 155.917 85.618 156.366C85.5419 156.098 85.7874 155.73 86.3623 155.29Z" fill="#12110F"/>
<path d="M87.3361 154.253C87.4261 154.504 87.241 154.865 86.7356 155.269C86.6304 154.996 86.8456 154.68 87.3361 154.253Z" fill="#12110F"/>
<path d="M159.663 176.584C159.325 176.606 159.065 176.474 158.749 175.691C158.309 174.99 158.002 174.785 157.696 174.581C157.696 174.581 157.798 174.576 157.706 174.404C157.491 173.916 157.271 173.697 156.955 173.575C156.955 173.575 156.72 173.25 156.778 172.617C157.145 167.433 157.454 162.881 157.763 158.33C157.738 158.015 157.85 157.76 158.597 157.425C159.319 156.967 159.539 156.647 159.759 156.327C159.759 156.327 159.769 156.48 159.989 156.401C160.442 156.003 160.675 155.684 160.908 155.366C167.695 151.107 171.021 151.721 178.672 159.3C178.854 164.537 178.86 169.082 178.866 173.628C178.866 173.628 178.83 173.565 178.597 173.66C178.205 174.093 178.048 174.432 177.89 174.771C177.064 175.667 176.239 176.563 174.686 177.521C169.831 177.632 165.703 177.679 161.574 177.727C161.574 177.727 161.737 177.696 161.633 177.446C160.906 176.992 160.285 176.788 159.663 176.584Z" fill="#32322F"/>
<path d="M157.445 158.531C157.454 162.881 157.145 167.433 156.788 172.417C153.514 168.052 154.337 163.365 157.445 158.531Z" fill="#12110F"/>
<path d="M161.822 178.032C165.702 177.679 169.831 177.632 174.378 177.559C170.718 180.387 166.441 180.11 161.822 178.032Z" fill="#12110F"/>
<path d="M179.162 173.37C178.86 169.082 178.854 164.536 178.884 159.55C182.362 163.651 181.696 168.352 179.162 173.37Z" fill="#12110F"/>
<path d="M159.828 176.851C160.285 176.788 160.906 176.992 161.621 177.528C161.141 177.613 160.567 177.366 159.828 176.851Z" fill="#12110F"/>
<path d="M156.974 173.826C157.271 173.697 157.491 173.916 157.702 174.454C157.524 174.477 157.258 174.277 156.974 173.826Z" fill="#12110F"/>
<path d="M178.136 174.64C178.048 174.432 178.205 174.093 178.633 173.659C178.729 173.879 178.555 174.194 178.136 174.64Z" fill="#12110F"/>
<path d="M157.792 174.841C158.002 174.785 158.309 174.99 158.694 175.47C158.479 175.531 158.184 175.316 157.792 174.841Z" fill="#12110F"/>
<path d="M159.493 156.445C159.539 156.647 159.319 156.967 158.808 157.376C158.754 157.164 158.991 156.863 159.493 156.445Z" fill="#12110F"/>
<path d="M160.626 155.46C160.675 155.684 160.442 156.003 159.913 156.393C159.859 156.161 160.101 155.857 160.626 155.46Z" fill="#12110F"/>
<path d="M150.882 7.05394C148.709 6.93124 146.219 6.84497 144.01 6.01272C137.147 3.42729 130.408 3.68979 123.282 5.11784C119.873 5.80102 115.957 4.03162 112.284 3.30887C103.773 1.63446 95.4247 1.34396 87.4069 5.53024C86.1865 6.16739 84.5465 6.00082 82.8296 5.96971C93.82 -0.575929 105.497 -1.84404 117.72 2.68756C119.166 3.22382 120.945 3.61243 122.39 3.28175C132.276 1.01915 141.702 1.97551 150.882 7.05394Z" fill="#12110F"/>
<path d="M152.047 7.68841C151.869 7.83548 151.511 7.82768 151.053 7.53474C151.258 7.34257 151.562 7.43722 152.047 7.68841Z" fill="#12110F"/>
</svg>
