<svg  viewBox="0 0 249 613" fill="none" xmlns="http://www.w3.org/2000/svg">
<path d="M214.006 287.03C218.049 294.321 222.437 301.446 226.061 308.94C232.893 323.066 236.138 338.216 234.615 353.772C233.141 368.819 226.573 382.341 218.532 395.07C218.006 395.903 217.503 396.751 216.648 398.099C209.256 406.689 202.206 414.773 195.035 422.482C189.478 416.255 184.292 410.138 178.495 404.668C175.779 402.105 171.886 400.79 168.578 398.53C169.269 396.872 169.909 395.594 170.862 394.201C171.391 393.489 171.608 392.892 171.842 392.333C171.858 392.371 171.776 392.36 172.029 392.247C172.429 391.804 172.576 391.476 172.734 391.222C172.745 391.297 172.598 391.263 172.914 391.154C173.43 390.44 173.631 389.835 173.91 388.941C174.602 387.897 175.216 387.141 176.072 386.267C176.475 385.837 176.637 385.524 176.805 385.273C176.81 385.333 176.691 385.311 176.959 385.215C177.351 384.781 177.475 384.443 177.585 384.164C177.57 384.223 177.505 384.121 177.839 384.072C178.358 383.418 178.543 382.813 178.75 382.26C178.773 382.312 178.659 382.311 178.96 382.187C179.459 381.47 179.656 380.876 179.9 380.043C179.947 379.804 180.212 379.394 180.516 379.326C181.116 378.569 181.412 377.879 181.731 377.237C181.754 377.286 181.646 377.276 181.918 377.197C182.284 376.785 182.378 376.453 182.456 376.077C182.44 376.032 182.432 375.938 182.791 375.96C183.92 374.065 184.69 372.148 185.435 370.162C185.409 370.093 185.436 369.949 185.802 369.962C186.976 367.717 187.784 365.46 188.556 363.213C188.52 363.223 188.495 363.151 188.83 363.09C189.273 362.424 189.379 361.819 189.484 361.174C189.483 361.136 189.467 361.06 189.836 361.021C192.047 356.334 193.888 351.687 195.73 347.04C195.092 347.064 194.455 347.088 193.817 347.112C192.505 342.212 191.193 337.313 189.532 331.111C186.59 334.354 184.747 336.387 182.604 338.429C181.829 338.747 181.353 339.056 180.54 339.376C179.431 339.721 178.658 340.056 177.548 340.395C176.435 340.728 175.659 341.057 174.457 341.389C166.029 342.447 158.049 344.121 150.02 344.406C139.014 344.797 127.912 344.76 116.965 343.71C109.169 342.963 101.562 340.245 93.633 338.126C92.5608 338.79 91.0696 339.687 90.9956 340.689C90.4807 347.657 92.1042 354.056 97.0008 359.621C97.301 360.122 97.5659 360.3 97.9266 360.719C98.7116 361.813 99.4697 362.563 100.49 363.504C108.917 372.775 117.132 381.809 125.2 390.973C126.765 392.751 127.755 395.037 128.943 397.472C125.119 409.187 117.881 417.188 106.191 421.266C105.215 421.268 104.563 421.246 103.912 421.284C103.914 421.343 104.031 421.321 103.857 421.064C103.094 420.622 102.505 420.437 101.921 420.303C101.924 420.354 102.022 420.328 101.842 420.072C100.751 419.321 99.8399 418.827 98.9202 418.368C98.9116 418.403 98.9728 418.365 98.7883 418.125C98.0534 417.655 97.5031 417.425 96.9378 417.262C96.9227 417.327 97.0569 417.336 96.9785 417.069C96.5712 416.646 96.2424 416.489 95.9119 416.367C95.9103 416.401 95.9701 416.369 95.7796 416.135C95.0416 415.669 94.4941 415.436 93.9393 415.272C93.9322 415.341 94.0706 415.334 93.9821 415.069C93.5681 414.639 93.2427 414.475 92.917 414.347C92.9169 414.384 92.9877 414.361 92.8093 414.112C92.0766 413.636 91.5223 413.408 90.9614 413.252C90.9547 413.324 91.098 413.307 91.027 413.027C90.6175 412.578 90.2791 412.409 89.9294 412.298C89.9183 412.357 90.0382 412.365 89.9309 412.118C89.518 411.698 89.2124 411.525 88.9035 411.38C88.9001 411.407 88.9479 411.38 88.7702 411.136C88.0513 410.656 87.51 410.419 86.9625 410.254C86.9563 410.326 87.0993 410.308 87.0254 410.03C86.6172 409.577 86.283 409.402 85.9521 409.28C85.9556 409.334 86.0572 409.299 85.9007 409.022C85.1783 408.533 84.6125 408.321 84.0108 408.17C83.975 408.231 84.1133 408.261 84.1119 407.952C83.7379 407.486 83.3654 407.329 82.9765 407.242C82.9601 407.311 83.102 407.31 83.03 407.03C82.6244 406.572 82.2908 406.393 81.9511 406.28C81.9449 406.347 82.0781 406.336 81.9808 406.074C81.5672 405.629 81.2511 405.445 80.938 405.306C80.941 405.352 81.0283 405.325 80.8684 405.051C80.1592 404.553 79.61 404.328 79.0247 404.163C78.9887 404.222 79.1249 404.247 79.1405 403.929C78.7805 403.463 78.4049 403.314 78.0173 403.228C78.0053 403.29 78.1287 403.264 78.1005 402.957C77.7172 402.497 77.3621 402.342 77.0016 402.249C76.9962 402.31 77.1144 402.278 77.0793 401.979C76.6918 401.518 76.3395 401.358 75.9781 401.26C75.9691 401.322 76.0947 401.306 76.0372 401.02C75.6403 400.562 75.3009 400.391 74.9549 400.282C74.9482 400.345 75.0728 400.333 74.9947 400.059C74.5956 399.598 74.2744 399.411 73.9451 399.288C73.9371 399.351 74.0641 399.346 73.9738 399.08C73.5707 398.621 73.2579 398.429 72.9418 398.299C72.9385 398.361 73.062 398.348 72.965 398.086C72.5597 397.629 72.2515 397.434 71.9384 397.301C71.9337 397.361 72.0557 397.353 71.9564 397.093C71.5505 396.638 71.2439 396.443 70.9344 396.307C70.9315 396.367 71.0502 396.356 70.948 396.099C70.5422 395.647 70.2387 395.451 69.9404 395.303C69.9457 395.351 70.0368 395.319 69.8851 395.034C68.4602 393.652 67.1871 392.556 65.9139 391.461C63.6556 388.042 61.3379 384.662 59.1499 381.199C52.1182 370.07 46.4365 358.166 48.1345 344.783C49.6854 332.559 52.8834 320.502 55.9843 308.534C57.5449 302.512 60.5016 296.851 62.953 290.356C63.4213 288.942 63.7634 288.198 64.3543 287.341C64.7264 286.709 64.8498 286.19 65.2515 285.482C66.056 284.311 66.5822 283.327 67.4123 282.172C69.4464 279.475 71.1766 276.95 73.2317 274.297C79.6827 269.842 85.8088 265.514 92.3258 261.244C93.0577 261.043 93.6918 260.79 93.697 260.525C93.8536 252.56 93.9482 244.592 94.2846 236.439C94.8874 235.58 95.2582 234.908 95.7538 234.587C101.029 237.403 106.179 239.868 111.329 242.332C111.868 241.681 112.407 241.03 112.947 240.379C111.633 238.334 110.32 236.289 109.373 234.268C111.13 234.977 112.52 235.662 113.921 236.746C114.238 238.575 114.545 240.005 114.896 241.821C115.041 242.497 115.078 242.99 115.256 243.048C129.713 247.76 144.33 248.704 159.065 244.547C160.26 244.209 161.071 242.511 162.333 241.681C167.892 245.22 172.552 241.446 177.418 240.439C178.105 240.297 178.416 238.34 178.982 237.036C172.771 237.53 167.388 237.959 162.048 237.952C165.32 237.067 168.55 236.616 172.173 236.207C174.932 235.977 177.297 235.706 179.764 235.848C180.494 244.087 181.122 251.913 181.775 260.046C183.055 260.45 184.932 261.042 186.815 261.568C186.82 261.502 186.69 261.53 186.87 261.789C187.643 262.246 188.236 262.446 188.829 262.574C188.829 262.502 188.69 262.539 188.866 262.819C189.981 263.562 190.918 264.025 191.859 264.449C191.864 264.411 191.796 264.448 191.981 264.689C192.715 265.178 193.266 265.427 193.814 265.597C193.811 265.518 193.661 265.567 193.777 265.799C194.203 266.163 194.513 266.294 194.967 266.681C195.614 267.234 196.116 267.531 196.686 267.746C196.753 267.665 196.557 267.586 196.658 267.863C197.106 268.315 197.455 268.491 197.817 268.575C197.83 268.483 197.645 268.488 197.763 268.751C198.2 269.222 198.52 269.43 198.928 269.899C199.596 270.586 200.174 271.013 200.901 271.7C201.657 272.47 202.264 272.978 202.994 273.792C205.51 276.563 207.901 279.028 210.437 281.739C210.722 282.113 210.863 282.24 211.089 282.671C212.118 284.326 213.062 285.678 214.006 287.03ZM120.457 278.407C123.569 278.793 126.689 279.127 129.793 279.573C142.32 281.371 154.614 280.575 166.229 275.324C170.695 273.305 175.135 270.575 176.776 264.463C164.199 275.146 149.714 276.026 135.108 275.284C120.589 274.546 106.564 271.561 94.6906 261.811C95.7892 264.278 97.0131 266.75 98.7946 268.717C104.329 274.828 111.884 276.817 120.457 278.407Z" fill="#F4EEE3"/>
<path d="M195.156 422.856C202.206 414.773 209.256 406.689 216.613 398.443C217.846 400.104 218.77 401.928 219.5 404.258C219.561 405.294 219.817 405.825 220.073 406.356C220.073 406.356 219.963 406.36 219.935 406.715C220.297 408.653 220.609 410.26 221.087 411.815C225.349 425.683 229.641 439.542 233.617 453.548C223.853 461.159 213.32 466.258 201.851 470.184C184.9 475.984 167.573 479.131 149.852 479.197C136.85 479.246 123.832 477.502 110.836 476.385C94.0621 474.942 77.9029 471.075 62.6284 463.796C58.4896 461.824 54.1963 460.177 49.9648 457.981C55.199 437.921 60.5338 418.282 65.5831 398.57C66.3112 395.728 67.6747 395.201 70.0366 395.319C70.0366 395.319 69.9455 395.351 70.0269 395.572C70.4221 395.981 70.736 396.169 71.05 396.356C71.05 396.356 70.9313 396.367 71.0226 396.576C71.4277 396.975 71.7416 397.164 72.0555 397.353C72.0555 397.353 71.9335 397.361 72.0229 397.573C72.4288 397.973 72.7453 398.16 73.0618 398.348C73.0618 398.348 72.9383 398.361 73.0264 398.571C73.431 398.969 73.7474 399.158 74.0639 399.346C74.0639 399.346 73.9369 399.351 74.026 399.563C74.4342 399.961 74.7534 400.147 75.0726 400.333C75.0726 400.333 74.9481 400.345 75.0355 400.558C75.4468 400.95 75.7706 401.128 76.0945 401.306C76.0945 401.306 75.9689 401.322 76.0526 401.539C76.4624 401.93 76.7883 402.104 77.1143 402.278C77.1143 402.278 76.996 402.31 77.0708 402.53C77.4732 402.922 77.8008 403.093 78.1285 403.264C78.1285 403.264 78.0051 403.29 78.0748 403.513C78.4712 403.907 78.798 404.077 79.1247 404.247C79.1247 404.247 78.9885 404.222 79.1038 404.488C79.8221 404.944 80.4251 405.134 81.0281 405.325C81.0281 405.325 80.9409 405.352 81.0277 405.575C81.4357 405.978 81.7568 406.157 82.0779 406.336C82.0779 406.336 81.9447 406.347 82.0371 406.556C82.4536 406.946 82.7777 407.128 83.1018 407.31C83.1018 407.31 82.9599 407.311 83.049 407.523C83.4631 407.911 83.7881 408.086 84.1132 408.261C84.1132 408.261 83.9748 408.231 84.0972 408.496C84.8321 408.941 85.4446 409.12 86.0571 409.299C86.0571 409.299 85.9554 409.334 86.037 409.556C86.4455 409.954 86.7723 410.131 87.0991 410.307C87.0991 410.307 86.9561 410.326 87.072 410.557C87.7745 410.985 88.3611 411.182 88.9478 411.38C88.9478 411.38 88.9 411.407 89.0131 411.623C89.4302 412.014 89.7341 412.189 90.038 412.365C90.038 412.365 89.9181 412.357 90.0191 412.57C90.446 412.958 90.7719 413.132 91.0978 413.307C91.0978 413.307 90.9545 413.324 91.0756 413.558C91.7936 413.981 92.3906 414.171 92.9875 414.36C92.9875 414.36 92.9167 414.384 93.0142 414.607C93.4312 414.997 93.7509 415.165 94.0704 415.333C94.0704 415.333 93.932 415.341 94.0571 415.574C94.7781 415.994 95.374 416.181 95.9699 416.369C95.9699 416.369 95.9101 416.401 96.0122 416.62C96.4284 417.005 96.7426 417.171 97.0568 417.336C97.0568 417.336 96.9225 417.327 97.0507 417.566C97.7768 417.992 98.3747 418.179 98.9727 418.365C98.9727 418.365 98.9114 418.403 98.9479 418.729C99.9969 419.48 101.009 419.904 102.022 420.328C102.022 420.328 101.924 420.354 102.055 420.602C102.801 421.007 103.416 421.164 104.031 421.321C104.031 421.321 103.914 421.343 104.096 421.612C105.256 422.028 106.234 422.174 107.498 422.475C116.56 429.159 125.336 435.688 134.119 442.222C130.991 446.489 131.585 449.717 136.851 452.859C143.256 456.68 149.914 459.537 157.638 456.973C158.53 456.677 159.651 456.547 160.526 456.809C165.564 458.319 169.872 456.502 173.511 453.457C183.388 445.194 190.624 434.955 195.156 422.856Z" fill="#2B8C89"/>
<path d="M142.058 0.358643C142.058 0.358643 142.512 0.35701 143.002 0.71785C153.096 3.05608 162.715 4.96843 172.299 7.04041C176.588 7.9675 180.807 9.21481 185.058 10.3168C185.058 10.3168 184.953 10.3471 185.034 10.64C187.774 12.0493 190.433 13.1659 193.092 14.2824C193.092 14.2824 192.958 14.3163 193.065 14.5608C193.789 14.9845 194.407 15.1637 195.025 15.3429C195.025 15.3429 194.943 15.3684 195.037 15.6112C195.512 15.9629 195.891 16.0717 196.271 16.1806C196.271 16.1806 196.049 16.1821 196.099 16.4048C197.054 16.9093 197.959 17.1911 198.864 17.4728C201.391 19.2727 203.918 21.0726 206.509 23.405C205.701 24.4222 204.584 24.707 204 25.4256C201.05 29.0559 198.358 28.0449 194.717 26.0201C170.298 12.4403 144.442 8.57259 117.206 15.5449C92.8412 21.7824 71.5988 33.1365 56.5826 53.9922C40.8107 75.8977 34.4989 100.577 35.8766 127.621C24.9103 132.13 19.9727 140.821 22.7514 151.993C24.0411 157.177 26.8503 161.984 29.0273 167.265C29.3758 167.833 29.6677 168.099 29.9392 168.348C29.9188 168.333 29.9708 168.332 29.9423 168.794C28.9075 180.936 27.8663 192.613 26.9061 204.297C26.1483 213.519 25.5248 222.753 24.7805 231.976C23.5055 247.775 22.1827 263.571 20.5712 279.509C19.5067 280.625 18.751 281.6 17.9952 282.575C17.9952 282.575 17.9835 282.482 17.5919 282.444C12.0215 282.125 6.84277 281.843 1.66397 281.561C1.66397 281.561 1.797 281.528 1.73663 281.305C1.36807 280.873 1.05988 280.665 0.751678 280.456C0.751678 280.456 0.845245 280.46 0.859985 280.039C1.15057 276.2 1.55966 272.784 1.61728 269.361C1.63348 268.396 0.620209 267.413 0.0791016 266.438C0.354371 264.025 0.629577 261.612 1.35297 258.684C2.15179 257.478 2.78372 256.796 2.80728 256.093C2.9552 251.679 2.76413 247.246 3.06372 242.846C3.91299 230.369 4.87079 217.899 5.92773 205.438C6.77884 195.403 7.83661 185.387 8.83127 174.913C9.69965 165.108 10.5846 155.755 11.3102 146.39C11.3836 145.443 10.496 144.421 10.0544 143.433C11.3281 134.026 12.6018 124.618 14.3098 114.717C15.3132 113.097 16.14 112.027 16.4116 110.832C19.238 98.3911 21.9908 85.9335 24.7217 73.4713C25.1746 71.4041 25.4236 69.2922 25.7668 67.2009C25.7668 67.2009 25.8019 67.3206 26.1013 67.2486C27.0424 65.1812 27.6841 63.1857 28.3258 61.1903C28.3258 61.1903 28.2162 60.9715 28.6069 60.9611C30.2557 58.038 31.5136 55.1252 32.7715 52.2125C32.7715 52.2125 32.803 52.3357 33.054 52.2284C33.4779 51.5029 33.6509 50.8847 33.824 50.2664C33.824 50.2664 33.8516 50.349 34.0909 50.2435C34.4033 49.7532 34.4763 49.3685 34.5493 48.9837C34.5493 48.9837 34.4933 49.1147 34.7997 49.1454C35.3901 48.2605 35.674 47.3449 35.9578 46.4293C44.0748 32.6964 55.9969 22.9332 69.7443 14.7534C71.0276 14.2908 71.7966 13.6125 72.5656 12.9342C72.5656 12.9342 72.6651 13.0312 72.9595 13.1326C73.6865 12.7768 74.119 12.3196 74.5516 11.8625C74.5516 11.8625 74.6629 11.9256 74.9944 12.0945C84.8522 9.00493 94.3785 5.74648 104.348 2.47392C117.214 1.75945 129.636 1.05904 142.058 0.358643Z" fill="#3B3732"/>
<path d="M36.17 127.405C34.4984 100.577 40.8103 75.8977 56.5822 53.9922C71.5983 33.1365 92.8407 21.7824 117.206 15.5449C144.441 8.57256 170.298 12.4403 194.716 26.0201C198.357 28.0448 201.05 29.0559 203.999 25.4256C204.583 24.707 205.701 24.4222 206.743 23.64C215.72 17.1692 225.397 17.1191 235.188 19.8759C241.263 21.5864 243.137 27.2841 239.152 32.389C235.638 36.8912 231.123 40.612 226.686 45.0859C225.857 46.1434 225.393 46.7927 224.621 47.5702C224.362 49.0697 223.862 50.8511 224.537 51.7522C238.557 70.4674 241.437 91.8426 239.72 114.341C239.639 115.398 239.159 116.426 238.866 117.467C236.655 105.612 234.691 93.8103 230.615 82.7902C223.325 63.0832 210.841 47.3319 190.856 38.9016C177.105 33.101 162.748 31.2327 147.871 33.2782C122.256 36.8004 99.9611 47.2183 82.1767 66.0277C65.5217 83.6426 52.8655 103.887 45.3435 127.321C41.9923 127.355 39.0811 127.38 36.17 127.405Z" fill="#8A5487"/>
<path d="M45.7837 127.313C52.8657 103.887 65.5219 83.6425 82.1769 66.0276C99.9612 47.2183 122.257 36.8003 147.871 33.2782C162.748 31.2326 177.105 33.101 190.856 38.9015C210.841 47.3319 223.325 63.0831 230.615 82.7902C234.691 93.8102 236.655 105.612 238.866 117.467C239.16 116.425 239.639 115.398 239.72 114.341C241.437 91.8425 238.557 70.4673 224.537 51.7521C223.862 50.851 224.362 49.0697 224.844 47.8522C226.699 48.18 228.025 48.3539 229.351 48.5277C229.351 48.5277 229.641 48.7095 229.455 49.1917C231.034 53.3183 232.756 56.984 234.57 60.6034C242.47 76.3632 246.764 92.9173 245.972 110.674C245.502 121.219 245.168 131.774 245.048 142.327C245.021 144.664 246.153 147.014 246.751 149.357C246.792 151.096 246.833 152.835 246.453 154.935C245.272 154.012 244.51 152.729 243.497 151.232C241.24 146.537 238.431 143.135 232.899 142.896C232.445 127.407 230.507 112.609 224.999 98.5088C216.77 77.443 203.477 61.1202 181.483 53.2593C175.888 51.2599 170.243 49.3929 164.568 47.6384C163.65 47.3546 162.437 47.9272 161.384 48.1966C159.802 48.6015 158.262 49.3724 156.666 49.4977C129.664 51.6173 108.198 64.7676 91.0796 84.6073C78.1116 99.6369 67.0457 116.308 55.0821 132.317C52.744 131.058 49.2638 129.185 45.7837 127.313Z" fill="#3A3530"/>
<path d="M103.938 520.535C102.501 530.039 101.177 539.561 99.5851 549.038C98.5975 554.918 97.2035 560.729 95.6106 567.129C93.1061 569.779 91.0983 572.006 88.8409 573.941C76.0634 584.897 61.9978 592.655 44.4116 591.44C37.668 590.974 31.8203 588.996 28.7524 582.265C34.2436 576.711 39.7347 571.157 45.6835 565.619C46.318 565.132 46.4949 564.629 46.6718 564.125C46.6718 564.125 46.7543 564.272 46.9944 564.187C47.4302 563.488 47.6259 562.875 47.8217 562.262C47.8217 562.262 47.8463 562.358 48.0684 562.255C48.4053 561.799 48.5201 561.446 48.6349 561.093C48.6349 561.093 48.6488 561.263 48.9275 561.137C49.4095 560.094 49.6129 559.178 49.8162 558.261C49.8162 558.261 49.8378 558.36 50.1359 558.256C51.2548 556.741 52.4924 555.424 52.8321 553.906C56.2951 538.433 59.612 522.928 63.3446 507.426C66.6667 508.445 69.5421 509.958 72.5745 510.404C82.9902 511.935 93.4608 513.093 103.907 514.831C103.915 517.025 103.926 518.78 103.938 520.535Z" fill="#AA5B2A"/>
<path d="M216.949 569.3C221.105 572.842 225.26 576.384 229.642 580.597C230.689 585.906 228.431 587.769 224.058 588.651C214.953 590.487 206.198 588.965 197.609 586.311C186.275 582.809 175.632 577.866 166.929 568.983C166.9 564.18 167.064 559.842 166.846 555.523C165.935 537.484 164.909 519.451 164.214 501.708C164.635 504.301 164.918 506.607 164.858 508.904C164.793 511.434 165.734 512.34 168.326 512.454C181.5 513.031 194.306 511.029 206.969 507.807C207.306 510.003 207.777 511.778 207.832 513.566C208.236 526.603 208.251 539.661 209.062 552.671C209.359 557.425 209.105 563.021 214.309 566.141C214.309 566.141 214.164 566.26 214.164 566.474C214.49 566.895 214.815 567.102 215.14 567.31C215.14 567.31 214.978 567.346 215.056 567.54C215.441 567.941 215.749 568.147 216.056 568.354C216.056 568.354 215.954 568.348 215.947 568.555C216.277 568.941 216.613 569.121 216.949 569.3Z" fill="#AA5B2A"/>
<path d="M49.9742 458.38C54.1966 460.177 58.4899 461.824 62.6287 463.796C77.9032 471.075 94.0624 474.942 110.836 476.385C123.832 477.502 136.85 479.246 149.853 479.197C167.574 479.131 184.9 475.984 201.851 470.184C213.321 466.258 223.854 461.159 233.888 453.799C235.57 457.727 236.675 461.547 237.78 465.368C237.78 465.368 237.926 465.782 237.924 466.412C238.036 467.579 238.15 468.116 238.263 468.652C238.263 468.652 238.343 468.635 238.002 468.696C237.454 469.37 237.248 469.985 237.042 470.6C237.042 470.6 236.999 470.494 236.772 470.572C236.37 470.986 236.195 471.321 236.02 471.656C236.02 471.656 235.993 471.504 235.782 471.577C235.377 471.974 235.183 472.298 234.989 472.621C234.989 472.621 234.965 472.482 234.761 472.558C234.351 472.931 234.144 473.229 233.937 473.527C233.937 473.527 233.938 473.444 233.626 473.437C232.52 474.025 231.725 474.621 230.929 475.216C223.445 478.816 215.96 482.417 207.806 486.246C203.302 487.468 199.514 488.722 195.625 489.403C185.396 491.191 175.123 492.73 164.483 494.352C163.334 494.414 162.57 494.493 161.806 494.572C161.373 494.527 160.94 494.482 159.89 494.08C158.629 493.607 157.988 493.412 157.341 493.388C142.029 492.839 126.718 492.293 111.404 491.84C110.907 491.825 110.382 492.781 109.87 493.284C109.87 493.284 109.799 493.566 109.385 493.549C108.61 493.537 108.249 493.542 107.605 493.46C107.136 493.308 106.949 493.244 106.591 492.995C106.091 492.75 105.761 492.69 105.022 492.68C102.655 492.442 100.66 492.308 98.7468 491.842C88.5161 489.35 78.3054 486.776 67.864 484.032C67.0688 483.688 66.4974 483.542 65.926 483.396C65.8175 483.235 65.7091 483.074 65.3347 482.752C65.0687 482.59 64.9172 482.409 64.9172 482.409C64.9172 482.409 64.9012 482.411 64.7304 482.136C63.9501 481.744 63.3405 481.627 62.731 481.51C62.731 481.51 62.8408 481.487 62.7322 481.185C61.2991 480.516 59.9746 480.148 58.65 479.781C58.65 479.781 58.7797 479.824 58.643 479.467C57.5903 478.902 56.6741 478.695 55.758 478.488C55.758 478.488 55.8501 478.459 55.7232 478.211C54.991 477.798 54.3857 477.632 53.7803 477.466C53.7803 477.466 53.8558 477.44 53.7459 477.212C53.2802 476.872 52.9246 476.76 52.5688 476.647C52.5688 476.647 52.7524 476.637 52.6555 476.379C51.9401 475.927 51.3218 475.734 50.7035 475.54C50.7035 475.54 50.8135 475.505 50.7217 475.275C50.2689 474.928 49.908 474.81 49.5469 474.692C49.5469 474.692 49.715 474.69 49.6363 474.42C48.9611 473.925 48.3646 473.701 47.7681 473.477C47.7681 473.477 47.8539 473.436 47.8759 473.032C48.5901 467.878 49.2822 463.129 49.9742 458.38Z" fill="#298381"/>
<path d="M242.021 228.471C241.996 228.914 241.971 229.356 241.577 230.417C240.775 237.602 240.275 244.166 239.921 250.738C239.242 263.354 238.645 275.976 238.014 288.595C238.014 288.595 237.981 288.471 237.754 288.544C237.349 288.953 237.171 289.289 236.994 289.625C236.994 289.625 236.973 289.499 236.593 289.445C231.361 289.418 226.51 289.444 221.659 289.469C221.115 288.999 220.57 288.529 219.899 287.434C218.495 286.109 217.218 285.409 216.562 285.05C217.033 283.502 217.739 282.105 217.846 280.665C218.289 274.721 218.49 268.76 218.888 262.813C220.258 242.347 221.674 221.884 223.192 201.106C228.642 193.586 229.186 184.862 231.366 176.489C234.313 174.112 236.871 171.746 239.52 169.488C240.886 168.322 242.415 167.347 243.917 166.751C243.929 174.133 243.943 181.05 243.822 187.965C243.797 189.418 243.239 190.856 242.993 192.312C242.637 194.415 242.236 196.518 242.043 198.638C241.692 202.51 241.203 206.402 241.295 210.273C241.368 213.308 242.23 216.325 242.742 219.35C242.791 221.095 242.841 222.84 242.551 225.143C242.148 226.625 242.085 227.548 242.021 228.471Z" fill="#3C3833"/>
<path d="M28.4287 582.363C31.8204 588.996 37.668 590.974 44.4117 591.44C61.9978 592.655 76.0634 584.897 88.841 573.941C91.0984 572.006 93.1062 569.779 95.5091 567.51C93.9292 575.031 92.9311 583.092 89.9025 590.3C87.9337 594.985 83.7147 599.66 79.2795 602.208C62.6279 611.776 44.4914 614.698 25.4839 611.481C23.5549 611.154 21.639 610.453 19.8541 609.63C14.2243 607.031 12.1512 602.684 15.4246 597.575C18.9431 592.083 23.8204 587.462 28.4287 582.363Z" fill="#E87250"/>
<path d="M166.946 569.456C175.631 577.866 186.274 582.809 197.609 586.311C206.198 588.965 214.952 590.487 224.058 588.651C228.431 587.769 230.689 585.906 229.855 580.85C230.463 580.846 231.084 581.259 231.918 582.199C232.438 582.931 232.746 583.136 233.054 583.342C233.054 583.342 232.936 583.329 233.035 583.545C233.455 583.938 233.775 584.114 234.095 584.291C234.095 584.291 233.976 584.297 234.062 584.522C234.477 584.913 234.807 585.08 235.137 585.246C235.137 585.246 235.016 585.27 235.087 585.497C235.488 585.888 235.818 586.051 236.148 586.215C236.148 586.215 236.035 586.199 236.092 586.492C236.838 587.221 237.527 587.656 238.215 588.092C238.215 588.092 238.199 588.333 238.188 588.556C239.188 589.563 240.198 590.347 241.208 591.131C241.208 591.131 241.163 591.224 241.168 591.473C241.503 591.884 241.832 592.046 242.162 592.209C242.162 592.209 242.067 592.267 242.114 592.498C242.485 592.908 242.809 593.086 243.133 593.264C243.133 593.264 243.022 593.313 243.083 593.531C243.455 593.941 243.766 594.134 244.077 594.327C244.077 594.327 243.984 594.331 243.977 594.624C244.377 595.362 244.782 595.809 245.187 596.256C245.187 596.256 245.069 596.33 245.105 596.534C245.428 596.948 245.715 597.158 246.003 597.367C246.003 597.367 245.924 597.378 245.919 597.798C245.956 600.67 245.997 603.121 246.039 605.571C246.039 605.571 245.981 605.495 245.757 605.57C245.344 605.956 245.154 606.266 244.964 606.577C244.964 606.577 244.961 606.486 244.675 606.481C243.903 606.837 243.417 607.198 242.931 607.558C242.931 607.558 242.936 607.464 242.62 607.446C241.508 607.802 240.713 608.176 239.917 608.55C239.917 608.55 239.924 608.455 239.511 608.437C227.848 609.987 216.671 609.541 205.519 607.431C203.39 607.028 201.134 607.29 198.937 607.245C191.936 604.786 184.816 602.613 177.965 599.79C170.748 596.816 166.816 591.197 166.578 583.183C166.45 578.873 166.104 574.571 166.171 569.842C166.486 569.419 166.946 569.456 166.946 569.456Z" fill="#E97351"/>
<path d="M223.072 201.42C221.673 221.884 220.258 242.347 218.888 262.813C218.49 268.76 218.288 274.721 217.846 280.665C217.739 282.105 217.033 283.502 216.562 285.05C217.218 285.409 218.495 286.109 219.812 287.171C218.168 287.464 216.484 287.396 214.403 287.179C213.062 285.678 212.118 284.326 211.231 282.509C210.956 281.86 210.625 281.677 210.293 281.494C207.902 279.028 205.51 276.563 203.008 273.448C202.895 272.342 202.892 271.885 202.893 270.966C203.089 267.058 203.314 263.613 203.47 260.165C203.954 249.479 204.491 238.794 204.738 228.102C204.759 227.181 202.791 226.215 201.93 224.989C209.099 216.945 216.085 209.183 223.072 201.42Z" fill="#2E2D2A"/>
<path d="M164.868 494.369C175.123 492.73 185.396 491.191 195.625 489.403C199.514 488.722 203.302 487.468 207.526 486.476C207.919 491.452 207.923 496.428 207.677 502.098C207.255 504.326 207.083 505.859 206.911 507.393C194.305 511.029 181.499 513.031 168.326 512.454C165.734 512.34 164.792 511.434 164.858 508.904C164.918 506.607 164.635 504.301 164.199 501.33C164.219 498.563 164.544 496.466 164.868 494.369Z" fill="#A05324"/>
<path d="M246.886 149.03C246.153 147.014 245.021 144.664 245.048 142.327C245.168 131.774 245.502 121.219 245.972 110.674C246.764 92.9173 242.47 76.3633 234.57 60.6034C232.756 56.9841 231.034 53.3184 229.523 49.3485C245.689 71.0764 250.058 96.049 248.427 122.558C247.89 131.269 247.486 139.987 246.886 149.03Z" fill="#24201E"/>
<path d="M8.80231 175.362C7.83624 185.387 6.77847 195.403 5.92737 205.438C4.87042 217.899 3.91263 230.369 3.06335 242.846C2.76376 247.246 2.95483 251.679 2.80692 256.093C2.78336 256.795 2.15143 257.478 1.44727 258.269C1.84982 245.254 2.47101 232.13 3.39789 219.028C4.43008 204.436 5.74045 189.864 7.22205 174.962C7.94366 174.88 8.37299 175.121 8.80231 175.362Z" fill="#1B1816"/>
<path d="M242.889 219.032C242.23 216.325 241.367 213.308 241.295 210.273C241.203 206.402 241.691 202.51 242.043 198.638C242.236 196.518 242.637 194.415 242.993 192.312C243.239 190.856 243.796 189.418 243.822 187.965C243.942 181.05 243.929 174.133 243.904 166.46C243.838 165.309 243.832 164.917 244.102 164.336C244.194 163.205 244.011 162.263 243.849 160.873C243.83 157.432 243.789 154.439 243.749 151.446C244.51 152.729 245.272 154.013 246.369 155.363C246.114 163.206 245.396 170.976 244.966 178.761C244.492 187.354 244.326 195.964 243.941 204.562C243.729 209.283 243.343 213.997 242.889 219.032Z" fill="#1B1816"/>
<path d="M49.9649 457.982C49.2819 463.129 48.5898 467.878 47.8593 473.076C47.6206 470.273 46.5913 466.811 47.3517 463.801C53.2667 440.388 59.5278 417.062 65.6706 393.707C65.7959 393.23 65.7851 392.718 65.8758 391.841C67.1869 392.556 68.4601 393.652 69.8849 395.034C67.6747 395.201 66.3112 395.728 65.5832 398.57C60.5338 418.282 55.199 437.921 49.9649 457.982Z" fill="#176F6E"/>
<path d="M65.8511 483.784C66.4974 483.542 67.0688 483.688 67.5457 484.315C65.9573 492.341 64.4635 499.886 62.9698 507.431C59.612 522.928 56.2951 538.433 52.8321 553.906C52.4924 555.424 51.2548 556.741 50.085 558.256C54.7747 535.091 59.814 511.822 64.8513 488.553C65.1671 487.094 65.4682 485.633 65.8511 483.784Z" fill="#933C12"/>
<path d="M164.483 494.352C164.544 496.466 164.219 498.563 163.91 501.038C164.908 519.451 165.934 537.485 166.846 555.524C167.064 559.842 166.899 564.18 166.929 568.983C166.947 569.456 166.486 569.419 166.258 569.382C164.623 544.723 163.217 520.102 161.808 495.026C162.57 494.493 163.334 494.414 164.483 494.352Z" fill="#933C12"/>
<path d="M206.969 507.807C207.083 505.859 207.255 504.326 207.733 502.558C208.603 509.678 209.402 517.023 209.671 524.389C210.005 533.527 209.471 542.714 210.163 551.816C210.514 556.424 212.739 560.889 214.213 565.78C209.105 563.021 209.358 557.425 209.062 552.671C208.25 539.661 208.235 526.603 207.832 513.566C207.777 511.778 207.305 510.003 206.969 507.807Z" fill="#933C12"/>
<path d="M237.867 465.04C236.675 461.547 235.57 457.727 234.195 453.655C229.641 439.542 225.35 425.683 221.088 411.815C220.61 410.26 220.298 408.653 219.946 406.661C223.978 417.592 228.261 428.841 231.867 440.304C234.378 448.288 235.958 456.565 237.867 465.04Z" fill="#176F6E"/>
<path d="M18.3452 282.435C18.7509 281.6 19.5067 280.625 20.9499 279.546C25.418 281.062 29.1987 282.683 33.3734 284.338C36.0951 285.048 38.3832 286.019 40.7587 286.337C45.7484 287.005 50.7841 287.332 56.1044 287.973C58.9739 287.916 61.5399 287.685 64.1058 287.454C63.7637 288.198 63.4215 288.942 62.974 289.986C49.5591 291.423 37.2252 287.689 25.0516 282.913C23.1456 282.165 20.8245 282.475 18.3452 282.435Z" fill="#151310"/>
<path d="M110.303 493.315C110.382 492.781 110.907 491.825 111.404 491.84C126.718 492.293 142.03 492.839 157.341 493.388C157.988 493.412 158.63 493.607 159.57 494.014C143.489 493.986 127.112 493.666 110.303 493.315Z" fill="#176F6E"/>
<path d="M25.4823 67.4344C25.4232 69.2921 25.1742 71.404 24.7213 73.4712C21.9904 85.9334 19.2376 98.3911 16.4111 110.832C16.1395 112.027 15.3127 113.097 14.4136 114.297C17.1684 100.496 20.2288 86.6164 23.369 72.755C23.7641 71.0107 24.5782 69.3614 25.4823 67.4344Z" fill="#1B1816"/>
<path d="M238.345 288.385C238.645 275.976 239.242 263.354 239.921 250.738C240.275 244.166 240.775 237.602 241.496 230.739C241.16 244.636 240.586 258.831 239.887 273.019C239.638 278.079 239.088 283.124 238.345 288.385Z" fill="#151310"/>
<path d="M184.832 10.0364C180.807 9.21477 176.588 7.96745 172.299 7.04036C162.715 4.96838 153.096 3.05603 143.214 0.798614C154.77 -0.459092 165.694 3.55263 176.753 6.7511C179.436 7.5271 181.992 8.74263 184.832 10.0364Z" fill="#151310"/>
<path d="M107.888 493.548C108.249 493.542 108.61 493.537 109.242 493.573C107.88 502.466 106.248 511.317 104.277 520.352C103.926 518.78 103.915 517.025 103.913 514.407C105.245 506.879 106.566 500.214 107.888 493.548Z" fill="#933C12"/>
<path d="M141.834 0C129.635 1.05905 117.213 1.75946 104.345 2.23853C103.898 2.01718 103.899 1.5479 103.899 1.5479C116.47 0.912369 129.041 0.276856 141.834 0Z" fill="#151310"/>
<path d="M199.32 607.352C201.135 607.29 203.39 607.028 205.519 607.431C216.672 609.541 227.849 609.987 239.557 608.449C231.102 609.024 222.188 609.943 213.273 609.958C208.751 609.965 204.227 608.343 199.32 607.352Z" fill="#DD6340"/>
<path d="M8.83121 174.913C8.37329 175.121 7.94397 174.88 7.2915 174.53C7.7948 167.027 8.53354 159.636 9.24133 152.241C9.49466 149.594 9.67331 146.94 9.97021 143.861C10.4959 144.421 11.3835 145.443 11.3102 146.39C10.5845 155.755 9.69959 165.108 8.83121 174.913Z" fill="#151310"/>
<path d="M103.507 1.60633C103.899 1.54779 103.898 2.01708 103.901 2.25249C94.3781 5.74639 84.8518 9.00484 74.9355 12.1205C84.0686 8.54007 93.5916 5.10247 103.507 1.60633Z" fill="#1B1816"/>
<path d="M221.857 289.801C226.51 289.444 231.361 289.418 236.654 289.462C232.257 294.079 227.159 292.178 221.857 289.801Z" fill="#151310"/>
<path d="M1.86133 281.88C6.84271 281.843 12.0215 282.124 17.6367 282.457C12.6774 285.401 7.33746 285.394 1.86133 281.88Z" fill="#151310"/>
<path d="M0 266.868C0.619842 267.413 1.63312 268.396 1.61691 269.361C1.55929 272.784 1.15021 276.2 0.846375 280.084C0.519349 276.132 0.220306 271.715 0 266.868Z" fill="#151310"/>
<path d="M32.4754 52.4021C31.5132 55.1251 30.2553 58.0379 28.6392 60.8431C29.5806 58.0209 30.8801 55.3064 32.4754 52.4021Z" fill="#1B1816"/>
<path d="M192.899 13.9911C190.433 13.1658 187.774 12.0492 185.031 10.5854C187.533 11.3921 190.119 12.5461 192.899 13.9911Z" fill="#151310"/>
<path d="M229.196 48.2895C228.025 48.3539 226.699 48.1801 225.151 47.7242C225.393 46.7927 225.858 46.1434 226.613 45.4154C227.616 46.2416 228.329 47.1464 229.196 48.2895Z" fill="#24201E"/>
<path d="M246.353 605.395C245.998 603.121 245.956 600.67 245.933 597.761C246.19 599.942 246.429 602.58 246.353 605.395Z" fill="#DD6340"/>
<path d="M28.0953 61.4115C27.6837 63.1857 27.042 65.1812 26.0386 67.2469C26.4063 65.4223 27.1357 63.5276 28.0953 61.4115Z" fill="#1B1816"/>
<path d="M35.7905 46.6809C35.674 47.3448 35.3901 48.2604 34.7666 49.0822C34.8258 48.3032 35.2245 47.6179 35.7905 46.6809Z" fill="#1B1816"/>
<path d="M58.8438 480.048C59.9745 480.148 61.2991 480.516 62.7278 481.241C61.5671 481.171 60.3024 480.743 58.8438 480.048Z" fill="#176F6E"/>
<path d="M241.172 590.803C240.198 590.347 239.188 589.563 238.176 588.436C239.161 588.887 240.149 589.682 241.172 590.803Z" fill="#DD6340"/>
<path d="M231.238 475.238C231.725 474.621 232.52 474.025 233.665 473.452C233.192 474.07 232.369 474.665 231.238 475.238Z" fill="#176F6E"/>
<path d="M198.596 17.3021C197.959 17.191 197.054 16.9093 196.138 16.301C196.86 16.3602 197.595 16.7458 198.596 17.3021Z" fill="#151310"/>
<path d="M72.276 13.0408C71.7966 13.6125 71.0276 14.2908 70.0889 14.7111C70.6083 14.0179 71.2974 13.5826 72.276 13.0408Z" fill="#1B1816"/>
<path d="M242.325 228.309C242.085 227.548 242.148 226.625 242.482 225.575C242.712 226.348 242.67 227.247 242.325 228.309Z" fill="#151310"/>
<path d="M55.9624 478.749C56.6742 478.695 57.5903 478.902 58.5753 479.475C57.8183 479.564 56.9926 479.287 55.9624 478.749Z" fill="#176F6E"/>
<path d="M238.181 587.779C237.527 587.656 236.839 587.221 236.13 586.449C236.789 586.564 237.468 587.015 238.181 587.779Z" fill="#DD6340"/>
<path d="M49.5534 558.471C49.6129 559.178 49.4096 560.094 48.8487 561.104C48.7576 560.359 49.0241 559.52 49.5534 558.471Z" fill="#933C12"/>
<path d="M240.271 608.527C240.713 608.176 241.509 607.802 242.665 607.46C242.225 607.83 241.424 608.167 240.271 608.527Z" fill="#DD6340"/>
<path d="M220.012 406.037C219.817 405.825 219.561 405.294 219.528 404.604C219.818 404.87 219.885 405.294 220.012 406.037Z" fill="#176F6E"/>
<path d="M243.243 607.512C243.417 607.198 243.903 606.837 244.718 606.497C244.55 606.833 244.052 607.15 243.243 607.512Z" fill="#DD6340"/>
<path d="M194.84 15.0971C194.407 15.1636 193.789 14.9844 193.064 14.4917C193.524 14.4026 194.09 14.627 194.84 15.0971Z" fill="#151310"/>
<path d="M47.5603 562.431C47.6255 562.875 47.4298 563.488 46.9109 564.201C46.8249 563.733 47.0621 563.166 47.5603 562.431Z" fill="#933C12"/>
<path d="M46.4428 564.236C46.4948 564.629 46.318 565.132 45.9759 565.451C45.9452 564.959 46.0795 564.654 46.4428 564.236Z" fill="#933C12"/>
<path d="M216.869 569.063C216.613 569.121 216.277 568.941 215.963 568.506C216.252 568.442 216.52 568.634 216.869 569.063Z" fill="#933C12"/>
<path d="M74.2747 11.9773C74.1186 12.3196 73.686 12.7767 72.8896 13.1304C73.0167 12.7153 73.5074 12.4037 74.2747 11.9773Z" fill="#1B1816"/>
<path d="M245.166 595.946C244.782 595.809 244.377 595.362 243.993 594.579C244.391 594.707 244.768 595.171 245.166 595.946Z" fill="#DD6340"/>
<path d="M238.518 468.468C238.149 468.116 238.036 467.579 237.936 466.631C238.224 466.908 238.498 467.596 238.518 468.468Z" fill="#176F6E"/>
<path d="M237.314 470.463C237.247 469.985 237.453 469.37 238.014 468.734C238.107 469.251 237.847 469.789 237.314 470.463Z" fill="#176F6E"/>
<path d="M47.9131 473.741C48.3646 473.701 48.9611 473.925 49.5922 474.492C49.1038 474.557 48.5809 474.281 47.9131 473.741Z" fill="#176F6E"/>
<path d="M50.8516 475.812C51.3216 475.733 51.9399 475.927 52.6215 476.464C52.1231 476.566 51.5615 476.325 50.8516 475.812Z" fill="#176F6E"/>
<path d="M53.9648 477.711C54.3855 477.632 54.9908 477.798 55.7264 478.259C55.2876 478.355 54.7186 478.155 53.9648 477.711Z" fill="#176F6E"/>
<path d="M62.9199 481.759C63.3406 481.627 63.9501 481.744 64.7263 482.129C64.2983 482.268 63.7035 482.138 62.9199 481.759Z" fill="#176F6E"/>
<path d="M33.5739 50.4457C33.6506 50.8846 33.4775 51.5029 32.9901 52.2265C32.8918 51.7629 33.1079 51.1939 33.5739 50.4457Z" fill="#1B1816"/>
<path d="M215.958 568.09C215.749 568.148 215.441 567.941 215.052 567.457C215.268 567.396 215.564 567.61 215.958 568.09Z" fill="#933C12"/>
<path d="M215.055 567.027C214.815 567.103 214.49 566.895 214.134 566.385C214.392 566.303 214.681 566.523 215.055 567.027Z" fill="#933C12"/>
<path d="M245.238 606.501C245.155 606.266 245.345 605.956 245.806 605.565C245.888 605.799 245.7 606.111 245.238 606.501Z" fill="#DD6340"/>
<path d="M48.3531 561.168C48.5201 561.446 48.4052 561.799 48.0189 562.257C47.8554 561.989 47.9634 561.616 48.3531 561.168Z" fill="#933C12"/>
<path d="M196.134 15.9289C195.891 16.0717 195.512 15.9628 195.033 15.5684C195.289 15.4143 195.643 15.5457 196.134 15.9289Z" fill="#151310"/>
<path d="M244.005 594.051C243.767 594.134 243.455 593.941 243.081 593.47C243.322 593.386 243.627 593.58 244.005 594.051Z" fill="#DD6340"/>
<path d="M243.073 592.979C242.81 593.086 242.486 592.908 242.117 592.442C242.385 592.335 242.699 592.514 243.073 592.979Z" fill="#DD6340"/>
<path d="M242.123 591.912C241.833 592.046 241.503 591.884 241.136 591.432C241.428 591.3 241.756 591.458 242.123 591.912Z" fill="#DD6340"/>
<path d="M245.951 597.087C245.716 597.158 245.428 596.948 245.088 596.467C245.323 596.399 245.61 596.602 245.951 597.087Z" fill="#DD6340"/>
<path d="M232.963 583.075C232.746 583.136 232.438 582.931 232.039 582.455C232.256 582.393 232.564 582.6 232.963 583.075Z" fill="#DD6340"/>
<path d="M234.017 584.02C233.775 584.114 233.456 583.937 233.054 583.488C233.294 583.393 233.616 583.571 234.017 584.02Z" fill="#DD6340"/>
<path d="M236.104 585.927C235.818 586.051 235.488 585.888 235.103 585.437C235.385 585.314 235.723 585.477 236.104 585.927Z" fill="#DD6340"/>
<path d="M235.069 584.968C234.808 585.079 234.478 584.913 234.079 584.465C234.341 584.352 234.671 584.521 235.069 584.968Z" fill="#DD6340"/>
<path d="M34.3167 49.1385C34.4759 49.3684 34.4029 49.7532 34.0472 50.2473C33.8711 50.0022 33.9778 49.6479 34.3167 49.1385Z" fill="#1B1816"/>
<path d="M52.6846 476.905C52.9245 476.76 53.2802 476.872 53.7469 477.252C53.5055 477.4 53.153 477.281 52.6846 476.905Z" fill="#176F6E"/>
<path d="M0.83252 280.724C1.05978 280.665 1.36798 280.873 1.72821 281.373C1.49133 281.44 1.20239 281.216 0.83252 280.724Z" fill="#151310"/>
<path d="M49.6553 474.952C49.9077 474.81 50.2687 474.928 50.7188 475.333C50.46 475.484 50.1119 475.348 49.6553 474.952Z" fill="#176F6E"/>
<path d="M64.9546 482.455C64.9173 482.409 65.0688 482.59 65.0899 482.594C65.1111 482.598 64.9919 482.501 64.9546 482.455Z" fill="#176F6E"/>
<path d="M234.205 473.45C234.144 473.229 234.351 472.931 234.832 472.562C234.894 472.785 234.683 473.08 234.205 473.45Z" fill="#176F6E"/>
<path d="M235.255 472.524C235.183 472.298 235.377 471.974 235.859 471.586C235.938 471.823 235.729 472.125 235.255 472.524Z" fill="#176F6E"/>
<path d="M236.282 471.55C236.195 471.321 236.37 470.986 236.829 470.572C236.923 470.81 236.733 471.127 236.282 471.55Z" fill="#176F6E"/>
<path d="M237.246 289.509C237.171 289.289 237.349 288.953 237.817 288.551C237.905 288.788 237.702 289.091 237.246 289.509Z" fill="#151310"/>
<path d="M223.192 201.106C216.085 209.183 209.099 216.945 201.949 225.016C201.784 225.324 201.845 225.306 201.612 225.333C201.378 225.36 200.957 225.568 200.644 225.689C194.168 228.83 188.006 231.85 181.481 234.973C180.634 235.195 180.149 235.315 179.663 235.434C177.297 235.706 174.932 235.977 171.866 235.967C167.399 236.249 163.634 236.814 159.402 237.377C145.097 237.36 131.219 238.111 117.558 234.861C116.519 234.614 115.135 235.818 113.911 236.348C112.521 235.662 111.13 234.977 109.356 234.292C108.973 234.292 109.03 234.301 108.873 234.048C108.149 233.641 107.582 233.487 106.773 233.092C104.613 232.052 102.695 231.252 100.598 230.162C92.7022 224.646 84.9854 219.42 77.068 213.918C71.9246 207.176 66.9818 200.707 62.0026 194.262C61.9663 194.285 61.9747 194.369 61.9738 194.039C61.6457 193.147 61.3184 192.586 60.9336 191.676C58.6297 185.201 56.3831 179.076 54.0825 172.803C53.381 173.26 52.7005 173.703 51.5949 174.2C46.8856 174.019 42.4556 174.372 38.3653 173.356C35.338 172.604 32.7529 170.071 29.9707 168.332C29.9707 168.332 29.9188 168.333 29.8653 168.062C29.5315 167.515 29.2511 167.239 28.9707 166.963C26.8503 161.984 24.041 157.177 22.7514 151.993C19.9726 140.821 24.9102 132.13 35.8766 127.621C39.0816 127.38 41.9927 127.355 45.3439 127.321C49.2641 129.185 52.7442 131.058 55.0824 132.317C67.0459 116.308 78.1118 99.637 91.0799 84.6074C108.198 64.7677 129.665 51.6174 156.666 49.4978C158.262 49.3725 159.802 48.6016 161.385 48.1967C162.437 47.9273 163.65 47.3546 164.568 47.6385C170.244 49.393 175.888 51.26 181.483 53.2594C203.477 61.1203 216.77 77.4431 224.999 98.5089C230.507 112.61 232.445 127.407 232.884 143.369C232.275 155.042 231.644 165.794 231.014 176.545C229.186 184.862 228.642 193.586 223.192 201.106ZM210.349 165.067C210.52 164.649 210.691 164.231 210.911 163.14C214.715 156.824 216.209 150.173 213.879 142.174C213.521 141.586 213.164 140.999 212.879 140.413C212.879 140.413 212.841 140.475 213.03 139.729C210.611 131.243 204.763 126.369 196.382 124.616C187.955 122.854 178.251 128.472 176.895 135.404C176.895 135.404 176.969 135.462 176.238 135.23C175.814 136.316 175.391 137.402 174.914 138.425C174.914 138.425 174.996 138.428 174.277 138.636C174.2 139.356 174.122 140.077 173.926 141.536C171.362 147.853 171.55 154.177 173.991 161.09C174.329 161.52 174.666 161.95 174.926 162.373C174.926 162.373 174.947 162.298 174.929 163.042C175.628 163.807 176.326 164.572 176.94 165.357C176.94 165.357 176.964 165.274 176.955 165.947C177.386 166.359 177.817 166.772 178.092 167.222C178.092 167.222 178.138 167.068 178.176 167.775C179.124 168.296 180.072 168.817 180.934 169.36C180.934 169.36 180.93 169.271 181.123 169.803C181.448 169.975 181.773 170.147 181.94 170.322C181.94 170.322 181.964 170.165 182.197 170.786C182.81 170.966 183.424 171.146 183.933 171.343C183.933 171.343 183.937 171.237 184.174 171.963C185.6 172.681 186.954 173.66 188.464 174.071C194.221 175.636 201.58 173.753 203.869 170.387C203.869 170.387 203.796 170.356 204.45 170.324C204.91 169.94 205.37 169.556 205.844 169.332C205.844 169.332 205.685 169.319 206.242 169.172C206.444 168.861 206.646 168.55 206.87 168.361C206.87 168.361 206.747 168.37 207.273 168.159C207.466 167.845 207.659 167.53 207.962 166.787C208.131 166.512 208.378 166.369 209.243 166.176C209.446 165.865 209.649 165.554 209.873 165.372C209.873 165.372 209.742 165.381 210.349 165.067ZM101.921 162.363C101.921 162.363 101.948 162.228 102.122 162.766C102.429 162.965 102.737 163.165 102.926 163.371C102.926 163.371 102.934 163.253 103.12 163.783C103.43 163.976 103.74 164.168 103.944 164.348C103.944 164.348 103.979 164.247 103.977 164.962C104.701 165.375 105.425 165.788 106.023 166.279C106.023 166.279 105.993 166.134 106.205 166.767C106.817 166.952 107.429 167.136 107.934 167.346C107.934 167.346 107.93 167.235 108.179 167.836C108.788 168.007 109.397 168.179 109.923 168.371C109.923 168.371 109.916 168.286 110.2 168.865C110.812 169.018 111.424 169.171 111.916 169.336C111.916 169.336 111.923 169.215 112.276 169.927C117.882 171.9 123.454 173.18 128.796 169.289C128.796 169.289 128.7 169.135 129.46 169.335C130.88 168.256 132.3 167.177 133.853 166.208C133.853 166.208 133.735 166.335 134.313 166.084C134.48 165.705 134.648 165.326 135.142 164.4C142.528 156.403 145.283 147.438 140.959 136.169C137.13 124.882 128.24 119.154 116.52 120.426C105.898 121.578 96.3349 132.07 96.9566 142.435C96.6736 144.598 95.7082 146.953 96.2491 148.886C97.3949 152.982 99.3262 156.859 101.103 161.487C101.421 161.784 101.74 162.08 101.921 162.363ZM127.307 89.4666C117.707 89.5807 108.816 91.8726 101.522 98.4475C99.2461 100.499 96.2039 103.079 98.587 106.489C100.973 109.903 104.128 107.262 106.597 106.021C114.87 101.861 123.589 101.46 132.42 102.859C135.915 103.413 138.54 103.142 139.639 99.6335C140.796 95.9388 140.108 92.4937 135.967 91.0514C133.497 90.1909 130.801 89.9767 127.307 89.4666ZM197.077 105.399C200.965 107.538 204.806 109.77 208.767 111.766C210.114 112.444 211.761 112.527 213.271 112.882C213.476 111.206 214.265 109.337 213.789 107.884C210.782 98.6978 194.29 90.1239 184.821 92.6462C183.876 92.8979 182.552 93.2417 182.204 93.9411C181.012 96.3328 179.407 98.9452 179.543 101.385C179.607 102.529 183.192 103.977 185.353 104.392C188.909 105.074 192.605 105.028 197.077 105.399ZM142.438 199.638C137.59 196.76 132.819 193.734 127.844 191.094C126.374 190.314 124.326 190.624 122.543 190.434C122.982 192.228 122.823 194.78 123.966 195.682C128.486 199.247 133.108 202.936 138.257 205.393C147.522 209.814 157.321 209.319 166.774 205.724C168.396 205.107 169.102 202.079 170.231 200.165C168.369 199.889 166.299 198.947 164.681 199.452C157.505 201.694 150.396 202.256 142.438 199.638ZM142.922 174.911C140.899 178.274 142.79 180.53 145.55 181.596C152.977 184.464 160.475 184.339 167.599 180.476C170.701 178.793 170.607 175.948 167.648 173.84C162.728 170.337 148.714 170.635 142.922 174.911Z" fill="#A95A2A"/>
<path d="M195.035 422.482C190.624 434.955 183.388 445.194 173.511 453.457C169.872 456.502 165.564 458.319 160.526 456.809C159.652 456.547 158.53 456.677 157.638 456.973C149.914 459.537 143.256 456.68 136.851 452.859C131.585 449.717 130.992 446.489 134.119 442.222C125.336 435.688 116.56 429.159 107.341 422.193C106.771 421.585 106.642 421.413 106.514 421.241C117.881 417.188 125.119 409.187 129.297 397.571C136.07 400.05 142.329 403.054 148.792 405.526C159.859 409.758 160.765 409.359 167.986 399.74C168.184 399.477 168.347 399.187 168.527 398.909C171.886 400.79 175.779 402.105 178.495 404.668C184.292 410.138 189.478 416.255 195.035 422.482ZM160.747 427.895C160.55 427.61 160.282 427.432 159.752 426.9C159.548 426.611 159.272 426.437 158.826 426.059C158.723 426.006 158.621 425.953 158.518 425.9C158.638 426.075 158.757 426.25 159.083 426.87C159.277 427.151 159.537 427.341 160.073 427.878C160.269 428.152 160.528 428.339 161.055 428.881C161.246 429.157 161.499 429.354 162.031 429.911C162.237 430.18 162.502 430.363 162.934 431.085C163.56 431.556 164.187 432.027 164.972 432.804C165.088 432.847 165.204 432.89 165.32 432.933C165.206 432.733 165.092 432.532 164.86 431.71C164.227 431.248 163.594 430.787 162.759 429.877C162.571 429.587 162.31 429.396 161.751 428.872C161.551 428.589 161.282 428.413 160.747 427.895ZM147.72 432.929C147.445 432.753 147.17 432.578 146.885 431.803C146.551 431.34 146.218 430.878 145.775 430.114C145.681 430.063 145.587 430.012 145.493 429.962C145.631 430.105 145.77 430.248 145.923 430.994C146.247 431.463 146.571 431.933 147.101 432.848C147.3 433.125 147.563 433.311 148.094 433.853C148.288 434.136 148.551 434.322 149.079 434.867C149.271 435.158 149.536 435.345 150.068 435.879C150.258 436.167 150.521 436.352 151.053 436.892C151.257 437.178 151.532 437.353 152.061 437.882C152.255 438.18 152.526 438.358 152.896 439.063C153.556 439.851 154.216 440.639 155.073 441.872C155.262 442.152 155.518 442.344 155.936 443.109C156.895 443.906 157.853 444.703 158.971 445.801C159.086 445.842 159.202 445.884 159.317 445.925C159.205 445.727 159.092 445.529 158.862 444.673C157.891 443.895 156.919 443.117 155.738 441.895C155.536 441.614 155.265 441.441 154.888 440.736C154.227 439.953 153.566 439.171 152.698 437.943C152.503 437.659 152.24 437.474 151.712 436.933C151.522 436.643 151.258 436.455 150.718 435.922C150.522 435.638 150.257 435.458 149.727 434.92C149.452 434.743 149.178 434.566 148.72 433.925C148.446 433.749 148.172 433.573 147.72 432.929ZM162.705 411.941C162.499 411.657 162.224 411.481 161.785 411.13C161.702 411.078 161.619 411.025 161.535 410.972C161.658 411.111 161.782 411.25 162.101 411.842C162.297 412.126 162.561 412.313 163.097 412.851C163.293 413.133 163.558 413.318 164.091 413.856C164.287 414.14 164.553 414.325 164.952 415.059C165.612 415.769 166.273 416.48 166.933 417.191C167.227 416.786 167.521 416.38 167.815 415.975C166.844 415.448 165.873 414.921 164.706 413.939C164.511 413.647 164.242 413.466 163.711 412.936C163.512 412.646 163.24 412.469 162.705 411.941ZM168.805 419.067C168.704 419.016 168.604 418.964 168.503 418.913C168.625 419.083 168.747 419.253 168.986 419.742C169.091 419.793 169.197 419.844 169.303 419.894C169.174 419.722 169.045 419.549 168.805 419.067ZM155.794 422.072C155.69 422.024 155.587 421.976 155.483 421.928C155.612 422.093 155.741 422.258 156.056 422.884C156.247 423.18 156.516 423.362 156.962 423.755C157.069 423.807 157.175 423.86 157.281 423.912C157.159 423.734 157.037 423.556 156.705 422.933C156.512 422.647 156.248 422.462 155.794 422.072ZM163.57 454.319C163.926 453.26 164.281 452.201 164.637 451.142C164.281 451.054 163.926 450.966 163.57 450.877C163.346 452.054 163.123 453.23 162.6 454.518C162.697 454.478 162.793 454.438 163.57 454.319ZM174.9 432.085C175.252 432.952 175.604 433.818 175.957 434.684C176.354 434.436 176.752 434.188 177.149 433.94C176.4 433.092 175.651 432.245 174.826 430.675C173.475 427.793 172.124 424.911 170.773 422.029C170.211 422.391 169.648 422.754 169.085 423.117C171.019 425.881 172.953 428.646 174.9 432.085ZM167.995 436.546C169.296 440.204 170.596 443.861 172.216 448.421C173.498 442.861 172.49 438.986 167.995 436.546ZM169.546 450.738C169.426 450.983 169.307 451.227 169.187 451.472C169.418 451.538 169.65 451.604 169.881 451.671C169.912 451.336 169.942 451.002 169.546 450.738ZM162.497 448.944L162.317 448.843C162.317 448.843 162.344 449.047 162.497 448.944Z" fill="#A55729"/>
<path d="M168.578 398.53C168.348 399.187 168.185 399.477 167.987 399.74C160.765 409.359 159.86 409.758 148.792 405.526C142.329 403.054 136.07 400.05 129.365 397.186C127.755 395.036 126.765 392.751 125.2 390.973C117.132 381.809 108.917 372.775 100.415 363.279C100.078 362.862 99.9965 362.394 100.149 362.272C100.069 361.984 99.8357 361.817 99.6313 361.606C99.6601 361.563 99.7073 361.657 99.6659 361.381C99.3393 360.89 99.0542 360.673 98.814 360.455C98.859 360.453 98.8052 360.525 98.8327 360.136C98.0081 358.669 97.1559 357.592 96.1322 356.345C95.8341 355.713 95.7076 355.251 96.0141 354.687C97.7611 354.632 99.1477 354.419 100.378 354.763C117.494 359.555 134.655 362.324 152.676 360.671C166.02 359.448 178.309 356.63 188.295 349.567C188.131 344.655 187.992 340.489 188.047 336.038C188.922 337.129 189.99 338.442 190.22 339.888C191.349 346.974 192.083 354.09 189.467 361.06C189.467 361.06 189.483 361.136 189.253 361.333C188.846 362.071 188.671 362.611 188.495 363.151C188.495 363.151 188.52 363.223 188.293 363.424C187.189 365.733 186.313 367.841 185.436 369.949C185.436 369.949 185.409 370.093 185.166 370.335C184.092 372.365 183.262 374.151 182.432 375.938C182.432 375.938 182.44 376.032 182.219 376.169C181.881 376.629 181.764 376.952 181.647 377.276C181.647 377.276 181.754 377.286 181.491 377.373C180.889 378.104 180.551 378.749 180.212 379.394C180.212 379.394 179.947 379.804 179.643 380.209C179.112 381.179 178.886 381.745 178.659 382.311C178.659 382.311 178.773 382.312 178.495 382.413C177.979 383.049 177.742 383.585 177.505 384.121C177.505 384.121 177.571 384.223 177.336 384.269C176.965 384.647 176.828 384.979 176.691 385.31C176.691 385.31 176.81 385.333 176.556 385.38C176.144 385.746 175.987 386.065 175.83 386.384C175.216 387.141 174.602 387.897 173.647 389.106C173.069 390.126 172.834 390.694 172.598 391.263C172.598 391.263 172.745 391.297 172.482 391.331C172.071 391.697 171.924 392.029 171.776 392.36C171.776 392.36 171.859 392.371 171.572 392.488C171.04 393.174 170.795 393.745 170.549 394.315C169.909 395.594 169.269 396.872 168.578 398.53Z" fill="#2B8C89"/>
<path d="M62.0385 194.239C66.9813 200.707 71.9242 207.176 76.7075 214.195C76.3147 220.67 76.2053 226.6 75.8231 232.513C74.9199 246.488 73.887 260.455 72.9065 274.425C71.1764 276.95 69.4462 279.475 67.0259 282.215C65.8815 283.51 65.4272 284.59 64.9731 285.67C64.8497 286.19 64.7263 286.709 64.3541 287.341C61.5394 287.685 58.9734 287.916 56.1338 287.493C57.9196 255.972 59.979 225.105 62.0385 194.239Z" fill="#2E2D2A"/>
<path d="M73.2319 274.297C73.8874 260.455 74.9203 246.488 75.8235 232.513C76.2057 226.6 76.3151 220.669 76.9084 214.47C84.9854 219.42 92.7022 224.646 100.359 230.332C99.1303 231.5 97.9612 232.209 96.5335 233.089C96.0652 233.614 95.8556 233.966 95.6734 234.291C95.7007 234.263 95.6292 234.235 95.6292 234.235C95.2585 234.907 94.8877 235.58 94.0534 236.248C93.0383 244.558 92.4867 252.873 91.9351 261.187C85.8091 265.514 79.683 269.841 73.2319 274.297Z" fill="#393631"/>
<path d="M181.843 234.87C188.005 231.85 194.168 228.83 200.75 225.833C201.394 225.673 201.62 225.489 201.845 225.306C201.845 225.306 201.784 225.324 201.766 225.297C202.791 226.215 204.759 227.181 204.738 228.102C204.491 238.794 203.954 249.479 203.471 260.165C203.315 263.613 203.09 267.058 202.537 270.95C201.702 271.411 201.227 271.425 200.752 271.439C200.174 271.013 199.596 270.586 198.845 269.607C198.33 268.865 197.988 268.677 197.646 268.488C197.646 268.488 197.831 268.483 197.739 268.274C197.284 267.905 196.921 267.746 196.558 267.586C196.558 267.586 196.753 267.665 196.697 267.448C196.385 266.958 196.13 266.685 195.703 266.134C194.909 265.759 194.285 265.663 193.661 265.567C193.661 265.567 193.811 265.518 193.712 265.281C193.007 264.845 192.401 264.646 191.796 264.447C191.796 264.447 191.864 264.411 191.843 264.079C190.778 263.345 189.734 262.942 188.69 262.539C188.69 262.539 188.829 262.502 188.717 262.25C187.967 261.842 187.329 261.686 186.691 261.53C186.691 261.53 186.82 261.502 186.755 261.221C185.312 259.835 183.935 258.73 182.991 257.972C183.267 253.615 183.863 249.523 183.681 245.465C183.522 241.913 182.489 238.4 181.843 234.87Z" fill="#3C3833"/>
<path d="M120.027 278.382C111.884 276.817 104.329 274.828 98.7944 268.717C97.0129 266.75 95.789 264.278 94.6904 261.811C106.563 271.561 120.589 274.546 135.108 275.284C149.713 276.026 164.198 275.146 176.776 264.463C175.135 270.575 170.695 273.305 166.229 275.324C154.614 280.575 142.319 281.371 129.793 279.573C126.689 279.127 123.569 278.793 120.027 278.382Z" fill="#E6E0D7"/>
<path d="M113.921 236.746C115.135 235.818 116.519 234.614 117.558 234.861C131.218 238.111 145.096 237.36 159.413 237.78C160.544 241.55 158.668 243.656 155.757 243.726C146.203 243.954 136.63 243.918 127.081 243.551C122.984 243.393 118.927 242.173 114.852 241.435C114.545 240.005 114.238 238.575 113.921 236.746Z" fill="#8F461D"/>
<path d="M114.896 241.821C118.927 242.173 122.984 243.393 127.082 243.551C136.63 243.918 146.203 243.954 155.757 243.726C158.668 243.656 160.544 241.55 159.88 237.78C163.634 236.814 167.399 236.249 171.472 235.926C168.55 236.616 165.32 237.067 161.992 238.333C161.949 239.914 162.005 240.679 162.06 241.444C161.071 242.511 160.26 244.21 159.065 244.547C144.33 248.704 129.713 247.76 115.256 243.048C115.078 242.99 115.041 242.497 114.896 241.821Z" fill="#7E3012"/>
<path d="M93.8701 338.406C101.562 340.245 109.169 342.963 116.966 343.71C127.912 344.76 139.015 344.797 150.02 344.406C158.049 344.121 166.029 342.447 174.613 341.575C175.195 341.758 175.508 342.13 175.138 342.246C159.884 346.174 144.703 347.254 129.447 346.508C120.912 346.09 112.431 344.542 103.717 343.44C103.508 343.376 103.072 343.35 102.915 343.035C101.896 342.457 101.034 342.194 100.119 341.95C100.066 341.968 100.07 342.08 99.9177 341.788C98.4933 341.073 97.2214 340.649 95.9447 340.274C95.9399 340.322 96.035 340.303 95.8577 340.062C95.0496 339.389 94.4189 338.957 93.8105 338.497C93.8329 338.468 93.8701 338.406 93.8701 338.406Z" fill="#F3F6F3"/>
<path d="M96.7919 232.917C97.9609 232.209 99.1299 231.5 100.538 230.622C102.695 231.251 104.613 232.051 106.596 233.284C107.45 233.911 108.24 234.106 109.029 234.301C109.029 234.301 108.973 234.292 108.99 234.268C110.32 236.289 111.633 238.334 112.946 240.379C112.407 241.03 111.868 241.681 111.329 242.332C106.179 239.868 101.029 237.403 95.7537 234.587C95.6288 234.235 95.7004 234.263 95.9733 234.165C96.4281 233.683 96.61 233.3 96.7919 232.917Z" fill="#E6E0D7"/>
<path d="M189.837 361.021C192.083 354.09 191.349 346.974 190.22 339.888C189.99 338.442 188.922 337.129 187.736 336.182C186.106 337.342 184.98 338.075 183.69 338.797C183.525 338.786 183.195 338.759 183.122 338.674C183.05 338.589 182.903 338.42 182.903 338.42C184.747 336.387 186.591 334.354 189.533 331.111C191.193 337.313 192.505 342.212 193.817 347.112C194.455 347.088 195.092 347.064 195.73 347.04C193.889 351.687 192.047 356.334 189.837 361.021Z" fill="#F3F6F3"/>
<path d="M162.333 241.681C162.005 240.679 161.95 239.914 161.95 238.769C167.389 237.959 172.771 237.53 178.982 237.036C178.416 238.34 178.105 240.297 177.419 240.439C172.552 241.446 167.892 245.22 162.333 241.681Z" fill="#E6E0D7"/>
<path d="M181.481 234.973C182.489 238.4 183.522 241.913 183.681 245.465C183.862 249.523 183.267 253.615 182.991 257.972C183.935 258.73 185.312 259.835 186.749 261.288C184.932 261.042 183.055 260.45 181.774 260.046C181.122 251.913 180.494 244.087 179.764 235.848C180.148 235.315 180.634 235.195 181.481 234.973Z" fill="#1B1816"/>
<path d="M92.3257 261.244C92.4864 252.873 93.038 244.558 93.821 236.435C93.9482 244.592 93.8536 252.559 93.6969 260.525C93.6917 260.79 93.0576 261.043 92.3257 261.244Z" fill="#151310"/>
<path d="M95.5808 354.789C95.7073 355.251 95.8338 355.713 96.261 356.652C96.8719 357.715 97.1822 358.3 97.3435 359.014C97.1946 359.143 96.8967 359.4 96.8967 359.4C92.1042 354.056 90.4807 347.657 90.9956 340.688C91.0696 339.687 92.5607 338.79 93.6329 338.125C93.8698 338.406 93.8326 338.468 93.3969 338.455C90.5421 343.532 92.7239 348.052 94.7131 352.529C94.7086 352.463 94.5866 352.517 94.6372 352.828C95.0142 353.64 95.3408 354.141 95.6332 354.671C95.5991 354.7 95.5808 354.789 95.5808 354.789Z" fill="#F3F6F3"/>
<path d="M185.802 369.962C186.313 367.841 187.189 365.733 188.329 363.414C187.785 365.46 186.976 367.717 185.802 369.962Z" fill="#F3F6F3"/>
<path d="M182.791 375.96C183.262 374.151 184.092 372.365 185.192 370.404C184.691 372.148 183.92 374.065 182.791 375.96Z" fill="#F3F6F3"/>
<path d="M65.2515 285.482C65.4274 284.59 65.8816 283.51 66.722 282.387C66.5822 283.327 66.0559 284.31 65.2515 285.482Z" fill="#151310"/>
<path d="M188.867 262.819C189.734 262.942 190.778 263.345 191.839 264.117C190.918 264.025 189.981 263.562 188.867 262.819Z" fill="#1B1816"/>
<path d="M101.842 420.072C101.01 419.904 99.9973 419.48 98.957 418.695C99.8401 418.827 100.751 419.321 101.842 420.072Z" fill="#176F6E"/>
<path d="M99.9962 362.394C99.9962 362.394 100.078 362.862 100.153 363.088C99.4696 362.563 98.7115 361.813 97.9609 360.691C97.9683 360.319 98.0317 360.256 98.2306 360.308C98.4294 360.359 98.8049 360.525 98.8049 360.525C98.8049 360.525 98.8588 360.453 98.8802 360.72C99.1702 361.21 99.4386 361.433 99.707 361.657C99.707 361.657 99.6599 361.563 99.6844 361.816C99.709 362.07 99.9962 362.394 99.9962 362.394Z" fill="#F3F6F3"/>
<path d="M200.901 271.7C201.227 271.425 201.702 271.411 202.533 271.413C202.892 271.885 202.895 272.342 202.884 273.142C202.264 272.978 201.657 272.47 200.901 271.7Z" fill="#151310"/>
<path d="M180.516 379.326C180.551 378.749 180.889 378.104 181.468 377.324C181.412 377.879 181.116 378.569 180.516 379.326Z" fill="#F3F6F3"/>
<path d="M106.191 421.266C106.643 421.413 106.771 421.585 107.056 422.039C106.234 422.174 105.257 422.028 104.095 421.553C104.563 421.246 105.215 421.268 106.191 421.266Z" fill="#176F6E"/>
<path d="M175.039 341.572C175.659 341.057 176.435 340.728 177.703 340.579C178.195 340.76 178.503 341.13 178.208 341.246C177.11 341.619 176.309 341.874 175.507 342.13C175.507 342.13 175.195 341.758 175.039 341.572Z" fill="#F3F6F3"/>
<path d="M178.04 340.576C178.658 340.056 179.431 339.721 180.558 339.404C180.913 339.422 180.955 339.476 180.837 339.764C179.98 340.411 179.241 340.77 178.503 341.13C178.503 341.13 178.194 340.76 178.04 340.576Z" fill="#F3F6F3"/>
<path d="M88.7704 411.136C88.3615 411.182 87.7749 410.985 87.0786 410.485C87.5102 410.419 88.0515 410.656 88.7704 411.136Z" fill="#176F6E"/>
<path d="M92.8093 414.112C92.3908 414.171 91.7938 413.981 91.0825 413.486C91.5223 413.408 92.0766 413.636 92.8093 414.112Z" fill="#176F6E"/>
<path d="M95.7797 416.135C95.3742 416.181 94.7783 415.994 94.0645 415.505C94.4941 415.436 95.0417 415.669 95.7797 416.135Z" fill="#176F6E"/>
<path d="M98.7883 418.125C98.3749 418.179 97.777 417.992 97.0659 417.501C97.5031 417.425 98.0534 417.655 98.7883 418.125Z" fill="#176F6E"/>
<path d="M103.857 421.064C103.416 421.164 102.801 421.007 102.051 420.552C102.505 420.437 103.094 420.622 103.857 421.064Z" fill="#176F6E"/>
<path d="M188.831 363.09C188.671 362.611 188.846 362.071 189.254 361.372C189.379 361.819 189.273 362.424 188.831 363.09Z" fill="#F3F6F3"/>
<path d="M178.96 382.187C178.885 381.745 179.112 381.179 179.596 380.448C179.656 380.876 179.459 381.47 178.96 382.187Z" fill="#F3F6F3"/>
<path d="M177.839 384.072C177.742 383.585 177.979 383.049 178.472 382.361C178.543 382.813 178.358 383.418 177.839 384.072Z" fill="#F3F6F3"/>
<path d="M172.914 391.154C172.833 390.694 173.069 390.126 173.568 389.393C173.631 389.835 173.43 390.44 172.914 391.154Z" fill="#F3F6F3"/>
<path d="M170.861 394.201C170.794 393.745 171.04 393.174 171.555 392.449C171.608 392.892 171.391 393.489 170.861 394.201Z" fill="#F3F6F3"/>
<path d="M85.9008 409.022C85.4448 409.12 84.8323 408.941 84.1333 408.435C84.6125 408.321 85.1783 408.533 85.9008 409.022Z" fill="#176F6E"/>
<path d="M80.8685 405.051C80.4254 405.134 79.8224 404.944 79.1401 404.429C79.6102 404.328 80.1594 404.552 80.8685 405.051Z" fill="#176F6E"/>
<path d="M186.87 261.788C187.329 261.686 187.967 261.842 188.717 262.322C188.236 262.446 187.643 262.246 186.87 261.788Z" fill="#1B1816"/>
<path d="M195.874 266.412C196.129 266.685 196.385 266.958 196.629 267.529C196.116 267.531 195.613 267.234 195.229 266.68C195.523 266.419 195.699 266.416 195.874 266.412Z" fill="#151310"/>
<path d="M195.703 266.134C195.699 266.416 195.523 266.419 195.085 266.424C194.513 266.294 194.203 266.163 193.777 265.799C194.284 265.663 194.908 265.759 195.703 266.134Z" fill="#1B1816"/>
<path d="M191.98 264.689C192.401 264.646 193.006 264.845 193.714 265.36C193.266 265.427 192.715 265.178 191.98 264.689Z" fill="#1B1816"/>
<path d="M180.895 339.394C181.353 339.056 181.829 338.747 182.604 338.429C182.903 338.42 183.05 338.589 182.913 338.901C182.169 339.3 181.562 339.388 180.955 339.476C180.955 339.476 180.914 339.422 180.895 339.394Z" fill="#F3F6F3"/>
<path d="M196.658 267.863C196.921 267.746 197.284 267.905 197.725 268.365C197.455 268.491 197.106 268.315 196.658 267.863Z" fill="#151310"/>
<path d="M197.763 268.751C197.988 268.677 198.33 268.865 198.756 269.346C198.52 269.43 198.2 269.222 197.763 268.751Z" fill="#151310"/>
<path d="M79.1404 403.929C78.7981 404.077 78.4713 403.907 78.0869 403.451C78.4048 403.314 78.7805 403.462 79.1404 403.929Z" fill="#176F6E"/>
<path d="M87.0253 410.03C86.7723 410.131 86.4456 409.954 86.0337 409.502C86.2828 409.402 86.6171 409.577 87.0253 410.03Z" fill="#176F6E"/>
<path d="M84.1117 407.952C83.7881 408.086 83.4631 407.911 83.0654 407.454C83.3652 407.329 83.7377 407.486 84.1117 407.952Z" fill="#176F6E"/>
<path d="M83.0299 407.03C82.7778 407.128 82.4537 406.946 82.0435 406.489C82.2908 406.393 82.6244 406.572 83.0299 407.03Z" fill="#176F6E"/>
<path d="M81.9808 406.074C81.7571 406.157 81.4359 405.978 81.0249 405.53C81.2512 405.445 81.5673 405.628 81.9808 406.074Z" fill="#176F6E"/>
<path d="M78.1003 402.957C77.8008 403.093 77.4732 402.922 77.0762 402.47C77.3619 402.342 77.717 402.497 78.1003 402.957Z" fill="#176F6E"/>
<path d="M77.0794 401.979C76.7886 402.104 76.4627 401.93 76.062 401.476C76.3396 401.358 76.692 401.518 77.0794 401.979Z" fill="#176F6E"/>
<path d="M76.0373 401.02C75.7709 401.128 75.4471 400.95 75.0425 400.496C75.301 400.391 75.6404 400.562 76.0373 401.02Z" fill="#176F6E"/>
<path d="M74.9947 400.059C74.7535 400.147 74.4343 399.961 74.0342 399.5C74.2744 399.411 74.5955 399.598 74.9947 400.059Z" fill="#176F6E"/>
<path d="M73.9738 399.08C73.7476 399.158 73.4311 398.969 73.0298 398.509C73.2578 398.429 73.5706 398.621 73.9738 399.08Z" fill="#176F6E"/>
<path d="M72.9651 398.086C72.7455 398.16 72.429 397.973 72.0278 397.512C72.2515 397.434 72.5598 397.629 72.9651 398.086Z" fill="#176F6E"/>
<path d="M96.9786 417.069C96.743 417.17 96.4288 417.005 96.0142 416.586C96.2426 416.489 96.5714 416.646 96.9786 417.069Z" fill="#176F6E"/>
<path d="M93.9823 415.069C93.7512 415.165 93.4316 414.997 93.0146 414.569C93.2429 414.474 93.5683 414.639 93.9823 415.069Z" fill="#176F6E"/>
<path d="M91.0269 413.027C90.7719 413.132 90.446 412.958 90.0303 412.511C90.2789 412.409 90.6174 412.578 91.0269 413.027Z" fill="#176F6E"/>
<path d="M89.9309 412.118C89.7343 412.189 89.4304 412.014 89.0166 411.596C89.2124 411.525 89.518 411.698 89.9309 412.118Z" fill="#176F6E"/>
<path d="M97.9339 360.347C97.5658 360.3 97.3009 360.122 97.0007 359.621C96.8967 359.4 97.1945 359.142 97.4768 359.223C97.8955 359.608 97.9864 359.926 98.0317 360.256C98.0317 360.256 97.9683 360.319 97.9339 360.347Z" fill="#F3F6F3"/>
<path d="M71.9565 397.093C71.742 397.164 71.4281 396.975 71.0259 396.517C71.2441 396.443 71.5507 396.638 71.9565 397.093Z" fill="#176F6E"/>
<path d="M70.9482 396.099C70.7365 396.169 70.4225 395.981 70.022 395.524C70.239 395.451 70.5425 395.647 70.9482 396.099Z" fill="#176F6E"/>
<path d="M172.029 392.247C171.923 392.029 172.071 391.697 172.471 391.256C172.576 391.476 172.429 391.804 172.029 392.247Z" fill="#F3F6F3"/>
<path d="M176.072 386.266C175.987 386.065 176.144 385.746 176.55 385.32C176.637 385.524 176.475 385.836 176.072 386.266Z" fill="#F3F6F3"/>
<path d="M176.959 385.215C176.828 384.979 176.965 384.647 177.351 384.21C177.475 384.443 177.351 384.781 176.959 385.215Z" fill="#F3F6F3"/>
<path d="M181.918 377.197C181.763 376.952 181.88 376.629 182.235 376.213C182.378 376.453 182.284 376.785 181.918 377.197Z" fill="#F3F6F3"/>
<path d="M210.438 281.739C210.625 281.677 210.956 281.86 211.146 282.205C210.863 282.24 210.722 282.113 210.438 281.739Z" fill="#151310"/>
<path d="M29.9419 168.794C32.7526 170.071 35.3376 172.604 38.365 173.356C42.4553 174.372 46.8853 174.019 51.3681 174.546C48.1243 175.658 44.6819 176.477 40.8572 177.388C40.8572 180.661 41.0477 183.99 40.8257 187.291C39.5704 205.953 38.1404 224.604 36.9224 243.268C36.113 255.67 35.6088 268.092 34.8154 280.495C34.7321 281.798 33.616 283.036 32.979 284.303C29.1984 282.683 25.4177 281.062 21.2583 279.405C22.1823 263.571 23.5051 247.775 24.7801 231.976C25.5244 222.752 26.1479 213.519 26.9057 204.297C27.8659 192.613 28.9072 180.936 29.9419 168.794Z" fill="#2E2D2A"/>
<path d="M29.0273 167.265C29.2511 167.239 29.5315 167.515 29.8857 168.078C29.6677 168.098 29.3758 167.833 29.0273 167.265Z" fill="#2E2D2A"/>
<path d="M231.365 176.489C231.644 165.794 232.274 155.042 232.919 143.818C238.431 143.136 241.24 146.538 243.497 151.232C243.789 154.439 243.83 157.432 243.858 160.888C243.846 161.351 243.864 161.352 243.616 161.545C243.523 162.636 243.676 163.534 243.834 164.455C243.837 164.478 243.826 164.524 243.826 164.524C243.832 164.917 243.838 165.309 243.857 165.994C242.415 167.347 240.886 168.322 239.519 169.488C236.87 171.746 234.312 174.112 231.365 176.489Z" fill="#854924"/>
<path d="M107.605 493.46C106.567 500.214 105.245 506.879 103.917 513.969C93.4609 513.093 82.9903 511.935 72.5746 510.404C69.5422 509.958 66.6669 508.445 63.3447 507.426C64.4636 499.886 65.9574 492.341 67.7695 484.513C78.3055 486.776 88.5162 489.35 98.747 491.842C100.661 492.308 102.655 492.442 105.201 492.863C106.113 493.059 106.438 493.119 106.762 493.18C106.949 493.244 107.136 493.308 107.605 493.46Z" fill="#A05324"/>
<path d="M106.591 492.994C106.437 493.119 106.113 493.059 105.61 492.814C105.761 492.69 106.091 492.75 106.591 492.994Z" fill="#176F6E"/>
<path d="M243.836 161.336C244.01 162.263 244.194 163.205 244.102 164.336C243.826 164.524 243.837 164.478 243.833 164.07C243.84 162.892 243.852 162.122 243.864 161.352C243.864 161.352 243.846 161.351 243.836 161.336Z" fill="#3C3833"/>
<path d="M33.373 284.338C33.616 283.036 34.7321 281.798 34.8154 280.495C35.6088 268.092 36.113 255.67 36.9224 243.268C38.1404 224.604 39.5704 205.953 40.8257 187.291C41.0477 183.99 40.8572 180.661 40.8572 177.388C44.6819 176.477 48.1243 175.658 51.7931 174.492C52.7002 173.703 53.3807 173.26 54.0822 172.803C56.3828 179.076 58.6293 185.201 60.9177 192.027C61.2978 193.275 61.6361 193.822 61.9744 194.369C61.9744 194.369 61.9659 194.285 62.0023 194.262C59.9791 225.105 57.9197 255.971 55.8304 287.318C50.7838 287.332 45.7481 287.005 40.7584 286.337C38.3829 286.019 36.0948 285.048 33.373 284.338Z" fill="#3C3833"/>
<path d="M100.935 160.826C99.3259 156.859 97.3946 152.982 96.2487 148.886C95.7079 146.953 96.6733 144.598 97.3259 141.816C102.21 129.401 110.561 123.706 122.303 124.45C130.93 124.998 136.358 130.313 140.869 136.976C145.283 147.438 142.528 156.403 134.7 164.842C134.085 165.634 133.909 165.985 133.734 166.335C133.734 166.335 133.852 166.208 133.448 166.199C131.596 167.171 130.148 168.153 128.699 169.135C128.699 169.135 128.796 169.289 128.356 169.151C122.585 169.08 117.254 169.147 111.923 169.215C111.923 169.215 111.915 169.336 111.79 169.083C111.082 168.649 110.499 168.467 109.916 168.286C109.916 168.286 109.923 168.371 109.776 168.119C109.063 167.657 108.496 167.446 107.929 167.235C107.929 167.235 107.933 167.346 107.818 167.073C107.132 166.578 106.562 166.356 105.993 166.134C105.993 166.134 106.023 166.279 105.961 165.967C105.259 165.186 104.619 164.717 103.978 164.247C103.978 164.247 103.944 164.348 103.891 164.099C103.536 163.651 103.235 163.452 102.933 163.253C102.933 163.253 102.926 163.371 102.883 163.109C102.542 162.64 102.245 162.434 101.948 162.228C101.948 162.228 101.921 162.363 101.892 162.054C101.554 161.438 101.245 161.132 100.935 160.826ZM112.812 155.485C112.812 155.485 112.674 155.504 112.902 156.014C113.205 156.214 113.509 156.414 113.819 156.476C113.819 156.476 113.684 156.503 113.921 156.969C114.228 157.047 114.534 157.125 115.585 157.511C120.12 160.467 125.453 160.798 129.47 158.044C133.701 155.143 136.479 150.274 134.772 143.682C132.977 141.43 131.181 139.178 129.289 136.935C129.289 136.935 129.202 136.976 128.704 136.468C122.069 133.662 116.688 134.562 112.645 139.153C108.927 143.375 108.624 149.072 111.865 154.444C111.865 154.444 111.783 154.449 111.936 154.975C112.222 155.191 112.508 155.407 112.812 155.485Z" fill="#F5F0E9"/>
<path d="M208.7 166.358C208.377 166.369 208.131 166.512 207.66 167.128C207.154 167.77 206.95 168.07 206.746 168.37C206.746 168.37 206.87 168.361 206.591 168.395C206.102 168.725 205.894 169.022 205.685 169.319C205.685 169.319 205.844 169.332 205.537 169.315C204.752 169.65 204.274 170.003 203.796 170.355C203.796 170.355 203.869 170.387 203.496 170.443C196.851 173.974 190.444 173.928 183.936 171.237C183.936 171.237 183.932 171.343 183.808 171.08C183.11 170.6 182.537 170.382 181.963 170.165C181.963 170.165 181.939 170.322 181.928 170.053C181.587 169.612 181.259 169.442 180.93 169.271C180.93 169.271 180.934 169.36 180.81 169.074C179.836 168.215 178.987 167.641 178.137 167.068C178.137 167.068 178.092 167.222 178.162 166.897C177.81 166.14 177.386 165.707 176.963 165.274C176.963 165.274 176.94 165.357 176.874 165.054C176.188 163.933 175.567 163.115 174.947 162.298C174.947 162.298 174.926 162.373 174.91 162.093C174.554 161.377 174.215 160.942 173.876 160.506C171.549 154.177 171.362 147.853 174.284 140.993C174.761 139.776 174.878 139.102 174.995 138.428C174.995 138.428 174.913 138.425 175.258 138.393C176.059 137.395 176.514 136.428 176.969 135.462C176.969 135.462 176.894 135.404 177.255 135.332C181.65 132.933 185.434 129.462 189.771 128.508C200.325 126.186 207.644 131.652 212.841 140.475C212.841 140.475 212.879 140.413 212.844 140.775C213.155 141.745 213.5 142.352 213.845 142.96C216.209 150.172 214.715 156.824 210.61 163.666C210.12 164.589 209.931 164.985 209.742 165.381C209.742 165.381 209.872 165.372 209.599 165.407C209.117 165.747 208.909 166.053 208.7 166.358ZM183.703 141.248C182.49 142.956 181.276 144.664 179.811 147.151C177.293 154.53 181.02 162.264 188.105 163.078C191.273 163.442 194.662 161.872 198.466 161.257C198.686 161.001 198.907 160.745 198.993 160.484C198.993 160.484 199.028 160.614 199.679 160.349C203.684 156.166 205.119 151.551 202.027 146.326C202.027 146.326 202.177 146.317 202.021 145.692C201.665 145.195 201.309 144.698 200.806 143.673C200.249 143.227 199.692 142.781 198.867 141.847C198.549 141.682 198.231 141.517 197.912 141.41C197.912 141.41 197.956 141.374 197.421 140.816C193.138 138.912 188.876 137.834 184.551 140.849C184.551 140.849 184.228 140.913 183.703 141.248Z" fill="#F5EFE8"/>
<path d="M127.756 89.4692C130.8 89.9767 133.496 90.1909 135.967 91.0514C140.108 92.4936 140.796 95.9387 139.639 99.6335C138.54 103.142 135.915 103.413 132.419 102.859C123.589 101.46 114.869 101.861 106.597 106.021C104.128 107.262 100.973 109.903 98.5867 106.489C96.2036 103.079 99.2458 100.499 101.522 98.4474C108.816 91.8726 117.707 89.5806 127.756 89.4692Z" fill="#302D2A"/>
<path d="M196.659 105.344C192.604 105.028 188.909 105.074 185.352 104.391C183.192 103.977 179.607 102.529 179.543 101.385C179.407 98.9452 181.011 96.3327 182.203 93.941C182.552 93.2416 183.876 92.8978 184.821 92.6461C194.29 90.1238 210.782 98.6978 213.789 107.883C214.265 109.337 213.475 111.206 213.271 112.882C211.761 112.527 210.114 112.444 208.767 111.766C204.806 109.77 200.965 107.538 196.659 105.344Z" fill="#302D2A"/>
<path d="M142.798 199.812C150.396 202.256 157.505 201.694 164.681 199.452C166.299 198.947 168.369 199.889 170.231 200.165C169.102 202.079 168.396 205.107 166.773 205.724C157.321 209.319 147.522 209.814 138.257 205.393C133.108 202.936 128.486 199.247 123.966 195.682C122.823 194.78 122.982 192.228 122.542 190.434C124.326 190.623 126.374 190.314 127.844 191.094C132.819 193.734 137.59 196.76 142.798 199.812Z" fill="#8F461D"/>
<path d="M143.184 174.633C148.714 170.635 162.728 170.337 167.647 173.84C170.607 175.948 170.701 178.793 167.598 180.476C160.475 184.339 152.977 184.464 145.55 181.596C142.79 180.53 140.899 178.274 143.184 174.633Z" fill="#8F461D"/>
<path d="M140.914 136.572C136.358 130.313 130.93 124.998 122.303 124.45C110.561 123.706 102.21 129.401 97.43 141.429C96.3346 132.07 105.897 121.578 116.519 120.426C128.24 119.154 137.13 124.882 140.914 136.572Z" fill="#24201E"/>
<path d="M212.936 140.102C207.644 131.652 200.325 126.186 189.771 128.508C185.434 129.462 181.65 132.933 177.292 135.362C178.251 128.472 187.954 122.854 196.381 124.616C204.763 126.369 210.611 131.243 212.936 140.102Z" fill="#24201E"/>
<path d="M184.055 171.6C190.445 173.928 196.851 173.974 203.486 170.405C201.579 173.753 194.221 175.636 188.464 174.07C186.954 173.66 185.6 172.681 184.055 171.6Z" fill="#933C12"/>
<path d="M112.099 169.571C117.254 169.147 122.585 169.08 128.339 169.062C123.454 173.18 117.882 171.9 112.099 169.571Z" fill="#933C12"/>
<path d="M129.08 169.235C130.148 168.153 131.596 167.171 133.382 166.143C132.3 167.176 130.88 168.255 129.08 169.235Z" fill="#933C12"/>
<path d="M176.604 135.346C176.514 136.428 176.059 137.395 175.285 138.425C175.391 137.402 175.814 136.316 176.604 135.346Z" fill="#24201E"/>
<path d="M174.938 162.67C175.568 163.115 176.188 163.933 176.917 165.044C176.326 164.572 175.627 163.807 174.938 162.67Z" fill="#933C12"/>
<path d="M178.157 167.421C178.987 167.641 179.836 168.215 180.853 169.063C180.072 168.817 179.124 168.296 178.157 167.421Z" fill="#933C12"/>
<path d="M103.978 164.604C104.618 164.717 105.259 165.186 106.024 165.928C105.425 165.788 104.701 165.375 103.978 164.604Z" fill="#933C12"/>
<path d="M108.873 234.048C108.24 234.106 107.45 233.911 106.838 233.524C107.582 233.487 108.149 233.641 108.873 234.048Z" fill="#F4EEE3"/>
<path d="M176.959 165.611C177.387 165.707 177.81 166.14 178.241 166.878C177.817 166.772 177.386 166.359 176.959 165.611Z" fill="#933C12"/>
<path d="M173.934 160.798C174.215 160.942 174.554 161.377 174.949 162.096C174.666 161.95 174.329 161.52 173.934 160.798Z" fill="#933C12"/>
<path d="M61.9735 194.039C61.6361 193.822 61.2978 193.275 60.9751 192.377C61.3181 192.586 61.6453 193.147 61.9735 194.039Z" fill="#2E2D2A"/>
<path d="M213.862 142.567C213.5 142.353 213.154 141.745 212.808 140.774C213.163 140.999 213.521 141.586 213.862 142.567Z" fill="#24201E"/>
<path d="M182.08 170.476C182.537 170.382 183.11 170.6 183.861 171.071C183.424 171.146 182.81 170.966 182.08 170.476Z" fill="#933C12"/>
<path d="M174.636 138.532C174.878 139.102 174.761 139.776 174.344 140.624C174.122 140.077 174.2 139.356 174.636 138.532Z" fill="#24201E"/>
<path d="M106.099 166.45C106.563 166.356 107.132 166.578 107.872 167.06C107.429 167.136 106.817 166.952 106.099 166.45Z" fill="#933C12"/>
<path d="M108.054 167.535C108.496 167.446 109.063 167.657 109.818 168.109C109.397 168.179 108.788 168.007 108.054 167.535Z" fill="#933C12"/>
<path d="M110.058 168.575C110.499 168.467 111.082 168.649 111.851 169.077C111.424 169.171 110.812 169.018 110.058 168.575Z" fill="#933C12"/>
<path d="M204.123 170.34C204.274 170.003 204.752 169.65 205.53 169.235C205.37 169.556 204.91 169.94 204.123 170.34Z" fill="#933C12"/>
<path d="M201.612 225.333C201.62 225.489 201.394 225.673 201.063 225.712C200.956 225.568 201.378 225.36 201.612 225.333Z" fill="#2E2D2A"/>
<path d="M103.026 163.518C103.235 163.452 103.536 163.651 103.943 164.105C103.74 164.168 103.429 163.976 103.026 163.518Z" fill="#933C12"/>
<path d="M102.035 162.497C102.245 162.434 102.542 162.64 102.942 163.105C102.737 163.165 102.429 162.965 102.035 162.497Z" fill="#933C12"/>
<path d="M134.024 166.21C133.909 165.984 134.085 165.634 134.537 165.115C134.647 165.326 134.48 165.705 134.024 166.21Z" fill="#933C12"/>
<path d="M205.963 169.246C205.894 169.022 206.102 168.725 206.579 168.334C206.645 168.55 206.443 168.861 205.963 169.246Z" fill="#933C12"/>
<path d="M207.009 168.265C206.95 168.07 207.154 167.77 207.605 167.343C207.659 167.53 207.466 167.845 207.009 168.265Z" fill="#933C12"/>
<path d="M208.972 166.267C208.909 166.053 209.118 165.747 209.589 165.343C209.649 165.554 209.446 165.865 208.972 166.267Z" fill="#933C12"/>
<path d="M210.046 165.224C209.931 164.985 210.121 164.589 210.585 164.002C210.69 164.231 210.52 164.649 210.046 165.224Z" fill="#933C12"/>
<path d="M181.026 169.537C181.259 169.442 181.587 169.613 182.007 170.051C181.773 170.147 181.448 169.975 181.026 169.537Z" fill="#933C12"/>
<path d="M101.019 161.157C101.245 161.132 101.554 161.438 101.961 162.061C101.74 162.08 101.421 161.784 101.019 161.157Z" fill="#933C12"/>
<path d="M168.202 436.292C172.49 438.986 173.498 442.861 172.216 448.421C170.595 443.861 169.295 440.204 168.202 436.292Z" fill="#7E3012"/>
<path d="M174.887 431.41C172.953 428.646 171.019 425.881 169.085 423.117C169.648 422.754 170.211 422.391 170.773 422.029C172.124 424.911 173.475 427.793 174.86 431.039C174.894 431.403 174.887 431.41 174.887 431.41Z" fill="#7E3012"/>
<path d="M158.812 445.5C157.854 444.703 156.895 443.906 155.917 442.752C155.897 442.396 155.948 442.339 155.948 442.339C156.919 443.117 157.891 443.895 158.878 445.042C158.892 445.412 158.812 445.5 158.812 445.5Z" fill="#7E3012"/>
<path d="M164.902 414.394C165.873 414.921 166.844 415.448 167.815 415.975C167.521 416.38 167.227 416.786 166.933 417.191C166.273 416.48 165.613 415.769 164.923 414.731C164.895 414.403 164.902 414.394 164.902 414.394Z" fill="#7E3012"/>
<path d="M162.899 454.406C163.123 453.23 163.347 452.054 163.57 450.877C163.926 450.966 164.281 451.054 164.637 451.142C164.281 452.201 163.926 453.26 163.232 454.361C162.895 454.403 162.899 454.406 162.899 454.406Z" fill="#7E3012"/>
<path d="M174.898 431.4C175.651 432.245 176.4 433.092 177.149 433.94C176.752 434.188 176.354 434.436 175.957 434.684C175.604 433.818 175.252 432.952 174.894 431.748C174.887 431.41 174.895 431.403 174.898 431.4Z" fill="#7E3012"/>
<path d="M152.906 438.388C153.567 439.171 154.227 439.953 154.893 441.068C154.897 441.401 154.876 441.427 154.876 441.427C154.216 440.639 153.556 439.851 152.895 438.733C152.893 438.404 152.906 438.388 152.906 438.388Z" fill="#7E3012"/>
<path d="M162.961 430.325C163.594 430.787 164.227 431.248 164.876 432.06C164.893 432.411 164.814 432.498 164.814 432.498C164.187 432.027 163.56 431.556 162.915 430.741C162.896 430.396 162.961 430.325 162.961 430.325Z" fill="#7E3012"/>
<path d="M169.759 450.703C169.942 451.002 169.911 451.336 169.881 451.671C169.649 451.604 169.418 451.538 169.187 451.472C169.307 451.227 169.426 450.983 169.759 450.703Z" fill="#7E3012"/>
<path d="M145.885 430.415C146.218 430.878 146.551 431.34 146.889 432.103C146.571 431.933 146.247 431.463 145.909 430.698C145.895 430.403 145.885 430.415 145.885 430.415Z" fill="#7E3012"/>
<path d="M161.905 411.388C161.782 411.25 161.659 411.111 161.535 410.972C161.619 411.025 161.702 411.078 161.84 411.266C161.894 411.403 161.905 411.388 161.905 411.388Z" fill="#7E3012"/>
<path d="M158.877 426.424C158.757 426.25 158.638 426.075 158.518 425.9C158.621 425.953 158.724 426.006 158.862 426.229C158.898 426.4 158.877 426.424 158.877 426.424Z" fill="#7E3012"/>
<path d="M156.915 423.378C157.037 423.556 157.159 423.734 157.282 423.912C157.175 423.86 157.069 423.807 156.927 423.58C156.891 423.405 156.915 423.378 156.915 423.378Z" fill="#7E3012"/>
<path d="M155.913 422.38C156.248 422.462 156.512 422.647 156.81 423.156C156.915 423.378 156.891 423.405 156.877 423.417C156.516 423.362 156.247 423.18 155.975 422.644C155.893 422.403 155.913 422.38 155.913 422.38Z" fill="#7E3012"/>
<path d="M155.882 422.413C155.741 422.258 155.612 422.093 155.483 421.928C155.587 421.976 155.69 422.024 155.853 422.226C155.913 422.38 155.893 422.403 155.882 422.413Z" fill="#7E3012"/>
<path d="M168.916 419.376C169.045 419.549 169.174 419.721 169.303 419.894C169.197 419.844 169.092 419.793 168.94 419.572C168.895 419.401 168.916 419.376 168.916 419.376Z" fill="#7E3012"/>
<path d="M168.882 419.412C168.747 419.253 168.625 419.083 168.503 418.913C168.603 418.964 168.704 419.016 168.86 419.222C168.916 419.376 168.895 419.401 168.882 419.412Z" fill="#7E3012"/>
<path d="M163.899 413.398C164.243 413.466 164.512 413.647 164.804 414.166C164.902 414.394 164.895 414.403 164.891 414.406C164.553 414.325 164.288 414.14 163.993 413.629C163.895 413.403 163.899 413.398 163.899 413.398Z" fill="#7E3012"/>
<path d="M162.996 412.627C163.24 412.469 163.512 412.647 163.805 413.167C163.899 413.398 163.895 413.403 163.892 413.404C163.558 413.318 163.294 413.133 162.996 412.627Z" fill="#7E3012"/>
<path d="M161.887 411.408C162.224 411.481 162.499 411.657 162.8 412.172C162.561 412.313 162.297 412.126 162.003 411.615C161.905 411.388 161.894 411.403 161.887 411.408Z" fill="#7E3012"/>
<path d="M158.911 426.389C159.272 426.437 159.548 426.611 159.827 427.149C159.901 427.398 159.865 427.44 159.865 427.44C159.538 427.341 159.277 427.151 158.98 426.647C158.877 426.424 158.898 426.4 158.911 426.389Z" fill="#7E3012"/>
<path d="M149.875 435.428C149.536 435.345 149.271 435.158 148.987 434.634C148.895 434.402 148.905 434.39 148.905 434.39C149.179 434.566 149.453 434.743 149.811 435.161C149.896 435.403 149.875 435.428 149.875 435.428Z" fill="#7E3012"/>
<path d="M158.936 445.371C159.092 445.529 159.205 445.727 159.317 445.925C159.202 445.884 159.087 445.842 158.892 445.65C158.812 445.5 158.892 445.412 158.936 445.371Z" fill="#7E3012"/>
<path d="M155.868 442.422C155.518 442.344 155.262 442.152 154.974 441.649C154.875 441.427 154.897 441.401 154.91 441.39C155.264 441.441 155.536 441.614 155.842 442.117C155.947 442.339 155.897 442.396 155.868 442.422Z" fill="#7E3012"/>
<path d="M152.885 438.411C152.526 438.358 152.255 438.18 151.977 437.643C151.894 437.404 151.907 437.388 151.907 437.388C152.24 437.474 152.503 437.659 152.802 438.166C152.906 438.388 152.893 438.404 152.885 438.411Z" fill="#7E3012"/>
<path d="M151.886 437.41C151.532 437.353 151.257 437.178 150.973 436.648C150.892 436.403 150.923 436.368 150.923 436.368C151.259 436.455 151.522 436.643 151.81 437.161C151.907 437.388 151.894 437.404 151.886 437.41Z" fill="#7E3012"/>
<path d="M150.874 436.418C150.521 436.352 150.258 436.167 149.972 435.653C149.875 435.428 149.895 435.403 149.908 435.392C150.257 435.458 150.522 435.638 150.82 436.145C150.922 436.368 150.892 436.403 150.874 436.418Z" fill="#7E3012"/>
<path d="M162.421 448.996C162.344 449.047 162.317 448.843 162.317 448.843C162.317 448.843 162.497 448.944 162.421 448.996Z" fill="#7E3012"/>
<path d="M147.897 433.398C148.172 433.573 148.446 433.749 148.812 434.157C148.904 434.39 148.895 434.402 148.889 434.407C148.551 434.322 148.288 434.136 147.994 433.628C147.895 433.403 147.897 433.398 147.897 433.398Z" fill="#7E3012"/>
<path d="M164.936 432.372C165.092 432.532 165.206 432.733 165.32 432.933C165.204 432.89 165.088 432.847 164.893 432.651C164.814 432.498 164.893 432.411 164.936 432.372Z" fill="#7E3012"/>
<path d="M147.893 433.404C147.563 433.311 147.3 433.125 146.998 432.625C147.17 432.578 147.445 432.753 147.809 433.163C147.898 433.398 147.895 433.403 147.893 433.404Z" fill="#7E3012"/>
<path d="M162.861 430.429C162.502 430.363 162.237 430.18 161.965 429.652C161.899 429.392 161.976 429.307 161.976 429.307C162.311 429.396 162.572 429.587 162.86 430.101C162.961 430.325 162.896 430.396 162.861 430.429Z" fill="#7E3012"/>
<path d="M145.902 430.397C145.77 430.248 145.631 430.105 145.493 429.962C145.587 430.012 145.681 430.063 145.83 430.265C145.885 430.415 145.895 430.403 145.902 430.397Z" fill="#7E3012"/>
<path d="M160.942 428.346C161.282 428.413 161.551 428.589 161.863 429.09C161.976 429.307 161.899 429.392 161.856 429.432C161.499 429.354 161.246 429.157 160.977 428.638C160.899 428.395 160.942 428.346 160.942 428.346Z" fill="#7E3012"/>
<path d="M159.922 427.38C160.282 427.432 160.55 427.61 160.845 428.12C160.942 428.346 160.899 428.395 160.874 428.417C160.528 428.339 160.269 428.152 159.969 427.659C159.865 427.44 159.901 427.399 159.922 427.38Z" fill="#7E3012"/>
<path d="M162.892 454.4C162.793 454.438 162.696 454.478 162.749 454.462C162.899 454.406 162.894 454.403 162.892 454.4Z" fill="#7E3012"/>
<path d="M183.854 338.808C184.98 338.075 186.106 337.342 187.542 336.466C187.992 340.489 188.131 344.655 188.295 349.567C178.309 356.63 166.019 359.448 152.675 360.671C134.654 362.324 117.493 359.555 100.378 354.763C99.1474 354.419 97.7608 354.632 96.0138 354.687C95.5808 354.789 95.5991 354.7 95.6887 354.325C95.3812 353.472 94.9839 352.994 94.5866 352.517C94.5866 352.517 94.7086 352.463 94.7788 352.096C94.4879 348.617 93.9842 345.51 93.8797 342.389C93.8572 341.718 95.2785 341 96.0346 340.303C96.0346 340.303 95.9396 340.322 96.052 340.626C97.4663 341.314 98.768 341.697 100.07 342.081C100.07 342.081 100.066 341.968 100.178 342.326C101.218 342.906 102.145 343.128 103.072 343.35C103.072 343.35 103.508 343.376 103.954 343.717C112.818 345.507 121.264 348.284 129.648 348.111C144.26 347.808 158.872 345.982 173.398 344.124C177.051 343.657 180.378 340.648 183.854 338.808Z" fill="#298381"/>
<path d="M98.2307 360.308C97.9866 359.926 97.8957 359.608 97.626 359.094C97.1823 358.3 96.872 357.715 96.4326 356.823C97.1558 357.592 98.0079 358.669 98.8326 360.136C98.8051 360.525 98.4295 360.359 98.2307 360.308Z" fill="#298381"/>
<path d="M100.149 362.272C99.9964 362.394 99.7092 362.07 99.6558 361.86C99.8356 361.817 100.069 361.984 100.149 362.272Z" fill="#298381"/>
<path d="M99.6659 361.382C99.4388 361.433 99.1704 361.21 98.8354 360.722C99.0541 360.673 99.3393 360.89 99.6659 361.382Z" fill="#298381"/>
<path d="M96.5332 233.089C96.61 233.3 96.4281 233.683 95.946 234.192C95.8552 233.966 96.0648 233.614 96.5332 233.089Z" fill="#F4EEE3"/>
<path d="M183.689 338.797C180.378 340.648 177.05 343.657 173.398 344.124C158.872 345.982 144.26 347.808 129.648 348.111C121.264 348.284 112.818 345.507 104.163 343.781C112.431 344.542 120.911 346.09 129.447 346.508C144.702 347.254 159.883 346.174 175.137 342.246C176.309 341.874 177.11 341.619 178.207 341.246C179.241 340.77 179.98 340.411 180.837 339.764C181.562 339.388 182.169 339.3 182.985 338.986C183.195 338.759 183.524 338.786 183.689 338.797Z" fill="#176F6E"/>
<path d="M95.8574 340.062C95.2785 341 93.8572 341.718 93.8797 342.389C93.9842 345.51 94.488 348.617 94.7833 352.163C92.7239 348.052 90.5422 343.532 93.3745 338.483C94.4186 338.957 95.0492 339.389 95.8574 340.062Z" fill="#176F6E"/>
<path d="M99.9172 341.789C98.7679 341.697 97.4661 341.314 96.0566 340.578C97.2209 340.649 98.4928 341.073 99.9172 341.789Z" fill="#176F6E"/>
<path d="M102.915 343.035C102.145 343.128 101.218 342.906 100.231 342.308C101.034 342.194 101.896 342.457 102.915 343.035Z" fill="#176F6E"/>
<path d="M94.6372 352.828C94.9839 352.994 95.3812 353.472 95.723 354.295C95.3409 354.141 95.0143 353.64 94.6372 352.828Z" fill="#176F6E"/>
<path d="M243.617 161.545C243.852 162.122 243.84 162.892 243.829 164.047C243.676 163.534 243.523 162.636 243.617 161.545Z" fill="#1B1816"/>
<path d="M134.7 144.375C136.48 150.274 133.702 155.143 129.47 158.044C125.453 160.798 120.12 160.467 115.073 157.169C114.296 156.642 114.004 156.534 113.684 156.503C113.684 156.503 113.819 156.476 113.735 156.265C113.325 155.87 113 155.687 112.674 155.504C112.674 155.504 112.812 155.485 112.745 155.275C112.38 154.859 112.081 154.654 111.783 154.448C111.783 154.448 111.865 154.444 111.875 154.061C111.857 153.021 111.928 152.343 111.786 151.713C109.907 143.347 113.999 137.798 122.445 137.312C124.696 137.183 126.95 137.087 129.202 136.976C129.202 136.976 129.289 136.935 129.209 137.293C130.986 139.893 132.843 142.134 134.7 144.375Z" fill="#34322F"/>
<path d="M128.953 136.722C126.95 137.087 124.696 137.183 122.445 137.312C113.999 137.798 109.907 143.347 111.786 151.713C111.928 152.343 111.857 153.021 111.857 154.098C108.624 149.072 108.927 143.375 112.645 139.153C116.688 134.562 122.069 133.662 128.953 136.722Z" fill="#1B1816"/>
<path d="M134.736 144.029C132.843 142.134 130.986 139.893 129.257 137.29C131.181 139.178 132.977 141.43 134.736 144.029Z" fill="#1B1816"/>
<path d="M112.788 155.759C113 155.687 113.325 155.87 113.732 156.333C113.509 156.414 113.206 156.214 112.788 155.759Z" fill="#1B1816"/>
<path d="M113.803 156.736C114.004 156.534 114.296 156.642 114.701 157.014C114.535 157.125 114.228 157.047 113.803 156.736Z" fill="#1B1816"/>
<path d="M111.859 154.712C112.081 154.654 112.38 154.859 112.736 155.344C112.508 155.407 112.222 155.191 111.859 154.712Z" fill="#1B1816"/>
<path d="M197.952 161.179C194.663 161.872 191.273 163.442 188.105 163.078C181.02 162.265 177.294 154.53 180.273 146.707C181.9 144.48 183.064 142.696 184.229 140.913C184.229 140.913 184.551 140.849 185.048 141.076C189.682 141.326 193.819 141.35 197.957 141.374C197.957 141.374 197.912 141.41 198.017 141.643C198.46 142.029 198.798 142.182 199.135 142.335C199.692 142.781 200.249 143.227 200.859 144.284C201.334 145.368 201.756 145.843 202.178 146.317C202.178 146.317 202.027 146.326 201.951 146.653C200.926 151.524 199.977 156.069 199.028 160.614C199.028 160.614 198.994 160.484 198.834 160.551C198.354 160.704 198.114 160.891 197.952 161.179Z" fill="#34322F"/>
<path d="M199.354 160.482C199.977 156.069 200.926 151.524 201.969 146.579C205.119 151.551 203.684 156.166 199.354 160.482Z" fill="#151310"/>
<path d="M197.689 141.095C193.819 141.35 189.682 141.326 185.133 141.216C188.876 137.834 193.138 138.912 197.689 141.095Z" fill="#151310"/>
<path d="M183.966 141.08C183.064 142.696 181.899 144.48 180.399 146.318C181.276 144.664 182.49 142.956 183.966 141.08Z" fill="#151310"/>
<path d="M202.1 146.004C201.756 145.843 201.334 145.368 200.933 144.548C201.309 144.698 201.665 145.195 202.1 146.004Z" fill="#151310"/>
<path d="M199.001 142.091C198.798 142.182 198.46 142.029 198.018 141.614C198.231 141.518 198.549 141.682 199.001 142.091Z" fill="#151310"/>
<path d="M198.209 161.218C198.114 160.891 198.355 160.704 198.901 160.554C198.908 160.745 198.687 161.001 198.209 161.218Z" fill="#151310"/>
</svg>
