<svg viewBox="0 0 250 582" fill="none" xmlns="http://www.w3.org/2000/svg">
<path d="M224.099 325.798C229.626 334.265 232.394 343.156 227.331 352.789C221.657 363.584 211.391 366.329 200.414 359.506C194.693 355.949 189.763 351.119 184.162 346.949C183.849 347.033 183.844 347.104 183.92 346.765C183.597 346.299 183.199 346.173 182.569 346.032C182.337 346.017 181.874 345.966 181.876 345.603C181.526 344.34 181.378 343.269 180.791 342.564C173.695 334.045 166.292 325.768 159.488 317.024C155.886 312.395 151.905 310.899 146.104 310.723C142.363 310.61 138.688 307.354 135.058 305.371C134.255 304.932 133.912 303.578 133.106 303.23C127.103 300.642 124.254 295.454 121.837 289.485C121.861 287.387 121.848 285.706 122.193 283.992C123.916 283.44 125.279 282.92 126.047 282.628C123.96 279.947 122.246 277.744 120.403 275.376C120.159 276.099 119.961 276.687 119.323 277.219C106.483 277.032 96.4792 272.689 90.6127 261.076C90.6639 260.898 90.715 260.72 91.1554 260.268C93.7307 258.395 95.2701 256.649 92.9006 254.016C92.9006 254.016 92.8742 254.044 92.8253 253.688C90.2001 250.788 88.2258 247.096 83.5752 248.499C83.5752 248.499 83.5729 248.424 83.6305 248.089C83.2466 244.543 80.9534 244.326 78.4209 244.497C78.4209 244.497 78.3707 244.453 78.4905 244.117C75.8785 241.343 73.1468 238.906 70.4152 236.468C70.4152 236.468 70.595 236.501 70.6443 236.075C68.7441 232.191 68.268 227.584 63.4501 226.365C63.4501 226.365 63.5631 226.226 63.6759 226.009C62.9705 224.672 62.1524 223.552 61.3343 222.431C61.3343 222.431 61.289 222.325 61.5012 222.058C61.7963 221.032 62.1113 220.209 61.9248 219.522C60.5836 214.582 59.2616 209.629 57.6536 204.773C57.1897 203.372 55.8099 202.274 54.8501 201.037C54.8501 201.037 54.8517 201.033 54.7752 200.754C54.4404 200.125 54.1821 199.776 53.9238 199.426C53.5837 199.88 53.2436 200.334 52.9036 200.789C47.9846 200.799 43.0655 200.809 37.9153 200.117C35.3731 197.295 33.2396 194.629 29.5449 196.773C29.5449 196.773 29.4866 196.658 29.4788 196.259C28.8763 195.617 28.2816 195.374 27.687 195.132C27.687 195.132 27.7949 195.103 27.7049 194.887C27.2966 194.481 26.9781 194.291 26.6597 194.102C26.6597 194.102 26.7721 194.099 26.7982 193.759C25.9999 192.81 25.1757 192.203 24.3515 191.595C24.3515 191.595 24.3691 191.502 24.5015 191.065C23.3884 186.94 20.8605 183.142 21.1643 179.587C21.798 172.171 20.8348 164.005 27.141 157.995C27.7434 157.421 27.503 155.963 27.6538 154.915C27.6809 154.575 27.708 154.235 28.0691 153.603C28.5744 153.238 28.7455 153.164 29.234 152.918C42.7034 146.549 47.5552 147.653 61.0967 160.281C61.7413 158.588 62.4516 157.17 62.825 155.668C65.2663 145.851 67.2836 135.913 70.0969 126.205C76.8523 102.893 91.6838 87.9223 116.143 83.9769C143.69 79.5333 170.781 81.8785 197.163 91.0458C208.295 94.914 216.94 102.146 222.043 112.833C224.585 118.156 225.863 124.083 227.703 130.163C227.791 131.692 227.887 132.796 227.945 134.315C228.013 135.555 228.12 136.379 228.225 137.6C228.477 143.283 228.729 148.57 228.796 154.246C226.222 163.979 227.104 165.853 236.216 170.801C236.216 170.801 236.061 170.878 236.082 171.093C236.413 171.527 236.724 171.746 237.034 171.965C237.034 171.965 236.933 171.972 236.907 172.336C237.5 177.7 238.791 182.736 238.525 187.689C238.316 191.586 236.187 195.38 234.911 199.219C231.546 202.69 228.181 206.161 224.236 209.929C221.428 214.609 218.99 218.9 217.058 223.409C216.007 225.863 215.815 228.685 215.236 231.342C215.236 231.342 215.279 231.219 214.954 231.313C214.457 232.049 214.285 232.69 214.112 233.332C214.112 233.332 214.112 233.208 213.788 233.203C212.117 235.601 210.769 238.005 209.42 240.408C209.42 240.408 209.37 240.521 208.984 240.416C207.757 241.65 206.916 242.989 206.075 244.328C206.075 244.328 206.004 244.178 205.781 244.249C205.4 244.683 205.241 245.047 205.082 245.411C205.082 245.411 205.059 245.211 204.799 245.257C204.082 246.024 203.624 246.746 203.166 247.467C203.166 247.467 203.062 247.301 202.837 247.32C202.437 247.701 202.261 248.063 202.085 248.425C202.085 248.425 202.083 248.268 201.773 248.212C199.627 248.299 197.516 248.212 198.995 251.118C197.485 252.333 195.975 253.547 194.028 254.684C193.404 254.834 193.216 255.063 193.029 255.291C193.029 255.291 192.962 255.173 192.689 255.158C191.916 255.499 191.415 255.855 190.915 256.211C190.915 256.211 190.908 256.115 190.627 256.115C189.871 256.484 189.397 256.854 188.922 257.224C188.922 257.224 188.911 257.127 188.564 257.1C183.643 258.477 178.987 259.664 174.52 261.352C171.026 262.671 169.193 261.494 167.1 258.689C162.944 253.119 158.628 247.41 151.627 245.153C143.912 242.665 136.17 239.972 128.227 238.595C124.219 237.901 118.633 238.574 115.707 240.987C109.631 245.999 107.769 251.427 116.478 255.252C120.685 257.099 125.109 258.473 129.491 259.884C130.103 260.081 131.042 259.263 132.225 258.741C126.888 252.573 116.677 256.208 113.146 248.061C117.784 241.277 120.23 240.113 127.552 241.842C132.373 242.981 137.032 244.875 141.883 245.81C158.032 248.921 167.067 259.314 171.895 274.271C172.291 275.496 173.005 276.618 173.571 277.788C173.92 277.675 174.269 277.561 174.619 277.448C174.687 275.991 174.755 274.534 175.133 273.204C178.757 277.242 182.002 281.213 185.396 285.053C195.827 296.857 206.245 308.675 216.844 320.326C218.847 322.528 221.66 323.993 224.099 325.798ZM132.666 182.829C132.666 182.829 132.495 182.801 133.112 182.731C133.277 182.377 133.442 182.024 133.565 181.805C133.565 181.805 133.479 181.693 134.256 181.862C134.987 180.487 135.718 179.113 136.424 177.658C136.424 177.658 136.415 177.574 137.129 177.818C140.503 176.284 140.975 175.149 139.191 172.27C140.482 165.136 140.476 158.213 136.223 151.804C135.994 151.64 135.765 151.476 135.607 151.221C135.607 151.221 135.638 151.332 135.544 150.754C135.233 150.545 134.922 150.335 134.192 149.969C133.937 149.774 133.803 149.516 133.767 148.519C133.297 148.271 132.828 148.023 132.245 147.644C132.245 147.644 132.106 147.542 132.348 146.912C131.791 146.67 131.235 146.427 130.828 146.066C130.828 146.066 130.705 146.213 130.74 145.538C130.001 144.54 129.262 143.542 129.311 143.609C132.133 140.019 134.688 136.77 137.399 133.322C134.217 131.884 132.062 130.91 130.774 129.948C135.077 130.397 139.514 130.834 140.309 124.929C140.874 120.733 138.417 117.821 134.885 116.277C122.651 110.929 110.591 111.896 98.8935 118.065C96.1041 119.536 93.7198 121.711 95.0964 125.242C96.5323 128.926 99.6379 128.278 102.731 127.537C109.537 125.907 116.359 125.622 122.125 127.999C114.083 128.446 105.74 126.652 98.101 130.817C101.453 139.534 102.882 140.232 111.594 138.979C114.774 138.521 118.074 138.905 121.319 138.905C121.359 139.379 121.399 139.852 121.439 140.326C120.783 140.598 120.127 140.87 118.596 141.181C113.868 141.806 108.618 141.367 104.561 143.357C100.559 145.32 97.7651 149.743 93.6789 153.25C92.507 155.335 90.6139 157.321 90.3106 159.525C89.6418 164.388 87.1058 169.719 91.9733 173.968C91.9733 173.968 91.9948 173.835 91.8881 174.62C91.9122 175.402 91.9365 176.184 91.9976 177.657C93.4051 178.705 94.8127 179.752 96.0627 180.869C96.0627 180.869 96.072 180.698 96.1409 181.3C96.4723 181.496 96.8038 181.693 96.9731 181.924C96.9731 181.924 96.9889 181.759 97.129 182.34C97.4663 182.52 97.8035 182.7 97.9751 182.905C97.9751 182.905 98.0065 182.74 98.1329 183.332C98.4792 183.503 98.8255 183.673 98.9976 183.87C98.9976 183.87 99.04 183.699 99.1537 184.305C99.5157 184.428 99.8776 184.552 100.09 184.675C100.09 184.675 100.194 184.567 100.231 185.261C100.842 185.463 101.454 185.666 101.949 185.895C101.949 185.895 101.974 185.778 102.053 186.394C108.022 193.036 125.292 193.039 130.842 186.322C131.363 185.691 131.246 184.533 131.545 183.648C131.545 183.648 131.474 183.75 132.098 183.722C132.268 183.37 132.439 183.018 132.666 182.829ZM207.557 155.769C207.199 155.612 206.84 155.454 206.631 155.229C206.631 155.229 206.608 155.391 206.556 154.767C206.198 154.609 205.841 154.451 205.565 154.416C205.565 154.416 205.423 154.458 205.651 153.737C204.488 151.229 203.063 149.255 199.099 150.822C194.447 150.41 189.192 148.459 185.3 149.985C180.723 151.779 177.329 156.59 172.715 160.307C172.471 160.952 172.228 161.596 171.966 162.101C171.966 162.101 172.105 162.123 171.353 162.308C167.526 168.172 167.687 177.205 171.994 181.642C174.609 184.763 177.223 187.884 180.184 191.562C180.812 191.66 181.441 191.758 181.926 191.885C181.926 191.885 181.947 191.741 182.164 192.406C182.81 192.543 183.455 192.681 183.961 192.832C183.961 192.832 184.012 192.701 184.095 193.408C188.236 197.311 196.876 196.444 201.698 191.77C201.698 191.77 201.551 191.784 202.142 191.76C202.355 191.449 202.569 191.138 202.786 190.947C202.786 190.947 202.669 190.918 203.383 190.974C204.136 190.206 204.889 189.439 205.716 188.84C205.716 188.84 205.531 188.848 206.14 188.757C206.323 188.411 206.506 188.065 206.714 187.896C206.714 187.896 206.539 187.86 207.222 187.793C207.657 187.081 208.091 186.369 208.428 185.655C208.428 185.655 208.423 185.558 209.176 185.817C210.13 185.027 211.537 184.427 211.965 183.414C215.052 176.104 216.154 168.587 212.664 161.128C211.972 159.649 209.867 158.831 208.371 157.497C208.371 157.497 208.55 157.376 208.543 156.755C208.185 156.604 207.827 156.453 207.621 156.227C207.621 156.227 207.606 156.396 207.557 155.769ZM171.852 219.033C170.647 217.044 169.916 213.459 168.151 212.474C154.364 204.782 140.031 208.9 125.129 210.739C122.913 211.178 119.95 210.936 118.728 212.279C117.822 213.276 118.97 216.393 119.603 218.442C119.97 219.631 121.053 220.644 121.94 221.621C134.329 235.273 149.8 237.058 166.617 232.863C169.538 232.134 172.621 230.52 174.734 228.416C178.686 224.48 177.35 221.573 171.852 219.033ZM214.903 127.55C207.448 119.584 197.96 116.791 187.431 117.218C183.047 117.395 178.623 118.734 176.822 123.318C176.096 125.167 176.233 128.09 177.273 129.673C178.158 131.021 181.14 132.08 182.784 131.661C191.825 129.353 200.071 131.099 208.25 135.079C209.938 135.9 213.366 135.748 214.413 134.602C215.631 133.271 215.111 130.35 214.903 127.55ZM166.702 202.536C167.722 200.849 169.984 198.488 169.509 197.615C168.467 195.701 166.247 193.802 164.14 193.21C157.523 191.353 150.712 190.966 144.245 193.891C142.539 194.663 140.208 196.547 140.204 197.925C140.2 199.451 142.241 201.697 143.907 202.387C151.124 205.379 158.566 206.05 166.702 202.536ZM123.113 273.715C125.603 272.256 128.094 270.796 130.585 269.336C130.48 268.936 130.375 268.537 130.27 268.137C127.986 268.333 125.702 268.53 121.926 268.854C124.346 265.95 125.995 263.971 127.339 262.358C124.212 262.219 121.249 262.391 118.403 261.895C113.197 260.987 108.07 259.633 102.886 258.582C101.655 258.333 100.33 258.545 98.3316 258.545C100.543 261.639 101.941 264.072 103.811 266.06C105.323 267.666 107.233 269.222 109.27 269.944C113.542 271.457 118.014 272.406 123.113 273.715ZM132.223 280.558C132.011 280.504 131.798 280.45 131.586 280.396C131.722 280.528 131.858 280.661 132.223 280.558Z" fill="#96481B"/>
<path d="M228.227 137.203C228.12 136.379 228.013 135.555 228.195 134.101C228.226 132.226 227.969 130.982 227.712 129.737C225.863 124.083 224.586 118.156 222.044 112.833C216.94 102.146 208.295 94.914 197.163 91.0459C170.781 81.8785 143.69 79.5333 116.143 83.9769C91.6838 87.9223 76.8524 102.894 70.097 126.205C67.2837 135.913 65.2664 145.851 62.8251 155.668C62.4517 157.17 61.7414 158.588 61.0968 160.281C47.5552 147.653 42.7035 146.549 29.085 152.616C27.8677 152.135 27.1169 151.784 26.3661 151.433C26.3661 151.433 26.3557 151.288 26.5253 150.963C25.6392 144.787 24.5956 138.935 23.4774 133.097C23.4376 132.889 22.6592 132.823 22.2251 132.691C22.2251 132.691 22.1983 132.565 22.2933 132.186C19.4069 122.866 18.197 113.916 21.7307 104.775C22.2821 103.349 21.9526 101.53 21.8359 99.907C21.5263 95.598 20.9368 91.3025 20.7952 86.9905C20.6946 83.9231 21.1405 80.8378 21.3425 77.7605C21.3425 77.7605 21.2513 77.6293 21.6196 77.5959C22.1411 76.9242 22.2941 76.286 22.4472 75.6478C22.4472 75.6478 22.5004 75.8104 22.7747 75.7358C23.276 75.0562 23.5031 74.4512 23.7302 73.8461C23.7302 73.8461 23.7548 73.9628 23.976 73.8744C24.3837 73.4576 24.5701 73.1291 24.7566 72.8007C24.7566 72.8007 24.7745 72.9604 24.9763 72.866C25.3652 72.4416 25.5524 72.1116 25.7397 71.7816C25.7397 71.7816 25.7571 71.914 26.0732 71.9498C29.7556 70.0267 32.697 59.3581 31.1181 54.8338C31.1181 54.8338 31.0987 54.5081 31.5656 54.5656C32.4459 53.3056 32.8595 51.9881 33.273 50.6707C33.273 50.6707 33.3134 50.5499 33.7005 50.6268C34.5582 49.6886 35.0288 48.6737 35.4993 47.6587C35.4993 47.6587 35.5685 47.8082 35.8077 47.7397C36.1296 47.2931 36.2123 46.9149 36.2951 46.5367C36.418 46.6841 36.541 46.8315 36.8206 46.8038C37.0925 46.2582 37.2078 45.8876 37.323 45.5171C37.323 45.5171 37.6849 45.488 37.8353 45.5628C38.1311 45.2679 38.2766 44.8983 38.4221 44.5286C38.4221 44.5286 38.3146 44.7849 38.7341 44.7968C42.0132 42.9895 44.8729 41.1703 47.7327 39.3511C49.9673 35.5258 52.4968 31.839 54.3717 27.8449C57.7406 20.6682 64.8649 20.2864 70.9924 18.018C72.2888 17.5381 73.5429 16.9441 75.446 16.1513C76.8753 14.7749 77.6749 13.6498 78.4745 12.5247C78.4745 12.5247 78.5786 12.6989 78.7966 12.6911C79.2346 12.3503 79.4546 12.0173 79.6746 11.6843C79.6746 11.6843 79.7022 11.803 79.9326 11.9159C86.9386 9.4553 93.5182 6.51907 101.223 7.76271C104.339 8.26559 108.157 7.62596 110.976 6.1809C121.308 0.884883 131.451 0.475155 142.004 5.352C144.095 6.31813 146.758 6.16682 149.169 6.28839C152.371 6.44983 155.725 5.79394 158.764 6.52433C164.415 7.88223 169.878 10.0161 175.446 11.7369C175.948 11.8918 176.652 11.3917 177.262 11.1958C177.262 11.1958 177.516 11.3231 177.4 11.778C177.974 12.5835 178.664 12.9341 179.354 13.2848C179.354 13.2848 179.402 13.4262 179.337 13.7945C179.628 14.3109 179.983 14.459 180.338 14.6071C180.174 14.7455 180.011 14.8839 179.97 15.1676C181.212 16.39 182.156 18.0234 183.483 18.4412C187.763 19.7893 192.169 20.7653 196.563 21.7105C197.685 21.9517 198.945 21.5487 200.142 21.4416C200.142 21.4416 200.204 21.5278 200.154 21.9008C202.481 23.7423 204.859 25.2108 207.237 26.6793C207.237 26.6793 206.969 26.8899 206.985 27.1408C207.95 28.5976 208.9 29.8035 209.85 31.0095C209.85 31.0095 209.859 31.0251 209.893 31.3556C210.85 32.7885 211.773 33.8908 212.695 34.993C213.272 41.1719 218.205 43.5376 222.769 46.9316C222.883 47.6883 222.863 47.8577 222.726 48.095C222.692 48.1227 222.775 48.0824 223.249 48.0149C224.154 47.9049 224.669 47.8222 225.184 47.7395C225.184 47.7395 225.027 47.8009 225.105 48.029C225.546 48.4277 225.908 48.5982 226.27 48.7688C226.27 48.7688 226.057 48.8204 226.124 49.0285C226.551 49.4114 226.91 49.5862 227.269 49.761C227.269 49.761 227.122 49.806 227.054 50.1246C230.44 57.0889 232.707 63.8771 232.187 71.6596C231.98 74.7615 233.782 78.4677 238.285 78.6246C238.285 78.6246 238.301 78.7116 238.121 79.0083C237.8 79.7744 237.419 80.3288 237.551 80.701C240.716 89.6209 241.705 98.4318 236.652 107.09C236.383 107.552 237.006 108.496 237.126 109.231C238.393 116.97 238.451 124.509 234.267 131.615C233.284 133.285 233.231 135.503 232.75 137.469C232.75 137.469 232.6 137.722 232.221 137.644C231.353 138.098 230.864 138.63 230.452 139.079C229.749 138.486 228.988 137.845 228.227 137.203Z" fill="#3F291B"/>
<path d="M186.732 385.932C188.76 394.381 190.789 402.83 192.495 411.89C192.665 417.386 192.994 422.295 193.733 427.141C194.039 429.148 195.223 431.02 196.009 432.954C196.009 432.954 195.923 432.978 195.887 433.333C196.421 439.597 196.698 445.553 197.642 451.4C198.679 457.827 200.611 464.109 201.645 470.536C202.958 478.704 203.733 486.957 204.792 495.167C205.523 500.837 206.235 506.512 207.15 512.154C207.964 517.17 209.044 522.143 210.007 527.135C209.968 527.3 209.929 527.464 209.554 527.967C208.75 528.819 208.28 529.332 207.462 529.909C205.328 530.971 203.544 531.969 201.779 532.989C201.798 533.01 201.837 532.971 201.516 532.951C200.769 532.972 200.343 533.014 199.511 533.053C188.35 534.366 177.625 536.207 166.831 536.808C159.851 537.197 152.77 535.773 145.552 534.932C144.852 534.485 144.334 534.268 143.803 533.714C143.296 533.146 142.802 532.914 142.308 532.683C142.308 532.683 142.233 532.478 142.456 532.029C142.075 527.7 141.408 523.829 140.878 519.94C139.455 509.503 138.291 499.027 136.638 488.628C135.357 480.573 133.358 472.635 131.919 464.601C130.072 454.283 128.577 443.902 126.624 433.606C126.367 432.249 124.46 430.601 123.035 430.258C121.873 429.979 120.29 431.449 118.893 432.143C118.893 432.143 118.867 432.072 118.559 432.188C117.466 433.862 116.319 435.341 115.956 436.992C113.632 447.551 111.359 458.126 109.33 468.745C108.498 473.106 108.315 477.591 107.473 482.104C106.738 482.695 106.159 483.155 106.03 483.717C103.28 495.64 100.568 507.57 97.8782 519.506C96.5519 525.391 95.2842 531.29 93.774 537.217C93.5581 537.251 93.1233 537.298 92.8798 537.317C92.3173 537.468 92.1097 537.7 91.7608 538.12C91.2856 538.474 91.0632 538.74 90.8415 539.013C90.8424 539.02 90.8323 539.03 90.366 538.993C82.4795 538.795 75.0396 538.921 67.6434 538.412C55.087 537.548 42.8505 535.024 31.1862 530.097C30.6264 529.861 29.8769 530.074 29.2157 530.077C26.5922 527.102 24.1662 524.062 26.2615 519.273C27.4081 517.275 28.4804 515.749 28.7182 514.101C29.3768 509.541 29.6875 504.93 30.2042 499.636C37.3689 503.636 44.2446 504.438 51.4054 502.997C55.0832 502.257 58.6466 501.237 59.3696 496.847C60.623 489.236 61.6932 481.595 63.0621 473.71C65.2128 472.9 67.3922 471.477 69.0266 471.948C75.654 473.855 78.6944 471.926 78.8412 464.939C78.9269 460.86 78.8568 456.777 78.8568 452.389C87.1277 456.828 91.2975 454.335 90.6722 445.38C90.2967 440.003 89.5382 434.279 87.2961 429.486C82.8595 420 81.7667 410.192 82.1587 399.741C82.7428 397.076 83.0401 394.693 83.2415 393.078C91.203 393.078 98.5895 393.084 105.976 393.077C121.127 393.061 136.279 393.068 151.43 392.938C152.24 392.931 153.041 391.749 154.181 391.08C154.964 391.049 155.413 391.052 156.143 391.341C161.58 391.258 166.788 391.219 171.873 390.407C175.616 389.809 179.197 388.198 183.107 386.916C183.869 386.529 184.375 386.265 185.189 386.004C185.909 385.982 186.32 385.957 186.732 385.932Z" fill="#62631A"/>
<path d="M184.88 386.001C184.375 386.265 183.87 386.529 182.699 386.91C173.309 388.369 164.585 389.712 155.861 391.054C155.413 391.052 154.964 391.049 153.744 391.055C147.841 391.389 142.701 392.096 137.581 391.97C118.67 391.503 99.7661 390.76 80.6974 389.734C79.7347 378.014 78.9343 366.683 78.1837 356.057C64.8595 356.057 51.829 356.057 38.5333 356.049C38.0914 356.032 37.9148 356.023 37.5355 355.69C36.8247 353.723 35.856 352.07 35.89 350.439C36.0211 344.151 36.6769 337.872 36.7567 331.586C36.8732 322.391 38.3899 313.522 41.6839 304.928C44.4494 297.712 47.4658 290.675 52.5434 284.685C53.4397 283.627 53.6027 281.948 54.1045 280.556C54.1045 280.556 54.2404 280.432 54.6621 280.551C55.4946 279.963 55.9053 279.256 56.3159 278.549C56.3159 278.549 56.3888 278.549 56.7064 278.605C57.1829 278.304 57.3416 277.947 57.5004 277.59C57.5004 277.59 57.523 277.907 57.8847 277.884C59.2676 276.758 60.2888 275.655 61.31 274.553C61.31 274.553 61.4011 274.582 61.8009 274.7C64.9685 273.651 69.2807 274.512 69.1414 269.53C69.1414 269.53 69.3024 269.467 69.6662 269.56C70.2741 269.377 70.5182 269.102 70.7623 268.827C70.7623 268.827 70.7679 268.93 71.0512 268.975C74.8331 267.409 78.3318 265.798 81.8305 264.187C82.0009 264.126 82.1712 264.064 82.6463 264.37C83.2583 265.837 83.431 266.997 83.8927 268.027C90.3006 282.323 104.594 290.554 121.798 289.902C124.254 295.454 127.103 300.642 133.105 303.23C133.912 303.578 134.255 304.932 135.058 305.37C138.688 307.354 142.363 310.61 146.104 310.723C151.905 310.899 155.886 312.395 159.488 317.024C166.292 325.768 173.695 334.045 180.791 342.564C181.378 343.269 181.526 344.34 181.86 346.002C181.632 348.368 181.038 350.033 181.277 351.568C182.689 360.648 184.435 369.678 185.736 378.772C186.068 381.093 185.198 383.587 184.88 386.001Z" fill="#B72B1B"/>
<path d="M0.0346002 566.065C-0.424385 557.418 5.43945 552.348 10.8484 547.052C13.5669 544.39 16.418 541.864 19.6688 539.486C21.6161 541.494 22.7474 544.125 24.6561 544.944C31.2607 547.778 37.9811 550.838 44.967 552.102C49.1021 552.851 54.5389 554.489 58.404 550.464C66.8311 541.687 76.8807 537.991 88.9531 540.014C89.5951 540.121 90.2763 539.994 90.9607 540.412C90.8437 544.28 91.2736 547.861 90.4311 551.111C89.2243 555.769 88.1926 560.831 82.1854 562.373C74.8307 564.261 67.6695 566.952 60.269 568.595C54.2799 569.925 48.0433 570.951 41.9467 570.809C30.6976 570.547 19.4599 569.448 8.24218 568.426C5.4577 568.173 2.76794 566.88 0.0346002 566.065Z" fill="#35352E"/>
<path d="M30.4097 462.142C28.4014 455.497 30.0592 449.332 33.3123 443.592C34.2191 441.992 36.4478 441.141 38.5615 440.267C39.3254 441.693 39.5976 442.8 39.8565 444.356C40.3398 453.22 41.7864 461.574 47.9254 467.674C50.9901 470.72 55.8271 471.981 59.871 474.512C58.9398 481.604 58.0479 488.24 57.043 494.859C56.4134 499.005 53.2567 500.214 49.69 501.068C42.9609 502.679 36.7587 501.411 30.8565 498.039C30.8515 498.033 30.8388 498.023 30.7769 497.633C28.1791 486.905 31.1609 477.151 32.7391 466.985C36.2829 468.179 38.6986 468.992 41.1141 469.806C38.1356 466.171 32.7875 466.414 30.4097 462.142Z" fill="#62631A"/>
<path d="M249.019 566.024C249.234 572.067 245.072 574.48 240.299 575.925C226.255 580.177 211.837 580.214 197.553 578.046C183.89 575.973 170.361 572.93 156.856 569.943C152.223 568.918 147.473 567.252 146.142 561.165C147.566 559.711 148.764 558.838 149.92 557.982C149.878 558 149.917 557.916 149.954 558.29C152.387 559.34 154.783 560.016 157.094 560.721C157.009 560.75 157.133 560.622 157.165 560.992C164.491 567.394 173.77 568.17 182.381 569.695C191.43 571.297 200.536 574.422 210.121 572.182C213.334 571.432 217.023 572.843 220.303 572.232C229.927 570.441 239.454 568.131 249.019 566.024Z" fill="#ECE3D7"/>
<path d="M90.9396 539.977C90.2766 539.994 89.5955 540.121 88.9534 540.014C76.881 537.991 66.8314 541.687 58.4044 550.463C54.5392 554.489 49.1024 552.851 44.9673 552.102C37.9814 550.838 31.261 547.778 24.6564 544.944C22.7477 544.125 21.6165 541.494 19.9902 539.364C22.8786 536.272 25.9055 533.511 29.0741 530.413C29.8771 530.073 30.6266 529.861 31.1863 530.097C42.8506 535.024 55.0871 537.548 67.6436 538.412C75.0397 538.921 82.4796 538.795 90.4022 539.228C90.9045 539.501 90.9396 539.977 90.9396 539.977Z" fill="#2E2D28"/>
<path d="M89.9692 564.02C89.6342 569.567 85.8257 572.313 81.2277 573.682C73.1699 576.081 65.0489 578.719 56.7644 579.795C45.4899 581.259 34.0382 581.803 22.6601 581.832C17.185 581.847 11.5485 580.25 6.27742 578.502C2.35677 577.202 -1.11748 574.498 1.35542 569.078C3.60329 569.492 5.16298 570.038 6.40193 570.74C6.24312 571.461 6.38002 572.51 6.57082 572.52C17.3897 573.081 28.2088 573.752 39.0371 573.989C53.5918 574.308 67.5761 570.785 81.4359 566.842C82.7365 566.472 83.6369 564.695 84.8856 563.379C85.539 563.095 86.0297 563.005 86.8605 563.045C88.1234 563.457 89.0463 563.738 89.9692 564.02Z" fill="#ECE3D7"/>
<path d="M224.089 325.445C221.66 323.993 218.847 322.528 216.844 320.326C206.245 308.675 195.827 296.857 185.396 285.053C182.002 281.213 178.757 277.242 174.885 272.987C174.162 270.784 173.998 268.925 173.835 267.066C180.093 271.176 186.35 275.285 192.562 279.873C193.346 280.878 194.175 281.405 195.003 281.931C195.003 281.931 194.911 281.957 195.01 282.178C195.427 282.59 195.745 282.781 196.063 282.972C196.385 282.97 196.634 283.104 196.956 283.861C197.417 284.55 197.732 284.753 198.047 284.956C198.047 284.956 197.915 284.969 198.013 285.173C198.427 285.565 198.742 285.753 199.058 285.941C199.058 285.941 198.924 285.959 199.018 286.161C199.422 286.561 199.732 286.757 200.042 286.954C200.042 286.954 199.915 286.97 200.013 287.175C200.427 287.566 200.743 287.753 201.059 287.939C201.059 287.939 200.925 287.957 201.02 288.163C201.433 288.556 201.753 288.743 202.072 288.93C202.072 288.93 201.958 288.944 201.962 289.242C202.655 289.999 203.345 290.456 204.034 290.913C204.034 290.913 203.926 290.942 204.019 291.156C204.426 291.561 204.74 291.752 205.055 291.942C205.055 291.942 204.924 291.959 205.014 292.164C205.411 292.566 205.717 292.764 206.023 292.961C206.023 292.961 205.905 292.974 206.004 293.176C206.403 293.578 206.703 293.777 207.003 293.976C207.003 293.976 206.917 293.979 206.91 294.186C207.238 294.574 207.572 294.754 207.906 294.933C213.203 301.661 218.555 308.346 223.77 315.136C226.191 318.287 226.622 321.692 224.089 325.445Z" fill="#B72B1B"/>
<path d="M121.836 289.485C104.594 290.555 90.3004 282.323 83.8925 268.027C83.4308 266.997 83.2581 265.837 82.9175 264.361C85.2218 263 87.5596 262.016 90.2549 261.054C96.479 272.689 106.483 277.032 119.365 277.567C120.508 279.99 121.171 282.008 121.833 284.026C121.847 285.707 121.861 287.387 121.836 289.485Z" fill="#384F85"/>
<path d="M143.816 534.051C144.334 534.268 144.852 534.484 145.544 535.307C146.051 541.382 146.384 546.85 146.73 552.526C149.247 554.095 151.901 556.475 155.005 557.537C162.395 560.064 169.942 562.189 177.524 564.081C199.098 569.464 220.73 569.499 242.355 564.242C246.129 563.324 247.676 559.273 244.81 556.647C240.089 552.319 234.908 548.495 229.944 544.431C228.209 543.01 226.544 541.505 224.997 539.866C225.147 539.695 225.418 539.328 225.418 539.328C232.157 544.291 239.116 548.994 245.502 554.375C247.442 556.01 247.803 559.519 248.527 562.709C246.327 564.3 244.606 565.755 242.628 566.338C229.913 570.084 216.848 571.41 203.68 570.485C187.745 569.367 172.18 566.119 157.133 560.622C157.133 560.622 157.009 560.75 156.844 560.471C154.425 559.433 152.171 558.675 149.917 557.916C149.917 557.916 149.878 558 149.788 557.671C148.169 556.368 146.639 555.395 145.11 554.421C144.494 547.922 143.878 541.422 143.38 534.531C143.498 534.139 143.816 534.051 143.816 534.051Z" fill="#12110F"/>
<path d="M173.536 266.86C173.998 268.925 174.161 270.784 174.574 272.86C174.754 274.534 174.686 275.991 174.618 277.448C174.269 277.561 173.92 277.675 173.571 277.788C173.005 276.618 172.291 275.496 171.895 274.271C167.067 259.314 158.032 248.921 141.883 245.81C137.031 244.875 132.373 242.981 127.551 241.842C120.229 240.113 117.784 241.277 113.146 248.061C116.677 256.208 126.888 252.573 132.225 258.74C131.042 259.263 130.103 260.081 129.491 259.884C125.108 258.473 120.685 257.099 116.477 255.252C107.768 251.427 109.63 245.999 115.707 240.987C118.633 238.574 124.219 237.901 128.227 238.595C136.17 239.972 143.912 242.665 151.627 245.153C158.628 247.41 162.943 253.119 167.099 258.689C169.193 261.494 171.026 262.671 174.519 261.352C178.987 259.664 183.643 258.477 188.612 257.112C183.464 259.539 177.921 261.928 172.067 264.453C172.244 264.785 172.74 265.719 173.536 266.86Z" fill="#7F3D14"/>
<path d="M30.8616 498.046C36.759 501.411 42.9611 502.679 49.6902 501.068C53.2569 500.214 56.4136 499.005 57.0433 494.859C58.0481 488.24 58.94 481.604 60.2433 474.502C61.3514 474.009 62.0959 473.988 62.8404 473.967C61.6933 481.595 60.6231 489.236 59.3697 496.847C58.6467 501.237 55.0833 502.257 51.4055 502.997C44.2447 504.438 37.3691 503.636 30.2043 499.636C29.6876 504.93 29.3769 509.541 28.7184 514.101C28.4805 515.749 27.4082 517.275 26.3611 518.925C26.2848 516.364 26.6241 513.74 26.8337 511.106C28.1109 495.049 29.3588 478.99 30.5132 462.537C32.7877 466.414 38.1358 466.171 41.1144 469.806C38.6988 468.992 36.2831 468.179 32.7393 466.985C31.1611 477.151 28.1793 486.905 30.6313 497.689C30.6521 498.106 30.7569 498.076 30.8616 498.046Z" fill="#43450F"/>
<path d="M86.5208 562.914C86.0299 563.005 85.5391 563.095 84.5247 563.511C58.899 573.614 32.9347 573.516 6.7229 570.584C5.16315 570.038 3.60345 569.492 1.69397 568.893C0.884522 568.127 0.424866 567.414 0 566.383C2.76825 566.88 5.45801 568.173 8.24249 568.426C19.4602 569.448 30.6979 570.547 41.947 570.809C48.0436 570.951 54.2802 569.925 60.2693 568.595C67.6699 566.952 74.8311 564.26 82.1857 562.373C88.1929 560.831 89.2246 555.768 90.4315 551.111C91.2739 547.861 90.844 544.28 90.9611 540.412C90.9396 539.977 90.9045 539.501 90.8685 539.266C90.8325 539.03 90.8425 539.02 91.1512 539.038C91.947 538.728 92.4341 538.4 92.9706 537.878C93.02 537.684 93.1235 537.298 93.1235 537.298C93.1235 537.298 93.5582 537.251 93.9346 537.209C94.311 537.166 94.6194 537.062 94.6194 537.062C93.3256 544.614 92.0318 552.167 90.3672 560.249C88.8379 561.49 87.6793 562.202 86.5208 562.914Z" fill="#12110F"/>
<path d="M210.332 526.961C209.044 522.143 207.964 517.17 207.15 512.154C206.235 506.512 205.522 500.837 204.792 495.167C203.733 486.957 202.958 478.703 201.644 470.536C200.611 464.109 198.679 457.827 197.641 451.4C196.697 445.552 196.421 439.597 195.895 433.29C197.505 440.346 199.345 447.757 200.586 455.267C204.234 477.339 207.672 499.446 211.091 521.555C211.351 523.237 210.821 525.04 210.332 526.961Z" fill="#43450F"/>
<path d="M177.043 10.9766C176.652 11.3917 175.948 11.8918 175.446 11.7369C169.878 10.0161 164.415 7.88223 158.764 6.52433C155.724 5.79394 152.371 6.44982 149.169 6.28838C146.758 6.16682 144.095 6.31812 142.004 5.352C131.451 0.475152 121.308 0.884881 110.976 6.1809C108.157 7.62595 104.339 8.26559 101.223 7.7627C93.518 6.51907 86.9384 9.4553 79.8789 11.8868C85.7614 6.46084 93.0216 5.20597 100.898 5.49603C104.03 5.61132 107.432 5.12214 110.318 3.94459C121.742 -0.717108 132.983 -1.93812 144.317 4.10018C145.351 4.65118 146.821 4.81832 147.991 4.61219C158.452 2.76983 168.071 4.6853 177.043 10.9766Z" fill="#12110F"/>
<path d="M119.28 431.902C120.29 431.449 121.873 429.979 123.035 430.258C124.46 430.601 126.367 432.249 126.624 433.606C128.577 443.902 130.072 454.283 131.919 464.601C133.358 472.635 135.357 480.573 136.638 488.628C138.291 499.027 139.455 509.503 140.878 519.94C141.408 523.829 142.075 527.7 142.484 531.924C140.827 525.418 139.151 518.606 137.944 511.712C134.474 491.891 131.183 472.039 127.846 452.195C126.919 446.683 125.883 441.179 125.264 435.631C124.845 431.872 123.11 430.762 119.28 431.902Z" fill="#43450F"/>
<path d="M39.8699 443.907C39.5976 442.8 39.3254 441.693 38.9363 440.258C39.4319 430.359 40.8154 420.762 40.4913 411.223C39.8759 393.114 38.2827 375.039 37.1929 356.497C37.2902 356.044 37.738 356.015 37.738 356.015C37.9147 356.023 38.0913 356.032 38.6925 356.43C39.2641 360.933 39.4553 365.044 39.5388 369.158C39.5782 371.098 39.2612 373.051 39.3664 374.984C39.6323 379.871 40.0804 384.747 40.3776 389.632C40.4561 390.922 40.0855 392.245 40.2062 393.526C40.8069 399.902 40.7993 406.456 42.4261 412.569C43.4189 416.299 42.8007 419.269 42.2852 422.723C41.2559 429.619 40.8819 436.614 40.2207 443.566C40.209 443.69 39.9914 443.794 39.8699 443.907Z" fill="#80230D"/>
<path d="M37.5354 355.69C37.7381 356.015 37.2903 356.044 37.066 356.045C35.8018 354.842 33.904 353.677 33.8497 352.432C32.9403 331.549 34.5463 311.034 44.9245 292.273C47.2061 288.148 50.6722 284.678 53.8487 280.732C53.6027 281.948 53.4397 283.628 52.5433 284.685C47.4658 290.675 44.4494 297.712 41.6838 304.928C38.3899 313.522 36.8731 322.391 36.7566 331.586C36.6769 337.872 36.021 344.151 35.89 350.439C35.856 352.07 36.8247 353.723 37.5354 355.69Z" fill="#A71810"/>
<path d="M157.165 560.992C172.18 566.12 187.745 569.367 203.679 570.486C216.848 571.41 229.913 570.084 242.628 566.338C244.606 565.755 246.327 564.3 248.493 563.105C249.022 563.855 249.226 564.748 249.225 565.832C239.454 568.131 229.927 570.441 220.303 572.232C217.023 572.843 213.334 571.432 210.121 572.182C200.535 574.422 191.43 571.297 182.381 569.695C173.77 568.17 164.49 567.394 157.165 560.992Z" fill="#F4F0E9"/>
<path d="M232.989 137.271C233.23 135.503 233.283 133.285 234.267 131.615C238.45 124.509 238.393 116.97 237.126 109.231C237.005 108.496 236.382 107.552 236.652 107.09C241.705 98.4318 240.716 89.6209 237.551 80.701C237.419 80.3288 237.8 79.7744 238.164 79.02C243.728 87.1884 244.501 95.8706 239.964 104.966C239.225 106.448 238.798 108.46 239.126 110.04C241.186 119.977 239.672 129.037 232.989 137.271Z" fill="#12110F"/>
<path d="M21.1064 78.0127C21.1404 80.8377 20.6945 83.923 20.7951 86.9904C20.9367 91.3023 21.5262 95.5979 21.8358 99.9068C21.9525 101.53 22.282 103.348 21.7306 104.775C18.1969 113.916 19.4068 122.866 22.2289 132.19C15.4424 124.365 15.5841 115.476 19.1429 106.085C19.8541 104.209 20.0668 101.785 19.5566 99.8671C17.5869 92.4633 17.2675 85.2769 21.1064 78.0127Z" fill="#12110F"/>
<path d="M94.8711 536.791C94.6192 537.062 94.3109 537.166 94.1504 537.174C95.2842 531.29 96.5519 525.391 97.8782 519.506C100.568 507.57 103.28 495.64 106.03 483.717C106.159 483.155 106.738 482.695 107.48 482.111C107.852 482.034 107.865 482.045 107.922 482.242C108.075 482.715 108.253 482.915 108.516 483.041C104.901 498.93 101.328 514.828 97.6205 530.696C97.1473 532.721 95.9727 534.582 94.8711 536.791Z" fill="#43450F"/>
<path d="M107.845 482.027C108.315 477.591 108.498 473.106 109.33 468.745C111.359 458.126 113.632 447.551 115.956 436.992C116.319 435.341 117.466 433.862 118.596 432.18C115.597 448.457 112.252 464.857 108.596 481.646C108.284 482.036 107.865 482.045 107.865 482.045C107.865 482.045 107.852 482.034 107.845 482.027Z" fill="#43450F"/>
<path d="M185.189 386.004C185.198 383.587 186.068 381.093 185.736 378.772C184.435 369.678 182.689 360.648 181.277 351.568C181.039 350.033 181.632 348.368 181.858 346.364C181.874 345.966 182.337 346.017 182.621 346.36C183.218 346.837 183.531 346.97 183.844 347.104C183.844 347.104 183.849 347.033 183.814 347.029C184.623 353.455 185.424 359.892 186.324 366.314C187.056 371.54 188.015 376.736 188.608 381.976C188.725 383.012 187.632 384.184 186.914 385.613C186.321 385.957 185.909 385.981 185.189 386.004Z" fill="#A71810"/>
<path d="M27.3428 155.046C27.5031 155.963 27.7435 157.421 27.1411 157.995C20.8349 164.005 21.7981 172.171 21.1644 179.587C20.8606 183.143 23.3884 186.94 24.4823 191.022C16.3053 179.89 17.3523 165.844 27.3428 155.046Z" fill="#80230D"/>
<path d="M238.122 78.2964C233.782 78.4677 231.979 74.7614 232.187 71.6596C232.706 63.8771 230.44 57.0889 227.086 50.0547C232.443 55.1716 235.314 61.7714 234.719 69.3285C234.426 73.0522 235.463 75.617 238.122 78.2964Z" fill="#12110F"/>
<path d="M235.25 199.107C236.187 195.38 238.316 191.586 238.525 187.689C238.79 182.736 237.5 177.699 236.919 172.286C242.519 180.516 242.027 190.281 235.25 199.107Z" fill="#80230D"/>
<path d="M215.508 231.136C215.815 228.685 216.007 225.863 217.058 223.409C218.99 218.9 221.428 214.609 223.957 210.168C221.433 217.049 218.607 223.99 215.508 231.136Z" fill="#80230D"/>
<path d="M195.99 432.603C195.224 431.02 194.039 429.148 193.733 427.141C192.994 422.295 192.665 417.386 192.451 412.29C193.81 418.802 194.891 425.527 195.99 432.603Z" fill="#43450F"/>
<path d="M199.864 21.2469C198.945 21.5485 197.685 21.9516 196.563 21.7103C192.168 20.7652 187.763 19.7892 183.482 18.4411C182.156 18.0232 181.211 16.3898 180.214 14.958C183.703 15.6364 187.091 16.6059 190.431 17.7216C193.51 18.7503 196.536 19.9359 199.864 21.2469Z" fill="#12110F"/>
<path d="M54.8428 201.453C55.8096 202.274 57.1895 203.372 57.6533 204.773C59.2614 209.629 60.5833 214.582 61.9246 219.522C62.1111 220.209 61.7961 221.032 61.4573 222.02C59.0794 215.455 56.9575 208.662 54.8428 201.453Z" fill="#80230D"/>
<path d="M228.225 137.6C228.987 137.845 229.749 138.486 230.452 139.079C230.864 138.63 231.352 138.098 232.1 137.728C231.524 143.017 230.689 148.144 229.591 153.602C229.328 153.933 228.982 153.856 228.982 153.856C228.729 148.57 228.476 143.283 228.225 137.6Z" fill="#12110F"/>
<path d="M30.9641 55.1377C32.6967 59.3581 29.7553 70.0266 26.0078 71.9347C28.6637 69.8779 28.501 66.7023 28.8824 63.5981C29.2211 60.8419 30.1448 58.1576 30.9641 55.1377Z" fill="#12110F"/>
<path d="M22.417 132.996C22.6592 132.823 23.4376 132.889 23.4774 133.097C24.5956 138.935 25.6392 144.787 26.5618 151.025C22.1788 146.004 22.5952 139.61 22.417 132.996Z" fill="#12110F"/>
<path d="M201.759 532.967C203.544 531.969 205.328 530.971 207.665 530.204C208.835 529.993 209.454 529.553 210.073 529.112C211.918 530.523 213.762 531.934 215.745 533.673C215.882 534.002 215.828 534.058 215.387 534.059C210.55 533.695 206.155 533.331 201.759 532.967Z" fill="#12110F"/>
<path d="M228.796 154.247C228.982 153.856 229.328 153.933 229.505 153.949C229.688 154.791 229.871 155.663 229.67 156.436C228.41 161.3 227.736 165.848 233.938 168.011C234.763 168.298 235.299 169.415 236.093 170.475C227.104 165.853 226.222 163.979 228.796 154.247Z" fill="#80230D"/>
<path d="M63.5571 226.694C68.2678 227.584 68.7439 232.191 70.5613 236.036C68.1743 233.291 65.9193 230.157 63.5571 226.694Z" fill="#80230D"/>
<path d="M83.79 248.741C88.2258 247.096 90.2001 250.788 92.8188 253.67C89.9092 252.333 86.957 250.658 83.79 248.741Z" fill="#80230D"/>
<path d="M70.5586 236.763C73.1468 238.906 75.8785 241.343 78.4659 244.14C75.7818 242.019 73.2419 239.539 70.5586 236.763Z" fill="#80230D"/>
<path d="M81.4593 264.153C78.3318 265.798 74.8331 267.409 71.0024 268.958C74.1431 267.303 77.6156 265.711 81.4593 264.153Z" fill="#A71810"/>
<path d="M29.7852 196.977C33.2394 194.629 35.3729 197.295 37.7507 199.747C35.2203 199.113 32.6229 198.148 29.7852 196.977Z" fill="#80230D"/>
<path d="M68.8574 269.69C69.2804 274.513 64.9682 273.652 61.8145 274.654C63.8102 272.943 66.192 271.397 68.8574 269.69Z" fill="#A71810"/>
<path d="M145.042 554.863C146.639 555.395 148.168 556.368 149.83 557.653C148.764 558.838 147.566 559.711 146.096 560.809C145.541 559.125 145.257 557.215 145.042 554.863Z" fill="#F4F0E9"/>
<path d="M47.3566 39.4402C44.8729 41.1703 42.0131 42.9895 38.7715 44.6628C41.2532 42.8543 44.1168 41.1918 47.3566 39.4402Z" fill="#12110F"/>
<path d="M207.077 26.3877C204.859 25.2107 202.481 23.7422 200.205 21.9128C202.51 23.0667 204.713 24.5814 207.077 26.3877Z" fill="#12110F"/>
<path d="M209.677 240.223C210.768 238.005 212.117 235.601 213.836 233.242C212.783 235.538 211.358 237.788 209.677 240.223Z" fill="#80230D"/>
<path d="M93.079 254.356C95.2701 256.649 93.7307 258.395 91.2446 260.005C91.7156 258.243 92.4865 256.47 93.079 254.356Z" fill="#80230D"/>
<path d="M78.5986 244.761C80.9532 244.326 83.2464 244.542 83.5929 248.092C81.9242 247.295 80.3504 246.16 78.5986 244.761Z" fill="#80230D"/>
<path d="M215.909 533.974C217.478 534.77 219.019 535.594 220.712 536.72C220.862 537.023 220.822 537.065 220.445 537.058C218.655 536.054 217.242 535.056 215.828 534.058C215.828 534.058 215.882 534.002 215.909 533.974Z" fill="#12110F"/>
<path d="M209.75 30.6961C208.9 29.8035 207.95 28.5976 207.101 27.0156C208.017 27.8873 208.834 29.1351 209.75 30.6961Z" fill="#12110F"/>
<path d="M86.8604 563.045C87.679 562.203 88.8375 561.49 90.3112 560.634C90.5758 561.483 90.5253 562.476 90.2219 563.744C89.0461 563.738 88.1232 563.457 86.8604 563.045Z" fill="#F4F0E9"/>
<path d="M206.36 244.187C206.915 242.989 207.756 241.65 208.976 240.477C208.451 241.777 207.549 242.911 206.36 244.187Z" fill="#80230D"/>
<path d="M61.036 274.696C60.2888 275.656 59.2676 276.758 57.8462 277.73C58.5514 276.678 59.6567 275.758 61.036 274.696Z" fill="#A71810"/>
<path d="M212.665 34.6684C211.773 33.8907 210.85 32.7884 209.902 31.3577C210.796 32.1341 211.716 33.239 212.665 34.6684Z" fill="#12110F"/>
<path d="M220.883 537.002C222.227 537.65 223.552 538.319 225.147 539.158C225.418 539.328 225.147 539.695 224.65 539.839C223.042 539.01 221.932 538.037 220.822 537.064C220.822 537.064 220.862 537.023 220.883 537.002Z" fill="#12110F"/>
<path d="M199.286 251.009C197.516 248.212 199.627 248.299 201.837 248.258C201.332 249.206 200.455 250.053 199.286 251.009Z" fill="#80230D"/>
<path d="M33.079 50.8987C32.8594 51.9882 32.4459 53.3056 31.6636 54.4352C31.8249 53.2072 32.355 52.1669 33.079 50.8987Z" fill="#12110F"/>
<path d="M78.1805 12.689C77.6748 13.6499 76.8752 14.775 75.6992 15.9C76.1774 14.8843 77.032 13.8688 78.1805 12.689Z" fill="#12110F"/>
<path d="M61.4419 222.729C62.1523 223.552 62.9705 224.672 63.5961 226.05C62.7855 225.214 62.1675 224.12 61.4419 222.729Z" fill="#80230D"/>
<path d="M210.039 528.936C209.454 529.553 208.835 529.994 208.014 530.14C208.28 529.332 208.75 528.819 209.466 528.204C209.808 528.322 209.905 528.541 210.039 528.936Z" fill="#34332D"/>
<path d="M35.2502 47.825C35.0284 48.6736 34.5579 49.6886 33.7075 50.5635C33.8856 49.6127 34.4436 48.802 35.2502 47.825Z" fill="#12110F"/>
<path d="M24.4951 191.854C25.1755 192.203 25.9997 192.81 26.783 193.813C26.0411 193.509 25.34 192.811 24.4951 191.854Z" fill="#80230D"/>
<path d="M194.881 281.663C194.174 281.405 193.345 280.878 192.722 280.168C193.538 280.455 194.148 280.925 194.881 281.663Z" fill="#A71810"/>
<path d="M56.0816 278.676C55.9052 279.256 55.4945 279.963 54.7256 280.484C54.8607 279.8 55.3541 279.301 56.0816 278.676Z" fill="#A71810"/>
<path d="M53.2412 200.796C53.2433 200.334 53.5834 199.88 53.9235 199.426C54.1818 199.775 54.4401 200.125 54.7729 200.753C54.4248 200.956 54.002 200.879 53.2412 200.796Z" fill="#80230D"/>
<path d="M179.215 13.0841C178.664 12.9342 177.974 12.5835 177.488 11.8899C178.153 11.9924 178.615 12.4379 179.215 13.0841Z" fill="#12110F"/>
<path d="M203.916 290.637C203.345 290.456 202.655 289.999 201.977 289.187C202.591 289.342 203.195 289.852 203.916 290.637Z" fill="#A71810"/>
<path d="M203.451 247.34C203.624 246.746 204.082 246.024 204.895 245.288C204.746 245.919 204.241 246.565 203.451 247.34Z" fill="#80230D"/>
<path d="M26.4893 151.722C27.1165 151.784 27.8673 152.135 28.7673 152.788C28.7452 153.164 28.574 153.238 28.1274 153.354C27.4388 152.934 27.0258 152.473 26.4893 151.722Z" fill="#12110F"/>
<path d="M222.843 48.0269C222.863 47.8575 222.883 47.6882 222.894 47.2635C223.534 47.0597 224.184 47.1113 225.008 47.4512C224.669 47.822 224.154 47.9048 223.245 48.0103C222.852 48.0331 222.843 48.0269 222.843 48.0269Z" fill="#12110F"/>
<path d="M143.803 533.714C143.816 534.051 143.498 534.14 143.337 534.103C142.98 533.76 142.784 533.455 142.448 532.916C142.802 532.914 143.296 533.146 143.803 533.714Z" fill="#43450F"/>
<path d="M23.4532 73.9771C23.5031 74.451 23.276 75.0561 22.6971 75.6997C22.6223 75.1949 22.8992 74.6515 23.4532 73.9771Z" fill="#12110F"/>
<path d="M22.2306 75.821C22.294 76.2861 22.1409 76.9243 21.6216 77.5161C21.5083 76.9778 21.7612 76.486 22.2306 75.821Z" fill="#12110F"/>
<path d="M207.834 294.691C207.572 294.754 207.238 294.574 206.922 294.145C207.214 294.08 207.488 294.265 207.834 294.691Z" fill="#A71810"/>
<path d="M189.234 257.163C189.397 256.854 189.872 256.484 190.673 256.127C190.516 256.46 190.031 256.781 189.234 257.163Z" fill="#7F3D14"/>
<path d="M214.375 233.173C214.285 232.69 214.457 232.049 214.993 231.365C215.116 231.887 214.877 232.451 214.375 233.173Z" fill="#80230D"/>
<path d="M191.226 256.152C191.415 255.855 191.915 255.499 192.75 255.187C192.569 255.517 192.053 255.805 191.226 256.152Z" fill="#7F3D14"/>
<path d="M27.8115 195.395C28.2813 195.374 28.876 195.617 29.4339 196.212C28.9103 196.263 28.4233 195.961 27.8115 195.395Z" fill="#80230D"/>
<path d="M193.249 255.238C193.216 255.063 193.404 254.834 193.712 254.76C193.832 254.915 193.469 255.186 193.249 255.238Z" fill="#7F3D14"/>
<path d="M202.359 248.328C202.261 248.063 202.437 247.701 202.935 247.314C203.049 247.603 202.841 247.917 202.359 248.328Z" fill="#80230D"/>
<path d="M205.353 245.3C205.24 245.047 205.399 244.683 205.864 244.245C205.988 244.51 205.806 244.85 205.353 245.3Z" fill="#80230D"/>
<path d="M79.4065 11.7791C79.4543 12.0172 79.2344 12.3502 78.6955 12.6801C78.6307 12.4093 78.8848 12.1416 79.4065 11.7791Z" fill="#12110F"/>
<path d="M26.7661 194.361C26.978 194.291 27.2964 194.481 27.7051 194.943C27.4877 195.016 27.1802 194.818 26.7661 194.361Z" fill="#80230D"/>
<path d="M180.246 14.3922C179.983 14.4589 179.628 14.3108 179.382 13.8546C179.785 13.6798 180.006 13.8901 180.246 14.3922Z" fill="#12110F"/>
<path d="M227.15 49.5002C226.91 49.5862 226.55 49.4114 226.145 48.9209C226.409 48.8165 226.72 49.028 227.15 49.5002Z" fill="#12110F"/>
<path d="M206.904 293.72C206.703 293.777 206.403 293.578 206.01 293.117C206.214 293.059 206.51 293.262 206.904 293.72Z" fill="#A71810"/>
<path d="M226.147 48.5061C225.908 48.5982 225.546 48.4276 225.12 47.946C225.379 47.8377 225.701 48.0406 226.147 48.5061Z" fill="#12110F"/>
<path d="M205.927 292.702C205.717 292.764 205.41 292.566 205.021 292.098C205.236 292.033 205.534 292.238 205.927 292.702Z" fill="#A71810"/>
<path d="M204.949 291.685C204.74 291.752 204.426 291.561 204.022 291.101C204.237 291.029 204.541 291.228 204.949 291.685Z" fill="#A71810"/>
<path d="M201.966 288.672C201.752 288.743 201.433 288.556 201.027 288.096C201.247 288.02 201.554 288.217 201.966 288.672Z" fill="#A71810"/>
<path d="M36.0863 46.6909C36.2122 46.9149 36.1295 47.2932 35.7282 47.7177C35.5657 47.4578 35.7216 47.1514 36.0863 46.6909Z" fill="#12110F"/>
<path d="M37.1159 45.6401C37.2078 45.8875 37.0925 46.258 36.6506 46.5713C36.4417 46.2036 36.6367 45.9534 37.1159 45.6401Z" fill="#12110F"/>
<path d="M38.1925 44.6453C38.2765 44.8983 38.1309 45.268 37.6568 45.5968C37.5398 45.2913 37.7514 45.0266 38.1925 44.6453Z" fill="#12110F"/>
<path d="M200.954 287.682C200.743 287.753 200.427 287.566 200.02 287.111C200.235 287.037 200.542 287.231 200.954 287.682Z" fill="#A71810"/>
<path d="M199.937 286.697C199.732 286.757 199.422 286.561 199.025 286.094C199.236 286.03 199.534 286.235 199.937 286.697Z" fill="#A71810"/>
<path d="M198.954 285.683C198.742 285.753 198.427 285.565 198.021 285.107C198.237 285.034 198.543 285.23 198.954 285.683Z" fill="#A71810"/>
<path d="M25.4788 71.8933C25.5524 72.1117 25.3652 72.4417 24.8963 72.8585C24.8156 72.6318 25.0168 72.3184 25.4788 71.8933Z" fill="#12110F"/>
<path d="M197.939 284.694C197.732 284.753 197.417 284.55 197.008 284.074C197.219 284.012 197.526 284.222 197.939 284.694Z" fill="#A71810"/>
<path d="M236.965 171.686C236.723 171.746 236.413 171.527 236.08 171.006C236.337 170.939 236.617 171.173 236.965 171.686Z" fill="#80230D"/>
<path d="M70.5173 268.873C70.5183 269.102 70.2742 269.377 69.7518 269.546C69.6404 269.114 69.9066 268.94 70.5173 268.873Z" fill="#A71810"/>
<path d="M24.4976 72.9109C24.5698 73.1292 24.3833 73.4576 23.9164 73.8682C23.8369 73.6405 24.0379 73.3308 24.4976 72.9109Z" fill="#12110F"/>
<path d="M195.946 282.718C195.745 282.781 195.426 282.59 195.011 282.13C195.219 282.062 195.524 282.263 195.946 282.718Z" fill="#A71810"/>
<path d="M57.2535 277.689C57.3418 277.947 57.1831 278.305 56.7036 278.642C56.5906 278.344 56.7985 278.066 57.2535 277.689Z" fill="#A71810"/>
<path d="M107.922 482.242C107.865 482.045 108.284 482.036 108.493 482.026C108.729 482.197 108.756 482.378 108.649 482.8C108.253 482.915 108.075 482.715 107.922 482.242Z" fill="#62631A"/>
<path d="M94.4413 153.086C97.765 149.742 100.559 145.32 104.561 143.357C108.618 141.367 113.868 141.806 119.32 141.421C123.598 143.179 127.151 144.696 130.705 146.213C130.705 146.213 130.828 146.066 130.86 146.356C131.297 146.945 131.702 147.243 132.106 147.542C132.106 147.542 132.245 147.644 132.447 147.918C133.029 148.527 133.41 148.861 133.791 149.195C133.803 149.516 133.937 149.774 134.505 150.305C135.091 150.871 135.365 151.101 135.638 151.331C135.638 151.331 135.607 151.221 135.622 151.467C135.637 151.713 135.899 152.033 135.899 152.033C140.476 158.213 140.482 165.136 138.825 172.823C137.778 174.776 137.097 176.175 136.415 177.574C136.415 177.574 136.424 177.658 136.184 177.875C135.122 179.292 134.301 180.492 133.479 181.693C133.479 181.693 133.564 181.805 133.319 181.834C132.881 182.176 132.688 182.488 132.495 182.801C132.495 182.801 132.666 182.829 132.371 182.837C131.875 183.146 131.675 183.448 131.474 183.75C131.474 183.75 131.545 183.648 131.181 183.778C121.622 191.009 111.961 190.908 101.974 185.778C101.974 185.778 101.949 185.895 101.856 185.627C101.24 185.095 100.717 184.831 100.194 184.567C100.194 184.567 100.09 184.675 100.059 184.42C99.6992 184.01 99.3696 183.855 99.0399 183.699C99.0399 183.699 98.9975 183.87 98.9822 183.591C98.6468 183.121 98.3266 182.931 98.0064 182.74C98.0064 182.74 97.9751 182.904 97.9518 182.628C97.6153 182.154 97.3021 181.957 96.9889 181.759C96.9889 181.759 96.9731 181.924 96.9631 181.637C96.6594 181.133 96.3657 180.915 96.072 180.697C96.072 180.697 96.0627 180.869 96.0327 180.52C94.9733 178.752 93.9439 177.332 92.8979 175.611C92.5859 174.818 92.2903 174.326 91.9948 173.834C91.9948 173.834 91.9732 173.968 91.964 173.544C89.718 166.061 90.8027 159.415 94.4413 153.086ZM123.256 154.048C123.256 154.048 123.322 153.974 123.052 153.23C118.97 150.721 114.711 150.356 110.274 152.182C104.384 154.605 100.832 161.109 101.89 167.525C102.851 173.355 108.473 178.131 114.869 178.552C120.757 178.94 126.964 174.563 128.833 168.706C130.729 162.763 128.687 157.298 123.256 154.048Z" fill="#F4F0E9"/>
<path d="M173.422 160.093C177.329 156.59 180.723 151.779 185.3 149.985C189.192 148.459 194.447 150.41 199.783 151.019C202.119 152.297 203.771 153.377 205.423 154.458C205.423 154.458 205.565 154.416 205.595 154.636C205.952 155.035 206.28 155.213 206.608 155.391C206.608 155.391 206.631 155.229 206.629 155.543C206.954 156.037 207.28 156.216 207.606 156.396C207.606 156.396 207.621 156.227 207.614 156.55C207.922 157.041 208.236 157.209 208.55 157.376C208.55 157.376 208.371 157.497 208.546 157.884C214.782 167.433 214.569 176.528 208.423 185.558C208.423 185.558 208.428 185.655 208.193 185.768C207.484 186.541 207.012 187.201 206.539 187.86C206.539 187.86 206.714 187.896 206.419 187.892C205.927 188.208 205.729 188.528 205.531 188.848C205.531 188.848 205.716 188.84 205.373 188.843C204.243 189.537 203.456 190.227 202.669 190.918C202.669 190.918 202.786 190.947 202.504 190.968C201.999 191.254 201.775 191.519 201.551 191.784C201.551 191.784 201.698 191.77 201.271 191.769C195.365 194.461 189.76 194.87 184.012 192.701C184.012 192.701 183.961 192.832 183.859 192.56C183.154 192.106 182.551 191.923 181.947 191.741C181.947 191.741 181.926 191.885 181.812 191.59C181.078 191.198 180.458 191.101 179.838 191.005C177.223 187.884 174.609 184.763 171.821 180.93C169.046 174.117 169.606 168.095 172.105 162.123C172.105 162.123 171.966 162.101 172.256 161.993C172.838 161.288 173.13 160.69 173.422 160.093ZM198.488 179.063C198.641 178.731 198.793 178.399 198.869 178.065C198.869 178.065 198.902 178.135 199.503 177.637C201.81 172.397 201.984 167.387 197.746 162.3C197.169 161.863 196.591 161.426 195.648 160.471C194.904 160.125 194.161 159.78 193.062 159.456C193.062 159.456 192.991 159.805 192.701 159.09C188.882 157.503 185.177 157.438 181.789 159.943C181.789 159.943 181.784 159.812 181.205 159.991C180.722 160.33 180.239 160.67 179.161 161.145C178.366 162.253 177.571 163.361 176.145 165.025C174.109 170.051 173.567 174.933 177.445 179.31C177.445 179.31 177.413 179.423 177.575 179.792C177.575 179.792 177.912 180.012 178.174 180.688C184.475 185.519 190.715 183.868 197.51 180.218C197.718 179.848 197.926 179.478 197.937 179.123C197.937 179.123 197.989 179.313 198.488 179.063Z" fill="#F4F0E9"/>
<path d="M123.852 210.033C138.066 207.876 154.364 204.782 168.151 212.474C169.916 213.459 171.921 215.46 172.852 218.033C169.923 220.476 166.22 224.186 163.289 224.882C148.524 228.387 132.728 224.653 123.852 210.033Z" fill="#96481B"/>
<path d="M125.473 210.898C134.693 225.677 148.525 228.388 163.289 224.882C166.22 224.186 168.638 221.332 171.562 219.281C177.34 220.845 178.686 224.48 174.734 228.416C172.621 230.52 169.538 232.134 166.617 232.863C149.8 237.058 134.329 235.273 121.939 221.621C121.052 220.644 119.97 219.631 119.603 218.442C118.97 216.393 117.822 213.276 118.728 212.279C119.949 210.936 122.913 211.178 125.473 210.898Z" fill="#733510"/>
<path d="M123.111 127.919C116.359 125.622 109.537 125.907 102.731 127.537C99.6379 128.278 96.5322 128.926 95.0963 125.242C93.7197 121.711 96.1041 119.535 98.8935 118.065C110.591 111.896 122.651 110.929 134.885 116.277C138.417 117.821 140.874 120.733 140.309 124.929C139.513 130.834 135.077 130.397 130.332 129.96C129.89 129.971 129.912 129.976 129.754 129.732C129.055 129.304 128.514 129.119 127.761 128.721C126.972 128.371 126.395 128.236 125.484 128.048C124.701 127.977 124.25 127.96 123.628 127.926C123.457 127.908 123.111 127.919 123.111 127.919Z" fill="#3A281C"/>
<path d="M215.124 127.835C215.111 130.35 215.631 133.271 214.414 134.602C213.366 135.748 209.938 135.9 208.25 135.079C200.071 131.099 191.825 129.353 182.785 131.661C181.14 132.08 178.159 131.021 177.273 129.673C176.233 128.09 176.096 125.167 176.823 123.319C178.624 118.734 183.047 117.395 187.431 117.218C197.961 116.791 207.448 119.584 215.124 127.835Z" fill="#3A281C"/>
<path d="M125.818 128.101C126.395 128.236 126.972 128.371 127.581 128.912C128.379 129.537 129.146 129.756 129.913 129.976C129.913 129.976 129.89 129.971 129.898 129.953C132.062 130.91 134.217 131.884 137.399 133.322C134.688 136.77 132.133 140.019 129.311 143.609C129.262 143.542 130.001 144.54 130.723 145.875C127.152 144.696 123.598 143.179 119.758 141.402C120.128 140.87 120.783 140.598 121.439 140.326C121.399 139.852 121.359 139.379 121.319 138.905C118.074 138.905 114.774 138.521 111.594 138.979C102.882 140.232 101.453 139.534 98.1011 130.817C105.74 126.652 114.083 128.446 122.618 127.959C123.112 127.919 123.457 127.908 123.768 128.164C124.659 128.314 125.238 128.208 125.818 128.101Z" fill="#8E4116"/>
<path d="M166.359 202.74C158.566 206.05 151.124 205.379 143.907 202.387C142.242 201.697 140.2 199.451 140.204 197.925C140.208 196.547 142.539 194.663 144.245 193.891C150.712 190.966 157.524 191.353 164.14 193.21C166.248 193.802 168.467 195.701 169.509 197.615C169.984 198.487 167.722 200.849 166.359 202.74Z" fill="#7F3D14"/>
<path d="M122.758 273.651C118.013 272.406 113.542 271.457 109.27 269.944C107.233 269.222 105.323 267.667 103.811 266.06C101.941 264.072 100.543 261.639 98.3315 258.545C100.33 258.545 101.655 258.333 102.886 258.582C108.07 259.633 113.197 260.987 118.403 261.895C121.249 262.391 124.211 262.219 127.339 262.358C125.995 263.971 124.346 265.95 121.926 268.854C125.702 268.53 127.986 268.334 130.27 268.137C130.375 268.537 130.48 268.937 130.585 269.336C128.094 270.796 125.603 272.256 122.758 273.651Z" fill="#7F3D14"/>
<path d="M102.014 186.086C111.961 190.908 121.622 191.009 131.12 183.764C131.246 184.533 131.363 185.691 130.842 186.322C125.292 193.039 108.022 193.036 102.014 186.086Z" fill="#7B3311"/>
<path d="M208.799 185.688C214.568 176.528 214.782 167.433 208.567 157.99C209.867 158.831 211.972 159.649 212.664 161.128C216.154 168.587 215.051 176.104 211.965 183.414C211.537 184.427 210.13 185.027 208.799 185.688Z" fill="#80230D"/>
<path d="M94.0599 153.168C90.8025 159.415 89.7178 166.062 92.0305 173.534C87.1055 169.72 89.6415 164.388 90.3104 159.525C90.6137 157.321 92.5068 155.335 94.0599 153.168Z" fill="#80230D"/>
<path d="M184.054 193.054C189.76 194.87 195.365 194.462 201.227 191.709C196.876 196.444 188.236 197.311 184.054 193.054Z" fill="#80230D"/>
<path d="M171.729 162.215C169.606 168.095 169.045 174.117 171.667 180.605C167.687 177.205 167.526 168.173 171.729 162.215Z" fill="#80230D"/>
<path d="M122.193 283.992C121.171 282.008 120.508 279.99 119.804 277.624C119.961 276.688 120.159 276.099 120.403 275.376C122.246 277.744 123.96 279.947 126.047 282.628C125.279 282.92 123.916 283.44 122.193 283.992Z" fill="#7F3D14"/>
<path d="M136.772 177.696C137.097 176.175 137.778 174.776 138.773 173.242C140.975 175.148 140.503 176.284 136.772 177.696Z" fill="#7B3311"/>
<path d="M205.537 154.098C203.771 153.377 202.119 152.297 200.166 151.061C203.063 149.255 204.488 151.229 205.537 154.098Z" fill="#80230D"/>
<path d="M92.9145 175.913C93.9439 177.332 94.9733 178.752 96.1115 180.485C94.8127 179.752 93.4051 178.705 92.1914 177.193C92.6337 176.504 92.8101 176.232 92.9145 175.913Z" fill="#7B3311"/>
<path d="M133.868 181.777C134.301 180.492 135.122 179.292 136.196 177.915C135.718 179.113 134.987 180.487 133.868 181.777Z" fill="#7B3311"/>
<path d="M227.703 130.163C227.969 130.982 228.226 132.226 228.234 133.685C227.887 132.796 227.791 131.692 227.703 130.163Z" fill="#12110F"/>
<path d="M203.026 190.946C203.456 190.227 204.243 189.537 205.335 188.759C204.889 189.439 204.136 190.206 203.026 190.946Z" fill="#80230D"/>
<path d="M206.881 187.827C207.012 187.201 207.484 186.542 208.241 185.77C208.091 186.369 207.656 187.081 206.881 187.827Z" fill="#80230D"/>
<path d="M92.898 175.611C92.8101 176.232 92.6337 176.504 92.1731 176.848C91.9365 176.184 91.9123 175.402 91.9415 174.227C92.2904 174.326 92.586 174.818 92.898 175.611Z" fill="#80230D"/>
<path d="M133.779 148.857C133.41 148.861 133.029 148.527 132.503 147.984C132.828 148.023 133.297 148.271 133.779 148.857Z" fill="#8E4116"/>
<path d="M132.227 147.227C131.701 147.244 131.297 146.945 130.785 146.416C131.235 146.427 131.791 146.669 132.227 147.227Z" fill="#8E4116"/>
<path d="M173.068 160.2C173.13 160.69 172.838 161.288 172.265 162.063C172.228 161.596 172.471 160.952 173.068 160.2Z" fill="#80230D"/>
<path d="M182.056 192.073C182.551 191.923 183.154 192.106 183.929 192.553C183.455 192.681 182.81 192.543 182.056 192.073Z" fill="#80230D"/>
<path d="M180.011 191.283C180.458 191.101 181.078 191.198 181.883 191.575C181.44 191.758 180.812 191.66 180.011 191.283Z" fill="#80230D"/>
<path d="M100.212 184.914C100.716 184.831 101.24 185.095 101.914 185.614C101.453 185.666 100.842 185.463 100.212 184.914Z" fill="#7B3311"/>
<path d="M132.108 280.676C131.858 280.661 131.722 280.529 131.586 280.396C131.798 280.45 132.01 280.504 132.108 280.676Z" fill="#7F3D14"/>
<path d="M206.582 155.079C206.28 155.213 205.952 155.035 205.554 154.574C205.841 154.451 206.198 154.609 206.582 155.079Z" fill="#80230D"/>
<path d="M97.3003 257.567C97.336 257.626 97.2647 257.509 97.3003 257.567Z" fill="#7F3D14"/>
<path d="M99.0967 184.002C99.3694 183.855 99.6991 184.011 100.134 184.421C99.8774 184.552 99.5155 184.429 99.0967 184.002Z" fill="#7B3311"/>
<path d="M201.846 191.772C201.774 191.519 201.998 191.255 202.502 190.909C202.568 191.138 202.355 191.449 201.846 191.772Z" fill="#80230D"/>
<path d="M135.591 151.043C135.365 151.101 135.091 150.871 134.714 150.383C134.922 150.335 135.233 150.545 135.591 151.043Z" fill="#8E4116"/>
<path d="M136.061 151.918C135.899 152.033 135.637 151.713 135.587 151.512C135.765 151.476 135.994 151.64 136.061 151.918Z" fill="#8E4116"/>
<path d="M205.835 188.802C205.729 188.528 205.926 188.208 206.407 187.803C206.506 188.065 206.323 188.411 205.835 188.802Z" fill="#80230D"/>
<path d="M183.92 346.764C183.531 346.97 183.218 346.837 182.853 346.375C183.199 346.173 183.597 346.299 183.92 346.764Z" fill="white"/>
<path d="M208.546 157.066C208.235 157.209 207.922 157.041 207.538 156.588C207.827 156.453 208.184 156.604 208.546 157.066Z" fill="#80230D"/>
<path d="M97.0586 182.049C97.3018 181.957 97.615 182.154 98.0343 182.616C97.8032 182.7 97.4659 182.52 97.0586 182.049Z" fill="#7B3311"/>
<path d="M132.803 182.766C132.688 182.488 132.881 182.176 133.341 181.767C133.442 182.024 133.277 182.378 132.803 182.766Z" fill="#7B3311"/>
<path d="M207.582 156.083C207.28 156.216 206.954 156.037 206.554 155.577C206.84 155.454 207.199 155.612 207.582 156.083Z" fill="#80230D"/>
<path d="M98.0693 183.036C98.3262 182.931 98.6464 183.121 99.069 183.578C98.8251 183.674 98.4789 183.503 98.0693 183.036Z" fill="#7B3311"/>
<path d="M131.786 183.736C131.675 183.448 131.875 183.147 132.342 182.755C132.438 183.018 132.268 183.37 131.786 183.736Z" fill="#7B3311"/>
<path d="M96.1064 180.999C96.3657 180.915 96.6594 181.133 97.0442 181.62C96.8038 181.693 96.4723 181.496 96.1064 180.999Z" fill="#7B3311"/>
<path d="M222.855 48.0376C222.775 48.0824 222.692 48.1226 222.726 48.095C222.843 48.027 222.852 48.0332 222.855 48.0376Z" fill="#12110F"/>
<path d="M39.8568 444.356C39.9917 443.794 40.2093 443.69 40.221 443.566C40.8822 436.614 41.2562 429.62 42.2855 422.723C42.801 419.269 43.4192 416.3 42.4264 412.569C40.7996 406.456 40.8073 399.902 40.2065 393.526C40.0858 392.245 40.4564 390.922 40.3779 389.632C40.0807 384.747 39.6326 379.871 39.3667 374.984C39.2615 373.051 39.5786 371.099 39.5391 369.158C39.4556 365.044 39.2644 360.933 38.958 356.439C51.8292 356.057 64.8596 356.057 78.1838 356.057C78.9344 366.683 79.7349 378.015 80.7032 390.142C81.2048 393.966 81.5385 396.994 81.8722 400.023C81.7669 410.192 82.8597 420 87.2963 429.486C89.5384 434.279 90.2969 440.003 90.6724 445.38C91.2977 454.335 87.1279 456.828 78.857 452.389C78.857 456.777 78.9271 460.86 78.8414 464.939C78.6946 471.926 75.6542 473.855 69.0268 471.948C67.3924 471.477 65.213 472.9 63.0623 473.71C62.096 473.988 61.3514 474.009 60.2348 474.039C55.8274 471.981 50.9904 470.72 47.9257 467.674C41.7867 461.574 40.3401 453.22 39.8568 444.356Z" fill="#984A1C"/>
<path d="M220.445 537.058C221.932 538.038 223.042 539.011 224.5 540.011C226.544 541.505 228.209 543.01 229.944 544.431C234.908 548.496 240.089 552.32 244.81 556.647C247.676 559.273 246.129 563.325 242.355 564.242C220.73 569.499 199.098 569.464 177.524 564.081C169.942 562.189 162.395 560.064 155.005 557.537C151.901 556.475 149.247 554.095 146.73 552.527C146.384 546.85 146.051 541.382 145.726 535.538C152.77 535.773 159.851 537.197 166.831 536.808C177.625 536.207 188.351 534.366 199.648 533.274C200.74 533.322 201.289 533.147 201.837 532.971C201.837 532.971 201.798 533.01 201.779 532.989C206.155 533.331 210.55 533.695 215.387 534.059C217.242 535.056 218.655 536.054 220.445 537.058Z" fill="#34332D"/>
<path d="M82.1587 399.741C81.5382 396.994 81.2045 393.966 80.8652 390.529C99.7661 390.76 118.67 391.503 137.581 391.97C142.701 392.096 147.841 391.389 153.409 391.089C153.041 391.749 152.24 392.931 151.43 392.938C136.279 393.068 121.127 393.061 105.976 393.076C98.5895 393.084 91.2029 393.078 83.2415 393.078C83.04 394.692 82.7427 397.076 82.1587 399.741Z" fill="#61641A"/>
<path d="M156.143 391.341C164.585 389.712 173.309 388.369 182.441 387.033C179.197 388.198 175.616 389.809 171.873 390.407C166.788 391.219 161.58 391.258 156.143 391.341Z" fill="#61641A"/>
<path d="M201.516 532.951C201.289 533.147 200.74 533.322 200.055 533.277C200.344 533.014 200.769 532.973 201.516 532.951Z" fill="#12110F"/>
<path d="M92.9211 538.071C92.434 538.4 91.9469 538.728 91.1502 539.031C91.0632 538.74 91.2856 538.474 91.9866 538.129C92.4652 538.05 92.9211 538.071 92.9211 538.071Z" fill="#35352E"/>
<path d="M92.9705 537.878C92.9212 538.071 92.4652 538.05 92.2394 538.041C92.1098 537.7 92.3173 537.468 92.8798 537.317C93.1234 537.298 93.0199 537.684 92.9705 537.878Z" fill="#43450F"/>
<path d="M149.954 558.29C152.171 558.675 154.425 559.433 156.929 560.442C154.783 560.016 152.387 559.34 149.954 558.29Z" fill="#F4F0E9"/>
<path d="M6.40217 570.74C32.9348 573.516 58.8991 573.614 84.3623 563.704C83.6372 564.695 82.7367 566.472 81.4362 566.842C67.5763 570.785 53.5921 574.308 39.0373 573.989C28.209 573.752 17.39 573.081 6.57106 572.52C6.38026 572.51 6.24336 571.461 6.40217 570.74Z" fill="#F4F0E9"/>
<path d="M30.8567 498.039C30.757 498.076 30.6522 498.106 30.6932 498.08C30.839 498.024 30.8517 498.033 30.8567 498.039Z" fill="#62631A"/>
<path d="M123.325 153.966C128.687 157.298 130.73 162.763 128.833 168.706C126.964 174.563 120.757 178.94 114.869 178.552C108.473 178.131 102.851 173.355 101.89 167.525C100.832 161.109 104.384 154.605 110.274 152.182C114.711 150.356 118.97 150.721 122.733 153.611C120.769 153.866 119.122 153.746 117.477 153.613C111.283 153.112 107.432 156.102 104.223 161.273C101.572 165.544 104.194 168.223 105.885 171.197C108.929 176.553 117.089 178.393 121.701 174.496C126.762 170.219 129.393 163.39 125.469 158.066C124.565 156.839 124.03 155.34 123.325 153.966Z" fill="#12110F"/>
<path d="M196.938 180.51C190.715 183.868 184.475 185.519 178.204 180.223C177.96 179.646 177.687 179.534 177.413 179.423C177.413 179.423 177.445 179.31 177.567 178.932C177.385 173.86 177.081 169.164 176.776 164.469C177.571 163.361 178.366 162.253 179.784 161.038C180.865 160.557 181.325 160.185 181.784 159.812C181.784 159.812 181.789 159.943 182.199 159.983C186.07 159.95 189.531 159.877 192.991 159.805C192.991 159.805 193.062 159.456 193.17 159.826C194.19 160.46 195.102 160.724 196.014 160.989C196.591 161.426 197.169 161.863 197.794 162.975C198.195 168.479 198.549 173.307 198.902 178.135C198.902 178.135 198.869 178.066 198.633 178.16C198.261 178.607 198.125 178.96 197.989 179.314C197.989 179.314 197.937 179.123 197.724 179.231C197.32 179.729 197.129 180.12 196.938 180.51Z" fill="#32322F"/>
<path d="M199.202 177.886C198.548 173.307 198.195 168.478 197.875 163.242C201.984 167.387 201.81 172.397 199.202 177.886Z" fill="#12110F"/>
<path d="M176.461 164.747C177.081 169.164 177.385 173.859 177.616 178.964C173.567 174.932 174.11 170.051 176.461 164.747Z" fill="#12110F"/>
<path d="M192.846 159.447C189.53 159.877 186.07 159.95 182.135 159.968C185.177 157.439 188.882 157.503 192.846 159.447Z" fill="#12110F"/>
<path d="M195.831 160.73C195.102 160.724 194.19 160.46 193.348 159.814C194.161 159.78 194.904 160.125 195.831 160.73Z" fill="#12110F"/>
<path d="M181.495 159.901C181.324 160.185 180.865 160.557 180.081 160.97C180.239 160.67 180.722 160.33 181.495 159.901Z" fill="#12110F"/>
<path d="M177.494 179.607C177.687 179.534 177.96 179.646 178.073 179.885C177.912 180.013 177.575 179.792 177.494 179.607Z" fill="#12110F"/>
<path d="M197.224 180.364C197.129 180.12 197.32 179.729 197.822 179.224C197.926 179.478 197.718 179.848 197.224 180.364Z" fill="#12110F"/>
<path d="M198.238 179.188C198.125 178.96 198.261 178.607 198.671 178.16C198.793 178.399 198.641 178.731 198.238 179.188Z" fill="#12110F"/>
<path d="M129.754 129.732C129.146 129.756 128.379 129.537 127.792 129.127C128.514 129.12 129.055 129.304 129.754 129.732Z" fill="#96481B"/>
<path d="M125.484 128.048C125.238 128.208 124.659 128.314 123.94 128.182C124.25 127.961 124.701 127.977 125.484 128.048Z" fill="#96481B"/>
<path d="M123.29 154.007C124.03 155.34 124.565 156.839 125.469 158.066C129.393 163.39 126.762 170.219 121.701 174.496C117.089 178.393 108.929 176.553 105.884 171.197C104.194 168.223 101.572 165.544 104.223 161.273C107.432 156.102 111.283 153.112 117.477 153.613C119.122 153.746 120.769 153.866 122.868 153.983C123.322 153.974 123.256 154.048 123.29 154.007Z" fill="#32322F"/>
</svg>
