<svg viewBox="0 0 246 583" fill="none" xmlns="http://www.w3.org/2000/svg">
<path d="M224.605 212.676C224.594 213.004 224.442 213.242 223.586 213.555C221.582 218.036 220.14 222.352 218.699 226.668C218.699 226.668 218.677 226.533 218.388 226.609C216.289 230.338 214.479 233.991 212.67 237.645C212.67 237.645 212.638 237.525 212.41 237.622C212.047 238.084 211.912 238.449 211.777 238.815C211.777 238.815 211.777 238.609 211.502 238.67C210.727 239.722 210.228 240.712 209.729 241.703C209.729 241.703 209.683 241.56 209.459 241.649C209.086 242.103 208.937 242.468 208.788 242.833C208.788 242.833 208.773 242.631 208.499 242.674C203.762 246.784 199.3 250.851 194.838 254.917C194.838 254.917 194.667 254.932 194.501 254.749C193.449 255.285 192.562 256.004 191.676 256.723C191.676 256.723 191.648 256.595 191.333 256.553C189.895 257.245 188.771 257.981 187.648 258.716C187.648 258.716 187.626 258.579 187.342 258.544C185.72 259.315 184.382 260.12 183.044 260.926C183.044 260.926 182.93 260.927 182.548 260.748C176.925 261.664 171.684 262.758 166.246 263.894C166.865 264.484 167.215 264.818 167.566 265.152C166.612 265.339 165.659 265.526 163.976 265.931C161.454 267.302 158.768 268.044 158.021 269.675C154.518 277.328 148.339 280.344 140.505 280.658C125.999 281.239 114.248 276.15 106.384 263.456C106.635 262.099 106.886 260.742 107.025 258.913C106.522 257.779 106.287 256.76 105.716 256.51C100.613 254.279 95.4656 252.144 90.2981 250.065C88.0137 249.145 85.652 248.418 83.3255 247.603C83.3255 247.603 83.4555 247.565 83.3614 247.34C82.9046 246.968 82.5418 246.821 82.179 246.675C82.179 246.675 82.3837 246.663 82.3248 246.394C81.2953 245.607 80.3249 245.089 79.3545 244.571C79.3545 244.571 79.4709 244.538 79.3877 244.318C78.9793 243.909 78.6539 243.719 78.3285 243.529C78.3285 243.529 78.4814 243.516 78.3897 243.307C77.9593 242.921 77.6205 242.744 77.2819 242.567C77.2819 242.567 77.4529 242.543 77.3682 242.335C76.9402 241.948 76.5969 241.768 76.2535 241.589C76.2535 241.589 76.4311 241.558 76.3591 241.353C75.9582 240.947 75.6292 240.747 75.3003 240.547C75.3003 240.547 75.4662 240.524 75.3763 240.322C74.9521 239.933 74.6176 239.746 74.2833 239.559C74.2833 239.559 74.4603 239.525 74.366 239.323C73.9293 238.923 73.5865 238.725 73.2438 238.527C72.9146 238.533 72.6841 238.386 72.5164 237.517C71.9986 236.568 71.5168 236.185 71.035 235.802C71.035 235.802 71.1821 235.677 71.2056 235.451C70.8777 235.034 70.5262 234.845 70.1747 234.655C70.1747 234.655 70.3211 234.623 70.3845 234.318C69.3853 232.865 68.3227 231.718 67.2602 230.571C67.2602 230.571 67.4033 230.55 67.4236 230.265C66.9855 229.561 66.5268 229.143 66.0682 228.724C66.0682 228.724 66.1863 228.635 66.3096 228.306C65.3837 226.525 64.3345 225.074 63.2853 223.623C63.2853 223.623 63.3898 223.562 63.4571 223.275C63.5812 222.024 63.9339 220.96 63.6474 220.111C61.728 214.422 59.4587 208.843 57.7259 203.1C56.2408 198.178 53.7068 197.467 49.5926 201.276C45.1003 200.668 40.6081 200.06 35.7017 198.906C32.6495 196.737 30.0113 195.114 27.3731 193.49C27.0221 193.49 26.7613 193.337 26.5323 192.453C25.782 191.082 25.0899 190.288 24.3979 189.494C24.3979 189.494 24.4931 189.497 24.4795 189.207C24.0752 188.456 23.6846 187.996 23.294 187.535C23.294 187.535 23.4291 187.522 23.471 187.16C23.2233 180.463 22.7536 174.13 22.733 167.795C22.7247 165.25 23.7027 162.701 24.2317 160.155C24.2317 160.155 24.1911 160.28 24.4795 160.232C25.0469 159.275 25.3257 158.365 25.6044 157.455C26.0715 156.756 26.5385 156.057 27.5353 155.095C28.8338 153.976 29.6022 153.121 30.7176 152.174C35.98 150.913 40.9465 148.622 45.7991 148.842C52.8986 149.164 58.0779 153.848 61.6238 161.32C63.1124 157.938 64.3708 155.779 65.0324 153.451C67.345 145.311 69.4179 137.103 71.6421 128.937C80.3117 97.1101 98.9571 82.9022 131.88 82.2714C149.112 81.9413 166.034 83.7468 182.738 87.7169C193.147 90.1907 203.032 93.8931 211.508 100.834C224.413 111.404 226.936 126.172 228.206 141.704C227.312 149.877 226.627 157.762 226.169 165.66C226.138 166.188 227.819 166.816 228.704 167.397C231.536 169.775 234.369 172.154 237.445 175.185C237.782 176.652 237.753 177.504 237.988 178.276C239.904 184.562 239.732 190.688 237.116 196.799C236.508 198.219 236.822 200.034 236.712 201.667C236.712 201.667 236.674 201.558 236.447 201.623C236.019 202.002 235.818 202.316 235.617 202.63C235.617 202.63 235.6 202.5 235.325 202.595C234.596 203.679 234.143 204.668 233.69 205.658C233.69 205.658 233.65 205.537 233.425 205.618C233.024 206.04 232.848 206.381 232.673 206.722C232.673 206.722 232.647 206.553 232.437 206.627C232.037 207.034 231.846 207.369 231.656 207.703C231.656 207.703 231.632 207.542 231.422 207.617C231.021 208.02 230.829 208.349 230.637 208.677C230.637 208.677 230.629 208.553 230.322 208.531C228.211 209.899 226.408 211.287 224.605 212.676ZM132.477 148.519C132.477 148.519 132.461 148.678 132.29 148.109C131.952 147.93 131.613 147.75 131.453 147.562C131.453 147.562 131.418 147.737 131.272 147.14C130.913 146.987 130.554 146.835 130.391 146.663C130.391 146.663 130.331 146.851 130.205 146.179C129.6 145.965 128.994 145.752 128.497 145.515C128.497 145.515 128.494 145.626 128.316 144.963C126.718 143.8 125.12 142.636 124.384 141.454C132.518 141.564 132.299 141.419 136.067 131.938C135.314 131.645 134.511 131.439 133.823 131.037C132.994 130.552 132.262 129.901 132.267 129.355C135.556 129.94 139.505 130.956 140.864 126.993C141.688 124.587 140.672 121.299 139.758 118.658C139.319 117.388 137.324 116.396 135.826 115.794C123.601 110.886 111.471 110.906 99.8578 117.48C97.9161 118.58 95.5126 121.811 95.9225 123.375C96.4426 125.361 99.6182 126.651 101.195 128.862C99.2201 129.684 95.7032 130.28 98.2396 133.176C101.108 136.451 105.075 138.765 108.189 142.024C106.983 142.886 105.776 143.747 104.575 144.503C104.575 144.503 104.678 144.527 104.159 144.48C104.002 144.839 103.846 145.198 103.346 146.127C101.207 147.928 99.0679 149.728 96.2311 151.653C90.5765 153.98 91.3135 159.459 90.7016 163.903C90.1557 167.867 89.6524 172.39 93.636 175.396C93.636 175.396 93.6509 175.283 93.5735 176.053C94.6291 177.497 95.6847 178.941 96.6259 180.38C96.6259 180.38 96.6635 180.272 96.5687 181.056C97.3736 181.597 98.1786 182.138 99.206 182.814C99.206 182.814 99.3587 183.024 98.899 183.582C99.8597 184.097 100.82 184.613 101.751 185.246C101.751 185.246 101.693 185.139 101.815 185.734C102.167 185.866 102.519 185.997 103.031 185.939C103.031 185.939 103.271 186.004 102.869 186.529C102.888 186.841 102.799 187.358 102.943 187.434C110.483 191.445 118.391 191.628 126.207 188.786C128.329 188.015 129.725 185.247 131.737 182.802C133.474 180.673 135.21 178.544 137.657 176.174C137.866 175.517 138.075 174.859 138.301 174.343C138.301 174.343 138.17 174.288 138.941 174.048C142.382 167.55 141.1 157.566 136.436 153.519C136.436 153.519 136.411 153.649 136.467 152.938C135.733 152.148 134.998 151.358 134.435 150.53C134.435 150.53 134.432 150.705 134.295 150.13C133.973 149.929 133.651 149.727 133.479 149.507C133.479 149.507 133.47 149.659 133.301 149.099C132.973 148.91 132.646 148.722 132.477 148.519ZM206.471 157.515C206.471 157.515 206.409 157.608 206.433 156.934C205.971 156.702 205.509 156.471 204.9 156.095C204.9 156.095 204.76 155.944 205.025 155.331C204.477 155.081 203.93 154.83 203.472 154.531C203.472 154.531 203.451 154.631 203.265 154.101C202.94 153.943 202.615 153.785 202.426 153.608C202.426 153.608 202.326 153.701 202.395 153.017C201.921 152.051 201.447 151.086 200.97 150.114C208.974 146.513 211.311 143 210.368 137.377C212.374 135.992 215.759 134.831 216.03 133.165C216.358 131.148 214.62 127.936 212.786 126.573C203.971 120.025 194.053 117.605 183.191 120.355C177.907 121.693 175.162 125.244 176.028 129.397C176.89 133.529 179.129 134.174 185.596 133.296C189.198 132.807 192.939 133.35 195.71 133.445C190.393 134.113 185.076 134.781 179.574 135.473C179.803 137.033 179.83 137.685 180 138.297C181.254 142.807 182.536 147.309 183.598 151.77C183.598 151.77 183.813 151.765 183.152 151.603C182.639 151.941 182.126 152.279 181.597 152.52C181.597 152.52 181.694 152.532 181.175 152.712C180.985 153.014 180.795 153.315 180.249 154.175C173.395 159.087 170.289 165.711 170.58 174.175C170.828 181.388 182.592 194.265 188.152 195.056C191.475 195.529 195.541 195.226 198.391 193.663C204.527 190.296 209.178 185.139 211.762 178.588C214.335 174.448 214.524 170.42 211.337 166.496C211.337 166.496 211.356 166.649 211.483 165.895C211.051 165.121 210.619 164.348 210.342 163.541C210.342 163.541 210.31 163.696 210.47 162.945C209.395 161.488 208.319 160.031 207.408 158.587C207.408 158.587 207.34 158.736 207.257 158.174C206.959 157.965 206.661 157.756 206.471 157.515ZM119.537 213.042C120.228 215.026 120.444 217.395 121.687 218.933C131.011 230.468 143.318 235.192 157.862 233.21C162.101 232.633 166.365 230.484 170.004 228.114C171.458 227.167 172.321 223.234 171.576 221.44C170.223 218.182 167.32 220.201 165.256 221.336C152.024 228.607 135.436 224.356 127.572 211.741C126.715 210.367 124.782 208.599 123.593 208.766C122.117 208.973 120.896 211.003 119.537 213.042ZM150.449 192.453C147.203 193.909 143.823 195.146 140.815 196.991C140.145 197.402 140.132 200.621 140.932 201.4C144.832 205.195 160.95 206.765 165.847 204.188C169.551 202.239 169.88 198.929 166.858 196.194C162.323 192.09 156.833 192.359 150.449 192.453ZM124.843 268.042C135.157 269.748 145.447 270.931 155.507 267.218C149.025 266.446 142.555 266.3 136.12 265.75C129.951 265.222 123.818 264.273 117.669 263.509C117.646 263.754 117.622 263.999 117.598 264.244C119.773 265.393 121.948 266.542 124.843 268.042Z" fill="#96481B"/>
<path d="M57.6107 405.465C57.5946 405.29 57.5785 405.115 57.9468 404.693C58.7296 404.427 59.1278 404.408 59.9556 404.421C62.7974 404.074 65.5041 404.268 67.5664 403.208C73.5792 400.118 76.62 393.083 83.4879 390.878C84.5052 390.551 85.014 388.799 85.8881 387.823C86.7111 386.903 87.7056 386.137 89.0146 385.396C90.0342 385.703 90.6479 386.024 91.2948 386.118C116.896 389.81 142.601 390.706 168.33 388.074C174.814 387.411 181.117 384.974 187.843 383.523C188.973 386.48 190.004 389.224 190.5 392.061C191.525 397.918 192.265 403.824 193.122 409.709C192.975 410.727 192.828 411.744 192.238 413.224C191.473 414.679 190.755 415.73 190.889 416.658C192.363 426.903 194.135 437.108 195.495 447.367C197.043 459.053 198.13 470.799 199.659 482.487C200.624 489.861 202.094 497.167 203.225 504.521C204.347 511.811 205.33 519.123 206.374 526.426C206.162 526.889 205.951 527.351 205.424 528.171C204.818 528.818 204.527 529.106 203.866 529.405C190.138 534.024 176.381 536.51 162.265 536.316C156.372 536.235 150.494 535.047 144.367 534.108C143.667 533.751 143.208 533.648 142.75 533.545C142.75 533.545 142.656 533.539 142.567 533.178C141.242 526.087 139.934 519.368 138.805 512.619C138.313 509.682 138.114 506.688 137.913 503.712C137.638 499.614 137.608 495.495 137.172 491.417C137.094 490.691 135.548 490.123 134.68 489.482C133.278 478.306 131.877 467.13 130.744 455.284C131.008 450.334 132.211 445.559 130.711 441.889C128.522 436.533 130.415 434.211 134.521 431.875C135.979 431.046 137.132 429.683 138.425 428.563C138.181 428.318 137.937 428.073 137.694 427.828C132.661 430.435 127.629 433.042 122.596 435.649C122.596 435.649 122.597 435.517 122.278 435.563C121.181 438.603 120.403 441.598 119.625 444.593C119.625 444.593 119.606 444.47 119.353 444.658C116.275 454.852 113.318 464.824 110.674 474.877C109.138 480.718 108.231 486.722 106.806 492.595C105.36 498.55 103.663 504.445 102.002 510.346C100.652 515.141 99.0636 519.873 97.8241 524.695C96.9101 528.251 96.3883 531.908 95.6916 535.52C95.2653 536.138 94.8387 536.756 94.0011 537.361C93.2126 537.356 92.8356 537.364 92.2274 537.391C91.9965 537.41 91.5334 537.448 91.0657 537.43C80.2156 536.762 69.6982 536.92 59.4928 535.213C50.9806 533.789 42.8341 530.179 34.3123 527.494C34.0987 527.451 33.6652 527.409 33.6652 527.409C33.6652 527.409 33.49 527.054 33.5122 526.416C33.7454 521 33.7433 516.201 34.2227 511.449C34.7893 505.833 35.8689 500.27 36.5497 494.662C37.4392 487.336 37.9191 479.954 39.0054 472.661C40.4137 463.206 42.2712 453.818 43.8408 444.385C43.9517 443.719 43.283 442.924 42.9767 442.189C42.9767 442.189 43.0553 442.112 43.4351 442.181C45.7195 441.316 47.6241 440.38 49.9407 439.447C57.1998 441.756 64.0984 443.928 70.8455 446.498C72.016 446.944 73.2528 449.074 73.2501 450.424C73.2379 456.592 63.2401 466.515 57.0032 466.342C53.0121 466.232 49.0494 465.088 44.1195 464.244C54.416 471.58 62.9873 468.516 71.8961 461.52C71.4762 464.987 71.4468 467.492 70.837 469.848C68.8584 477.491 66.4652 485.03 64.6138 492.701C62.6794 500.715 57.6881 503.492 49.8444 500.633C47.4051 499.745 44.7811 499.362 42.2416 498.748C42.1234 499.202 42.0052 499.656 41.8871 500.109C43.9755 500.799 46.0242 501.661 48.1586 502.149C61.469 505.191 63.7942 504.623 67.8011 491.369C71.4562 479.279 73.4064 466.623 75.4243 454.106C76.7163 446.092 76.1589 446.005 68.5793 442.94C67.9637 442.691 67.4021 442.284 66.7717 442.1C61.4069 440.535 56.0319 439.004 50.6921 437.099C53.4911 426.748 56.2714 416.765 58.9548 406.756C59.0323 406.466 58.0819 405.901 57.6107 405.465Z" fill="#62641A"/>
<path d="M228.47 141.42C226.936 126.172 224.413 111.404 211.508 100.834C203.033 93.8931 193.147 90.1908 182.739 87.7169C166.034 83.7469 149.113 81.9413 131.88 82.2715C98.9573 82.9023 80.3119 97.1101 71.6423 128.937C69.4181 137.103 67.3452 145.311 65.0326 153.451C64.371 155.779 63.1126 157.939 61.624 161.32C58.0781 153.848 52.8988 149.165 45.7993 148.842C40.9467 148.622 35.9802 150.913 30.4815 151.927C28.7416 150.452 26.7898 149.255 26.5597 147.789C25.262 139.517 23.8342 131.351 19.7399 123.87C19.11 122.719 19.1759 121.082 19.2288 119.682C19.3994 115.157 19.7141 110.636 19.9735 106.114C19.9735 106.114 20.0011 106.031 20.336 106.029C20.9149 105.432 21.1591 104.838 21.4031 104.244C21.4031 104.244 21.4314 104.412 21.6972 104.22C21.9981 102.113 22.4552 100.09 21.9968 98.3012C19.7324 89.464 20.7763 81.3601 26.4357 73.9802C27.2772 72.8827 27.4895 71.3026 27.9929 69.9458C27.9929 69.9458 28.0947 69.9507 28.4607 70.0291C31.8316 68.6333 33.1539 66.9141 29.6447 64.4913C29.7068 62.2001 29.7689 59.9089 30.4856 57.4463C32.4978 54.2083 33.8557 51.1418 35.2136 48.0754C35.2136 48.0754 35.2907 48.2285 35.5203 48.1719C35.933 47.7609 36.116 47.4066 36.2988 47.0523C36.2988 47.0523 36.3657 47.2503 36.5842 47.3312C39.7717 45.9495 42.6491 44.2442 45.731 43.0804C50.4964 41.2809 54.7728 34.3065 53.9129 29.1522C53.9129 29.1522 53.997 29.0555 54.3794 29.1194C58.7407 25.757 62.7195 22.3308 66.6984 18.9046C66.6984 18.9046 67.0939 18.7506 67.6427 19.0195C70.113 19.0013 72.111 18.9471 73.9313 18.3509C75.3147 17.8979 76.4722 16.7555 77.7302 15.9199C77.7302 15.9199 77.8748 15.7742 78.2542 15.8457C78.8967 15.3664 79.1602 14.8156 79.4236 14.2648C79.4236 14.2648 79.4472 14.3787 79.6704 14.2956C80.08 13.8882 80.2662 13.5638 80.4524 13.2395C80.4524 13.2395 80.4691 13.3783 80.6799 13.2982C81.0845 12.9006 81.2781 12.5831 81.4717 12.2656C81.4717 12.2656 81.4813 12.3726 81.777 12.3784C82.339 11.8882 82.6054 11.3923 82.8717 10.8964C82.8717 10.8964 83.0193 10.8225 83.4022 10.9704C89.6539 9.90817 95.5298 8.73133 101.387 7.46873C103.277 7.0613 105.119 6.42831 106.983 5.89849C106.983 5.89849 107.093 5.90882 107.526 6.08485C109.686 5.83256 111.521 5.64804 113.121 4.9342C120.48 1.64927 127.846 0.161234 135.773 3.12678C140.343 4.83651 145.226 7.14237 149.866 6.9313C159.06 6.5131 167.432 7.66079 175.074 13.0086C178.166 15.1724 181.246 18.1191 184.716 18.8269C193.363 20.5909 201.116 23.6105 207.592 29.7249C208.402 30.4889 209.858 30.5675 211.015 30.9636C211.015 30.9636 211.012 31.1105 210.948 31.3612C211.191 31.8496 211.5 32.0874 211.808 32.3251C211.808 32.3251 211.677 32.3461 211.629 32.7082C211.95 35.6535 212.045 38.3202 212.797 40.7866C213.209 42.1392 214.73 43.1539 215.751 44.321C215.751 44.321 215.624 44.3463 215.696 44.6329C220.711 49.3381 225.645 53.7683 230.631 58.1389C230.863 58.3428 231.563 58.0138 232.045 57.933C232.045 57.933 232.104 58.0606 231.909 58.3709C231.576 59.2962 231.175 59.9962 231.342 60.5132C232.941 65.4721 235.397 70.1899 233.887 75.8003C233.618 76.7989 235.938 78.4947 237.063 79.8686C237.063 79.8686 237.047 79.9688 236.897 80.4107C237.015 82.29 236.886 83.9773 237.612 85.1232C241.787 91.7113 239.722 98.3802 238.245 105.096C237.633 107.882 236.084 111.185 236.997 113.423C238.582 117.314 237.956 120.712 237.075 124.311C236.388 127.118 235.456 129.864 234.633 132.637C234.441 133.212 234.25 133.787 233.58 134.589C232.929 135.021 232.757 135.227 232.586 135.434C231.562 137.572 230.538 139.71 229.236 142.045C228.755 141.992 228.592 141.718 228.47 141.42Z" fill="#3F291B"/>
<path d="M187.503 383.352C181.117 384.974 174.814 387.411 168.33 388.074C142.601 390.706 116.896 389.81 91.295 386.118C90.6482 386.024 90.0344 385.703 89.0208 385.059C89.9445 382.263 91.2524 379.895 92.8993 377.313C93.6799 375.421 94.3378 373.765 94.5132 372.059C94.7816 369.448 94.4362 366.758 94.8514 364.182C95.7963 358.322 93.4874 354.48 87.7238 353.541C83.6876 352.883 79.5753 352.694 75.4128 352.16C75.0117 351.833 74.7651 351.918 74.1908 352.305C72.9972 352.296 72.2018 352.26 71.298 351.978C71.8795 348.063 72.3689 344.342 73.3053 340.737C74.7799 335.061 76.7134 329.501 78.1029 323.807C78.4982 322.187 77.6813 320.272 77.4629 318.5C77.5056 318.508 77.4714 318.588 77.4489 318.285C76.9298 317.614 76.4332 317.246 75.9368 316.878C75.8594 317.43 75.782 317.981 75.5405 318.837C67.8224 324.61 60.2683 330.077 52.3552 335.501C48.796 332.907 45.2875 330.658 42.4564 327.749C35.3442 320.442 28.5383 312.837 21.5713 305.064C21.1978 304.338 20.8624 303.9 20.5273 303.462C20.5332 303.013 20.5392 302.564 20.9353 301.737C23.4059 298.782 28.0426 298.485 27.9343 293.954C27.9343 293.954 28.056 293.932 28.4788 294.077C29.3912 294.241 29.9917 294.457 30.355 294.253C40.4714 288.553 50.5734 282.827 60.6224 277.01C60.9854 276.8 60.7899 275.625 60.8546 274.9C60.8546 274.9 61.0769 274.72 61.4668 275.007C64.5823 274.668 67.3611 274.212 70.0231 273.382C78.1942 270.833 86.3206 268.141 94.541 265.85C105.514 286.166 126.017 295.023 145.653 293.019C160.736 291.48 169.689 282.018 170.64 267.537C184.157 270.89 194.585 279.515 204.555 288.418C213.43 296.344 221.475 305.235 229.481 314.067C231.352 316.13 231.585 319.677 232.354 323.145C229.074 326.767 226.286 330.145 222.891 332.725C216.967 337.228 210.67 341.239 204.222 345.324C203.068 344.978 202.221 344.764 201.429 344.534C201.483 344.517 201.489 344.631 201.398 344.362C200.996 343.901 200.684 343.707 200.432 343.507C200.492 343.5 200.483 343.621 200.391 343.356C199.99 342.899 199.682 342.706 199.432 342.508C199.491 342.502 199.479 342.62 199.391 342.357C199 341.896 198.697 341.7 198.438 341.502C198.482 341.501 198.459 341.585 198.463 341.227C197.108 339.76 195.749 338.651 194.439 337.527C194.489 337.513 194.492 337.616 194.399 337.352C193.997 336.896 193.688 336.704 193.162 336.457C192.646 336.259 192.489 336.02 192.421 335.493C192.12 335.392 191.873 335.487 191.594 336.04C191.648 343.34 191.734 350.181 191.748 357.489C191.637 360.455 191.598 362.953 191.547 365.871C190.191 371.977 188.847 377.665 187.503 383.352Z" fill="#B72B1B"/>
<path d="M144.61 534.362C150.495 535.047 156.372 536.235 162.266 536.316C176.382 536.51 190.138 534.023 204.225 529.531C205.884 529.867 206.814 530.088 207.744 530.309C207.744 530.309 207.647 530.338 207.635 530.668C208.416 531.303 209.208 531.609 210 531.914C210 531.914 209.821 532.213 209.875 532.408C210.531 532.844 211.132 533.085 211.734 533.325C211.734 533.325 211.616 533.352 211.719 533.583C212.195 533.942 212.569 534.071 212.943 534.199C212.943 534.199 212.702 534.224 212.797 534.456C213.513 534.894 214.133 535.1 214.754 535.306C214.754 535.306 214.619 535.338 214.724 535.58C215.433 536.016 216.037 536.212 216.641 536.408C216.641 536.408 216.577 536.446 216.554 536.739C216.871 537.841 217.212 538.649 217.425 539.517C217.378 539.532 217.457 539.487 217.916 539.476C219.771 539.786 221.246 540.062 222.722 540.338C222.722 540.338 222.614 540.368 222.719 540.602C223.21 540.919 223.596 541.003 223.981 541.087C223.981 541.087 223.786 541.065 223.835 541.381C224.901 542.04 225.919 542.385 226.938 542.73C226.938 542.73 227.086 542.824 226.997 543.236C228.181 544.21 229.455 544.772 230.728 545.334C230.728 545.334 230.637 545.361 230.623 545.688C231.632 546.469 232.656 546.923 233.679 547.377C233.679 547.377 233.596 547.404 233.681 547.635C234.108 548.023 234.449 548.18 234.79 548.336C234.79 548.336 234.626 548.358 234.724 548.568C235.182 548.94 235.541 549.101 235.901 549.262C235.901 549.262 235.681 549.294 235.776 549.497C236.253 549.832 236.634 549.964 237.016 550.096C237.016 550.096 236.81 550.149 236.854 550.383C237.277 550.73 237.656 550.844 238.035 550.958C238.035 550.958 237.864 551.402 237.887 551.507C238.29 551.719 238.668 551.826 239.047 551.933C239.047 551.933 239.064 552.066 238.986 552.347C239.284 552.785 239.66 552.943 240.036 553.1C240.036 553.1 239.838 553.2 239.86 553.417C240.239 553.833 240.596 554.032 240.953 554.232C240.953 554.232 240.77 554.255 240.718 554.563C241.042 556.129 241.137 557.576 241.84 558.609C244.717 562.833 242.783 565.266 238.754 566.339C234.032 567.596 229.125 569.134 224.342 568.998C211.309 568.627 198.243 567.919 185.302 566.395C177.383 565.463 169.683 562.724 161.859 560.912C158.801 560.204 155.67 559.812 152.323 559.306C151.909 559.297 151.745 559.259 151.591 559.298C151.601 559.375 151.748 559.326 151.688 559.137C151.628 558.948 151.506 558.569 151.497 558.2C149.772 557.057 148.056 556.282 146.34 555.508C146.019 555.56 145.755 555.461 145.554 554.532C145.243 547.356 144.927 540.859 144.61 534.362Z" fill="#34332D"/>
<path d="M191.559 365.452C191.598 362.953 191.637 360.455 191.961 357.466C192.593 356.922 192.816 357.063 193.277 357.328C194.47 356.202 195.302 355.148 196.252 354.064C196.371 354.034 196.125 354.069 196.46 354.077C197.023 353.5 197.252 352.914 197.491 352.372C197.502 352.416 197.412 352.42 197.673 352.315C198.124 351.897 198.315 351.584 198.608 350.991C199.606 349.945 200.501 349.18 201.749 348.409C202.91 347.421 203.72 346.439 204.529 345.456C210.67 341.239 216.967 337.228 222.891 332.725C226.286 330.145 229.074 326.767 232.414 323.551C242.91 340.487 242.569 357.553 229.025 372.357C222.092 379.935 214.438 386.855 206.611 393.983C205.655 394.494 205.197 395.093 204.739 395.693C204.739 395.693 204.576 395.508 204.303 395.469C200.552 386.542 197.097 377.644 193.566 368.776C193.094 367.59 192.238 366.556 191.559 365.452Z" fill="#984A1C"/>
<path d="M170.282 267.409C169.689 282.018 160.736 291.48 145.653 293.019C126.016 295.023 105.514 286.166 94.5802 265.604C94.4993 264.683 94.4852 264.353 94.5006 264.021C98.1753 263.843 101.85 263.665 105.954 263.471C114.248 276.15 126 281.239 140.505 280.658C148.339 280.344 154.519 277.328 158.021 269.675C158.768 268.044 161.454 267.301 163.512 266.078C165.826 266.431 167.875 266.856 170.282 267.409Z" fill="#384F85"/>
<path d="M243.757 565.862C246.364 569.41 245.91 573.197 241.787 575.17C237.691 577.13 233.178 578.711 228.698 579.285C213.677 581.208 198.699 580.02 183.908 577.018C174.543 575.117 165.228 572.888 156.015 570.356C151.379 569.082 146.866 566.832 145.315 561.659C144.857 560.132 145.681 558.222 146.26 556.401C146.603 556.314 146.611 556.241 146.742 556.511C147.243 556.899 147.613 557.017 147.876 557.142C147.768 557.149 147.863 556.955 147.896 557.266C148.282 557.628 148.634 557.68 149.074 557.742C149.161 557.752 149.334 557.779 149.223 558.135C149.991 558.769 150.87 559.048 151.748 559.326C151.748 559.326 151.601 559.375 151.75 559.606C152.546 559.963 153.194 560.089 153.757 560.241C153.671 560.268 153.685 560.089 153.807 560.422C154.585 560.874 155.241 560.993 155.804 561.13C155.711 561.147 155.777 560.97 155.861 561.341C157.586 562.161 159.226 562.61 160.814 563.008C160.761 562.958 160.89 562.889 160.935 563.245C161.6 563.653 162.22 563.704 162.933 563.719C163.025 563.682 163.223 563.693 163.16 564.087C164.335 564.68 165.571 564.878 166.814 564.984C166.82 564.891 167.002 564.854 166.991 565.216C168.823 565.915 170.665 566.253 172.835 566.537C173.751 566.723 174.34 566.963 174.725 567.415C175.584 567.75 176.647 567.871 177.777 567.836C177.843 567.68 178.182 567.669 178.138 568.077C178.312 568.722 178.516 569.149 178.75 569.166C193.501 570.276 208.252 571.396 223.014 572.344C224.137 572.416 225.339 571.25 226.881 570.561C228.03 570.501 228.803 570.539 229.837 570.835C232.5 570.379 234.903 569.665 237.358 569.027C237.41 569.103 237.227 569.132 237.611 569.225C238.779 568.874 239.563 568.43 240.369 568.083C240.392 568.179 240.2 568.131 240.557 568.201C241.372 567.834 241.829 567.397 242.316 567.051C242.346 567.143 242.162 567.09 242.515 567.161C243.159 566.787 243.448 566.341 243.776 565.906C243.813 565.918 243.757 565.862 243.757 565.862Z" fill="#ECE3D7"/>
<path d="M89.4947 561.356C89.5163 568.738 86.1462 572.43 76.584 575.275C58.1883 580.747 39.4777 583.988 20.2127 582.389C13.7759 581.855 7.28214 580.906 2.42643 575.857C1.0496 574.426 -0.753504 572.896 2.53824 570.814C3.37064 570.577 3.58561 570.792 3.78019 571.471C4.52738 571.83 5.13151 571.888 5.80778 571.836C5.88004 571.727 6.14286 571.727 6.10831 572.125C9.56229 573.224 13.0257 574.106 16.5436 574.598C31.462 576.684 46.2305 575.12 60.9306 572.476C61.3661 572.398 61.6689 571.581 62.361 570.882C71.6239 567.556 80.5592 564.456 89.4947 561.356Z" fill="#ECE3D7"/>
<path d="M34.5261 527.537C42.8346 530.179 50.9811 533.789 59.4933 535.213C69.6987 536.92 80.2161 536.762 90.7754 537.729C88.1571 538.181 85.363 538.384 82.5664 538.436C75.7318 538.563 68.1801 536.65 64.3771 545.08C64.2526 545.356 63.9202 545.561 63.6478 545.744C58.3673 549.292 53.5164 552.982 46.318 549.112C41.6722 546.615 36.0419 545.688 30.7294 544.779C26.7158 544.092 24.9696 542.1 24.5327 538.103C24.5577 537.624 24.5768 537.433 24.5957 537.242C24.9808 536.921 25.3661 536.6 26.3657 536.455C34.9698 539.124 42.9386 541.687 50.9603 544.072C53.9606 544.964 56.6636 544.481 58.0848 541.477C50.4502 538.704 43.0435 536.144 35.7762 533.235C34.6915 532.801 34.2627 530.729 33.5305 529.414C33.5531 529.248 33.5758 529.082 33.844 528.57C34.3051 528.039 34.4506 527.81 34.5261 527.537Z" fill="#2E2D28"/>
<path d="M191.547 365.871C192.237 366.556 193.094 367.59 193.566 368.776C197.097 377.644 200.552 386.542 204.399 395.547C201.017 400.175 197.268 404.688 193.32 409.455C192.265 403.824 191.525 397.917 190.5 392.061C190.004 389.224 188.973 386.48 187.843 383.523C188.847 377.665 190.191 371.977 191.547 365.871Z" fill="#8E4116"/>
<path d="M89.5811 560.976C80.5592 564.456 71.6239 567.556 61.9683 570.931C59.4427 571.502 57.6444 571.855 55.8304 572.085C39.253 574.187 22.6829 574.93 6.14277 571.728C6.14277 571.728 5.87996 571.727 5.6075 571.629C4.76899 571.412 4.20283 571.291 3.63679 571.17C3.58552 570.792 3.37056 570.577 2.75056 570.562C-2.27373 566.223 0.692823 561.898 2.94832 557.401C3.30183 557.236 3.53035 557.438 3.53474 557.844C3.25215 559.539 2.6291 560.86 2.74519 562.113C3.02546 565.133 2.81965 568.807 6.60628 569.811C11.0553 570.99 15.6577 571.608 20.2108 572.366C21.3364 572.554 22.5314 572.391 23.689 572.309C31.5665 571.756 39.4492 571.26 47.3162 570.583C51.9245 570.186 56.5979 569.877 61.0802 568.834C68.2958 567.155 75.5539 565.35 82.4257 562.659C85.0111 561.646 86.7624 558.139 88.4785 555.498C88.9841 554.721 87.5753 552.881 87.8875 551.763C89.2409 546.919 90.9064 542.161 92.4585 537.372C92.8356 537.364 93.2127 537.356 93.7587 537.512C92.5076 545.317 91.0876 552.957 89.5811 560.976Z" fill="#12110F"/>
<path d="M174.929 567.202C174.34 566.963 173.75 566.723 172.487 566.422C170.209 565.858 168.605 565.356 167.001 564.854C167.001 564.854 166.82 564.891 166.592 564.737C165.317 564.286 164.27 563.989 163.223 563.693C163.223 563.693 163.025 563.682 162.718 563.558C161.903 563.252 161.397 563.071 160.89 562.889C160.89 562.889 160.761 562.958 160.56 562.773C158.832 562.049 157.304 561.51 155.777 560.971C155.777 560.971 155.711 561.147 155.591 560.901C154.875 560.466 154.281 560.278 153.685 560.089C153.685 560.089 153.671 560.268 153.607 560.015C153.219 559.6 152.896 559.438 152.573 559.276C155.67 559.812 158.801 560.204 161.859 560.912C169.683 562.724 177.383 565.463 185.302 566.395C198.243 567.919 211.309 568.627 224.342 568.998C229.125 569.134 234.032 567.596 238.754 566.339C242.783 565.266 244.717 562.833 241.84 558.609C241.137 557.576 241.042 556.129 240.753 554.478C243.359 557.416 247.409 560.278 244.023 565.6C243.757 565.862 243.813 565.918 243.582 566.067C242.955 566.508 242.558 566.799 242.161 567.09C242.161 567.09 242.346 567.143 242.03 567.162C241.209 567.498 240.705 567.815 240.2 568.131C240.2 568.131 240.392 568.179 240.042 568.185C238.87 568.504 238.049 568.818 237.227 569.133C237.227 569.133 237.41 569.104 236.974 569.114C234.217 569.609 231.896 570.093 229.576 570.577C228.803 570.539 228.03 570.501 226.553 570.519C225.419 570.653 224.989 570.73 224.274 570.729C223.637 570.79 223.284 570.929 222.507 571.008C207.45 569.855 192.816 568.762 178.182 567.669C178.182 567.669 177.843 567.68 177.592 567.601C176.536 567.415 175.732 567.308 174.929 567.202Z" fill="#12110F"/>
<path d="M206.546 525.993C205.33 519.123 204.348 511.811 203.225 504.521C202.094 497.167 200.624 489.861 199.659 482.487C198.13 470.799 197.044 459.053 195.495 447.367C194.135 437.108 192.363 426.903 190.889 416.658C190.755 415.73 191.473 414.679 192.134 413.597C194.18 425.794 195.905 438.075 197.587 450.362C199.441 463.902 201.387 477.43 203.046 490.993C204.452 502.493 205.507 514.036 206.546 525.993Z" fill="#43450F"/>
<path d="M95.998 535.353C96.3887 531.908 96.9105 528.251 97.8245 524.695C99.064 519.873 100.652 515.141 102.002 510.346C103.663 504.445 105.36 498.55 106.806 492.595C108.232 486.722 109.138 480.718 110.674 474.877C113.319 464.823 116.275 454.852 119.416 444.658C117.688 453.83 115.896 463.253 113.549 472.536C108.761 491.473 103.699 510.341 98.6769 529.218C98.1302 531.272 97.1064 533.199 95.998 535.353Z" fill="#43450F"/>
<path d="M210.862 30.6695C209.858 30.5673 208.402 30.4888 207.592 29.7248C201.116 23.6104 193.363 20.5908 184.716 18.8267C181.246 18.119 178.166 15.1723 175.074 13.0085C167.432 7.66067 159.06 6.51298 149.866 6.93118C145.227 7.14225 140.344 4.83639 135.773 3.12666C127.846 0.161112 120.48 1.64915 113.121 4.93408C111.522 5.64791 109.686 5.83244 107.581 6.07533C119.865 -1.60949 132.794 -1.78971 146.033 4.3252C147.59 5.04456 149.497 5.48949 151.188 5.35899C163.058 4.44277 173.346 8.03732 182.413 15.6349C183.572 16.6056 185.324 17.0357 186.875 17.343C196.202 19.1904 204.543 22.7761 210.862 30.6695Z" fill="#12110F"/>
<path d="M42.775 442.459C43.2832 442.924 43.9519 443.719 43.8411 444.385C42.2715 453.818 40.4139 463.206 39.0056 472.661C37.9193 479.955 37.4394 487.336 36.5499 494.662C35.8691 500.27 34.7895 505.833 34.2229 511.45C33.7435 516.201 33.7456 521 33.5083 526.218C30.751 525.333 30.5131 523.226 31.0488 520.443C32.548 512.656 34.0078 504.846 35.0189 496.985C35.6073 492.411 34.9455 487.68 35.4905 483.095C36.2208 476.953 37.7054 470.905 38.6216 464.779C39.4147 459.477 39.7388 454.105 40.5333 448.803C40.8448 446.723 41.8719 444.751 42.775 442.459Z" fill="#43450F"/>
<path d="M33.1744 529.451C34.2623 530.729 34.6912 532.801 35.7759 533.235C43.0431 536.144 50.4498 538.704 58.0845 541.477C56.6632 544.481 53.9602 544.964 50.96 544.072C42.9382 541.687 34.9695 539.124 26.6211 536.472C28.4479 534.038 30.6333 531.763 33.1744 529.451Z" fill="#35352E"/>
<path d="M19.7661 106.393C19.7138 110.636 19.3991 115.156 19.2285 119.682C19.1756 121.082 19.1097 122.719 19.7396 123.87C23.8339 131.35 25.2617 139.517 26.5594 147.788C26.7895 149.255 28.7413 150.452 30.1342 152.02C29.6021 153.121 28.8337 153.976 27.8273 154.95C24.0953 149.241 21.7758 143.125 22.5162 136.129C22.6406 134.954 22.2564 133.49 21.595 132.503C16.0638 124.244 15.9714 115.618 19.7661 106.393Z" fill="#12110F"/>
<path d="M234.978 132.527C235.456 129.864 236.388 127.118 237.075 124.311C237.956 120.712 238.582 117.314 236.996 113.423C236.084 111.185 237.632 107.882 238.245 105.096C239.722 98.3802 241.787 91.7113 237.612 85.1232C236.886 83.9773 237.014 82.29 236.923 80.4543C242.645 88.8809 243.904 97.9521 239.099 107.6C238.412 108.98 238.874 111.054 239.125 112.759C240.156 119.775 239.854 126.494 234.978 132.527Z" fill="#12110F"/>
<path d="M134.617 489.917C135.548 490.123 137.094 490.691 137.172 491.417C137.609 495.495 137.638 499.614 137.914 503.712C138.114 506.688 138.313 509.682 138.805 512.619C139.935 519.368 141.242 526.087 142.534 533.144C141.415 530.729 139.608 528.085 139.173 525.23C137.404 513.639 136.057 501.984 134.617 489.917Z" fill="#43450F"/>
<path d="M94.13 264.058C94.4855 264.353 94.4995 264.683 94.5037 265.259C86.3207 268.141 78.1943 270.833 70.0232 273.382C67.3612 274.212 64.5824 274.668 61.6094 274.996C72.1609 271.163 82.96 267.629 94.13 264.058Z" fill="#A71810"/>
<path d="M27.7095 70.114C27.4897 71.3026 27.2774 72.8826 26.4358 73.9801C20.7764 81.36 19.7326 89.4639 21.997 98.3011C22.4554 100.09 21.9982 102.113 21.612 104.217C20.5613 97.9646 19.253 91.5153 19.3395 85.0848C19.4199 79.112 22.7348 74.1343 27.7095 70.114Z" fill="#12110F"/>
<path d="M60.5371 275.033C60.7898 275.625 60.9852 276.8 60.6223 277.01C50.5732 282.827 40.4713 288.553 30.3549 294.253C29.9916 294.457 29.3911 294.241 28.5283 294.04C38.8435 287.628 49.5316 281.397 60.5371 275.033Z" fill="#A71810"/>
<path d="M16.2767 354.686C8.29395 343.993 6.60816 332.284 10.9589 319.449C11.298 319.243 11.5367 319.446 11.5729 319.791C11.5542 325.616 11.0554 331.138 11.5855 336.559C12.0056 340.859 13.6533 345.044 14.8241 349.262C15.3106 351.014 15.9735 352.718 16.4861 354.504C16.416 354.564 16.2767 354.686 16.2767 354.686Z" fill="#7B3311"/>
<path d="M123.028 435.594C127.629 433.042 132.662 430.435 137.694 427.827C137.938 428.073 138.182 428.318 138.425 428.563C137.133 429.683 135.979 431.046 134.521 431.875C130.415 434.211 128.523 436.533 130.712 441.889C132.212 445.559 131.008 450.334 130.825 454.877C129.662 448.772 128.686 442.406 127.633 435.538C126.326 435.538 124.893 435.538 123.028 435.594Z" fill="#43450F"/>
<path d="M57.4413 405.791C58.0822 405.901 59.0326 406.466 58.9551 406.755C56.2716 416.765 53.4913 426.748 50.4176 437.118C49.928 437.491 49.7454 437.48 49.5166 437.42C49.4703 437.371 49.3794 437.271 49.3794 437.271C52.0101 426.887 54.6409 416.502 57.4413 405.791Z" fill="#43450F"/>
<path d="M83.5039 247.898C85.6521 248.418 88.0138 249.145 90.2982 250.065C95.4657 252.144 100.613 254.279 105.716 256.51C106.287 256.76 106.522 257.779 106.74 258.688C98.9382 255.354 91.3102 251.774 83.5039 247.898Z" fill="#80230D"/>
<path d="M237.007 201.469C236.822 200.034 236.508 198.219 237.116 196.799C239.732 190.688 239.904 184.562 237.988 178.276C237.753 177.504 237.782 176.652 237.647 175.495C242.882 181.61 241.792 188.7 239.582 195.853C239.007 197.716 238.072 199.468 237.007 201.469Z" fill="#7B3311"/>
<path d="M228.207 141.704C228.592 141.718 228.755 141.992 229.136 142.407C229.044 150.549 228.777 158.526 228.606 166.95C227.819 166.816 226.138 166.188 226.169 165.66C226.628 157.762 227.312 149.877 228.207 141.704Z" fill="#7B3311"/>
<path d="M49.9917 201.335C53.707 197.467 56.241 198.178 57.7261 203.1C59.4589 208.843 61.7281 214.422 63.6476 220.111C63.9341 220.96 63.5814 222.024 63.4403 223.334C60.5334 216.102 57.7108 208.526 54.729 200.522C53.8375 200.701 52.114 201.047 49.9917 201.335Z" fill="#80230D"/>
<path d="M53.7174 29.4209C54.7729 34.3063 50.4965 41.2807 45.7311 43.0802C42.6492 44.244 39.7719 45.9493 36.5176 47.2506C37.4691 46.0477 38.5582 44.4145 39.9672 44.0629C47.6471 42.1467 51.2062 36.551 53.7174 29.4209Z" fill="#12110F"/>
<path d="M231.899 57.6314C231.563 58.0137 230.863 58.3426 230.631 58.1388C225.645 53.7682 220.711 49.338 215.704 44.5688C222.83 46.3541 227.886 51.1119 231.899 57.6314Z" fill="#12110F"/>
<path d="M23.9457 160.372C23.703 162.701 22.725 165.25 22.7333 167.795C22.7539 174.13 23.2237 180.463 23.4572 187.226C18.4383 178.585 19.6949 169.574 23.9457 160.372Z" fill="#80230D"/>
<path d="M236.868 79.5205C235.938 78.4945 233.618 76.7988 233.887 75.8001C235.397 70.1897 232.941 65.4719 231.342 60.5131C231.175 59.996 231.576 59.2961 231.948 58.4292C233.317 63.1701 234.477 68.1573 235.575 73.1583C236.012 75.1475 236.311 77.1669 236.868 79.5205Z" fill="#12110F"/>
<path d="M106.602 6.1062C105.119 6.42822 103.277 7.06122 101.387 7.46864C95.5298 8.73125 89.6539 9.90808 83.4678 10.9202C90.1061 5.41077 98.249 6.31238 106.602 6.1062Z" fill="#12110F"/>
<path d="M66.4202 19.0803C62.7195 22.3308 58.7407 25.757 54.4019 29.0594C58.0753 25.709 62.1085 22.4826 66.4202 19.0803Z" fill="#12110F"/>
<path d="M195.167 254.804C199.3 250.851 203.762 246.784 208.594 242.71C204.474 246.699 199.986 250.694 195.167 254.804Z" fill="#80230D"/>
<path d="M51.3403 397.655C48.3215 393.289 45.3027 388.923 42.2798 384.124C42.2759 383.691 42.5378 383.455 42.8843 383.52C44.5412 385.375 46.007 387.074 47.1248 388.978C48.7351 391.72 50.0926 394.611 51.5032 397.493C51.4484 397.546 51.3403 397.655 51.3403 397.655Z" fill="#7B3311"/>
<path d="M167.959 265.178C167.215 264.818 166.865 264.484 166.246 263.894C171.685 262.758 176.925 261.664 182.498 260.722C178.003 262.318 173.177 263.761 167.959 265.178Z" fill="#80230D"/>
<path d="M144.368 534.108C144.927 540.859 145.243 547.356 145.505 554.317C144.762 550.638 144.073 546.496 143.513 541.482C143.521 539.775 143.401 538.94 143.281 538.105C143.117 536.84 142.952 535.575 142.769 533.928C143.209 533.648 143.667 533.751 144.368 534.108Z" fill="#12110F"/>
<path d="M215.64 43.9342C214.73 43.1538 213.209 42.1391 212.797 40.7865C212.045 38.3201 211.95 35.6534 211.645 32.6433C212.982 35.9935 214.256 39.7705 215.64 43.9342Z" fill="#12110F"/>
<path d="M32.9521 374.111C29.7662 370.897 26.5803 367.684 23.3625 364.063C23.3308 363.656 23.5434 363.45 23.8569 363.573C27.2954 366.947 30.4204 370.197 33.3884 373.606C33.2313 373.763 32.9521 374.111 32.9521 374.111Z" fill="#7B3311"/>
<path d="M212.966 237.467C214.48 233.991 216.289 230.338 218.455 226.622C216.962 230.135 215.112 233.712 212.966 237.467Z" fill="#80230D"/>
<path d="M218.99 226.453C220.14 222.352 221.582 218.036 223.371 213.605C222.24 217.74 220.76 221.989 218.99 226.453Z" fill="#80230D"/>
<path d="M23.2234 363.758C20.8892 361.026 18.6625 358.191 16.3564 355.021C16.277 354.686 16.4163 354.564 16.8051 354.637C19.3105 357.623 21.4271 360.537 23.5436 363.45C23.5436 363.45 23.331 363.656 23.2234 363.758Z" fill="#7B3311"/>
<path d="M34.927 48.2632C33.8555 51.1416 32.4976 54.2081 30.7974 57.3299C31.8502 54.4072 33.2455 51.4292 34.927 48.2632Z" fill="#12110F"/>
<path d="M27.6522 294.113C28.0428 298.485 23.4061 298.782 20.981 301.404C22.8809 299.055 25.1254 296.663 27.6522 294.113Z" fill="#A71810"/>
<path d="M77.4238 16.1396C76.4722 16.7555 75.3147 17.8978 73.9313 18.3509C72.111 18.9471 70.113 19.0012 67.7979 19.1643C70.642 18.1465 73.8798 17.253 77.4238 16.1396Z" fill="#12110F"/>
<path d="M9.19775 550.095C11.2974 548.126 13.397 546.157 15.8859 544.16C16.2751 544.131 16.528 544.438 16.4818 544.779C14.136 546.894 11.8362 548.668 9.45093 550.356C9.36548 550.27 9.19775 550.095 9.19775 550.095Z" fill="#12110F"/>
<path d="M42.1389 383.801C40.505 382.058 39.0082 380.205 37.4529 377.975C37.3945 377.599 37.5491 377.443 37.9216 377.454C41.8738 377.929 42.3378 380.599 42.5379 383.456C42.5379 383.456 42.276 383.691 42.1389 383.801Z" fill="#7B3311"/>
<path d="M119.958 444.426C120.403 441.597 121.181 438.603 122.343 435.576C121.915 438.45 121.103 441.355 119.958 444.426Z" fill="#43450F"/>
<path d="M49.5292 439.445C47.6244 440.381 45.7197 441.316 43.4541 442.13C44.9592 440.472 46.8252 438.935 49.0354 437.335C49.3794 437.271 49.4703 437.371 49.5315 437.75C49.5714 438.567 49.5503 439.006 49.5292 439.445Z" fill="#43450F"/>
<path d="M27.5352 193.797C30.0114 195.114 32.6495 196.737 35.3778 198.719C32.8777 197.419 30.2874 195.762 27.5352 193.797Z" fill="#80230D"/>
<path d="M29.6606 64.8672C33.1542 66.914 31.8318 68.6331 28.4438 70.077C28.5992 68.4455 29.1377 66.8443 29.6606 64.8672Z" fill="#12110F"/>
<path d="M13.3613 314.276C14.4235 312.317 15.4856 310.358 16.8993 308.287C17.2506 308.175 17.5433 308.451 17.5437 308.775C16.2172 310.887 14.8901 312.676 13.5123 314.418C13.4615 314.371 13.3613 314.276 13.3613 314.276Z" fill="#7B3311"/>
<path d="M222.542 540.052C221.246 540.062 219.771 539.787 217.919 539.48C217.543 539.45 217.552 539.457 217.552 539.457C217.212 538.649 216.871 537.841 216.556 536.702C218.509 537.503 220.436 538.635 222.542 540.052Z" fill="#12110F"/>
<path d="M146.443 555.692C148.056 556.282 149.772 557.057 151.21 558.149C150.399 558.238 149.867 558.009 149.334 557.779C149.334 557.779 149.161 557.752 148.924 557.566C148.448 557.168 148.174 557.027 147.863 556.956C147.863 556.956 147.768 557.149 147.717 556.904C147.315 556.519 146.963 556.38 146.611 556.242C146.611 556.242 146.604 556.314 146.636 556.297C146.668 556.28 146.545 555.877 146.443 555.692Z" fill="#12110F"/>
<path d="M63.353 223.956C64.335 225.074 65.3842 226.525 66.3047 228.379C65.2574 227.285 64.3389 225.787 63.353 223.956Z" fill="#80230D"/>
<path d="M224.942 212.591C226.409 211.287 228.212 209.899 230.382 208.548C228.926 209.893 227.102 211.199 224.942 212.591Z" fill="#80230D"/>
<path d="M3.18701 557.136C3.93823 555.835 4.80481 554.634 6.03357 553.367C6.39575 553.302 6.54187 553.448 6.53271 553.804C5.52588 555.253 4.52832 556.346 3.53076 557.438C3.53076 557.438 3.30225 557.236 3.18701 557.136Z" fill="#12110F"/>
<path d="M18.2642 542.17C19.3469 541.17 20.4298 540.171 21.8942 539.157C22.2759 539.143 22.5287 539.438 22.4835 539.786C21.14 540.907 19.8418 541.68 18.4735 542.382C18.4036 542.311 18.2642 542.17 18.2642 542.17Z" fill="#12110F"/>
<path d="M11.1768 319.144C11.6284 317.57 12.2013 316.097 13.0677 314.449C13.3613 314.276 13.4615 314.371 13.5121 314.775C12.8872 316.601 12.2119 318.023 11.5367 319.446C11.5367 319.446 11.298 319.243 11.1768 319.144Z" fill="#7B3311"/>
<path d="M67.356 230.888C68.3229 231.718 69.3855 232.865 70.3568 234.387C69.3275 233.576 68.3895 232.391 67.356 230.888Z" fill="#80230D"/>
<path d="M183.353 260.816C184.382 260.12 185.72 259.315 187.41 258.557C186.395 259.305 185.029 260.005 183.353 260.816Z" fill="#80230D"/>
<path d="M230.57 545.063C229.455 544.772 228.181 544.21 227.074 543.279C228.297 543.537 229.355 544.164 230.57 545.063Z" fill="#12110F"/>
<path d="M59.5264 404.389C59.1281 404.408 58.7299 404.427 58.0325 404.443C57.0293 403.691 56.3251 402.94 55.5437 401.856C55.4666 401.524 55.5624 401.431 55.8909 401.448C57.3217 402.44 58.424 403.415 59.5264 404.389Z" fill="#7B3311"/>
<path d="M55.4188 401.571C54.4326 400.828 53.4943 400.039 52.4944 398.905C52.4326 398.56 52.555 398.436 52.8934 398.468C54.0088 399.477 54.7857 400.454 55.5627 401.43C55.5627 401.43 55.4669 401.524 55.4188 401.571Z" fill="#7B3311"/>
<path d="M20.29 303.647C20.8627 303.9 21.198 304.338 21.246 305.113C20.1602 305.789 19.3616 306.127 18.5115 306.418C18.4598 306.371 18.3589 306.276 18.3589 306.276C18.9235 305.462 19.488 304.647 20.29 303.647Z" fill="#7B3311"/>
<path d="M187.983 258.65C188.772 257.98 189.895 257.245 191.397 256.566C190.623 257.277 189.471 257.931 187.983 258.65Z" fill="#80230D"/>
<path d="M226.699 542.557C225.919 542.385 224.901 542.041 223.898 541.306C224.762 541.406 225.612 541.895 226.699 542.557Z" fill="#12110F"/>
<path d="M191.978 256.651C192.562 256.004 193.449 255.285 194.584 254.77C193.982 255.51 193.131 256.045 191.978 256.651Z" fill="#80230D"/>
<path d="M233.506 547.115C232.656 546.923 231.632 546.469 230.63 545.641C231.545 545.796 232.439 546.325 233.506 547.115Z" fill="#12110F"/>
<path d="M25.4213 157.712C25.326 158.365 25.0472 159.275 24.438 160.182C24.4843 159.442 24.861 158.706 25.4213 157.712Z" fill="#80230D"/>
<path d="M205.009 395.603C205.197 395.093 205.655 394.494 206.308 394.114C206.095 394.727 205.687 395.121 205.009 395.603Z" fill="#8E4116"/>
<path d="M35.102 375.904C34.5059 375.451 33.9098 374.997 33.1331 374.327C32.9524 374.111 33.2316 373.763 33.7051 373.652C34.6337 374.178 35.0888 374.814 35.4324 375.563C35.3209 375.675 35.102 375.904 35.102 375.904Z" fill="#7B3311"/>
<path d="M79.5044 244.854C80.3248 245.089 81.2953 245.607 82.291 246.491C81.4291 246.283 80.5416 245.71 79.5044 244.854Z" fill="#80230D"/>
<path d="M209.801 531.704C209.208 531.609 208.416 531.303 207.65 530.619C208.318 530.658 208.96 531.076 209.801 531.704Z" fill="#12110F"/>
<path d="M207.618 530.046C206.814 530.088 205.884 529.867 204.596 529.52C204.527 529.106 204.818 528.818 205.4 528.43C206.291 528.815 206.891 529.299 207.618 530.046Z" fill="#12110F"/>
<path d="M210.009 241.543C210.228 240.712 210.727 239.722 211.596 238.71C211.407 239.587 210.848 240.485 210.009 241.543Z" fill="#80230D"/>
<path d="M233.981 205.505C234.143 204.668 234.596 203.678 235.39 202.598C235.245 203.455 234.758 204.404 233.981 205.505Z" fill="#80230D"/>
<path d="M24.4756 189.803C25.0901 190.288 25.7822 191.082 26.4972 192.219C25.8645 191.745 25.2089 190.929 24.4756 189.803Z" fill="#80230D"/>
<path d="M143.163 538.368C143.401 538.94 143.521 539.775 143.56 541.025C143.335 540.505 143.19 539.568 143.163 538.368Z" fill="#43450F"/>
<path d="M214.601 535.037C214.133 535.1 213.513 534.894 212.826 534.338C213.323 534.248 213.885 534.508 214.601 535.037Z" fill="#12110F"/>
<path d="M216.454 536.172C216.038 536.212 215.434 536.017 214.729 535.51C215.174 535.445 215.72 535.69 216.454 536.172Z" fill="#12110F"/>
<path d="M211.599 533.061C211.132 533.085 210.531 532.844 209.934 532.245C210.448 532.189 210.956 532.493 211.599 533.061Z" fill="#12110F"/>
<path d="M79.1902 14.3599C79.1602 14.8156 78.8967 15.3664 78.3223 15.769C78.3262 15.2321 78.6414 14.8435 79.1902 14.3599Z" fill="#12110F"/>
<path d="M82.6495 11.0471C82.6051 11.3921 82.3387 11.888 81.7241 12.3675C81.7264 11.9667 82.077 11.5824 82.6495 11.0471Z" fill="#12110F"/>
<path d="M21.1387 104.363C21.1588 104.838 20.9147 105.432 20.3164 105.99C20.2662 105.463 20.5703 104.972 21.1387 104.363Z" fill="#12110F"/>
<path d="M17.1113 308.03C17.2673 307.425 17.5625 306.964 18.1082 306.39C18.3586 306.276 18.4596 306.372 18.4921 306.717C18.1975 307.526 17.8705 307.988 17.5435 308.451C17.5435 308.451 17.2507 308.175 17.1113 308.03Z" fill="#7B3311"/>
<path d="M71.1362 236.089C71.517 236.185 71.9988 236.568 72.4852 237.303C72.0723 237.229 71.6547 236.803 71.1362 236.089Z" fill="#80230D"/>
<path d="M23.3623 187.837C23.6848 187.996 24.0754 188.456 24.4678 189.253C24.123 189.105 23.7767 188.622 23.3623 187.837Z" fill="#80230D"/>
<path d="M66.1626 229.016C66.527 229.143 66.9857 229.561 67.4077 230.335C66.9996 230.23 66.6282 229.769 66.1626 229.016Z" fill="#80230D"/>
<path d="M234.671 548.084C234.449 548.179 234.108 548.023 233.679 547.592C233.911 547.489 234.231 547.661 234.671 548.084Z" fill="#12110F"/>
<path d="M235.773 549.004C235.542 549.101 235.182 548.94 234.733 548.486C234.977 548.378 235.311 548.562 235.773 549.004Z" fill="#12110F"/>
<path d="M209.054 242.716C208.937 242.468 209.086 242.103 209.534 241.654C209.662 241.912 209.491 242.256 209.054 242.716Z" fill="#80230D"/>
<path d="M236.876 549.843C236.634 549.964 236.253 549.832 235.792 549.388C236.055 549.247 236.396 549.419 236.876 549.843Z" fill="#12110F"/>
<path d="M76.3618 241.856C76.5968 241.768 76.9402 241.948 77.3596 242.421C77.1138 242.518 76.792 242.321 76.3618 241.856Z" fill="#80230D"/>
<path d="M6.32178 553.229C6.40686 552.867 6.56555 552.577 7.04639 552.281C7.36853 552.274 7.54065 552.447 7.44751 552.678C7.16309 553.21 6.89209 553.389 6.54163 553.448C6.54163 553.448 6.39551 553.302 6.32178 553.229Z" fill="#12110F"/>
<path d="M8.19775 551.098C8.37366 550.822 8.54944 550.545 8.96167 550.182C9.198 550.095 9.36572 550.27 9.36621 550.592C9.0907 551.091 8.81482 551.268 8.45312 551.359C8.36731 551.273 8.19775 551.098 8.19775 551.098Z" fill="#12110F"/>
<path d="M237.911 550.722C237.656 550.844 237.276 550.73 236.889 550.283C237.184 550.128 237.486 550.307 237.911 550.722Z" fill="#12110F"/>
<path d="M7.28271 552.187C7.37268 551.825 7.54871 551.548 7.96143 551.185C8.198 551.098 8.36755 551.273 8.36169 551.59C8.15576 552.196 7.88416 552.375 7.54089 552.447C7.54089 552.447 7.36877 552.274 7.28271 552.187Z" fill="#12110F"/>
<path d="M238.933 551.709C238.668 551.826 238.29 551.719 237.953 551.278C238.27 551.124 238.544 551.304 238.933 551.709Z" fill="#12110F"/>
<path d="M24.282 537.182C24.5763 537.433 24.5573 537.624 24.2866 538.129C24.0349 538.444 23.5405 538.446 23.4585 538.363C23.3763 538.28 23.2153 538.112 23.2153 538.112C23.4664 537.782 23.7175 537.452 24.282 537.182Z" fill="#12110F"/>
<path d="M22.1626 538.986C22.2244 538.554 22.4594 538.35 22.9851 538.164C23.2153 538.112 23.3763 538.28 23.3644 538.595C23.0776 539.085 22.803 539.261 22.5283 539.437C22.5283 539.437 22.2755 539.143 22.1626 538.986Z" fill="#12110F"/>
<path d="M223.826 540.854C223.596 541.003 223.21 540.919 222.721 540.546C222.969 540.378 223.32 540.5 223.826 540.854Z" fill="#12110F"/>
<path d="M77.3896 242.831C77.6207 242.744 77.9595 242.921 78.3822 243.383C78.1432 243.478 77.8201 243.287 77.3896 242.831Z" fill="#80230D"/>
<path d="M17.0532 542.986C17.291 542.751 17.5287 542.517 18.0151 542.226C18.2638 542.169 18.4032 542.311 18.3828 542.615C18.0859 543.092 17.8096 543.266 17.4143 543.325C17.2955 543.21 17.0532 542.986 17.0532 542.986Z" fill="#12110F"/>
<path d="M16.1636 543.968C16.2003 543.543 16.4005 543.331 16.8529 543.077C17.0537 542.986 17.296 543.21 17.3242 543.558C17.0778 544.083 16.8031 544.26 16.5284 544.438C16.5284 544.438 16.2756 544.131 16.1636 543.968Z" fill="#12110F"/>
<path d="M82.2974 246.939C82.5422 246.821 82.905 246.968 83.3582 247.407C83.1042 247.534 82.7598 247.369 82.2974 246.939Z" fill="#80230D"/>
<path d="M78.437 243.79C78.6543 243.719 78.9797 243.909 79.3872 244.379C79.1611 244.456 78.8531 244.253 78.437 243.79Z" fill="#80230D"/>
<path d="M230.902 208.574C230.829 208.349 231.021 208.02 231.503 207.625C231.585 207.862 231.376 208.167 230.902 208.574Z" fill="#80230D"/>
<path d="M231.922 207.6C231.846 207.369 232.037 207.035 232.522 206.636C232.608 206.881 232.398 207.189 231.922 207.6Z" fill="#80230D"/>
<path d="M232.936 206.612C232.849 206.381 233.024 206.04 233.488 205.62C233.585 205.861 233.392 206.181 232.936 206.612Z" fill="#80230D"/>
<path d="M235.883 202.54C235.818 202.316 236.019 202.002 236.504 201.631C236.575 201.866 236.362 202.158 235.883 202.54Z" fill="#7B3311"/>
<path d="M75.4023 240.815C75.6293 240.747 75.9583 240.947 76.3503 241.442C76.1105 241.519 75.8074 241.302 75.4023 240.815Z" fill="#80230D"/>
<path d="M240.845 553.96C240.596 554.032 240.239 553.833 239.867 553.306C240.147 553.216 240.443 553.452 240.845 553.96Z" fill="#12110F"/>
<path d="M74.3926 239.824C74.6178 239.746 74.9523 239.933 75.371 240.405C75.1375 240.491 74.8195 240.29 74.3926 239.824Z" fill="#80230D"/>
<path d="M73.374 238.792C73.5867 238.725 73.9294 238.923 74.366 239.413C74.1411 239.489 73.8225 239.273 73.374 238.792Z" fill="#80230D"/>
<path d="M239.928 552.849C239.66 552.943 239.284 552.786 238.942 552.296C239.258 552.176 239.539 552.387 239.928 552.849Z" fill="#12110F"/>
<path d="M212.038 238.695C211.912 238.449 212.048 238.083 212.472 237.625C212.607 237.879 212.453 238.227 212.038 238.695Z" fill="#80230D"/>
<path d="M70.2612 234.928C70.5261 234.845 70.8777 235.034 71.219 235.546C70.9218 235.646 70.6349 235.424 70.2612 234.928Z" fill="#80230D"/>
<path d="M80.1986 13.3506C80.2665 13.5636 80.0802 13.888 79.613 14.2885C79.5361 14.0637 79.7403 13.7628 80.1986 13.3506Z" fill="#12110F"/>
<path d="M81.2154 12.3706C81.2781 12.583 81.0845 12.9004 80.6106 13.2901C80.5398 13.0668 80.7494 12.7713 81.2154 12.3706Z" fill="#12110F"/>
<path d="M36.0358 47.1665C36.116 47.4064 35.933 47.7607 35.4358 48.1581C35.3386 47.8944 35.5557 47.5877 36.0358 47.1665Z" fill="#12110F"/>
<path d="M52.3702 398.622C52.0361 398.501 51.7636 398.32 51.4155 397.896C51.3398 397.655 51.448 397.546 51.7364 397.58C52.3136 397.816 52.4901 398.09 52.5544 398.436C52.5544 398.436 52.432 398.56 52.3702 398.622Z" fill="#7B3311"/>
<path d="M36.2326 376.752C35.8878 376.719 35.5957 376.578 35.229 376.116C35.1017 375.904 35.3207 375.675 35.6613 375.657C36.2896 375.836 36.4719 376.105 36.4704 376.522C36.392 376.599 36.2326 376.752 36.2326 376.752Z" fill="#7B3311"/>
<path d="M37.3169 377.677C36.9624 377.578 36.6852 377.402 36.3204 376.988C36.2326 376.752 36.392 376.6 36.6971 376.62C37.2865 376.838 37.4688 377.105 37.5489 377.442C37.5489 377.442 37.3943 377.599 37.3169 377.677Z" fill="#7B3311"/>
<path d="M232.812 135.393C232.757 135.227 232.929 135.021 233.252 134.684C233.445 134.894 233.324 135.16 232.812 135.393Z" fill="#12110F"/>
<path d="M212.804 533.95C212.57 534.071 212.195 533.942 211.724 533.523C211.972 533.388 212.318 533.545 212.804 533.95Z" fill="#12110F"/>
<path d="M211.721 32.0622C211.5 32.0874 211.191 31.8497 210.909 31.2989C211.168 31.257 211.401 31.5281 211.721 32.0622Z" fill="#12110F"/>
<path d="M34.3126 527.494C34.4504 527.81 34.3049 528.039 33.9116 528.328C33.6715 528.266 33.6095 528.098 33.6064 527.67C33.6655 527.409 34.0991 527.451 34.3126 527.494Z" fill="#35352E"/>
<path d="M136.947 176.415C135.21 178.544 133.474 180.673 131.284 183.239C122.163 190.6 112.95 191.058 103.271 186.004C103.271 186.004 103.031 185.939 102.906 185.747C102.419 185.417 102.056 185.278 101.693 185.139C101.693 185.139 101.751 185.246 101.617 184.949C100.775 184.109 100.067 183.566 99.3587 183.024C99.3587 183.024 99.206 182.814 98.9612 182.516C98.032 181.569 97.3477 180.921 96.6635 180.272C96.6635 180.272 96.6259 180.38 96.5752 180.061C95.5667 178.255 94.6088 176.769 93.6509 175.283C93.6509 175.283 93.636 175.396 93.6201 174.993C90.3822 166.279 91.9821 158.663 96.9287 151.528C99.0679 149.728 101.207 147.928 103.757 145.757C104.337 145.1 104.508 144.813 104.678 144.527C104.678 144.527 104.575 144.503 104.97 144.492C113.236 141.622 120.975 141.402 128.494 145.626C128.494 145.626 128.496 145.515 128.593 145.794C129.237 146.333 129.784 146.592 130.331 146.851C130.331 146.851 130.391 146.663 130.385 146.95C130.725 147.403 131.072 147.57 131.418 147.737C131.418 147.737 131.453 147.562 131.465 147.838C131.805 148.301 132.133 148.49 132.461 148.678C132.461 148.678 132.477 148.519 132.499 148.794C132.838 149.266 133.154 149.462 133.47 149.659C133.47 149.659 133.479 149.507 133.498 149.79C133.822 150.283 134.127 150.494 134.432 150.705C134.432 150.705 134.435 150.53 134.44 150.858C135.1 152.007 135.756 152.828 136.411 153.649C136.411 153.649 136.436 153.519 136.467 153.893C140.316 160.668 140.192 167.398 138.17 174.288C138.17 174.288 138.301 174.343 138.007 174.446C137.457 175.171 137.202 175.793 136.947 176.415ZM111.726 177.389C114.378 177.177 117.029 176.966 119.937 177.122C119.937 177.122 120.371 177.007 120.934 176.715C126.643 173.244 129.409 168.244 128.488 163.064C127.475 157.369 123.118 153.527 115.889 152.398C115.434 152.448 114.979 152.499 113.867 152.464C112.429 152.994 110.991 153.523 109.642 154.628C109.835 154.636 110.029 154.644 109.48 154.609C109.325 154.802 109.17 154.996 108.95 154.959C108.95 154.959 108.711 154.927 107.942 154.82C99.7808 162.281 100.97 171.821 111.141 177.135C111.141 177.135 111.4 176.771 111.726 177.389Z" fill="#F4F0E9"/>
<path d="M211.33 178.172C209.178 185.139 204.528 190.296 198.391 193.663C195.542 195.226 191.475 195.529 188.152 195.056C182.592 194.265 170.828 181.388 170.58 174.175C170.289 165.711 173.396 159.087 180.687 153.808C181.315 153.138 181.505 152.835 181.695 152.532C181.695 152.532 181.597 152.52 181.91 152.51C182.753 152.255 183.283 152.01 183.814 151.765C183.814 151.765 183.598 151.77 184.096 151.69C190.888 149.059 196.733 150.306 202.326 153.701C202.326 153.701 202.426 153.608 202.469 153.865C202.824 154.292 203.138 154.462 203.451 154.631C203.451 154.631 203.472 154.531 203.529 154.784C203.977 155.34 204.369 155.642 204.76 155.944C204.76 155.944 204.901 156.095 205.113 156.37C205.686 156.966 206.048 157.287 206.409 157.608C206.409 157.608 206.471 157.515 206.503 157.788C206.804 158.287 207.072 158.511 207.34 158.736C207.34 158.736 207.409 158.587 207.408 158.92C208.375 160.734 209.343 162.215 210.311 163.696C210.311 163.696 210.342 163.541 210.323 163.897C210.654 165.052 211.005 165.85 211.356 166.649C211.356 166.649 211.337 166.496 211.327 166.976C211.321 171.028 211.326 174.6 211.33 178.172ZM196.027 163.364C190.733 158.761 183.795 157.876 178.648 161.145C173.544 164.388 171.62 169.67 173.455 176.314C177.097 183.93 184.828 186.977 191.974 183.613C198.859 180.372 201.191 173.433 197.722 165.667C197.289 165.102 196.857 164.538 196.027 163.364Z" fill="#F4F0E9"/>
<path d="M101.649 128.241C99.6183 126.651 96.4426 125.361 95.9226 123.375C95.5127 121.811 97.9161 118.58 99.8579 117.48C111.471 110.906 123.601 110.886 135.826 115.794C137.324 116.396 139.319 117.388 139.759 118.658C140.672 121.299 141.688 124.587 140.864 126.993C139.505 130.956 135.556 129.94 131.556 129.174C121.192 125.657 111.472 124.923 101.649 128.241Z" fill="#3A281C"/>
<path d="M119.551 212.644C120.896 211.003 122.117 208.973 123.593 208.766C124.782 208.599 126.715 210.367 127.572 211.741C135.436 224.356 152.024 228.607 165.256 221.336C167.32 220.201 170.223 218.182 171.576 221.44C172.321 223.234 171.458 227.167 170.004 228.114C166.365 230.484 162.101 232.633 157.862 233.21C143.318 235.192 131.011 230.468 121.687 218.933C120.444 217.395 120.228 215.026 119.551 212.644Z" fill="#733510"/>
<path d="M196.617 133.427C192.939 133.35 189.198 132.807 185.597 133.296C179.129 134.174 176.89 133.529 176.028 129.397C175.162 125.244 177.907 121.693 183.191 120.355C194.053 117.605 203.971 120.025 212.786 126.573C214.62 127.936 216.358 131.148 216.03 133.165C215.76 134.831 212.374 135.992 209.974 137.382C209.579 137.388 209.603 137.4 209.423 137.161C208.683 136.742 208.123 136.561 207.555 136.412C207.547 136.445 207.601 136.405 207.422 136.17C206.683 135.788 206.125 135.641 205.335 135.471C205.104 135.448 204.639 135.42 204.456 135.176C203.703 134.782 203.132 134.631 202.331 134.462C202.101 134.443 201.639 134.417 201.397 134.142C199.956 133.735 198.756 133.603 197.322 133.465C197.087 133.457 196.617 133.427 196.617 133.427Z" fill="#3A281C"/>
<path d="M101.422 128.552C111.472 124.923 121.192 125.657 131.166 129.157C132.262 129.901 132.994 130.553 133.823 131.037C134.511 131.439 135.314 131.645 136.067 131.938C132.299 141.419 132.518 141.564 123.963 141.458C123.543 141.461 123.533 141.478 123.4 141.246C122.701 141.145 122.137 141.276 121.278 141.4C120.497 141.114 120.01 140.835 119.292 140.248C116.895 140.119 114.728 140.299 112.553 140.465C112.543 140.45 112.56 140.481 112.192 140.469C110.74 140.797 109.655 141.137 108.562 141.473C108.554 141.468 108.564 141.497 108.564 141.497C105.075 138.765 101.108 136.451 98.2395 133.176C95.7031 130.28 99.2201 129.684 101.422 128.552Z" fill="#8E4116"/>
<path d="M196.164 133.436C196.618 133.427 197.087 133.457 197.559 133.738C199.234 134.151 200.437 134.284 201.64 134.417C201.64 134.417 202.101 134.443 202.506 134.709C203.487 135.124 204.063 135.272 204.639 135.419C204.639 135.419 205.104 135.448 205.506 135.714C206.473 136.121 207.037 136.263 207.602 136.405C207.602 136.405 207.547 136.445 207.712 136.678C208.452 137.074 209.027 137.237 209.603 137.4C209.603 137.4 209.579 137.388 209.59 137.37C211.311 143 208.974 146.513 200.97 150.114C201.447 151.086 201.922 152.051 202.361 153.359C196.734 150.306 190.888 149.059 184.202 151.712C182.536 147.309 181.254 142.807 180.001 138.297C179.831 137.685 179.804 137.033 179.575 135.473C185.076 134.781 190.394 134.113 196.164 133.436Z" fill="#8E4116"/>
<path d="M150.895 192.451C156.833 192.359 162.323 192.09 166.858 196.194C169.88 198.929 169.552 202.239 165.847 204.188C160.951 206.765 144.832 205.195 140.933 201.4C140.132 200.621 140.145 197.402 140.815 196.991C143.823 195.146 147.204 193.909 150.895 192.451Z" fill="#7F3D14"/>
<path d="M124.483 267.867C121.948 266.542 119.773 265.393 117.598 264.244C117.622 263.999 117.646 263.754 117.669 263.509C123.818 264.273 129.951 265.222 136.12 265.75C142.555 266.301 149.025 266.446 155.507 267.219C145.447 270.931 135.157 269.748 124.483 267.867Z" fill="#7B3311"/>
<path d="M103.07 186.267C112.95 191.058 122.163 190.6 131.143 183.536C129.725 185.247 128.329 188.015 126.208 188.786C118.392 191.628 110.484 191.445 102.943 187.434C102.799 187.358 102.889 186.841 103.07 186.267Z" fill="#80230D"/>
<path d="M96.58 151.591C91.9822 158.662 90.3824 166.279 93.6764 174.984C89.6525 172.39 90.1558 167.867 90.7017 163.903C91.3137 159.458 90.5766 153.98 96.58 151.591Z" fill="#80230D"/>
<path d="M119.524 140.557C120.01 140.835 120.497 141.114 121.604 141.418C122.661 141.455 123.097 141.467 123.534 141.478C123.534 141.478 123.543 141.461 123.532 141.467C125.12 142.636 126.718 143.8 128.405 145.294C120.975 141.402 113.236 141.622 104.968 144.545C105.776 143.747 106.983 142.886 108.377 141.76C108.564 141.497 108.554 141.467 108.925 141.471C110.385 141.144 111.473 140.812 112.56 140.481C112.56 140.481 112.543 140.45 112.988 140.47C115.463 140.512 117.494 140.534 119.524 140.557Z" fill="#80230D"/>
<path d="M138.555 174.168C140.192 167.398 140.316 160.668 136.401 153.9C141.099 157.566 142.382 167.55 138.555 174.168Z" fill="#80230D"/>
<path d="M211.546 178.38C211.326 174.6 211.321 171.028 211.256 167.007C214.525 170.42 214.335 174.448 211.546 178.38Z" fill="#80230D"/>
<path d="M93.6123 175.668C94.6089 176.769 95.5668 178.255 96.6326 180.063C95.6848 178.941 94.6291 177.497 93.6123 175.668Z" fill="#80230D"/>
<path d="M210.391 163.321C209.343 162.215 208.375 160.734 207.326 158.914C208.32 160.031 209.395 161.488 210.391 163.321Z" fill="#80230D"/>
<path d="M99.1289 183.303C100.067 183.566 100.776 184.109 101.632 184.89C100.82 184.613 99.8597 184.098 99.1289 183.303Z" fill="#80230D"/>
<path d="M96.6162 180.664C97.3479 180.921 98.0322 181.569 98.8501 182.448C98.1788 182.138 97.3738 181.597 96.6162 180.664Z" fill="#80230D"/>
<path d="M136.44 153.294C135.756 152.828 135.101 152.007 134.355 150.877C134.999 151.358 135.733 152.148 136.44 153.294Z" fill="#80230D"/>
<path d="M211.42 166.272C211.005 165.85 210.654 165.052 210.246 163.914C210.62 164.348 211.051 165.121 211.42 166.272Z" fill="#80230D"/>
<path d="M130.268 146.515C129.785 146.592 129.237 146.333 128.54 145.806C128.994 145.752 129.6 145.965 130.268 146.515Z" fill="#80230D"/>
<path d="M104.418 144.504C104.508 144.813 104.337 145.1 103.928 145.472C103.845 145.198 104.002 144.839 104.418 144.504Z" fill="#80230D"/>
<path d="M137.302 176.295C137.202 175.793 137.457 175.171 137.999 174.375C138.076 174.859 137.866 175.517 137.302 176.295Z" fill="#80230D"/>
<path d="M204.893 155.638C204.369 155.642 203.977 155.34 203.484 154.809C203.93 154.83 204.478 155.081 204.893 155.638Z" fill="#8E4116"/>
<path d="M183.483 151.684C183.284 152.01 182.753 152.255 181.918 152.558C182.127 152.279 182.64 151.941 183.483 151.684Z" fill="#8E4116"/>
<path d="M206.422 157.271C206.048 157.287 205.686 156.966 205.186 156.442C205.509 156.471 205.971 156.702 206.422 157.271Z" fill="#8E4116"/>
<path d="M101.754 185.436C102.056 185.278 102.419 185.417 102.826 185.842C102.519 185.997 102.167 185.865 101.754 185.436Z" fill="#80230D"/>
<path d="M203.358 154.366C203.138 154.462 202.824 154.292 202.401 153.874C202.616 153.785 202.941 153.943 203.358 154.366Z" fill="#8E4116"/>
<path d="M181.435 152.622C181.505 152.835 181.315 153.138 180.865 153.529C180.795 153.315 180.985 153.014 181.435 152.622Z" fill="#8E4116"/>
<path d="M134.364 150.417C134.128 150.494 133.823 150.283 133.423 149.799C133.651 149.727 133.973 149.929 134.364 150.417Z" fill="#80230D"/>
<path d="M132.376 148.394C132.133 148.49 131.805 148.301 131.376 147.842C131.613 147.75 131.952 147.93 132.376 148.394Z" fill="#80230D"/>
<path d="M131.345 147.438C131.072 147.57 130.726 147.403 130.288 146.959C130.555 146.835 130.913 146.987 131.345 147.438Z" fill="#80230D"/>
<path d="M133.386 149.379C133.154 149.462 132.838 149.266 132.42 148.802C132.646 148.722 132.974 148.91 133.386 149.379Z" fill="#80230D"/>
<path d="M207.298 158.455C207.071 158.512 206.803 158.287 206.449 157.804C206.661 157.756 206.959 157.965 207.298 158.455Z" fill="#8E4116"/>
<path d="M37.9213 377.454C37.4686 377.105 37.2864 376.838 36.7753 376.543C36.4718 376.105 36.2894 375.836 35.7726 375.545C35.0884 374.814 34.6333 374.178 33.8618 373.494C30.4203 370.197 27.2953 366.947 23.8568 363.573C21.4268 360.537 19.3102 357.623 16.8749 354.577C15.9735 352.718 15.3106 351.014 14.8241 349.262C13.6533 345.044 12.0056 340.859 11.5855 336.559C11.0554 331.138 11.5542 325.616 11.5729 319.791C12.2119 318.023 12.8872 316.601 13.5629 314.821C14.8902 312.676 16.2172 310.887 17.5437 308.775C17.8704 307.988 18.1974 307.526 18.5436 306.763C19.3612 306.127 20.1598 305.789 21.284 305.402C28.5382 312.837 35.3441 320.442 42.4563 327.749C45.2874 330.658 48.7959 332.907 52.2595 335.762C53.2876 337.421 53.8709 338.924 54.8493 340.097C58.3344 344.279 61.954 348.348 65.3639 352.582C65.46 352.803 65.7147 352.901 65.912 353.085C65.8545 353.171 65.7481 352.994 65.9074 353.395C67.1736 354.012 68.2725 354.344 69.3893 354.424C74.9779 354.825 80.6687 354.636 86.1378 355.653C92.5392 356.844 94.4957 361.524 91.9468 367.435C91.5934 368.254 91.0745 369.828 91.2583 369.931C94.9122 371.969 91.8262 375.079 92.5604 377.527C91.2523 379.895 89.9444 382.263 88.6305 384.967C87.7057 386.137 86.7112 386.903 85.8882 387.823C85.0142 388.799 84.5054 390.551 83.4881 390.878C76.6201 393.083 73.5794 400.118 67.5665 403.208C65.5043 404.268 62.7975 404.074 59.9557 404.421C58.4238 403.415 57.3215 402.44 55.8908 401.448C54.7853 400.454 54.0084 399.477 52.893 398.468C52.4902 398.09 52.3137 397.816 51.7914 397.527C50.0923 394.611 48.7349 391.72 47.1245 388.978C46.0067 387.074 44.5409 385.375 42.884 383.52C42.3374 380.598 41.8734 377.929 37.9213 377.454Z" fill="#984A1C"/>
<path d="M16.4819 544.778C16.8027 544.26 17.0774 544.083 17.4427 543.673C17.8097 543.266 18.086 543.092 18.4528 542.685C19.8415 541.679 21.1397 540.907 22.4832 539.786C22.8031 539.261 23.0777 539.085 23.4466 538.677C23.5406 538.445 24.035 538.444 24.2806 538.417C24.9692 542.1 26.7154 544.092 30.729 544.779C36.0415 545.688 41.6718 546.615 46.3176 549.112C53.516 552.982 58.3669 549.292 63.6474 545.744C63.9198 545.561 64.2522 545.356 64.3767 545.08C68.1797 536.65 75.7314 538.562 82.566 538.436C85.3626 538.384 88.1567 538.181 91.2428 537.747C91.5335 537.448 91.9966 537.41 92.2275 537.391C90.9065 542.161 89.2409 546.918 87.8875 551.763C87.5753 552.881 88.9841 554.72 88.4785 555.498C86.7624 558.138 85.0111 561.646 82.4258 562.659C75.5539 565.35 68.2959 567.155 61.0802 568.834C56.5979 569.877 51.9245 570.185 47.3162 570.582C39.4492 571.26 31.5665 571.755 23.6891 572.309C22.5315 572.39 21.3364 572.554 20.2108 572.366C15.6577 571.608 11.0553 570.99 6.60629 569.811C2.81967 568.807 3.02548 565.133 2.74521 562.113C2.62912 560.86 3.25216 559.539 3.53476 557.843C4.52792 556.346 5.52548 555.253 6.53232 553.804C6.89193 553.389 7.16293 553.209 7.44735 552.678C7.88375 552.375 8.15536 552.196 8.44711 551.677C8.81466 551.268 9.09054 551.091 9.4515 550.677C11.8363 548.667 14.1361 546.893 16.4819 544.778Z" fill="#35352E"/>
<path d="M49.9408 439.447C49.5502 439.006 49.5713 438.567 49.5775 437.799C49.7452 437.48 49.9279 437.491 50.3851 437.482C56.032 439.004 61.407 440.535 66.7719 442.1C67.4022 442.284 67.9639 442.691 68.5795 442.94C76.1591 446.005 76.7164 446.092 75.4244 454.106C73.4065 466.623 71.4563 479.279 67.8013 491.369C63.7943 504.623 61.4691 505.191 48.1587 502.148C46.0243 501.661 43.9756 500.799 41.8872 500.109C42.0054 499.656 42.1235 499.202 42.2417 498.748C44.7813 499.362 47.4053 499.745 49.8445 500.633C57.6882 503.492 62.6796 500.715 64.6139 492.701C66.4653 485.03 68.8585 477.491 70.8372 469.848C71.4469 467.492 71.4763 464.987 71.8962 461.52C62.9874 468.516 54.4161 471.58 44.1196 464.244C49.0496 465.088 53.0122 466.232 57.0033 466.342C63.2402 466.515 73.238 456.592 73.2502 450.423C73.2529 449.074 72.0161 446.944 70.8456 446.498C64.0985 443.928 57.2 441.756 49.9408 439.447Z" fill="#62631A"/>
<path d="M43.0112 461.9C43.0667 461.867 42.9556 461.933 43.0112 461.9Z" fill="#62631A"/>
<path d="M65.9077 353.395C66.6145 352.922 67.4807 352.85 68.9154 352.568C70.1249 352.313 70.7656 352.269 71.4065 352.224C72.202 352.26 72.9974 352.296 74.4172 352.336C75.0414 352.341 75.4972 352.296 75.4972 352.296C79.5756 352.694 83.6879 352.883 87.724 353.541C93.4877 354.48 95.7965 358.322 94.8517 364.182C94.4364 366.758 94.7819 369.448 94.5134 372.059C94.338 373.765 93.6802 375.421 92.8995 377.314C91.8265 375.079 94.9126 371.969 91.2587 369.931C91.0748 369.828 91.5938 368.254 91.9471 367.435C94.4961 361.524 92.5396 356.844 86.1382 355.653C80.6691 354.636 74.9783 354.825 69.3896 354.424C68.2728 354.344 67.1739 354.012 65.9077 353.395Z" fill="#7F3D14"/>
<path d="M71.298 351.978C70.7654 352.268 70.1246 352.313 69.1631 352.318C71.6478 341.257 74.4531 330.236 77.3394 318.853C77.6813 320.272 78.4982 322.187 78.1029 323.807C76.7134 329.501 74.7799 335.061 73.3053 340.737C72.3689 344.342 71.8795 348.063 71.298 351.978Z" fill="#A71810"/>
<path d="M201.748 348.409C201.489 347.327 201.582 346.239 201.524 344.851C202.221 344.764 203.068 344.978 204.222 345.324C203.719 346.439 202.91 347.421 201.748 348.409Z" fill="#80230D"/>
<path d="M198.463 341.227C197.197 340.431 195.934 339.277 194.531 337.833C195.749 338.651 197.108 339.759 198.463 341.227Z" fill="#80230D"/>
<path d="M77.4488 318.285C77.0813 318.547 76.6913 318.507 76.0028 318.499C75.782 317.981 75.8594 317.43 75.9368 316.878C76.4332 317.246 76.9298 317.614 77.4488 318.285Z" fill="#A71810"/>
<path d="M192.421 335.493C192.475 335.688 192.061 335.55 191.843 335.566C191.873 335.487 192.12 335.392 192.421 335.493Z" fill="#80230D"/>
<path d="M194.399 337.352C194.197 337.414 193.901 337.212 193.492 336.761C193.688 336.704 193.997 336.896 194.399 337.352Z" fill="#80230D"/>
<path d="M199.391 342.356C199.188 342.416 198.897 342.211 198.5 341.755C198.697 341.7 199 341.896 199.391 342.356Z" fill="#80230D"/>
<path d="M200.391 343.356C200.184 343.421 199.886 343.221 199.48 342.767C199.682 342.706 199.99 342.899 200.391 343.356Z" fill="#80230D"/>
<path d="M201.399 344.362C201.188 344.429 200.887 344.228 200.479 343.77C200.684 343.707 200.996 343.901 201.399 344.362Z" fill="#80230D"/>
<path d="M75.4129 352.16C75.497 352.295 75.0412 352.341 74.815 352.31C74.7652 351.918 75.0117 351.833 75.4129 352.16Z" fill="#A71810"/>
<path d="M149.223 558.135C149.866 558.009 150.399 558.238 151.219 558.518C151.506 558.569 151.627 558.948 151.688 559.137C150.869 559.048 149.991 558.769 149.223 558.135Z" fill="white"/>
<path d="M152.323 559.306C152.896 559.438 153.219 559.6 153.692 559.989C153.194 560.089 152.546 559.963 151.74 559.53C151.745 559.259 151.909 559.297 152.323 559.306Z" fill="white"/>
<path d="M217.54 539.446C217.457 539.487 217.377 539.532 217.425 539.517C217.552 539.457 217.543 539.45 217.54 539.446Z" fill="#12110F"/>
<path d="M193.277 357.328C193.776 356.348 194.636 355.297 195.815 354.17C195.302 355.148 194.47 356.202 193.277 357.328Z" fill="#80230D"/>
<path d="M196.46 354.078C196.397 353.575 196.67 353.081 197.211 352.458C197.252 352.914 197.023 353.5 196.46 354.078Z" fill="#80230D"/>
<path d="M197.673 352.315C197.612 352.12 197.812 351.819 198.259 351.395C198.315 351.584 198.124 351.897 197.673 352.315Z" fill="#80230D"/>
<path d="M178.138 568.077C192.816 568.762 207.45 569.855 222.791 571.125C223.851 571.138 224.204 570.973 224.558 570.808C224.989 570.73 225.419 570.653 226.177 570.617C225.339 571.25 224.136 572.416 223.014 572.344C208.252 571.396 193.501 570.276 178.75 569.167C178.516 569.149 178.312 568.722 178.138 568.077Z" fill="white"/>
<path d="M229.836 570.835C231.896 570.093 234.217 569.609 236.921 569.038C234.903 569.665 232.5 570.379 229.836 570.835Z" fill="white"/>
<path d="M166.991 565.216C168.605 565.356 170.209 565.858 172.16 566.475C170.665 566.253 168.823 565.915 166.991 565.216Z" fill="white"/>
<path d="M155.861 561.342C157.304 561.51 158.832 562.049 160.613 562.823C159.226 562.61 157.586 562.161 155.861 561.342Z" fill="white"/>
<path d="M174.725 567.415C175.732 567.308 176.536 567.415 177.525 567.756C176.647 567.871 175.584 567.75 174.725 567.415Z" fill="white"/>
<path d="M163.16 564.087C164.27 563.989 165.317 564.286 166.586 564.829C165.571 564.878 164.334 564.68 163.16 564.087Z" fill="white"/>
<path d="M237.611 569.225C238.049 568.818 238.87 568.504 240.019 568.088C239.563 568.43 238.779 568.874 237.611 569.225Z" fill="white"/>
<path d="M242.515 567.161C242.558 566.799 242.955 566.508 243.545 566.056C243.448 566.341 243.159 566.787 242.515 567.161Z" fill="white"/>
<path d="M240.557 568.201C240.705 567.815 241.209 567.498 242 567.071C241.829 567.397 241.372 567.834 240.557 568.201Z" fill="white"/>
<path d="M153.807 560.422C154.28 560.278 154.875 560.466 155.683 560.884C155.24 560.993 154.585 560.874 153.807 560.422Z" fill="white"/>
<path d="M160.935 563.245C161.396 563.071 161.903 563.252 162.625 563.595C162.22 563.705 161.6 563.653 160.935 563.245Z" fill="white"/>
<path d="M146.742 556.511C146.963 556.38 147.314 556.519 147.825 556.896C147.613 557.017 147.243 556.899 146.742 556.511Z" fill="white"/>
<path d="M147.896 557.266C148.174 557.027 148.448 557.168 148.836 557.556C148.634 557.68 148.281 557.628 147.896 557.266Z" fill="white"/>
<path d="M6.1084 572.125C22.6831 574.93 39.2532 574.187 55.8306 572.085C57.6445 571.855 59.4429 571.502 61.6411 571.157C61.6689 571.581 61.3662 572.398 60.9307 572.476C46.2306 575.119 31.462 576.683 16.5437 574.598C13.0258 574.106 9.56238 573.224 6.1084 572.125Z" fill="white"/>
<path d="M3.78027 571.471C4.203 571.291 4.76917 571.412 5.5354 571.739C5.13159 571.888 4.52747 571.83 3.78027 571.471Z" fill="white"/>
<path d="M224.274 570.729C224.205 570.972 223.851 571.137 223.214 571.185C223.284 570.929 223.638 570.79 224.274 570.729Z" fill="#ECE3D7"/>
<path d="M114.524 152.55C114.979 152.499 115.434 152.448 116.253 152.814C117.372 153.813 118.06 154.521 118.89 154.96C127.787 159.667 128.856 167.282 121.627 174.021C120.906 174.693 120.775 175.997 120.371 177.007C120.371 177.007 119.937 177.122 119.438 176.804C116.426 176.581 113.913 176.676 111.4 176.771C111.4 176.771 111.141 177.135 111.144 176.751C110.242 175.092 109.617 173.289 108.383 172.634C104.038 170.327 104.395 166.7 105.419 163.026C106.197 160.237 107.591 157.62 108.712 154.927C108.712 154.927 108.95 154.959 109.201 155.234C109.71 155.224 109.967 154.938 110.224 154.652C110.03 154.644 109.836 154.636 109.943 154.553C112.252 155.127 114.211 155.665 114.524 152.55Z" fill="#32322F"/>
<path d="M120.652 176.861C120.775 175.997 120.906 174.693 121.627 174.021C128.856 167.282 127.787 159.667 118.89 154.96C118.06 154.521 117.372 153.813 116.59 152.89C123.118 153.527 127.476 157.369 128.488 163.064C129.41 168.244 126.643 173.244 120.652 176.861Z" fill="#12110F"/>
<path d="M108.327 154.874C107.591 157.62 106.197 160.237 105.419 163.026C104.394 166.7 104.037 170.327 108.383 172.634C109.617 173.289 110.241 175.092 110.928 176.694C100.97 171.821 99.7808 162.281 108.327 154.874Z" fill="#12110F"/>
<path d="M111.563 177.08C113.913 176.676 116.426 176.581 119.31 176.62C117.03 176.966 114.378 177.177 111.563 177.08Z" fill="#12110F"/>
<path d="M114.196 152.507C114.21 155.665 112.252 155.127 109.898 154.265C110.991 153.523 112.429 152.994 114.196 152.507Z" fill="#12110F"/>
<path d="M109.852 154.631C109.967 154.938 109.71 155.224 109.234 155.35C109.17 154.996 109.325 154.802 109.852 154.631Z" fill="#12110F"/>
<path d="M197.822 166.21C201.19 173.433 198.859 180.372 191.974 183.613C184.828 186.977 177.097 183.93 173.462 175.918C173.469 175.521 173.555 175.438 173.873 175.408C175.762 176.677 177.667 177.73 178.842 179.321C182.702 184.551 188.42 184.798 193.238 180.469C197.69 176.469 198.447 171.833 197.618 166.385C197.685 166.326 197.822 166.21 197.822 166.21Z" fill="#12110F"/>
<path d="M173.424 175.561C171.619 169.67 173.544 164.388 178.648 161.145C183.794 157.876 190.733 158.761 195.983 163.774C195.795 164.286 195.65 164.387 195.16 164.408C190.928 161.78 187.097 158.792 182.081 161.421C176.466 164.365 173.228 168.838 173.554 175.438C173.554 175.438 173.468 175.521 173.424 175.561Z" fill="#12110F"/>
<path d="M196.182 164.079C196.856 164.538 197.289 165.102 197.771 165.938C197.822 166.21 197.685 166.326 197.305 166.353C196.452 165.75 195.979 165.119 195.506 164.487C195.65 164.387 195.795 164.286 196.182 164.079Z" fill="#12110F"/>
<path d="M201.397 134.141C200.436 134.284 199.234 134.151 197.794 133.745C198.756 133.603 199.956 133.734 201.397 134.141Z" fill="#96481B"/>
<path d="M204.456 135.176C204.062 135.272 203.486 135.124 202.736 134.729C203.132 134.631 203.703 134.781 204.456 135.176Z" fill="#96481B"/>
<path d="M209.423 137.161C209.027 137.237 208.452 137.074 207.72 136.645C208.124 136.561 208.684 136.742 209.423 137.161Z" fill="#96481B"/>
<path d="M207.421 136.17C207.037 136.263 206.473 136.121 205.738 135.737C206.125 135.641 206.683 135.788 207.421 136.17Z" fill="#96481B"/>
<path d="M119.292 140.248C117.494 140.535 115.463 140.512 112.998 140.485C114.729 140.299 116.895 140.119 119.292 140.248Z" fill="#96481B"/>
<path d="M112.193 140.469C111.473 140.812 110.385 141.144 108.934 141.476C109.656 141.137 110.74 140.797 112.193 140.469Z" fill="#96481B"/>
<path d="M123.4 141.245C123.098 141.466 122.661 141.455 121.899 141.426C122.137 141.276 122.702 141.145 123.4 141.245Z" fill="#96481B"/>
<path d="M199.081 149.997C199.139 149.963 199.023 150.031 199.081 149.997Z" fill="#96481B"/>
<path d="M65.3638 352.582C65.5225 352.46 65.8406 352.652 65.905 352.826C65.7146 352.901 65.4598 352.803 65.3638 352.582Z" fill="#7F3D14"/>
<path d="M195.16 164.408C195.979 165.119 196.452 165.75 197.238 166.412C198.447 171.833 197.69 176.468 193.238 180.469C188.42 184.798 182.702 184.551 178.842 179.321C177.667 177.73 175.762 176.677 173.873 175.408C173.228 168.839 176.466 164.365 182.081 161.421C187.097 158.792 190.928 161.78 195.16 164.408Z" fill="#32322F"/>
</svg>
