<svg viewBox="0 0 333 614" fill="none" xmlns="http://www.w3.org/2000/svg">
<path d="M173.58 331.898C172.593 327.587 170.793 323.272 170.811 318.966C170.839 312.582 172.157 306.204 172.919 299.874C164.857 300.246 156.539 300.95 148.221 300.948C128.255 300.944 108.935 297.121 90.9221 288.514C75.327 281.062 62.713 269.623 54.1324 254.583C46.1732 240.633 39.3443 226.037 32.0671 211.7C31.7192 211.015 31.85 210.086 32.134 208.902C32.8863 208.708 33.2624 208.884 33.8612 209.346C36.6727 210.866 39.2973 212.692 41.9684 209.075C43.3431 208.806 44.3489 208.64 45.4612 208.701C45.9113 208.686 46.2549 208.443 46.8371 208.086C47.4228 207.96 47.7699 207.947 48.3856 207.875C48.9574 207.623 49.2605 207.43 49.8599 207.092C51.0481 206.378 51.9399 205.81 52.7767 205.237C52.7217 205.233 52.7754 205.329 53.085 205.294C53.8625 204.883 54.3304 204.507 54.745 204.115C54.6917 204.1 54.6963 204.21 54.9765 204.128C55.4562 203.748 55.6559 203.45 55.7894 203.163C55.7233 203.174 55.7929 203.289 56.0904 203.237C56.5558 202.852 56.7237 202.519 56.8669 202.277C56.8423 202.369 57.0258 202.415 57.2138 202.362C57.4018 202.31 57.6167 201.984 57.9147 201.854C59.3213 200.144 60.43 198.563 61.6932 196.776C62.2259 196.002 62.6039 195.434 62.9819 194.866C64.5309 195.922 66.6078 196.637 67.5464 198.088C76.0719 211.269 84.3986 224.578 93.2433 238.17C94.0477 238.903 94.3923 239.316 94.6269 240.044C95.3467 240.709 96.1765 241.059 97.0517 241.459C97.0971 241.507 97.2141 241.571 97.0653 241.91C97.8542 242.755 98.7918 243.26 99.9769 243.843C100.56 243.986 100.895 244.052 101.408 244.385C102.264 245.165 102.943 245.678 103.63 246.53C104.361 247.098 105.085 247.327 106.113 247.668C107.154 248.217 107.892 248.654 108.792 249.309C109.291 249.646 109.627 249.765 110.218 249.891C110.905 250.122 111.338 250.347 111.752 250.929C112.56 252.092 113.255 253.322 114.24 253.634C120.194 255.519 126.136 257.58 132.237 258.815C136.878 259.754 141.754 259.852 146.518 259.787C152.074 259.711 157.687 259.445 163.157 258.546C170.04 257.414 176.804 255.557 183.674 254.15C183.815 254.335 183.9 254.384 183.985 254.432C183.865 254.29 183.745 254.148 183.625 253.682C183.623 253.141 183.622 252.925 183.717 252.524C184.04 252.179 184.291 252.069 184.962 251.931C185.78 249.916 186.22 247.987 186.619 246.05C187.309 242.701 187.975 239.347 189.019 236.039C193.447 237.716 197.505 239.351 201.871 240.975C202.382 240.943 202.585 240.921 202.741 240.913C202.693 240.926 202.701 240.827 202.798 241.087C203.196 241.55 203.496 241.751 204.023 241.971C204.249 241.989 204.649 242.202 204.82 242.397C205.317 242.692 205.644 242.792 206.15 242.88C206.331 242.868 206.623 243.082 206.679 243.418C208.642 244.436 209.887 248.261 213.03 244.997C214.498 245.106 215.562 245.215 216.681 245.601C217.385 245.868 218.035 245.856 219.015 245.811C219.772 245.882 220.199 245.986 220.72 246.48C225.505 248.224 230.2 249.68 234.976 246.015C236.068 245.865 236.803 245.807 237.575 246.048C238.615 245.941 239.618 245.536 240.932 245.027C241.679 244.878 242.113 244.832 242.595 245.109C243.031 245.8 243.42 246.168 243.81 246.535C244.097 245.74 244.383 244.944 244.601 244.099C244.531 244.049 244.556 243.879 244.925 243.88C246.709 243.227 248.125 242.572 249.665 241.86C249.264 240.489 248.783 239.483 248.718 238.45C248.649 237.352 248.974 236.229 249.502 235.063C254.167 234.358 258.457 233.706 262.83 233.375C263.432 234.054 263.949 234.414 264.033 234.831C260.35 235.066 257.075 235.046 253.861 235.48C250.743 235.902 249.865 237.755 251.74 241.543C256.189 239.251 260.4 237.081 264.854 234.968C265.254 235.085 265.41 235.143 265.659 235.461C266.314 236.167 266.876 236.615 267.58 237.464C268.37 243.767 269.017 249.668 269.748 256.328C270.34 256.637 271.924 257.463 273.521 258.206C273.534 258.122 273.365 258.139 273.488 258.387C273.939 258.784 274.267 258.933 274.596 259.047C274.597 259.011 274.537 259.048 274.737 259.271C275.477 259.745 276.018 259.996 276.559 260.175C276.559 260.104 276.421 260.139 276.59 260.429C278.566 261.969 280.374 263.219 282.258 264.444C282.334 264.418 282.239 264.288 282.349 264.556C282.807 264.989 283.155 265.154 283.515 265.219C283.528 265.12 283.329 265.139 283.447 265.4C283.895 265.847 284.224 266.032 284.556 266.156C284.557 266.095 284.439 266.126 284.587 266.408C285.832 267.624 286.93 268.557 288.103 269.493C288.179 269.494 288.227 269.35 288.305 269.625C288.719 270.072 289.054 270.245 289.414 270.314C289.438 270.21 289.228 270.247 289.334 270.523C289.773 270.993 290.106 271.188 290.452 271.273C290.466 271.164 290.249 271.206 290.356 271.482C290.79 271.963 291.118 272.168 291.42 272.294C291.396 272.214 291.277 272.331 291.377 272.557C291.668 273.07 291.929 273.26 292.319 273.297C292.377 273.242 292.22 273.271 292.321 273.524C292.692 274.009 292.962 274.24 293.196 274.468C293.16 274.463 293.163 274.536 293.337 274.809C295.218 276.379 296.925 277.677 298.626 278.994C298.62 279.012 298.657 279 298.686 279.342C299.004 280.518 299.292 281.352 299.661 282.473C300.136 283.149 300.531 283.536 301.177 284.02C301.828 284.462 302.228 284.807 302.628 285.153C305.148 288.799 307.692 292.428 310.183 296.093C317.362 306.659 324.5 317.146 326.945 330.163C328.848 340.296 326.207 349.427 321.507 357.845C314.201 370.928 305.136 382.778 292.346 391.761C290.149 387.158 288.413 382.524 286.655 377.653C286.632 377.416 286.521 376.953 286.591 376.574C286.053 373.783 285.445 371.371 285.062 368.729C284.85 367.877 284.413 367.255 283.966 366.504C283.955 366.377 284.159 366.221 284.285 365.895C283.996 365.126 283.582 364.683 283.223 364.186C283.278 364.132 283.335 364.275 283.398 363.921C283.037 363.075 282.615 362.582 281.99 361.899C281.702 361.159 281.616 360.612 281.741 359.9C281.48 358.852 281.01 357.969 280.563 356.708C278.307 352.137 280.055 348.988 282.485 345.333C284.55 342.225 286.702 337.701 285.937 334.49C284.302 327.625 280.802 321.205 278.066 314.603C277.587 314.758 277.109 314.913 276.63 315.068C276.63 315.998 276.72 316.938 276.616 317.855C275.929 323.921 276.887 330.498 271.361 335.089C271.814 335.421 272.267 335.753 272.553 336.362C271.785 336.866 271.184 337.092 270.306 337.364C269.519 337.601 269.01 337.792 268.107 338.007C264.761 339.186 261.807 340.341 258.77 341.442C258.686 341.388 258.786 341.215 258.371 341.15C256.633 341.612 255.311 342.141 253.813 342.597C253.638 342.524 253.716 342.154 253.268 342.112C245.102 342.997 237.385 343.926 229.285 344.934C228.129 344.962 227.354 344.91 226.305 344.598C218.534 343.604 211.037 342.871 203.581 342.345C203.62 342.552 203.23 342.709 203.195 342.284C201.263 341.633 199.365 341.408 197.544 341.277C197.621 341.372 197.437 341.533 197.342 341.159C190.975 338.569 184.702 336.354 178.49 334.106C178.551 334.073 178.593 334.206 178.414 333.908C177.811 333.441 177.389 333.27 176.885 333.152C176.805 333.205 176.653 333.088 176.53 332.847C176.106 332.419 175.804 332.232 175.546 332.045C175.589 332.045 175.573 332.13 175.534 331.959C175.234 331.745 174.973 331.701 174.413 331.644C173.936 331.72 173.758 331.809 173.58 331.898ZM244.117 276.081C256.311 274.411 264.802 268.391 264.646 262.901C259.866 265.139 254.816 268.858 249.298 269.786C239.558 271.422 229.359 272.775 219.676 271.594C210.399 270.463 201.425 266.236 192.555 262.765C190.056 261.787 188.391 258.681 185.828 256.014C185.919 262.848 189.496 266.454 194.009 269.124C209.414 278.238 226.276 277.789 244.117 276.081Z" fill="#F4EEE3"/>
<path d="M286.521 376.953C286.521 376.953 286.633 377.416 286.633 378.053C291.319 394.387 296.26 410.012 300.6 425.802C303.703 437.09 306 448.6 308.266 460.011C306.76 460.247 305.56 460.294 304.545 460.751C298.667 463.397 292.983 466.549 286.954 468.77C271.322 474.529 255.126 478.016 238.43 477.896C226.69 477.812 214.913 477.104 203.235 475.884C189.734 474.473 176.297 471.971 163.813 466.462C155.121 462.626 146.986 457.526 138.605 452.567C138.864 450.534 139.172 448.93 139.367 447.312C139.859 443.229 140.301 439.139 140.762 435.053C141.062 433.54 141.363 432.027 142.215 430.115C143.331 428.542 144.071 427.42 144.434 426.187C148.209 413.387 151.955 400.578 155.632 387.75C156.668 384.136 157.453 380.451 158.353 376.799C158.353 376.799 158.333 376.907 158.652 376.778C161.17 370.732 163.368 364.815 165.566 358.898C165.566 358.898 165.589 358.98 165.84 358.845C166.243 358.097 166.394 357.483 166.546 356.87C166.546 356.87 166.572 356.973 166.819 356.847C167.23 356.109 167.394 355.496 167.558 354.884C167.558 354.884 167.579 354.97 167.806 354.873C168.167 354.428 168.301 354.081 168.434 353.733C168.434 353.733 168.449 353.901 168.718 353.789C169.451 352.376 169.915 351.076 170.379 349.776C170.379 349.776 170.376 349.914 170.66 349.796C171.074 349.035 171.204 348.392 171.333 347.75C171.333 347.75 171.448 347.815 171.749 347.723C172.61 345.453 173.17 343.274 173.983 341.306C175.207 342.763 175.93 344.396 177.184 345.195C195.63 356.945 216.474 359.578 237.569 359.511C246.966 359.481 256.413 356.502 265.726 354.377C272.502 352.831 273.31 351.171 273.7 343.986C273.774 342.63 274.866 341.329 275.597 340.452C275.624 346.134 274.999 351.477 278.526 356.113C279.162 357.499 280.021 358.706 280.847 359.893C280.812 359.874 280.882 359.838 280.803 360.24C282.657 366.08 284.589 371.517 286.521 376.953Z" fill="#2B8C8A"/>
<path d="M94.737 239.73C94.3924 239.317 94.0478 238.903 93.5829 238.244C93.5245 235.946 93.5864 233.893 94.1061 231.294C94.9018 229.879 95.5057 229.018 95.5371 228.137C95.9423 216.762 96.4077 205.386 96.5727 194.007C96.7583 181.207 96.4815 168.4 96.7326 155.602C96.924 145.845 97.5329 136.092 98.1242 126.347C98.7723 115.666 98.8081 104.859 100.611 94.3638C102.209 85.065 105.893 76.1283 108.581 67.0094C108.976 65.6669 108.952 64.2006 109.122 62.7916C109.122 62.7916 108.989 62.5672 109.39 62.6125C111.024 59.7075 112.258 56.7573 113.493 53.8071C113.493 53.8071 113.528 53.9252 113.779 53.8843C114.369 52.8004 114.708 51.7574 115.047 50.7144C115.047 50.7144 115.136 50.6844 115.529 50.7266C116.464 49.4707 117.007 48.1725 117.549 46.8743C117.549 46.8743 117.587 46.9518 117.847 46.9791C118.295 46.3484 118.484 45.6903 118.673 45.0322C120.461 42.4671 122.249 39.902 124.492 37.3327C125.158 36.8362 125.369 36.3439 125.58 35.8515C126.328 34.95 127.076 34.0484 128.391 32.9554C129.147 32.4256 129.335 32.0872 129.523 31.7488C129.523 31.7488 129.539 31.9284 129.743 31.846C130.137 31.4249 130.327 31.0863 130.517 30.7477C130.517 30.7477 130.538 30.9273 130.74 30.8453C131.137 30.4306 131.331 30.0979 131.525 29.7653C131.525 29.7653 131.555 29.9376 131.801 29.8562C132.386 29.471 132.724 29.1671 133.062 28.8632C133.181 28.5581 133.395 28.4599 134.157 28.6432C134.937 28.4158 135.266 28.1139 135.594 27.812C135.317 27.7608 135.039 27.7095 135.114 27.5364C136.047 26.4671 136.629 25.5196 137.211 24.5721C137.211 24.5721 137.622 24.6658 137.797 24.7569C141.387 23.9079 144.741 22.8969 145.165 18.5434C145.165 18.5434 145.292 18.5818 145.555 18.6461C146.054 18.405 146.292 18.0996 146.529 17.7941C146.529 17.7941 146.54 17.9101 146.881 17.9565C151.383 15.4746 155.544 12.9464 159.705 10.4181C159.705 10.4181 159.882 10.1212 160.157 10.4116C165.849 8.7652 171.265 6.82837 176.681 4.89154C181.995 3.51891 187.309 2.14629 193.263 1.06274C204.013 1.53343 214.123 1.66773 224.231 1.90987C234.453 2.15474 244.284 4.35826 253.937 7.69879C259.791 9.72462 265.84 11.1851 271.802 12.8996C271.802 12.8996 271.696 12.9318 271.79 13.1531C272.237 13.3971 272.59 13.4198 272.942 13.4425C272.942 13.4425 273.179 13.3773 273.096 13.7553C275.207 15.1123 277.402 16.0913 279.596 17.0704C281.443 18.2755 283.29 19.4806 285.406 21.2128C283.881 23.6202 282.088 25.5005 280.458 27.2092C255.676 12.7277 229.481 9.42352 202.425 15.2096C175.673 20.9308 153.201 34.1312 137.63 57.5133C123.39 78.8969 114.608 101.749 117.713 128.263C109.316 132.665 105.231 139.026 105.396 148.447C105.551 157.288 109.369 163.96 115.788 169.933C116.492 170.492 117.092 170.727 117.653 170.963C117.615 170.964 117.678 170.922 117.656 171.398C117.259 184.456 117.097 197.05 116.451 209.619C115.773 222.798 114.63 235.952 113.456 249.24C109.224 247.614 105.228 245.866 101.231 244.118C100.895 244.052 100.56 243.986 99.8333 243.597C98.6995 242.705 97.9568 242.138 97.2141 241.571C97.2141 241.571 97.0972 241.507 96.8476 241.263C95.9776 240.589 95.3573 240.16 94.737 239.73Z" fill="#3B3732"/>
<path d="M117.973 128.016C114.608 101.749 123.39 78.8969 137.63 57.5132C153.201 34.1311 175.673 20.9308 202.425 15.2096C229.481 9.42349 255.677 12.7277 280.458 27.2092C282.088 25.5004 283.881 23.6202 285.69 21.3909C290.592 19.3313 295.474 17.6074 300.367 15.914C305.77 14.044 311.163 14.1149 316.023 17.1941C320.929 20.3025 320.034 27.3193 314.75 31.9447C311.833 34.4987 309.367 37.569 306.288 40.7974C305.437 41.791 304.994 42.3936 304.237 43.1059C301.04 45.0042 301.905 46.6732 303.812 48.7324C313.474 59.1641 319.651 71.3851 321.209 85.5621C322.138 94.0136 322.134 102.568 322.549 111.075C319.105 101.221 317.329 91.1413 313.548 81.8795C298.299 44.5181 269.856 28.0445 231.171 32.3038C209.637 34.6746 190.582 43.5248 174.383 58.1771C153.275 77.2696 136.453 99.215 127.848 126.983C124.289 127.347 121.131 127.681 117.973 128.016Z" fill="#8A5487"/>
<path d="M128.25 126.953C136.453 99.215 153.275 77.2696 174.383 58.1772C190.582 43.5248 209.637 34.6747 231.171 32.3038C269.856 28.0446 298.299 44.5181 313.549 81.8795C317.329 91.1414 319.105 101.221 322.549 111.075C322.134 102.568 322.138 94.0136 321.209 85.5622C319.652 71.3851 313.475 59.1642 303.813 48.7324C301.905 46.6732 301.041 45.0042 304.651 43.0927C306.205 42.9611 307.03 42.9522 307.855 42.9433C308.198 42.9249 308.448 43.0676 308.645 43.9514C309.179 44.9056 309.675 45.2799 310.171 45.6541C310.171 45.6541 309.992 45.6806 309.932 45.9757C310.519 46.8137 311.165 47.3566 311.812 47.8994C311.812 47.8994 311.715 47.9167 311.7 48.2243C312.179 48.9084 312.671 49.285 313.164 49.6616C313.164 49.6616 312.983 49.8009 312.955 50.0046C313.246 50.4414 313.564 50.6745 313.882 50.9076C313.882 50.9076 313.739 50.9211 313.713 51.2072C314.402 52.3048 315.117 53.1163 315.833 53.9279C315.833 53.9279 315.712 53.9372 315.676 54.2858C316.471 55.6032 317.303 56.572 318.134 57.5408C318.134 57.5408 318.09 57.6847 317.998 57.9461C318.185 58.4605 318.463 58.7134 318.741 58.9664C318.741 58.9664 318.656 58.9582 318.689 59.2443C319.061 60.0121 319.4 60.4938 319.738 60.9756C319.738 60.9756 319.652 60.9623 319.674 61.2996C320.172 62.3468 320.648 63.0566 321.124 63.7664C321.124 63.7664 320.956 63.8384 320.847 64.1259C321.436 65.5863 322.134 66.7593 322.832 67.9323C322.832 67.9323 322.706 67.9346 322.688 68.2791C323.527 70.2344 324.383 71.8451 325.239 73.4558C325.239 73.4558 325.232 73.7049 324.987 74.1469C326.353 81.7238 327.964 88.8587 329.301 96.2896C328.901 98.223 328.626 99.8644 328.671 101.497C328.953 111.902 329.307 122.305 329.632 132.708C329.701 134.915 329.931 137.254 326.588 137.041C326.605 137.028 326.606 137.06 326.486 136.815C326.053 136.398 325.739 136.227 325.026 136.037C321.615 135.696 318.605 135.373 315.572 134.624C313.586 123.438 312.517 112.418 309.484 101.969C301.917 75.9079 285.712 57.7799 258.74 50.6177C253.518 49.2311 248.254 48.0028 242.918 46.6789C241.559 47.3474 239.871 48.8319 238.09 48.9547C215.642 50.5014 197.676 61.1488 181.913 76.3127C167.05 90.6097 155.542 107.534 144.344 124.683C142.759 127.111 141.48 129.738 140.331 131.788C135.883 130.008 132.067 128.481 128.25 126.953Z" fill="#3A352F"/>
<path d="M128.49 582.802C131.306 580.563 134.613 578.725 136.834 576.001C141.351 570.459 145.434 564.54 149.366 558.559C150.632 556.633 150.863 554.027 151.978 551.147C153.474 546.158 154.74 541.791 155.606 537.345C157.703 526.581 159.614 515.781 161.964 505.035C175.376 511.422 189.507 512.137 203.614 513.441C203.633 515.294 203.645 516.719 203.657 518.144C201.861 530.997 200.101 543.855 198.244 556.7C197.724 560.293 196.918 563.844 195.729 567.875C190.263 572.473 185.532 576.915 180.315 580.685C169.527 588.481 157.428 592.841 143.991 591.874C137.637 591.416 130.829 590.629 128.49 582.802Z" fill="#AA5B2A"/>
<path d="M280.515 517.971C280.574 518.408 280.634 518.845 280.419 519.86C281.21 531.486 281.847 542.601 283.528 553.555C284.333 558.802 287.115 563.747 289.002 568.829C289.002 568.829 288.858 568.845 288.808 569.138C289.199 569.862 289.642 570.294 290.084 570.726C290.084 570.726 289.951 570.866 289.921 571.082C290.21 571.508 290.527 571.719 290.844 571.93C290.844 571.93 290.716 571.937 290.712 572.223C291.151 572.936 291.593 573.362 292.036 573.789C292.036 573.789 291.876 573.77 291.832 574.085C292.798 575.253 293.808 576.105 294.818 576.958C295.146 576.959 295.395 577.1 295.62 577.969C296.771 579.27 297.869 579.982 298.968 580.693C298.968 580.693 298.832 580.742 298.852 580.973C299.126 581.483 299.38 581.762 299.674 582.324C299.996 583.075 300.278 583.543 300.575 584.389C299.109 586.289 297.802 588.859 296.114 589.139C290.477 590.075 284.62 591.019 278.997 590.46C264.383 589.007 252.128 581.771 240.633 572.845C240.619 572.6 240.62 572.108 240.624 571.639C240.622 569.021 240.711 566.867 240.595 564.724C239.625 546.818 238.617 528.914 237.97 511.16C240.554 511.785 242.866 512.89 245.012 512.63C256.255 511.268 267.456 509.56 278.945 508.266C279.651 511.698 280.083 514.835 280.515 517.971Z" fill="#AA5B2A"/>
<path d="M61.5389 196.982C60.4303 198.563 59.3217 200.144 57.794 201.679C57.2587 201.894 57.1424 202.155 57.0261 202.415C57.0261 202.415 56.8427 202.369 56.5719 202.323C56.1319 202.615 55.9625 202.952 55.7932 203.289C55.7932 203.289 55.7237 203.174 55.5034 203.217C55.0877 203.577 54.8922 203.893 54.6967 204.21C54.6967 204.21 54.6921 204.1 54.4033 204.088C53.6683 204.495 53.222 204.912 52.7757 205.329C52.7757 205.329 52.7221 205.233 52.3674 205.151C44.2399 207.854 36.3427 208.34 28.3115 206.351C28.3115 206.351 28.3206 206.422 28.349 206.214C28.1241 206.007 27.8708 206.008 27.6174 206.01C24.649 202.729 21.3505 199.685 18.7809 196.116C13.4647 188.733 8.52873 181.077 3.45606 173.519C2.62835 172.286 1.79321 171.038 1.14695 169.706C-1.20056 164.87 -0.0376878 162.271 5.49921 159.784C5.1461 156.156 -0.236998 153.276 4.1476 148.85C6.44945 146.526 8.44336 144.743 11.7467 147.086C11.5212 140.064 13.5041 138.493 20.6158 139.554C20.9301 139.601 21.41 138.538 22.2186 137.982C25.2509 137.688 27.8726 137.27 30.5058 137.176C31.9314 137.126 33.3767 137.628 34.813 137.88C34.813 137.88 34.6969 137.912 34.7916 138.14C35.2503 138.482 35.6145 138.596 35.9786 138.711C35.9786 138.711 35.8054 138.695 35.887 138.971C36.5713 139.471 37.174 139.694 37.7767 139.917C37.7767 139.917 37.688 139.947 37.6873 140.269C38.749 141.336 39.8114 142.08 40.8738 142.824C40.8738 142.824 40.7512 142.889 40.8128 143.111C41.2057 143.523 41.537 143.713 41.8682 143.904C41.8682 143.904 41.71 143.933 41.791 144.135C42.1929 144.536 42.5139 144.734 42.8349 144.932C42.8349 144.932 42.6859 144.948 42.7748 145.152C43.1837 145.549 43.5035 145.742 43.8234 145.935C43.8234 145.935 43.6817 145.957 43.7708 146.152C44.1547 146.558 44.4496 146.769 44.7445 146.979C47.5629 151.322 50.3813 155.664 53.0772 159.817C53.8203 158.632 54.8899 156.925 56.4047 155.285C56.9563 155.088 57.0627 154.826 57.169 154.564C57.169 154.564 57.3533 154.566 57.8142 154.757C59.4403 154.937 60.6057 154.927 61.7711 154.917C61.7711 154.917 61.6785 154.943 61.7616 155.158C62.141 155.573 62.4373 155.773 62.7336 155.973C62.7336 155.973 62.6539 155.973 62.6502 156.356C62.9207 158.19 63.0918 159.668 63.4855 161.085C66.6881 172.613 66.893 183.918 61.2609 194.874C60.9944 195.392 61.4302 196.271 61.5389 196.982ZM17.5265 171.702C17.4327 171.648 17.3388 171.594 17.2449 171.539C17.3706 171.696 17.4962 171.853 17.8203 172.466C18.0144 172.759 18.2842 172.939 18.6354 173.493C18.7546 173.775 18.8738 174.057 18.993 174.338C19.1203 174.251 19.2476 174.165 19.3749 174.078C19.1222 173.724 18.8696 173.371 18.4208 172.562C18.2307 172.268 17.9647 172.084 17.5265 171.702ZM24.5033 142.742C24.4173 142.692 24.3313 142.642 24.2453 142.591C24.3766 142.726 24.5078 142.862 24.7302 143.283C24.8113 143.339 24.8925 143.394 24.9736 143.45C24.8525 143.309 24.7313 143.167 24.5033 142.742ZM34.7099 153.339C34.8097 153.391 34.9094 153.443 35.0092 153.496C34.885 153.33 34.7609 153.164 34.433 152.55C34.2337 152.271 33.9682 152.087 33.4321 151.55C33.2318 151.27 32.9648 151.088 32.4241 150.556C32.2234 150.277 31.9569 150.094 31.4194 149.56C31.2195 149.281 30.9538 149.098 30.5064 148.711C30.4086 148.664 30.3108 148.616 30.2131 148.569C30.3495 148.716 30.4859 148.863 30.8046 149.474C31.0021 149.765 31.2734 149.945 31.8018 150.477C31.9987 150.768 32.2696 150.949 32.7961 151.485C32.9923 151.777 33.2634 151.958 33.7955 152.488C33.9924 152.779 34.2636 152.959 34.7099 153.339ZM38.7266 158.32C38.8247 158.369 38.9228 158.418 39.0208 158.466C38.8917 158.311 38.7626 158.156 38.6252 157.505C38.4917 157.226 38.3582 156.946 38.2248 156.667C38.3546 157.118 38.4844 157.569 38.7266 158.32ZM26.5284 145.715C26.4385 145.659 26.3487 145.604 26.2589 145.548C26.3831 145.699 26.5072 145.851 26.8723 146.431C27.2304 146.414 27.5885 146.397 27.9465 146.38C27.5025 146.26 27.0585 146.14 26.5284 145.715ZM15.7184 169.319C15.8132 169.372 15.9079 169.425 16.0027 169.478C15.8767 169.322 15.7506 169.165 15.557 168.358C14.9057 167.647 14.2544 166.936 13.6031 166.225C13.3047 166.637 13.0062 167.048 12.7078 167.46C13.6786 167.977 14.6495 168.495 15.7184 169.319ZM8.08839 161.694C8.24757 161.716 8.41734 161.782 8.56291 161.747C8.70226 161.713 8.81647 161.575 8.94173 161.483C8.42959 160.841 7.91744 160.199 7.40531 159.557C7.21926 159.683 7.03322 159.809 6.84718 159.935C7.11286 160.424 7.37856 160.913 8.08839 161.694Z" fill="#A45729"/>
<path d="M138.603 452.991C146.987 457.526 155.121 462.626 163.813 466.462C176.297 471.971 189.734 474.473 203.235 475.884C214.913 477.104 226.691 477.813 238.43 477.897C255.126 478.016 271.322 474.529 286.954 468.771C292.983 466.549 298.667 463.397 304.545 460.751C305.56 460.294 306.761 460.247 308.543 460.281C309.725 465.1 310.241 469.649 310.757 474.198C310.757 474.198 310.721 474.092 310.495 474.169C310.085 474.573 309.902 474.899 309.719 475.225C309.719 475.225 309.69 475.09 309.488 475.167C309.078 475.54 308.87 475.837 308.663 476.134C308.663 476.134 308.664 476.052 308.336 476.042C306.557 477.058 305.105 478.084 303.654 479.111C303.654 479.111 303.652 479.033 303.368 479.061C302.606 479.435 302.129 479.78 301.652 480.126C301.652 480.126 301.66 480.046 301.377 480.067C300.612 480.43 300.13 480.771 299.649 481.111C299.649 481.111 299.653 481.034 299.304 481.039C297.524 481.741 296.092 482.439 294.661 483.137C294.661 483.137 294.664 483.056 294.287 483.051C289.176 484.772 284.443 486.497 279.709 488.223C279.709 488.223 279.702 488.488 279.366 488.635C278.868 488.851 278.705 488.92 278.137 488.984C265.336 490.727 252.942 492.474 240.139 494.174C238.361 494.088 236.992 494.049 235.329 493.713C227.673 492.636 220.32 491.731 212.941 491.189C211.59 491.09 210.13 492.466 208.721 493.161C208.721 493.161 208.678 493.324 208.295 493.288C207.505 493.288 207.098 493.323 206.275 493.245C191.742 489.775 177.627 486.417 163.333 482.77C162.264 482.354 161.374 482.228 160.484 482.102C160.484 482.102 160.574 482.077 160.455 481.764C158.705 481.014 157.075 480.577 155.445 480.14C155.445 480.14 155.563 480.122 155.454 479.812C153.721 479.037 152.098 478.571 150.475 478.105C150.475 478.105 150.576 478.075 150.441 477.824C149.678 477.433 149.051 477.293 148.424 477.153C148.424 477.153 148.542 477.123 148.449 476.903C148.008 476.595 147.66 476.508 147.311 476.421C147.311 476.421 147.282 476.519 147.235 476.149C146.271 475.568 145.354 475.357 144.437 475.147C144.437 475.147 144.557 475.113 144.442 474.868C143.723 474.437 143.119 474.251 142.516 474.066C142.516 474.066 142.588 474.037 142.476 473.813C142.017 473.457 141.67 473.324 141.323 473.192C141.323 473.192 141.516 473.179 141.409 472.938C140.689 472.505 140.076 472.312 139.462 472.119C139.462 472.119 139.557 472.084 139.468 471.866C139.064 471.458 138.748 471.268 138.432 471.078C138.432 471.078 138.547 471.083 138.539 470.741C134.736 464.58 137.747 458.79 138.603 452.991Z" fill="#298381"/>
<path d="M128.179 582.937C130.829 590.629 137.637 591.416 143.992 591.874C157.428 592.841 169.527 588.481 180.315 580.685C185.532 576.915 190.264 572.473 195.532 568.205C194.331 575.179 193.576 582.573 191.022 589.282C189.371 593.62 185.828 598.265 181.854 600.514C164.288 610.454 145.315 615.187 125.034 612.071C113.833 610.35 111.091 603.728 117.625 594.536C120.575 590.385 124.426 586.873 128.179 582.937Z" fill="#E87250"/>
<path d="M307.912 282.513C308.106 282.461 308.3 282.409 308.068 282.345C305.261 282.267 302.879 282.201 300.544 281.774C299.947 280.609 299.302 279.804 298.657 279C298.657 279 298.62 279.012 298.561 278.65C296.723 277.038 294.943 275.787 293.163 274.536C293.163 274.536 293.16 274.463 293.212 274.148C292.916 273.646 292.568 273.458 292.22 273.271C292.22 273.271 292.377 273.242 292.436 272.966C292.537 272.46 292.58 272.23 292.625 271.561C292.605 269.965 292.566 268.809 292.563 267.652C292.536 256.001 292.635 244.348 292.44 232.7C292.352 227.404 291.688 222.118 291.491 216.558C301.106 207.699 307.989 197.414 312.464 185.926C311.903 189.453 310.879 192.495 310.707 195.585C310.173 205.194 309.749 214.82 309.671 224.442C309.516 243.6 309.62 262.759 309.62 281.943C309.623 281.968 309.628 282.019 309.181 282.081C308.46 282.266 308.186 282.389 307.912 282.513Z" fill="#2E2D2A"/>
<path d="M163.512 483.06C177.627 486.417 191.742 489.775 206.243 493.577C205.621 500.352 204.614 506.683 203.607 513.014C189.507 512.137 175.377 511.422 161.974 504.6C161.869 502.197 162.251 500.275 162.343 498.34C162.553 493.911 162.62 489.474 162.746 485.041C162.731 484.651 162.717 484.26 162.931 483.527C163.159 483.184 163.512 483.06 163.512 483.06Z" fill="#A05324"/>
<path d="M108.878 63.0133C108.952 64.2006 108.976 65.6668 108.581 67.0093C105.893 76.1282 102.209 85.0649 100.611 94.3637C98.8081 104.858 98.7722 115.666 98.1241 126.347C97.5329 136.092 96.9239 145.845 96.7325 155.602C96.4814 168.4 96.7583 181.207 96.5727 194.007C96.4077 205.386 95.9423 216.762 95.537 228.137C95.5056 229.018 94.9017 229.879 94.1934 230.862C94.2803 213.737 94.7604 196.499 95.1849 179.26C95.373 171.622 95.3474 163.978 95.5957 156.342C96.1896 138.089 95.6881 119.689 97.9473 101.638C99.5797 88.5959 104.937 76.0194 108.878 63.0133Z" fill="#1B1816"/>
<path d="M332.411 156.039C332.07 186.75 331.762 217.461 331.369 248.17C331.248 257.617 330.951 267.063 330.599 276.504C330.534 278.248 329.818 279.968 329.029 281.871C328.655 282.043 328.6 281.993 328.593 281.544C329.248 258.733 329.911 236.371 330.595 213.54C330.617 200.385 330.617 187.698 330.621 174.61C330.624 173.143 330.621 172.076 330.63 170.61C330.636 169.143 330.63 168.077 330.632 166.566C330.632 163.752 330.625 161.382 330.632 158.674C331.234 157.571 331.823 156.805 332.411 156.039Z" fill="#151310"/>
<path d="M332.517 155.579C331.822 156.805 331.234 157.571 330.244 158.669C329.067 158.968 328.29 158.936 327.533 158.506C328.318 154.058 329.084 150.006 330.05 145.757C330.1 144.723 329.949 143.886 329.727 142.706C328.628 140.593 327.599 138.824 326.571 137.054C329.931 137.254 329.701 134.915 329.632 132.708C329.307 122.305 328.953 111.902 328.67 101.497C328.626 99.8644 328.901 98.2231 329.323 96.642C330.209 97.8006 330.8 98.903 331.39 100.005C331.801 118.377 332.213 136.748 332.517 155.579Z" fill="#302D2A"/>
<path d="M271.594 12.6075C265.84 11.185 259.791 9.72457 253.937 7.69874C244.284 4.35821 234.453 2.15468 224.231 1.90981C214.123 1.66767 204.013 1.53338 193.672 1.03506C205.581 0.529668 217.797 -0.594966 229.84 0.393499C244.307 1.58095 258.22 5.95525 271.594 12.6075Z" fill="#1B1816"/>
<path d="M311.067 474.003C310.241 469.649 309.725 465.1 308.933 460.281C306 448.6 303.703 437.09 300.6 425.802C296.26 410.012 291.318 394.387 286.656 378.29C288.413 382.524 290.149 387.158 292.157 392.061C298.019 412.503 303.886 432.605 309.045 452.888C310.758 459.623 310.652 466.821 311.067 474.003Z" fill="#176F6E"/>
<path d="M235.623 494.01C236.992 494.049 238.361 494.088 240.076 494.509C239.25 495.57 238.078 496.25 236.964 496.896C237.19 501.743 237.406 506.377 237.621 511.01C238.617 528.914 239.625 546.818 240.595 564.724C240.711 566.867 240.622 569.021 240.37 571.609C239.946 572.002 239.782 571.956 239.617 571.91C238.629 558.377 237.571 544.849 236.674 531.31C235.886 519.422 235.28 507.521 234.721 495.025C235.089 494.255 235.348 494.117 235.623 494.01Z" fill="#933C12"/>
<path d="M162.657 485.441C162.62 489.474 162.553 493.911 162.343 498.34C162.251 500.275 161.869 502.197 161.609 504.56C159.614 515.781 157.703 526.581 155.606 537.345C154.74 541.791 153.474 546.158 152.08 550.756C152.734 545.295 153.722 539.643 154.656 533.983C157.305 517.937 159.932 501.888 162.657 485.441Z" fill="#933C12"/>
<path d="M316.004 607.487C308.943 608.959 301.909 611.5 294.815 611.678C280.392 612.04 266.184 609.827 252.612 603.575C252.429 603.239 252.623 603.008 253.012 603.007C266.43 607.573 279.805 610.512 293.647 609.888C301 609.557 308.299 608.009 315.719 607.128C315.815 607.247 316.004 607.487 316.004 607.487Z" fill="#DD6340"/>
<path d="M158.05 376.979C157.453 380.451 156.668 384.136 155.632 387.75C151.955 400.578 148.208 413.387 144.434 426.187C144.071 427.42 143.331 428.542 142.395 429.836C147.264 412.357 152.505 394.759 158.05 376.979Z" fill="#176F6E"/>
<path d="M288.939 568.445C287.115 563.747 284.333 558.802 283.527 553.555C281.847 542.601 281.21 531.486 280.448 520.191C281.383 524.928 282.326 529.897 282.583 534.901C283.167 546.263 284.723 557.396 288.939 568.445Z" fill="#933C12"/>
<path d="M61.6932 196.776C61.4298 196.271 60.994 195.392 61.2604 194.874C66.8926 183.918 66.6877 172.613 63.4851 161.085C63.0914 159.668 62.9203 158.19 62.6639 156.319C68.6413 168.56 68.6274 181.319 63.1459 194.516C62.6038 195.434 62.2258 196.002 61.6932 196.776Z" fill="#933C12"/>
<path d="M138.605 452.567C137.747 458.79 134.735 464.58 138.52 470.795C135.691 469.702 134.652 467.497 135.276 464.279C137.113 454.798 138.806 445.288 140.659 435.421C140.301 439.139 139.859 443.229 139.367 447.312C139.172 448.93 138.864 450.534 138.605 452.567Z" fill="#176F6E"/>
<path d="M235.329 493.713C235.348 494.117 235.089 494.255 234.671 494.554C226.171 494.209 217.846 493.733 209.121 493.209C210.13 492.466 211.59 491.09 212.941 491.189C220.32 491.731 227.673 492.636 235.329 493.713Z" fill="#288381"/>
<path d="M278.542 488.988C278.705 488.919 278.868 488.851 279.293 488.746C279.914 498.212 280.273 507.714 280.573 517.594C280.082 514.835 279.651 511.698 278.933 507.802C278.613 501.025 278.578 495.007 278.542 488.988Z" fill="#933C12"/>
<path d="M203.614 513.441C204.614 506.683 205.621 500.352 206.66 493.689C207.098 493.323 207.505 493.288 208.213 493.308C207.132 501.515 205.748 509.666 204.012 517.98C203.646 516.719 203.634 515.294 203.614 513.441Z" fill="#933C12"/>
<path d="M331.42 99.6031C330.8 98.9028 330.209 97.8005 329.597 96.3458C327.964 88.8586 326.353 81.7238 324.871 74.1932C327.15 82.2654 329.3 90.7333 331.42 99.6031Z" fill="#151310"/>
<path d="M176.512 4.57458C171.265 6.82829 165.849 8.76512 160.324 10.367C165.591 8.10725 170.967 6.18246 176.512 4.57458Z" fill="#1B1816"/>
<path d="M239.555 572.382C239.782 571.956 239.946 572.002 240.365 572.078C240.62 572.108 240.619 572.6 240.638 573.259C241.659 581.607 242.659 589.295 243.635 597.003C243.611 597.023 243.567 597.068 243.567 597.068C242.28 591.45 240.858 585.857 239.771 580.199C239.313 577.821 239.564 575.306 239.555 572.382Z" fill="#DD6340"/>
<path d="M28.4795 206.611C36.3426 208.34 44.2398 207.854 52.4222 205.155C51.9401 205.81 51.0483 206.378 49.5775 207.101C48.7047 207.482 48.411 207.708 48.1172 207.935C47.7701 207.947 47.423 207.96 46.618 208.058C45.8508 208.154 45.5825 208.264 45.355 208.474C44.3492 208.64 43.3434 208.807 41.5275 209.043C38.3579 209.096 35.9983 209.078 33.6387 209.06C33.2626 208.884 32.8866 208.708 32.2001 208.495C30.809 207.929 29.7283 207.399 28.4795 206.611Z" fill="#933C12"/>
<path d="M173.729 341.095C173.17 343.274 172.61 345.453 171.698 347.765C172.062 342.841 172.778 337.784 173.538 332.313C173.758 331.809 173.936 331.72 174.612 331.793C175.109 331.956 175.573 332.13 175.573 332.13C175.573 332.13 175.589 332.046 175.648 332.304C176.023 332.737 176.338 332.913 176.653 333.088C176.653 333.088 176.805 333.205 177.032 333.476C177.704 333.899 178.148 334.053 178.593 334.206C178.593 334.206 178.551 334.073 178.624 334.366C179.081 335.084 179.465 335.508 179.485 335.965C174.585 334.801 173.651 337.413 173.729 341.095Z" fill="#176F6E"/>
<path d="M165.304 359.132C163.368 364.815 161.17 370.732 158.611 376.741C160.515 371.011 162.779 365.189 165.304 359.132Z" fill="#176F6E"/>
<path d="M159.326 10.4467C155.544 12.9464 151.382 15.4746 146.824 17.9423C150.601 15.4129 154.774 12.944 159.326 10.4467Z" fill="#1B1816"/>
<path d="M280.093 488.154C284.443 486.497 289.176 484.772 294.326 483.062C289.988 484.747 285.233 486.416 280.093 488.154Z" fill="#176F6E"/>
<path d="M34.6033 137.577C33.3766 137.628 31.9313 137.126 30.5057 137.176C27.8725 137.27 25.2509 137.688 22.438 137.729C23.6379 133.661 26.7865 134.865 29.3882 135.236C31.1183 135.483 32.7293 136.565 34.6033 137.577Z" fill="#933C12"/>
<path d="M144.864 18.6859C144.741 22.8968 141.387 23.9078 137.589 24.7244C139.658 22.6768 142.11 20.7527 144.864 18.6859Z" fill="#1B1816"/>
<path d="M300.497 282.135C302.879 282.201 305.261 282.267 308.131 282.639C306.878 283.644 305.138 284.342 303.013 285.097C302.228 284.807 301.828 284.462 301.07 283.757C300.569 283.05 300.425 282.703 300.335 282.3C300.39 282.245 300.497 282.135 300.497 282.135Z" fill="#1B1816"/>
<path d="M113.209 54.0114C112.258 56.7572 111.024 59.7074 109.431 62.4886C110.356 59.6183 111.641 56.9171 113.209 54.0114Z" fill="#1B1816"/>
<path d="M279.319 16.8801C277.402 16.0913 275.207 15.1123 273.208 13.8047C275.283 14.5474 277.163 15.6186 279.319 16.8801Z" fill="#1B1816"/>
<path d="M317.681 596.948C320.223 599.745 321.369 602.656 318.052 605.997C317.702 606.096 317.608 605.995 317.646 605.615C317.651 602.501 317.619 599.768 317.611 597.015C317.636 596.994 317.681 596.948 317.681 596.948Z" fill="#DD6340"/>
<path d="M324.753 285.152C321.146 285.357 317.539 285.562 313.747 285.419C313.563 285.07 313.635 284.992 314.092 284.99C317.903 284.99 321.257 284.992 324.646 285.034C324.68 285.074 324.753 285.152 324.753 285.152Z" fill="#151310"/>
<path d="M300.561 584.01C300.278 583.543 299.996 583.075 299.667 582.079C299.62 581.551 299.625 581.062 299.625 581.062C300.968 582.051 302.312 583.039 303.742 584.4C303.827 584.772 303.617 585.017 303.293 584.994C302.166 584.65 301.364 584.33 300.561 584.01Z" fill="#DD6340"/>
<path d="M303.99 479.063C305.105 478.084 306.557 477.058 308.374 476.056C307.269 477.059 305.798 478.037 303.99 479.063Z" fill="#176F6E"/>
<path d="M325.087 73.1459C324.383 71.8451 323.526 70.2344 322.704 68.2178C323.47 69.4866 324.203 71.1613 325.087 73.1459Z" fill="#151310"/>
<path d="M150.692 478.38C152.098 478.571 153.721 479.036 155.444 479.871C153.999 479.712 152.455 479.184 150.692 478.38Z" fill="#176F6E"/>
<path d="M317.994 57.2526C317.302 56.572 316.471 55.6032 315.689 54.2268C316.444 54.8676 317.149 55.916 317.994 57.2526Z" fill="#151310"/>
<path d="M117.286 47.0641C117.007 48.1725 116.464 49.4706 115.532 50.6799C115.769 49.4786 116.396 48.3663 117.286 47.0641Z" fill="#1B1816"/>
<path d="M155.668 480.413C157.075 480.577 158.705 481.014 160.454 481.811C159.012 481.676 157.452 481.181 155.668 480.413Z" fill="#176F6E"/>
<path d="M295.012 483.11C296.092 482.439 297.524 481.741 299.339 481.054C298.271 481.737 296.817 482.41 295.012 483.11Z" fill="#176F6E"/>
<path d="M313.527 285.109C312.41 284.49 311.33 283.832 309.934 282.829C309.619 282.485 309.627 282.019 309.627 282.019C309.627 282.019 309.623 281.968 309.962 281.984C311.413 282.997 312.524 283.995 313.635 284.992C313.635 284.992 313.563 285.07 313.527 285.109Z" fill="#151310"/>
<path d="M294.679 576.671C293.808 576.105 292.798 575.253 291.887 574.026C292.837 574.563 293.688 575.473 294.679 576.671Z" fill="#933C12"/>
<path d="M298.821 580.415C297.869 579.982 296.771 579.27 295.673 578.185C296.674 578.587 297.675 579.362 298.821 580.415Z" fill="#933C12"/>
<path d="M322.777 67.5939C322.134 66.7592 321.436 65.5862 320.864 64.036C321.568 64.8577 322.145 66.0566 322.777 67.5939Z" fill="#151310"/>
<path d="M40.7449 142.536C39.8113 142.08 38.749 141.336 37.6992 140.224C38.6799 140.654 39.648 141.451 40.7449 142.536Z" fill="#933C12"/>
<path d="M250.232 602.427C249.338 601.949 248.444 601.47 247.465 600.637C247.38 600.282 247.628 600 247.951 600.023C249.055 600.701 249.838 601.357 250.523 602.115C250.425 602.218 250.232 602.427 250.232 602.427Z" fill="#DD6340"/>
<path d="M170.084 349.943C169.915 351.076 169.451 352.376 168.637 353.766C168.788 352.607 169.289 351.359 170.084 349.943Z" fill="#176F6E"/>
<path d="M114.858 50.9506C114.708 51.7574 114.369 52.8004 113.717 53.8819C113.826 53.0092 114.247 52.098 114.858 50.9506Z" fill="#1B1816"/>
<path d="M307.726 42.6757C307.03 42.9522 306.205 42.9611 304.966 42.9832C304.994 42.3937 305.437 41.7911 306.163 41.1278C306.83 41.5141 307.213 41.961 307.726 42.6757Z" fill="#151310"/>
<path d="M136.92 24.7039C136.629 25.5196 136.047 26.4671 135.121 27.1133C135.395 26.1532 136.012 25.4944 136.92 24.7039Z" fill="#1B1816"/>
<path d="M61.5612 154.615C60.6053 154.927 59.44 154.937 57.8447 154.844C58.7271 154.597 60.0394 154.455 61.5612 154.615Z" fill="#933C12"/>
<path d="M118.487 45.2502C118.484 45.6903 118.295 46.3484 117.804 46.9761C117.768 46.4532 118.035 45.9607 118.487 45.2502Z" fill="#1B1816"/>
<path d="M311.71 47.6213C311.165 47.3566 310.518 46.8138 309.991 45.9076C310.61 46.1439 311.11 46.7435 311.71 47.6213Z" fill="#151310"/>
<path d="M315.737 53.6193C315.117 53.1163 314.402 52.3047 313.729 51.1373C314.395 51.6246 315.018 52.4677 315.737 53.6193Z" fill="#151310"/>
<path d="M321.012 63.455C320.647 63.0565 320.172 62.3467 319.688 61.2584C320.087 61.6345 320.494 62.389 321.012 63.455Z" fill="#151310"/>
<path d="M144.624 475.417C145.354 475.357 146.271 475.568 147.184 476.158C146.391 476.254 145.601 475.971 144.624 475.417Z" fill="#176F6E"/>
<path d="M163.333 482.769C163.512 483.06 163.159 483.184 162.98 483.236C162.162 483.073 161.524 482.858 160.685 482.372C161.374 482.228 162.264 482.353 163.333 482.769Z" fill="#176F6E"/>
<path d="M311.874 590.763C312.486 591.219 313.098 591.675 313.751 592.483C313.791 592.836 313.622 593.01 313.348 592.903C312.589 592.201 312.104 591.607 311.683 590.949C311.746 590.887 311.874 590.763 311.874 590.763Z" fill="#DD6340"/>
<path d="M313.042 49.3853C312.671 49.285 312.179 48.9084 311.712 48.1766C312.133 48.2506 312.527 48.6797 313.042 49.3853Z" fill="#151310"/>
<path d="M317.749 606.147C317.376 606.559 316.956 606.92 316.271 607.384C316.005 607.487 315.816 607.247 315.875 606.874C316.492 606.333 317.05 606.164 317.608 605.995C317.608 605.995 317.702 606.096 317.749 606.147Z" fill="#DD6340"/>
<path d="M166.293 357.051C166.394 357.483 166.242 358.097 165.798 358.85C165.683 358.404 165.862 357.818 166.293 357.051Z" fill="#176F6E"/>
<path d="M167.312 355.07C167.394 355.496 167.23 356.109 166.767 356.851C166.666 356.405 166.866 355.83 167.312 355.07Z" fill="#176F6E"/>
<path d="M247.251 600.418C246.666 600.243 246.211 599.931 245.665 599.337C245.575 599.055 245.643 598.982 245.941 599.005C246.702 599.352 247.165 599.676 247.629 600C247.629 600 247.38 600.282 247.251 600.418Z" fill="#DD6340"/>
<path d="M290.036 570.425C289.642 570.294 289.199 569.862 288.844 569.075C289.283 569.188 289.635 569.656 290.036 570.425Z" fill="#933C12"/>
<path d="M291.979 573.484C291.593 573.362 291.15 572.936 290.727 572.161C291.139 572.268 291.531 572.724 291.979 573.484Z" fill="#933C12"/>
<path d="M303.933 584.649C304.516 584.817 304.995 585.109 305.57 585.685C305.667 585.968 305.601 586.037 305.302 586.018C304.541 585.671 304.079 585.344 303.617 585.017C303.617 585.017 303.828 584.772 303.933 584.649Z" fill="#DD6340"/>
<path d="M308.09 587.528C308.55 587.828 309.01 588.128 309.562 588.704C309.654 588.979 309.599 589.041 309.301 589.017C308.541 588.668 308.078 588.342 307.736 587.896C307.857 587.776 308.09 587.528 308.09 587.528Z" fill="#DD6340"/>
<path d="M139.599 472.403C140.075 472.312 140.688 472.504 141.386 473.032C140.892 473.141 140.313 472.914 139.599 472.403Z" fill="#176F6E"/>
<path d="M142.699 474.309C143.119 474.251 143.723 474.437 144.439 474.93C143.996 475.009 143.44 474.781 142.699 474.309Z" fill="#176F6E"/>
<path d="M148.6 477.415C149.051 477.293 149.678 477.433 150.443 477.876C149.979 478.012 149.378 477.844 148.6 477.415Z" fill="#176F6E"/>
<path d="M301.952 480.085C302.129 479.78 302.606 479.435 303.403 479.076C303.233 479.39 302.743 479.717 301.952 480.085Z" fill="#176F6E"/>
<path d="M299.952 481.079C300.13 480.771 300.612 480.43 301.415 480.08C301.243 480.396 300.749 480.721 299.952 481.079Z" fill="#176F6E"/>
<path d="M252.335 603.356C251.706 603.261 251.171 603.049 250.434 602.632C250.231 602.427 250.424 602.218 250.824 602.127C251.69 602.36 252.156 602.684 252.623 603.008C252.623 603.008 252.429 603.239 252.335 603.356Z" fill="#DD6340"/>
<path d="M310.044 45.3767C309.675 45.2798 309.179 44.9055 308.679 44.1761C309.088 44.2471 309.502 44.6732 310.044 45.3767Z" fill="#151310"/>
<path d="M125.354 35.9849C125.369 36.3438 125.158 36.8362 124.781 37.1619C124.786 36.7029 124.957 36.4105 125.354 35.9849Z" fill="#151310"/>
<path d="M171.059 347.901C171.204 348.392 171.074 349.035 170.599 349.763C170.431 349.249 170.607 348.65 171.059 347.901Z" fill="#176F6E"/>
<path d="M326.711 284.093C326.26 284.432 325.808 284.772 325.055 285.132C324.753 285.152 324.681 285.074 324.78 284.762C325.455 284.295 326.029 284.141 326.63 284.015C326.656 284.042 326.711 284.093 326.711 284.093Z" fill="#151310"/>
<path d="M37.6304 139.652C37.1736 139.694 36.5709 139.471 35.938 138.901C36.4333 138.832 36.9589 139.11 37.6304 139.652Z" fill="#933C12"/>
<path d="M319.698 60.671C319.399 60.4938 319.061 60.0121 318.702 59.204C319.007 59.3739 319.332 59.8702 319.698 60.671Z" fill="#151310"/>
<path d="M62.6578 155.706C62.4368 155.773 62.1405 155.573 61.7617 155.11C61.9803 155.044 62.2814 155.242 62.6578 155.706Z" fill="#933C12"/>
<path d="M43.722 145.671C43.5034 145.742 43.1835 145.548 42.7803 145.077C43.0048 145.002 43.3127 145.205 43.722 145.671Z" fill="#933C12"/>
<path d="M290.769 571.643C290.527 571.719 290.209 571.508 289.874 570.997C290.135 570.917 290.414 571.136 290.769 571.643Z" fill="#933C12"/>
<path d="M56.9936 154.624C57.0626 154.826 56.9563 155.088 56.7287 155.17C56.6075 154.99 56.8183 154.685 56.9936 154.624Z" fill="#933C12"/>
<path d="M131.265 29.881C131.331 30.0979 131.137 30.4306 130.65 30.8372C130.574 30.6063 130.789 30.3015 131.265 29.881Z" fill="#151310"/>
<path d="M42.731 144.667C42.5137 144.734 42.1928 144.536 41.7944 144.055C42.0205 143.982 42.3239 144.193 42.731 144.667Z" fill="#933C12"/>
<path d="M135.174 27.6368C135.266 28.1139 134.937 28.4157 134.279 28.7965C134.217 28.4042 134.485 27.933 135.174 27.6368Z" fill="#1B1816"/>
<path d="M132.696 28.8695C132.724 29.1671 132.386 29.471 131.714 29.8561C131.697 29.5835 132.013 29.2296 132.696 28.8695Z" fill="#151310"/>
<path d="M44.6543 146.717C44.4494 146.769 44.1545 146.558 43.7715 146.08C43.977 146.027 44.2707 146.241 44.6543 146.717Z" fill="#933C12"/>
<path d="M130.257 30.8641C130.328 31.0862 130.138 31.4248 129.654 31.8356C129.572 31.5988 129.784 31.2897 130.257 30.8641Z" fill="#151310"/>
<path d="M129.262 31.8711C129.335 32.0872 129.147 32.4256 128.673 32.8584C128.593 32.633 128.797 32.3132 129.262 31.8711Z" fill="#151310"/>
<path d="M272.805 13.238C272.59 13.4198 272.237 13.3971 271.791 13.0976C272.02 12.8916 272.344 12.9625 272.805 13.238Z" fill="#1B1816"/>
<path d="M146.263 17.8805C146.291 18.0996 146.054 18.405 145.505 18.6898C145.46 18.435 145.729 18.2009 146.263 17.8805Z" fill="#1B1816"/>
<path d="M313.874 592.748C314.293 592.753 314.552 592.949 314.751 593.554C314.768 593.861 314.623 594.009 314.395 593.913C313.88 593.619 313.699 593.349 313.622 593.01C313.622 593.01 313.791 592.836 313.874 592.748Z" fill="#DD6340"/>
<path d="M314.839 593.786C315.248 593.792 315.516 593.974 315.741 594.561C315.766 594.863 315.624 595.008 315.396 594.912C314.881 594.617 314.7 594.348 314.624 594.009C314.624 594.009 314.768 593.861 314.839 593.786Z" fill="#DD6340"/>
<path d="M315.836 594.79C316.161 594.925 316.416 595.134 316.691 595.633C316.711 595.924 316.613 596.019 316.386 595.919C315.877 595.618 315.698 595.347 315.624 595.008C315.624 595.008 315.766 594.863 315.836 594.79Z" fill="#DD6340"/>
<path d="M310.784 589.839C311.075 589.995 311.365 590.152 311.765 590.536C311.874 590.763 311.746 590.887 311.455 590.852C310.876 590.625 310.691 590.359 310.654 589.975C310.698 589.93 310.784 589.839 310.784 589.839Z" fill="#DD6340"/>
<path d="M245.539 599.089C245.219 598.957 244.936 598.79 244.604 598.348C244.556 598.073 244.636 597.995 244.861 598.094C245.368 598.388 245.554 598.651 245.643 598.982C245.643 598.982 245.575 599.055 245.539 599.089Z" fill="#DD6340"/>
<path d="M244.516 598.111C244.211 597.953 243.946 597.758 243.624 597.315C243.567 597.068 243.611 597.023 243.856 597.109C244.372 597.4 244.55 597.667 244.637 597.995C244.637 597.995 244.556 598.073 244.516 598.111Z" fill="#DD6340"/>
<path d="M316.76 595.877C317.066 596.037 317.323 596.244 317.63 596.699C317.681 596.948 317.636 596.994 317.391 596.908C316.878 596.614 316.701 596.346 316.613 596.019C316.613 596.019 316.711 595.924 316.76 595.877Z" fill="#DD6340"/>
<path d="M299.47 580.901C299.625 581.062 299.621 581.551 299.628 581.796C299.38 581.762 299.126 581.483 298.881 580.907C298.89 580.61 299.316 580.741 299.47 580.901Z" fill="#933C12"/>
<path d="M309.684 588.951C310.002 589.077 310.289 589.23 310.68 589.612C310.784 589.839 310.698 589.93 310.43 589.876C309.879 589.631 309.691 589.371 309.599 589.041C309.599 589.041 309.654 588.979 309.684 588.951Z" fill="#DD6340"/>
<path d="M306.84 586.788C307.151 586.904 307.462 587.021 307.932 587.333C308.09 587.528 307.856 587.776 307.508 587.799C306.872 587.624 306.692 587.355 306.673 586.957C306.728 586.9 306.84 586.788 306.84 586.788Z" fill="#DD6340"/>
<path d="M305.701 585.935C306.084 585.938 306.376 586.086 306.726 586.566C306.84 586.788 306.728 586.9 306.447 586.86C305.878 586.631 305.689 586.371 305.601 586.038C305.601 586.038 305.666 585.968 305.701 585.935Z" fill="#DD6340"/>
<path d="M168.152 353.807C168.301 354.081 168.167 354.428 167.762 354.875C167.617 354.609 167.744 354.245 168.152 353.807Z" fill="#176F6E"/>
<path d="M313.79 50.6347C313.564 50.6745 313.246 50.4414 312.931 49.8929C313.189 49.839 313.444 50.1004 313.79 50.6347Z" fill="#151310"/>
<path d="M309.181 282.081C309.628 282.019 309.619 282.485 309.621 282.718C309.15 283.028 308.676 283.105 308.057 282.847C308.186 282.389 308.46 282.266 309.181 282.081Z" fill="#1B1816"/>
<path d="M27.7441 206.162C27.8704 206.008 28.1237 206.007 28.3135 206.219C28.25 206.433 27.8712 206.315 27.7441 206.162Z" fill="#933C12"/>
<path d="M147.382 476.688C147.66 476.508 148.008 476.595 148.442 476.963C148.17 477.148 147.811 477.052 147.382 476.688Z" fill="#176F6E"/>
<path d="M308.927 476.052C308.87 475.837 309.078 475.54 309.556 475.169C309.616 475.386 309.404 475.678 308.927 476.052Z" fill="#176F6E"/>
<path d="M328.681 282.071C328.554 282.395 328.401 282.692 327.966 283.031C327.683 283.072 327.61 282.998 327.681 282.751C328.034 282.333 328.317 282.163 328.599 281.993C328.599 281.993 328.655 282.043 328.681 282.071Z" fill="#151310"/>
<path d="M327.719 283.109C327.575 283.425 327.395 283.705 326.963 284.039C326.711 284.093 326.656 284.042 326.698 283.767C327.03 283.327 327.32 283.162 327.611 282.998C327.611 282.998 327.683 283.072 327.719 283.109Z" fill="#151310"/>
<path d="M309.983 475.128C309.902 474.899 310.085 474.573 310.55 474.172C310.637 474.408 310.442 474.719 309.983 475.128Z" fill="#176F6E"/>
<path d="M35.874 138.446C35.6142 138.596 35.25 138.482 34.7944 138.08C35.0586 137.921 35.4142 138.051 35.874 138.446Z" fill="#933C12"/>
<path d="M318.691 58.6902C318.462 58.7134 318.184 58.4605 317.938 57.9008C318.194 57.8674 318.418 58.1407 318.691 58.6902Z" fill="#151310"/>
<path d="M41.7677 143.635C41.5365 143.713 41.2053 143.523 40.8052 143.042C41.0468 142.957 41.3572 143.162 41.7677 143.635Z" fill="#933C12"/>
<path d="M141.436 473.452C141.67 473.324 142.017 473.457 142.478 473.852C142.244 473.981 141.896 473.847 141.436 473.452Z" fill="#176F6E"/>
<path d="M138.542 471.332C138.748 471.268 139.064 471.458 139.471 471.916C139.259 471.986 138.955 471.786 138.542 471.332Z" fill="#176F6E"/>
<path d="M312.391 185.464C307.989 197.414 301.106 207.699 291.188 216.672C282.282 222.125 273.885 227.194 265.204 232.305C264.196 232.584 263.471 232.819 262.747 233.055C258.457 233.706 254.167 234.358 249.038 235.02C233.905 236.674 219.667 237.097 205.467 232.755C204.725 232.356 204.164 232.191 203.612 232.018C203.621 232.011 203.607 232.027 203.55 231.686C201.56 230.856 199.627 230.367 197.312 229.907C196.169 229.903 195.409 229.869 194.433 229.566C190.044 227.485 185.87 225.671 181.669 223.888C181.642 223.92 181.691 223.987 181.616 223.718C181.216 223.275 180.89 223.101 180.324 222.702C175.015 218.959 169.947 215.442 164.682 211.646C159.878 205.892 155.27 200.418 150.648 194.975C150.632 195.007 150.699 194.982 150.647 194.753C150.596 194.524 150.391 194.102 150.284 193.781C146.57 186.111 142.963 178.761 139.406 171.514C137.483 172.398 135.537 173.293 133.19 174.171C131.72 174.208 130.651 174.261 129.353 174.253C129.123 174.192 128.651 174.241 128.256 174.175C124.467 173.047 121.073 171.984 117.678 170.922C117.678 170.922 117.615 170.964 117.475 170.712C116.784 170.175 116.234 169.892 115.684 169.609C109.369 163.96 105.551 157.288 105.396 148.447C105.231 139.026 109.315 132.665 117.712 128.263C121.131 127.681 124.288 127.347 127.848 126.983C132.066 128.481 135.883 130.008 140.331 131.788C141.48 129.738 142.759 127.111 144.344 124.683C155.542 107.534 167.05 90.6096 181.912 76.3127C197.676 61.1487 215.642 50.5014 238.089 48.9546C239.871 48.8319 241.559 47.3473 242.918 46.6788C248.253 48.0028 253.517 49.231 258.739 50.6176C285.711 57.7798 301.916 75.9079 309.483 101.969C312.517 112.418 313.585 123.438 315.579 135.065C315.307 147.324 315.003 158.716 314.646 170.515C313.859 175.769 313.125 180.616 312.391 185.464ZM221.62 130.017C221.62 130.017 221.545 130.087 221.803 129.408C221.327 128.995 220.851 128.583 220.512 128.134C220.512 128.134 220.415 128.238 220.593 127.535C215.449 119.963 206.713 117.076 197.507 119.904C187.383 123.016 180.796 130.917 180.641 140.021C180.641 140.021 180.717 140.027 180.053 140.217C179.98 140.88 179.907 141.543 179.854 143.097C180.807 148.267 181.76 153.436 182.853 159.216C183.164 159.469 183.475 159.723 183.675 159.955C183.675 159.955 183.718 159.85 183.674 160.559C184.44 161.272 185.207 161.985 185.875 162.789C185.875 162.789 185.871 162.654 185.958 163.316C186.553 163.526 187.149 163.736 187.664 163.969C187.664 163.969 187.683 163.886 187.703 164.622C188.716 165.063 189.729 165.505 190.653 165.969C190.653 165.969 190.647 165.878 190.913 166.472C191.529 166.626 192.144 166.78 192.653 166.942C192.653 166.942 192.666 166.836 192.895 167.562C195.786 168.411 198.733 170.094 201.552 169.902C205.28 169.648 208.907 167.926 212.585 166.943C212.585 166.943 212.478 166.928 213.139 166.938C213.624 166.58 214.11 166.222 214.589 165.964C214.589 165.964 214.492 165.941 215.16 165.942C215.621 165.549 216.083 165.156 216.573 164.922C216.573 164.922 216.411 164.92 216.966 164.785C217.172 164.482 217.378 164.178 217.577 163.964C217.577 163.964 217.491 163.937 217.997 163.97C218.179 163.634 218.361 163.298 218.779 162.421C219.372 161.917 219.966 161.412 220.863 161.283C221.086 160.808 221.308 160.333 221.556 159.945C221.556 159.945 221.468 159.929 222.21 159.916C222.653 158.901 223.097 157.886 223.568 156.971C223.568 156.971 223.463 156.978 224.065 156.72C224.227 156.106 224.389 155.492 224.568 154.974C224.568 154.974 224.469 154.97 225.196 154.735C228.84 147.725 229.191 140.793 224.497 133.435C224.174 133.311 223.85 133.187 223.606 133.011C223.606 133.011 223.553 133.09 223.739 132.421C223.319 131.97 222.898 131.518 222.562 131.06C222.562 131.06 222.542 131.141 222.546 130.504C222.207 130.358 221.869 130.213 221.62 130.017ZM296.495 158.941C296.495 158.941 296.337 158.898 296.984 158.689C297.15 158.065 297.315 157.441 297.499 156.947C297.499 156.947 297.369 156.925 298.122 156.736C301.565 151.335 301.772 142.584 298.41 138.978C298.41 138.978 298.418 138.835 298.465 138.188C298.133 137.468 297.801 136.748 297.563 136.04C297.563 136.04 297.532 136.13 297.593 135.429C296.903 134.64 296.214 133.85 295.614 133.018C295.614 133.018 295.545 133.089 295.779 132.388C291.88 124.613 285.323 121.145 276.889 121.177C269.558 121.205 262.897 125.754 261.632 131.006C261.632 131.006 261.718 131.095 260.984 130.874C260.549 131.942 260.115 133.01 259.627 134.013C259.627 134.013 259.7 134.054 259.067 133.946C258.645 135.284 258.222 136.623 257.723 138.821C257.606 139.803 257.602 140.815 257.354 141.763C254.889 151.157 257.97 158.639 265.443 164.375C273.938 170.897 284.884 169.494 294.875 161.288C295.092 160.81 295.309 160.331 295.56 159.952C295.56 159.952 295.456 159.961 296.002 159.778C296.167 159.444 296.331 159.111 296.495 158.941ZM210.721 191.219C213.687 193.818 216.277 197.153 219.682 198.889C234.343 206.363 249.179 204.412 263.713 198.305C266.104 197.3 268.112 194.81 269.624 192.555C270.272 191.589 269.696 188.917 268.74 188.05C268.023 187.4 265.631 188.045 264.308 188.735C262.004 189.937 260.138 192.112 257.761 193.018C242.936 198.671 228.712 199.931 216.639 186.74C215.704 185.718 212.833 185.06 211.992 185.706C210.88 186.56 210.885 188.867 210.721 191.219ZM179.435 106.61C180.58 110.759 183.666 109.391 185.805 108.316C195.503 103.44 205.531 101.838 216.249 103.806C217.765 104.084 220.406 102.923 221.128 101.641C222.012 100.072 222.121 97.2944 221.278 95.7357C220.396 94.1041 218.124 92.6358 216.221 92.2403C204.193 89.7396 193.145 92.3726 183.396 99.7654C181.592 101.133 180.732 103.747 179.435 106.61ZM294.077 109.918C298.41 108.27 296.426 105.472 295.13 103.096C290.638 94.8588 272.732 88.3702 264.303 92.3782C262.184 93.3856 260.202 96.7838 260.005 99.2321C259.715 102.835 263.096 103.278 266.134 103.162C268.454 103.073 270.778 103.133 273.098 103.052C279.264 102.836 284.917 104.138 289.773 108.226C290.74 109.041 292.125 109.36 294.077 109.918ZM247.461 178.881C248.25 178.617 249.216 178.556 249.793 178.051C251.483 176.569 253.017 174.91 254.613 173.321C252.828 171.677 251.162 168.813 249.234 168.624C244.034 168.115 238.665 168.362 233.485 169.132C231.68 169.4 230.233 172.076 228.622 173.653C230.164 175.118 231.519 177.511 233.284 177.866C237.619 178.736 242.143 178.668 247.461 178.881Z" fill="#A95A2A"/>
<path d="M173.983 341.306C173.651 337.413 174.585 334.801 179.844 335.962C185.589 337.964 190.61 340.001 195.665 342.352C197.341 343.074 198.976 343.517 200.627 343.883C205.047 344.862 209.481 346.647 213.896 346.607C225.784 346.499 237.71 346.05 249.527 344.828C254.957 344.267 260.167 341.58 265.5 339.872C265.523 339.886 265.476 339.913 265.849 339.939C266.959 339.516 267.696 339.067 268.392 338.706C268.351 338.793 268.224 338.647 268.548 338.744C269.442 338.333 270.012 337.825 270.583 337.318C271.184 337.092 271.785 336.866 272.875 336.418C274.072 337.465 274.78 338.734 275.489 340.003C274.866 341.329 273.774 342.63 273.7 343.986C273.31 351.171 272.502 352.831 265.726 354.377C256.413 356.502 246.966 359.481 237.569 359.511C216.474 359.578 195.63 356.945 177.184 345.195C175.93 344.396 175.207 342.763 173.983 341.306Z" fill="#298381"/>
<path d="M265.488 232.262C273.885 227.194 282.282 222.125 290.982 216.942C291.688 222.118 292.352 227.404 292.44 232.7C292.634 244.348 292.536 256.001 292.563 267.652C292.565 268.809 292.605 269.965 292.282 271.619C291.717 272.188 291.497 272.26 291.277 272.331C291.277 272.331 291.396 272.214 291.363 271.98C290.971 271.566 290.61 271.386 290.249 271.206C290.249 271.206 290.466 271.164 290.396 270.957C289.96 270.583 289.594 270.415 289.228 270.247C289.228 270.247 289.438 270.211 289.38 269.993C288.957 269.634 288.592 269.492 288.226 269.35C288.226 269.35 288.179 269.494 288.268 269.121C287.05 267.874 285.744 267 284.439 266.126C284.439 266.126 284.557 266.095 284.467 265.869C284.028 265.475 283.678 265.307 283.329 265.139C283.329 265.139 283.528 265.12 283.434 264.916C282.973 264.571 282.606 264.43 282.239 264.289C282.239 264.289 282.334 264.418 282.366 264.077C280.406 262.537 278.414 261.338 276.421 260.139C276.421 260.139 276.559 260.104 276.452 259.866C275.743 259.434 275.14 259.241 274.537 259.048C274.537 259.048 274.597 259.012 274.507 258.773C274.066 258.403 273.715 258.271 273.365 258.139C273.365 258.139 273.534 258.122 273.46 257.828C269.456 253.787 271.213 248.87 270.524 244.424C270.128 241.872 268.507 239.51 267.438 237.063C266.876 236.615 266.314 236.167 265.704 235.094C265.601 233.733 265.545 232.998 265.488 232.262Z" fill="#3B3732"/>
<path d="M243.69 276.169C226.276 277.789 209.414 278.238 194.01 269.124C189.496 266.454 185.919 262.848 185.828 256.015C188.391 258.681 190.056 261.787 192.555 262.765C201.425 266.236 210.399 270.463 219.676 271.594C229.359 272.775 239.558 271.422 249.298 269.786C254.816 268.859 259.866 265.139 264.646 262.901C264.802 268.391 256.311 274.411 243.69 276.169Z" fill="#E6E0D7"/>
<path d="M205.647 232.99C219.667 237.097 233.905 236.674 248.664 235.074C248.974 236.229 248.649 237.352 248.718 238.45C248.783 239.483 249.264 240.489 249.665 241.86C248.125 242.572 246.709 243.227 244.667 243.607C242.916 243.377 241.766 243.285 240.671 243.488C228.321 245.776 216.258 245.419 204.212 239.849C204.719 237.425 205.183 235.208 205.647 232.99Z" fill="#8F461D"/>
<path d="M181.696 223.857C185.87 225.671 190.044 227.485 194.063 229.631C192.41 230.623 190.911 231.283 189.194 231.986C188.683 232.186 188.538 232.431 188.23 232.944C183.454 238.827 184.922 245.582 184.565 252.013C184.291 252.069 184.04 252.179 183.306 252.596C158.915 258.622 135.15 260.612 111.772 250.571C111.338 250.347 110.905 250.122 110.081 249.639C109.337 249.284 108.983 249.188 108.629 249.091C107.891 248.654 107.154 248.217 105.939 247.465C104.848 246.83 104.235 246.511 103.622 246.191C102.943 245.678 102.264 245.165 101.408 244.385C105.227 245.866 109.224 247.614 113.791 249.376C118.424 250.617 122.486 251.844 126.902 253.121C134.18 256.32 141.476 255.269 148.9 255.067C149.103 255.062 149.51 255.035 149.8 255.309C152.23 255.689 154.371 255.796 156.789 255.837C157.576 255.527 158.087 255.282 158.986 255.032C163.53 254.379 167.667 253.411 171.848 253.148C181.131 252.564 185.452 246.926 183.593 237.784C182.661 233.202 182.31 228.503 181.696 223.857Z" fill="#1B1816"/>
<path d="M111.752 250.929C135.15 260.612 158.915 258.622 183.211 252.78C183.623 252.924 183.624 253.141 183.623 253.684C183.622 254.01 183.619 254.013 183.619 254.013C176.804 255.557 170.04 257.414 163.158 258.546C157.687 259.445 152.074 259.711 146.518 259.787C141.754 259.852 136.878 259.754 132.237 258.815C126.136 257.58 120.194 255.519 114.24 253.634C113.255 253.322 112.561 252.092 111.752 250.929Z" fill="#F5F0E9"/>
<path d="M265.477 339.858C260.167 341.581 254.957 344.267 249.527 344.828C237.71 346.05 225.784 346.499 213.896 346.607C209.481 346.647 205.047 344.862 200.627 343.883C198.976 343.517 197.341 343.074 195.862 342.214C196.495 341.685 196.966 341.609 197.437 341.533C197.437 341.533 197.621 341.372 197.789 341.583C199.714 342.099 201.472 342.404 203.23 342.709C203.23 342.709 203.621 342.552 203.77 342.705C211.472 343.525 219.026 344.192 226.58 344.858C227.354 344.91 228.129 344.962 229.732 344.991C238.279 344.031 245.997 343.092 253.716 342.154C253.716 342.154 253.639 342.524 254.179 342.617C256.075 342.211 257.431 341.713 258.786 341.215C258.786 341.215 258.686 341.388 259.149 341.41C261.567 340.907 263.522 340.383 265.477 339.858Z" fill="#176F6E"/>
<path d="M188.541 232.763C188.539 232.431 188.684 232.186 189.62 232.012C191.709 231.828 193.307 231.187 194.568 231.593C197.355 232.489 199.973 233.912 202.682 235.433C202.706 236.155 202.709 236.565 202.415 237.188C201.934 238.596 201.749 239.791 201.563 240.986C197.505 239.351 193.447 237.716 189.01 235.635C188.602 234.379 188.571 233.571 188.541 232.763Z" fill="#E6E0D7"/>
<path d="M202.711 236.975C202.708 236.565 202.706 236.155 202.983 235.25C203.376 233.844 203.49 232.935 203.603 232.026C204.164 232.191 204.725 232.356 205.467 232.756C205.183 235.208 204.719 237.425 204.212 239.849C216.258 245.419 228.321 245.776 240.671 243.488C241.766 243.285 242.916 243.377 244.298 243.606C244.556 243.879 244.531 244.049 244.311 244.07C243.576 244.323 243.062 244.554 242.548 244.786C242.113 244.832 241.679 244.878 240.609 244.987C239.161 245.284 238.349 245.517 237.538 245.75C236.803 245.807 236.068 245.865 234.539 245.962C231.692 246.091 229.64 246.178 227.228 246.189C226.132 246.154 225.397 246.197 224.264 246.159C222.786 246.083 221.706 246.087 220.626 246.091C220.199 245.986 219.772 245.882 218.8 245.637C217.712 245.438 217.169 245.381 216.627 245.323C215.562 245.215 214.498 245.106 212.798 244.725C210.316 243.995 208.47 243.539 206.623 243.082C206.623 243.082 206.331 242.868 205.994 242.663C205.321 242.372 204.985 242.287 204.649 242.202C204.649 242.202 204.249 241.989 203.895 241.733C203.261 241.26 202.981 241.044 202.701 240.827C202.701 240.827 202.693 240.926 202.748 240.519C202.772 239.067 202.742 238.021 202.711 236.975Z" fill="#7E3012"/>
<path d="M264.611 234.911C260.4 237.081 256.189 239.251 251.741 241.543C249.865 237.755 250.743 235.902 253.861 235.48C257.075 235.046 260.351 235.066 264.081 234.852C264.564 234.817 264.611 234.911 264.611 234.911Z" fill="#E6E0D7"/>
<path d="M267.58 237.464C268.507 239.51 270.128 241.872 270.524 244.424C271.213 248.87 269.456 253.787 273.447 257.912C271.924 257.463 270.34 256.637 269.748 256.328C269.017 249.668 268.37 243.767 267.58 237.464Z" fill="#1B1816"/>
<path d="M197.342 341.159C196.966 341.609 196.495 341.685 195.828 341.9C190.61 340.001 185.589 337.964 180.208 335.929C179.465 335.508 179.081 335.084 178.562 334.399C184.702 336.354 190.975 338.569 197.342 341.159Z" fill="white"/>
<path d="M188.23 232.944C188.571 233.571 188.601 234.379 188.641 235.591C187.975 239.347 187.309 242.701 186.619 246.05C186.22 247.987 185.78 249.916 184.962 251.931C184.922 245.582 183.455 238.827 188.23 232.944Z" fill="#F5F0E9"/>
<path d="M226.305 344.598C219.026 344.192 211.472 343.525 203.73 342.498C211.038 342.871 218.534 343.604 226.305 344.598Z" fill="white"/>
<path d="M253.268 342.112C245.997 343.092 238.279 344.031 230.113 344.911C237.385 343.926 245.103 342.997 253.268 342.112Z" fill="white"/>
<path d="M286.591 376.574C284.589 371.517 282.657 366.08 280.966 360.297C281.207 359.951 281.531 360.064 281.531 360.064C281.616 360.612 281.702 361.159 282.095 362.201C282.714 363.222 283.025 363.749 283.335 364.275C283.335 364.275 283.278 364.132 283.267 364.477C283.557 365.289 283.858 365.755 284.159 366.221C284.159 366.221 283.955 366.377 284.005 366.806C284.316 367.81 284.577 368.384 284.838 368.958C285.445 371.37 286.053 373.783 286.591 376.574Z" fill="#176F6E"/>
<path d="M220.72 246.48C221.706 246.087 222.786 246.083 224.459 246.364C225.897 246.522 226.743 246.394 227.589 246.266C229.64 246.178 231.692 246.091 234.181 246.055C230.2 249.68 225.505 248.224 220.72 246.48Z" fill="#F5F0E9"/>
<path d="M33.8613 209.346C35.9982 209.078 38.3578 209.096 41.1585 209.146C39.2975 212.692 36.6729 210.866 33.8613 209.346Z" fill="white"/>
<path d="M206.679 243.418C208.47 243.539 210.316 243.995 212.394 244.724C209.887 248.261 208.642 244.436 206.679 243.418Z" fill="#F5F0E9"/>
<path d="M293.337 274.809C294.943 275.787 296.723 277.037 298.567 278.631C296.925 277.677 295.218 276.379 293.337 274.809Z" fill="#1B1816"/>
<path d="M265.5 339.872C263.522 340.382 261.567 340.907 259.233 341.464C261.808 340.341 264.761 339.186 268.017 338.164C268.319 338.297 268.224 338.648 268.224 338.648C268.224 338.648 268.351 338.793 268.063 338.759C267.009 339.121 266.243 339.517 265.477 339.913C265.477 339.913 265.524 339.886 265.5 339.872Z" fill="white"/>
<path d="M276.59 260.429C278.414 261.338 280.406 262.537 282.291 264.103C280.374 263.219 278.566 261.969 276.59 260.429Z" fill="#1B1816"/>
<path d="M284.586 266.408C285.744 267 287.05 267.874 288.192 269.119C286.93 268.557 285.832 267.624 284.586 266.408Z" fill="#1B1816"/>
<path d="M237.575 246.048C238.349 245.517 239.161 245.284 240.296 245.091C239.618 245.536 238.615 245.941 237.575 246.048Z" fill="#F5F0E9"/>
<path d="M97.0654 241.91C97.9569 242.138 98.6996 242.705 99.586 243.519C98.792 243.26 97.8543 242.755 97.0654 241.91Z" fill="#F5F0E9"/>
<path d="M242.595 245.109C243.062 244.554 243.577 244.323 244.381 244.12C244.384 244.944 244.097 245.74 243.81 246.535C243.42 246.168 243.031 245.8 242.595 245.109Z" fill="#F5F0E9"/>
<path d="M203.195 342.284C201.472 342.404 199.714 342.099 197.712 341.488C199.365 341.408 201.263 341.633 203.195 342.284Z" fill="white"/>
<path d="M264.854 234.968C264.611 234.911 264.563 234.817 264.515 234.795C263.949 234.414 263.432 234.054 262.831 233.375C263.472 232.819 264.196 232.584 265.204 232.306C265.545 232.998 265.601 233.733 265.611 234.836C265.41 235.144 265.254 235.085 264.854 234.968Z" fill="#1B1816"/>
<path d="M94.627 240.044C95.3573 240.16 95.9776 240.589 96.8022 241.214C96.1766 241.059 95.3467 240.709 94.627 240.044Z" fill="#F5F0E9"/>
<path d="M298.687 279.342C299.302 279.804 299.947 280.609 300.545 281.774C300.498 282.135 300.39 282.245 300.156 282.275C299.923 282.304 299.58 282.186 299.58 282.186C299.292 281.352 299.004 280.518 298.687 279.342Z" fill="#1B1816"/>
<path d="M258.371 341.15C257.431 341.713 256.075 342.211 254.354 342.689C255.311 342.141 256.633 341.612 258.371 341.15Z" fill="white"/>
<path d="M103.63 246.53C104.235 246.511 104.848 246.83 105.634 247.353C105.085 247.327 104.361 247.098 103.63 246.53Z" fill="#F5F0E9"/>
<path d="M202.415 237.188C202.742 238.021 202.772 239.067 202.796 240.506C202.585 240.921 202.382 240.943 201.871 240.975C201.748 239.791 201.933 238.596 202.415 237.188Z" fill="#F5F0E9"/>
<path d="M281.741 359.9C281.531 360.064 281.207 359.951 281.044 359.894C280.882 359.838 280.812 359.874 280.799 359.569C280.581 358.642 280.376 358.02 280.171 357.399C280.171 357.399 280.356 357.24 280.448 357.163C281.01 357.969 281.48 358.852 281.741 359.9Z" fill="white"/>
<path d="M216.681 245.601C217.169 245.381 217.712 245.438 218.47 245.67C218.035 245.856 217.385 245.868 216.681 245.601Z" fill="#F5F0E9"/>
<path d="M285.063 368.729C284.577 368.384 284.317 367.81 284.016 366.934C284.413 367.255 284.85 367.877 285.063 368.729Z" fill="white"/>
<path d="M268.548 338.744C268.224 338.648 268.319 338.297 268.41 338.14C269.01 337.792 269.52 337.601 270.306 337.364C270.013 337.826 269.442 338.333 268.548 338.744Z" fill="#176F6E"/>
<path d="M284.285 365.895C283.858 365.755 283.558 365.289 283.212 364.531C283.582 364.683 283.996 365.126 284.285 365.895Z" fill="white"/>
<path d="M283.398 363.921C283.025 363.749 282.715 363.222 282.298 362.393C282.615 362.582 283.038 363.075 283.398 363.921Z" fill="white"/>
<path d="M274.737 259.271C275.14 259.241 275.743 259.434 276.452 259.937C276.018 259.996 275.477 259.745 274.737 259.271Z" fill="#1B1816"/>
<path d="M299.661 282.474C299.58 282.186 299.922 282.304 300.102 282.33C300.425 282.703 300.569 283.05 300.819 283.661C300.531 283.536 300.136 283.149 299.661 282.474Z" fill="white"/>
<path d="M45.4614 208.701C45.5825 208.264 45.8508 208.154 46.3794 208.172C46.2551 208.443 45.9115 208.686 45.4614 208.701Z" fill="white"/>
<path d="M53.085 205.294C53.2216 204.912 53.6679 204.495 54.4563 204.104C54.3304 204.507 53.8625 204.883 53.085 205.294Z" fill="#933C12"/>
<path d="M282.349 264.556C282.606 264.43 282.973 264.571 283.421 265.015C283.155 265.154 282.807 264.989 282.349 264.556Z" fill="#1B1816"/>
<path d="M283.447 265.4C283.678 265.307 284.028 265.475 284.466 265.93C284.224 266.032 283.895 265.847 283.447 265.4Z" fill="#1B1816"/>
<path d="M204.82 242.397C204.985 242.287 205.321 242.372 205.814 242.675C205.644 242.792 205.318 242.692 204.82 242.397Z" fill="#F5F0E9"/>
<path d="M291.377 272.557C291.497 272.26 291.717 272.188 292.281 272.059C292.58 272.23 292.537 272.46 292.378 273.021C291.929 273.26 291.668 273.07 291.377 272.557Z" fill="#1B1816"/>
<path d="M288.306 269.625C288.592 269.492 288.957 269.634 289.356 270.097C289.055 270.245 288.72 270.072 288.306 269.625Z" fill="#1B1816"/>
<path d="M202.798 241.087C202.981 241.044 203.261 241.26 203.669 241.715C203.497 241.751 203.196 241.55 202.798 241.087Z" fill="#F5F0E9"/>
<path d="M289.334 270.523C289.594 270.415 289.96 270.583 290.383 271.066C290.106 271.188 289.773 270.993 289.334 270.523Z" fill="#1B1816"/>
<path d="M290.356 271.482C290.61 271.386 290.971 271.566 291.388 272.06C291.118 272.168 290.791 271.963 290.356 271.482Z" fill="#1B1816"/>
<path d="M183.624 254.008C183.745 254.149 183.865 254.29 183.985 254.432C183.9 254.384 183.815 254.335 183.674 254.15C183.619 254.014 183.622 254.01 183.624 254.008Z" fill="#F5F0E9"/>
<path d="M108.792 249.309C108.983 249.188 109.337 249.284 109.827 249.633C109.627 249.765 109.291 249.646 108.792 249.309Z" fill="#F5F0E9"/>
<path d="M266.09 258.461C266.147 258.427 266.033 258.495 266.09 258.461Z" fill="#E6E0D7"/>
<path d="M273.488 258.387C273.716 258.271 274.067 258.402 274.507 258.808C274.268 258.933 273.94 258.784 273.488 258.387Z" fill="#1B1816"/>
<path d="M175.534 331.959C175.573 332.13 175.108 331.956 174.91 331.807C174.973 331.701 175.234 331.745 175.534 331.959Z" fill="white"/>
<path d="M176.53 332.847C176.337 332.913 176.022 332.738 175.605 332.304C175.804 332.232 176.105 332.419 176.53 332.847Z" fill="white"/>
<path d="M178.414 333.908C178.148 334.052 177.704 333.899 177.112 333.423C177.389 333.27 177.812 333.441 178.414 333.908Z" fill="white"/>
<path d="M54.9767 204.128C54.892 203.893 55.0875 203.576 55.5694 203.206C55.6561 203.45 55.4564 203.748 54.9767 204.128Z" fill="#933C12"/>
<path d="M56.0903 203.237C55.9621 202.952 56.1314 202.615 56.5961 202.232C56.7235 202.519 56.5557 202.852 56.0903 203.237Z" fill="#933C12"/>
<path d="M292.321 273.524C292.568 273.458 292.916 273.646 293.248 274.153C292.963 274.24 292.692 274.009 292.321 273.524Z" fill="#1B1816"/>
<path d="M48.3857 207.875C48.4108 207.708 48.7046 207.482 49.281 207.247C49.2606 207.43 48.9575 207.623 48.3857 207.875Z" fill="white"/>
<path d="M57.2139 202.362C57.1422 202.155 57.2584 201.894 57.4957 201.809C57.6168 201.984 57.4019 202.31 57.2139 202.362Z" fill="#933C12"/>
<path d="M279.992 357.2C280.376 358.02 280.581 358.642 280.833 359.588C280.021 358.706 279.162 357.499 278.526 356.113C279.105 356.289 279.459 356.645 279.992 357.2Z" fill="#176F6E"/>
<path d="M126.549 253.071C122.487 251.844 118.424 250.618 114.026 249.254C114.631 235.952 115.773 222.798 116.451 209.619C117.097 197.05 117.259 184.456 117.656 171.398C121.073 171.985 124.467 173.047 128.345 174.297C128.828 174.485 129.235 174.583 129.235 174.583L129.583 174.315C130.651 174.261 131.72 174.208 133.114 174.522C130.702 176.02 129.257 177.923 129.075 181.021C128.738 186.789 127.866 192.532 127.678 198.3C127.191 213.226 126.947 228.16 126.628 243.091C126.557 246.417 126.573 249.744 126.549 253.071Z" fill="#2E2D2A"/>
<path d="M115.788 169.933C116.234 169.892 116.784 170.176 117.513 170.71C117.091 170.727 116.492 170.492 115.788 169.933Z" fill="#2E2D2A"/>
<path d="M314.699 170.109C315.003 158.716 315.307 147.324 315.603 135.49C318.605 135.373 321.615 135.696 325.172 136.26C326.015 136.687 326.31 136.873 326.606 137.06C326.606 137.06 326.604 137.028 326.588 137.041C327.6 138.824 328.628 140.593 329.681 143.068C329.754 144.5 329.802 145.227 329.85 145.954C329.084 150.006 328.319 154.058 327.546 158.527C327.539 158.945 327.584 158.955 327.34 159.053C326.92 159.451 326.745 159.75 326.389 160.322C322.372 163.766 318.536 166.938 314.699 170.109Z" fill="#854924"/>
<path d="M326.486 136.815C326.31 136.873 326.015 136.687 325.572 136.277C325.739 136.227 326.053 136.398 326.486 136.815Z" fill="#302D2A"/>
<path d="M305.302 586.018C305.69 586.371 305.878 586.631 306.393 586.917C306.692 587.355 306.873 587.624 307.388 587.919C308.078 588.342 308.541 588.668 309.301 589.017C309.691 589.371 309.879 589.631 310.387 589.922C310.691 590.359 310.876 590.625 311.392 590.915C312.104 591.607 312.589 592.201 313.348 592.903C313.699 593.349 313.88 593.619 314.395 593.913C314.7 594.348 314.881 594.617 315.396 594.912C315.699 595.347 315.877 595.618 316.386 595.919C316.701 596.346 316.878 596.614 317.366 596.928C317.619 599.768 317.651 602.501 317.646 605.615C317.05 606.164 316.492 606.333 315.779 606.756C308.299 608.009 301 609.557 293.647 609.888C279.805 610.512 266.43 607.573 253.013 603.007C252.157 602.684 251.69 602.36 250.922 602.024C249.838 601.357 249.055 600.701 247.951 600.023C247.165 599.676 246.702 599.352 245.941 599.005C245.554 598.651 245.369 598.388 244.862 598.094C244.55 597.667 244.372 597.4 243.881 597.089C242.659 589.295 241.659 581.607 240.653 573.505C252.128 581.771 264.383 589.007 278.997 590.46C284.62 591.019 290.477 590.075 296.114 589.139C297.802 588.859 299.109 586.289 300.576 584.389C301.364 584.33 302.167 584.65 303.293 584.994C304.079 585.344 304.541 585.671 305.302 586.018Z" fill="#E97351"/>
<path d="M278.137 488.984C278.578 495.007 278.613 501.025 278.66 507.508C267.456 509.56 256.255 511.268 245.012 512.63C242.865 512.89 240.554 511.785 237.97 511.16C237.405 506.377 237.19 501.743 236.964 496.896C238.077 496.25 239.25 495.57 240.485 494.556C252.942 492.474 265.336 490.727 278.137 488.984Z" fill="#A05324"/>
<path d="M15.6202 169.012C14.6493 168.495 13.6784 167.977 12.7075 167.46C13.006 167.048 13.3044 166.637 13.6029 166.225C14.2542 166.936 14.9055 167.647 15.5894 168.684C15.6221 169.01 15.6202 169.012 15.6202 169.012Z" fill="#7E3012"/>
<path d="M7.86631 161.548C7.37855 160.913 7.11285 160.424 6.84717 159.935C7.03321 159.809 7.21925 159.683 7.4053 159.557C7.91743 160.199 8.42958 160.841 8.94172 161.483C8.81646 161.575 8.70225 161.713 8.5629 161.747C8.41733 161.782 8.24756 161.716 7.86631 161.548Z" fill="#7E3012"/>
<path d="M26.6143 146.02C27.0583 146.14 27.5023 146.26 27.9463 146.38C27.5883 146.397 27.2302 146.414 26.747 146.221C26.6219 146.01 26.6143 146.02 26.6143 146.02Z" fill="#7E3012"/>
<path d="M38.6141 158.02C38.4843 157.569 38.3544 157.118 38.2246 156.667C38.3581 156.946 38.4916 157.226 38.6237 157.758C38.6224 158.01 38.6141 158.02 38.6141 158.02Z" fill="#7E3012"/>
<path d="M18.6167 173.017C18.8694 173.371 19.122 173.724 19.3746 174.078C19.2474 174.165 19.1201 174.251 18.9928 174.338C18.8736 174.056 18.7544 173.775 18.6287 173.252C18.6221 173.01 18.6167 173.017 18.6167 173.017Z" fill="#7E3012"/>
<path d="M36.0995 155.426C36.1684 155.381 36.0306 155.47 36.0995 155.426Z" fill="#7E3012"/>
<path d="M26.6266 146.007C26.5071 145.851 26.383 145.699 26.2588 145.548C26.3486 145.604 26.4384 145.659 26.5713 145.867C26.6143 146.02 26.622 146.01 26.6266 146.007Z" fill="#7E3012"/>
<path d="M30.5642 148.86C30.4857 148.863 30.3493 148.716 30.2129 148.569C30.3107 148.616 30.4085 148.664 30.5642 148.86Z" fill="#7E3012"/>
<path d="M31.6245 150.007C31.9567 150.094 32.2231 150.277 32.5229 150.783C32.6219 151.01 32.6141 151.02 32.6141 151.02C32.2693 150.949 31.9985 150.768 31.7118 150.243C31.6221 150.01 31.6245 150.007 31.6245 150.007Z" fill="#7E3012"/>
<path d="M32.6265 151.006C32.9646 151.088 33.2315 151.27 33.5267 151.78C33.6215 152.011 33.6092 152.026 33.6092 152.026C33.2632 151.958 32.9921 151.777 32.705 151.252C32.6141 151.02 32.6219 151.01 32.6265 151.006Z" fill="#7E3012"/>
<path d="M33.629 152.005C33.9681 152.087 34.2336 152.271 34.5273 152.78C34.6216 153.011 34.6088 153.026 34.6088 153.026C34.2634 152.959 33.9923 152.779 33.7023 152.257C33.6093 152.026 33.6217 152.011 33.629 152.005Z" fill="#7E3012"/>
<path d="M34.6288 153.005C34.7604 153.164 34.8846 153.33 35.0087 153.496C34.909 153.443 34.8092 153.391 34.659 153.182C34.6085 153.026 34.6212 153.011 34.6288 153.005Z" fill="#7E3012"/>
<path d="M31.6204 150.011C31.2733 149.945 31.002 149.765 30.7134 149.242C30.9537 149.098 31.2194 149.281 31.522 149.783C31.6247 150.007 31.6222 150.01 31.6204 150.011Z" fill="#7E3012"/>
<path d="M24.6099 143.026C24.731 143.167 24.8522 143.308 24.9733 143.45C24.8922 143.394 24.811 143.339 24.6762 143.146C24.6224 143.01 24.6099 143.026 24.6099 143.026Z" fill="#7E3012"/>
<path d="M17.6226 172.01C17.9646 172.084 18.2307 172.268 18.5188 172.789C18.6169 173.017 18.6223 173.01 18.6261 173.007C18.2842 172.939 18.0143 172.759 17.7213 172.238C17.6223 172.01 17.6226 172.01 17.6226 172.01Z" fill="#7E3012"/>
<path d="M15.6234 169.009C15.7506 169.165 15.8766 169.322 16.0027 169.478C15.9079 169.425 15.8131 169.372 15.6694 169.166C15.6204 169.012 15.6234 169.009 15.6234 169.009Z" fill="#7E3012"/>
<path d="M17.6218 172.01C17.4959 171.853 17.3703 171.696 17.2446 171.539C17.3385 171.594 17.4324 171.648 17.5743 171.856C17.6223 172.01 17.6218 172.01 17.6218 172.01Z" fill="#7E3012"/>
<path d="M24.6306 143.003C24.5075 142.862 24.3763 142.726 24.2451 142.591C24.3311 142.642 24.4171 142.692 24.5565 142.884C24.6099 143.026 24.6225 143.01 24.6306 143.003Z" fill="#7E3012"/>
<path d="M38.6279 158.005C38.7625 158.156 38.8916 158.311 39.0208 158.466C38.9227 158.418 38.8246 158.369 38.6704 158.17C38.6142 158.02 38.6225 158.01 38.6279 158.005Z" fill="#7E3012"/>
<path d="M314.646 170.515C318.536 166.938 322.372 163.767 326.62 160.203C327.216 159.526 327.4 159.24 327.584 158.955C327.584 158.955 327.539 158.945 327.527 158.924C328.29 158.936 329.067 158.968 330.231 159.006C330.625 161.382 330.632 163.752 330.375 166.78C330.281 168.628 330.45 169.819 330.619 171.01C330.621 172.076 330.624 173.143 330.332 174.91C329.922 187.837 329.795 200.065 329.731 212.292C329.728 212.863 330.28 213.436 330.573 214.008C329.911 236.371 329.248 258.733 328.593 281.544C328.317 282.163 328.034 282.333 327.681 282.751C327.321 283.162 327.03 283.327 326.672 283.739C326.03 284.141 325.455 284.295 324.746 284.721C321.257 284.992 317.903 284.99 314.092 284.99C312.524 283.995 311.413 282.997 309.959 281.959C309.62 262.759 309.516 243.6 309.671 224.442C309.749 214.82 310.173 205.194 310.707 195.585C310.879 192.495 311.903 189.453 312.464 185.926C313.125 180.616 313.859 175.769 314.646 170.515Z" fill="#3C3833"/>
<path d="M330.595 213.541C330.28 213.436 329.727 212.863 329.73 212.292C329.795 200.065 329.922 187.837 330.327 175.31C330.616 187.698 330.617 200.385 330.595 213.541Z" fill="#302D2A"/>
<path d="M330.63 170.61C330.45 169.819 330.281 168.628 330.369 167.224C330.63 168.077 330.636 169.143 330.63 170.61Z" fill="#302D2A"/>
<path d="M330.05 145.757C329.802 145.227 329.754 144.5 329.752 143.411C329.949 143.886 330.1 144.723 330.05 145.757Z" fill="#3A352F"/>
<path d="M126.902 253.121C126.573 249.744 126.556 246.417 126.628 243.091C126.947 228.16 127.191 213.226 127.677 198.3C127.865 192.532 128.738 186.789 129.075 181.021C129.257 177.923 130.702 176.02 133.515 174.539C135.537 173.293 137.483 172.398 139.407 171.514C142.963 178.761 146.57 186.111 150.152 193.893C150.318 194.545 150.509 194.763 150.699 194.982C150.699 194.982 150.632 195.007 150.62 195.404C150.28 197.575 149.703 199.344 149.666 201.124C149.292 219.106 149.007 237.089 148.697 255.072C141.476 255.269 134.18 256.32 126.902 253.121Z" fill="#3C3833"/>
<path d="M182.714 158.606C181.76 153.436 180.807 148.267 180.123 142.496C180.5 141.272 180.609 140.65 180.717 140.027C180.717 140.027 180.641 140.021 180.991 139.92C185.524 128.178 194.315 121.907 206.475 123.176C211.246 123.674 215.775 126.482 220.415 128.238C220.415 128.238 220.512 128.134 220.244 128.458C220.498 129.217 221.022 129.652 221.545 130.087C221.545 130.087 221.62 130.018 221.594 130.36C221.893 130.849 222.217 130.995 222.542 131.141C222.542 131.141 222.562 131.06 222.414 131.388C222.695 132.175 223.124 132.633 223.553 133.09C223.553 133.09 223.606 133.011 223.553 133.357C223.87 134.154 224.24 134.605 224.673 135.439C227.901 142.251 226.495 148.615 224.469 154.97C224.469 154.97 224.568 154.974 224.314 155.111C223.86 155.824 223.662 156.401 223.463 156.978C223.463 156.978 223.568 156.972 223.294 157.097C222.503 158.124 221.986 159.027 221.468 159.929C221.468 159.929 221.556 159.945 221.318 160.011C220.906 160.354 220.733 160.63 220.559 160.907C219.966 161.412 219.372 161.917 218.43 162.785C217.804 163.352 217.607 163.615 217.491 163.938C217.491 163.938 217.577 163.964 217.313 164.007C216.836 164.34 216.624 164.63 216.411 164.92C216.411 164.92 216.573 164.922 216.256 164.905C215.456 165.239 214.974 165.59 214.492 165.941C214.492 165.941 214.589 165.964 214.288 165.973C213.483 166.297 212.981 166.612 212.478 166.928C212.478 166.928 212.585 166.943 212.164 166.956C205.368 169.122 199.012 168.779 192.666 166.836C192.666 166.836 192.653 166.942 192.518 166.694C191.805 166.257 191.226 166.067 190.647 165.878C190.647 165.878 190.653 165.969 190.506 165.71C189.467 164.93 188.575 164.408 187.683 163.886C187.683 163.886 187.664 163.969 187.545 163.689C186.908 163.158 186.39 162.906 185.871 162.654C185.871 162.654 185.875 162.789 185.911 162.435C185.204 161.338 184.461 160.594 183.718 159.85C183.718 159.85 183.675 159.955 183.636 159.674C183.303 159.131 183.008 158.868 182.714 158.606ZM196.419 153.31C196.912 153.712 197.405 154.115 198.195 154.609C198.195 154.609 198.416 154.39 198.756 155.011C203.088 157.253 207.375 157.223 212.266 154.611C218.519 149.254 219.78 144.802 216.695 138.951C216.695 138.951 216.788 138.914 216.652 138.197C214.973 132.906 210.512 131.361 205.848 131.257C201.202 131.153 196.741 132.596 194.663 137.813C194.663 137.813 194.943 137.748 194.128 137.685C191.37 142.966 191.41 147.948 195.861 152.754C195.861 152.754 196.126 152.932 196.419 153.31Z" fill="#F5EFE8"/>
<path d="M294.568 160.919C284.885 169.494 273.938 170.897 265.443 164.375C257.97 158.639 254.889 151.157 257.354 141.763C257.603 140.815 257.606 139.803 258 138.189C258.751 136.389 259.226 135.222 259.7 134.054C259.7 134.054 259.627 134.014 259.956 133.942C260.763 132.945 261.241 132.02 261.718 131.095C261.718 131.095 261.632 131.006 262.02 130.997C264.998 129.311 267.387 127.065 270.217 126.061C280.164 122.532 288.497 125.711 295.546 133.089C295.546 133.089 295.614 133.018 295.566 133.382C296.189 134.541 296.86 135.335 297.532 136.13C297.532 136.13 297.563 136.04 297.346 136.33C297.558 137.358 297.988 138.096 298.418 138.835C298.418 138.835 298.41 138.978 298.53 139.418C300.905 145.748 299.12 151.335 297.37 156.925C297.37 156.925 297.499 156.947 297.218 157.041C296.738 157.723 296.538 158.311 296.338 158.898C296.338 158.898 296.495 158.941 296.216 158.931C295.776 159.268 295.616 159.615 295.456 159.961C295.456 159.961 295.56 159.952 295.32 160.016C294.908 160.359 294.738 160.639 294.568 160.919ZM266.071 138.077C265.877 138.373 265.684 138.669 265.572 138.966C265.572 138.966 265.552 138.887 264.925 139.279C261.785 144.153 261.12 149.087 264.6 154.047C264.6 154.047 264.523 154.044 264.671 154.593C264.964 154.824 265.257 155.055 265.628 155.705C265.787 155.982 266.027 156.109 266.618 156.584C266.942 156.759 267.266 156.933 267.589 157.031C267.589 157.031 267.519 157.062 268.018 157.667C272.694 159.712 277.311 160.321 281.679 157.069C281.679 157.069 281.68 157.162 282.211 156.98C282.441 156.697 282.671 156.415 282.72 156.114C282.72 156.114 282.745 156.295 283.274 156.067C283.495 155.761 283.715 155.456 283.745 155.128C283.745 155.128 283.776 155.318 284.285 155.068C284.467 154.74 284.649 154.412 284.716 154.077C284.716 154.077 284.745 154.189 285.297 153.878C285.352 153.273 285.407 152.669 285.773 151.275C287.823 146.288 286.908 141.867 282.849 137.418C282.451 137.215 282.054 137.011 281.668 136.96C281.668 136.96 281.817 136.926 281.573 136.461C281.266 136.342 280.959 136.224 280.3 135.895C280.3 135.895 279.894 135.939 279.295 135.333C276.228 135.534 273.161 135.735 269.822 135.826C269.822 135.826 269.615 136.033 268.964 136.092C268.65 136.384 268.335 136.676 267.766 136.865C267.766 136.865 267.599 137.084 267.093 137.161C266.891 137.433 266.69 137.704 266.585 137.983C266.585 137.983 266.578 137.887 266.071 138.077Z" fill="#F5EFE8"/>
<path d="M181.669 223.888C182.31 228.503 182.661 233.202 183.593 237.784C185.452 246.926 181.131 252.564 171.847 253.148C167.667 253.411 163.53 254.379 159.237 254.74C159.941 252.746 161.434 251.07 161.518 249.326C162.058 238.093 162.222 226.842 162.716 215.606C162.771 214.35 164.126 213.15 164.879 211.925C169.947 215.442 175.015 218.959 180.446 222.943C181.103 223.602 181.397 223.794 181.691 223.987C181.691 223.987 181.642 223.92 181.669 223.888Z" fill="#393631"/>
<path d="M164.682 211.646C164.127 213.15 162.772 214.35 162.716 215.606C162.222 226.842 162.058 238.093 161.518 249.326C161.434 251.07 159.941 252.746 158.849 254.745C158.087 255.282 157.576 255.527 156.525 255.565C153.826 255.25 151.668 255.143 149.51 255.035C149.51 255.035 149.103 255.062 148.9 255.067C149.007 237.089 149.292 219.106 149.666 201.124C149.703 199.344 150.28 197.575 150.635 195.372C155.271 200.418 159.878 205.892 164.682 211.646Z" fill="#2E2D2A"/>
<path d="M210.565 190.884C210.885 188.867 210.88 186.56 211.992 185.706C212.833 185.06 215.704 185.718 216.639 186.74C228.712 199.931 242.936 198.671 257.761 193.018C260.138 192.112 262.004 189.937 264.309 188.735C265.631 188.045 268.023 187.4 268.741 188.05C269.696 188.917 270.272 191.589 269.624 192.555C268.112 194.81 266.104 197.3 263.713 198.305C249.179 204.412 234.344 206.363 219.682 198.889C216.277 197.153 213.687 193.818 210.565 190.884Z" fill="#8F461D"/>
<path d="M179.436 106.198C180.733 103.747 181.592 101.133 183.396 99.7654C193.145 92.3725 204.193 89.7395 216.221 92.2402C218.124 92.6358 220.396 94.1041 221.278 95.7356C222.121 97.2943 222.012 100.072 221.128 101.641C220.406 102.923 217.765 104.084 216.249 103.806C205.531 101.838 195.503 103.44 185.805 108.316C183.666 109.391 180.58 110.759 179.436 106.198Z" fill="#302D2A"/>
<path d="M293.697 109.913C292.125 109.36 290.74 109.041 289.773 108.226C284.917 104.138 279.264 102.836 273.098 103.052C270.778 103.133 268.454 103.074 266.134 103.162C263.096 103.278 259.715 102.835 260.005 99.2321C260.202 96.7839 262.184 93.3857 264.303 92.3783C272.732 88.3702 290.638 94.8589 295.13 103.096C296.426 105.472 298.41 108.27 293.697 109.913Z" fill="#302D2A"/>
<path d="M247.026 178.929C242.143 178.668 237.62 178.736 233.284 177.866C231.52 177.511 230.164 175.118 228.623 173.653C230.233 172.076 231.68 169.4 233.486 169.132C238.665 168.362 244.034 168.115 249.234 168.624C251.162 168.813 252.828 171.677 254.613 173.321C253.018 174.91 251.483 176.569 249.793 178.051C249.216 178.556 248.25 178.617 247.026 178.929Z" fill="#8F461D"/>
<path d="M220.504 127.886C215.776 126.482 211.246 123.674 206.476 123.176C194.315 121.907 185.524 128.178 181.011 139.952C180.796 130.917 187.384 123.016 197.508 119.904C206.713 117.076 215.449 119.963 220.504 127.886Z" fill="#24201E"/>
<path d="M295.663 132.739C288.497 125.711 280.164 122.532 270.217 126.061C267.387 127.065 264.998 129.311 262.066 131.039C262.897 125.754 269.559 121.205 276.889 121.177C285.323 121.145 291.88 124.613 295.663 132.739Z" fill="#24201E"/>
<path d="M192.781 167.199C199.012 168.779 205.368 169.122 212.16 166.901C208.907 167.926 205.28 169.648 201.552 169.902C198.733 170.094 195.786 168.411 192.781 167.199Z" fill="#933C12"/>
<path d="M224.833 154.853C226.495 148.615 227.901 142.251 224.685 135.169C224.656 134.335 224.678 134.156 224.699 133.977C229.191 140.793 228.84 147.725 224.833 154.853Z" fill="#933C12"/>
<path d="M297.746 156.83C299.12 151.335 300.905 145.748 298.596 139.447C301.772 142.584 301.565 151.335 297.746 156.83Z" fill="#933C12"/>
<path d="M203.612 232.019C203.49 232.935 203.376 233.844 202.961 234.937C199.972 233.912 197.355 232.489 194.567 231.593C193.306 231.187 191.709 231.828 189.838 231.969C190.912 231.283 192.41 230.623 194.279 229.899C195.409 229.869 196.169 229.903 197.637 230.036C200.098 230.765 201.853 231.396 203.607 232.027C203.607 232.027 203.621 232.011 203.612 232.019Z" fill="#F5F0E9"/>
<path d="M203.549 231.686C201.852 231.396 200.098 230.765 198.019 230.006C199.627 230.367 201.56 230.856 203.549 231.686Z" fill="#7E3012"/>
<path d="M259.384 134C259.226 135.222 258.751 136.389 258.038 137.759C258.223 136.623 258.645 135.284 259.384 134Z" fill="#24201E"/>
<path d="M261.351 130.984C261.241 132.02 260.763 132.945 259.983 133.974C260.115 133.01 260.55 131.942 261.351 130.984Z" fill="#24201E"/>
<path d="M221.839 159.923C221.986 159.027 222.503 158.124 223.281 157.046C223.097 157.886 222.653 158.901 221.839 159.923Z" fill="#933C12"/>
<path d="M183.696 160.204C184.461 160.594 185.204 161.338 185.961 162.39C185.207 161.985 184.441 161.272 183.696 160.204Z" fill="#933C12"/>
<path d="M187.693 164.254C188.575 164.408 189.467 164.93 190.551 165.699C189.729 165.505 188.716 165.063 187.693 164.254Z" fill="#933C12"/>
<path d="M297.562 135.78C296.86 135.335 296.189 134.541 295.521 133.403C296.214 133.85 296.903 134.64 297.562 135.78Z" fill="#24201E"/>
<path d="M298.442 138.511C297.988 138.097 297.558 137.358 297.298 136.324C297.801 136.748 298.133 137.468 298.442 138.511Z" fill="#24201E"/>
<path d="M294.722 161.104C294.738 160.639 294.909 160.359 295.302 159.966C295.309 160.332 295.092 160.81 294.722 161.104Z" fill="#933C12"/>
<path d="M217.745 163.954C217.608 163.614 217.804 163.352 218.312 163.056C218.361 163.298 218.179 163.634 217.745 163.954Z" fill="#933C12"/>
<path d="M223.646 132.756C223.124 132.633 222.695 132.175 222.372 131.391C222.899 131.518 223.319 131.97 223.646 132.756Z" fill="#24201E"/>
<path d="M185.915 162.985C186.39 162.906 186.908 163.158 187.586 163.677C187.149 163.736 186.553 163.526 185.915 162.985Z" fill="#933C12"/>
<path d="M214.826 165.941C214.974 165.59 215.457 165.239 216.242 164.826C216.083 165.156 215.622 165.549 214.826 165.941Z" fill="#933C12"/>
<path d="M190.78 166.175C191.226 166.067 191.805 166.257 192.572 166.69C192.144 166.78 191.529 166.626 190.78 166.175Z" fill="#933C12"/>
<path d="M212.809 166.933C212.981 166.612 213.484 166.297 214.291 165.923C214.11 166.222 213.625 166.58 212.809 166.933Z" fill="#933C12"/>
<path d="M223.764 156.849C223.662 156.401 223.861 155.824 224.306 155.062C224.39 155.492 224.227 156.106 223.764 156.849Z" fill="#933C12"/>
<path d="M220.711 161.095C220.733 160.63 220.906 160.354 221.306 159.968C221.308 160.334 221.086 160.808 220.711 161.095Z" fill="#933C12"/>
<path d="M296.661 158.794C296.537 158.311 296.737 157.723 297.209 156.976C297.315 157.441 297.15 158.065 296.661 158.794Z" fill="#933C12"/>
<path d="M180.386 140.122C180.609 140.65 180.5 141.272 180.113 142.05C179.907 141.543 179.98 140.88 180.386 140.122Z" fill="#24201E"/>
<path d="M224.599 133.706C224.678 134.156 224.656 134.335 224.622 134.785C224.241 134.605 223.87 134.154 223.513 133.383C223.85 133.187 224.174 133.311 224.599 133.706Z" fill="#24201E"/>
<path d="M221.674 129.748C221.022 129.652 220.498 129.217 220.175 128.476C220.851 128.583 221.327 128.996 221.674 129.748Z" fill="#24201E"/>
<path d="M222.544 130.823C222.217 130.995 221.893 130.849 221.549 130.385C221.869 130.213 222.207 130.358 222.544 130.823Z" fill="#24201E"/>
<path d="M181.616 223.718C181.397 223.794 181.103 223.602 180.687 223.168C180.89 223.101 181.216 223.275 181.616 223.718Z" fill="#1B1816"/>
<path d="M129.353 174.253C129.583 174.314 129.235 174.582 129.235 174.582C129.235 174.582 128.828 174.485 128.739 174.363C128.651 174.241 129.124 174.192 129.353 174.253Z" fill="#3C3833"/>
<path d="M216.689 164.852C216.624 164.63 216.837 164.34 217.317 163.962C217.379 164.178 217.173 164.482 216.689 164.852Z" fill="#933C12"/>
<path d="M182.784 158.911C183.009 158.868 183.303 159.131 183.692 159.685C183.475 159.723 183.164 159.469 182.784 158.911Z" fill="#933C12"/>
<path d="M295.729 159.869C295.616 159.615 295.776 159.268 296.216 158.85C296.332 159.111 296.167 159.444 295.729 159.869Z" fill="#933C12"/>
<path d="M150.647 194.753C150.509 194.764 150.318 194.545 150.259 194.214C150.391 194.102 150.596 194.524 150.647 194.753Z" fill="#2E2D2A"/>
<path d="M265.849 339.939C266.243 339.517 267.009 339.121 268.104 338.672C267.696 339.068 266.959 339.516 265.849 339.939Z" fill="#176F6E"/>
<path d="M149.8 255.309C151.668 255.143 153.826 255.25 156.248 255.63C154.371 255.796 152.23 255.689 149.8 255.309Z" fill="#3C3833"/>
<path d="M227.227 246.189C226.743 246.394 225.897 246.522 224.856 246.444C225.397 246.197 226.132 246.154 227.227 246.189Z" fill="#F4EEE3"/>
<path d="M327.339 159.053C327.4 159.24 327.216 159.526 326.8 159.93C326.744 159.75 326.92 159.451 327.339 159.053Z" fill="#302D2A"/>
<path d="M194.943 137.748C194.943 137.748 194.663 137.813 195.051 137.763C199.015 134.769 203.147 132.81 207.683 134.089C210.914 135 213.766 137.257 216.788 138.914C216.788 138.914 216.694 138.951 216.629 139.273C216.985 145.12 214.597 149.686 211.164 154.031C206.604 154.134 202.51 154.262 198.415 154.39C198.415 154.39 198.195 154.609 198.236 154.198C197.56 153.503 196.843 153.217 196.126 152.932C196.126 152.932 195.861 152.754 196.036 152.28C194.428 147.242 192.431 142.698 194.943 137.748Z" fill="#34322F"/>
<path d="M216.72 138.555C213.766 137.257 210.914 135 207.683 134.089C203.147 132.81 199.016 134.77 195.009 137.626C196.741 132.596 201.202 131.153 205.848 131.257C210.512 131.361 214.973 132.906 216.72 138.555Z" fill="#1B1816"/>
<path d="M211.63 154.055C214.598 149.686 216.985 145.12 216.646 139.225C219.78 144.801 218.519 149.254 211.94 154.509C211.614 154.407 211.63 154.055 211.63 154.055Z" fill="#1B1816"/>
<path d="M211.164 154.031C211.629 154.055 211.614 154.407 211.614 154.583C207.375 157.223 203.088 157.253 198.586 154.7C202.51 154.262 206.604 154.134 211.164 154.031Z" fill="#151310"/>
<path d="M194.535 137.717C192.431 142.698 194.428 147.242 195.958 152.141C191.41 147.948 191.37 142.966 194.535 137.717Z" fill="#151310"/>
<path d="M196.273 153.121C196.843 153.217 197.56 153.503 198.088 154.153C197.406 154.115 196.913 153.712 196.273 153.121Z" fill="#151310"/>
<path d="M283.234 137.972C286.908 141.867 287.823 146.288 285.374 151.852C284.898 153.015 284.821 153.602 284.745 154.189C284.745 154.189 284.715 154.077 284.485 154.168C284.095 154.612 283.935 154.965 283.775 155.318C283.775 155.318 283.745 155.128 283.539 155.202C283.137 155.615 282.941 155.955 282.745 156.295C282.745 156.295 282.72 156.114 282.519 156.177C282.105 156.548 281.893 156.855 281.68 157.162C281.68 157.162 281.678 157.07 281.294 157.044C276.446 157.033 271.982 157.047 267.519 157.062C267.519 157.062 267.589 157.031 267.492 156.794C267.044 156.401 266.695 156.244 266.345 156.088C266.026 156.109 265.787 155.982 265.518 155.212C265.114 154.493 264.818 154.269 264.522 154.044C264.522 154.044 264.6 154.047 264.595 153.657C264.911 148.474 265.232 143.68 265.552 138.887C265.552 138.887 265.572 138.966 265.797 138.886C266.207 138.499 266.392 138.193 266.578 137.887C266.578 137.887 266.585 137.983 266.767 137.888C267.271 137.653 267.488 137.417 267.599 137.084C267.599 137.084 267.766 136.865 268.214 136.847C268.979 136.563 269.297 136.298 269.615 136.033C269.615 136.033 269.822 135.826 270.455 135.914C274.023 135.982 276.958 135.961 279.893 135.939C279.893 135.939 280.3 135.895 280.592 136.226C281.195 136.68 281.506 136.803 281.817 136.926C281.817 136.926 281.668 136.96 281.809 137.201C282.378 137.619 282.806 137.795 283.234 137.972Z" fill="#34322F"/>
<path d="M265.239 139.083C265.232 143.68 264.911 148.474 264.58 153.693C261.12 149.087 261.784 144.153 265.239 139.083Z" fill="#151310"/>
<path d="M267.768 157.365C271.982 157.047 276.446 157.033 281.339 157.056C277.311 160.321 272.694 159.712 267.768 157.365Z" fill="#151310"/>
<path d="M279.594 135.636C276.959 135.96 274.024 135.982 270.591 135.969C273.161 135.735 276.228 135.534 279.594 135.636Z" fill="#151310"/>
<path d="M285.021 154.034C284.821 153.602 284.898 153.015 285.218 152.246C285.407 152.669 285.352 153.273 285.021 154.034Z" fill="#151310"/>
<path d="M283.042 137.695C282.806 137.796 282.378 137.619 281.803 137.125C282.054 137.011 282.451 137.215 283.042 137.695Z" fill="#151310"/>
<path d="M283.009 156.181C282.941 155.955 283.136 155.615 283.634 155.213C283.715 155.456 283.495 155.761 283.009 156.181Z" fill="#151310"/>
<path d="M264.597 154.318C264.818 154.269 265.114 154.493 265.48 155.002C265.257 155.055 264.964 154.824 264.597 154.318Z" fill="#151310"/>
<path d="M284.03 155.193C283.935 154.965 284.095 154.612 284.543 154.171C284.649 154.412 284.467 154.74 284.03 155.193Z" fill="#151310"/>
<path d="M281.945 157.071C281.893 156.855 282.105 156.548 282.61 156.187C282.671 156.415 282.441 156.697 281.945 157.071Z" fill="#151310"/>
<path d="M266.481 156.336C266.695 156.244 267.045 156.401 267.493 156.833C267.267 156.933 266.942 156.759 266.481 156.336Z" fill="#151310"/>
<path d="M269.289 136.062C269.297 136.298 268.979 136.563 268.341 136.898C268.335 136.676 268.649 136.384 269.289 136.062Z" fill="#151310"/>
<path d="M281.695 136.694C281.506 136.803 281.195 136.68 280.768 136.331C280.959 136.224 281.266 136.343 281.695 136.694Z" fill="#151310"/>
<path d="M267.346 137.122C267.488 137.417 267.271 137.653 266.719 137.885C266.69 137.704 266.891 137.433 267.346 137.122Z" fill="#151310"/>
<path d="M266.324 137.982C266.392 138.193 266.207 138.499 265.756 138.885C265.684 138.669 265.877 138.373 266.324 137.982Z" fill="#151310"/>
</svg>
