<svg xmlns="http://www.w3.org/2000/svg" version="1.1" xmlns:xlink="http://www.w3.org/1999/xlink" width="192" height="192"><svg width="192" height="192" viewBox="0 0 192 192" fill="none" xmlns="http://www.w3.org/2000/svg">
<g clip-path="url(#clip0_13_3)">
<path d="M142 193C107.646 193 73.2915 193 38.4964 192.532C38.0627 144.672 38.1429 97.2798 37.9676 49.8886C37.9495 44.9925 39.399 43.7328 44.1423 43.8341C58.1041 44.1322 72.4425 43.5346 86.5 44C86.606 76.0991 86.2259 108.131 86.3134 139.762C86.3238 143.551 84.9057 148.358 90.253 149.866C95.4924 151.343 96.9167 146.608 99.0877 143.456C103.659 136.82 108.106 130.098 113.027 122.783C118.518 130.994 123.541 138.4 128.439 145.887C130.306 148.741 132.719 151.567 135.994 149.628C137.986 148.449 139.582 144.923 139.632 142.417C139.954 126.441 139.765 110.456 139.805 94.474C139.848 77.6658 139.361 60.7648 139.805 44C150.459 47.2314 155.842 53.1822 155.875 63.6611C155.989 99.2969 156.018 134.934 155.844 170.569C155.803 179.024 152.446 186.058 144.547 190.311C143.515 190.867 142.84 192.087 142 193Z" fill="#E0E7EC"></path>
<path d="M86.5 44C72.5318 44.0029 58.104 44.1322 44.1423 43.8341C39.399 43.7328 37.9495 44.9925 37.9676 49.8886C38.1429 97.2798 38.535 144.14 38.5 192C32 192 29.5 192 22.5 192C20 192 16.6197 190.793 15.5383 190.115C9.65632 186.423 6.04063 181.283 6.03218 174.213C5.97394 125.456 5.93775 76.6986 6.13495 27.942C6.14916 24.4303 7.39723 20.5173 9.23717 17.5022C13.3133 10.8226 17.5 7.5 25.5 3.5C26.3572 3.29416 28.4019 2 29.9019 2C76.9228 2 120.817 1.71234 168 1.99997C170.5 1.99997 172.869 2.94191 174 3.49997C183.378 8.12914 187.826 16.2827 187.894 26.4362C188.152 65.1645 188.083 103.896 187.918 142.625C187.889 149.527 184.633 155.008 177.713 157.739C177.254 155.485 176.995 153.508 176.994 151.53C176.969 112.231 176.999 72.9327 176.959 33.6343C176.946 20.8743 168.025 11.9214 155.328 11.8972C129.684 11.8481 104.04 11.8675 78.3963 11.88C66.7402 11.8856 55.0745 11.6681 43.4315 12.0757C36.1522 12.3305 29.1689 14.0148 25.9103 22.343C24.5847 29.4594 27.284 32.9132 34.0507 32.938C51.368 33.0014 69.0968 32.5477 86.5 33C86.5423 36.8105 86.5434 40.6433 86.5 44Z" fill="#ABB9C3"></path>
<path d="M143 192C143.377 191.087 143.515 190.867 144.547 190.311C152.446 186.058 155.803 179.024 155.844 170.569C156.018 134.934 155.989 99.2969 155.875 63.6611C155.842 53.1821 150.732 47.6897 140 44C139.608 40.1071 139.499 36.3884 140 33C151.343 32.0598 160.299 35.0467 165.5 45C165.899 48.3731 166.016 52.7968 166.048 55.7545C166.174 67.4138 166.2 79.0762 166.082 90.7356C165.777 120.847 165.881 151.528 165.5 182C163.5 185.5 162 186.625 159.5 188.5C157.5 190 155.5 190.5 154.5 191C153.5 191.5 147.488 192 143 192Z" fill="#ABB9C2"></path>
<path d="M140.032 32.9593C139.982 36.3505 139.932 39.7417 139.961 43.5912C139.959 60.8577 139.848 77.6658 139.805 94.4741C139.765 110.456 139.954 126.441 139.632 142.417C139.582 144.923 137.986 148.449 135.994 149.628C132.719 151.567 130.306 148.741 128.439 145.887C123.541 138.4 118.518 130.994 113.027 122.783C108.106 130.098 103.659 136.82 99.0876 143.456C96.9167 146.608 95.4924 151.343 90.253 149.866C84.9057 148.358 86.3238 143.551 86.3133 139.762C86.2259 108.131 86.2399 76.5003 86.1339 44.4012C86.0879 40.5763 85.9408 37.2494 86 33C85.9969 29.0975 85.6588 25.7014 86 22.5C88.1577 22.1775 90.4646 22.2968 92.2629 22.289C107.969 22.2211 124.173 21.605 140 22C140.257 25.746 139.895 29.6474 140.032 32.9593Z" fill="#DD3147"></path>
<path d="M139.381 22.1553C123.675 22.1943 107.969 22.2211 92.2629 22.289C90.4646 22.2967 88.6674 22.534 86.086 22.7888C83.1833 22.6084 81.0651 22.0479 78.9448 22.0399C61.3223 21.9733 43.6228 21.9954 26 22C29.0922 14.0014 36.1522 12.3306 43.4315 12.0757C55.0745 11.6681 66.7402 11.8857 78.3963 11.88C104.04 11.8675 129.684 11.8481 155.328 11.8972C168.025 11.9215 176.946 20.8743 176.959 33.6343C176.999 72.9328 176.969 112.231 176.994 151.53C176.995 153.508 177.254 155.485 177.713 157.739C178.627 168.184 174.648 175.906 165.378 181.03C165.376 150.957 165.777 120.847 166.082 90.7356C166.2 79.0762 166.174 67.4138 166.048 55.7546C166.016 52.7968 165.349 49.846 165.24 46.1674C167.759 31.6385 163.159 24.1667 150.788 22.2379C147.072 21.6585 143.188 22.1528 139.381 22.1553Z" fill="#F3F6F8"></path>
<path d="M26 22C43.7892 21.6658 61.3223 21.9733 78.9448 22.0399C81.0651 22.0479 83.4572 22.1279 86 22.5C86.4425 25.5774 86.0827 29.5513 86 33C68.581 33.4404 50.8173 33.0634 33.5 33C26.7333 32.9752 24.6745 29.1164 26 22Z" fill="#FEFEFF"></path>
<path d="M140 22C143.686 21.5635 147.072 21.6585 150.788 22.2379C163.159 24.1667 168.043 31.3902 165.5 45.5C160.034 36.2711 151.343 32.0598 140 33C139.413 29.6853 140.257 25.746 140 22Z" fill="#FDFEFE"></path>
</g>
<defs>
<clipPath id="SvgjsClipPath1017">
<rect width="192" height="192" fill="white"></rect>
</clipPath>
</defs>
</svg><style>@media (prefers-color-scheme: light) { :root { filter: none; } }
@media (prefers-color-scheme: dark) { :root { filter: none; } }
</style></svg>