<svg width="1023" height="1023" viewBox="0 0 1023 1023" fill="none" xmlns="http://www.w3.org/2000/svg">
<path d="M865.15 319.09C861.667 331.379 857.192 343.307 849.275 353.438C843.895 360.322 837.562 366.459 830.988 373.04C827.264 375.857 824.5 379.037 821.077 381.153C816.655 383.888 811.707 385.773 806.616 388.082C800.006 390.241 793.732 392.252 787.552 394.52C786.285 394.985 785.371 396.412 784.232 397.372C784.17 397.349 784.218 397.226 783.86 397.141C780.671 397.706 777.839 398.357 774.655 399.011C773.276 399.624 772.25 400.235 771.025 401.179C768.672 401.402 766.518 401.293 763.873 401.126C759.387 401.093 755.39 401.209 751.398 401.122C740.013 400.872 728.555 401.241 717.266 400.041C706.104 398.855 695.114 396.051 684.111 393.696C683.615 393.085 683.056 392.736 682.591 392.305C682.683 392.223 682.801 392.441 682.715 392.079C681.437 390.901 680.345 389.832 679.035 389.314C672.039 386.549 665.01 383.861 657.935 381.306C656.738 380.874 655.262 381.215 653.607 381.009C639.623 373.705 628.421 363.672 618.931 351.247C617.234 348.586 615.514 346.325 613.853 344.063C613.911 344.062 613.89 344.178 613.938 343.778C613.609 340.602 613.637 337.551 609.807 337.133C609.854 337.116 609.85 337.216 609.91 336.807C608.901 333.063 607.905 329.701 606.675 326.428C606.504 325.973 605.174 325.954 604.35 325.522C604.319 325.31 604.721 325.163 604.815 324.752C603.508 320.956 602.106 317.572 600.744 314.146C600.783 314.104 600.847 314.199 600.895 313.825C600.546 312.411 600.148 311.369 599.527 310.137C598.936 309.315 598.568 308.685 597.795 308.023C589.406 310.535 581.335 312.386 572.995 309.921C569.408 308.86 565.948 307.369 562.24 305.781C561.336 304.915 560.623 304.343 559.763 303.605C559.36 303.283 559.092 303.153 558.881 303.048C558.95 303.048 558.936 303.185 558.836 302.915C558.41 302.455 558.085 302.266 557.846 302.069C557.932 302.06 557.93 302.233 557.836 301.959C557.433 301.472 557.123 301.259 556.871 301.054C556.928 301.061 556.895 301.172 556.922 300.82C555.875 299.346 554.801 298.225 553.797 297.099C553.867 297.093 553.845 297.232 553.883 296.846C550.282 287.549 546.473 278.691 548.81 268.642C549.066 267.543 548.247 266.194 547.994 264.554C548.694 255.129 553.679 248.514 560.162 242.472C560.665 241.907 560.95 241.474 561.454 240.997C561.672 240.953 562.086 240.787 562.329 240.711C562.988 240.339 563.404 240.042 564.171 239.647C579.851 232.597 592.874 236.004 604.484 249.306C606.481 242.923 608.545 237.339 609.968 231.595C614.443 213.542 618.016 195.238 623.174 177.389C629.489 155.538 643.33 139.518 664.969 131.569C676.693 127.262 688.999 124.54 701.139 121.482C701.444 122.107 701.659 122.577 701.859 122.571C716.555 122.093 731.251 121.576 746.406 121.037C758.919 122.027 770.999 122.804 783.02 124.116C799.489 125.914 815.353 130.262 829.937 138.175C851.323 149.781 862.354 168.786 866.586 192.397C867.182 196.442 868.021 200.208 868.932 204.299C869.067 205.062 869.13 205.5 869.114 205.959C869.035 205.978 868.878 206.026 868.621 206.342C868.652 211.229 868.94 215.8 869.417 220.687C869.793 222.986 869.979 224.969 870.084 226.971C870.003 226.99 869.843 227.037 869.595 227.361C869.231 232.805 868.956 237.928 869.056 243.043C869.116 246.081 869.766 249.107 870.431 252.353C871.883 252.653 873.055 252.739 874.238 252.809C874.25 252.793 874.288 252.786 874.004 253.075C870.278 253.849 869.911 256.095 869.949 259.102C870.17 276.999 869.661 294.855 866.034 312.48C865.587 314.652 865.437 316.885 865.15 319.09ZM827.185 292.733C827.451 292.505 827.717 292.278 828.605 291.779C830.55 289.332 832.495 286.885 834.789 284.076C834.901 283.76 835.012 283.445 835.689 282.798C836.522 281.839 837.355 280.88 838.595 279.498C838.7 278.93 838.806 278.363 838.923 277.338C838.923 277.338 839.144 276.938 839.527 276.625C839.708 276.338 839.81 276.024 839.852 275.914C839.852 275.914 839.624 275.892 840.325 275.608C840.466 274.658 840.608 273.709 840.749 272.923C840.749 272.923 840.594 272.872 841.344 272.582C841.682 265.921 842.228 259.259 842.221 252.598C842.219 250.766 840.563 248.936 839.827 247.075C839.827 247.075 839.814 247.238 839.931 246.469C838.873 244.673 837.816 242.877 836.904 241.082C836.904 241.082 836.871 241.222 836.899 240.548C836.299 240.034 835.698 239.521 834.851 238.353C832.231 236.023 829.61 233.692 826.579 231.014C826.372 230.735 826.164 230.456 825.786 229.484C820.45 223.05 803.093 222.209 796.476 225.184C794.167 226.222 792.24 228.112 789.84 229.966C789.534 230.281 789.227 230.597 788.245 231.13C785.476 233.424 782.708 235.718 779.297 238.274C776.58 243.74 772.025 249.071 771.612 254.705C771.102 261.667 770.79 269.407 774.56 276.114C775.154 277.17 776.276 277.927 777.114 278.871C777.114 278.871 777.121 278.809 777.033 279.581C777.715 280.715 778.397 281.848 779.71 283.239C783.085 286.216 786.46 289.194 790.229 292.755C793.504 294.558 796.779 296.361 800.438 298.759C805.574 298.687 810.755 298.996 815.825 298.382C818.308 298.082 820.583 296.069 822.95 294.937C822.95 294.937 822.846 294.918 823.511 294.919C823.993 294.539 824.475 294.158 824.947 293.916C824.947 293.916 824.812 293.886 825.5 293.919C825.93 293.463 826.359 293.007 826.821 292.741C826.821 292.741 826.631 292.71 827.185 292.733ZM706.61 222.617C706.033 222.462 705.456 222.308 704.634 221.567C704.041 221.439 703.447 221.311 702.602 220.543C694.532 215.604 685.78 216.691 677.28 218.408C673.961 219.078 671.122 222.121 667.436 224.057C667.021 224.44 666.605 224.822 665.633 224.947C663.443 226.964 661.253 228.981 658.363 231.073C657.203 231.97 655.722 232.647 654.934 233.799C646.578 245.994 644.997 259.026 650.562 272.785C650.937 273.711 652.131 274.306 653.008 275.745C653.685 276.496 654.363 277.248 655.232 278.464C655.525 278.605 655.819 278.746 656.033 279.611C661.772 287.466 668.345 293.989 679.187 294.696C686.047 295.716 692.836 296.001 699.479 293.353C703.812 291.626 708.703 290.837 711.443 286.118C714.9 286.311 714.892 283.942 714.87 281.058C715.008 280.768 715.102 280.464 715.65 279.915C716.235 279.232 716.82 278.549 718.196 277.869C718.901 277.484 719.974 277.276 720.257 276.688C725.482 265.831 727.742 254.69 723.924 242.771C722.546 238.469 721.333 234.364 716.81 232.341C716.81 232.341 716.85 232.309 716.74 231.834C716.653 231.504 716.463 231.252 715.9 230.454C714.598 228.932 713.296 227.409 711.739 225.253C710.498 224.827 709.256 224.401 707.79 223.501C707.466 223.404 707.142 223.307 706.61 222.617ZM713.379 179.934C701.336 175.381 689.068 174.567 676.659 178.095C669.205 180.214 662.262 183.388 657.407 189.84C654.626 193.536 653.837 197.538 656.98 201.294C659.954 204.849 663.326 202.746 666.479 201.209C676.525 196.313 687.028 194.739 698.022 196.92C702.259 197.761 706.438 198.912 710.69 199.653C715.103 200.421 719.499 200.525 721.925 195.648C724.021 191.434 722.802 186.648 718.7 183.119C717.332 181.943 715.647 181.137 713.379 179.934ZM844.123 208.637C846.478 203.43 845.523 199.444 840.422 195.145C828.132 184.786 813.869 181.014 798.072 183.279C794.704 183.762 791.247 184.97 788.289 186.65C783.865 189.163 782.201 195.372 784.102 199.809C785.979 204.191 789.847 205.374 795.88 204.281C801.043 203.345 806.54 202.003 811.534 202.875C820.116 204.374 828.382 207.613 836.871 209.766C838.971 210.299 841.417 209.467 844.123 208.637ZM724.36 348.234C738.832 352.435 753.263 352.301 767.339 346.898C771.89 345.151 776.086 342.175 779.994 339.175C782.368 337.353 783.207 333.895 780.445 331.813C778.995 330.72 775.914 330.925 773.942 331.612C771.52 332.455 769.575 334.573 767.27 335.865C750.188 345.44 721.55 342.14 707.877 326.523C706.262 324.677 704.353 322.882 702.218 321.742C698.272 319.637 695.316 321.562 696.133 325.908C696.646 328.639 698.339 331.415 700.195 333.577C706.418 340.826 714.303 345.606 724.36 348.234ZM771.813 299.898C768.295 297.352 765.048 293.284 761.199 292.598C754.51 291.407 747.385 291.734 740.563 292.498C734.352 293.193 730.42 297.864 730.064 302.915C729.74 307.525 733.264 312.094 739.296 313.882C747.716 316.377 756.306 316.597 764.74 313.891C770.788 311.95 773.529 306.627 771.813 299.898Z" fill="#8A451F"/>
<path d="M831.972 421.124C842.674 429.038 853.376 436.953 864.471 445.327C868.88 449.616 872.896 453.444 876.913 457.273C882.237 463.589 887.561 469.906 892.859 476.851C891.485 479.763 890.292 482.157 888.763 484.313C877.415 500.317 864.344 514.807 849.837 528.449C844.439 533.87 844.444 533.865 838.82 528.848C837.587 527.749 836.31 526.699 834.891 525.389C833.847 524.316 832.966 523.482 831.761 522.343C832.246 528.278 832.683 533.61 832.901 539.198C833.554 547.215 834.425 554.976 835.425 563.875C835.949 561.956 836.159 561.185 836.573 560.662C836.89 561.75 837.004 562.589 837.086 563.901C838.503 578.128 839.726 591.913 841.495 605.627C842.354 612.282 843.361 618.465 835.299 621.381C835.172 621.427 835.105 621.641 834.621 621.845C822.458 625.225 810.683 628.538 798.621 631.599C796.547 631.402 794.746 631.335 792.974 631.531C782.816 632.651 772.692 634.295 762.506 634.88C748.797 635.668 735.042 635.635 721.309 636.02C720.223 636.05 719.151 636.585 717.648 636.95C715.798 636.948 714.372 636.884 712.834 636.448C712.19 635.746 711.672 635.157 711.122 635.124C698.503 634.377 685.883 633.655 673.258 633.042C671.877 632.975 670.464 633.596 668.636 633.943C666.486 634.01 664.765 634.033 662.795 634.04C662.546 634.024 662.048 633.991 661.78 633.697C657.369 632.887 653.226 632.37 649.232 631.549C652.792 628.383 653.246 624.569 653.16 620.426C653.122 618.588 653.296 616.217 654.385 614.97C662.858 605.269 663.4 598.544 656.305 587.473C655.464 586.159 654.543 584.52 654.599 583.068C655.026 571.872 647.954 563.968 636.761 564.122C631.524 564.195 626.303 565.416 621.065 565.722C621.667 563.306 622.574 561.322 622.838 559.256C623.674 552.699 624.232 546.106 624.971 539.536C625.645 533.544 626.19 527.525 627.21 521.589C628.169 516.003 629.673 510.511 631.109 504.682C634.351 499.784 637.422 495.181 640.492 490.579C640.025 490.198 639.558 489.817 639.091 489.436C635.441 493.301 631.791 497.166 627.914 500.971C626.753 501.857 625.82 502.802 624.567 503.889C620.9 507.029 617.713 510.237 614.157 512.965C610.723 515.599 606.908 517.739 603.091 519.793C601.31 517.59 599.697 515.69 598.177 513.515C596.46 511.199 594.65 509.16 592.867 507.083C592.894 507.047 592.962 507.106 592.854 506.864C592.459 506.428 592.17 506.234 591.932 506.063C591.982 506.085 591.929 506.181 591.845 505.927C591.471 505.488 591.182 505.304 590.813 504.876C590.457 504.458 590.179 504.283 589.824 503.866C589.475 503.443 589.203 503.261 588.811 502.829C588.366 502.409 588.042 502.239 587.523 502.012C587.077 501.795 586.944 501.567 586.844 501.011C586.489 500.52 586.221 500.287 585.934 499.728C585.272 498.94 584.63 498.478 583.974 497.694C583.317 496.575 582.674 495.778 581.882 494.698C580.835 493.925 579.938 493.434 578.903 492.754C578.56 492.326 578.323 492.124 578.037 491.735C577.668 491.341 577.316 491.173 576.759 490.927C576.553 490.849 576.153 490.668 576.005 490.414C574.892 488.968 573.927 487.775 572.875 486.267C572.501 485.643 572.215 485.333 571.963 485.028C571.997 485.034 571.959 485.092 571.851 484.853C571.458 484.423 571.172 484.233 570.924 484.036C570.961 484.03 570.961 484.106 570.857 483.863C570.466 483.427 570.179 483.233 569.93 483.032C569.966 483.025 569.964 483.1 569.857 482.858C569.461 482.423 569.172 482.23 568.924 482.034C568.966 482.03 568.964 482.114 568.859 481.87C568.466 481.43 568.177 481.235 567.926 481.037C567.964 481.033 567.961 481.109 567.856 480.863C567.459 480.424 567.168 480.23 566.913 480.053C566.95 480.07 566.905 480.137 566.918 479.813C566.54 479.033 566.148 478.579 565.82 478.129C565.883 478.134 565.838 478.253 565.764 477.915C564.75 477.08 563.81 476.583 562.904 476.063C562.937 476.039 562.976 476.111 562.854 475.863C562.422 475.431 562.112 475.247 561.555 474.949C560.855 474.286 560.4 473.738 559.852 472.929C559.471 472.454 559.182 472.238 558.931 472.029C558.968 472.035 558.945 472.106 558.924 471.772C558.253 470.968 557.603 470.498 556.975 470.013C556.998 469.998 556.972 470.046 556.962 469.713C556.245 468.622 555.537 467.866 554.846 467.19C554.862 467.271 554.7 467.309 554.745 467.117C554.529 466.938 554.27 466.951 553.742 466.79C552.605 465.682 551.736 464.749 550.915 463.616C550.962 463.416 551.022 463.011 551.022 463.011C551.022 463.011 550.998 463.001 551.298 462.828C555.377 459.103 559.155 455.551 563.088 451.743C563.953 450.814 564.663 450.142 565.373 449.469C565.373 449.469 565.375 449.433 565.657 449.282C568.083 447.225 570.226 445.319 572.369 443.413C572.369 443.413 572.402 443.219 572.694 443.17C574.431 441.876 575.877 440.631 577.323 439.386C577.323 439.386 577.372 439.361 577.668 439.252C579.078 438.203 580.191 437.261 581.304 436.32C581.304 436.32 581.231 436.386 581.595 436.251C589.65 431.121 597.341 426.127 605.151 421.273C605.478 421.204 605.685 420.996 605.9 420.837C605.907 420.887 605.807 420.87 606.208 420.919C607.638 420.177 608.668 419.385 609.745 418.624C609.792 418.654 609.701 418.718 610.069 418.786C611.506 418.072 612.576 417.291 613.714 416.523C613.784 416.537 613.781 416.678 614.158 416.746C618.043 415.521 621.651 414.443 625.034 412.879C629.078 411.01 632.93 408.726 636.877 406.688C636.888 406.754 636.757 406.723 637.084 406.835C638.344 406.398 639.276 405.85 640.468 405.278C640.775 405.421 640.822 405.589 641.297 405.833C644.484 405.479 647.264 405.15 649.997 404.59C653.962 403.778 657.893 402.799 661.889 402.32C661.776 405.954 661.943 409.031 665.075 410.931C665.064 410.893 665.14 410.871 665.138 411.252C666.496 413.061 667.855 414.489 669.421 416.013C669.872 416.322 670.005 416.59 670.061 417.236C670.718 418.04 671.343 418.52 671.99 419.001C672.014 419.002 671.997 419.046 672.04 419.359C672.942 420.426 673.8 421.18 674.858 422.235C676.116 423.289 677.215 423.994 678.23 424.804C686.205 431.167 694.047 437.738 704.181 441.163C704.924 441.585 705.506 441.74 706.081 441.93C706.074 441.965 706.028 441.91 706.229 442.196C707.973 442.962 709.515 443.442 711.036 443.96C711.015 443.998 711.03 443.912 711.241 444.206C717.225 446.136 722.937 448.075 728.802 449.253C731.014 449.697 733.579 448.379 735.985 447.902C735.987 447.94 735.912 447.932 736.298 447.948C738.448 447.259 740.211 446.555 741.986 445.887C741.997 445.923 741.922 445.929 742.309 445.955C744.772 444.924 746.847 443.867 748.945 442.843C748.968 442.875 748.894 442.901 749.21 442.906C750.005 442.56 750.485 442.209 750.966 441.902C750.967 441.944 750.896 441.898 751.272 441.934C753.743 440.605 755.836 439.239 757.955 437.933C757.979 437.993 757.903 437.888 758.209 437.895C759 437.578 759.486 437.254 760.116 436.628C764.704 431.288 769.875 426.704 773.378 421.08C776.566 415.961 777.941 409.714 780.448 404.003C786.1 405.096 791.699 405.428 796.685 407.351C807.873 411.666 818.75 416.788 829.786 421.504C830.356 421.748 831.236 421.267 831.972 421.124ZM830.765 495.976C828.776 487.495 829.229 478.302 823.008 471.009C825.54 486.968 828.072 502.928 830.605 518.888C831.062 518.818 831.518 518.749 831.975 518.68C831.617 511.415 831.259 504.151 830.765 495.976ZM643.286 487.056C643.622 486.967 643.957 486.879 644.292 486.79C643.977 486.742 643.662 486.695 643.286 487.056Z" fill="#BD3622"/>
<path d="M476.003 460.029C482.361 467.39 489.214 474.387 494.973 482.191C506.198 497.401 502.75 512.934 494.323 527.996C484.23 546.039 470.327 561.022 455.358 575.061C453.336 576.957 450.814 578.32 448.048 579.608C446.384 576.525 445.194 573.764 443.906 570.922C443.808 570.841 443.926 570.615 443.916 570.236C443.541 569.247 443.177 568.637 442.874 568.043C442.937 568.059 442.889 568.178 442.913 567.809C442.232 566.312 441.526 565.184 440.873 564.055C440.925 564.055 440.907 564.158 440.886 563.804C440.389 562.988 439.914 562.525 439.204 561.84C436.165 557.173 433.85 552.23 428.063 550.879C428.079 550.943 428.2 550.893 428.13 550.708C428.061 550.523 427.953 550.142 427.815 549.898C427.337 549.515 426.998 549.376 426.747 549.23C426.835 549.222 426.794 549.393 426.686 549.074C425.97 548.577 425.363 548.398 424.823 548.197C424.891 548.174 424.894 548.317 424.705 547.989C423.803 547.486 423.089 547.311 422.262 547.176C422.149 547.216 422.001 547.027 421.931 546.666C417.715 544.875 413.569 543.443 410.237 542.293C411.099 541.358 412.521 539.958 413.771 538.418C415.106 536.773 416.102 534.827 417.554 533.305C423.371 527.212 429.402 521.319 435.103 515.121C436.015 514.13 436.426 511.373 435.726 510.436C432.996 506.779 429.963 503.266 426.594 500.19C422.639 496.578 418.218 493.475 414.019 489.734C414.945 484.619 416.273 479.956 416.667 475.215C417.386 466.581 413.97 459.397 407.524 452.369C407.366 454.107 407.099 454.788 407.288 455.302C410.798 464.814 411.299 474.686 411.043 484.684C410.999 486.428 411.701 488.192 411.782 490.224C410.668 494.372 410.288 498.418 408.884 502.071C406.759 507.603 406.217 514.014 400.727 518.155C399.996 518.869 399.531 519.468 398.669 520.052C397.47 520.211 396.633 520.291 395.872 520.574C383.973 524.994 371.71 527.596 358.648 528.058C356.843 528.277 355.394 528.628 353.949 528.61C346.383 528.517 338.816 528.396 331.252 528.157C323.559 527.913 315.803 528.038 308.196 527.058C299.071 525.883 290.074 523.711 280.795 521.7C278.03 520.628 275.49 519.828 272.799 518.777C272.103 518.338 271.559 518.15 270.9 517.75C270.577 517.278 270.312 517.105 269.844 516.713C265.23 513.019 261.41 509.206 261.017 502.732C262.653 493.806 265.14 485.375 263.393 475.701C259.892 478.421 256.945 480.71 253.683 483.139C238.852 492.022 225.964 502.76 214.161 515.192C214.796 515.988 215.348 516.794 216.012 517.494C222.605 524.449 229.261 531.345 235.804 538.346C238.747 541.495 241.531 544.661 240.096 549.71C239.251 552.681 239.343 555.917 238.72 559.165C237.961 560.204 237.496 561.113 236.726 562.17C236.017 563.293 235.613 564.268 235.173 565.178C235.137 565.112 235.287 565.1 234.99 565.261C234.498 565.821 234.304 566.221 234.052 566.878C233.621 567.718 233.247 568.3 232.637 568.966C232.233 569.33 232.065 569.61 231.655 569.971C231.243 570.332 231.072 570.614 230.659 570.975C230.238 571.333 230.06 571.611 229.642 571.965C229.218 572.308 229.032 572.576 228.646 572.877C228.208 573.085 227.947 573.134 227.33 573.169C226.68 573.607 226.363 573.936 226.066 574.155C226.086 574.045 226.294 574.125 226.019 574.211C225.513 574.593 225.282 574.889 225.052 575.123C225.051 575.061 225.168 575.1 224.832 575.087C223.676 575.73 222.857 576.385 221.73 577.048C221.005 577.428 220.585 577.802 219.803 578.152C217.667 579.133 215.894 580.136 213.707 581.096C209.874 582.04 206.455 583.027 202.665 584.087C201.534 586.427 200.775 588.696 200.015 590.964C202.042 582.26 194.771 579.327 189.946 575.015C174.693 561.384 159.514 547.718 150.807 528.586C143.936 513.489 144.613 499.072 154.943 485.659C158.176 481.462 161.761 477.537 165.001 473.345C165.387 472.846 164.61 471.449 164.602 470.237C166.581 469.603 168.331 469.2 170.353 468.689C171.445 467.767 172.265 466.954 173.35 466.045C174.065 465.632 174.514 465.316 175.296 464.963C176.712 463.919 177.794 462.91 179.229 461.901C180.567 460.753 181.551 459.606 182.602 458.493C182.669 458.526 182.56 458.628 182.86 458.61C183.398 458.285 183.634 457.977 183.883 457.774C183.895 457.878 183.685 457.869 183.964 457.774C184.468 457.371 184.694 457.062 184.925 456.838C184.93 456.923 184.76 456.911 185.022 456.819C185.515 456.449 185.746 456.17 185.976 455.929C185.975 455.966 185.902 455.949 186.249 455.939C187.338 455.163 188.08 454.397 188.845 453.731C188.868 453.832 188.662 453.835 188.943 453.76C189.468 453.397 189.712 453.109 189.953 452.875C189.95 452.929 189.844 452.906 190.198 452.912C191.285 452.131 192.017 451.343 192.788 450.656C192.827 450.756 192.614 450.778 192.903 450.719C193.444 450.372 193.697 450.085 193.946 449.86C193.943 449.921 193.823 449.894 194.162 449.903C195.668 449.273 196.834 448.633 198.349 447.943C203.887 444.249 209.111 440.655 214.24 436.93C215.497 436.017 216.443 434.676 217.581 433.513C217.631 433.494 217.558 433.571 217.845 433.58C218.403 433.339 218.673 433.088 218.944 432.882C218.945 432.927 218.856 432.91 219.184 432.907C219.951 432.485 220.389 432.067 220.84 431.717C220.852 431.784 220.717 431.755 221.099 431.824C223.048 430.759 224.616 429.625 226.272 428.357C226.36 428.223 226.681 428.201 226.917 428.31C227.401 428.202 227.649 427.985 227.901 427.823C227.906 427.877 227.798 427.855 228.13 427.867C228.928 427.482 229.394 427.085 229.868 426.764C229.876 426.84 229.725 426.815 229.978 426.772C230.488 426.515 230.745 426.301 231.142 425.974C231.283 425.86 231.642 425.894 232.05 425.928C233.579 425.222 234.699 424.482 235.841 423.793C235.861 423.845 235.758 423.804 236.09 423.83C236.912 423.485 237.401 423.114 237.897 422.802C237.904 422.862 237.786 422.84 238.212 422.841C239.113 422.564 239.588 422.285 240.206 422.166C240.347 422.324 240.087 422.66 240.184 422.805C240.385 422.914 240.489 422.877 240.593 422.841C240.519 422.752 240.445 422.664 240.204 422.156C240.272 421.55 240.508 421.364 240.888 421.582C243.414 422.862 244.816 422.42 244.445 419.457C244.514 419.413 244.675 419.427 245.086 419.596C247.961 419.654 251.284 421.045 251.326 416.383C251.441 416.269 251.757 416.347 252.131 416.53C255.801 416.121 259.686 416.73 261.273 412.335C261.373 412.214 261.687 412.226 262.005 412.427C264.783 411.891 268.626 414.213 269.32 409.448C269.359 409.414 269.394 409.316 269.766 409.384C270.685 407.919 271.612 406.411 271.712 404.849C272.224 396.853 272.523 388.843 272.903 380.886C272.911 380.934 272.814 380.927 273.067 380.807C273.499 380.367 273.679 380.047 273.871 379.78C273.884 379.832 273.778 379.816 274.081 379.885C274.589 379.968 274.794 379.983 275.24 379.803C275.625 379.026 275.77 378.443 275.929 377.903C275.943 377.946 275.858 377.915 276.188 377.901C276.823 377.405 277.129 376.924 277.465 376.455C277.497 376.467 277.543 376.419 277.826 376.473C278.382 376.283 278.656 376.038 278.927 375.851C278.926 375.909 278.813 375.881 279.211 375.908C284.903 374.103 289.957 374.258 294.746 377.495C291.182 383.991 291.182 383.991 295.346 386.008C295.892 386.177 296.06 386.412 296.199 386.998C296.644 387.351 296.965 387.465 297.344 387.448C297.403 387.316 297.689 387.353 297.64 387.724C298.491 388.295 299.391 388.494 300.231 388.687C300.172 388.68 300.241 388.583 300.304 388.963C301.311 389.906 302.193 390.654 303.211 391.004C317.322 395.864 331.986 395.638 346.517 394.74C353.756 394.293 360.854 391.557 368.183 389.577C370.223 387.946 372.094 386.595 374.71 384.706C370.914 383.086 368.174 381.917 365.177 380.637C365.008 383.87 364.87 386.498 364.451 389.126C363.796 389.091 363.422 389.056 362.963 388.783C362.836 388.382 362.794 388.219 362.849 387.612C362.9 384.45 362.853 381.731 363.004 378.668C368.504 377.462 373.805 376.6 379.397 375.852C380.166 376.292 380.645 376.617 380.959 377.136C382.217 378.202 383.64 379.077 385.16 380.181C385.475 380.687 385.755 380.856 386.173 381.157C386.505 381.598 386.764 381.8 387.111 382.226C387.38 382.738 387.633 382.93 387.996 383.32C388.392 384.029 388.748 384.445 389.067 385.263C389.347 392.359 389.613 399.058 390.018 405.748C390.122 407.463 390.667 409.152 391.134 411.194C395.462 416.447 401.583 415.766 407.182 417.271C412.207 419.727 417.111 421.87 422.175 424.252C422.868 424.683 423.401 424.875 423.997 425.332C424.895 425.722 425.731 425.847 426.757 426.224C427.298 426.646 427.651 426.817 428.141 427.252C430.768 428.716 433.253 429.926 435.747 431.116C439.858 433.078 443.975 435.027 448.103 437.346C453.454 441.983 458.777 446.275 464.134 450.526C467.725 453.375 471.363 456.165 475.099 459.202C475.479 459.625 475.741 459.827 476.003 460.029ZM373.158 434.819C380.281 430.574 390.377 429.431 391.162 417.801C373.967 434.649 352.726 436.779 330.818 437.041C308.365 437.309 289.084 428.799 271.313 415.617C274.597 422.743 280.523 426.648 286.825 429.849C314.567 443.945 343.208 444.45 373.158 434.819Z" fill="#F0E3D1"/>
<path d="M562.086 240.787C562.086 240.787 561.672 240.953 561.059 241.026C560.189 241.152 559.931 241.205 559.737 241.212C559.8 241.166 559.734 241.308 559.816 240.912C557.778 232.671 553.04 225.426 554.537 216.718C554.659 216.012 553.279 215.048 552.667 214.185C552.737 214.167 552.713 214.31 552.768 213.965C552.417 213.134 552.01 212.647 551.718 212.146C551.833 212.132 551.817 212.362 551.729 212.081C551.328 211.58 551.015 211.361 550.768 211.134C550.834 211.126 550.805 211.255 550.826 210.915C550.374 210.244 549.901 209.914 549.432 209.546C549.436 209.508 549.421 209.433 549.48 209.154C549.295 208.607 549.051 208.34 548.866 208.07C548.925 208.067 548.909 208.184 548.839 207.945C548.655 207.367 548.429 207.137 547.993 206.846C547.893 206.677 547.91 206.285 547.952 205.906C547.519 204.741 547.045 203.957 546.658 203.156C546.745 203.14 546.719 203.315 546.814 202.857C546.815 196.168 546.72 189.938 546.56 183.752C546.495 183.796 546.42 183.658 546.8 183.564C547.391 182.232 547.601 180.995 547.824 179.818C547.835 179.878 547.714 179.859 548.061 179.775C549.269 177.792 550.131 175.893 551.113 173.948C551.234 173.902 551.261 173.589 551.261 173.589C551.261 173.589 551.006 174.008 550.794 174.011C550.583 174.014 550.159 174.021 550.098 173.634C549.09 170.485 548.144 167.724 547.536 164.845C548.097 163.547 548.439 162.375 548.523 161.185C548.969 154.852 548.582 148.337 549.993 142.234C551.161 137.186 554.426 132.623 556.776 127.879C556.791 127.913 556.755 127.852 557.131 127.835C557.93 126.547 558.772 125.256 558.709 124.01C558.083 111.541 562.012 101.083 571.78 92.9889C572.774 92.1652 573.177 90.6282 573.901 89.2862C574.126 89.0654 574.273 88.944 574.39 88.7859C574.39 88.7859 574.659 88.7276 574.978 88.4378C576.193 87.7014 577.089 87.2547 577.985 86.8081C578.34 86.8185 578.695 86.8288 579.662 86.7202C581.799 81.3288 583.323 76.0564 584.848 70.784C584.848 70.784 584.874 70.9238 585.096 70.7868C585.528 70.0672 585.738 69.4846 585.948 68.9021C585.948 68.9021 585.983 68.9735 586.232 68.9612C586.689 68.3116 586.898 67.6744 587.107 67.0371C587.891 66.412 588.675 65.7869 590.105 65.0095C597.937 58.4931 606.536 55.342 615.736 53.0547C622.418 51.3934 625.386 45.6078 627.505 39.5074C627.52 39.5127 627.527 39.483 627.952 39.6224C630.918 40.0768 632.541 39.58 631.326 36.3971C631.397 36.2851 631.657 36.2362 631.972 36.4395C633.164 36.4205 634.042 36.1981 634.829 35.6057C634.636 35.0029 634.535 34.7702 634.464 34.5386C634.494 34.5397 634.549 34.5679 634.842 34.5831C635.402 34.3374 635.669 34.0765 635.939 33.8659C635.941 33.9161 635.841 33.8989 636.175 33.9092C636.951 33.4908 637.393 33.0621 637.85 32.7068C637.864 32.7802 637.716 32.756 638.113 32.834C640.228 32.0818 641.946 31.2516 643.712 30.4582C643.761 30.4949 643.649 30.5436 644.024 30.6782C645.139 30.3485 645.88 29.8842 646.706 29.4509C646.792 29.4819 646.739 29.6562 647.202 29.7642C653.143 29.7955 658.625 29.7745 664.097 29.5475C664.594 29.5269 665.036 28.1819 665.738 27.6722C665.822 27.7396 665.671 27.5867 665.9 27.5819C666.768 27.7327 667.387 27.9332 667.727 27.7091C677.247 21.4196 687.741 18.6659 699.455 18.9955C701.214 19.3028 702.609 19.5845 704.345 19.9561C706.375 20.2052 708.063 20.3643 709.751 20.5234C709.751 20.5234 709.817 20.3714 709.973 20.6157C712.161 20.6358 714.194 20.4117 716.226 20.1875C716.226 20.1875 716.107 20.1655 716.372 20.1562C717.152 20.0216 717.667 19.8964 718.182 19.7711C718.182 19.7711 718.625 19.8585 719.125 19.5761C723.063 18.9156 726.5 18.5375 730.066 18.4287C731.328 18.2313 732.46 17.7646 733.895 17.6229C734.79 17.9895 735.381 18.0311 736.136 18.3849C737.868 18.4088 739.437 18.1206 741.319 17.9063C742.65 18.1571 743.667 18.3339 744.685 18.5107C744.858 18.6382 745.031 18.7657 745.841 18.9426C748.989 19.9861 751.501 20.98 754.013 21.974C754.013 21.974 754.251 22.1937 754.583 22.4161C755.985 23.2221 757.055 23.8057 758.195 24.7732C759.438 25.952 760.583 27.3659 761.79 27.4224C765.035 27.5742 768.305 27.0581 771.57 26.9707C775.385 26.8686 779.204 26.9396 783.36 26.9147C784.138 26.9872 784.579 27.0805 785.023 27.4528C785.254 28.2319 785.482 28.732 785.71 29.232C786.138 28.8235 786.566 28.415 787.387 28.0255C792.552 30.3433 797.325 32.6422 801.866 35.1386C802.485 35.8717 803.335 36.4072 804.404 36.9884C804.926 37.1797 805.076 37.4205 805.204 38.0196C805.674 38.4587 806.014 38.6349 806.261 38.8229C806.168 38.8347 806.193 38.6482 806.266 38.9297C806.629 39.4523 806.919 39.6934 807.428 39.9877C807.924 40.2201 808.061 40.4748 808.275 41.1299C814.087 42.227 819.683 42.9994 825.204 43.7795C825.129 43.7871 825.163 43.6402 825.266 43.9312C826.235 44.1999 827.102 44.1778 828.257 44.125C829.408 44.4962 830.271 44.8979 831.249 45.6457C831.998 46.1095 832.63 46.2272 833.416 46.2526C833.569 46.1602 833.876 46.3433 833.792 46.6954C834.567 47.2798 835.427 47.5122 836.217 47.7587C836.148 47.7727 836.175 47.634 836.293 47.95C837.018 48.452 837.625 48.638 838.17 48.8343C838.109 48.8445 838.128 48.722 838.21 49.0605C839.247 49.8996 840.202 50.4001 841.109 50.9082C841.063 50.9157 841.069 50.8214 841.178 51.0758C841.591 51.5255 841.896 51.7207 842.137 51.9213C842.073 51.9267 842.083 51.7991 842.188 52.0563C842.592 52.5163 842.893 52.7189 843.128 52.9269C843.064 52.9323 843.072 52.8025 843.185 53.0609C843.606 53.5235 843.914 53.7276 844.444 53.9867C844.94 54.2348 845.067 54.4988 845.084 55.1888C845.613 55.996 846.106 56.4482 846.774 57.0588C847.253 57.5442 847.557 57.8712 847.861 58.1983C847.861 58.1983 847.877 58.0874 847.902 58.4869C848.279 60.433 848.363 62.1093 849.035 63.5015C850.909 67.3815 851.576 72.6406 857.821 72.0922C858.946 72.7655 860.071 73.4388 861.682 74.4339C862.683 74.9757 863.198 75.1955 863.714 75.4153C863.714 75.4153 863.776 75.2673 863.852 75.5018C864.269 75.8765 864.61 76.0167 864.952 76.1569C864.952 76.1569 864.952 76.0691 865.023 76.3362C865.561 76.9208 866.028 77.2383 866.495 77.5559C866.495 77.5559 866.448 77.408 866.684 77.6487C867.239 78.0175 867.558 78.1456 867.877 78.2737C867.877 78.2737 867.885 78.1395 867.873 78.4993C869.876 80.6249 871.891 82.3907 873.906 84.1564C873.906 84.1564 873.923 84.0621 873.973 84.3247C874.306 84.8119 874.588 85.0365 874.87 85.2612C874.87 85.2612 874.884 85.1056 874.863 85.3329C874.914 85.8572 875.048 86.123 875.244 86.3574C875.244 86.3574 875.289 86.625 875.605 86.9685C877.545 91.8848 879.169 96.4577 880.484 101.135C880.277 106.822 879.343 112.397 884.416 116.965C893.038 124.73 894.818 135.215 894.226 146.203C894.072 149.048 893.613 152.426 891.97 154.52C889.155 158.109 888.936 161.963 890.242 165.479C894.014 175.639 893.259 185.293 888.647 194.885C887.225 197.844 885.44 200.767 884.748 203.91C883.366 210.182 882.601 216.591 881.629 222.95C880.847 228.06 880.135 233.181 879.379 238.288C879.366 238.28 879.375 238.31 879.002 238.272C877.48 241.903 876.331 245.574 875.171 249.196C875.16 249.148 875.255 249.17 874.924 249.156C873.852 249.695 873.111 250.249 871.969 251.103C871.969 245.399 872.099 239.991 871.887 234.597C871.826 233.061 870.769 231.565 870.096 229.677C869.963 228.549 869.903 227.793 869.843 227.037C869.843 227.037 870.003 226.99 870.329 226.646C870.761 221.078 870.947 215.852 870.893 210.628C870.884 209.767 869.827 208.916 869.17 207.726C869.017 206.936 868.948 206.481 868.878 206.026C868.878 206.026 869.035 205.978 869.343 205.662C869.259 203.24 868.867 201.133 868.339 198.788C868.176 198.005 868.149 197.461 868.351 196.704C868.235 195.674 867.889 194.857 867.386 193.832C867.096 193.122 866.962 192.621 866.828 192.12C862.354 168.786 851.323 149.781 829.937 138.175C815.353 130.262 799.489 125.914 783.02 124.116C770.999 122.804 758.919 122.027 746.145 120.961C745.254 120.847 745.084 120.783 744.801 120.357C744.137 119.685 743.59 119.109 743.038 119.104C734.902 119.034 726.764 118.987 718.629 119.104C717.768 119.117 716.923 120.204 715.605 120.868C710.441 120.997 705.741 121.05 701.042 121.103C688.999 124.54 676.693 127.262 664.969 131.569C643.33 139.518 629.489 155.538 623.174 177.389C618.015 195.238 614.443 213.542 609.968 231.595C608.545 237.339 606.481 242.923 604.483 249.306C592.873 236.004 579.851 232.597 564.002 239.475C563.017 239.864 562.551 240.325 562.086 240.787Z" fill="#2F251D"/>
<path d="M205.161 43.0496C205.161 43.0496 205.614 42.9674 206.095 42.7758C207.397 42.1123 208.218 41.6403 209.153 41.3122C209.493 41.2605 209.719 41.0651 209.944 40.9093C209.944 40.9488 209.867 40.9299 210.202 40.9173C210.962 40.4588 211.386 40.0129 211.825 39.6595C211.839 39.7519 211.655 39.7194 212.056 39.7873C214.16 38.7393 215.862 37.6235 217.605 36.5137C217.646 36.5199 217.635 36.602 218.016 36.705C220.186 35.7271 221.975 34.6463 223.788 33.6396C223.81 33.7137 223.657 33.6912 224.007 33.7626C224.869 33.4482 225.381 33.0623 225.897 32.759C225.9 32.8415 225.738 32.8089 226.144 32.8754C229.62 31.5107 232.689 30.0794 235.782 28.7017C235.806 28.7553 235.689 28.7421 236.073 28.8226C237.165 28.3972 237.873 27.8914 238.679 27.4101C238.777 27.4346 238.758 27.6358 239.184 27.7532C241.361 27.4152 244.469 29.5709 244.461 25.3855C244.619 25.3412 244.799 25.6136 245.164 25.7348C246.682 25.2678 247.834 24.6797 249.163 24.0001C249.339 23.9087 249.737 23.9229 250.108 23.9884C250.979 24.04 251.479 24.0259 252.15 24.1848C252.847 24.2279 253.375 24.0982 254.169 23.9372C254.611 23.8689 254.787 23.832 255.366 23.8231C261.189 22.8555 266.62 21.9171 272.013 20.7986C272.768 20.642 273.34 19.602 274.387 18.9978C283.195 18.4727 291.608 17.8021 300.034 17.4049C307.262 17.0641 314.515 16.7287 321.738 16.9636C327.862 17.1628 333.965 18.1384 340.068 18.8489C345.824 19.5191 351.6 20.1021 357.309 21.0714C363.292 22.0872 369.204 23.517 375.175 24.5507C375.203 24.3356 375.636 24.318 375.602 24.6937C377.486 25.6136 379.405 26.1579 381.234 26.7186C381.146 26.735 381.174 26.5572 381.295 26.9061C382.331 27.4731 383.245 27.6912 384.107 27.9231C384.054 27.9369 384.043 27.8272 384.199 28.1306C385 28.5445 385.645 28.6549 386.205 28.784C386.121 28.8026 386.13 28.6295 386.265 28.9592C387.058 29.3791 387.715 29.4693 388.306 29.5513C388.239 29.5431 388.328 29.4418 388.385 29.8173C390.831 31.104 393.22 32.0153 395.725 32.8681C395.841 32.8096 396.003 33.012 396.2 33.2706C396.806 33.6777 397.214 33.8261 397.905 33.9236C398.744 34.0117 399.301 34.1507 399.858 34.2898C399.858 34.2898 399.882 34.1731 400.031 34.4606C405.42 37.5755 410.66 40.4028 415.9 43.2302C415.9 43.2302 415.913 43.1228 415.98 43.3702C416.485 43.9217 416.924 44.2257 417.363 44.5298C417.363 44.5298 417.472 44.6101 417.726 44.781C418.264 45.1038 418.564 45.2114 418.88 45.2746C418.88 45.2746 418.89 45.1504 418.941 45.3907C419.405 45.9173 419.818 46.2035 420.232 46.4898C420.232 46.4898 420.373 46.7361 420.763 46.936C422.422 48.4586 423.691 49.7813 424.819 51.4301C423.207 55.7245 421.735 59.6928 420.2 63.833C402.727 52.1563 383.201 46.5581 362.481 43.1035C351.357 42.2933 340.638 41.5495 329.85 40.491C328.542 40.4082 327.302 40.64 325.709 40.9359C324.879 40.9733 324.402 40.9467 323.626 40.6512C320.538 40.2802 317.696 39.7911 314.974 40.1705C311.293 40.6836 307.705 41.8635 303.669 42.8678C299.006 43.9679 294.752 44.9577 290.433 45.87C290.369 45.7925 290.175 45.8487 289.752 45.8671C285.864 46.9094 282.4 47.9333 278.967 48.9708C278.998 48.9844 278.995 48.9166 278.657 48.9247C277.524 49.2742 276.728 49.6156 275.964 49.9708C275.995 49.9846 275.996 49.9161 275.659 49.9267C274.524 50.2784 273.727 50.6195 272.963 50.9723C272.995 50.9841 272.994 50.9154 272.685 50.9414C271.9 51.2939 271.423 51.6203 270.97 51.9714C270.994 51.996 270.983 51.9282 270.643 51.8918C269.514 52.2211 268.724 52.5868 267.964 52.9699C267.994 52.9873 267.994 52.919 267.657 52.9259C266.524 53.2767 265.728 53.6207 264.964 53.9734C264.997 53.9823 264.981 53.9156 264.747 53.9448C264.512 53.974 264.06 54.1106 263.712 54.1961C236.591 66.4756 212.144 81.8101 193.838 105.512C177.559 126.589 165.707 149.747 160.043 176.225C158.794 185.859 157.625 195.27 157.104 204.717C156.79 210.398 157.486 216.135 157.592 222.141C150.443 228.889 145.817 236.672 144.165 246.602C144.339 252.067 144.584 257.083 144.599 262.335C144.951 264.04 145.53 265.508 146.071 266.954C146.032 266.932 146.085 266.859 146.084 267.172C146.411 267.968 146.738 268.45 147.076 269.237C147.422 270.005 147.758 270.468 148.089 271.239C148.428 271.998 148.772 272.449 149.115 273.243C149.827 274.382 150.541 275.178 151.444 276.079C151.845 276.397 151.97 276.653 152.03 277.258C152.391 278.037 152.73 278.51 153.038 278.99C153.007 278.998 153.025 278.936 153.134 279.167C153.519 279.593 153.794 279.787 154.038 279.987C154.006 279.994 154.02 279.93 154.128 280.163C154.513 280.591 154.789 280.785 155.035 280.99C155.006 281.001 155.04 280.948 155.019 281.212C154.998 281.653 154.997 281.829 154.992 282.433C154.66 284.986 154.105 287.104 154.043 289.237C153.636 303.352 153.371 317.472 152.988 331.588C152.722 341.378 152.388 351.166 152.003 360.951C151.371 377.03 150.712 393.109 149.99 409.184C149.379 422.766 148.698 436.346 147.921 449.92C147.86 450.979 146.796 451.981 146.111 452.743C145.548 451.71 145.072 450.944 144.105 450.111C138.024 449.723 132.434 449.403 126.893 449.067C126.942 449.053 126.957 449.155 126.806 448.859C126.028 448.427 125.4 448.291 124.842 448.139C124.913 448.124 124.913 448.268 124.783 447.961C124.041 447.473 123.429 447.292 122.871 447.1C122.926 447.089 122.924 447.199 122.843 446.854C120.749 444.4 118.735 442.291 116.768 440.165C116.814 440.148 116.798 440.246 116.907 439.863C117.018 436.524 116.904 433.562 117.043 430.612C117.61 418.542 118.471 406.482 118.815 394.407C119.247 379.26 119.44 364.102 119.407 348.949C119.392 342.307 118.562 335.667 118.026 328.687C118 327.89 118.049 327.433 118.38 326.728C119.394 320.301 120.527 314.136 120.766 307.937C121.125 298.648 120.856 289.334 120.946 279.617C121.325 277.101 121.844 275 121.86 272.896C121.945 261.924 121.902 250.95 121.924 239.54C122.243 232.804 122.623 226.509 122.814 220.208C122.984 214.609 122.886 209.003 123.028 203.403C123.078 201.43 123.512 199.469 123.732 197.499C124.835 187.603 125.573 177.649 127.125 167.824C128.556 158.765 130.855 149.842 132.511 140.758C132.285 140.473 132.32 140.29 132.653 140.275C137.063 139.486 134.711 137.058 134.173 134.722C137.271 127.216 140.374 120.031 143.476 112.846C143.476 112.846 143.777 112.618 143.899 112.143C146.503 107.366 148.987 103.065 151.47 98.7626C151.47 98.7626 151.795 98.56 151.952 98.1319C152.885 96.4221 153.661 95.1405 154.437 93.8588C154.437 93.8588 154.77 93.6848 155.022 93.2502C156.595 91.2185 157.991 89.6767 159.223 88.0134C162.337 83.808 165.378 79.548 168.448 75.3098C168.448 75.3098 168.291 75.2683 168.514 75.2504C168.934 74.9792 169.193 74.8472 169.856 74.7567C170.792 73.7689 171.386 72.8608 171.98 71.9526C171.98 71.9526 172.003 71.9984 172.197 71.8558C172.582 71.4298 172.774 71.1463 172.965 70.8628C173.728 69.9616 174.491 69.0604 175.797 67.9496C176.544 67.432 176.748 67.1239 176.952 66.8159C176.952 66.8159 176.957 66.9574 177.149 66.8515C177.544 66.4418 177.748 66.1379 177.952 65.834C177.952 65.834 177.959 65.9614 178.157 65.8522C178.55 65.4318 178.745 65.1206 178.941 64.8094C178.941 64.8094 178.95 64.952 179.144 64.8476C179.54 64.4345 179.742 64.1258 179.945 63.8171C179.945 63.8171 179.953 63.9548 180.149 63.8502C180.543 63.4345 180.74 63.1234 180.937 62.8122C180.937 62.8122 180.946 62.9478 181.146 62.8521C181.546 62.4491 181.746 62.1418 181.946 61.8346C181.946 61.8346 181.955 61.9584 182.157 61.8563C182.555 61.4446 182.752 61.1348 182.949 60.8251C182.954 60.4888 183.101 60.2334 183.907 60.0264C184.946 59.3265 185.465 58.6589 186.052 57.7696C186.121 57.5479 186.262 57.1054 186.262 57.1054C186.262 57.1054 186.114 57.0942 186.369 57.074C186.747 56.9292 186.87 56.8046 187.3 56.5491C189.143 54.9938 190.68 53.5695 192.218 52.1452C192.218 52.1452 192.098 52.1244 192.47 52.0664C195.925 49.691 199.009 47.3736 202.092 45.0563C202.092 45.0563 202.02 45.0312 202.337 44.9785C203.49 44.3004 204.326 43.675 205.161 43.0496Z" fill="#333029"/>
<path d="M362.885 43.17C383.2 46.5581 402.727 52.1563 420.2 63.833C421.735 59.6928 423.207 55.7245 425.094 51.2144C428.153 48.4075 430.797 46.1424 433.817 43.8831C435.088 43.1707 435.983 42.4524 436.908 41.7733C436.938 41.8126 436.848 41.8556 437.175 41.8905C437.98 41.5512 438.459 41.1769 438.934 40.8469C438.93 40.8912 438.848 40.8564 439.187 40.8842C439.978 40.5058 440.43 40.0996 440.95 39.7417C441.017 39.79 440.931 39.9311 441.307 39.9598C442.777 39.5932 443.872 39.1978 444.98 38.84C444.992 38.8775 444.913 38.8848 445.36 38.9264C452.21 38.623 458.613 38.278 465.424 37.9683C466.914 38.3305 467.975 38.8219 469.08 38.9592C480.601 40.3902 484.296 44.9247 482.565 56.1421C481.106 58.8609 479.942 61.4001 478.779 63.9393C478.446 64.02 478.225 64.223 477.772 64.9494C472.213 69.9389 466.998 74.5274 461.433 79.1664C458.188 80.2316 455.292 81.2463 451.907 82.4326C462.97 93.3468 469.499 106.428 474.798 120.58C475.216 121.611 475.574 122.333 475.963 123.03C475.994 123.005 475.917 123.024 475.893 123.385C476.231 124.852 476.593 125.958 476.971 127.034C476.986 127.003 476.919 127.012 476.933 127.348C477.277 128.473 477.606 129.262 477.959 130.02C477.982 129.989 477.914 130.027 477.899 130.422C478.008 132.321 478.133 133.825 478.194 135.804C478.278 138.253 478.429 140.226 478.575 142.2C479.231 151.032 479.885 159.864 480.54 168.696C478.435 163.108 477.366 157.442 475.911 151.877C475.358 149.764 473.917 147.883 472.681 145.618C463.277 122.219 448.008 103.983 427.496 90.1354C410.091 78.3854 390.895 71.5253 369.385 70.1474C361.01 70.132 353.089 70.1576 344.724 70.1394C335.264 71.3901 326.119 72.1093 317.255 74.0872C290.318 80.0978 266.42 92.2236 245.852 111.155C245.379 111.466 245.177 111.711 244.744 112.143C242.957 113.795 241.461 115.31 239.728 116.967C239.258 117.392 239.025 117.675 238.606 118.046C238.187 118.303 238.033 118.526 237.735 118.952C237.317 119.392 237.121 119.685 236.959 119.983C236.992 119.99 236.973 119.925 236.74 120.035C236.314 120.422 236.12 120.699 235.958 120.984C235.991 120.991 235.976 120.925 235.734 121.035C235.27 121.419 235.048 121.693 234.555 122.122C233.19 123.529 232.096 124.78 230.799 126.158C230.342 126.492 230.155 126.748 229.765 127.243C220.156 140.301 210.816 153.17 201.15 166.156C200.565 166.872 200.304 167.471 200.028 168.039C200.013 168.008 200.082 168.012 199.821 168.178C199.387 168.92 199.213 169.497 199.027 170.042C199.014 170.01 199.083 170.007 198.823 170.174C198.387 170.918 198.211 171.495 198.024 172.04C198.012 172.008 198.081 172.005 197.821 172.172C197.384 172.915 197.206 173.491 197.017 174.036C197.005 174.005 197.071 174.003 196.811 174.169C196.377 174.913 196.203 175.49 196.018 176.037C196.006 176.005 196.073 176.003 195.814 176.171C195.38 176.915 195.206 177.492 195.02 178.038C195.009 178.006 195.076 178.005 194.815 178.17C194.381 178.914 194.207 179.493 194.024 180.038C194.013 180.006 194.082 180.006 193.819 180.17C193.386 180.912 193.216 181.491 193.029 182.039C193.013 182.008 193.082 182.012 192.823 182.177C192.392 182.915 192.22 183.488 192.03 184.031C192.013 184.001 192.081 184.016 191.822 184.18C191.393 184.916 191.223 185.487 191.028 186.035C191.004 186.011 191.072 186.015 190.8 186.221C190.363 187.308 190.2 188.189 190.025 189.037C190.015 189.005 190.083 189.01 189.751 189.168C188.96 190.907 188.501 192.489 188.03 194.037C188.02 194.004 188.088 194.014 187.76 194.166C185.96 199.227 184.489 204.137 183.006 209.024C182.994 209.001 183.046 209.001 182.786 209.169C182.327 210.543 182.128 211.75 181.918 213.278C181.881 214.028 181.855 214.456 181.444 214.885C178.962 214.861 176.698 214.31 174.798 214.911C169.277 216.654 163.902 218.86 158.456 220.485C157.685 205.333 157.405 190.603 160.396 176.017C165.707 149.747 177.559 126.589 193.838 105.512C212.144 81.8101 236.591 66.4757 263.813 54.339C264.502 54.2362 264.742 54.0759 264.981 53.9157C264.981 53.9157 264.997 53.9823 265.311 53.9797C266.415 53.6244 267.204 53.2717 267.993 52.919C267.993 52.919 267.993 52.9873 268.309 52.9819C269.411 52.6271 270.197 52.2776 270.983 51.9282C270.983 51.9282 270.994 51.996 271.278 51.9601C272.039 51.588 272.516 51.2517 272.993 50.9154C272.993 50.9154 272.995 50.9841 273.31 50.9793C274.416 50.6217 275.206 50.2689 275.996 49.9161C275.996 49.9161 275.995 49.9846 276.311 49.9802C277.417 49.6227 278.206 49.2696 278.995 48.9166C278.995 48.9166 278.998 48.9844 279.387 48.9827C283.242 47.937 286.709 46.8929 290.175 45.8488C290.175 45.8488 290.369 45.7925 290.908 45.8816C296.764 45.2807 302.087 44.6351 307.388 43.8374C307.972 43.7496 308.424 42.7904 309.28 42.1497C310.09 42.0779 310.559 42.0918 311.34 42.3711C315.454 42.6857 319.255 42.7711 323.056 42.7769C331.635 42.7899 340.215 42.7153 348.793 42.7726C353.491 42.8039 358.188 43.0311 362.885 43.17Z" fill="#79476D"/>
<path d="M621.075 566.117C626.303 565.416 631.524 564.195 636.761 564.122C647.953 563.968 655.026 571.872 654.599 583.068C654.543 584.52 655.463 586.16 656.305 587.473C663.4 598.544 662.858 605.269 654.384 614.97C653.296 616.217 653.122 618.588 653.16 620.426C653.246 624.569 652.791 628.383 648.911 631.6C648.012 632.019 647.585 632.081 646.814 632.239C642.068 634.036 636.783 634.725 633.442 637.641C625.883 644.241 617.438 645.727 607.85 644.709C607.072 644.369 606.501 644.245 605.588 644.021C599.81 639.799 594.373 635.678 588.984 631.267C588.233 630.081 587.433 629.185 586.67 628.234C586.708 628.179 586.715 628.311 586.812 627.913C585.593 622.496 584.349 617.456 582.894 612.477C582.622 611.545 581.503 610.861 580.843 610.058C580.911 610.055 580.896 610.19 580.885 609.833C579.512 608.699 578.15 607.922 576.854 607.111C576.92 607.076 576.97 607.217 576.8 606.914C576.213 606.418 575.795 606.225 575.111 606.042C574.141 605.55 573.438 605.046 572.735 604.543C572.735 604.543 572.568 604.406 572.287 604.157C569.462 601.782 566.918 599.655 564.375 597.529C564.375 597.529 564.28 597.647 564.239 597.411C563.903 596.975 563.609 596.775 563.315 596.575C563.315 596.575 563.392 596.596 563.194 596.314C561.388 594.606 559.781 593.181 558.174 591.755C558.174 591.755 558.123 591.879 558.075 591.626C557.705 591.184 557.383 590.994 557.062 590.804C557.062 590.804 557.054 590.945 557.019 590.679C556.68 590.207 556.376 590 556.073 589.793C556.073 589.793 556.081 589.904 555.996 589.606C554.984 588.475 554.058 587.643 553.131 586.81C553.131 586.81 553.097 586.919 553.049 586.659C552.701 586.181 552.403 585.963 552.104 585.745C552.104 585.745 552.093 585.911 552.066 585.638C551.729 585.156 551.418 584.947 551.108 584.737C551.108 584.737 551.102 584.904 551.06 584.609C550.421 583.756 549.826 583.199 549.23 582.642C549.23 582.642 549.208 582.815 549.184 582.536C548.862 582.04 548.565 581.823 548.267 581.606C548.267 581.606 548.286 581.778 548.225 581.413C545.877 578.586 543.59 576.123 541.303 573.66C541.303 573.66 541.232 573.782 541.17 573.467C536.769 567.384 532.43 561.616 528.092 555.849C528.092 555.849 528.072 555.946 528.048 555.695C527.812 555.193 527.6 554.942 527.387 554.691C527.387 554.691 527.559 554.553 527.386 554.253C527.128 553.506 527.043 553.058 526.866 552.286C526.476 551.647 526.177 551.331 525.924 551.025C525.969 551.033 525.944 551.12 525.919 550.795C525.524 549.999 525.156 549.528 524.849 549.059C524.912 549.062 524.884 549.185 524.922 548.799C523.843 546.334 522.726 544.254 521.678 542.154C521.748 542.134 521.734 542.279 521.826 541.9C521.47 540.736 521.021 539.951 520.643 539.127C520.715 539.089 520.754 539.247 520.85 538.784C520.974 530.412 520.561 522.467 521.195 514.606C521.572 509.942 523.599 505.411 524.883 500.82C524.883 500.82 524.913 500.948 525.154 500.812C525.549 500.046 525.703 499.416 525.857 498.787C525.857 498.787 525.877 498.92 526.16 498.835C527.607 496.332 528.769 493.916 529.932 491.499C532.064 487.791 534.196 484.083 537.012 480.183C538.488 479.968 539.281 479.945 540.069 479.896C540.065 479.87 540.116 479.863 540.108 480.219C543.757 484.039 547.413 487.502 551.036 490.976C551.003 490.986 551.035 490.924 551.047 491.243C552.054 492.352 553.05 493.143 554.311 494.133C557.419 497.22 560.261 500.107 563.257 503.235C563.903 503.692 564.394 503.907 564.913 504.119C564.942 504.116 564.934 504.06 564.911 504.373C565.238 504.814 565.589 504.94 565.963 505.031C565.985 504.996 565.93 505.063 565.878 505.411C567.19 506.87 568.555 507.982 569.948 509.091C569.975 509.09 569.93 509.059 569.893 509.382C570.218 509.827 570.58 509.949 570.924 510.054C570.907 510.037 570.906 510.086 570.849 510.436C571.5 511.226 572.207 511.667 572.909 512.06C572.903 512.012 572.866 512.1 572.755 512.417C573.385 513.522 574.127 514.309 574.914 515.083C574.959 515.069 574.891 515.136 575.004 515.403C575.705 516.155 576.293 516.639 576.914 517.115C576.946 517.107 576.918 517.048 576.982 517.31C577.348 517.739 577.65 517.905 577.979 518.048C578.005 518.024 577.935 518.039 577.993 518.326C578.325 518.887 578.599 519.161 578.986 519.737C583.055 524.066 587.012 528.094 590.983 532.47C598.66 542.215 606.325 551.611 614.092 561.284C614.762 562.094 615.329 562.626 615.917 563.11C615.937 563.062 615.844 563.109 615.965 563.412C617.288 564.764 618.49 565.814 619.958 566.809C620.507 566.543 620.791 566.33 621.075 566.117Z" fill="#87431E"/>
<path d="M849.991 528.16C864.343 514.807 877.415 500.317 888.763 484.313C890.292 482.157 891.484 479.763 892.995 477.16C896.549 481.821 899.94 486.803 903.818 492.217C911.913 504.32 914.39 517.397 914.463 531.141C913.742 531.944 913.232 532.602 913.052 533.341C911.61 539.239 910.327 545.178 908.784 551.048C908.152 553.451 907 555.718 905.936 558.366C903.044 563.585 900.301 568.483 897.558 573.381C897.558 573.381 897.336 573.45 897.101 573.765C896.232 575.032 895.599 575.983 894.965 576.935C890.034 582.911 885.103 588.888 879.74 595.378C876.503 598.6 873.697 601.31 870.568 604.074C869.881 604.828 869.518 605.528 869.137 606.163C869.119 606.099 869.251 606.094 868.972 606.181C868.487 606.587 868.283 606.907 868.073 607.148C868.068 607.07 868.224 607.08 867.95 607.169C867.474 607.573 867.271 607.887 867.069 608.129C867.069 608.057 867.213 608.076 866.94 608.166C866.468 608.569 866.269 608.882 866.058 609.127C866.046 609.06 866.183 609.053 865.918 609.158C865.459 609.58 865.264 609.896 865.065 610.137C865.06 610.061 865.212 610.07 864.943 610.163C864.466 610.561 864.258 610.865 864.046 611.104C864.043 611.038 864.175 611.044 863.923 611.156C863.457 611.558 863.243 611.849 863.03 612.139C863.03 612.139 863.033 612.049 862.721 612.054C861.292 613.393 860.174 614.727 858.739 616.163C858.015 617.218 857.607 618.169 857.171 619.093C857.142 619.065 857.221 619.078 856.943 619.193C856.51 619.668 856.355 620.027 856.2 620.387C856.2 620.387 856.194 620.2 856.078 620.214C855.836 620.274 855.711 620.318 855.586 620.362C855.706 620.574 855.827 620.786 855.948 620.998C852.033 625.677 848.118 630.355 843.772 635.465C842.566 636.6 841.793 637.303 841.019 638.006C841.019 638.006 841 637.997 840.703 638.122C839.871 638.563 839.337 638.878 838.52 639.169C837.865 639.047 837.493 638.95 837.112 638.424C836.421 633.995 835.739 629.996 835.043 625.577C835.022 624.03 835.016 622.903 835.01 621.776C835.105 621.641 835.172 621.427 835.299 621.381C843.36 618.465 842.353 612.282 841.495 605.627C839.726 591.913 838.502 578.128 837.432 563.888C838.794 560.937 839.779 558.47 840.912 555.685C845.86 548.394 850.659 541.422 855.533 534.341C853.395 531.957 851.693 530.058 849.991 528.16Z" fill="#86431E"/>
<path d="M458.968 732.986C458.629 733.022 458.353 733.173 457.802 733.764C457.251 734.37 457.039 734.653 456.827 734.935C456.827 734.935 456.947 734.938 456.633 734.991C455.138 735.969 453.958 736.893 452.777 737.818C452.777 737.818 452.895 737.834 452.519 737.851C449.567 739.297 446.99 740.725 444.05 742.134C443.177 742.548 442.668 742.982 442.163 743.335C442.166 743.255 442.311 743.324 441.963 743.245C441.148 743.591 440.68 744.015 440.188 744.372C440.163 744.305 440.305 744.32 439.959 744.248C439.116 744.567 438.618 744.959 438.116 745.27C438.112 745.19 438.269 745.227 437.926 745.178C437.085 745.515 436.588 745.9 436.089 746.216C436.087 746.148 436.22 746.179 435.888 746.144C435.053 746.454 434.549 746.798 434.049 747.102C434.051 747.062 434.128 747.084 433.726 747.059C430.9 748.073 428.475 749.113 426.047 750.111C426.043 750.069 426.127 750.077 425.762 750.066C424.628 750.453 423.859 750.852 423.084 751.188C423.08 751.126 423.203 751.147 422.884 751.135C422.038 751.407 421.511 751.692 420.809 752.098C420.634 752.219 420.217 752.308 419.978 752.406C419.466 752.711 419.192 752.918 418.538 753.122C408.429 755.366 398.702 757.615 388.689 759.611C387.591 759.257 386.757 758.983 385.969 759.082C378.278 760.04 370.586 760.996 362.915 762.094C359.302 762.61 355.733 763.434 352.108 764.275C352.071 764.432 352.036 764.754 351.755 764.817C351.293 764.95 351.114 765.019 350.667 765.039C350.227 764.941 350.052 764.893 349.572 764.58C334.892 763.885 320.518 763.453 305.734 763.016C303.574 763.292 301.824 763.574 299.727 763.902C298.92 763.872 298.461 763.794 298.108 763.431C294.884 762.434 291.546 761.754 288.224 761.007C271.685 757.29 255.153 753.537 238.605 749.86C237.473 749.609 236.226 749.87 234.737 749.907C234.046 749.943 233.651 749.965 233.003 749.722C227.862 747.563 222.975 745.669 218.088 743.774C218.088 743.774 218.075 743.877 217.921 743.585C212.723 740.371 207.678 737.45 202.634 734.528C202.634 734.528 202.513 734.36 202.201 734.166C201.123 733.485 200.357 732.999 199.592 732.513C199.592 732.513 199.47 732.389 199.157 732.151C197.564 729.896 195.033 727.733 195.248 725.89C195.798 721.163 197.568 716.577 199.206 711.912C201.229 712.175 203.029 712.15 204.542 712.797C214.603 717.102 224.321 722.439 234.693 725.735C248.543 730.137 262.795 733.435 277.047 736.365C287.876 738.591 298.943 740.448 309.959 740.805C333.802 741.578 357.735 741.803 381.28 736.922C393.591 734.37 406.088 732.05 417.891 727.892C430.948 723.292 443.308 716.709 456.138 711.343C456.549 712.792 456.706 713.919 457.057 714.98C458.271 718.646 459.553 722.29 460.886 726.326C460.298 728.802 459.633 730.894 458.968 732.986Z" fill="#256F6D"/>
<path d="M865.574 319.071C865.437 316.885 865.587 314.652 866.034 312.48C869.661 294.855 870.17 276.999 869.948 259.102C869.911 256.095 870.277 253.849 874.393 253.125C879.026 254.63 882.985 256.372 887.127 258.413C888.648 259.834 890.589 260.695 891.211 262.129C893.025 266.312 894.312 270.724 895.555 275.37C894.9 282.168 894.496 288.643 894.078 295.079C894.064 295.04 894.146 295.049 893.832 295.221C893.049 296.974 892.581 298.554 892.113 300.135C892.113 300.135 892.079 300.057 891.842 300.199C891.425 300.921 891.244 301.501 891.064 302.081C891.064 302.081 891.009 302.016 890.713 302.152C889.651 303.683 888.884 305.077 888.116 306.471C885.445 309.267 883.229 312.917 879.989 314.647C875.749 316.91 870.699 317.655 865.574 319.071Z" fill="#763B1A"/>
<path d="M590.969 532.122C587.012 528.094 583.055 524.066 578.917 519.45C578.469 518.588 578.202 518.313 577.936 518.039C577.936 518.039 578.005 518.024 577.864 517.824C577.455 517.432 577.187 517.24 576.918 517.048C576.918 517.048 576.946 517.107 576.903 516.781C576.204 516.015 575.548 515.575 574.891 515.136C574.891 515.136 574.959 515.069 574.921 514.752C574.211 513.657 573.538 512.878 572.866 512.1C572.866 512.1 572.903 512.012 572.802 511.78C572.103 511.061 571.504 510.573 570.906 510.086C570.906 510.086 570.907 510.037 570.812 509.834C570.514 509.359 570.251 509.169 569.93 509.059C569.93 509.059 569.975 509.09 569.831 508.791C568.434 507.349 567.182 506.206 565.93 505.063C565.93 505.063 565.985 504.996 565.853 504.811C565.52 504.353 565.257 504.164 564.934 504.06C564.934 504.06 564.942 504.116 564.853 503.878C564.211 503.425 563.657 503.21 563.103 502.994C560.261 500.107 557.419 497.22 554.26 493.795C552.974 492.48 552.005 491.702 551.035 490.924C551.035 490.924 551.003 490.986 550.869 490.678C547.195 486.868 543.656 483.366 540.116 479.863C540.116 479.863 540.065 479.87 540.011 479.611C539.346 478.909 538.736 478.467 538.126 478.025C538.303 477.517 538.48 477.009 539.133 476.172C543.091 471.903 546.573 467.964 550.054 464.025C550.054 464.025 549.999 464.004 550.221 463.97C550.442 463.936 550.867 463.815 550.867 463.815C551.736 464.749 552.605 465.682 553.862 466.98C554.251 467.345 554.7 467.309 554.7 467.309C554.7 467.309 554.862 467.271 554.775 467.512C555.45 468.517 556.211 469.281 556.971 470.046C556.971 470.046 556.998 469.998 557.128 470.261C557.82 471.051 558.383 471.578 558.945 472.106C558.945 472.106 558.968 472.035 559.03 472.283C559.376 472.751 559.66 472.97 559.944 473.189C560.4 473.738 560.855 474.286 561.691 475.185C562.373 475.728 562.674 475.919 562.975 476.111C562.975 476.111 562.937 476.039 563.072 476.361C564.084 477.207 564.961 477.73 565.838 478.253C565.838 478.253 565.883 478.134 565.651 478.431C565.914 479.198 566.41 479.668 566.905 480.137C566.905 480.137 566.95 480.07 567.003 480.314C567.358 480.742 567.659 480.925 567.961 481.109C567.961 481.109 567.964 481.033 567.999 481.305C568.344 481.756 568.654 481.935 568.964 482.114C568.964 482.114 568.966 482.03 569.001 482.304C569.345 482.751 569.654 482.926 569.963 483.1C569.963 483.1 569.966 483.025 569.986 483.31C570.324 483.766 570.643 483.936 570.961 484.106C570.961 484.106 570.961 484.03 570.98 484.318C571.319 484.769 571.639 484.93 571.959 485.092C571.959 485.092 571.996 485.034 571.995 485.36C572.317 485.984 572.64 486.283 572.963 486.581C573.927 487.775 574.892 488.968 576.09 490.686C576.617 491.441 576.911 491.673 577.145 491.907C577.086 491.91 577.105 491.793 577.215 492.052C577.636 492.508 577.945 492.705 578.185 492.888C578.115 492.874 578.176 492.744 578.157 493.109C579.482 494.61 580.826 495.746 582.13 496.908C582.089 496.933 582.056 496.843 582.169 497.087C582.568 497.536 582.855 497.741 583.092 497.943C583.043 497.94 583.065 497.843 583.177 498.09C583.584 498.533 583.879 498.73 584.13 498.928C584.087 498.928 584.108 498.844 584.125 499.182C584.805 499.981 585.468 500.44 586.121 500.916C586.11 500.934 586.132 500.895 586.148 501.221C586.802 501.999 587.439 502.45 588.059 502.923C588.043 502.945 588.051 502.894 588.16 503.123C588.536 503.549 588.803 503.747 589.036 503.97C589.002 503.995 589.051 503.926 589.159 504.14C589.454 504.625 589.7 504.82 590.028 504.947C590.048 504.954 590.057 504.997 590.062 505.214C590.375 505.605 590.684 505.778 591.225 506.016C591.457 506.081 591.929 506.181 591.929 506.181C591.929 506.181 591.982 506.085 592.001 506.336C592.334 506.76 592.648 506.933 592.962 507.106C592.962 507.106 592.893 507.047 593.002 507.399C594.768 509.764 596.427 511.777 598.085 513.791C599.697 515.69 601.31 517.59 603.045 520.155C599.102 524.587 595.035 528.355 590.969 532.122Z" fill="#265C8B"/>
<path d="M445.055 611.491C442.129 613.121 439.202 614.75 435.742 616.691C435.008 617.043 434.809 617.083 434.467 616.939C434.152 616.477 434.087 616.177 434.379 615.617C433.748 612.591 432.866 609.802 431.998 606.596C428.024 594.438 424.035 582.696 420.013 570.661C419.646 569.918 419.312 569.467 418.994 568.64C418.352 566.501 417.694 564.739 417.025 562.611C415.991 560.176 414.97 558.108 413.962 555.655C412.946 552.259 411.916 549.249 411.286 546.219C417.191 547.763 422.695 549.328 428.2 550.893C428.2 550.893 428.079 550.943 428.146 551.216C431.826 556.088 435.399 560.719 439.103 565.244C439.587 565.835 440.742 565.876 441.579 566.393C441.571 566.615 441.152 566.76 441.215 567.043C441.592 567.526 441.906 567.727 442.18 567.922C442.14 567.917 442.203 567.866 442.143 568.24C442.582 570.975 443.538 573.347 443.481 575.694C443.369 580.296 446.116 585.408 440.75 589.261C438.654 590.766 437.61 593.737 436.087 596.04C436.514 596.381 436.94 596.722 437.367 597.064C440.285 594.521 443.203 591.977 446.151 589.408C447.774 589.879 449.49 590.377 451.153 590.879C451.1 590.883 451.124 590.778 451.109 591.206C450.775 596.466 450.455 601.298 449.801 606.195C447.996 608.003 446.525 609.747 445.055 611.491Z" fill="#9D5526"/>
<path d="M592.234 690.071C592.234 690.071 592.666 690.023 593.095 689.899C593.863 689.659 594.082 689.428 594.18 689.083C594.18 689.083 594.062 689.055 594.39 689.064C595.135 688.974 595.551 688.874 596.278 688.815C597.339 688.55 598.088 688.245 599.234 688.011C611.49 691.251 623.395 694.265 635.192 697.657C641.153 699.371 643.665 703.757 642.931 709.88C641.946 718.091 641.193 726.345 639.81 734.49C637.008 750.981 634.041 767.449 630.778 783.854C628.12 797.22 620.41 803.74 606.9 802.752C598.754 802.156 590.757 799.297 582.754 797.222C581.628 796.93 580.846 795.308 579.905 794.302C588.162 795.198 595.685 796.971 603.244 798.572C614.85 801.031 623.413 796.709 626.224 785.182C630.18 768.957 632.824 752.41 635.977 735.991C636.471 733.419 636.688 730.793 637.033 728.192C635.012 730.023 634.191 732.219 632.902 734.093C630.659 737.352 628.575 740.943 625.616 743.437C620.569 747.69 614.162 748.259 608.104 746.378C599.848 743.815 590.857 742.878 583.961 736.517C583.956 735.838 583.957 735.448 584.335 735.086C592.308 737.507 599.826 740.203 607.527 742.185C612.327 743.422 617.8 745.611 622.146 741.415C631.602 732.283 637.663 721.259 638.988 707.963C639.352 704.304 637.641 702.024 634.07 700.977C625.49 698.459 616.883 696.01 608.392 693.213C602.593 691.302 596.961 688.965 590.867 691.569C590.906 691.381 591.04 691.021 591.04 691.021C591.04 691.021 591.003 690.997 591.274 690.945C591.775 690.62 592.004 690.346 592.234 690.071Z" fill="#474F1C"/>
<path d="M879.392 238.296C880.135 233.181 880.847 228.06 881.629 222.95C882.601 216.591 883.366 210.182 884.747 203.91C885.44 200.767 887.224 197.844 888.647 194.885C893.259 185.293 894.013 175.639 890.242 165.479C888.936 161.963 889.155 158.109 891.969 154.52C893.612 152.426 894.072 149.048 894.226 146.203C894.818 135.215 893.038 124.73 884.416 116.965C879.343 112.397 880.277 106.822 880.599 101.535C881.66 105.289 882.297 108.748 882.934 112.208C884.355 113.744 885.775 115.281 887.594 117.207C888.287 117.812 888.582 118.028 888.877 118.244C888.877 118.244 888.89 118.108 888.927 118.456C890.924 122.272 892.884 125.742 894.845 129.211C894.845 129.211 894.878 129.122 894.896 129.532C896.943 137.932 896.509 145.901 894.709 153.858C894.709 153.858 894.82 153.881 894.516 154.037C892.411 158.506 889.553 162.76 893.474 167.393C893.474 167.393 893.525 167.433 893.514 167.861C897.355 179.719 893.878 190.196 888.654 200.102C884.787 207.435 885.624 215.372 884.044 223.376C882.423 228.602 880.907 233.449 879.392 238.296Z" fill="#12100D"/>
<path d="M860.673 975.707C830.732 982.425 800.797 989.161 770.543 995.516C772.829 994.189 775.364 992.921 778.047 992.35C794.907 988.761 811.927 985.839 828.647 981.694C845.008 977.638 861.064 972.357 877.28 967.705C879.134 967.174 881.159 967.236 883.056 967.2C882.89 967.593 882.779 967.812 882.675 968.035C882.675 968.035 882.212 968.029 881.683 968.202C879.996 968.931 878.838 969.487 877.68 970.043C877.68 970.043 877.297 969.972 876.78 970.063C875.431 970.536 874.599 970.918 873.766 971.3C873.766 971.3 873.386 971.153 872.898 971.388C868.504 972.981 864.598 974.339 860.693 975.696C860.693 975.696 860.678 975.724 860.673 975.707Z" fill="#131B25"/>
<path d="M495.955 444.992C495.937 445.326 495.883 445.653 495.519 446.362C494.745 447.136 494.243 447.523 493.742 447.911C493.742 447.911 493.337 447.913 492.876 448.017C491.528 448.496 490.64 448.87 489.753 449.245C489.753 449.245 489.376 449.156 488.9 449.443C485.092 450.315 481.762 450.899 478.289 451.509C477.801 453.121 477.248 454.947 476.696 456.773C476.696 456.773 476.815 456.841 476.553 456.91C476.02 457.436 475.748 457.893 475.476 458.35C475.476 458.35 475.328 458.464 475.182 458.601C475.035 458.738 474.98 458.982 474.98 458.982C471.363 456.165 467.725 453.375 464.134 450.526C458.777 446.275 453.454 441.983 448.423 437.43C450.151 438.098 451.574 439.046 453.34 440.052C460.385 445.04 467.084 449.969 473.478 454.673C475.126 452.956 476.578 451.443 478.374 449.801C484.463 448.112 490.209 446.552 495.955 444.992Z" fill="#181613"/>
<path d="M627.49 39.5021C625.386 45.6077 622.418 51.3934 615.736 53.0547C606.536 55.342 597.936 58.4931 590.419 64.9386C593.849 61.6901 597.282 57.8398 601.476 55.1951C604.827 53.0824 609.066 51.5323 612.978 51.3725C617.762 51.1771 619.945 48.6325 622.329 44.7231C623.242 43.4778 623.827 42.7096 624.411 41.9413C624.57 41.8377 624.729 41.734 624.941 41.3291C624.993 41.0279 625.073 41.0199 625.073 41.0199C625.268 40.9824 625.464 40.9449 626.068 40.6052C626.814 40.0361 627.152 39.7691 627.49 39.5021Z" fill="#181613"/>
<path d="M779.892 402.174C794.372 404.049 807.864 409.092 821.438 415.061C824.993 416.984 828.188 418.873 831.677 420.942C831.236 421.267 830.356 421.748 829.786 421.504C818.749 416.788 807.873 411.666 796.684 407.351C791.699 405.428 786.1 405.096 780.369 403.711C779.936 402.979 779.914 402.576 779.892 402.174Z" fill="#AC170E"/>
<path d="M124.996 962.069C124.996 962.069 124.752 961.841 124.408 961.591C123.27 961.033 122.477 960.724 121.684 960.416C121.684 960.416 121.532 960.281 121.217 960.158C120.541 959.759 120.18 959.484 119.864 959.158C119.908 959.107 119.995 959.005 120.397 958.993C122.098 959.196 123.474 959.206 124.684 959.659C133.945 963.12 143.198 966.606 152.393 970.238C154.314 970.997 155.985 972.39 157.411 973.563C155.687 973.219 154.323 972.804 152.959 972.388C152.959 972.388 152.654 972.136 152.229 972.068C151.172 971.791 150.542 971.581 149.911 971.371C149.911 971.371 149.615 971.141 149.141 971.069C147.229 970.529 145.79 970.061 144.352 969.594C144.352 969.594 144.22 969.564 144.026 969.362C142.154 968.579 140.476 968 138.797 967.421C138.797 967.421 138.582 967.209 138.212 967.124C137.234 966.824 136.627 966.609 136.021 966.395C136.021 966.395 135.672 966.111 135.145 966.017C131.851 964.79 129.084 963.657 126.318 962.524C126.318 962.524 126.224 962.664 126.121 962.434C125.677 962.16 125.337 962.114 124.996 962.069Z" fill="#131B25"/>
<path d="M547.535 164.845C543.621 153.717 545.436 143.166 551.319 133.149C551.811 132.311 552.433 131.551 553.103 130.413C553.552 130.059 553.794 129.897 554.294 129.29C555.355 128.609 556.059 128.227 556.762 127.845C554.426 132.623 551.161 137.186 549.993 142.234C548.582 148.337 548.969 154.852 548.523 161.185C548.439 162.375 548.096 163.547 547.535 164.845Z" fill="#181613"/>
<path d="M419.979 752.406C420.941 761.312 421.712 770.312 422.367 779.32C422.713 784.065 422.857 788.825 423.445 793.827C423.847 794.513 423.896 794.951 424.012 795.711C424.08 796.034 424.004 795.87 423.552 795.78C422.778 795.153 422.217 794.636 422.167 794.074C421.354 784.781 420.606 775.482 419.877 765.78C419.321 762.293 418.731 759.21 418.355 755.886C418.686 754.806 418.803 753.966 418.919 753.126C419.193 752.918 419.466 752.711 419.979 752.406Z" fill="#71210B"/>
<path d="M673.772 21.9651C681.803 18.311 690.002 16.8551 698.856 18.6C687.741 18.6659 677.247 21.4196 667.726 27.7091C667.387 27.9332 666.768 27.7327 665.9 27.5819C665.705 27.1879 665.933 26.9927 666.334 26.6622C666.463 26.4763 666.468 26.4466 666.782 26.3112C669.162 24.7944 671.228 23.413 673.293 22.0315C673.293 22.0315 673.628 22.0515 673.772 21.9651Z" fill="#12100D"/>
<path d="M520.85 538.784C517.429 528.78 518.464 518.359 521.107 507.557C521.133 507.16 521.07 507.121 521.33 507.048C521.714 506.652 521.838 506.329 521.962 506.006C522.751 504.407 523.539 502.809 524.606 501.015C523.598 505.411 521.572 509.942 521.195 514.606C520.561 522.466 520.974 530.412 520.85 538.784Z" fill="#71210B"/>
<path d="M909.837 552.449C908.801 554.356 907.76 556.083 906.401 557.928C907 555.718 908.152 553.451 908.784 551.048C910.327 545.178 911.61 539.239 913.052 533.341C913.232 532.602 913.742 531.944 914.463 531.141C913.26 537.775 911.693 544.516 910.098 551.628C910.07 552 909.832 552.27 909.837 552.449Z" fill="#71210B"/>
<path d="M876.909 456.911C872.896 453.444 868.879 449.616 864.775 445.444C868.76 448.918 872.833 452.734 876.909 456.911Z" fill="#F8F4EF"/>
<path d="M194.905 597.016C196.114 595.799 197.323 594.581 198.995 593.152C199.458 592.941 199.9 592.867 199.839 593.214C195.74 597.781 193.382 602.308 196.859 608.082C197.223 608.686 196.906 609.7 196.713 610.464C196.344 610.202 196.127 610.06 195.871 609.978C195.836 609.731 195.703 609.559 195.378 609.079C194.969 608.037 194.655 607.378 194.34 606.719C194.34 606.719 194.393 606.81 194.315 606.351C194.281 603.313 194.325 600.732 194.369 598.152C194.369 598.152 194.191 598.133 194.43 598.08C194.748 597.69 194.827 597.353 194.905 597.016Z" fill="#842D0C"/>
<path d="M945.8 930.941C945.457 930.95 945.211 931.109 944.766 931.752C944.277 932.381 944.084 932.677 943.891 932.972C943.54 932.981 943.273 933.136 942.755 933.789C941.916 934.752 941.413 935.363 940.91 935.973C940.581 935.986 940.305 936.114 939.69 936.624C938.862 936.869 938.427 936.847 938.134 936.53C941.846 932.487 945.417 928.738 949.016 925.015C949.044 925.04 949.101 925.091 949.08 925.319C949.06 925.548 949.097 926.005 949.097 926.005C949.097 926.005 948.866 926.254 948.63 926.567C948.246 927.224 948.098 927.57 947.949 927.915C947.61 928.267 947.27 928.619 946.646 929.4C946.174 930.2 945.987 930.571 945.8 930.941Z" fill="#131B25"/>
<path d="M113.987 957.048C113.987 957.048 113.807 956.824 113.453 956.577C111.84 955.76 110.582 955.19 109.323 954.619C109.323 954.619 108.98 954.783 108.938 954.478C107.656 953.118 106.416 952.063 105.516 951.121C110.569 953.824 115.282 956.415 119.995 959.005C119.995 959.005 119.907 959.107 119.543 959.126C118.568 958.942 117.957 958.739 117.346 958.537C117.346 958.537 117.131 958.718 117.076 958.46C116.679 958.151 116.337 958.098 115.995 958.046C115.995 958.046 115.831 957.82 115.51 957.59C114.789 957.256 114.388 957.152 113.987 957.048Z" fill="#131B25"/>
<path d="M584.544 70.9885C583.323 76.0564 581.799 81.3288 579.928 86.7583C581.134 81.6745 582.686 76.4337 584.544 70.9885Z" fill="#12100D"/>
<path d="M451.109 591.206C451.124 590.778 451.546 590.948 451.755 591.039C452.229 591.604 452.495 592.077 452.935 593.175C452.911 597.287 452.713 600.776 452.515 604.264C452.515 604.264 452.15 604.256 451.872 604.559C451.131 605.302 450.666 605.741 450.186 606.167C450.17 606.153 450.136 606.13 450.136 606.13C450.456 601.298 450.775 596.466 451.109 591.206Z" fill="#842D0C"/>
<path d="M152.819 972.743C154.323 972.804 155.687 973.219 157.455 973.545C157.859 973.455 157.921 973.381 158.103 973.67C160.72 974.739 163.156 975.518 165.592 976.298C165.592 976.298 165.287 976.658 165.135 976.839C160.881 975.712 156.779 974.405 152.819 972.743Z" fill="#F2F2EF"/>
<path d="M861.133 975.786C864.598 974.339 868.504 972.981 872.737 971.513C872.448 972.394 872.001 974.053 871.187 974.258C868.046 975.049 864.788 975.376 861.133 975.786Z" fill="#F2F2EF"/>
<path d="M541.244 574.029C543.589 576.123 545.876 578.586 548.3 581.371C546.02 579.262 543.603 576.83 541.244 574.029Z" fill="#F8F4EF"/>
<path d="M201.704 45.0379C199.009 47.3737 195.925 49.691 192.476 52.1268C195.178 49.8367 198.246 47.4281 201.704 45.0379Z" fill="#F5F2EE"/>
<path d="M839.91 49.2284C839.926 49.0235 839.942 48.8186 839.976 48.3058C842.641 51.1449 845.289 54.2918 847.899 57.8185C847.557 57.8712 847.252 57.5442 846.628 56.7587C845.888 55.8114 845.468 55.3226 845.048 54.8338C845.067 54.4988 844.94 54.2347 844.325 53.7322C843.681 53.216 843.376 53.0092 843.072 52.8025C843.072 52.8025 843.063 52.9323 843.02 52.6728C842.678 52.2085 842.381 52.0038 842.083 51.7991C842.083 51.7991 842.073 51.9267 842.026 51.6688C841.675 51.2145 841.372 51.0179 841.069 50.8214C841.069 50.8214 841.062 50.9157 841.004 50.6602C840.601 50.0125 840.255 49.6205 839.91 49.2284Z" fill="#F8F4EF"/>
<path d="M564.37 597.889C566.918 599.655 569.462 601.782 572.181 604.177C569.692 602.38 567.029 600.315 564.37 597.889Z" fill="#F8F4EF"/>
<path d="M100.041 949.969C97.1341 948.172 94.2272 946.374 91.2641 944.181C91.2079 943.784 91.3875 943.599 91.735 943.714C94.8265 945.777 97.5705 947.725 100.245 949.746C100.176 949.82 100.041 949.969 100.041 949.969Z" fill="#F2F2EF"/>
<path d="M951.671 916.076C951.74 917.354 951.809 918.633 951.812 920.289C951.746 920.667 951.807 920.684 951.555 920.83C951.249 921.315 951.196 921.654 951.143 921.993C951.143 921.993 950.935 922.367 950.673 922.746C949.975 923.781 949.538 924.436 949.101 925.091C949.101 925.091 949.044 925.04 948.997 924.61C949.857 921.479 950.764 918.778 951.671 916.076Z" fill="#131B25"/>
<path d="M572.559 604.886C573.438 605.046 574.142 605.55 575.3 606.33C576.16 606.81 576.565 607.013 576.971 607.216C576.971 607.216 576.92 607.076 576.995 607.38C577.777 608.384 578.485 609.086 579.193 609.788C579.193 609.788 579.131 609.853 579.1 609.884C576.84 608.353 574.611 606.791 572.559 604.886Z" fill="#F8F4EF"/>
<path d="M105.177 951.008C106.417 952.063 107.656 953.118 109.115 954.41C106.333 953.295 103.331 951.944 100.185 950.281C100.041 949.969 100.176 949.82 100.543 949.808C101.298 949.768 101.686 949.741 102.386 949.821C103.474 950.235 104.249 950.543 105.024 950.926C105.024 951.002 105.177 951.008 105.177 951.008Z" fill="#F2F2EF"/>
<path d="M126.387 962.874C129.085 963.657 131.851 964.79 134.922 966.038C131.336 968.071 128.834 965.833 126.387 962.874Z" fill="#F2F2EF"/>
<path d="M873.902 83.7993C871.891 82.3907 869.876 80.6249 867.807 78.514C869.802 79.9267 871.85 81.6844 873.902 83.7993Z" fill="#F8F4EF"/>
<path d="M85.068 938.963C83.136 937.167 81.204 935.37 79.201 933.211C79.1301 932.847 79.218 932.755 79.5595 932.804C81.6667 934.842 83.4325 936.831 85.1638 938.854C85.1294 938.888 85.068 938.963 85.068 938.963Z" fill="#F2F2EF"/>
<path d="M122.843 446.854C122.582 447.081 122.24 446.963 121.633 446.784C121.368 446.724 121.356 446.788 121.217 446.521C120.744 446.107 120.411 445.961 120.078 445.815C120.078 445.815 120.069 445.932 120.024 445.665C119.678 445.187 119.377 444.975 119.075 444.764C119.099 444.465 119.002 444.212 118.479 443.695C118.05 443.258 117.924 443.132 117.799 443.006C117.489 442.264 117.178 441.523 116.795 440.482C118.735 442.291 120.749 444.4 122.843 446.854Z" fill="#12100D"/>
<path d="M618.931 351.247C618.604 351.335 618.301 351.022 617.775 350.464C617.552 350.22 617.516 350.189 617.334 349.957C616.709 349.168 616.266 348.612 615.822 348.055C615.822 348.055 615.852 348.215 615.871 348.136C615.268 346.967 614.647 345.879 613.91 344.427C615.514 346.325 617.234 348.586 618.931 351.247Z" fill="#71210B"/>
<path d="M740.69 15.7244C736.974 15.998 732.952 15.9969 728.468 15.9904C732.132 15.8066 736.259 15.6281 740.69 15.7244Z" fill="#EFEBE4"/>
<path d="M558.155 592.122C559.781 593.181 561.388 594.606 563.195 596.274C561.641 595.173 559.889 593.831 558.155 592.122Z" fill="#F8F4EF"/>
<path d="M529.663 491.654C528.769 493.915 527.607 496.332 526.093 498.83C526.96 496.543 528.177 494.176 529.663 491.654Z" fill="#71210B"/>
<path d="M191.865 52.1321C190.68 53.5695 189.143 54.9938 187.293 56.4074C186.979 56.3967 186.956 56.1141 186.956 56.1141C188.475 54.7824 189.994 53.4507 191.865 52.1321Z" fill="#F5F2EE"/>
</svg>
